<svg id="Layer_1" data-name="Layer 1" xmlns="http://www.w3.org/2000/svg" width="155.19" height="155.14" viewBox="0 0 155.19 155.14">
  <title>cs_partiring_alternativet-sm</title>
  <g>
    <path d="M342,270c-24.65,0-49.29,0-73.94.06-2.4,0-3.11-.42-3.11-3q.14-74.44,0-148.88c0-3,.82-3.23,3.42-3.23q74.19.13,148.38,0c2.69,0,3.38.42,3.37,3.28q-.17,74.19,0,148.38c0,3.22-.94,3.49-3.68,3.48C391.61,270,366.79,270,342,270Z" transform="translate(-264.91 -114.93)" fill="#fefefe"/>
    <path d="M415,193.7c-.08,38.45-32.21,71.86-73.07,71.32A72,72,0,1,1,415,193.7Z" transform="translate(-264.91 -114.93)" fill="#f8f5d2"/>
    <path d="M405,193c0,34.15-28,62.23-62.23,62s-61.91-27.38-61.67-62.42c.24-33.83,27-61.48,62.64-61.51C377.08,131,405,159.28,405,193Z" transform="translate(-264.91 -114.93)" fill="#fefefe"/>
    <path d="M342.71,236.92a43.89,43.89,0,1,1,44.19-43.35A43.81,43.81,0,0,1,342.71,236.92Z" transform="translate(-264.91 -114.93)" fill="#171714"/>
    <path d="M350.07,181c4.24,12.49,8.7,24.9,13.86,37a2.07,2.07,0,0,1,.85,2.61c-9.16,1.42-9.16,1.42-13.83-7.46-5.1-.55-10.25.3-15.35-.5-2-3.89.43-6.5,2.65-9.17,2.14-1.88,5.9,1.09,7.46-2.5a41.38,41.38,0,0,0-1.71-5.69c-.41-1.57-1.25-3-1.65-4.56.47-4.34,2.48-8.21,3.87-12.27a2.61,2.61,0,0,1,1.12-.95C349.83,177.43,350.15,179,350.07,181Z" transform="translate(-264.91 -114.93)" fill="#fcfcfc"/>
    <path d="M338.4,203.51l-3.22,8.84c.34.65.52,1.27-.42,1.58a51.72,51.72,0,0,0-2.11,5,2.85,2.85,0,0,1-3.8,2.13c-2.32-.63-5.68,2.11-6.92-2.06-.73-2,.41-3.44,1.53-4.88,3-5.39,4.62-11.3,6.48-17.11-.75-2,.4-3.45,1.52-4.88,2.32-4.37,4.34-8.84,4.6-13.89,3.73-1.76,7.45-2.09,11.15.07l-4.11,12.16a10.14,10.14,0,0,1-1.06,6.34c-.83,1.62-1.25,3.42-2.24,5C338.8,201.9,339.61,203.5,338.4,203.51Z" transform="translate(-264.91 -114.93)" fill="#00fd00"/>
    <path d="M351.92,166.85c-2.84,6.47-6,8.13-13,7.19a3.12,3.12,0,0,1-3.11-3.06c-2.51-3.18-3.39-6.47-.68-10,.78-1.83,2.55-2.64,3.94-3.84,2.31-1.07,4.61-1.83,6.9,0,3.23,1.3,4.77,4,5.94,7.05A1.71,1.71,0,0,1,351.92,166.85Z" transform="translate(-264.91 -114.93)" fill="#f9f9f9"/>
    <path d="M334.75,213.94l.42-1.58c5.24.6,10.6-1,15.78.81-2.06,2.45-4.66.45-7,.74A71.28,71.28,0,0,1,334.75,213.94Z" transform="translate(-264.91 -114.93)" fill="#050505"/>
    <path d="M347.2,178.27l-11.15-.07c2.88-4.59,7.3-1.52,11-2.19a1.53,1.53,0,0,1,.1,2.06Z" transform="translate(-264.91 -114.93)" fill="#1b0d16"/>
    <path d="M335.1,161c-1.37,3.44-.61,6.74.68,10C332.06,167.89,331.84,164.59,335.1,161Z" transform="translate(-264.91 -114.93)" fill="#010100"/>
    <path d="M345.94,157.16l-6.9,0C341.35,155.38,343.66,152.68,345.94,157.16Z" transform="translate(-264.91 -114.93)" fill="#10100d"/>
    <path d="M330.81,222.75h-8.74v-.49h8.69Z" transform="translate(-264.91 -114.93)" fill="#200118"/>
    <path d="M365,222c-3.18,2-6.56.59-9.87,0H365Z" transform="translate(-264.91 -114.93)" fill="#080808"/>
    <path d="M347.11,178.07,347,176c2.35.84,5.13,1.42,3.06,5C348.85,180.24,349.38,177.74,347.11,178.07Z" transform="translate(-264.91 -114.93)" fill="#0c0508"/>
    <path d="M351.92,166.85l0-2.63c.34-.32.55-1.68.87-.91a6.07,6.07,0,0,1,0,4.33C352.39,168.56,352.26,167.13,351.92,166.85Z" transform="translate(-264.91 -114.93)"/>
    <path d="M331.45,192.09,329.93,197C328.14,194.63,329.54,193.28,331.45,192.09Z" transform="translate(-264.91 -114.93)" fill="#23001b"/>
    <path d="M323.45,214.09,321.92,219C320.15,216.63,321.54,215.28,323.45,214.09Z" transform="translate(-264.91 -114.93)" fill="#23001b"/>
    <path d="M364.79,220.63a3.29,3.29,0,0,1-.85-2.61c2.94.65,2.43,2.22,1.06,4l0,0Z" transform="translate(-264.91 -114.93)" fill="#121212"/>
    <path d="M339,202a11.94,11.94,0,0,1,2-5c1.34-.62,1.57-3.44,4-2l2.07,6C344.64,204.16,341.83,203.28,339,202Z" transform="translate(-264.91 -114.93)" fill="#181b15"/>
    <path d="M339,202c2.68-.15,5.47.57,8-1,1.31,1.66,1.27,2.62-1.2,2.54s-4.9,0-7.36,0Z" transform="translate(-264.91 -114.93)" fill="#030c02"/>
    <path d="M344.88,195c-1.69-.09-2.18,2.24-4,2l2.16-6.54A8.16,8.16,0,0,1,344.88,195Z" transform="translate(-264.91 -114.93)" fill="#1a0d18"/>
    <path d="M345.24,166.31c.31,1.19-.15,1.82-1.78,1.8-1.83,0-3.37-.23-3.47-2.5a2.42,2.42,0,0,1,2.32-2.72C344.51,162.65,344.93,164.31,345.24,166.31Z" transform="translate(-264.91 -114.93)" fill="#1a1a18"/>
  </g>
</svg>
