<svg id="Layer_1" data-name="Layer 1" xmlns="http://www.w3.org/2000/svg" width="155.14" height="155.19" viewBox="0 0 155.14 155.19">
  <title>cs_partiring_dansk_folkeparti-md</title>
  <g>
    <path d="M420,193c0,24.65,0,49.29.06,73.94,0,2.4-.41,3.12-3,3.11q-74.44-.14-148.88,0c-2.95,0-3.23-.82-3.23-3.42q.13-74.19,0-148.38c0-2.68.42-3.38,3.28-3.37q74.19.17,148.38,0c3.22,0,3.49.93,3.48,3.68C420,143.39,420,168.21,420,193Z" transform="translate(-264.93 -114.9)" fill="#fefefe"/>
    <path d="M415,193.33c-.08,39.68-32.55,71.79-72.45,71.67-39.64-.12-71.7-32.64-71.54-72.58.16-39.4,32.58-71.48,72.2-71.42A72.05,72.05,0,0,1,415,193.33Z" transform="translate(-264.93 -114.9)"/>
    <path d="M281,192.53c.18-34,28.21-61.66,62.34-61.53s61.91,28.31,61.65,62.72c-.26,33.93-28.41,61.49-62.59,61.27C308.44,254.78,280.82,226.68,281,192.53Z" transform="translate(-264.93 -114.9)" fill="#fefefe"/>
    <path d="M356.87,225.68c1.79-3.1,5.24-4.29,7.7-6.65A60.89,60.89,0,0,0,379.85,195c2-.22,3.91-.32,4.91,1.94-3.45,12.66-11.72,21.46-22.59,28.15a10.25,10.25,0,0,0-3.16,2.83l-1,0C357,227.47,356.26,226.92,356.87,225.68Z" transform="translate(-264.93 -114.9)" fill="#fe1740"/>
    <path d="M299.84,204.27c-1-1.68-.75-3.55-.79-5.36-.12-5.54.86-6.09,6.76-3.88a13.93,13.93,0,0,0-.68,1.8,36.66,36.66,0,0,0,.07,7.72c.37.77.11,1.72.7,2.43.93,5,4,9.09,5.54,13.84a2.39,2.39,0,0,1-3.65,1.26A26,26,0,0,1,300.06,206c.84-1,.18-2.25.59-3.32C300.23,203.12,300.6,204,299.84,204.27Z" transform="translate(-264.93 -114.9)" fill="#fe1740"/>
    <path d="M318.17,169.07c-4.15,6-8.78,11.8-11,19-1.9,2-4,2.76-6.41.88A49.63,49.63,0,0,1,316,165.86,4.34,4.34,0,0,1,318.17,169.07Z" transform="translate(-264.93 -114.9)" fill="#fe1740"/>
    <path d="M386.13,179.77c.91,3.7,1.77,7.39-.15,11-1.29-1.29-3.72-.29-4.63-2.32A39.68,39.68,0,0,0,381,180a10.39,10.39,0,0,0-2.21-6.92L376.07,167c.55-1.32,1.19-2.52,2.95-2.25,1.35.71,1.84,2.28,3.09,3.09,2.3,3,2.9,6.42,2.94,10a4.12,4.12,0,0,1,.46,1.85c.1.58-.36,1.14,0,1.7C385.58,180.82,385.5,180.16,386.13,179.77Z" transform="translate(-264.93 -114.9)" fill="#fe1842"/>
    <path d="M363.94,208.84c1.36-3.88,2.86-7.71,4-11.64.85-2.81,2.91-2.53,4.7-1.89,2.23.8,1.13,2.51.58,4.1-1.52,4.41-4.71,7.76-7.14,11.58C363.83,211.88,363.2,211,363.94,208.84Z" transform="translate(-264.93 -114.9)" fill="#fe1740"/>
    <path d="M343.17,191.44c.23,1.14-.73,1.74-1.19,2.57a2.39,2.39,0,0,1-2.62.55c-2.68-1.86.1-5.71-2.75-7.51a3.39,3.39,0,0,0-3.47-.48c-.35.24-.7.47-1,.72-1.91,1.75-2.56.24-3.22-1.25-1.33-1.08.19-1.81.56-2.18,2-2,10.41-1.23,12.63,1C343.35,186.9,343.13,189.19,343.17,191.44Z" transform="translate(-264.93 -114.9)" fill="#004bb5"/>
    <path d="M315.94,204l0,1c-1.24,2,.24,4,.1,5.94.33,1.57,1.05,3,1.35,4.6.34,1.79.3,3.43-2.35,2.44a.71.71,0,0,1-.14-.79c-.75-1.72-.6-3.78-2-5.24,0-2.19-2.49-3.64-1.76-6,1.31-3.19-.72-6.48.3-9.68,1.44-2.05,3-2.33,4.68-.28l-.13,1C315,199.33,314.25,201.65,315.94,204Z" transform="translate(-264.93 -114.9)" fill="#fe1640"/>
    <path d="M320,182.06c-.78,2.1-2.18,3.93-2.14,6.39,0,3-2.32,2.75-4.3,2.57-2.89-.26-1.84-2.35-1.32-3.7,1-2.59,1.68-5.38,3.67-7.51C316.75,181.56,320,179,320,182.06Z" transform="translate(-264.93 -114.9)" fill="#fe1740"/>
    <path d="M373.93,177l1,2c-1.12,1.76.07,3.5,0,5.26a17.67,17.67,0,0,1-.29,4.8c-1.59,2.19-3.14,1.84-4.65-.08l0-10c.83-.85.2-2,.65-3C372.06,175.43,372.87,176.64,373.93,177Z" transform="translate(-264.93 -114.9)" fill="#fe143e"/>
    <path d="M320,182.06c-.5-2.33-4.9,2.45-4.09-2.25,3-2.68,3.32-7.72,8-8.9.65.07.75.66,1,1.09C324.17,175.77,321.39,178.57,320,182.06Z" transform="translate(-264.93 -114.9)" fill="#fe1740"/>
    <path d="M373.93,177c-1.48,1.13-2-.43-2.9-1a2.46,2.46,0,0,1-1-1.62c-.57-1.82-.7-3.8-2-5.36-.79-2-3.77-4.51-1.5-5.84,2.08-1.22,3.41,2.43,4.42,4.3C372.56,170.41,374.29,173.42,373.93,177Z" transform="translate(-264.93 -114.9)" fill="#fe1942"/>
    <path d="M379,165l-2.94,2-7.08-9-.4-.46.19-.58a1.84,1.84,0,0,1,1.11-.39,1.86,1.86,0,0,0,1.09-.43,26.82,26.82,0,0,1,8.06,7.8q.41.38.26.74T379,165Z" transform="translate(-264.93 -114.9)" fill="#fe1740"/>
    <path d="M349.09,195.23c.1,2.23-2.07,3.62-2.1,5.89,0,.87-.7,1.94-2.42,1.3-1.89-.71-.89-1.58-.6-2.48.87-2.71,1.77-5.4,2.67-8.1a2.09,2.09,0,0,1,2.56.72,2.91,2.91,0,0,1,.44,1.35A3.22,3.22,0,0,1,349.09,195.23Z" transform="translate(-264.93 -114.9)" fill="#004bb4"/>
    <path d="M358,150.19c1.44-.22,2.93-.79,4.1.65s.11,2.4-1,3.2l.08,2.83-.14.53a4.33,4.33,0,0,0-.94.55c-1.86.77-2.11-1.05-3-1.85C355.72,153.87,356.33,151.95,358,150.19Z" transform="translate(-264.93 -114.9)" fill="#fe153e"/>
    <path d="M325.91,231.7c.22-1.64-3.08-3.71.14-4.82,2.51-.86,3.16,2,3.78,3.57.86,2.24.92,4.68-2.7,4.61C324.37,234.79,325.42,233.14,325.91,231.7Z" transform="translate(-264.93 -114.9)" fill="#fe1e45"/>
    <path d="M307.79,222.08l3.65-1.26,5.62,5.94a1.88,1.88,0,0,1-1.21,2.6C312.39,227.79,309.93,225.11,307.79,222.08Z" transform="translate(-264.93 -114.9)" fill="#fe1a43"/>
    <path d="M349,231.76c-3.75,3.13-8.26,3.54-12.88,3.64,4-2.34,7.91-4.79,12.79-4.5q.39.25.3.55T349,231.76Z" transform="translate(-264.93 -114.9)" fill="#fe001e"/>
    <path d="M323.84,201c1.12-2.78,1-6.17,4.05-8a1,1,0,0,1,1.47.13c1.42,2.5.58,4.86-.42,7.22a3.38,3.38,0,0,1-1.15,1.23C326.37,202,325,202.18,323.84,201Z" transform="translate(-264.93 -114.9)" fill="#0050b6"/>
    <path d="M318.17,169.07a3.26,3.26,0,0,1-2.22-3.21,15.18,15.18,0,0,1,5.89-4.3c1.07.52,1.23,1.55,1.42,2.56Z" transform="translate(-264.93 -114.9)" fill="#fe1841"/>
    <path d="M315.07,218c4.13-2.38,0-4.69-.05-7,1-.84-.06-2.41,1.11-3.2.54,4.52,3.87,8.45,2.85,13.3l.09-.09C316.59,221.52,315.69,219.95,315.07,218Z" transform="translate(-264.93 -114.9)" fill="#fe1437"/>
    <path d="M315.84,229.36l1.21-2.6c2.22,1.9,4.24,4.07,6.93,5.35.37,1.08-.13,1.71-1.09,2.11C320,233.38,317.44,232.07,315.84,229.36Z" transform="translate(-264.93 -114.9)" fill="#fe1540"/>
    <path d="M353.11,186.25,352,187a.76.76,0,0,1-1.16.12,4.93,4.93,0,0,1,.16-4.07c2.92-.06,5.84-.1,8.75-.18,1.5,0,2.63.21,2.09,2.14C359.08,186.47,355.8,184.3,353.11,186.25Z" transform="translate(-264.93 -114.9)" fill="#003eac"/>
    <path d="M331.08,163.08c2.11-2.49,5-3.72,7.86-5.12,1.08-.61,1.93-.72,2,.9-3.37,1.07-4.8,5.43-8.91,5.25l-.38-.08a1.71,1.71,0,0,1-.51-.58Z" transform="translate(-264.93 -114.9)" fill="#fe001a"/>
    <path d="M349,193l-2.39-1.17,1.5-1.85c.76-.8,1.51-1.63,2.78-1,.82,3.94,3.88,1.63,5.84,1.89,2.89.38,3.06,1.17,1.22,3.1l-.63-.17C354.63,193,351.7,194.36,349,193Z" transform="translate(-264.93 -114.9)" fill="#0051b7"/>
    <path d="M329.14,193.07l-1.25-.11a7.28,7.28,0,0,1,1-6.93c1.06,1.19,2.12,1.41,3.22,0C333.35,189.35,333,191.95,329.14,193.07Z" transform="translate(-264.93 -114.9)" fill="#0034af"/>
    <path d="M323.84,201l4.16,0c2.34-1.81,4.49-.78,6.62.45l.47.65c-3.52,2-7.34.78-11,.88C322.5,203,323.19,201.74,323.84,201Z" transform="translate(-264.93 -114.9)" fill="#054db7"/>
    <path d="M359,217A7.68,7.68,0,0,1,353,223.1a1.36,1.36,0,0,1-1-1.78c2.16-1.71,3.26-5.17,7-4.27Z" transform="translate(-264.93 -114.9)" fill="#fe0128"/>
    <path d="M327.91,157.78c1.19-2.64,4.41-1.92,6.11-3.71.87.43,1.66.9,1,2.08-.85,2.32-3.37,1.8-4.94,2.89C328.78,159.69,327.82,159.65,327.91,157.78Z" transform="translate(-264.93 -114.9)" fill="#fe1940"/>
    <path d="M363.94,208.84a2,2,0,0,0,2.19,2.16c-1.41,1.94-2.88,3.82-5.14,4.85a2.21,2.21,0,0,1-1-.85A9.83,9.83,0,0,1,363.94,208.84Z" transform="translate(-264.93 -114.9)" fill="#fe143e"/>
    <path d="M311.92,196.22c-.24,3.24.94,6.6-.78,9.72-.16-3.47-1.88-7,.32-10.38q.44-.51.71-.1T311.92,196.22Z" transform="translate(-264.93 -114.9)" fill="#fe001e"/>
    <path d="M335.06,156.15l-1-2.08a8.62,8.62,0,0,1,5-2c.81.43,1.64.86,1,2C338.87,156,336.88,155.86,335.06,156.15Z" transform="translate(-264.93 -114.9)" fill="#fe0c2b"/>
    <path d="M352,221.32l1,1.78-6,4.07a1.66,1.66,0,0,1-.1-2.31Z" transform="translate(-264.93 -114.9)" fill="#fe0017"/>
    <path d="M339.12,194H342c-.05,2.53-1,4.18-3.86,4.14l-.66-.2a2.44,2.44,0,0,1-.8-1.08A2.75,2.75,0,0,1,339.12,194Z" transform="translate(-264.93 -114.9)" fill="#0049b5"/>
    <path d="M342,155.08q0-.48,0-1a2.35,2.35,0,0,1,1-1.76A9.52,9.52,0,0,1,349,150.9l-.07,3.37a10.92,10.92,0,0,1-5.58,1.51A3.13,3.13,0,0,1,342,155.08Z" transform="translate(-264.93 -114.9)" fill="#fefefe"/>
    <path d="M327.91,157.78a2.28,2.28,0,0,0,2.21,1.26L325,162.92c-.94-.76-1.56-1.63-1-2.9A5.08,5.08,0,0,1,327.91,157.78Z" transform="translate(-264.93 -114.9)" fill="#fe133c"/>
    <path d="M356.87,225.68l1.12,2.25c-1.67.66-3,2.24-5,2a1.92,1.92,0,0,1,0-2.79C354,225.74,355.52,226,356.87,225.68Z" transform="translate(-264.93 -114.9)" fill="#fe153d"/>
    <path d="M300.8,188.93a11.74,11.74,0,0,0,6.41-.88c-.3,3.79-3.18,2.91-5.48,3C300,191.06,299.8,190.21,300.8,188.93Z" transform="translate(-264.93 -114.9)" fill="#fe0634"/>
    <path d="M343,155.26c1.92-.6,3.72-1.95,5.9-1-1.09,2.7-3.44,2.81-5.83,2.86A1.21,1.21,0,0,1,343,155.26Z" transform="translate(-264.93 -114.9)" fill="#fe2b41"/>
    <path d="M384.75,196.9,379.85,195c1.4-1.86,3.5-1,5-.73C386.88,194.66,385.9,196,384.75,196.9Z" transform="translate(-264.93 -114.9)" fill="#fe1438"/>
    <path d="M374,189v-5c.73-.56.2-1.73,1.08-2.22.74,2.85,1.24,5.71,0,8.55C374.47,190.06,374.35,189.44,374,189Z" transform="translate(-264.93 -114.9)" fill="#fe0021"/>
    <path d="M349,150.9,343,153.05a1.31,1.31,0,0,1,0-1.94C344.95,149.88,346.9,148.92,349,150.9Z" transform="translate(-264.93 -114.9)" fill="#fe000a"/>
    <path d="M353,227.11q0,1.4,0,2.79c-.87,1.63-2.09,2.51-4,1.85a5.26,5.26,0,0,1-.09-.85l-.07,0a1.72,1.72,0,0,0,1.1-1.16C350,227.77,351.71,227.7,353,227.11Z" transform="translate(-264.93 -114.9)" fill="#fe1132"/>
    <path d="M315.94,204c-3.89-2.36-1.6-4.67,0-7Z" transform="translate(-264.93 -114.9)" fill="#fe0634"/>
    <path d="M305.9,207l-1-2.14a19.07,19.07,0,0,1,0-8.64l.89-1.16Z" transform="translate(-264.93 -114.9)" fill="#fe143f"/>
    <path d="M343.17,191.44a10.87,10.87,0,0,1-1.12-6.56C345.41,186.55,343.94,189.05,343.17,191.44Z" transform="translate(-264.93 -114.9)" fill="#0038af"/>
    <path d="M322.9,234.23l1.09-2.11,1.92-.41c.14,1.22-.1,2.57,1.22,3.35C325.24,237.22,324,235.88,322.9,234.23Z" transform="translate(-264.93 -114.9)" fill="#fe0c35"/>
    <path d="M382,179l0,10c.09,1.12-.28,1.53-1.34.86a7.87,7.87,0,0,1,.14-4.07l0-2.52a7.89,7.89,0,0,1-.24-4A.87.87,0,0,1,382,179Z" transform="translate(-264.93 -114.9)" fill="#fe001d"/>
    <path d="M358,150.19c-.45,1.95-1.29,3.84-.94,5.91C355.76,153.88,352.42,151.33,358,150.19Z" transform="translate(-264.93 -114.9)" fill="#fe0015"/>
    <path d="M343,151.11l0,1.94-1,1.08-2-.06-1-2A4.33,4.33,0,0,1,343,151.11Z" transform="translate(-264.93 -114.9)" fill="#fe001a"/>
    <path d="M350.93,189l-2.78,1c-.89-1.6.21-2.75.92-4,1.08-.52,1.5.25,1.93,1h1Z" transform="translate(-264.93 -114.9)" fill="#0045b3"/>
    <path d="M368.07,169c3,.49,1.45,3.62,2.92,5-.52.51-.79,1.47-1.84,1Z" transform="translate(-264.93 -114.9)" fill="#fe1738"/>
    <path d="M361,154l1-3.2c1.33.19,2.92,0,3,2a1.91,1.91,0,0,1,.3,1.11l-.55.21Z" transform="translate(-264.93 -114.9)" fill="#fe0026"/>
    <path d="M337,198.94c-.52,1.12.37,3.1-1.91,3.16l-.28-.31c-1-.45-2.52-.44-2.21-2.22.9-1.67,2.29-1.66,3.84-1.12Z" transform="translate(-264.93 -114.9)" fill="#002eaf"/>
    <path d="M353.11,186.25c2.62-2.49,5.85-.71,8.75-1.24C359.32,188.1,356,185.75,353.11,186.25Z" transform="translate(-264.93 -114.9)" fill="#002bac"/>
    <path d="M381.15,190l.88-1c1.49.24,3.53-.71,4,1.84l-4.95,0q-.48-.36-.27-.64A.51.51,0,0,1,381.15,190Z" transform="translate(-264.93 -114.9)" fill="#fe0734"/>
    <path d="M382,179q-.46,0-.92.06c-.6-.1-.67-.69-1-1.06l-1.3-4.95C381.56,174.13,381.25,176.85,382,179Z" transform="translate(-264.93 -114.9)" fill="#fe1337"/>
    <path d="M349.09,195.23l-.07-1.3c2.88-1.15,5.79-.72,8.71-.21l.25.25C355.2,195.66,351.92,193.9,349.09,195.23Z" transform="translate(-264.93 -114.9)" fill="#0051b7"/>
    <path d="M324,160l1,2.9-1.74,1.19a2.9,2.9,0,0,1-1.42-2.56A2,2,0,0,1,324,160Z" transform="translate(-264.93 -114.9)" fill="#fe1b47"/>
    <path d="M351,187l-1.93-1c-.26-1.58-.5-3.16,1.95-3A3.17,3.17,0,0,1,351,187Z" transform="translate(-264.93 -114.9)" fill="#0652b7"/>
    <path d="M341.8,229.59c-1.92.21-3,2.64-5.1,1.77-.25-.1-.45-1.05-.37-1.1C338,229.27,339.79,228.37,341.8,229.59Z" transform="translate(-264.93 -114.9)" fill="#fe0000"/>
    <path d="M343,155.26l.07,1.87c-.4.94-.93,1.71-2.09,1.73l-2-.9,3.09-2.89Z" transform="translate(-264.93 -114.9)" fill="#fe1835"/>
    <path d="M374,189l1,1.35c-1.84.16-4.28,2.65-5-1.31C371.37,189.54,372.71,190.81,374,189Z" transform="translate(-264.93 -114.9)" fill="#fe173c"/>
    <path d="M379,165l0-1.1c1.88.64,2.48,2.28,3.06,3.93C380,168.07,380,166,379,165Z" transform="translate(-264.93 -114.9)" fill="#fe0015"/>
    <path d="M312.9,212c2.51,1,2.1,3.2,2,5.24A6.2,6.2,0,0,1,312.9,212Z" transform="translate(-264.93 -114.9)" fill="#fe0e2b"/>
    <path d="M311.92,196.22a2.26,2.26,0,0,1-.46-.66q2.69-3.26,4.66.42A3.35,3.35,0,0,0,311.92,196.22Z" transform="translate(-264.93 -114.9)" fill="#fe4661"/>
    <path d="M346.95,224.86l.1,2.31c-.84,1.07-2.47,1.43-2.79.4C343.72,225.84,345.83,225.6,346.95,224.86Z" transform="translate(-264.93 -114.9)" fill="#fe000a"/>
    <path d="M316.13,207.76c-.34,1.08.1,2.43-1.11,3.2.29-2-.82-4.19.94-5.94Z" transform="translate(-264.93 -114.9)" fill="#fe0020"/>
    <path d="M359,227.89a2.74,2.74,0,0,1,3.16-2.83C362,226.94,360.54,227.48,359,227.89Z" transform="translate(-264.93 -114.9)" fill="#fe153d"/>
    <path d="M369.16,175l1.84-1q0,1,0,2c-.09,1.07.16,2.26-1,3Z" transform="translate(-264.93 -114.9)" fill="#fe0021"/>
    <path d="M299.84,204.27l.6-3c.7,2.13,1,3.48-.37,4.69Z" transform="translate(-264.93 -114.9)" fill="#fe0022"/>
    <path d="M381.15,190a4.48,4.48,0,0,0-.11.9c-2-1.62-.42-3.38-.2-5.08Z" transform="translate(-264.93 -114.9)" fill="#fe3458"/>
    <path d="M380.1,178l1,1.06q-.09,2.09-.19,4.19A12,12,0,0,1,380.1,178Z" transform="translate(-264.93 -114.9)" fill="#fe1842"/>
    <path d="M386.13,179.77l-.49,2.25-.61,0q0-2.05,0-4.1A1.47,1.47,0,0,1,386.13,179.77Z" transform="translate(-264.93 -114.9)" fill="#fe0022"/>
    <path d="M375.11,181.77c-.12.86-.21,1.73-1.08,2.22.2-1.67-.68-3.54.91-5Z" transform="translate(-264.93 -114.9)" fill="#fe001e"/>
    <path d="M326,168.17c1.08-.14,1.79-2.71,3-.77.58.92-1,1.34-1.89,1.64a.83.83,0,0,1-1.08.22.79.79,0,0,1-.24-.72Q325.88,168.17,326,168.17Z" transform="translate(-264.93 -114.9)" fill="#fe113c"/>
    <path d="M367,154.09c1.16-.07,1.48,1,2.12,1.6A.75.75,0,0,1,369,157v0a.86.86,0,0,1-1,.28,10,10,0,0,1-1.25-1.18,2.72,2.72,0,0,1-.34-1.08A1.55,1.55,0,0,1,367,154.09Z" transform="translate(-264.93 -114.9)" fill="#fe1c43"/>
    <path d="M331,165.15c-2.23-.74-1-1.4,0-2.07l.12.18a1.59,1.59,0,0,1,.24,1Q331.23,164.68,331,165.15Z" transform="translate(-264.93 -114.9)" fill="#fe001d"/>
    <path d="M324.16,170c-.15-.77-.11-1.43.84-1.64a1.65,1.65,0,0,1,.51,1.15l-.24.61-.59.28Z" transform="translate(-264.93 -114.9)" fill="#fe000d"/>
    <path d="M325,170l0-1.29a.79.79,0,0,1,1,.28l1.15.06-.27,1a1.33,1.33,0,0,1-1,.44A.93.93,0,0,1,325,170Z" transform="translate(-264.93 -114.9)" fill="#fe1541"/>
    <path d="M366,156.09c-1.2-.15-1.29-1-1.16-1.92L365,154a.77.77,0,0,1,1,0v0a1.73,1.73,0,0,1,.42,1.11A1.22,1.22,0,0,1,366,156.09Z" transform="translate(-264.93 -114.9)" fill="#fe012b"/>
    <path d="M323,224.12c1.4.08,1,1.06.94,1.87a.78.78,0,0,1-1,.06v0a1.79,1.79,0,0,1-.52-1A1.41,1.41,0,0,1,323,224.12Z" transform="translate(-264.93 -114.9)" fill="#fe0025"/>
    <path d="M361.09,156.87c.87.15,1.45.57,1,1.52s-.87.54-1.3,0a1.07,1.07,0,0,1,.14-1.29Z" transform="translate(-264.93 -114.9)" fill="#fe0632"/>
    <path d="M367,156.13l1,.93v.63l-1-.78q-.42-.24-.3-.5C366.81,156.22,366.89,156.13,367,156.13Z" transform="translate(-264.93 -114.9)" fill="#fe0016"/>
    <path d="M367,156.13q0,.39,0,.78l-1.05-.82,0-1.08a.6.6,0,0,1,1,0Z" transform="translate(-264.93 -114.9)" fill="#fe0016"/>
    <path d="M324.94,172l-1-1.09v0a1.63,1.63,0,0,1,1-.32l.21.5A2.77,2.77,0,0,1,324.94,172Z" transform="translate(-264.93 -114.9)" fill="#fe1c47"/>
    <path d="M326,169l-1-.28s0-.37,0-.37l1-.17Q326,168.57,326,169Z" transform="translate(-264.93 -114.9)" fill="#fe000b"/>
    <path d="M331,165.15l0-1.26a.81.81,0,0,1,.87-.16l.18.39C331.9,164.65,331.86,165.29,331,165.15Z" transform="translate(-264.93 -114.9)" fill="#fe123f"/>
    <path d="M360,215l1,.85-1,.11.08.08Z" transform="translate(-264.93 -114.9)" fill="#fe1e47"/>
    <path d="M359,217c-.11-.77.2-1.13,1-1L360,216a.85.85,0,0,1-1,1Z" transform="translate(-264.93 -114.9)" fill="#fe1f48"/>
    <path d="M364.71,159.37c0,.11,0,.25,0,.33s-.24.19-.32.16c-.45-.2-.45-.45,0-.64C364.46,159.18,364.6,159.32,364.71,159.37Z" transform="translate(-264.93 -114.9)" fill="#fe0009"/>
    <path d="M319,221.06l1,.61-.34.33-.57-1Z" transform="translate(-264.93 -114.9)" fill="#fe1943"/>
    <path d="M368,157.69c0-.21,0-.43,0-.64l1-.05q0,.47,0,.94Z" transform="translate(-264.93 -114.9)" fill="#fe000f"/>
    <path d="M321,224l-1-.75.39-.28.48,1.12Z" transform="translate(-264.93 -114.9)" fill="#fe133e"/>
    <path d="M321,224.12l1,0,.35.66-.5.56-.7-.26-.11-1Z" transform="translate(-264.93 -114.9)" fill="#fe1a45"/>
    <path d="M366.06,154h-1l0-1.1Z" transform="translate(-264.93 -114.9)" fill="#fe0b3b"/>
    <path d="M326,170l.81,0c.13.67-.11,1-.81.85q-.51-.29-.34-.58C325.8,170.1,325.91,170,326,170Z" transform="translate(-264.93 -114.9)" fill="#fe0011"/>
    <path d="M321.16,225l.85,0q.42.31.26.58t-.31.27Q321,226,321.16,225Z" transform="translate(-264.93 -114.9)" fill="#fe0009"/>
    <path d="M322,225.84q0-.43,0-.85l0,0a.61.61,0,0,1,1,0l-.05,1.08Z" transform="translate(-264.93 -114.9)" fill="#fe1a44"/>
    <path d="M326,170q0,.43,0,.87a2.11,2.11,0,0,1-.91.25l-.19-.21a.57.57,0,0,1-.17-.63q.13-.29.24-.29h0Z" transform="translate(-264.93 -114.9)" fill="#fe1b45"/>
    <path d="M361,157.1l-.14,1.29a1.15,1.15,0,0,1-.82-.44Z" transform="translate(-264.93 -114.9)" fill="#fe1841"/>
    <path d="M322.93,226l1-.06-.34,1.06Z" transform="translate(-264.93 -114.9)" fill="#fe1542"/>
    <path d="M371,156.09l-1,.91q-.38-.34-.26-.67T370,156Z" transform="translate(-264.93 -114.9)" fill="#fe1540"/>
    <path d="M370,156v1h-1l.11-1.29A2.52,2.52,0,0,1,370,156Z" transform="translate(-264.93 -114.9)" fill="#fe1b45"/>
    <path d="M338.12,198.14c-.17.56-.47.93-1.13.8l0,.12a.72.72,0,0,1-.41-.62q0-.41.1-.41a.86.86,0,0,1,1.1-.18Z" transform="translate(-264.93 -114.9)" fill="#0053b4"/>
    <path d="M325,170a4.09,4.09,0,0,1-.07.93l-1,0,.26-1Q324.58,170,325,170Z" transform="translate(-264.93 -114.9)" fill="#fe1340"/>
    <path d="M349.92,229.76l-1.1,1.16Z" transform="translate(-264.93 -114.9)" fill="#fe0c3b"/>
    <path d="M367,155h-1q0-.53.05-1.07.48.06,1,.16C367,154.39,367,154.69,367,155Z" transform="translate(-264.93 -114.9)" fill="#fe1f46"/>
    <path d="M323,225h-1q0-.47,0-.93l1,0Q323,224.56,323,225Z" transform="translate(-264.93 -114.9)" fill="#fe001e"/>
    <path d="M304.91,196.19q0,4.32,0,8.64A9.07,9.07,0,0,1,304.91,196.19Z" transform="translate(-264.93 -114.9)" fill="#fe001e"/>
    <path d="M337.17,198l-.13,1.07c-1.38.19-2.94-.46-4.07.87-1.65.74-3.29,1.16-4.85-.22.45-2.2,1.61-4.28,1-6.64,2.63-1.63,2.56-4.41,2.94-7l-.06,0a5.07,5.07,0,0,1,5-.1c4.38,1.68,1.18,5.38,2.12,8-.17,1.31-2.25,1.4-1.92,3A.79.79,0,0,1,337.17,198Z" transform="translate(-264.93 -114.9)" fill="#e6edf7"/>
    <path d="M337,186l-5,.09C333.65,184.45,335.31,184.54,337,186Z" transform="translate(-264.93 -114.9)" fill="#0034af"/>
    <path d="M357.73,193.73l-8.71.21q0-.46,0-.92C352,192.81,355,191,357.73,193.73Z" transform="translate(-264.93 -114.9)" fill="#002da8"/>
    <path d="M328.12,199.71l4.85.22,1.84,1.86L328,201Z" transform="translate(-264.93 -114.9)" fill="#0036ac"/>
    <path d="M331.87,163.73a1.24,1.24,0,0,1-.87.16,1.84,1.84,0,0,1,.19-.63A.64.64,0,0,1,331.87,163.73Z" transform="translate(-264.93 -114.9)" fill="#fe0011"/>
    <path d="M337.17,198a1.11,1.11,0,0,1,0-1l.64.82A1.87,1.87,0,0,1,337.17,198Z" transform="translate(-264.93 -114.9)" fill="#002aa6"/>
  </g>
</svg>
