<svg id="Layer_1" data-name="Layer 1" xmlns="http://www.w3.org/2000/svg" width="155.13" height="155.17" viewBox="0 0 155.13 155.17">
  <title>cs_partiring_socialistisk_folkeparti-md</title>
  <g>
    <path d="M420,193.24c0,24.48,0,49,.07,73.44,0,2.61-.3,3.42-3.24,3.41q-74.44-.18-148.88,0c-2.62,0-3-.74-3-3.12q.11-74.44,0-148.88c0-2.31.28-3.16,3-3.15q74.44.16,148.88,0c2.87,0,3.28.71,3.27,3.38C420,143.28,420,168.26,420,193.24Z" transform="translate(-264.95 -114.92)" fill="#fefefe"/>
    <path d="M342.94,265A72,72,0,1,1,415,193.31,72.06,72.06,0,0,1,342.94,265Z" transform="translate(-264.95 -114.92)" fill="#fe6565"/>
    <path d="M405,192.8A62,62,0,1,1,342.8,131,62.13,62.13,0,0,1,405,192.8Z" transform="translate(-264.95 -114.92)" fill="#fefefe"/>
    <path d="M387.94,178.28c-2.53,16.38-8.92,34.37-21.87,49.43-6.51,7.56-15.2,10-24.93,7.36-13.19-3.62-25.28-9.41-35-19.3-12.19-12.4-12.37-25.89-.12-38.22,14.07-14.15,30.84-23.6,50.69-27.1a32.18,32.18,0,0,1,17.19,1.75C383.4,155.78,388.11,163.61,387.94,178.28Z" transform="translate(-264.95 -114.92)" fill="#de0014"/>
    <path d="M332,197.87c-1.86-1.54-3.44-3.47-5.86-4.24-2-.41-3.48-1.23-3.26-3.62-1.61-8.71,1.06-13.12,10.25-16.93,5.25-.71,10.5-1.41,15.68.42a3.08,3.08,0,0,1,1.18,2.31c-.1,2.4-.56,4.62-2.85,6-3.79,1.13-7.71.22-11.54.71-.73.26-1.53.43-1.79,1.32.73,2.28,3.14,2.55,4.62,3.92,2,1.9,4.29,3.57,5.3,6.31.39,1.57,1.53,3.12.13,4.74-.71,6.15-4.77,9.87-9.53,13.07-5.78-.41-11.66,1.34-17.35-.87-.19-2.91-1.39-6.07,2-8.1,4.09-1.87,8.44-.36,12.62-1C334.45,200.84,333.78,199.41,332,197.87Z" transform="translate(-264.95 -114.92)" fill="#fefbfb"/>
    <path d="M354.89,207.78c-1.36,2.83-6,4.8-8.22,3.16-2.47-1.83.21-4.53-.59-6.76,0-2.71-.7-5.4-.14-8.12a11,11,0,0,1,.32-1.44c.65-1.84.44-3.83.92-5.7s.53-3.86,1-5.76a34.6,34.6,0,0,0,1.12-3.68c1.34-2.24-.1-5.88,3.53-7q8.41,0,16.81,0c1.61,0,3.37-.35,4.37,1.49.44,2.62-.32,5.07-1.11,7.51-3.14,2-6.62.56-9.92.93-1.63.18-3.45-.23-3.58,2.25-.14,2.68,1.86,2.14,3.42,2.31,2.07.22,4.34-.63,6.15,1.06l0,0c.66.35,1.23.75.9,1.64L368,195.88a3.09,3.09,0,0,1-1.22.91,64.53,64.53,0,0,1-9.17.14l-.76-.09a28.32,28.32,0,0,0-1.72,9.18C355.52,206.66,355.63,207.27,354.89,207.78Z" transform="translate(-264.95 -114.92)" fill="#fefbfb"/>
    <path d="M369,188.07c-2.29-.08-4.61,0-6.88-.29-1.39-.18-4.09,1.41-3.8-1.86.21-2.39.47-4.89,4.27-4.42,3.39.42,6.89,0,10.33,0-2.68,3-6.19.79-9.25,1.47-1.19.26-3.14-.49-3.25,1.32-.14,2.36,2.06,1.38,3.34,1.69C365.56,186.45,368.28,184.69,369,188.07Z" transform="translate(-264.95 -114.92)" fill="#d70102"/>
    <path d="M317,211c5.75.93,11.64-.9,17.35.87-5.22,2.19-10.67.85-16,1C317.46,212.85,317.15,211.83,317,211Z" transform="translate(-264.95 -114.92)" fill="#d60102"/>
    <path d="M333.16,202.06c-4.61,2.09-9.44.6-14.16.83.41-2.37,2.27-1.85,3.8-1.88,3.07,0,6.13,0,9.2,0C332.42,201.33,333,201.46,333.16,202.06Z" transform="translate(-264.95 -114.92)" fill="#dc0008"/>
    <path d="M374,174c-7.23-1.77-14.53-.73-21.82-.59A1,1,0,0,1,352,172c5.91,0,11.82,0,17.72,0C371.37,172,373.56,171.26,374,174Z" transform="translate(-264.95 -114.92)" fill="#d60001"/>
    <path d="M349,174c-5.19-1.87-10.57-.34-15.83-.93a1.33,1.33,0,0,1-.48-.12,5.37,5.37,0,0,1-.58-.58c5.66-.31,11.34-1.32,16.91.64a.63.63,0,0,1,.21.66Q349.11,174,349,174Z" transform="translate(-264.95 -114.92)" fill="#d60203"/>
    <path d="M349,174q0-.5,0-1l3-1,.18,1.42-2,6.89c-1.7-1.1-.07-3-1-4.28Z" transform="translate(-264.95 -114.92)" fill="#db000a"/>
    <path d="M347.1,195.06c.06,3.08.45,6.2-1,9.12L344.15,201a4.58,4.58,0,0,0,.7-1.17C345.69,198.28,343.56,195.33,347.1,195.06Z" transform="translate(-264.95 -114.92)" fill="#d40000"/>
    <path d="M367,196.18l1-.3c-3.39,4.12-7.3,2.21-11.15,1v0C360.16,196,363.64,197.07,367,196.18Z" transform="translate(-264.95 -114.92)" fill="#d80000"/>
    <path d="M322.91,190l3.26,3.62C322.64,194.17,322,193.45,322.91,190Z" transform="translate(-264.95 -114.92)" fill="#d70002"/>
    <path d="M345,201h-.86l-.27-2.21L343,194q-.63-.89.42-1.17C346.91,195,345.31,198.1,345,201Z" transform="translate(-264.95 -114.92)" fill="#d30000"/>
    <path d="M347.17,212.68a4.9,4.9,0,0,1,4.7,0Z" transform="translate(-264.95 -114.92)" fill="#d60000"/>
    <path d="M369.81,189.69l-.9-1.64c2.84.25,1.83,2.26,2.13,4.07C369.52,191.49,370.17,190.4,369.81,189.69Z" transform="translate(-264.95 -114.92)" fill="#d8070a"/>
    <path d="M333.16,202.06,332,201c1.59-1,.2-2.09,0-3.14C335.75,198.37,334.37,200.24,333.16,202.06Z" transform="translate(-264.95 -114.92)" fill="#d30000"/>
    <path d="M354.89,207.78l.2-1.77c1.24,1.12,1,2.48.67,3.93C354.51,209.55,355.26,208.44,354.89,207.78Z" transform="translate(-264.95 -114.92)" fill="#d30000"/>
    <path d="M345,201c-.14-2.76.64-5.75-1.94-7.91a16.8,16.8,0,0,0-5.18-5c-2.63-.87-5.87-1-5.73-5,4.4-1.81,9-.61,13.55-1.05a9.55,9.55,0,0,0,1.55-.37c1,0,2.31-.25,1.8,1.55-.3,2,1.48,4.26-.91,5.91-1.58,1.81.1,4.2-1.08,6.07l0,0C344.8,196.47,347.14,199.52,345,201Z" transform="translate(-264.95 -114.92)" fill="#de0014"/>
    <path d="M347,182.05c-4.82,2.08-9.88.42-14.8.94-.11-1.18.76-1.06,1.49-1.12A41.21,41.21,0,0,1,347,182.05Z" transform="translate(-264.95 -114.92)" fill="#d30000"/>
    <path d="M347,182.05l-13.3-.18c4.4-1.27,8.92-.22,13.36-.64.33.14.45.3.35.46s-.2.26-.31.26Z" transform="translate(-264.95 -114.92)" fill="#de0315"/>
    <path d="M347.06,182q0-.36,0-.72l2.11-5.2c1.34,1.19.64,2.87,1,4.28.09,1.11.32,2.28-1.09,2.8A2.17,2.17,0,0,0,347.06,182Z" transform="translate(-264.95 -114.92)" fill="#ca0000"/>
    <path d="M337.89,188c3,.42,4.55,2.23,5.17,5a6,6,0,0,0-.06.88C341.9,191.48,338.54,190.93,337.89,188Z" transform="translate(-264.95 -114.92)" fill="#d40000"/>
    <path d="M367,196.18c-3.31,1.68-6.78.65-10.2.62C360.12,195.29,363.59,196.31,367,196.18Z" transform="translate(-264.95 -114.92)" fill="#d91e1c"/>
    <path d="M347.06,195.1c.28-2-1-4.36,1.08-6.07C347.58,191,349.53,193.45,347.06,195.1Z" transform="translate(-264.95 -114.92)" fill="#d40000"/>
  </g>
</svg>
