<svg id="Layer_1" data-name="Layer 1" xmlns="http://www.w3.org/2000/svg" width="155.19" height="155.2" viewBox="0 0 155.19 155.2">
  <title>cs_partiring_konservative_folkeparti-md</title>
  <g>
    <path d="M342.44,270c-24.67,0-49.33-.08-74,.1-3.16,0-3.51-.85-3.51-3.66q.14-74,0-148c0-3.15.84-3.51,3.66-3.51q74,.14,148,0c3.15,0,3.51.84,3.51,3.66q-.14,74,0,148c0,3.15-.84,3.52-3.66,3.51C391.77,269.95,367.11,270,342.44,270Z" transform="translate(-264.9 -114.9)" fill="#fefefe"/>
    <path d="M343.16,265A72.22,72.22,0,0,1,271,193.29c-.2-39.68,32.37-72.34,72.09-72.28a72,72,0,0,1,.07,144Z" transform="translate(-264.9 -114.9)" fill="#028800"/>
    <path d="M343.12,255A62,62,0,1,1,405,193,62,62,0,0,1,343.12,255Z" transform="translate(-264.9 -114.9)" fill="#fefefe"/>
    <path d="M342.7,236.91a91.11,91.11,0,0,1-24-1.86c-9.66-2.2-16.08-7.64-18.18-17.53a112,112,0,0,1,.36-50.42c2.1-8.61,7.64-13.88,16.09-15.95a106.76,106.76,0,0,1,50.88-.08c8.7,2.08,14.25,7.54,16.28,16.34a114.86,114.86,0,0,1,.25,49.95c-2.08,9.9-8.4,15.44-18.06,17.68A87.24,87.24,0,0,1,342.7,236.91Z" transform="translate(-264.9 -114.9)" fill="#005241"/>
    <path d="M344.34,218.25c-.54,0-2.21-.09-3.87-.22-12.6-1-17.8-5.7-19.85-18.16a48,48,0,0,1,.63-18.83c1.82-7.77,6.91-12.46,14.75-13.7a59.7,59.7,0,0,1,22.81.91c4.68,1.07,3,4,2.7,6.91-.43,3.81-2.63,2.74-5,2.25-4.22-.88-8.43-1.73-12.85-1-5.36.9-8.18,3.91-9,9.17a42.72,42.72,0,0,0,0,13.42c1,6.13,4.06,9,10.34,9.45a32.94,32.94,0,0,0,11.88-1.06c3-.88,4.33-.2,4.75,2.85.39,2.77,1.58,5.6-2.79,6.43A77.05,77.05,0,0,1,344.34,218.25Z" transform="translate(-264.9 -114.9)" fill="#fefefe"/>
  </g>
</svg>
