<svg id="Layer_1" data-name="Layer 1" xmlns="http://www.w3.org/2000/svg" width="155.13" height="155.13" viewBox="0 0 155.13 155.13">
  <title>cs_partiring_lbeiral_aliance-sm</title>
  <g>
    <path d="M342.5,270c-24.83,0-49.67,0-74.5.07-2.5,0-3.07-.57-3.06-3.07q.13-74.5,0-149c0-2.5.56-3.07,3.06-3.06q74.5.13,149,0c2.5,0,3.07.56,3.06,3.06q-.13,74.5,0,149c0,2.5-.56,3.08-3.06,3.07C392.17,270,367.33,270,342.5,270Z" transform="translate(-264.94 -114.94)" fill="#fefefe"/>
    <path d="M343,121a72,72,0,1,1-72,71.83A72.2,72.2,0,0,1,343,121Z" transform="translate(-264.94 -114.94)" fill="#feac00"/>
    <path d="M342.92,255A62,62,0,1,1,405,193.21,62,62,0,0,1,342.92,255Z" transform="translate(-264.94 -114.94)" fill="#fefefe"/>
    <path d="M324,213.91l-1.92-2.5q-.34-.48-.64-1a5.37,5.37,0,0,1-.46-1.08,3.69,3.69,0,0,0-1-1.42l.13.13c-1.41-1.1-1.79-3-3.3-4.07-.34-1.78,0-3.63-.67-5.37a11.75,11.75,0,0,1-.36-2.17c-.08-2.28-.09-4.56,0-6.84a10.16,10.16,0,0,1,.37-2.21c.34-1.15.75-2.28,1.11-3.43s.71-2.24,1.08-3.36a20.39,20.39,0,0,1,1.74-3.1l-.09,0q.26-.45.54-.88c.34-.38.68-.78,1-1.18s.37-.57.57-.85l1.92-2.52q.47-.51,1-1a4.9,4.9,0,0,1,1.8-1.07,46.19,46.19,0,0,1,14.39-4.88,14.92,14.92,0,0,1,3.72,0c5.23.58,9.87,2.95,14.67,4.85l-.09-.05A3.68,3.68,0,0,1,361,171a6.6,6.6,0,0,0,2.87,3,2.54,2.54,0,0,1,.74.78,3.92,3.92,0,0,1,.32,1c0,.35.1.7.18,1a4.15,4.15,0,0,0,1,1.25l-.13-.13a8.7,8.7,0,0,1,2.11,3.55c.4.87.78,1.75,1.11,2.66a18.88,18.88,0,0,1,1.09,4.39,48.5,48.5,0,0,1-.15,8.51c-.06.49-.1,1-.13,1.49a15.34,15.34,0,0,1-1.14,4.19c-.25.65-.54,1.28-.84,1.9a8.12,8.12,0,0,1-2.06,3.43l.11-.13c-.27.29-.54.6-.78.9a2.72,2.72,0,0,0-.23,1c0,.16-.06.34-.08.51a4.43,4.43,0,0,1,.09.59c-1.63,1.55-3.63,2.68-5.08,4.44-2.26,1.33-4.71,2.28-7,3.56s-4.82,1.35-7.25,2c-1.78.17-3.56.09-5.34.11-3.39.26-6.26-1.21-9.12-2.73-1.66-.68-3.06-1.9-4.86-2.3a4.82,4.82,0,0,1-1.22-.5C324.62,215.06,324.4,214.41,324,213.91Z" transform="translate(-264.94 -114.94)" fill="#fdfdfd"/>
    <path d="M341.29,166.16c-5.27,1-10.12,3.18-15.06,5.13l-.5-.08a2,2,0,0,1-.67-.73L325,170a23.05,23.05,0,0,1,17-6,.83.83,0,0,1,.36.93C342.29,165.56,340.78,165,341.29,166.16Z" transform="translate(-264.94 -114.94)" fill="#00001e"/>
    <path d="M342,165v-1c6.57-.09,13,.33,17.54,6a1.54,1.54,0,0,1-2.46.56c-3.77-2.51-8.12-3.33-12.39-4.41C344.31,164.55,342.56,166.16,342,165Z" transform="translate(-264.94 -114.94)" fill="#00001a"/>
    <path d="M369,199l.08-1a23,23,0,0,0,0-10l-1-4c.61-.65.06-2.33,1.77-2,3.35,5.81,3.13,11.83,1,18C369.84,200.42,369.44,199.67,369,199Z" transform="translate(-264.94 -114.94)" fill="#00011f"/>
    <path d="M316.89,197l.18,2a2.47,2.47,0,0,1-2.2,1.29c-1.82-4.34-1.16-8.82-.69-13.28a2,2,0,0,1,2.92,0l-.19,2A16.57,16.57,0,0,0,316.89,197Z" transform="translate(-264.94 -114.94)" fill="#00001e"/>
    <path d="M331,217.14c3.14.56,5.67,3,9,2.93.52.81,2.68,0,2,2-4.28,0-8.66.41-12.07-3.05A2.09,2.09,0,0,1,331,217.14Z" transform="translate(-264.94 -114.94)" fill="#000017"/>
    <path d="M346,219.89c2-1.76,4.87-.45,7-1.92,1.75-.15,1.69.71,1.07,1.89-3.12,1.72-6.39,2.78-10,2.22C343.26,220.1,345.64,220.92,346,219.89Z" transform="translate(-264.94 -114.94)" fill="#000017"/>
    <path d="M354,219.86a2,2,0,0,0-1.07-1.89c2.21-1.3,4.17-3.09,6.87-3.4a1,1,0,0,1,.23,1.53C358.82,218.64,356.51,219.42,354,219.86Z" transform="translate(-264.94 -114.94)" fill="#00001a"/>
    <path d="M331,217.14a1.94,1.94,0,0,1-1.06,1.89c-2.28,0-3.43-1.79-5-3l.16-.48A3.73,3.73,0,0,0,326,215C328.25,214.33,329.46,216.13,331,217.14Z" transform="translate(-264.94 -114.94)" fill="#000015"/>
    <path d="M360,216.1l-.23-1.53c.71-2.69,2.37-4,5.22-3.64C365.25,214.47,362.06,214.73,360,216.1Z" transform="translate(-264.94 -114.94)" fill="#000327"/>
    <path d="M314.86,200.27a2.27,2.27,0,0,1,2.2-1.29c1.39,1.64,1.17,3.28,0,4.91a.8.8,0,0,1-.11,1.27C315.21,204,315,202.14,314.86,200.27Z" transform="translate(-264.94 -114.94)" fill="#000018"/>
    <path d="M317.09,187l-2.92,0a3,3,0,0,1,1.84-4c1.08-.48,1.61.11,2,1A3.71,3.71,0,0,1,317.09,187Z" transform="translate(-264.94 -114.94)" fill="#000018"/>
    <path d="M316.93,205.16l.11-1.27c2.8.1,3.42,1.77,3,4.18C317.7,208.52,316.84,207.35,316.93,205.16Z" transform="translate(-264.94 -114.94)" fill="#000428"/>
    <path d="M369,199l1.88,1a3.68,3.68,0,0,1-.88,4,2.12,2.12,0,0,1-2.26-1.08Z" transform="translate(-264.94 -114.94)" fill="#000124"/>
    <path d="M318,184l-2-1c-1.52-1.66.14-2.19,1.06-3,1.11-.41,1.74.12,2.17,1.08A4.2,4.2,0,0,1,318,184Z" transform="translate(-264.94 -114.94)" fill="#000014"/>
    <path d="M365.92,208.06a5,5,0,0,1,1.26-4c1.47-.09,2.31.4,1.86,2.05C368.86,208.1,367.65,208.5,365.92,208.06Z" transform="translate(-264.94 -114.94)" fill="#00001d"/>
    <path d="M367.15,182a4.35,4.35,0,0,1-1.22-4c1.68-.33,2.92,0,3.09,2C369.4,181.54,368.59,182,367.15,182Z" transform="translate(-264.94 -114.94)" fill="#000122"/>
    <path d="M346,219.89l-2,2.2h-2l-2-2C342,219.17,344,219.87,346,219.89Z" transform="translate(-264.94 -114.94)" fill="#000017"/>
    <path d="M319.23,181.09,317.07,180c0-2.07,1.72-2,3-2.48C320.43,178.86,320.45,180.11,319.23,181.09Z" transform="translate(-264.94 -114.94)" fill="#00000f"/>
    <path d="M369,206.09,367.18,204l.55-1.14A2.57,2.57,0,0,1,370,204,2.05,2.05,0,0,1,369,206.09Z" transform="translate(-264.94 -114.94)" fill="#000226"/>
    <path d="M367.15,182l1.87-2a1.75,1.75,0,0,1,.8,2.08l-1.77,2Z" transform="translate(-264.94 -114.94)" fill="#00062c"/>
    <path d="M324,213.91a.88.88,0,0,1,1.11.88.77.77,0,0,1,.23.63q0,.34-.12.34L325,216C323.86,215.69,324,214.78,324,213.91Z" transform="translate(-264.94 -114.94)" fill="#00001b"/>
    <path d="M364,175l-.13-1c.79.07,1.83-.32,1.91,1a1.2,1.2,0,0,1-.89.54A1.34,1.34,0,0,1,364,175Z" transform="translate(-264.94 -114.94)" fill="#00001b"/>
    <path d="M366.06,178.07a1.39,1.39,0,0,1-1.8-1.07,1.15,1.15,0,0,1,.87-.54,1.28,1.28,0,0,1,.87.56Z" transform="translate(-264.94 -114.94)" fill="#000014"/>
    <path d="M319.93,207.94a1.36,1.36,0,0,1,1.82,1.07,1.16,1.16,0,0,1-.87.54A1.26,1.26,0,0,1,320,209Z" transform="translate(-264.94 -114.94)" fill="#000016"/>
    <path d="M364.32,209c.2-.94,1-.92,1.71-1.08a.52.52,0,0,1,.2.81.78.78,0,0,1-.81.73A1.28,1.28,0,0,1,364.32,209Z" transform="translate(-264.94 -114.94)" fill="#001"/>
    <path d="M325,172l-1,.09c0-.87,0-1.72,1-2.1l.19.28a1,1,0,0,1,.28.89A1.63,1.63,0,0,1,325,172Z" transform="translate(-264.94 -114.94)" fill="#000016"/>
    <path d="M361,171c-.88.17-1.23-.42-1.55-1.06C360.09,170.12,360.91,170,361,171Z" transform="translate(-264.94 -114.94)" fill="#00000e"/>
    <path d="M366,177l-1.21-.06a1,1,0,0,1,.16-1,.71.71,0,0,1,1,0Z" transform="translate(-264.94 -114.94)" fill="#001339"/>
    <path d="M321,176.94l-1.06.56.17-1.51.71-.29.53.55Z" transform="translate(-264.94 -114.94)" fill="#001237"/>
    <path d="M365.9,176H365l-.4-.52L365,175h.73Z" transform="translate(-264.94 -114.94)" fill="#00000d"/>
    <path d="M364.76,209.06l1.46-.33h0a1.3,1.3,0,0,1-.21,1.13l-1.08.47-.11-.25.21-.18A.57.57,0,0,1,364.76,209.06Z" transform="translate(-264.94 -114.94)" fill="#001339"/>
    <path d="M366,209.86l.21-1.13.94.76Z" transform="translate(-264.94 -114.94)" fill="#00000d"/>
    <path d="M321,210.88c-.73.16-1-.2-.87-.86a.62.62,0,1,1,.87.86Z" transform="translate(-264.94 -114.94)" fill="#00000b"/>
    <path d="M321,210.88q0-.44,0-.89l.53-.41.53.41v1.42Z" transform="translate(-264.94 -114.94)" fill="#001035"/>
    <path d="M322.06,174.59l.07,1.4a.82.82,0,0,1-1.14,0h0q-.34-.28-.23-.56t.21-.29Z" transform="translate(-264.94 -114.94)" fill="#001237"/>
    <path d="M321,175.15q0,.43,0,.85l-.88,0C320,175.31,320.26,175,321,175.15Z" transform="translate(-264.94 -114.94)" fill="#00000a"/>
    <path d="M321,210l-.9,0-.09-1,1.18.06a.75.75,0,0,1-.22,1Z" transform="translate(-264.94 -114.94)" fill="#001339"/>
    <path d="M334,199.06h-1a25.09,25.09,0,0,1,.1-11.39c3.66.46,2,3.36,1.92,5-.09,3.05.58,4.77,4,4.39C338.25,200.07,335.24,197.33,334,199.06Z" transform="translate(-264.94 -114.94)" fill="#000227"/>
    <path d="M352,194.93c.81.88,1.54,2,.72,3s-1.86.32-2.65-.27c-1.52-1.14-3.19-.34-4.77-.53-1.24.58-1.81-.17-2.27-1.14-.07-.88-.28-1.81.8-2.28.75.13,1.47-.27,2.23-.15a10.14,10.14,0,0,0,2.87.16C350.33,193.25,351.11,194.27,352,194.93Z" transform="translate(-264.94 -114.94)" fill="#000a31"/>
    <path d="M346,188.89c1.43-2.83,2.77-3,4,.14-.66.91-.49,2.33-1.75,2.87-.9.36-1.8.8-2.59-.2A3.76,3.76,0,0,1,346,188.89Z" transform="translate(-264.94 -114.94)" fill="#090f2c"/>
    <path d="M333.1,187.66l-.1,11.39c-1.9-3.85-.77-7.84-.58-11.79.11,0,.25,0,.33,0A2.33,2.33,0,0,1,333.1,187.66Z" transform="translate(-264.94 -114.94)" fill="#001035"/>
    <path d="M369.06,188a11.19,11.19,0,0,1,0,10Z" transform="translate(-264.94 -114.94)" fill="#0d1536"/>
    <path d="M346,188.89l.13,3.27a1.21,1.21,0,0,1-.23,1.83c-.71.3-1.48,1-2-.25A5.71,5.71,0,0,1,346,188.89Z" transform="translate(-264.94 -114.94)" fill="#00000e"/>
    <path d="M316.89,197a7.82,7.82,0,0,1,0-8Z" transform="translate(-264.94 -114.94)" fill="#0c183b"/>
    <path d="M342,165c1.15,0,2.3,0,3.44.06.66,0,.67.48.18.83a2.91,2.91,0,0,1-.94.26h-3.39l-.6-.7Z" transform="translate(-264.94 -114.94)" fill="#000016"/>
    <path d="M343.06,196l2.27,1.14c-.19,1.55-1.16,2.79-2.58,2.08C341,198.37,342.26,197,343.06,196Z" transform="translate(-264.94 -114.94)" fill="#000015"/>
    <path d="M334,199.06c1.14-2,3.78-.17,5-2,2.09.95,1.28,1.89-.22,2.15A22.05,22.05,0,0,1,334,199.06Z" transform="translate(-264.94 -114.94)" fill="#000015"/>
    <path d="M348,191l1.89-2c.69,1.2-.07,2.93,1.38,3.85a2.1,2.1,0,0,1-2.1.61C348.2,193,347.6,192.22,348,191Z" transform="translate(-264.94 -114.94)" fill="#001"/>
    <path d="M349.2,193l2.12-.11a2.13,2.13,0,0,1,.72,2c-1,.85-2-1.22-3,.08A1.25,1.25,0,0,1,349.2,193Z" transform="translate(-264.94 -114.94)" fill="#000019"/>
    <path d="M365,176a2.17,2.17,0,0,1-.21,1,3.82,3.82,0,0,1-.52,0l-.31-1a.65.65,0,0,1,1.05,0Z" transform="translate(-264.94 -114.94)" fill="#00000f"/>
    <path d="M321,176h1.14c.12.9-.46,1-1.12.94Q321,176.47,321,176Z" transform="translate(-264.94 -114.94)" fill="#00000f"/>
    <path d="M365,176H364l0-1h1Q365,175.5,365,176Z" transform="translate(-264.94 -114.94)" fill="#000e34"/>
    <path d="M321,210a2.58,2.58,0,0,1,.21-1l.56,0,.3,1Z" transform="translate(-264.94 -114.94)" fill="#00000f"/>
    <path d="M325.2,215.76a3.45,3.45,0,0,1-.11-1,1.61,1.61,0,0,1,.9.25Z" transform="translate(-264.94 -114.94)" fill="#00000e"/>
    <path d="M364.76,209.06a1.88,1.88,0,0,1,.27.85l-1-.28.32-.62Z" transform="translate(-264.94 -114.94)" fill="#000010"/>
    <path d="M325,172l0-1.1a.57.57,0,0,1,.84-.06,1.46,1.46,0,0,1,.36.47C326.13,172.08,325.68,172.25,325,172Z" transform="translate(-264.94 -114.94)" fill="#000d33"/>
    <path d="M325.87,170.82l-.42.1-.42,0a1.65,1.65,0,0,1,.13-.62Z" transform="translate(-264.94 -114.94)" fill="#00000d"/>
    <path d="M349.2,193l-.15,2c-1.2.07-2.53.57-3.2-1l.23-1.83,2-1.16Z" transform="translate(-264.94 -114.94)" fill="#9ca3b1"/>
  </g>
</svg>
