<svg id="Layer_1" data-name="Layer 1" xmlns="http://www.w3.org/2000/svg" width="155.13" height="155.17" viewBox="0 0 155.13 155.17">
  <title>cs_partiring_socialdemokratiet-sm</title>
  <g>
    <path d="M420,193c0,24.65,0,49.29.06,73.94,0,2.38-.39,3.12-3,3.12q-74.44-.15-148.88,0c-2.93,0-3.24-.8-3.24-3.41q.13-74.19,0-148.38c0-2.67.39-3.39,3.27-3.38q74.44.17,148.88,0c2.69,0,3,.84,3,3.15C420,143.05,420,168,420,193Z" transform="translate(-264.93 -114.92)" fill="#fefefe"/>
    <path d="M343.21,121A72.06,72.06,0,0,1,415,193.33c-.09,39.68-32.55,71.79-72.46,71.67C303.1,264.88,271,232.51,271,192.92A72.05,72.05,0,0,1,343.21,121Z" transform="translate(-264.93 -114.92)" fill="#fe0000"/>
    <path d="M281,192.37c.23-34,28.34-61.56,62.5-61.37s61.8,28.44,61.48,62.88c-.31,33.91-28.53,61.39-62.74,61.11C308.32,254.72,280.77,226.56,281,192.37Z" transform="translate(-264.93 -114.92)" fill="#fefefe"/>
    <path d="M342.47,237C318.11,237,299,217.7,299,193.07A43.7,43.7,0,0,1,342.55,149c23.36,0,43.51,19.84,43.18,44.1C385.39,218.66,365.52,237.61,342.47,237Z" transform="translate(-264.93 -114.92)" fill="#e90029"/>
    <path d="M353,211l-3.07-4c-4.86-2-10-.58-14.93-1-1.56,3.4-3.42,5.92-8,5.08-2.55-.47-3.41-.48-2.38-3.48,1.44-4.2,3.7-7.93,5.51-11.91q5-11.09,10.14-22.13a32.23,32.23,0,0,1,2.51-3.76c2.54,5.59,4.75,10.8,7.23,15.86,3.87,7.89,6.71,16.28,11.58,23.68.39.59.05,1.27-.62,1.65A7.85,7.85,0,0,1,353,211Z" transform="translate(-264.93 -114.92)" fill="#fefcfd"/>
    <path d="M335,206c4.68-1.79,9.51-.57,14.28-.61.21,0,.43,1,.65,1.6C345,206.56,339.87,208,335,206Z" transform="translate(-264.93 -114.92)" fill="#e5001a"/>
    <path d="M353,211l8,0C358.35,214.27,355.69,214.19,353,211Z" transform="translate(-264.93 -114.92)" fill="#e70025"/>
    <path d="M340.08,194c.37-1.47.5-4,2.18-3.59,2.4.57,1.7,3.7,2.66,5.57C342.69,196.86,340.72,197,340.08,194Z" transform="translate(-264.93 -114.92)" fill="#e90d2c"/>
    <path d="M340.08,194a4.75,4.75,0,0,0,4.84,2c-1.45,2.62-3.85,1.45-5.51.84C338.11,196.37,339.44,194.93,340.08,194Z" transform="translate(-264.93 -114.92)" fill="#e2000d"/>
  </g>
</svg>
