<svg id="Layer_1" data-name="Layer 1" xmlns="http://www.w3.org/2000/svg" viewBox="0 0 3840 683">
  <title>cs_infografik_12345</title>
  <g id="ture">
    <g id="tur1">
      <g>
    <path d="M1536.5,683.5h-768V.5h768Zm-760.06-3.94h752.12V4.44H776.44Z" transform="translate(-768.5 -0.5)" fill="#0a070c"/>
    <path d="M776.44,679.56V4.44h752.12V679.56ZM825.81,662h656c-.84-1.42-1.54-2.48-2.12-3.61q-13-25.08-26-50.17c-8.48-16.46-16.84-33-25.36-49.43-7.82-15.08-15.84-30.06-23.66-45.14-8.52-16.44-16.89-33-25.37-49.43q-9.86-19.12-19.85-38.18c-5.23-10-10.53-20-15.77-30-4.38-8.38-8.71-16.79-13.06-25.19l-16.82-32.47c-4.39-8.48-8.9-16.89-13.1-25.47-.93-1.9-1.88-2.48-3.83-2.47q-28.86.19-57.73.26l-68.48.26q-61.36.21-122.71.41-52.24.13-104.48.16h-2.75ZM1259.38,54.17H978.64v251h280.74Z" transform="translate(-768.5 -0.5)" fill="#a47bbe"/>
    <path d="M825.81,662,940.69,311.56h2.75q52.24-.08,104.48-.16,61.36-.16,122.71-.41l68.48-.26q28.87-.11,57.73-.26c2,0,2.89.56,3.83,2.47,4.2,8.57,8.71,17,13.1,25.47l16.82,32.47c4.35,8.4,8.68,16.81,13.06,25.19,5.23,10,10.54,20,15.77,30q10,19.07,19.85,38.18c8.49,16.46,16.85,33,25.37,49.43,7.82,15.08,15.84,30.06,23.66,45.14,8.52,16.44,16.88,33,25.36,49.43q12.94,25.12,26,50.17c.58,1.13,1.28,2.19,2.12,3.61ZM953.57,319l-110,335.54h618a6.69,6.69,0,0,0-.28-1.88q-3.49-6.87-7.07-13.7c-7.22-13.77-14.53-27.5-21.68-41.31-9.15-17.67-18.14-35.41-27.26-53.09q-13.95-27-28-54c-7.85-15.06-15.86-30-23.68-45.12s-15.56-30.41-23.41-45.58c-6.15-11.88-12.46-23.68-18.65-35.55-7.64-14.64-15.31-29.26-22.74-44-1-1.95-2-2.21-3.78-2.2q-26.49.12-53,.19l-61,.23q-59,.22-118,.42-35.87.1-71.74.08Z" transform="translate(-768.5 -0.5)" fill="#050406"/>
    <path d="M1259.38,54.17v251H978.64v-251ZM993.59,61.81v2.94q0,114.86,0,229.73c0,3.24,0,3.24,3.28,3.24h246.66V61.81Z" transform="translate(-768.5 -0.5)" fill="#040304"/>
    <path d="M953.57,319h27.8q35.87,0,71.74-.08,59-.17,118-.42l61-.23q26.49-.1,53-.19c1.74,0,2.8.25,3.78,2.2,7.44,14.74,15.11,29.36,22.74,44,6.19,11.86,12.5,23.66,18.65,35.55,7.85,15.17,15.54,30.42,23.41,45.58s15.83,30.06,23.68,45.12q14.07,27,28,54c9.12,17.68,18.11,35.43,27.26,53.09,7.15,13.81,14.46,27.54,21.68,41.31q3.58,6.82,7.07,13.7a6.69,6.69,0,0,1,.28,1.88h-618Zm297.75,238.85c1.23-.51,2.27-1,3.33-1.38,17.61-6.55,32.55-17.15,45.47-30.59,7.83-8.15,15.06-16.88,22.7-25.22,5.64-6.16,11.51-12.11,17.36-18.24-2.19-.63-4.56-1-6.61-2-4.73-2.29-7.94-.73-11.23,3q-16.77,18.81-34,37.21c-11.17,11.89-23.83,21.85-39,28.24-1.83.77-2.75.84-4-1.27a94.57,94.57,0,0,0-19.44-23.34c-11.22-9.6-23.94-16.86-36.69-24.11s-25.46-14.68-38.2-22a3.08,3.08,0,0,0-2-.59c-3.8,1.22-7.55,2.6-11.32,3.93l-.22.92c11.55,6.56,23.05,13.19,34.65,19.65,13,7.27,26.16,14.37,37.92,23.69,10,7.91,17.46,17.79,23.73,29-1.23.47-2.3.85-3.34,1.3-9.34,4-18.89,7.5-28,12-13.25,6.55-24,16.53-33.91,27.29-9.15,9.9-18,20-27.06,30-3,3.28-6.08,6.42-9.12,9.62,3.21.93,6.68,1.8,10,3a3.52,3.52,0,0,0,4.32-1.08c10.25-11.12,20.81-22,30.8-33.3,16.67-18.93,35.89-33.9,60.86-40.68.31.49.79,1.22,1.25,2a107.77,107.77,0,0,0,15.55,20.26c10.22,10.1,22.33,17.56,34.65,24.71,15.12,8.78,30.32,17.43,45.5,26.11a2.6,2.6,0,0,0,1.8.41c3.78-1.25,7.51-2.62,11.56-4.07-2.38-1.6-4.33-3.11-6.46-4.31-14.07-8-28.2-15.89-42.25-23.92-10.51-6-20.7-12.5-29.63-20.8C1262.5,576,1256.71,567.34,1251.32,557.86Zm-204.75-63.07c5.21,1.38,10,3.13,13.59,7.13,1.92,2.14,1.93,5.59.57,8.26-1.71,3.34-4.71,4.19-8,4.29a72,72,0,0,1-47.61-13.76c-2.46-1.67-2.39-3.35-.14-5.36,1.86-1.66,4.07-2.95,6.07-4.46,2.15-1.63,2.1-3.35-.22-4.77a10.69,10.69,0,0,0-9.11-1c-5.38,1.7-9.55,5.24-13.05,9.48a5.78,5.78,0,0,0-.27,7.09c2.74,4.4,7,7,11.41,9.18a107.84,107.84,0,0,0,55.33,11.59c5.14-.26,10.21-1.24,14.71-4,8.48-5.25,10.93-15.27,1.81-22.66a46.52,46.52,0,0,0-15-7.73c-3.81-1.27-7.58-2.64-11.4-3.84-3.25-1-6.6-1.25-9.73.29a6,6,0,0,0-2.93,3c-1.69,5-2.76,10.2-2.08,15.53a14.5,14.5,0,0,0,1.68,4.73c2.34,4.47,10.78,4.78,14.91,1.71a3.33,3.33,0,0,0,.84-3.09C1046,502.71,1046.36,498.91,1046.57,494.79Zm21.63-46.15c2.58-.29,6.67-.5,10.66-1.26,7-1.33,13.63-3.79,19.08-8.61,7.7-6.79,8.09-16.14-1.24-22.26a64.6,64.6,0,0,0-20.32-8.71c-13.78-3.37-27.69-4.84-41.72-1.81-7,1.51-13.08,4.76-16.65,11.28-3.4,6.2-3.73,9.36.66,15a23.4,23.4,0,0,0,6.3,5.23C1037.75,445.41,1052,448,1068.21,448.64ZM1087.77,395c1.14-1.06,1.69-1.6,2.27-2.1a75,75,0,0,1,19.63-11.86c2.34-1,4.79-1.82,7-3,1-.55,2.32-1.82,2.32-2.76s-1.29-2.34-2.32-2.72c-2-.72-4.27-1.51-6.2-1.11a66.75,66.75,0,0,0-12,3.79c-4,1.66-7.75,3.86-11.71,5.88a18.05,18.05,0,0,0-13.32-10.49c-15.16-3.17-28.8.57-41.06,9.73-3.69,2.75-5.41,6.88-7.14,11-1.22,2.89-1.17,3.77,1.56,5a16.85,16.85,0,0,0,5.44,1.57q34,3.07,68.12,5.93a40,40,0,0,0,8.14-.45c1.82-.22,3.43-1.47,3.42-3.31s-1.56-2.83-3.3-3.13c-2.36-.42-4.75-.76-7.14-1C1097.21,395.64,1092.86,395.38,1087.77,395Zm-26.42,79.05-.12-.41,1.55-.66c7.34-3,14.77-5.7,22-9,2.93-1.33,5.38-3.76,7.94-5.81,1.63-1.3.86-2.68-.43-3.67-3.11-2.39-10.25-2.09-13.42.23a38.44,38.44,0,0,1-7,4.28c-5.88,2.6-12,4.7-17.82,7.39-4,1.86-7.5,2.25-10.67-1.39a7.61,7.61,0,0,0-1.81-1.23c-7.63-4.72-15.21-9.52-22.91-14.12a10.28,10.28,0,0,0-10.26-.11c-3.45,1.74-3.48,3.6-.49,5.58,4.34,2.88,8.78,5.63,13.15,8.46,3.84,2.49,7.66,5,12,7.92-1.26,0-1.75,0-2.24,0-7.7-.78-15.39-1.72-23.1-2.28a22.07,22.07,0,0,0-7.47,1.16,3.6,3.6,0,0,0-1.93,2.69c-.06.81,1,2,1.83,2.49a11.29,11.29,0,0,0,4.22,1.3c5.79.61,11.6,1,17.4,1.59,12.92,1.25,25.84,2.57,38.76,3.82,6,.59,12.09,1.32,18.15,1.55a25.32,25.32,0,0,0,8.24-1.45,4.17,4.17,0,0,0,2.34-3c.08-.76-1.42-2-2.46-2.5a11.61,11.61,0,0,0-4.06-1C1075.61,475.31,1068.48,474.71,1061.36,474.07Zm-92.09,91.33a45.93,45.93,0,0,0,5.11,3.29c12.19,5.77,24.43,11.45,36.65,17.17.8.38,2,.7,2.25,1.33.89,2.55,2.94,2.53,5,2.73a19.54,19.54,0,0,1,3.86.67c4.82,1.49,9.56,3.24,14.42,4.58a9.75,9.75,0,0,0,8.93-1.79,2.46,2.46,0,0,0,0-4.11,9.72,9.72,0,0,0-2.59-1.36c-4.42-1.65-8.81-3.39-13.3-4.79-2.05-.64-2.58-1.71-2.31-3.59.49-3.51,1-7,1.47-10.79,3.51-.25,7.08-.34,10.6-.81,4.84-.64,9.67-1.45,14.46-2.44a4.16,4.16,0,0,0,2.67-2.32c.58-1.77-1.09-2.77-2.45-3.09a27.48,27.48,0,0,0-7.33-.9c-14.54.58-29.08,1.42-43.62,2-8.15.31-16.32.15-24.48.42C975.29,561.73,971.76,561.77,969.27,565.41Zm41.89,51.41a16,16,0,0,1-2.3.58c-16.46.9-32.92,1.75-49.37,2.7a50.21,50.21,0,0,0-9.3,1.31,4,4,0,0,0-2.48,3c.05,1.05,1.51,2.49,2.67,2.93a15.15,15.15,0,0,0,5.84.89c11.81-.49,23.62-1,35.41-1.76,13.7-.88,27.39-2,41.07-3.11a20,20,0,0,0,5.94-1.6c2.51-1.05,2.69-4,.13-5.23a17.12,17.12,0,0,0-2-.91c-9.7-3.08-19.41-6.12-29.11-9.21-13.15-4.19-26.28-8.43-39.43-12.61a12.37,12.37,0,0,0-10.13.65c-2.87,1.58-3,3.84-.15,5.52a27.34,27.34,0,0,0,5.79,2.68c9.89,3,19.82,5.93,29.74,8.88C999.15,613.2,1004.83,614.92,1011.15,616.81Zm49.09-274.1a12,12,0,0,1,.45-2.59c1.4-3.07,2.87-6.11,4.34-9.16,1.16-2.41.53-4.46-1.95-5.36-3.19-1.15-6.53-1.57-9.73-.17a7.1,7.1,0,0,0-3.36,2.85,102,102,0,0,0-4.47,10.38c-1.43,3.78-2.5,7.69-4,11.45a57.33,57.33,0,0,1-4.3,9.1c-.95,1.55-.25,2.38.51,3.14,3.12,3.16,11.7,2.77,14.29-.86a47.57,47.57,0,0,0,4.41-8.5c.64-1.46,1.2-2.28,3-2.18,8.81.47,17.63.68,26.44,1.23,10.63.66,21.23,1.68,31.86,2.29a20.37,20.37,0,0,0,7.21-1.27,3.78,3.78,0,0,0,2.27-2.73c0-.93-1.37-2.19-2.42-2.63a20.11,20.11,0,0,0-6.21-1.65c-10.87-.79-21.76-1.42-32.64-2C1077.51,343.53,1069,343.15,1060.25,342.71Zm-9.35,196.4-.39.05c0,1.66,0,3.32,0,5s-.73,2.3-2.45,2.06c-4.61-.63-9.23-1.21-13.86-1.69q-18.86-2-37.72-3.85c-5.21-.51-10.44-1-15.67-1.11a12.65,12.65,0,0,0-6,1.75,2.4,2.4,0,0,0,0,4.38,14.08,14.08,0,0,0,5.36,1.71c7.69.81,15.41,1.35,23.1,2.12,12,1.21,24,2.59,36,3.77,5.86.57,11.74,1.09,17.61,1.17a8.32,8.32,0,0,0,8.28-5.77,36.42,36.42,0,0,0,.73-3.86c1.32-5.29.77-10.54-.57-15.68a5,5,0,0,0-4.54-3.92,46.56,46.56,0,0,0-8.59.43c-2,.3-3.06,1.73-2.67,4C1050,532.77,1050.42,535.95,1050.9,539.12Z" transform="translate(-768.5 -0.5)" fill="#a47bbe"/>
    <path d="M993.59,61.81h249.94V297.73H996.87c-3.28,0-3.28,0-3.28-3.24q0-114.86,0-229.73Zm184.74,183.29v-7.22H1056.67v7.22Zm27.07-68.34c4.78,0,9.19,0,13.59,0,6.33-.07,12.66-.17,19-.39.72,0,2-.91,2-1.38a52,52,0,0,0-.79-6.19l-34.91.77Zm-87.92-51.68h6.82v-7.22h-6.82Z" transform="translate(-768.5 -0.5)" fill="#a47bbe"/>
    <path d="M1251.32,557.86c5.39,9.48,11.18,18.16,19,25.38,8.93,8.3,19.11,14.79,29.63,20.8,14,8,28.18,15.92,42.25,23.92,2.12,1.21,4.08,2.71,6.46,4.31-4,1.44-7.79,2.81-11.56,4.07a2.6,2.6,0,0,1-1.8-.41c-15.18-8.68-30.37-17.34-45.5-26.11-12.31-7.15-24.43-14.6-34.65-24.71a107.77,107.77,0,0,1-15.55-20.26c-.46-.74-.94-1.48-1.25-2-25,6.78-44.18,21.75-60.86,40.68-10,11.34-20.55,22.18-30.8,33.3a3.52,3.52,0,0,1-4.32,1.08c-3.36-1.16-6.83-2-10-3,3-3.2,6.16-6.35,9.12-9.62,9-10,17.91-20.14,27.06-30,9.94-10.76,20.66-20.74,33.91-27.29,9.08-4.49,18.63-8,28-12,1-.44,2.12-.82,3.34-1.3-6.28-11.2-13.76-21.09-23.73-29-11.76-9.32-24.88-16.42-37.92-23.69-11.6-6.47-23.1-13.1-34.65-19.65l.22-.92c3.77-1.33,7.52-2.7,11.32-3.93a3.08,3.08,0,0,1,2,.59c12.74,7.32,25.43,14.73,38.2,22s25.47,14.51,36.69,24.11a94.57,94.57,0,0,1,19.44,23.34c1.27,2.12,2.19,2,4,1.27,15.2-6.4,27.86-16.35,39-28.24q17.25-18.37,34-37.21c3.3-3.7,6.51-5.26,11.23-3,2.05,1,4.42,1.35,6.61,2-5.85,6.13-11.72,12.08-17.36,18.24-7.64,8.34-14.86,17.07-22.7,25.22-12.92,13.44-27.86,24-45.47,30.59C1253.59,556.88,1252.55,557.35,1251.32,557.86Z" transform="translate(-768.5 -0.5)" fill="#fe0203"/>
    <path d="M1046.57,494.79c-.21,4.12-.53,7.92,1.41,11.57a3.33,3.33,0,0,1-.84,3.09c-4.14,3.07-12.57,2.76-14.91-1.71a14.5,14.5,0,0,1-1.68-4.73c-.68-5.33.39-10.52,2.08-15.53a6,6,0,0,1,2.93-3c3.13-1.54,6.48-1.31,9.73-.29,3.82,1.2,7.6,2.58,11.4,3.84a46.52,46.52,0,0,1,15,7.73c9.13,7.39,6.68,17.41-1.81,22.66-4.49,2.78-9.57,3.75-14.71,4a107.84,107.84,0,0,1-55.33-11.59c-4.38-2.23-8.67-4.78-11.41-9.18a5.78,5.78,0,0,1,.27-7.09c3.5-4.24,7.67-7.78,13.05-9.48a10.69,10.69,0,0,1,9.11,1c2.32,1.42,2.38,3.14.22,4.77-2,1.52-4.2,2.8-6.07,4.46-2.26,2-2.32,3.69.14,5.36a72,72,0,0,0,47.61,13.76c3.28-.11,6.28-1,8-4.29,1.36-2.67,1.35-6.12-.57-8.26C1056.57,497.92,1051.78,496.17,1046.57,494.79Z" transform="translate(-768.5 -0.5)" fill="#030203"/>
    <path d="M1068.21,448.64c-16.24-.64-30.45-3.23-43.24-11.11a23.4,23.4,0,0,1-6.3-5.23c-4.38-5.66-4.05-8.83-.66-15,3.58-6.53,9.68-9.77,16.65-11.28,14-3,27.95-1.56,41.72,1.81a64.6,64.6,0,0,1,20.32,8.71c9.33,6.12,8.93,15.47,1.24,22.26-5.46,4.82-12.07,7.28-19.08,8.61C1074.88,448.13,1070.79,448.35,1068.21,448.64Zm-18.47-36.73c-3.85.84-7.94,1.12-11.5,2.64-8.42,3.62-9.3,12.62-1.65,17.37a54.5,54.5,0,0,0,36.38,7.87c4.9-.62,9.5-2.49,12.87-6.48,3-3.54,3.42-6.26,1-9.05a19.46,19.46,0,0,0-4.95-4.16C1072,414.42,1061,413,1049.74,411.91Z" transform="translate(-768.5 -0.5)" fill="#020203"/>
    <path d="M1087.77,395c5.09.36,9.43.62,13.77,1,2.39.21,4.77.55,7.14,1,1.74.31,3.29,1.43,3.3,3.13s-1.6,3.08-3.42,3.31a40,40,0,0,1-8.14.45q-34.07-2.83-68.12-5.93a16.85,16.85,0,0,1-5.44-1.57c-2.73-1.26-2.78-2.14-1.56-5,1.73-4.1,3.45-8.23,7.14-11,12.27-9.16,25.9-12.9,41.06-9.73a18.05,18.05,0,0,1,13.32,10.49c4-2,7.72-4.23,11.71-5.88a66.75,66.75,0,0,1,12-3.79c1.93-.4,4.24.39,6.2,1.11,1,.38,2.32,1.78,2.32,2.72s-1.29,2.21-2.32,2.76c-2.24,1.2-4.69,2-7,3A75,75,0,0,0,1090,392.92C1089.46,393.42,1088.92,394,1087.77,395ZM1042,390.94c8.41.7,16.75,1.33,25.08,2.12,2.46.24,3.78.35,4.87-2.82,2.61-7.65-4.07-13.93-10.16-12.57a54.52,54.52,0,0,0-10.76,3.47C1046.91,383,1043.32,385.84,1042,390.94Z" transform="translate(-768.5 -0.5)" fill="#030203"/>
    <path d="M1061.36,474.07c7.12.63,14.25,1.23,21.37,1.92a11.61,11.61,0,0,1,4.06,1c1,.52,2.54,1.73,2.46,2.5a4.17,4.17,0,0,1-2.34,3,25.32,25.32,0,0,1-8.24,1.45c-6.06-.23-12.11-1-18.15-1.55-12.92-1.26-25.84-2.57-38.76-3.82-5.8-.56-11.61-1-17.4-1.59a11.29,11.29,0,0,1-4.22-1.3c-.86-.48-1.89-1.69-1.83-2.49a3.6,3.6,0,0,1,1.93-2.69,22.07,22.07,0,0,1,7.47-1.16c7.72.55,15.4,1.5,23.1,2.28.49,0,1,0,2.24,0-4.38-2.88-8.19-5.43-12-7.92-4.37-2.84-8.81-5.58-13.15-8.46-3-2-3-3.85.49-5.58a10.28,10.28,0,0,1,10.26.11c7.7,4.61,15.28,9.4,22.91,14.12a7.61,7.61,0,0,1,1.81,1.23c3.17,3.64,6.63,3.25,10.67,1.39,5.84-2.69,11.94-4.79,17.82-7.39a38.44,38.44,0,0,0,7-4.28c3.17-2.32,10.31-2.62,13.42-.23,1.29,1,2.06,2.36.43,3.67-2.57,2.05-5,4.48-7.94,5.81-7.19,3.28-14.63,6-22,9l-1.55.66Z" transform="translate(-768.5 -0.5)" fill="#020203"/>
    <path d="M969.27,565.41c2.5-3.63,6-3.68,9.33-3.79,8.16-.27,16.33-.11,24.48-.42,14.54-.56,29.08-1.4,43.62-2a27.48,27.48,0,0,1,7.33.9c1.35.32,3,1.32,2.45,3.09a4.16,4.16,0,0,1-2.67,2.32c-4.78,1-9.61,1.8-14.46,2.44-3.52.46-7.09.55-10.6.81-.51,3.77-1,7.28-1.47,10.79-.26,1.88.26,3,2.31,3.59,4.5,1.4,8.89,3.14,13.3,4.79a9.72,9.72,0,0,1,2.59,1.36,2.46,2.46,0,0,1,0,4.11,9.75,9.75,0,0,1-8.93,1.79c-4.86-1.34-9.6-3.09-14.42-4.58a19.54,19.54,0,0,0-3.86-.67c-2.07-.2-4.11-.18-5-2.73-.22-.63-1.44-1-2.25-1.33-12.22-5.72-24.46-11.4-36.65-17.17A45.93,45.93,0,0,1,969.27,565.41Zm45.81,3.88H997.54c4.94,2.57,10,4.72,15,6.85,1.47.62,1.72-.38,1.87-1.45C1014.63,573,1014.83,571.3,1015.08,569.29Z" transform="translate(-768.5 -0.5)" fill="#020203"/>
    <path d="M1011.15,616.81c-6.32-1.9-12-3.62-17.7-5.31-9.91-3-19.85-5.85-29.74-8.88a27.34,27.34,0,0,1-5.79-2.68c-2.83-1.67-2.72-3.93.15-5.52a12.37,12.37,0,0,1,10.13-.65c13.15,4.19,26.28,8.43,39.43,12.61,9.7,3.09,19.41,6.13,29.11,9.21a17.12,17.12,0,0,1,2,.91c2.57,1.2,2.38,4.18-.13,5.23a20,20,0,0,1-5.94,1.6c-13.68,1.13-27.37,2.23-41.07,3.11-11.79.76-23.6,1.27-35.41,1.76a15.15,15.15,0,0,1-5.84-.89c-1.16-.44-2.62-1.88-2.67-2.93a4,4,0,0,1,2.48-3,50.21,50.21,0,0,1,9.3-1.31c16.45-1,32.91-1.8,49.37-2.7A16,16,0,0,0,1011.15,616.81Z" transform="translate(-768.5 -0.5)" fill="#030204"/>
    <path d="M1060.25,342.71c8.8.44,17.26.81,25.72,1.29,10.88.62,21.77,1.25,32.64,2a20.11,20.11,0,0,1,6.21,1.65c1,.44,2.39,1.7,2.42,2.63a3.78,3.78,0,0,1-2.27,2.73,20.37,20.37,0,0,1-7.21,1.27c-10.63-.61-21.23-1.63-31.86-2.29-8.8-.55-17.63-.76-26.44-1.23-1.8-.1-2.36.72-3,2.18a47.57,47.57,0,0,1-4.41,8.5c-2.59,3.64-11.17,4-14.29.86-.76-.77-1.46-1.59-.51-3.14a57.33,57.33,0,0,0,4.3-9.1c1.47-3.76,2.53-7.67,4-11.45a102,102,0,0,1,4.47-10.38,7.1,7.1,0,0,1,3.36-2.85c3.2-1.4,6.54-1,9.73.17,2.48.9,3.11,3,1.95,5.36-1.47,3-2.94,6.08-4.34,9.16A12,12,0,0,0,1060.25,342.71Z" transform="translate(-768.5 -0.5)" fill="#030204"/>
    <path d="M1050.9,539.12c-.48-3.17-.9-6.35-1.44-9.51-.39-2.25.72-3.68,2.67-4a46.56,46.56,0,0,1,8.59-.43,5,5,0,0,1,4.54,3.92c1.34,5.14,1.89,10.39.57,15.68a36.42,36.42,0,0,1-.73,3.86,8.32,8.32,0,0,1-8.28,5.77c-5.88-.08-11.76-.59-17.61-1.17-12-1.18-24-2.56-36-3.77-7.69-.77-15.41-1.31-23.1-2.12a14.08,14.08,0,0,1-5.36-1.71,2.4,2.4,0,0,1,0-4.38,12.65,12.65,0,0,1,6-1.75c5.23.1,10.46.6,15.67,1.11q18.87,1.84,37.72,3.85c4.63.49,9.25,1.06,13.86,1.69,1.72.24,2.52-.25,2.45-2.06s0-3.32,0-5Z" transform="translate(-768.5 -0.5)" fill="#030204"/>
    <path d="M1178.33,245.11H1056.67v-7.22h121.66Z" transform="translate(-768.5 -0.5)" fill="#0a080c"/>
    <path d="M1205.4,176.77l-1.11-7.19,34.91-.77A52,52,0,0,1,1240,175c0,.47-1.3,1.35-2,1.38-6.32.22-12.65.31-19,.39C1214.59,176.81,1210.18,176.77,1205.4,176.77Z" transform="translate(-768.5 -0.5)" fill="#040305"/>
    <path d="M1117.48,125.09v-7.22h6.82v7.22Z" transform="translate(-768.5 -0.5)" fill="#0d0a10"/>
    <path d="M1049.74,411.91c11.29,1.1,22.26,2.51,32.17,8.19a19.46,19.46,0,0,1,4.95,4.16c2.4,2.79,2,5.52-1,9.05-3.37,4-8,5.86-12.87,6.48a54.5,54.5,0,0,1-36.38-7.87c-7.65-4.75-6.77-13.75,1.65-17.37C1041.8,413,1045.89,412.75,1049.74,411.91Z" transform="translate(-768.5 -0.5)" fill="#a37abd"/>
    <path d="M1042,390.94c1.27-5.1,4.86-7.89,9-9.8a54.52,54.52,0,0,1,10.76-3.47c6.08-1.36,12.77,4.92,10.16,12.57-1.08,3.17-2.4,3.06-4.87,2.82C1058.8,392.27,1050.46,391.64,1042,390.94Z" transform="translate(-768.5 -0.5)" fill="#a27abb"/>
    <path d="M1015.08,569.29c-.25,2-.45,3.71-.67,5.4-.14,1.08-.4,2.08-1.87,1.45-5-2.13-10.06-4.28-15-6.85Z" transform="translate(-768.5 -0.5)" fill="#9670ae"/>
  </g>
  </g>
  <g id="tur2">
    <g>
    <path d="M2304.5,683.49h-768V.58h768Zm-7.95-679h-752.1v675.1h752.1Z" transform="translate(-768.5 -0.5)" fill="#0a070c"/>
    <path d="M2296.55,4.45v675.1h-752.1V4.45ZM2025.28,349.34c-4,3.17-8.35,6.42-12.48,9.92a8,8,0,0,1-5.57,2q-153-.06-306,0h-2.73a6.39,6.39,0,0,0,2.33,1.66q38.05,17.39,76.11,34.77c29.92,13.7,59.77,27.54,89.77,41.05a35.07,35.07,0,0,1,13.41,10.83c1.55,2,3.19,4,2.19,7.08a27.33,27.33,0,0,0-1.66,8.12,102.66,102.66,0,0,0,.83,14.8c.58,4.34,2,8.56,2.85,12.88a11.29,11.29,0,0,1-.08,4.92c-.64,2.4-1.85,4.64-2.69,7-3.63,10.18-8.85,19.58-14.52,28.71a299.07,299.07,0,0,1-29.56,39.43,5.49,5.49,0,0,1-4.59,2.13q-49.12-.16-98.24-.19h-3.09v7.54c105.41-.12,210.65,1.09,315.82.11v-7.33h-13.6q-39,.09-78,.21a4.92,4.92,0,0,1-4.28-1.85c-1.7-2.12-3.56-4.12-5.35-6.17-18-20.59-33.72-42.62-44.38-68a14.46,14.46,0,0,1-1-6.86c.55-5.19,1.83-10.3,2.41-15.48.28-2.47-.48-5-.58-7.58a34.44,34.44,0,0,0-2.94-12.3c-.75-1.75-1.8-3.56-.18-5.63,2.14-2.75,3-6.54,6.47-8.21q20.53-9.93,41.11-19.74,38.82-18.56,77.66-37.08,22.25-10.62,44.53-21.2c2.15-1,4.25-2.15,6.38-3.23l-.14-.5h-47.1c2.4-2,4.43-3.41,6.22-5.12,2.65-2.52,5.27-3,9-2.13a181.31,181.31,0,0,0,70.65,2c15.36-2.48,30.18-6.78,43.67-14.82,8.93-5.32,16.88-11.67,20.91-21.71a25,25,0,0,0-1-21.37c-4.63-9.14-12.37-15.17-21.07-20.09-17.3-9.78-36.2-14.05-55.75-15.82a184.81,184.81,0,0,0-49.27,1.91c-15.72,2.8-30.91,7.21-44.46,16-9.62,6.22-17.76,13.6-20.26,25.67-1.09,5.26-.06,10,1.88,14.54,3.29,7.73,9.09,13.53,16.08,17.9C2011.56,342.16,2018.46,345.58,2025.28,349.34ZM1847.35,151.18c1.55-.79,3.14-1.47,4.58-2.38a19.84,19.84,0,0,0,4.05-3.07c4.62-4.95,5-10.6-1.09-14.81a35.2,35.2,0,0,0-6.44-3.51c-14.28-5.93-29.1-5.07-44-3.26a3.26,3.26,0,0,0-3,3.35c-.27,3.86-.54,7.72-.95,11.57-.55,5.31-1.46,10.59-1.79,15.91-.35,5.72-.27,11.48-.22,17.22a3.33,3.33,0,0,0,1.6,2.19,9.2,9.2,0,0,0,4.05,1.62c5,.19,10,.21,14.93.05,10.64-.34,21.26-1.1,31.53-4.16,4.72-1.4,9.42-3,13.15-6.46,2.52-2.34,2.51-5,0-7.29a10.45,10.45,0,0,0-3-2C1856.43,154.43,1852,152.88,1847.35,151.18ZM1708.68,95.5c2.49,0,5,.17,7.48,0,11.64-.95,22.48-4.1,31.74-11.63,5.15-4.19,9.33-9.18,10.39-15.8,1.29-8-1.2-14.18-8.93-18.43-7.9-4.34-16.69-5.13-25.5-5.64-12.63-.73-25.12-.22-36.94,4.87-8.46,3.64-16.2,8.38-20.79,16.79-4.07,7.46-3.74,13.67,2.61,19.35a31.06,31.06,0,0,0,7.46,4.58C1686.46,94.43,1697.49,95.59,1708.68,95.5Zm311.14,62.34c3.35-.72,6-1.21,8.59-1.87,5.21-1.33,10.36-2.93,14.66-6.3,2.15-1.68,4.16-4,3-6.91a18,18,0,0,0-4.48-6.37c-4.47-4.07-10.23-5.79-15.82-7.77-9.95-3.52-20.3-4.19-30.71-4.37a76.2,76.2,0,0,0-11.65.43,5.44,5.44,0,0,0-3.79,3.16,12.69,12.69,0,0,0,.19,7.14c1.55,4.18-.26,8-.54,11.92-.27,3.73-1.53,7.42-1.61,11.14a128.68,128.68,0,0,0,.94,14.31,3.52,3.52,0,0,0,1.34,2.15c2.56,2,8.93,1.88,11.34-.12a3.12,3.12,0,0,0,1.12-2c.06-2.91,0-5.83-.18-8.74a26.79,26.79,0,0,0-.77-3.79,16.82,16.82,0,0,1,2,0,154.09,154.09,0,0,1,34.07,8.94c4.36,1.73,8.56,3.87,12.92,5.59,4.54,1.79,8.94.57,11.17-3.12a20.87,20.87,0,0,0-3.73-2.78c-5.4-2.43-10.83-4.79-16.34-6.93C2027.93,160.15,2024.18,159.2,2019.82,157.84ZM1882.17,71.52c7.47-3.93,14.64-7.5,21.61-11.43,6.1-3.43,12.06-7.14,17.92-11,2.53-1.65,2.2-3.42-.63-4.52a11.7,11.7,0,0,0-10.53.79Q1895,54.3,1879.4,63.1c-2.08,1.17-4.31,2.08-7,3.36.36-2.45.67-4.13.84-5.81.37-3.68.72-7.37,1-11.06.16-2.23.3-4.54-2.34-5.64A10.3,10.3,0,0,0,1863,44a4.8,4.8,0,0,0-2.34,3.29c-.52,9.1-.74,18.21-1.12,27.31-.21,4.94-.58,9.88-.8,14.82a10,10,0,0,0,.33,3.66c1,2.84,4.06,4.36,8.13,4.3,4.38-.06,5.38-1,5.38-5.31,0-5,0-10.08,0-15.64,2.58,1.24,4.7,2.23,6.81,3.28,9.49,4.73,18.71,10.12,29,12.94a84.31,84.31,0,0,0,14.17,2.21c2.08.2,4.36-1,4.52-3.29.13-1.9-2-2.74-3.72-3-7.65-1.12-14.49-4.46-21.38-7.65C1895.45,77.94,1889,74.77,1882.17,71.52Zm220.31,23.23a21.36,21.36,0,0,0,2.59-.36c3.73-.91,4.45-2.81,2.4-6-1.81-2.82-3.73-5.6-5.28-8.56-1.64-3.11-3-6.39-4.31-9.64-1.86-4.46-3.66-8.94-5.43-13.44-1.1-2.78-1.94-5.67-3.19-8.37-1.68-3.64-7.52-4.79-11.55-1.95-7.48,5.27-14.69,10.92-22.07,16.34C2050,66.9,2046,73.33,2038.48,75a2,2,0,0,0-1.24,3.26c.26.38-.16,1.49-.59,2-2.52,3-5.17,5.9-7.7,8.9-1.19,1.41-1.37,2.8.49,4,3.55,2.26,9.2,1.71,12.13-1.28,2-2,4.23-3.84,5.81-6.14,3.11-4.51,7.08-6.44,12.62-6.65,8.38-.33,16.72-1.5,25.08-2.3a2,2,0,0,1,2.53,1.62,50,50,0,0,0,4,9C2093.92,91.42,2097,94.69,2102.48,94.75Zm-213,65.49a5.94,5.94,0,0,1-.4.57c-2.71,3.05-5.47,6.07-8.13,9.17-1.12,1.31-1.74,2.7.15,4.06,3.06,2.2,9.45,1.93,12.06-.79,3.34-3.48,6.48-7.16,9.83-10.64a5.83,5.83,0,0,1,3.22-1.75q15.38-1.67,30.8-3a3.31,3.31,0,0,1,2.41,1.67c1.81,3.47,3.08,7.26,5.16,10.55,3.38,5.35,9.19,7.07,14,4.69,2.22-1.1,2.64-2.35,1.17-4.44a65.62,65.62,0,0,1-7.86-14c-3.06-7.87-6.35-15.65-9.43-23.52-1.93-4.92-3.14-7.22-8.91-6.8a10.49,10.49,0,0,0-5.15,2.15c-8.36,6.24-16.58,12.66-24.88,19-4.05,3.09-7,7.71-12.7,8.55C1888.55,156,1888.26,157.85,1889.49,160.24Zm256.07-72.86c-4.88.22-9.36.34-13.83.65a17.79,17.79,0,0,0-5.28,1.1,3.43,3.43,0,0,0-1.82,2.46,3,3,0,0,0,1.82,2.19,29,29,0,0,0,7.29,1c5.24-.08,10.47-.66,15.7-.78,9.82-.24,19.64-.24,29.45-.49a14.6,14.6,0,0,0,5.68-1.33c2.18-1,2.23-2.75.18-4a9.21,9.21,0,0,0-4.38-1.37c-5.07-.14-10.15,0-15.23,0h-5.73c.27-11.94-1.83-23.67,1.26-35.22,6.17.33,12.23.73,18.3.95a21.21,21.21,0,0,0,6.4-.59c1.18-.33,2-1.77,3.06-2.71-1-1-1.9-2.4-3.14-3a12.15,12.15,0,0,0-4.65-.7q-24.58-.59-49.16-1.06a16.47,16.47,0,0,0-5.66.67c-1.19.42-2,1.86-3,2.84.94.93,1.73,2.33,2.85,2.7a20.29,20.29,0,0,0,5.88.73c5,.09,9.91,0,15.45,0C2143.73,63.34,2145.75,75.17,2145.56,87.38Zm-513.43-43a57,57,0,0,0-30,8.24c-7.28,4.24-14.33,8.85-18.93,16.25-4.22,6.79-3.85,13.28,3.12,18a38.56,38.56,0,0,0,11.39,5.57c17.57,4.65,34.38,1.29,50.67-5.8.92-.4,2.11-1.81,2-2.58a4.39,4.39,0,0,0-2.33-2.64c-3.52-1.72-6.92-.36-10.37.65-6.26,1.83-12.49,3.93-18.89,5.08-7.21,1.29-14.4.58-20.76-3.7-3.66-2.46-4.52-6.43-2.79-10.5s4.88-7.2,8.37-9.81c9-6.74,18.5-12.32,30.41-11.74a10.11,10.11,0,0,1,7.44,3.09c2.6,2.74,8.18,3.15,11.19.91.72-.54,1.65-1.57,1.57-2.27a30.92,30.92,0,0,0-1.55-7A3.76,3.76,0,0,0,1650,44a52,52,0,0,0-7.55.38,30.29,30.29,0,0,1-3.09.48C1636.94,44.77,1634.54,44.53,1632.14,44.36ZM1799.69,94.5c13.87,0,27.25-2.85,37.36-7.66a4.4,4.4,0,0,0,2.34-2.88c.06-.81-1.36-2-2.39-2.57-3.53-1.77-6.91-.3-10.36.71-6.26,1.83-12.5,3.9-18.9,5-6.77,1.21-13.52.54-19.73-3.12-5.47-3.23-5.78-7.91-3-12.68,3.16-5.48,8.29-9,13.46-12.31,8-5.21,16.58-8.61,26.36-7.48a7.68,7.68,0,0,1,4.55,2c2.8,3.1,6.16,3.59,9.89,3,2.42-.42,4.63-1.81,4.16-5.57-.77-6.24-4-8.56-10.17-7-.72.18-1.4.5-2.13.65a8.74,8.74,0,0,1-2.63.32c-20.65-2.31-37.73,5.13-52.42,19.12a23.51,23.51,0,0,0-6.36,10.87c-1.16,4.11,1.51,9.36,6.38,12.72C1783.91,93,1792.81,94.38,1799.69,94.5Zm169.24-43.07c.88,5.58,1.86,10.74,2.47,15.94s.79,10.21,1.17,15.31c.08,1.07.29,2.13.34,3.2a8.11,8.11,0,0,1-.11,2.69c-.6,2-.52,3.79,1.75,4.37a20.94,20.94,0,0,0,6.8.86c3.59-.31,5.38-2.56,5.2-6.15-.31-6.11-.82-12.2-1.24-18.31,0-.33-.09-.66-.14-1l-2.27-16.92c1.47,0,2.36,0,3.25,0,9.82.21,19.63.51,29.45.57a19,19,0,0,0,6.94-1.29c2.09-.83,2.14-2.88.18-4a10.37,10.37,0,0,0-4.64-1.39c-7.56-.35-15.13-.56-22.7-.72q-26.46-.55-52.92-.94a15.09,15.09,0,0,0-5.51,1.18,3.07,3.07,0,0,0-1.43,2.47,3.55,3.55,0,0,0,1.71,2.24,7.11,7.11,0,0,0,3.07.89c4.64.4,9.28.84,13.93,1C1959.22,51.57,1964.19,51.44,1968.93,51.44Zm242.69,38.71a21.27,21.27,0,0,1,0-2.33c.87-6.25,2.11-12.47,2.55-18.74.5-7.3.22-14.65.46-22a3.32,3.32,0,0,0-2.49-3.7c-3-1-6.08-1.17-8.89.51a3.86,3.86,0,0,0-1.7,2.61c-.39,6.69-.51,13.39-.87,20.08-.33,6-.85,12-1.31,18.06,0,.47-.34.92-.42,1.39-1.09,5.89-1.06,9.5,6.81,10.44a37,37,0,0,0,7,.38c13.11-.93,26.22-1.92,39.32-3.05a59.25,59.25,0,0,0,8.77-1.78c1.32-.32,2.69-.74,2.78-2.62s-1.33-2.69-2.71-3a22.06,22.06,0,0,0-6.39-.38c-8.93,1-17.83,2.25-26.76,3.16C2222.48,89.81,2217.15,89.86,2211.63,90.15Z" transform="translate(-768.5 -0.5)" fill="#a47bbe"/>
    <path d="M2025.28,349.34c-6.82-3.76-13.72-7.18-20.21-11.25-7-4.38-12.79-10.17-16.08-17.9-1.94-4.57-3-9.29-1.88-14.54,2.5-12.07,10.64-19.44,20.26-25.67,13.55-8.77,28.74-13.18,44.46-16a184.81,184.81,0,0,1,49.27-1.91c19.54,1.77,38.45,6,55.75,15.82,8.7,4.92,16.44,10.95,21.07,20.09a25,25,0,0,1,1,21.37c-4,10-12,16.39-20.91,21.71-13.49,8-28.32,12.34-43.67,14.82a181.31,181.31,0,0,1-70.65-2c-3.76-.88-6.38-.39-9,2.13-1.79,1.71-3.83,3.16-6.22,5.12h47.1l.14.5c-2.12,1.08-4.23,2.2-6.38,3.23q-22.26,10.61-44.53,21.2-38.84,18.53-77.66,37.08Q1926.5,433,1906,442.89c-3.44,1.66-4.32,5.46-6.47,8.21-1.62,2.07-.56,3.89.18,5.63a34.44,34.44,0,0,1,2.94,12.3c.1,2.54.85,5.11.58,7.58-.58,5.19-1.85,10.3-2.41,15.48a14.46,14.46,0,0,0,1,6.86c10.67,25.33,26.43,47.37,44.38,68,1.79,2.05,3.64,4,5.35,6.17a4.92,4.92,0,0,0,4.28,1.85q39-.16,78-.21h13.6v7.33c-105.16,1-210.41-.22-315.82-.11v-7.54h3.09q49.12.08,98.24.19a5.49,5.49,0,0,0,4.59-2.13,299.07,299.07,0,0,0,29.56-39.43c5.67-9.13,10.88-18.53,14.52-28.71.84-2.35,2-4.6,2.69-7a11.29,11.29,0,0,0,.08-4.92c-.84-4.32-2.27-8.54-2.85-12.88a102.66,102.66,0,0,1-.83-14.8,27.33,27.33,0,0,1,1.66-8.12c1-3-.64-5.1-2.19-7.08a35.07,35.07,0,0,0-13.41-10.83c-30-13.51-59.85-27.35-89.77-41.05q-38-17.41-76.11-34.77a6.39,6.39,0,0,1-2.33-1.66h2.73q153,0,306,0a8,8,0,0,0,5.57-2C2016.92,355.76,2021.25,352.51,2025.28,349.34Zm12.94,19.8-.12-.35H1736.64c1.25.64,1.92,1,2.61,1.33q13.57,6.25,27.15,12.48l75.29,34.46q23.82,10.9,47.68,21.71a4.24,4.24,0,0,0,3.14,0q15.8-7.34,31.5-14.87,34.75-16.6,69.48-33.25Q2015.86,379.9,2038.21,369.15ZM1893.11,514a198,198,0,0,1-18.53,31.64c-7.11,9.68-14.43,19.22-21.76,29h83.54C1919.74,556,1904.91,536.35,1893.11,514ZM2063.18,270c-5.3,1.06-10.38,1.87-15.36,3.1-13.1,3.23-25.53,8-35.85,17.06-5.62,4.95-9.43,11-10.33,18.92l73.38-2.67ZM2096,310.73c14.52,7.5,28.45,14.72,42.41,21.87,2.61,1.34,5.51,3.55,8,3.24,2.69-.33,5.16-3,7.56-4.93,5.45-4.27,9.82-9.6,11.28-16.38,1.56-7.3-.43-14.09-5.4-19.92a2.83,2.83,0,0,0-3.5-1.07c-10.08,2.92-20.19,5.73-30.28,8.6C2116.24,304.94,2106.4,307.76,2096,310.73Zm55.22-24.37c-22.68-14.31-47.18-17.81-73.16-17.44l11.41,35Zm-91.11,62.74c25.67,3.49,50.38,1.86,75-7.3-5.29-2.71-9.93-5.06-14.54-7.45q-16.26-8.42-32.5-16.87c-1.27-.66-2-.53-3,.76-3.32,4.3-6.92,8.38-10.34,12.6C2070,336.76,2065.23,342.73,2060.12,349.1Zm12-35.09-69,2.52c1.4,5.1,4.42,8.79,7.89,12.06,9.33,8.79,20.8,13.53,32.9,17a2.92,2.92,0,0,0,3.68-1.14c6.17-7.69,12.48-15.26,18.71-22.91C2068.2,319.21,2070,316.76,2072.1,314Z" transform="translate(-768.5 -0.5)" fill="#030203"/>
    <path d="M1847.35,151.18c4.66,1.7,9.08,3.25,13.45,4.94a10.45,10.45,0,0,1,3,2c2.55,2.27,2.57,5,0,7.29-3.73,3.46-8.43,5.05-13.15,6.46-10.28,3.05-20.89,3.82-31.53,4.16-5,.16-10,.14-14.93-.05a9.2,9.2,0,0,1-4.05-1.62,3.33,3.33,0,0,1-1.6-2.19c-.06-5.74-.14-11.49.22-17.22.33-5.32,1.23-10.6,1.79-15.91.4-3.85.68-7.71.95-11.57a3.26,3.26,0,0,1,3-3.35c14.86-1.81,29.68-2.67,44,3.26a35.2,35.2,0,0,1,6.44,3.51c6.1,4.2,5.71,9.86,1.09,14.81a19.84,19.84,0,0,1-4.05,3.07C1850.48,149.71,1848.9,150.39,1847.35,151.18Zm-34.1-2.63c3.2,0,5.93,0,8.66,0,6.92-.11,13.76-.78,19.83-4.48a8.89,8.89,0,0,0,3.68-4.15c1.11-3.18-.32-4.88-4.61-6.82-8.38-3.8-17.19-3.64-26-3.06Zm-1.89,20.67c2.86,0,5.25.1,7.62,0,9-.46,17.93-.91,26.52-3.81a74.64,74.64,0,0,0,7.18-3.27l-.17-1.05c-12.82-5.23-26.32-5.87-40.34-5.48Z" transform="translate(-768.5 -0.5)" fill="#030204"/>
    <path d="M1708.68,95.5c-11.19.1-22.22-1.06-32.49-5.93a31.06,31.06,0,0,1-7.46-4.58c-6.35-5.68-6.68-11.88-2.61-19.35,4.59-8.42,12.33-13.15,20.79-16.79,11.83-5.09,24.32-5.61,36.94-4.87,8.81.51,17.6,1.3,25.5,5.64,7.73,4.25,10.22,10.41,8.93,18.43-1.07,6.63-5.24,11.61-10.39,15.8-9.26,7.53-20.1,10.68-31.74,11.63C1713.68,95.67,1711.17,95.5,1708.68,95.5ZM1719.74,50c-6.26.73-11.82.87-17.11,2.09-9.89,2.29-18.51,6.93-23.58,16.27-1.73,3.18-2.79,6.93-.45,10.26a15.21,15.21,0,0,0,5.48,4.93,53.37,53.37,0,0,0,41.84,2.34c8.14-2.82,15.06-7.65,17.91-16.52,2.07-6.47.46-13.31-6.11-15.45C1731.71,52,1725.33,51.18,1719.74,50Z" transform="translate(-768.5 -0.5)" fill="#030204"/>
    <path d="M2019.82,157.84c4.36,1.36,8.11,2.32,11.69,3.7,5.52,2.14,10.95,4.5,16.34,6.93a20.87,20.87,0,0,1,3.73,2.78c-2.22,3.69-6.62,4.91-11.17,3.12-4.36-1.72-8.56-3.87-12.92-5.59a154.09,154.09,0,0,0-34.07-8.94,16.82,16.82,0,0,0-2,0,26.79,26.79,0,0,1,.77,3.79c.16,2.91.24,5.83.18,8.74a3.12,3.12,0,0,1-1.12,2c-2.42,2-8.79,2.07-11.34.12a3.52,3.52,0,0,1-1.34-2.15,128.68,128.68,0,0,1-.94-14.31c.08-3.72,1.34-7.4,1.61-11.14.29-3.94,2.09-7.74.54-11.92a12.69,12.69,0,0,1-.19-7.14,5.44,5.44,0,0,1,3.79-3.16,76.2,76.2,0,0,1,11.65-.43c10.41.18,20.76.85,30.71,4.37,5.59,2,11.34,3.7,15.82,7.77a18,18,0,0,1,4.48,6.37c1.16,2.89-.85,5.24-3,6.91-4.3,3.36-9.45,5-14.66,6.3C2025.81,156.63,2023.16,157.12,2019.82,157.84Zm-26-26.58-1.16,20.58a.86.86,0,0,0,.45.13c8.21-.36,16.45-.49,24.63-1.19a27.39,27.39,0,0,0,13.17-4.68c1.87-1.28,2.39-2.92.65-4.39a34.15,34.15,0,0,0-7.5-5.18C2014.46,132.1,2004.15,131.22,1993.85,131.25Z" transform="translate(-768.5 -0.5)" fill="#030204"/>
    <path d="M1882.17,71.52c6.79,3.25,13.27,6.42,19.82,9.46,6.89,3.2,13.73,6.54,21.38,7.65,1.71.25,3.85,1.09,3.72,3-.16,2.29-2.44,3.49-4.52,3.29a84.31,84.31,0,0,1-14.17-2.21c-10.3-2.81-19.52-8.21-29-12.94-2.1-1-4.23-2-6.81-3.28,0,5.56,0,10.6,0,15.64,0,4.26-1,5.24-5.38,5.31-4.07.06-7.14-1.46-8.13-4.3a10,10,0,0,1-.33-3.66c.22-4.94.59-9.88.8-14.82.38-9.1.6-18.22,1.12-27.31A4.8,4.8,0,0,1,1863,44a10.3,10.3,0,0,1,8.91-.09c2.64,1.1,2.5,3.41,2.34,5.64-.27,3.69-.61,7.38-1,11.06-.17,1.69-.48,3.36-.84,5.81,2.67-1.28,4.9-2.19,7-3.36q15.61-8.79,31.14-17.71a11.7,11.7,0,0,1,10.53-.79c2.83,1.1,3.16,2.86.63,4.52-5.86,3.84-11.82,7.54-17.92,11C1896.81,64,1889.64,67.59,1882.17,71.52Z" transform="translate(-768.5 -0.5)" fill="#030204"/>
    <path d="M2102.48,94.75c-5.52-.06-8.56-3.33-10.87-7.3a50,50,0,0,1-4-9,2,2,0,0,0-2.53-1.62c-8.36.8-16.71,2-25.08,2.3-5.54.22-9.5,2.14-12.62,6.65-1.58,2.29-3.84,4.12-5.81,6.14-2.93,3-8.58,3.54-12.13,1.28-1.86-1.18-1.68-2.56-.49-4,2.53-3,5.18-5.89,7.7-8.9.43-.51.84-1.62.59-2a2,2,0,0,1,1.24-3.26c7.49-1.68,11.5-8.11,17.16-12.27,7.38-5.42,14.59-11.06,22.07-16.34,4-2.84,9.87-1.7,11.55,1.95,1.25,2.7,2.09,5.59,3.19,8.37,1.77,4.49,3.57,9,5.43,13.44,1.36,3.25,2.68,6.53,4.31,9.64,1.56,3,3.48,5.73,5.28,8.56,2.06,3.21,1.34,5.11-2.4,6A21.36,21.36,0,0,1,2102.48,94.75Zm-42-22.78,23-2.33a6,6,0,0,0-.12-1.51c-1.33-3.27-2.66-6.54-4.13-9.75-.12-.26-1.44-.33-1.87,0-1.91,1.34-3.72,2.82-5.54,4.29C2068.22,65.65,2064.56,68.67,2060.52,72Z" transform="translate(-768.5 -0.5)" fill="#030203"/>
    <path d="M1889.49,160.24c-1.23-2.39-.94-4.2,1.33-4.54,5.71-.84,8.65-5.46,12.7-8.55,8.3-6.32,16.52-12.73,24.88-19a10.49,10.49,0,0,1,5.15-2.15c5.76-.42,7,1.88,8.91,6.8,3.08,7.86,6.37,15.64,9.43,23.52a65.62,65.62,0,0,0,7.86,14c1.48,2.1,1.06,3.34-1.17,4.44-4.82,2.39-10.63.67-14-4.69-2.08-3.29-3.34-7.08-5.16-10.55a3.31,3.31,0,0,0-2.41-1.67q-15.42,1.32-30.8,3a5.83,5.83,0,0,0-3.22,1.75c-3.35,3.47-6.49,7.15-9.83,10.64-2.61,2.72-9,3-12.06.79-1.9-1.36-1.28-2.76-.15-4.06,2.66-3.1,5.42-6.12,8.13-9.17A5.94,5.94,0,0,0,1889.49,160.24Zm41-22L1912.33,153l23.54-2.39Z" transform="translate(-768.5 -0.5)" fill="#030203"/>
    <path d="M2145.56,87.38c.19-12.21-1.83-24,1.41-35.9-5.53,0-10.49.06-15.45,0a20.29,20.29,0,0,1-5.88-.73c-1.12-.37-1.91-1.76-2.85-2.7,1-1,1.83-2.42,3-2.84a16.47,16.47,0,0,1,5.66-.67q24.58.45,49.16,1.06a12.15,12.15,0,0,1,4.65.7c1.24.57,2.11,1.95,3.14,3-1,.94-1.88,2.37-3.06,2.71a21.21,21.21,0,0,1-6.4.59c-6.07-.21-12.13-.61-18.3-.95-3.09,11.55-1,23.28-1.26,35.22h5.73c5.08,0,10.16-.15,15.23,0a9.21,9.21,0,0,1,4.38,1.37c2.06,1.27,2,3-.18,4a14.6,14.6,0,0,1-5.68,1.33c-9.82.26-19.64.26-29.45.49-5.24.13-10.47.7-15.7.78a29,29,0,0,1-7.29-1,3,3,0,0,1-1.82-2.19,3.43,3.43,0,0,1,1.82-2.46,17.79,17.79,0,0,1,5.28-1.1C2136.2,87.72,2140.68,87.6,2145.56,87.38Z" transform="translate(-768.5 -0.5)" fill="#040305"/>
    <path d="M1632.14,44.36c2.4.17,4.81.41,7.22.47a30.29,30.29,0,0,0,3.09-.48A52,52,0,0,1,1650,44a3.76,3.76,0,0,1,2.62,2.12,30.92,30.92,0,0,1,1.55,7c.08.7-.85,1.73-1.57,2.27-3,2.24-8.59,1.83-11.19-.91a10.11,10.11,0,0,0-7.44-3.09c-11.92-.58-21.39,5-30.41,11.74-3.49,2.61-6.59,5.61-8.37,9.81s-.87,8,2.79,10.5c6.36,4.29,13.55,5,20.76,3.7,6.4-1.14,12.63-3.25,18.89-5.08,3.45-1,6.86-2.37,10.37-.65a4.39,4.39,0,0,1,2.33,2.64c.11.77-1.07,2.18-2,2.58-16.29,7.08-33.1,10.44-50.67,5.8a38.56,38.56,0,0,1-11.39-5.57c-7-4.72-7.33-11.21-3.12-18,4.6-7.4,11.65-12,18.93-16.25A57,57,0,0,1,1632.14,44.36Z" transform="translate(-768.5 -0.5)" fill="#030204"/>
    <path d="M1799.69,94.5c-6.88-.12-15.78-1.55-23.61-7-4.87-3.36-7.54-8.61-6.38-12.72A23.51,23.51,0,0,1,1776.07,64c14.69-14,31.77-21.43,52.42-19.12a8.74,8.74,0,0,0,2.63-.32c.72-.15,1.41-.47,2.13-.65,6.15-1.52,9.4.81,10.17,7,.47,3.76-1.74,5.16-4.16,5.57-3.74.64-7.09.15-9.89-3a7.68,7.68,0,0,0-4.55-2c-9.78-1.13-18.34,2.28-26.36,7.48-5.17,3.36-10.3,6.83-13.46,12.31-2.75,4.77-2.44,9.45,3,12.68,6.2,3.66,13,4.32,19.73,3.12,6.4-1.14,12.64-3.21,18.9-5,3.44-1,6.83-2.48,10.36-.71,1,.52,2.45,1.76,2.39,2.57a4.4,4.4,0,0,1-2.34,2.88C1826.94,91.65,1813.56,94.5,1799.69,94.5Z" transform="translate(-768.5 -0.5)" fill="#030204"/>
    <path d="M1968.93,51.44c-4.74,0-9.71.13-14.68,0-4.65-.16-9.29-.59-13.93-1a7.11,7.11,0,0,1-3.07-.89,3.55,3.55,0,0,1-1.71-2.24,3.07,3.07,0,0,1,1.43-2.47,15.09,15.09,0,0,1,5.51-1.18q26.46.36,52.92.94c7.57.16,15.14.37,22.7.72a10.37,10.37,0,0,1,4.64,1.39c2,1.16,1.91,3.22-.18,4a19,19,0,0,1-6.94,1.29c-9.82-.06-19.63-.36-29.45-.57-.89,0-1.78,0-3.25,0l2.27,16.92c0,.33.11.65.14,1,.43,6.1.94,12.2,1.24,18.31.18,3.59-1.61,5.84-5.2,6.15a20.94,20.94,0,0,1-6.8-.86c-2.27-.58-2.36-2.37-1.75-4.37a8.11,8.11,0,0,0,.11-2.69c-.05-1.07-.26-2.13-.34-3.2-.39-5.1-.58-10.23-1.17-15.31S1969.81,57,1968.93,51.44Z" transform="translate(-768.5 -0.5)" fill="#040304"/>
    <path d="M2211.63,90.15c5.53-.28,10.85-.34,16.13-.88,8.94-.91,17.83-2.19,26.76-3.16a22.06,22.06,0,0,1,6.39.38c1.38.26,2.8,1,2.71,3s-1.46,2.3-2.78,2.62a59.25,59.25,0,0,1-8.77,1.78c-13.1,1.13-26.2,2.12-39.32,3.05a37,37,0,0,1-7-.38c-7.87-.95-7.9-4.55-6.81-10.44.09-.47.39-.92.42-1.39.46-6,1-12,1.31-18.06.36-6.69.48-13.4.87-20.08a3.86,3.86,0,0,1,1.7-2.61c2.81-1.69,5.88-1.52,8.89-.51a3.32,3.32,0,0,1,2.49,3.7c-.24,7.32,0,14.67-.46,22-.43,6.28-1.68,12.49-2.55,18.74A21.27,21.27,0,0,0,2211.63,90.15Z" transform="translate(-768.5 -0.5)" fill="#030204"/>
    <path d="M2038.21,369.15q-22.36,10.74-44.72,21.47-34.73,16.64-69.48,33.25-15.72,7.51-31.5,14.87a4.24,4.24,0,0,1-3.14,0q-23.88-10.77-47.68-21.71l-75.29-34.46q-13.59-6.22-27.15-12.48c-.69-.32-1.36-.69-2.61-1.33h301.45Z" transform="translate(-768.5 -0.5)" fill="#fc071c"/>
    <path d="M1893.11,514c11.8,22.33,26.64,42,43.25,60.59h-83.54c7.33-9.74,14.64-19.27,21.76-29A198,198,0,0,0,1893.11,514Z" transform="translate(-768.5 -0.5)" fill="#a37abd"/>
    <path d="M2063.18,270,2075,306.37,2001.65,309c.9-7.93,4.7-14,10.33-18.92,10.31-9.08,22.75-13.83,35.85-17.06C2052.8,271.83,2057.88,271,2063.18,270Z" transform="translate(-768.5 -0.5)" fill="#fcfc00"/>
    <path d="M2096,310.73c10.39-3,20.23-5.78,30.08-8.58,10.09-2.87,20.2-5.68,30.28-8.6a2.83,2.83,0,0,1,3.5,1.07c5,5.83,7,12.62,5.4,19.92-1.45,6.79-5.83,12.11-11.28,16.38-2.4,1.88-4.87,4.6-7.56,4.93-2.5.31-5.4-1.91-8-3.24C2124.46,325.45,2110.53,318.22,2096,310.73Z" transform="translate(-768.5 -0.5)" fill="#fcfc00"/>
    <path d="M2151.23,286.35l-61.76,17.52-11.41-35C2104.06,268.55,2128.56,272,2151.23,286.35Z" transform="translate(-768.5 -0.5)" fill="#fbfb00"/>
    <path d="M2060.12,349.1c5.11-6.37,9.86-12.34,14.67-18.26,3.42-4.22,7-8.3,10.34-12.6,1-1.29,1.74-1.42,3-.76q16.24,8.45,32.5,16.87c4.61,2.39,9.24,4.74,14.54,7.45C2110.5,351,2085.79,352.59,2060.12,349.1Z" transform="translate(-768.5 -0.5)" fill="#fbfb00"/>
    <path d="M2072.1,314c-2.11,2.75-3.9,5.2-5.82,7.56-6.22,7.65-12.54,15.22-18.71,22.91a2.92,2.92,0,0,1-3.68,1.14c-12.1-3.51-23.57-8.24-32.9-17-3.47-3.27-6.49-7-7.89-12.06Z" transform="translate(-768.5 -0.5)" fill="#fbfb00"/>
    <path d="M1813.25,148.56,1814.8,130c8.81-.58,17.62-.74,26,3.06,4.29,1.94,5.72,3.64,4.61,6.82a8.89,8.89,0,0,1-3.68,4.15c-6.06,3.7-12.91,4.36-19.83,4.48C1819.18,148.6,1816.45,148.56,1813.25,148.56Z" transform="translate(-768.5 -0.5)" fill="#a37bbd"/>
    <path d="M1811.36,169.23l.82-13.63c14-.39,27.52.25,40.34,5.48l.17,1.05a74.64,74.64,0,0,1-7.18,3.27c-8.59,2.9-17.57,3.35-26.52,3.81C1816.61,169.33,1814.22,169.23,1811.36,169.23Z" transform="translate(-768.5 -0.5)" fill="#a279bb"/>
    <path d="M1719.74,50c5.59,1.17,12,2,18,3.91,6.57,2.14,8.18,9,6.11,15.45-2.84,8.87-9.77,13.71-17.91,16.52a53.37,53.37,0,0,1-41.84-2.34,15.21,15.21,0,0,1-5.48-4.93c-2.34-3.34-1.28-7.08.45-10.26,5.07-9.33,13.69-14,23.58-16.27C1707.92,50.87,1713.47,50.73,1719.74,50Z" transform="translate(-768.5 -0.5)" fill="#a37bbd"/>
    <path d="M1993.85,131.25c10.3,0,20.61.85,30.23,5.27a34.15,34.15,0,0,1,7.5,5.18c1.74,1.47,1.22,3.11-.65,4.39a27.39,27.39,0,0,1-13.17,4.68c-8.18.71-16.42.84-24.63,1.19a.86.86,0,0,1-.45-.13Z" transform="translate(-768.5 -0.5)" fill="#a37abc"/>
    <path d="M2060.52,72c4-3.31,7.7-6.32,11.38-9.31,1.81-1.47,3.62-3,5.54-4.29.44-.31,1.76-.24,1.87,0,1.47,3.21,2.8,6.48,4.13,9.75a6,6,0,0,1,.12,1.51Z" transform="translate(-768.5 -0.5)" fill="#a078b9"/>
    <path d="M1930.51,138.23l5.36,12.37L1912.33,153Z" transform="translate(-768.5 -0.5)" fill="#a078b9"/>
 </g>
  </g>
  <g id="tur3">
    <g>
    <path d="M2304.5.5h768q0,341.5,0,683h-768Q2304.5,342,2304.5.5Zm760.06,679.06V4.44H2312.44V679.56Z" transform="translate(-768.5 -0.5)" fill="#0a070c"/>
    <path d="M3064.56,679.56H2312.44V4.44h752.11Zm-586-412.44c3.95.77,7.46,1.31,10.88,2.19,2.3.59,3.6.11,5.12-1.85,17.86-22.95,35.86-45.78,53.76-68.7a3.87,3.87,0,0,1,3.46-1.69q25.75.05,51.49,0c.7,0,1.41.08,2.69.16l-54.69,69.87c4.33.85,8.31,1.57,12.27,2.43a2.59,2.59,0,0,0,3-1.24c4.76-6.2,9.66-12.29,14.49-18.44,13.08-16.65,26.21-33.27,39.14-50a6,6,0,0,1,5.44-2.78q111.36.08,222.73,0a5.24,5.24,0,0,1,1.74,0,5.47,5.47,0,0,1,2.38,1.33c6.74,8.52,13.4,17.11,20.11,25.66q17.39,22.15,34.85,44.25c.47.6,1.44,1.32,2.06,1.22,4.31-.7,8.58-1.59,13.08-2.46L2868,197.4a9,9,0,0,1,1.28-.29c13.17,0,26.33,0,39.5,0a5.24,5.24,0,0,1,2.8,1.19q42,31.49,83.94,63c.68.51,1.7,1.19,2.34,1,3.92-1.13,7.78-2.48,11.92-3.85-.51-.44-.68-.61-.87-.75q-42.46-31.95-85-63.86a5.35,5.35,0,0,1-2.46-4.84q.12-51.24,0-102.49a5.27,5.27,0,0,0-1.33-3.61q-31.07-27-62.26-53.81a6.2,6.2,0,0,0-4.4-1.63q-188.86.05-377.71.1a6.92,6.92,0,0,0-4.16,1.55Q2440.47,56,2409.36,82.93a4.61,4.61,0,0,0-1.83,3.9c.05,33-.06,66,.15,99,0,4.26-1.28,6.74-4.63,9.23-25.83,19.18-51.51,38.56-77.23,57.89-2.28,1.71-4.49,3.52-7.12,5.59,3.54,1.17,6.63,2,9.59,3.24a4.66,4.66,0,0,0,5.14-.74q41.22-31.14,82.55-62.12a9.34,9.34,0,0,1,5.15-1.74c12.25-.15,24.5-.08,36.75-.08h2.8l-54.8,70c4.45.89,8.19,1.59,11.92,2.4a3.21,3.21,0,0,0,3.69-1.49c2.4-3.28,4.91-6.49,7.42-9.69q23.22-29.58,46.4-59.18a4.77,4.77,0,0,1,4.28-2.11c16.83.05,33.66,0,50.49,0,.8,0,1.59.07,3.19.15ZM2828.52,626c3.92.67,7.61,1.25,11.27,1.95,2.27.44,3.55-.18,4.87-2.31,9.54-15.33,19.26-30.54,29-45.73a6.8,6.8,0,0,1,3-2.11c3.75-1.65,7.61-3,11.32-4.78,1.5-.7,2.06-.47,2.48,1,1,3.59,2,7.19,3.24,10.74,2.51,7.5,5.2,14.94,7.67,22.45,2.18,6.61,4.13,13.3,6.28,19.93.21.64,1.11,1.53,1.65,1.5,4.54-.24,9.07-.67,13.79-1.05-1.39-4.5-2.62-8.6-3.94-12.68-1.52-4.69-3.13-9.34-4.67-14-1.47-4.47-2.86-9-4.33-13.45-1.53-4.67-3.13-9.32-4.68-14s-3-9.07-4.52-13.62c-.85-2.61-2.07-5.22-2.28-7.9a21,21,0,0,0-7-14.69c-3-2.64-6.49-4.69-9.6-6.89,27-12.22,39.09-36.64,35.13-61-4.09-25.13-20.81-39.81-44.24-47.62a1.58,1.58,0,0,1,.29-.31c1.09-.72,2.21-1.4,3.27-2.14,9.23-6.45,14.71-14.9,15.13-26.51.36-9.82-2.83-18.09-9.91-24.63-13.16-12.18-28.65-14-45.26-9-15.08,4.57-28.37,20.39-24.13,39.1a31.82,31.82,0,0,0,8.69,16.09c2.83,2.78,6.14,5.07,9.23,7.57-.51.18-1.13.41-1.75.61-13.81,4.62-25.26,12.45-33.52,24.61a53.24,53.24,0,0,0-9.4,28.68,81,81,0,0,0,.8,10.34,45.42,45.42,0,0,0,6.71,19c9.94,16.61,24.91,25.9,43.54,29.8,3.22.67,6.5,1,10.1,1.57-6.74,7-9.18,15-6.22,24.11s10,14,18.92,16.7Zm-340-220.57a67,67,0,0,0-21.67,10.9c-15.21,11.73-23.06,27.21-23,46.46,0,3.56,1,7.14,1.62,10.68a47.79,47.79,0,0,0,8.67,19.41c10.84,15,25.82,23.09,43.8,26.13,2.21.37,4.45.63,7.13,1-6.82,7.32-9.42,15.41-6.22,24.41,3.1,8.73,10,13.8,18.94,16.42l-30.94,48.65c4.5.73,8.43,1.31,12.33,2,1.63.3,2.51-.3,3.35-1.64q14.61-23.22,29.37-46.35a7.82,7.82,0,0,1,3.42-2.34c3.51-1.57,7.09-3,10.64-4.45.72-.3,1.43-.63,2.14-1l18.57,56.48,14.92-1.27c-.43-1.19-.76-2-1-2.85-1.23-3.69-2.46-7.38-3.66-11.08-1.47-4.53-2.92-9.07-4.37-13.6-1.11-3.48-2.2-7-3.34-10.43-1.54-4.69-3.11-9.36-4.67-14-1.18-3.51-2.45-7-3.54-10.54-1.3-4.19-2.68-8.38-3.6-12.66-1.08-5-2.18-10.13-6-13.8-3.22-3.1-7-5.57-10.61-8.34,23.17-11.66,37.6-30.1,35.16-57.27-2.41-26.88-19.72-42.71-44.66-51.25.56-.4.86-.65,1.19-.86,12.91-8.06,19.59-19.16,17.17-34.82A30.82,30.82,0,0,0,2538,349.7c-12-9.69-25.81-11.55-40.51-7.94-15.29,3.75-30.35,18.27-27.12,38.36a30.72,30.72,0,0,0,8.75,17.4C2482,400.34,2485.26,402.71,2488.53,405.44Zm161.7,189.26c4.69.78,9,1.57,13.34,2.14.58.08,1.52-.77,1.94-1.42q15-23.48,30-47a4.39,4.39,0,0,1,1.86-1.76c4.64-1.75,9.33-3.38,14.24-5.13.58,1.89,1.29,4.39,2.12,6.84,1.86,5.49,3.84,10.94,5.66,16.45,1.53,4.62,2.84,9.31,4.35,13.94q2.8,8.63,5.79,17.2c.21.59,1,1.41,1.55,1.38,4.45-.26,8.89-.69,13.7-1.1-1-3.16-1.77-6-2.7-8.87-1.82-5.5-3.74-11-5.56-16.47-1.53-4.63-3-9.29-4.47-13.92s-3.06-9.35-4.6-14-3-9-4.52-13.58c-.86-2.62-2.15-5.24-2.35-7.92-.64-8.41-4.69-14.59-11.51-19.15-1.76-1.18-3.72-2.07-5.68-3.14,20.72-10.13,34.7-25.53,35.87-48.94,1.57-31.62-16.72-49.66-44.57-60a11.27,11.27,0,0,1,1-.63c12.6-6.81,20.85-21.34,16.94-37a32.23,32.23,0,0,0-10.7-17.27c-10.88-9.21-23.65-11.64-37.23-9.12-16,3-27.34,11.87-30.85,28.31a30,30,0,0,0,5.32,24.23,39.93,39.93,0,0,0,13.16,11.56,3.15,3.15,0,0,1-.52.36c-.62.23-1.24.45-1.86.67-13.44,4.6-24.63,12.24-32.86,24a51.39,51.39,0,0,0-9.26,23.67c-.66,5.75.09,11.73.69,17.55.75,7.18,3.79,13.59,7.73,19.59,9.37,14.26,22.73,22.75,39.06,26.82,4.29,1.07,8.71,1.59,13.07,2.36-6.34,6.85-9,14.56-6.09,23.77s9.81,13.9,18.86,17Zm76.34-364.35c0,1.51,0,2.4,0,3.3,0,8.58.09,17.16-.06,25.73,0,2.3.78,2.84,2.86,2.76,3.41-.13,6.84-.17,10.24,0,2.37.13,2.9-.78,2.87-3-.12-8.49-.05-17,0-25.49,0-.87.09-1.73.15-2.91,1.17.67,2,1.09,2.85,1.63q24.4,16.21,48.79,32.41a2.72,2.72,0,0,0,2,.53c3.72-1.32,7.39-2.78,11.26-4.27-.45-.35-.67-.56-.92-.72l-39.06-26c-8.34-5.54-16.66-11.1-25.05-16.57a6.89,6.89,0,0,0-3.34-.83c-3.17-.14-6.34-.13-9.51-.12a4.47,4.47,0,0,0-2.22.39c-2.93,1.8-5.81,3.69-8.67,5.59q-22.22,14.8-44.43,29.63l-13,8.68c3.94,1.44,7.41,2.78,10.93,4a3.21,3.21,0,0,0,2.44-.26q13.5-8.79,26.9-17.73C2709.66,241.62,2717.82,236.17,2726.57,230.35ZM2665,313c3.89,1.44,7.11,2.74,10.41,3.77a4.41,4.41,0,0,0,3.31-.3c13.59-8.9,27.11-17.92,40.65-26.9,3.57-2.37,7.16-4.73,11.2-7.4v31.74h15.07V282.35c1.36.72,2.4,1.17,3.32,1.78q24.48,16.26,48.94,32.55c.5.33,1.27.72,1.74.56,3.85-1.32,7.66-2.77,11.73-4.27-1.61-1.11-2.81-2-4-2.77q-17.84-11.82-35.69-23.63c-8.54-5.67-17-11.4-25.61-17a4.31,4.31,0,0,0-3.16-.82,13.87,13.87,0,0,1-9.47,0,3.63,3.63,0,0,0-2.53.38,43.53,43.53,0,0,0-3.67,2.48l-50.63,33.6C2672.89,307.69,2669.18,310.19,2665,313Z" transform="translate(-768.5 -0.5)" fill="#a47bbe"/>
    <path d="M2478.6,267.12l54.68-69.87c-1.6-.08-2.39-.15-3.19-.15-16.83,0-33.66,0-50.49,0a4.77,4.77,0,0,0-4.28,2.11q-23.11,29.66-46.4,59.18c-2.51,3.2-5,6.4-7.42,9.69a3.21,3.21,0,0,1-3.69,1.49c-3.72-.82-7.47-1.51-11.92-2.4l54.8-70h-2.8c-12.25,0-24.5-.07-36.75.08a9.34,9.34,0,0,0-5.15,1.74q-41.35,31-82.55,62.12a4.66,4.66,0,0,1-5.14.74c-3-1.2-6-2.06-9.59-3.24,2.63-2.07,4.84-3.88,7.12-5.59,25.72-19.33,51.4-38.71,77.23-57.89,3.35-2.49,4.66-5,4.63-9.23-.21-33-.1-66-.15-99a4.61,4.61,0,0,1,1.83-3.9q31.18-26.85,62.31-53.75a6.92,6.92,0,0,1,4.16-1.55q188.86-.1,377.71-.1a6.2,6.2,0,0,1,4.4,1.63q31.12,26.92,62.26,53.81a5.27,5.27,0,0,1,1.33,3.61q.1,51.24,0,102.49a5.35,5.35,0,0,0,2.46,4.84q42.52,31.87,85,63.86c.19.14.35.3.87.75-4.14,1.37-8,2.72-11.92,3.85-.64.18-1.66-.5-2.34-1q-42-31.5-83.94-63a5.24,5.24,0,0,0-2.8-1.19c-13.16-.07-26.33,0-39.5,0a9,9,0,0,0-1.28.29l54.57,69.72c-4.5.87-8.77,1.77-13.08,2.46-.61.1-1.58-.62-2.06-1.22q-17.47-22.09-34.85-44.25c-6.71-8.55-13.36-17.14-20.11-25.66a5.47,5.47,0,0,0-2.38-1.33,5.24,5.24,0,0,0-1.74,0q-111.36,0-222.73,0a6,6,0,0,0-5.44,2.78c-12.93,16.77-26.06,33.39-39.14,50-4.83,6.15-9.73,12.24-14.49,18.44a2.59,2.59,0,0,1-3,1.24c-4-.86-7.94-1.58-12.27-2.43L2606,197.25c-1.28-.08-2-.16-2.69-.16q-25.75,0-51.49,0a3.87,3.87,0,0,0-3.46,1.69c-17.89,22.92-35.9,45.76-53.76,68.7-1.52,2-2.83,2.44-5.12,1.85C2486.06,268.43,2482.54,267.89,2478.6,267.12Zm130.92-147.79h255v70.06h41.86V89.31H2422.7V189.37h186.81Zm-180.74-38h471.69c-.11-.37-.11-.57-.21-.66q-25.39-21.9-50.8-43.8a6.54,6.54,0,0,0-4.57-1.86q-180,.08-360,.12a7.31,7.31,0,0,0-4.37,1.61c-13.71,11.66-27.33,23.43-41,35.19C2436,75,2432.55,78.06,2428.77,81.36Zm301,107.62c-.36-3.53-.87-6.95-1-10.38-.42-9.7-.74-19.4-1-29.1-.19-6.66-.25-13.32-.33-20,0-2-.71-3-2.93-3q-48.62.08-97.24,0a23,23,0,0,0-2.5.26v62.5h224.55V126.79H2742.59a2.74,2.74,0,0,0-.2.73c.28,7.2.62,14.4.85,21.61.17,5.33.17,10.65.27,16,.05,2.91.08,5.83.24,8.73.27,5,.64,10,1,15.12Z" transform="translate(-768.5 -0.5)" fill="#020203"/>
    <path d="M2828.52,626l30.94-48.63c-8.92-2.72-16-7.61-18.92-16.7s-.52-17.08,6.22-24.11c-3.6-.55-6.89-.89-10.1-1.57-18.62-3.9-33.6-13.19-43.54-29.8a45.42,45.42,0,0,1-6.71-19,81,81,0,0,1-.8-10.34,53.24,53.24,0,0,1,9.4-28.68c8.26-12.16,19.71-20,33.52-24.61.62-.21,1.24-.43,1.75-.61-3.09-2.5-6.4-4.79-9.23-7.57a31.82,31.82,0,0,1-8.69-16.09c-4.24-18.72,9.05-34.53,24.13-39.1,16.61-5,32.1-3.17,45.26,9,7.08,6.55,10.27,14.82,9.91,24.63-.42,11.62-5.91,20.07-15.13,26.51-1.07.75-2.19,1.42-3.27,2.14a1.58,1.58,0,0,0-.29.31c23.43,7.81,40.15,22.49,44.24,47.62,4,24.33-8.09,48.75-35.13,61,3.11,2.2,6.62,4.25,9.6,6.89a21,21,0,0,1,7,14.69c.21,2.68,1.43,5.29,2.28,7.9,1.47,4.55,3,9.08,4.52,13.62s3.15,9.31,4.68,14c1.47,4.47,2.86,9,4.33,13.45,1.53,4.68,3.15,9.33,4.67,14,1.32,4.08,2.55,8.19,3.94,12.68-4.73.39-9.25.81-13.79,1.05-.54,0-1.45-.86-1.65-1.5-2.15-6.62-4.11-13.31-6.28-19.93-2.47-7.51-5.16-15-7.67-22.45-1.19-3.54-2.19-7.15-3.24-10.74-.43-1.46-1-1.7-2.48-1-3.71,1.74-7.57,3.13-11.32,4.78a6.8,6.8,0,0,0-3,2.11c-9.75,15.19-19.48,30.4-29,45.73-1.33,2.13-2.61,2.75-4.87,2.31C2836.13,627.25,2832.44,626.67,2828.52,626Zm-28-148.09c.39,27.39,23,51,51.25,51,27.48,0,51.07-22.67,51.15-51.07.08-27.94-23.14-51.35-51.29-51.31C2823.9,426.59,2800.71,449.89,2800.5,477.91Zm72.84-72.23c1.2-3.33,2.65-5.91,3-8.63,1-7.8.14-15.3-4.85-21.86-5.14-6.75-11.69-11.34-20.32-10.92-14.41.7-23.48,13.24-24.54,25.18a26.23,26.23,0,0,0,5.89,19.1c6,7.54,13.56,11.82,23.55,9.89a20.83,20.83,0,0,0,10.84-5.7l-11.82-6.35a33.77,33.77,0,0,0,4.33-2.09C2864.11,401.07,2868.61,400.87,2873.34,405.68Zm10.22,147.5c.52-4.24-1.46-8-4.18-11.47-5.49-6.91-13.71-7.35-19.76-1a18.23,18.23,0,0,0,1.47,26.92c5.51,4.54,11.15,4.42,16.42-.4C2881.51,563.59,2883.83,559.14,2883.56,553.18Z" transform="translate(-768.5 -0.5)" fill="#040304"/>
    <path d="M2488.53,405.44c-3.27-2.73-6.56-5.1-9.4-7.92a30.72,30.72,0,0,1-8.75-17.4c-3.23-20.09,11.83-34.61,27.12-38.36,14.69-3.6,28.48-1.75,40.51,7.94a30.82,30.82,0,0,1,11.59,19.77c2.42,15.67-4.26,26.76-17.17,34.82-.33.2-.63.45-1.19.86,24.94,8.54,42.25,24.37,44.66,51.25,2.43,27.16-12,45.61-35.16,57.27,3.57,2.77,7.39,5.24,10.61,8.34,3.81,3.66,4.91,8.75,6,13.8.92,4.28,2.3,8.47,3.6,12.66,1.09,3.54,2.37,7,3.54,10.54,1.57,4.68,3.14,9.35,4.67,14,1.14,3.47,2.22,7,3.34,10.43,1.45,4.54,2.9,9.07,4.37,13.6,1.2,3.7,2.43,7.39,3.66,11.08.28.84.6,1.66,1,2.85l-14.92,1.27-18.57-56.48c-.72.32-1.42.65-2.14,1-3.55,1.48-7.13,2.88-10.64,4.45a7.82,7.82,0,0,0-3.42,2.34q-14.8,23.1-29.37,46.35c-.84,1.34-1.72,1.94-3.35,1.64-3.9-.72-7.83-1.3-12.33-2l30.94-48.65c-8.92-2.63-15.84-7.69-18.94-16.42-3.19-9-.6-17.09,6.22-24.41-2.68-.37-4.92-.63-7.13-1-18-3-33-11.13-43.8-26.13a47.79,47.79,0,0,1-8.67-19.41c-.65-3.54-1.62-7.12-1.62-10.68,0-19.25,7.83-34.73,23-46.46A67,67,0,0,1,2488.53,405.44Zm53,135.59a8.22,8.22,0,0,0,0-8.06,18.46,18.46,0,0,0-7.47-10.92c-2.26-1.58-5-2.92-8-2.27-8.5,1.77-12.6,8.79-13.35,15.35-.79,6.92,1.95,12.66,7.71,16.79,3.8,2.72,7.81,3.47,12.07,1.15A17.43,17.43,0,0,0,2541.54,541ZM2510,410c-26.76-.19-50.11,23.21-50.93,49.2-1,32,26.59,53.6,50.87,53.26,28.41-.4,51.4-23.27,51.31-51.49C2561.16,433.84,2538.89,410.29,2510,410Zm3.39-20.19c1.2-.58,2.1-1,3-1.44,4.53-2.39,9-4.94,13.94-.72.29.25,1.91-.31,2.12-.82,2-5,3.4-10,2.38-15.65a29,29,0,0,0-7.27-15.26c-5.08-5.39-11.25-8.88-18.78-8.2-12.15,1.1-20.61,10.15-23,20.59-1.71,7.58-1,15.38,3.79,22.18,6.82,9.75,17.9,14.65,28.12,10.36a82.7,82.7,0,0,0,7.91-4.4Z" transform="translate(-768.5 -0.5)" fill="#030203"/>
    <path d="M2650.23,594.7l30.88-48.58c-9.05-3.13-16-7.84-18.86-17s-.25-16.92,6.09-23.77c-4.36-.77-8.79-1.29-13.07-2.36-16.33-4.07-29.69-12.57-39.06-26.82-3.94-6-7-12.41-7.73-19.59-.61-5.82-1.35-11.8-.69-17.55a51.39,51.39,0,0,1,9.26-23.67c8.23-11.78,19.42-19.42,32.86-24,.62-.21,1.25-.43,1.86-.67a3.15,3.15,0,0,0,.52-.36,39.93,39.93,0,0,1-13.16-11.56,30,30,0,0,1-5.32-24.23c3.5-16.44,14.89-25.35,30.85-28.31,13.58-2.52,26.35-.09,37.23,9.12a32.23,32.23,0,0,1,10.7,17.27c3.91,15.68-4.34,30.2-16.94,37a11.27,11.27,0,0,0-1,.63c27.85,10.35,46.14,28.39,44.57,60-1.17,23.41-15.15,38.82-35.87,48.94,2,1.07,3.92,2,5.68,3.14,6.82,4.56,10.87,10.74,11.51,19.15.2,2.69,1.49,5.3,2.35,7.92,1.48,4.53,3,9,4.52,13.58s3.09,9.34,4.6,14,2.94,9.3,4.47,13.92c1.82,5.5,3.74,11,5.56,16.47.94,2.83,1.74,5.71,2.7,8.87-4.81.41-9.25.84-13.7,1.1-.5,0-1.34-.79-1.55-1.38q-3-8.57-5.79-17.2c-1.5-4.63-2.82-9.32-4.35-13.94-1.82-5.5-3.8-11-5.66-16.45-.83-2.45-1.54-5-2.12-6.84-4.91,1.75-9.6,3.37-14.24,5.13a4.39,4.39,0,0,0-1.86,1.76q-15,23.49-30,47c-.42.65-1.35,1.5-1.94,1.42C2659.23,596.27,2654.92,595.48,2650.23,594.7Zm74.27-148.18c.35-28.09-23.73-51.39-51-51.37-27.13,0-50.93,22.88-51.12,51.07-.19,28.61,24.82,51.29,50.74,51.42C2699.82,497.78,2724.75,474.93,2724.5,446.52Zm-29-72.65c1.05-3.55,2.41-6.67,2.86-9.92a26.23,26.23,0,0,0-3.86-18.13c-4.61-7.22-10.84-12.25-19.67-12.81-13.75-.88-24.49,11.14-26.18,23-1.47,10.32,2.06,19.05,10,25.92,8.84,7.68,22,7.49,29.88-.5L2676.83,375c3.24-1.51,5.94-2.66,8.53-4,1.6-.84,2.94-1.06,4.55,0A61.47,61.47,0,0,0,2695.49,373.86Zm10.09,148.38a18.67,18.67,0,0,0-7.16-14.4c-4.92-4-9.87-3.84-14.95-.26-8.54,6-9.8,19.61-2.28,27.26,5.59,5.69,12.08,6.35,17.88,1.27A18.83,18.83,0,0,0,2705.58,522.24Z" transform="translate(-768.5 -0.5)" fill="#020203"/>
    <path d="M2726.57,230.35c-8.75,5.83-16.91,11.28-25.08,16.7q-13.42,8.9-26.9,17.73a3.21,3.21,0,0,1-2.44.26c-3.52-1.17-7-2.51-10.93-4l13-8.68q22.21-14.81,44.43-29.63c2.86-1.91,5.74-3.8,8.67-5.59a4.47,4.47,0,0,1,2.22-.39c3.17,0,6.35,0,9.51.12a6.89,6.89,0,0,1,3.34.83c8.39,5.46,16.72,11,25.05,16.57l39.06,26c.25.16.47.37.92.72-3.88,1.49-7.54,3-11.26,4.27a2.72,2.72,0,0,1-2-.53q-24.42-16.18-48.79-32.41c-.8-.53-1.67-1-2.85-1.63-.06,1.18-.15,2-.15,2.91,0,8.5-.08,17,0,25.49,0,2.22-.5,3.13-2.87,3-3.41-.18-6.83-.14-10.24,0-2.08.08-2.9-.46-2.86-2.76.14-8.58.06-17.16.06-25.73C2726.57,232.75,2726.57,231.85,2726.57,230.35Z" transform="translate(-768.5 -0.5)" fill="#019241"/>
    <path d="M2665,313c4.15-2.78,7.86-5.28,11.58-7.75l50.63-33.6a43.53,43.53,0,0,1,3.67-2.48,3.63,3.63,0,0,1,2.53-.38,13.87,13.87,0,0,0,9.47,0,4.31,4.31,0,0,1,3.16.82c8.57,5.62,17.07,11.36,25.61,17q17.83,11.84,35.69,23.63c1.23.81,2.43,1.67,4,2.77-4.07,1.5-7.88,2.95-11.73,4.27-.47.16-1.24-.23-1.74-.56q-24.48-16.26-48.94-32.55c-.92-.61-2-1.06-3.32-1.78v31.53H2730.6V282.15c-4,2.67-7.63,5-11.2,7.4-13.54,9-27.06,18-40.65,26.9a4.41,4.41,0,0,1-3.31.3C2672.14,315.71,2668.92,314.41,2665,313Z" transform="translate(-768.5 -0.5)" fill="#00923f"/>
    <path d="M2609.52,119.33v70H2422.7V89.31h483.72V189.39h-41.86V119.33Z" transform="translate(-768.5 -0.5)" fill="#a47bbe"/>
    <path d="M2428.77,81.36c3.78-3.29,7.27-6.36,10.8-9.4,13.63-11.75,27.25-23.52,41-35.19a7.31,7.31,0,0,1,4.37-1.61q180-.11,360-.12a6.54,6.54,0,0,1,4.57,1.86q25.39,21.91,50.8,43.8c.1.09.1.3.21.66Z" transform="translate(-768.5 -0.5)" fill="#a47bbe"/>
    <path d="M2729.79,189h14.94c-.34-5.13-.71-10.12-1-15.12-.16-2.91-.19-5.82-.24-8.73-.1-5.33-.1-10.66-.27-16-.22-7.21-.57-14.41-.85-21.61a2.74,2.74,0,0,1,.2-.73h106.72v62.56H2624.75v-62.5a23,23,0,0,1,2.5-.26q48.62,0,97.24,0c2.22,0,2.91,1,2.93,3,.07,6.66.14,13.32.33,20,.27,9.7.59,19.4,1,29.1C2728.92,182,2729.43,185.45,2729.79,189Z" transform="translate(-768.5 -0.5)" fill="#a47bbd"/>
    <path d="M2800.5,477.91c.21-28,23.4-51.32,51.11-51.36,28.15,0,51.37,23.37,51.29,51.31-.08,28.4-23.67,51-51.15,51.07C2823.54,528.95,2800.89,505.3,2800.5,477.91Zm59.27,5.59c3.17-1.87,6.36-3.39,9.13-5.47a19.63,19.63,0,0,0,6.3-22.52c-2.42-6-6.88-10-12.92-12.45-10.15-4-20-3.66-29.24,2.24a20.09,20.09,0,0,0-7.9,25.44c3.19,7.26,9.39,10.9,16.83,12.82a5.91,5.91,0,0,1,3.22,1.78c5.19,7.26,10.21,14.64,15.35,21.94a2.37,2.37,0,0,0,1.83.92c4.33-.65,8.65-1.44,13.08-2.2Z" transform="translate(-768.5 -0.5)" fill="#a37bbd"/>
    <path d="M2873.34,405.68c-4.73-4.81-9.22-4.61-13.92-1.4a33.77,33.77,0,0,1-4.33,2.09l11.82,6.35a20.83,20.83,0,0,1-10.84,5.7c-10,1.93-17.55-2.34-23.55-9.89a26.23,26.23,0,0,1-5.89-19.1c1.06-11.93,10.14-24.48,24.54-25.18,8.63-.42,15.18,4.17,20.32,10.92,5,6.56,5.88,14.06,4.85,21.86C2876,399.77,2874.54,402.35,2873.34,405.68Zm-24.65-19.5c5.77,1.3,11.32,2.57,16.9,3.76a2.23,2.23,0,0,0,1.79-.47c1.8-1.9,3.48-3.91,5.45-6.16-4-.88-7.59-1.66-11.19-2.48-7.36-1.68-7.35-1.69-12,4C2849.34,385.1,2849.15,385.47,2848.69,386.18Z" transform="translate(-768.5 -0.5)" fill="#a37bbd"/>
    <path d="M2883.56,553.18c.27,6-2.05,10.41-6.05,14.07-5.27,4.82-10.91,4.94-16.42.4a18.23,18.23,0,0,1-1.47-26.92c6.05-6.36,14.27-5.93,19.76,1C2882.1,545.14,2884.08,548.94,2883.56,553.18Z" transform="translate(-768.5 -0.5)" fill="#a37bbd"/>
    <path d="M2510,410c28.89.29,51.16,23.84,51.25,51,.09,28.22-22.9,51.09-51.31,51.49-24.28.34-51.89-21.25-50.87-53.26C2459.89,433.21,2483.24,409.81,2510,410Zm8.17,56.88c2.83-1.58,5.33-2.81,7.65-4.31a19.9,19.9,0,0,0,3.6-30.22c-4.42-4.76-10-7.1-16.56-8-8-1.1-15.3.12-22,4.56-8.72,5.78-12.27,17.46-6.43,27.2,3.49,5.82,8.85,8.8,15.09,10.7,1.36.41,3,1,3.79,2,4.93,6.88,9.63,13.93,14.47,20.88.62.88,1.72,2.19,2.45,2.1,4.46-.57,8.87-1.48,13.63-2.34Z" transform="translate(-768.5 -0.5)" fill="#a37abd"/>
    <path d="M2513.39,389.82l12.2,6.65a82.7,82.7,0,0,1-7.91,4.4c-10.22,4.29-21.3-.62-28.12-10.36-4.76-6.8-5.5-14.6-3.79-22.18,2.35-10.44,10.81-19.49,23-20.59,7.52-.68,13.69,2.81,18.78,8.2a29,29,0,0,1,7.27,15.26c1,5.61-.35,10.65-2.38,15.65-.21.51-1.83,1.07-2.12.82-4.92-4.22-9.41-1.66-13.94.72C2515.49,388.84,2514.59,389.24,2513.39,389.82Zm-6.56-20.22c6,1.38,11.37,2.59,16.7,3.79.48.11,1.22.29,1.45.06,2-2.06,4-4.21,6.2-6.64-6-1.36-11.36-2.58-16.7-3.74-.6-.13-1.52-.19-1.86.16C2510.74,365.13,2509,367.18,2506.83,369.6Z" transform="translate(-768.5 -0.5)" fill="#a37abd"/>
    <path d="M2541.54,541a17.43,17.43,0,0,1-9.08,12c-4.26,2.31-8.27,1.56-12.07-1.15-5.77-4.13-8.5-9.86-7.71-16.79.74-6.56,4.85-13.58,13.35-15.35,3.09-.64,5.78.69,8,2.27a18.46,18.46,0,0,1,7.47,10.92Q2541.54,537,2541.54,541Z" transform="translate(-768.5 -0.5)" fill="#a27abc"/>
    <path d="M2541.54,541q0-4,0-8.06A8.22,8.22,0,0,1,2541.54,541Z" transform="translate(-768.5 -0.5)" fill="#42304e"/>
    <path d="M2724.5,446.52c.25,28.41-24.68,51.26-51.41,51.12-25.92-.13-50.93-22.81-50.74-51.42.19-28.19,24-51,51.12-51.07C2700.77,395.12,2724.85,418.43,2724.5,446.52Zm-43.13,5.3c1-.38,1.71-.68,2.47-1,8.35-3.15,16.82-12.55,13.85-24.21a20.54,20.54,0,0,0-9.54-13c-10.27-6.07-21.1-6.34-31.85-.73-11,5.73-15.2,20-7.08,30.38,3.93,5,9.17,7.47,15,9.2a4.4,4.4,0,0,1,2.28,1.09c5.11,7.26,10.1,14.6,15.2,21.87.49.7,1.57,1.55,2.25,1.46,4.31-.58,8.58-1.4,13-2.15a5.36,5.36,0,0,0-.38-1.2C2691.54,466.41,2686.55,459.26,2681.36,451.82Z" transform="translate(-768.5 -0.5)" fill="#a37bbd"/>
    <path d="M2695.49,373.86a61.47,61.47,0,0,1-5.58-2.9c-1.61-1.06-2.95-.85-4.55,0-2.59,1.37-5.3,2.51-8.53,4l11.64,6.42c-7.84,8-21,8.18-29.88.5-7.91-6.87-11.44-15.61-10-25.92,1.69-11.84,12.43-23.86,26.18-23,8.84.57,15.06,5.59,19.67,12.81a26.23,26.23,0,0,1,3.86,18.13C2697.9,367.19,2696.54,370.32,2695.49,373.86Zm-1.1-21.88c-5.65-1.28-11.29-2.59-16.94-3.81a2.21,2.21,0,0,0-1.77.49c-1.8,1.91-3.48,3.93-5.4,6.14,3.4.78,6.51,1.53,9.63,2.2,2.81.6,6,2.14,8.36,1.38s4-3.89,6-6C2694.32,352.35,2694.31,352.25,2694.39,352Z" transform="translate(-768.5 -0.5)" fill="#a37abc"/>
    <path d="M2705.58,522.24a18.83,18.83,0,0,1-6.5,13.87c-5.8,5.09-12.29,4.42-17.88-1.27-7.52-7.65-6.26-21.24,2.28-27.26,5.07-3.58,10-3.74,14.95.26A18.67,18.67,0,0,1,2705.58,522.24Z" transform="translate(-768.5 -0.5)" fill="#a37abd"/>
    <path d="M2859.77,483.5l15.66,22.5c-4.43.77-8.74,1.56-13.08,2.2a2.37,2.37,0,0,1-1.83-.92c-5.13-7.3-10.15-14.68-15.35-21.94a5.91,5.91,0,0,0-3.22-1.78c-7.44-1.91-13.64-5.56-16.83-12.82a20.09,20.09,0,0,1,7.9-25.44c9.26-5.9,19.1-6.28,29.24-2.24,6,2.41,10.51,6.43,12.92,12.45a19.63,19.63,0,0,1-6.3,22.52C2866.13,480.11,2862.94,481.63,2859.77,483.5Zm1.79-21.2c0-5.34-2.45-9.43-6.68-12.55-3.08-2.27-6.17-2.31-9.45-.26a15.29,15.29,0,0,0-2.29,23.92c4.72,4.45,8.78,4.56,13.52.13A14.43,14.43,0,0,0,2861.56,462.3Z" transform="translate(-768.5 -0.5)" fill="#010101"/>
    <path d="M2848.69,386.18c.46-.71.65-1.08.9-1.39,4.68-5.64,4.68-5.63,12-4,3.61.82,7.22,1.6,11.19,2.48-2,2.25-3.65,4.26-5.45,6.16a2.23,2.23,0,0,1-1.79.47C2860,388.75,2854.46,387.48,2848.69,386.18Z" transform="translate(-768.5 -0.5)" fill="#040305"/>
    <path d="M2518.17,466.89l15.7,22.56c-4.76.86-9.17,1.77-13.63,2.34-.73.09-1.84-1.22-2.45-2.1-4.84-6.95-9.54-14-14.47-20.88-.75-1-2.43-1.58-3.79-2-6.24-1.9-11.6-4.88-15.09-10.7-5.84-9.75-2.29-21.42,6.43-27.2,6.68-4.43,14-5.65,22-4.56,6.52.89,12.14,3.23,16.56,8a19.9,19.9,0,0,1-3.6,30.22C2523.5,464.08,2521,465.3,2518.17,466.89Zm-21-23.86c-.2,1.91-.44,3.83-.56,5.75,0,.25.55.54.85.81a12,12,0,0,0,6.74,9.44c1.38.73,3.18,1.56,4.54,1.26a13.87,13.87,0,0,0,10.67-11c1.26-7-2-14.12-7.24-16.71-2.14-1.07-4.56-1.76-6.86-.48C2501,434.5,2497.75,437.81,2497.16,443Z" transform="translate(-768.5 -0.5)" fill="#020102"/>
    <path d="M2506.83,369.6c2.16-2.42,3.91-4.46,5.79-6.38.33-.34,1.26-.29,1.86-.16,5.34,1.16,10.66,2.38,16.7,3.74-2.24,2.43-4.18,4.58-6.2,6.64-.23.23-1,0-1.45-.06C2518.2,372.19,2512.88,371,2506.83,369.6Z" transform="translate(-768.5 -0.5)" fill="#040305"/>
    <path d="M2681.36,451.82c5.19,7.44,10.18,14.59,15.15,21.75a5.36,5.36,0,0,1,.38,1.2c-4.37.76-8.65,1.58-13,2.15-.69.09-1.76-.76-2.25-1.46-5.1-7.27-10.09-14.61-15.2-21.87a4.4,4.4,0,0,0-2.28-1.09c-5.82-1.73-11.05-4.19-15-9.2-8.12-10.34-3.87-24.66,7.08-30.38,10.75-5.62,21.58-5.34,31.85.73a20.54,20.54,0,0,1,9.54,13c3,11.65-5.5,21.05-13.85,24.21C2683.08,451.14,2682.32,451.45,2681.36,451.82Zm1.62-20.59c.51-4-1.26-7.61-3.89-10.57-3.2-3.61-7-5.19-11.5-2.65-8,4.54-10.42,16.52-3.42,23.53,2.44,2.45,5,4.66,8.92,3.67C2678.08,444,2683.41,437.77,2683,431.23Z" transform="translate(-768.5 -0.5)" fill="#020203"/>
    <path d="M2694.39,352c-.07.26-.07.36-.12.42-2,2.09-3.61,5.21-6,6s-5.55-.77-8.36-1.38c-3.13-.67-6.24-1.42-9.63-2.2,1.92-2.21,3.6-4.23,5.4-6.14a2.21,2.21,0,0,1,1.77-.49C2683.1,349.39,2688.74,350.7,2694.39,352Z" transform="translate(-768.5 -0.5)" fill="#040305"/>
    <path d="M2861.56,462.3a14.43,14.43,0,0,1-4.9,11.25c-4.74,4.43-8.8,4.32-13.52-.13a15.29,15.29,0,0,1,2.29-23.92c3.29-2.05,6.38-2,9.45.26C2859.1,452.87,2861.51,457,2861.56,462.3Z" transform="translate(-768.5 -0.5)" fill="#a27abc"/>
    <path d="M2497.16,443c.6-5.22,3.82-8.53,8.14-10.93,2.3-1.28,4.71-.59,6.86.48,5.22,2.59,8.49,9.73,7.24,16.71a13.87,13.87,0,0,1-10.67,11c-1.37.3-3.16-.53-4.54-1.26a12,12,0,0,1-6.74-9.44Z" transform="translate(-768.5 -0.5)" fill="#a47bbe"/>
    <path d="M2497.16,443l.28,6.56c-.3-.27-.86-.56-.85-.81C2496.72,446.86,2497,444.94,2497.16,443Z" transform="translate(-768.5 -0.5)" fill="#735585"/>
    <path d="M2683,431.23c.43,6.54-4.9,12.74-9.88,14-4,1-6.48-1.22-8.92-3.67-7-7-4.55-19,3.42-23.53,4.45-2.53,8.29-1,11.5,2.65C2681.72,423.62,2683.49,427.24,2683,431.23Z" transform="translate(-768.5 -0.5)" fill="#a47bbe"/>
 </g>
  </g>
  <g id="tur4">
    <g>
    <path d="M4608.5,683.49h-768V.58h768Zm-7.95-679h-752.1v675.1h752.1Z" transform="translate(-768.5 -0.5)" fill="#0a070c"/>
    <path d="M4600.55,4.45v675.1h-752.1V4.45ZM4329.28,349.34c-4,3.17-8.35,6.42-12.48,9.92a8,8,0,0,1-5.57,2q-153-.06-306,0h-2.73a6.39,6.39,0,0,0,2.33,1.66q38.05,17.39,76.11,34.77c29.92,13.7,59.77,27.54,89.77,41.05a35.07,35.07,0,0,1,13.41,10.83c1.55,2,3.19,4,2.19,7.08a27.33,27.33,0,0,0-1.66,8.12,102.66,102.66,0,0,0,.83,14.8c.58,4.34,2,8.56,2.85,12.88a11.29,11.29,0,0,1-.08,4.92c-.64,2.4-1.85,4.64-2.69,7-3.63,10.18-8.85,19.58-14.52,28.71a299.07,299.07,0,0,1-29.56,39.43,5.49,5.49,0,0,1-4.59,2.13q-49.12-.16-98.24-.19h-3.09v7.54c105.41-.12,210.65,1.09,315.82.11v-7.33h-13.6q-39,.09-78,.21a4.92,4.92,0,0,1-4.28-1.85c-1.7-2.12-3.56-4.12-5.35-6.17-18-20.59-33.72-42.62-44.38-68a14.46,14.46,0,0,1-1-6.86c.55-5.19,1.83-10.3,2.41-15.48.28-2.47-.48-5-.58-7.58a34.44,34.44,0,0,0-2.94-12.3c-.75-1.75-1.8-3.56-.18-5.63,2.14-2.75,3-6.54,6.47-8.21q20.53-9.93,41.11-19.74,38.82-18.56,77.66-37.08,22.25-10.62,44.53-21.2c2.15-1,4.25-2.15,6.38-3.23l-.14-.5h-47.1c2.4-2,4.43-3.41,6.22-5.12,2.65-2.52,5.27-3,9-2.13a181.31,181.31,0,0,0,70.65,2c15.36-2.48,30.18-6.78,43.67-14.82,8.93-5.32,16.88-11.67,20.91-21.71a25,25,0,0,0-1-21.37c-4.63-9.14-12.37-15.17-21.07-20.09-17.3-9.78-36.2-14.05-55.75-15.82a184.81,184.81,0,0,0-49.27,1.91c-15.72,2.8-30.91,7.21-44.46,16-9.62,6.22-17.76,13.6-20.26,25.67-1.09,5.26-.06,10,1.88,14.54,3.29,7.73,9.09,13.53,16.08,17.9C4315.56,342.16,4322.46,345.58,4329.28,349.34ZM4151.35,151.18c1.55-.79,3.14-1.47,4.58-2.38a19.84,19.84,0,0,0,4.05-3.07c4.62-4.95,5-10.6-1.09-14.81a35.2,35.2,0,0,0-6.44-3.51c-14.28-5.93-29.1-5.07-44-3.26a3.26,3.26,0,0,0-3,3.35c-.27,3.86-.54,7.72-.95,11.57-.55,5.31-1.46,10.59-1.79,15.91-.35,5.72-.27,11.48-.22,17.22a3.33,3.33,0,0,0,1.6,2.19,9.2,9.2,0,0,0,4.05,1.62c5,.19,10,.21,14.93.05,10.64-.34,21.26-1.1,31.53-4.16,4.72-1.4,9.42-3,13.15-6.46,2.52-2.34,2.51-5,0-7.29a10.45,10.45,0,0,0-3-2C4160.43,154.43,4156,152.88,4151.35,151.18ZM4012.68,95.5c2.49,0,5,.17,7.48,0,11.64-.95,22.48-4.1,31.74-11.63,5.15-4.19,9.33-9.18,10.39-15.8,1.29-8-1.2-14.18-8.93-18.43-7.9-4.34-16.69-5.13-25.5-5.64-12.63-.73-25.12-.22-36.94,4.87-8.46,3.64-16.2,8.38-20.79,16.79-4.07,7.46-3.74,13.67,2.61,19.35a31.06,31.06,0,0,0,7.46,4.58C3990.46,94.43,4001.49,95.59,4012.68,95.5Zm311.14,62.34c3.35-.72,6-1.21,8.59-1.87,5.21-1.33,10.36-2.93,14.66-6.3,2.15-1.68,4.16-4,3-6.91a18,18,0,0,0-4.48-6.37c-4.47-4.07-10.23-5.79-15.82-7.77-9.95-3.52-20.3-4.19-30.71-4.37a76.2,76.2,0,0,0-11.65.43,5.44,5.44,0,0,0-3.79,3.16,12.69,12.69,0,0,0,.19,7.14c1.55,4.18-.26,8-.54,11.92-.27,3.73-1.53,7.42-1.61,11.14a128.68,128.68,0,0,0,.94,14.31,3.52,3.52,0,0,0,1.34,2.15c2.56,2,8.93,1.88,11.34-.12a3.12,3.12,0,0,0,1.12-2c.06-2.91,0-5.83-.18-8.74a26.79,26.79,0,0,0-.77-3.79,16.82,16.82,0,0,1,2,0,154.09,154.09,0,0,1,34.07,8.94c4.36,1.73,8.56,3.87,12.92,5.59,4.54,1.79,8.94.57,11.17-3.12a20.87,20.87,0,0,0-3.73-2.78c-5.4-2.43-10.83-4.79-16.34-6.93C4331.93,160.15,4328.18,159.2,4323.82,157.84ZM4186.17,71.52c7.47-3.93,14.64-7.5,21.61-11.43,6.1-3.43,12.06-7.14,17.92-11,2.53-1.65,2.2-3.42-.63-4.52a11.7,11.7,0,0,0-10.53.79Q4199,54.3,4183.4,63.1c-2.08,1.17-4.31,2.08-7,3.36.36-2.45.67-4.13.84-5.81.37-3.68.72-7.37,1-11.06.16-2.23.3-4.54-2.34-5.64A10.3,10.3,0,0,0,4167,44a4.8,4.8,0,0,0-2.34,3.29c-.52,9.1-.74,18.21-1.12,27.31-.21,4.94-.58,9.88-.8,14.82a10,10,0,0,0,.33,3.66c1,2.84,4.06,4.36,8.13,4.3,4.38-.06,5.38-1,5.38-5.31,0-5,0-10.08,0-15.64,2.58,1.24,4.7,2.23,6.81,3.28,9.49,4.73,18.71,10.12,29,12.94a84.31,84.31,0,0,0,14.17,2.21c2.08.2,4.36-1,4.52-3.29.13-1.9-2-2.74-3.72-3-7.65-1.12-14.49-4.46-21.38-7.65C4199.45,77.94,4193,74.77,4186.17,71.52Zm220.31,23.23a21.36,21.36,0,0,0,2.59-.36c3.73-.91,4.45-2.81,2.4-6-1.81-2.82-3.73-5.6-5.28-8.56-1.64-3.11-3-6.39-4.31-9.64-1.86-4.46-3.66-8.94-5.43-13.44-1.1-2.78-1.94-5.67-3.19-8.37-1.68-3.64-7.52-4.79-11.55-1.95-7.48,5.27-14.69,10.92-22.07,16.34C4354,66.9,4350,73.33,4342.48,75a2,2,0,0,0-1.24,3.26c.26.38-.16,1.49-.59,2-2.52,3-5.17,5.9-7.7,8.9-1.19,1.41-1.37,2.8.49,4,3.55,2.26,9.2,1.71,12.13-1.28,2-2,4.23-3.84,5.81-6.14,3.11-4.51,7.08-6.44,12.62-6.65,8.38-.33,16.72-1.5,25.08-2.3a2,2,0,0,1,2.53,1.62,50,50,0,0,0,4,9C4397.92,91.42,4401,94.69,4406.48,94.75Zm-213,65.49a5.94,5.94,0,0,1-.4.57c-2.71,3.05-5.47,6.07-8.13,9.17-1.12,1.31-1.74,2.7.15,4.06,3.06,2.2,9.45,1.93,12.06-.79,3.34-3.48,6.48-7.16,9.83-10.64a5.83,5.83,0,0,1,3.22-1.75q15.38-1.67,30.8-3a3.31,3.31,0,0,1,2.41,1.67c1.81,3.47,3.08,7.26,5.16,10.55,3.38,5.35,9.19,7.07,14,4.69,2.22-1.1,2.64-2.35,1.17-4.44a65.62,65.62,0,0,1-7.86-14c-3.06-7.87-6.35-15.65-9.43-23.52-1.93-4.92-3.14-7.22-8.91-6.8a10.49,10.49,0,0,0-5.15,2.15c-8.36,6.24-16.58,12.66-24.88,19-4.05,3.09-7,7.71-12.7,8.55C4192.55,156,4192.26,157.85,4193.49,160.24Zm256.07-72.86c-4.88.22-9.36.34-13.83.65a17.79,17.79,0,0,0-5.28,1.1,3.43,3.43,0,0,0-1.82,2.46,3,3,0,0,0,1.82,2.19,29,29,0,0,0,7.29,1c5.24-.08,10.47-.66,15.7-.78,9.82-.24,19.64-.24,29.45-.49a14.6,14.6,0,0,0,5.68-1.33c2.18-1,2.23-2.75.18-4a9.21,9.21,0,0,0-4.38-1.37c-5.07-.14-10.15,0-15.23,0h-5.73c.27-11.94-1.83-23.67,1.26-35.22,6.17.33,12.23.73,18.3.95a21.21,21.21,0,0,0,6.4-.59c1.18-.33,2-1.77,3.06-2.71-1-1-1.9-2.4-3.14-3a12.15,12.15,0,0,0-4.65-.7q-24.58-.59-49.16-1.06a16.47,16.47,0,0,0-5.66.67c-1.19.42-2,1.86-3,2.84.94.93,1.73,2.33,2.85,2.7a20.29,20.29,0,0,0,5.88.73c5,.09,9.91,0,15.45,0C4447.73,63.34,4449.75,75.17,4449.56,87.38Zm-513.43-43a57,57,0,0,0-30,8.24c-7.28,4.24-14.33,8.85-18.93,16.25-4.22,6.79-3.85,13.28,3.12,18a38.56,38.56,0,0,0,11.39,5.57c17.57,4.65,34.38,1.29,50.67-5.8.92-.4,2.11-1.81,2-2.58a4.39,4.39,0,0,0-2.33-2.64c-3.52-1.72-6.92-.36-10.37.65-6.26,1.83-12.49,3.93-18.89,5.08-7.21,1.29-14.4.58-20.76-3.7-3.66-2.46-4.52-6.43-2.79-10.5s4.88-7.2,8.37-9.81c9-6.74,18.5-12.32,30.41-11.74a10.11,10.11,0,0,1,7.44,3.09c2.6,2.74,8.18,3.15,11.19.91.72-.54,1.65-1.57,1.57-2.27a30.92,30.92,0,0,0-1.55-7A3.76,3.76,0,0,0,3954,44a52,52,0,0,0-7.55.38,30.29,30.29,0,0,1-3.09.48C3940.94,44.77,3938.54,44.53,3936.14,44.36ZM4103.69,94.5c13.87,0,27.25-2.85,37.36-7.66a4.4,4.4,0,0,0,2.34-2.88c.06-.81-1.36-2-2.39-2.57-3.53-1.77-6.91-.3-10.36.71-6.26,1.83-12.5,3.9-18.9,5-6.77,1.21-13.52.54-19.73-3.12-5.47-3.23-5.78-7.91-3-12.68,3.16-5.48,8.29-9,13.46-12.31,8-5.21,16.58-8.61,26.36-7.48a7.68,7.68,0,0,1,4.55,2c2.8,3.1,6.16,3.59,9.89,3,2.42-.42,4.63-1.81,4.16-5.57-.77-6.24-4-8.56-10.17-7-.72.18-1.4.5-2.13.65a8.74,8.74,0,0,1-2.63.32c-20.65-2.31-37.73,5.13-52.42,19.12a23.51,23.51,0,0,0-6.36,10.87c-1.16,4.11,1.51,9.36,6.38,12.72C4087.91,93,4096.81,94.38,4103.69,94.5Zm169.24-43.07c.88,5.58,1.86,10.74,2.47,15.94s.79,10.21,1.17,15.31c.08,1.07.29,2.13.34,3.2a8.11,8.11,0,0,1-.11,2.69c-.6,2-.52,3.79,1.75,4.37a20.94,20.94,0,0,0,6.8.86c3.59-.31,5.38-2.56,5.2-6.15-.31-6.11-.82-12.2-1.24-18.31,0-.33-.09-.66-.14-1l-2.27-16.92c1.47,0,2.36,0,3.25,0,9.82.21,19.63.51,29.45.57a19,19,0,0,0,6.94-1.29c2.09-.83,2.14-2.88.18-4a10.37,10.37,0,0,0-4.64-1.39c-7.56-.35-15.13-.56-22.7-.72q-26.46-.55-52.92-.94a15.09,15.09,0,0,0-5.51,1.18,3.07,3.07,0,0,0-1.43,2.47,3.55,3.55,0,0,0,1.71,2.24,7.11,7.11,0,0,0,3.07.89c4.64.4,9.28.84,13.93,1C4263.22,51.57,4268.19,51.44,4272.93,51.44Zm242.69,38.71a21.27,21.27,0,0,1,0-2.33c.87-6.25,2.11-12.47,2.55-18.74.5-7.3.22-14.65.46-22a3.32,3.32,0,0,0-2.49-3.7c-3-1-6.08-1.17-8.89.51a3.86,3.86,0,0,0-1.7,2.61c-.39,6.69-.51,13.39-.87,20.08-.33,6-.85,12-1.31,18.06,0,.47-.34.92-.42,1.39-1.09,5.89-1.06,9.5,6.81,10.44a37,37,0,0,0,7,.38c13.11-.93,26.22-1.92,39.32-3.05a59.25,59.25,0,0,0,8.77-1.78c1.32-.32,2.69-.74,2.78-2.62s-1.33-2.69-2.71-3a22.06,22.06,0,0,0-6.39-.38c-8.93,1-17.83,2.25-26.76,3.16C4526.48,89.81,4521.15,89.86,4515.63,90.15Z" transform="translate(-768.5 -0.5)" fill="#a47bbe"/>
    <path d="M4329.28,349.34c-6.82-3.76-13.72-7.18-20.21-11.25-7-4.38-12.79-10.17-16.08-17.9-1.94-4.57-3-9.29-1.88-14.54,2.5-12.07,10.64-19.44,20.26-25.67,13.55-8.77,28.74-13.18,44.46-16a184.81,184.81,0,0,1,49.27-1.91c19.54,1.77,38.45,6,55.75,15.82,8.7,4.92,16.44,10.95,21.07,20.09a25,25,0,0,1,1,21.37c-4,10-12,16.39-20.91,21.71-13.49,8-28.32,12.34-43.67,14.82a181.31,181.31,0,0,1-70.65-2c-3.76-.88-6.38-.39-9,2.13-1.79,1.71-3.83,3.16-6.22,5.12h47.1l.14.5c-2.12,1.08-4.23,2.2-6.38,3.23q-22.26,10.61-44.53,21.2-38.84,18.53-77.66,37.08Q4230.5,433,4210,442.89c-3.44,1.66-4.32,5.46-6.47,8.21-1.62,2.07-.56,3.89.18,5.63a34.44,34.44,0,0,1,2.94,12.3c.1,2.54.85,5.11.58,7.58-.58,5.19-1.85,10.3-2.41,15.48a14.46,14.46,0,0,0,1,6.86c10.67,25.33,26.43,47.37,44.38,68,1.79,2.05,3.64,4,5.35,6.17a4.92,4.92,0,0,0,4.28,1.85q39-.16,78-.21h13.6v7.33c-105.16,1-210.41-.22-315.82-.11v-7.54h3.09q49.12.08,98.24.19a5.49,5.49,0,0,0,4.59-2.13,299.07,299.07,0,0,0,29.56-39.43c5.67-9.13,10.88-18.53,14.52-28.71.84-2.35,2-4.6,2.69-7a11.29,11.29,0,0,0,.08-4.92c-.84-4.32-2.27-8.54-2.85-12.88a102.66,102.66,0,0,1-.83-14.8,27.33,27.33,0,0,1,1.66-8.12c1-3-.64-5.1-2.19-7.08a35.07,35.07,0,0,0-13.41-10.83c-30-13.51-59.85-27.35-89.77-41.05q-38-17.41-76.11-34.77a6.39,6.39,0,0,1-2.33-1.66h2.73q153,0,306,0a8,8,0,0,0,5.57-2C4320.92,355.76,4325.25,352.51,4329.28,349.34Zm12.94,19.8-.12-.35H4040.64c1.25.64,1.92,1,2.61,1.33q13.57,6.25,27.15,12.48l75.29,34.46q23.82,10.9,47.68,21.71a4.24,4.24,0,0,0,3.14,0q15.8-7.34,31.5-14.87,34.75-16.6,69.48-33.25Q4319.86,379.9,4342.21,369.15ZM4197.11,514a198,198,0,0,1-18.53,31.64c-7.11,9.68-14.43,19.22-21.76,29h83.54C4223.74,556,4208.91,536.35,4197.11,514ZM4367.18,270c-5.3,1.06-10.38,1.87-15.36,3.1-13.1,3.23-25.53,8-35.85,17.06-5.62,4.95-9.43,11-10.33,18.92l73.38-2.67ZM4400,310.73c14.52,7.5,28.45,14.72,42.41,21.87,2.61,1.34,5.51,3.55,8,3.24,2.69-.33,5.16-3,7.56-4.93,5.45-4.27,9.82-9.6,11.28-16.38,1.56-7.3-.43-14.09-5.4-19.92a2.83,2.83,0,0,0-3.5-1.07c-10.08,2.92-20.19,5.73-30.28,8.6C4420.24,304.94,4410.4,307.76,4400,310.73Zm55.22-24.37c-22.68-14.31-47.18-17.81-73.16-17.44l11.41,35Zm-91.11,62.74c25.67,3.49,50.38,1.86,75-7.3-5.29-2.71-9.93-5.06-14.54-7.45q-16.26-8.42-32.5-16.87c-1.27-.66-2-.53-3,.76-3.32,4.3-6.92,8.38-10.34,12.6C4374,336.76,4369.23,342.73,4364.12,349.1Zm12-35.09-69,2.52c1.4,5.1,4.42,8.79,7.89,12.06,9.33,8.79,20.8,13.53,32.9,17a2.92,2.92,0,0,0,3.68-1.14c6.17-7.69,12.48-15.26,18.71-22.91C4372.2,319.21,4374,316.76,4376.1,314Z" transform="translate(-768.5 -0.5)" fill="#030203"/>
    <path d="M4151.35,151.18c4.66,1.7,9.08,3.25,13.45,4.94a10.45,10.45,0,0,1,3,2c2.55,2.27,2.57,5,0,7.29-3.73,3.46-8.43,5.05-13.15,6.46-10.28,3.05-20.89,3.82-31.53,4.16-5,.16-10,.14-14.93-.05a9.2,9.2,0,0,1-4.05-1.62,3.33,3.33,0,0,1-1.6-2.19c-.06-5.74-.14-11.49.22-17.22.33-5.32,1.23-10.6,1.79-15.91.4-3.85.68-7.71.95-11.57a3.26,3.26,0,0,1,3-3.35c14.86-1.81,29.68-2.67,44,3.26a35.2,35.2,0,0,1,6.44,3.51c6.1,4.2,5.71,9.86,1.09,14.81a19.84,19.84,0,0,1-4.05,3.07C4154.48,149.71,4152.9,150.39,4151.35,151.18Zm-34.1-2.63c3.2,0,5.93,0,8.66,0,6.92-.11,13.76-.78,19.83-4.48a8.89,8.89,0,0,0,3.68-4.15c1.11-3.18-.32-4.88-4.61-6.82-8.38-3.8-17.19-3.64-26-3.06Zm-1.89,20.67c2.86,0,5.25.1,7.62,0,9-.46,17.93-.91,26.52-3.81a74.64,74.64,0,0,0,7.18-3.27l-.17-1.05c-12.82-5.23-26.32-5.87-40.34-5.48Z" transform="translate(-768.5 -0.5)" fill="#030204"/>
    <path d="M4012.68,95.5c-11.19.1-22.22-1.06-32.49-5.93a31.06,31.06,0,0,1-7.46-4.58c-6.35-5.68-6.68-11.88-2.61-19.35,4.59-8.42,12.33-13.15,20.79-16.79,11.83-5.09,24.32-5.61,36.94-4.87,8.81.51,17.6,1.3,25.5,5.64,7.73,4.25,10.22,10.41,8.93,18.43-1.07,6.63-5.24,11.61-10.39,15.8-9.26,7.53-20.1,10.68-31.74,11.63C4017.68,95.67,4015.17,95.5,4012.68,95.5ZM4023.74,50c-6.26.73-11.82.87-17.11,2.09-9.89,2.29-18.51,6.93-23.58,16.27-1.73,3.18-2.79,6.93-.45,10.26a15.21,15.21,0,0,0,5.48,4.93,53.37,53.37,0,0,0,41.84,2.34c8.14-2.82,15.06-7.65,17.91-16.52,2.07-6.47.46-13.31-6.11-15.45C4035.71,52,4029.33,51.18,4023.74,50Z" transform="translate(-768.5 -0.5)" fill="#030204"/>
    <path d="M4323.82,157.84c4.36,1.36,8.11,2.32,11.69,3.7,5.52,2.14,10.95,4.5,16.34,6.93a20.87,20.87,0,0,1,3.73,2.78c-2.22,3.69-6.62,4.91-11.17,3.12-4.36-1.72-8.56-3.87-12.92-5.59a154.09,154.09,0,0,0-34.07-8.94,16.82,16.82,0,0,0-2,0,26.79,26.79,0,0,1,.77,3.79c.16,2.91.24,5.83.18,8.74a3.12,3.12,0,0,1-1.12,2c-2.42,2-8.79,2.07-11.34.12a3.52,3.52,0,0,1-1.34-2.15,128.68,128.68,0,0,1-.94-14.31c.08-3.72,1.34-7.4,1.61-11.14.29-3.94,2.09-7.74.54-11.92a12.69,12.69,0,0,1-.19-7.14,5.44,5.44,0,0,1,3.79-3.16,76.2,76.2,0,0,1,11.65-.43c10.41.18,20.76.85,30.71,4.37,5.59,2,11.34,3.7,15.82,7.77a18,18,0,0,1,4.48,6.37c1.16,2.89-.85,5.24-3,6.91-4.3,3.36-9.45,5-14.66,6.3C4329.81,156.63,4327.16,157.12,4323.82,157.84Zm-26-26.58-1.16,20.58a.86.86,0,0,0,.45.13c8.21-.36,16.45-.49,24.63-1.19a27.39,27.39,0,0,0,13.17-4.68c1.87-1.28,2.39-2.92.65-4.39a34.15,34.15,0,0,0-7.5-5.18C4318.46,132.1,4308.15,131.22,4297.85,131.25Z" transform="translate(-768.5 -0.5)" fill="#030204"/>
    <path d="M4186.17,71.52c6.79,3.25,13.27,6.42,19.82,9.46,6.89,3.2,13.73,6.54,21.38,7.65,1.71.25,3.85,1.09,3.72,3-.16,2.29-2.44,3.49-4.52,3.29a84.31,84.31,0,0,1-14.17-2.21c-10.3-2.81-19.52-8.21-29-12.94-2.1-1-4.23-2-6.81-3.28,0,5.56,0,10.6,0,15.64,0,4.26-1,5.24-5.38,5.31-4.07.06-7.14-1.46-8.13-4.3a10,10,0,0,1-.33-3.66c.22-4.94.59-9.88.8-14.82.38-9.1.6-18.22,1.12-27.31A4.8,4.8,0,0,1,4167,44a10.3,10.3,0,0,1,8.91-.09c2.64,1.1,2.5,3.41,2.34,5.64-.27,3.69-.61,7.38-1,11.06-.17,1.69-.48,3.36-.84,5.81,2.67-1.28,4.9-2.19,7-3.36q15.61-8.79,31.14-17.71a11.7,11.7,0,0,1,10.53-.79c2.83,1.1,3.16,2.86.63,4.52-5.86,3.84-11.82,7.54-17.92,11C4200.81,64,4193.64,67.59,4186.17,71.52Z" transform="translate(-768.5 -0.5)" fill="#030204"/>
    <path d="M4406.48,94.75c-5.52-.06-8.56-3.33-10.87-7.3a50,50,0,0,1-4-9,2,2,0,0,0-2.53-1.62c-8.36.8-16.71,2-25.08,2.3-5.54.22-9.5,2.14-12.62,6.65-1.58,2.29-3.84,4.12-5.81,6.14-2.93,3-8.58,3.54-12.13,1.28-1.86-1.18-1.68-2.56-.49-4,2.53-3,5.18-5.89,7.7-8.9.43-.51.84-1.62.59-2a2,2,0,0,1,1.24-3.26c7.49-1.68,11.5-8.11,17.16-12.27,7.38-5.42,14.59-11.06,22.07-16.34,4-2.84,9.87-1.7,11.55,1.95,1.25,2.7,2.09,5.59,3.19,8.37,1.77,4.49,3.57,9,5.43,13.44,1.36,3.25,2.68,6.53,4.31,9.64,1.56,3,3.48,5.73,5.28,8.56,2.06,3.21,1.34,5.11-2.4,6A21.36,21.36,0,0,1,4406.48,94.75Zm-42-22.78,23-2.33a6,6,0,0,0-.12-1.51c-1.33-3.27-2.66-6.54-4.13-9.75-.12-.26-1.44-.33-1.87,0-1.91,1.34-3.72,2.82-5.54,4.29C4372.22,65.65,4368.56,68.67,4364.52,72Z" transform="translate(-768.5 -0.5)" fill="#030203"/>
    <path d="M4193.49,160.24c-1.23-2.39-.94-4.2,1.33-4.54,5.71-.84,8.65-5.46,12.7-8.55,8.3-6.32,16.52-12.73,24.88-19a10.49,10.49,0,0,1,5.15-2.15c5.76-.42,7,1.88,8.91,6.8,3.08,7.86,6.37,15.64,9.43,23.52a65.62,65.62,0,0,0,7.86,14c1.48,2.1,1.06,3.34-1.17,4.44-4.82,2.39-10.63.67-14-4.69-2.08-3.29-3.34-7.08-5.16-10.55a3.31,3.31,0,0,0-2.41-1.67q-15.42,1.32-30.8,3a5.83,5.83,0,0,0-3.22,1.75c-3.35,3.47-6.49,7.15-9.83,10.64-2.61,2.72-9,3-12.06.79-1.9-1.36-1.28-2.76-.15-4.06,2.66-3.1,5.42-6.12,8.13-9.17A5.94,5.94,0,0,0,4193.49,160.24Zm41-22L4216.33,153l23.54-2.39Z" transform="translate(-768.5 -0.5)" fill="#030203"/>
    <path d="M4449.56,87.38c.19-12.21-1.83-24,1.41-35.9-5.53,0-10.49.06-15.45,0a20.29,20.29,0,0,1-5.88-.73c-1.12-.37-1.91-1.76-2.85-2.7,1-1,1.83-2.42,3-2.84a16.47,16.47,0,0,1,5.66-.67q24.58.45,49.16,1.06a12.15,12.15,0,0,1,4.65.7c1.24.57,2.11,1.95,3.14,3-1,.94-1.88,2.37-3.06,2.71a21.21,21.21,0,0,1-6.4.59c-6.07-.21-12.13-.61-18.3-.95-3.09,11.55-1,23.28-1.26,35.22h5.73c5.08,0,10.16-.15,15.23,0a9.21,9.21,0,0,1,4.38,1.37c2.06,1.27,2,3-.18,4a14.6,14.6,0,0,1-5.68,1.33c-9.82.26-19.64.26-29.45.49-5.24.13-10.47.7-15.7.78a29,29,0,0,1-7.29-1,3,3,0,0,1-1.82-2.19,3.43,3.43,0,0,1,1.82-2.46,17.79,17.79,0,0,1,5.28-1.1C4440.2,87.72,4444.68,87.6,4449.56,87.38Z" transform="translate(-768.5 -0.5)" fill="#040305"/>
    <path d="M3936.14,44.36c2.4.17,4.81.41,7.22.47a30.29,30.29,0,0,0,3.09-.48A52,52,0,0,1,3954,44a3.76,3.76,0,0,1,2.62,2.12,30.92,30.92,0,0,1,1.55,7c.08.7-.85,1.73-1.57,2.27-3,2.24-8.59,1.83-11.19-.91a10.11,10.11,0,0,0-7.44-3.09c-11.92-.58-21.39,5-30.41,11.74-3.49,2.61-6.59,5.61-8.37,9.81s-.87,8,2.79,10.5c6.36,4.29,13.55,5,20.76,3.7,6.4-1.14,12.63-3.25,18.89-5.08,3.45-1,6.86-2.37,10.37-.65a4.39,4.39,0,0,1,2.33,2.64c.11.77-1.07,2.18-2,2.58-16.29,7.08-33.1,10.44-50.67,5.8a38.56,38.56,0,0,1-11.39-5.57c-7-4.72-7.33-11.21-3.12-18,4.6-7.4,11.65-12,18.93-16.25A57,57,0,0,1,3936.14,44.36Z" transform="translate(-768.5 -0.5)" fill="#030204"/>
    <path d="M4103.69,94.5c-6.88-.12-15.78-1.55-23.61-7-4.87-3.36-7.54-8.61-6.38-12.72A23.51,23.51,0,0,1,4080.07,64c14.69-14,31.77-21.43,52.42-19.12a8.74,8.74,0,0,0,2.63-.32c.72-.15,1.41-.47,2.13-.65,6.15-1.52,9.4.81,10.17,7,.47,3.76-1.74,5.16-4.16,5.57-3.74.64-7.09.15-9.89-3a7.68,7.68,0,0,0-4.55-2c-9.78-1.13-18.34,2.28-26.36,7.48-5.17,3.36-10.3,6.83-13.46,12.31-2.75,4.77-2.44,9.45,3,12.68,6.2,3.66,13,4.32,19.73,3.12,6.4-1.14,12.64-3.21,18.9-5,3.44-1,6.83-2.48,10.36-.71,1,.52,2.45,1.76,2.39,2.57a4.4,4.4,0,0,1-2.34,2.88C4130.94,91.65,4117.56,94.5,4103.69,94.5Z" transform="translate(-768.5 -0.5)" fill="#030204"/>
    <path d="M4272.93,51.44c-4.74,0-9.71.13-14.68,0-4.65-.16-9.29-.59-13.93-1a7.11,7.11,0,0,1-3.07-.89,3.55,3.55,0,0,1-1.71-2.24,3.07,3.07,0,0,1,1.43-2.47,15.09,15.09,0,0,1,5.51-1.18q26.46.36,52.92.94c7.57.16,15.14.37,22.7.72a10.37,10.37,0,0,1,4.64,1.39c2,1.16,1.91,3.22-.18,4a19,19,0,0,1-6.94,1.29c-9.82-.06-19.63-.36-29.45-.57-.89,0-1.78,0-3.25,0l2.27,16.92c0,.33.11.65.14,1,.43,6.1.94,12.2,1.24,18.31.18,3.59-1.61,5.84-5.2,6.15a20.94,20.94,0,0,1-6.8-.86c-2.27-.58-2.36-2.37-1.75-4.37a8.11,8.11,0,0,0,.11-2.69c-.05-1.07-.26-2.13-.34-3.2-.39-5.1-.58-10.23-1.17-15.31S4273.81,57,4272.93,51.44Z" transform="translate(-768.5 -0.5)" fill="#040304"/>
    <path d="M4515.63,90.15c5.53-.28,10.85-.34,16.13-.88,8.94-.91,17.83-2.19,26.76-3.16a22.06,22.06,0,0,1,6.39.38c1.38.26,2.8,1,2.71,3s-1.46,2.3-2.78,2.62a59.25,59.25,0,0,1-8.77,1.78c-13.1,1.13-26.2,2.12-39.32,3.05a37,37,0,0,1-7-.38c-7.87-.95-7.9-4.55-6.81-10.44.09-.47.39-.92.42-1.39.46-6,1-12,1.31-18.06.36-6.69.48-13.4.87-20.08a3.86,3.86,0,0,1,1.7-2.61c2.81-1.69,5.88-1.52,8.89-.51a3.32,3.32,0,0,1,2.49,3.7c-.24,7.32,0,14.67-.46,22-.43,6.28-1.68,12.49-2.55,18.74A21.27,21.27,0,0,0,4515.63,90.15Z" transform="translate(-768.5 -0.5)" fill="#030204"/>
    <path d="M4342.21,369.15q-22.36,10.74-44.72,21.47-34.73,16.64-69.48,33.25-15.72,7.51-31.5,14.87a4.24,4.24,0,0,1-3.14,0q-23.88-10.77-47.68-21.71l-75.29-34.46q-13.59-6.22-27.15-12.48c-.69-.32-1.36-.69-2.61-1.33h301.45Z" transform="translate(-768.5 -0.5)" fill="#fc071c"/>
    <path d="M4197.11,514c11.8,22.33,26.64,42,43.25,60.59h-83.54c7.33-9.74,14.64-19.27,21.76-29A198,198,0,0,0,4197.11,514Z" transform="translate(-768.5 -0.5)" fill="#a37abd"/>
    <path d="M4367.18,270,4379,306.37,4305.65,309c.9-7.93,4.7-14,10.33-18.92,10.31-9.08,22.75-13.83,35.85-17.06C4356.8,271.83,4361.88,271,4367.18,270Z" transform="translate(-768.5 -0.5)" fill="#fcfc00"/>
    <path d="M4400,310.73c10.39-3,20.23-5.78,30.08-8.58,10.09-2.87,20.2-5.68,30.28-8.6a2.83,2.83,0,0,1,3.5,1.07c5,5.83,7,12.62,5.4,19.92-1.45,6.79-5.83,12.11-11.28,16.38-2.4,1.88-4.87,4.6-7.56,4.93-2.5.31-5.4-1.91-8-3.24C4428.46,325.45,4414.53,318.22,4400,310.73Z" transform="translate(-768.5 -0.5)" fill="#fcfc00"/>
    <path d="M4455.23,286.35l-61.76,17.52-11.41-35C4408.06,268.55,4432.56,272,4455.23,286.35Z" transform="translate(-768.5 -0.5)" fill="#fbfb00"/>
    <path d="M4364.12,349.1c5.11-6.37,9.86-12.34,14.67-18.26,3.42-4.22,7-8.3,10.34-12.6,1-1.29,1.74-1.42,3-.76q16.24,8.45,32.5,16.87c4.61,2.39,9.24,4.74,14.54,7.45C4414.5,351,4389.79,352.59,4364.12,349.1Z" transform="translate(-768.5 -0.5)" fill="#fbfb00"/>
    <path d="M4376.1,314c-2.11,2.75-3.9,5.2-5.82,7.56-6.22,7.65-12.54,15.22-18.71,22.91a2.92,2.92,0,0,1-3.68,1.14c-12.1-3.51-23.57-8.24-32.9-17-3.47-3.27-6.49-7-7.89-12.06Z" transform="translate(-768.5 -0.5)" fill="#fbfb00"/>
    <path d="M4117.25,148.56,4118.8,130c8.81-.58,17.62-.74,26,3.06,4.29,1.94,5.72,3.64,4.61,6.82a8.89,8.89,0,0,1-3.68,4.15c-6.06,3.7-12.91,4.36-19.83,4.48C4123.18,148.6,4120.45,148.56,4117.25,148.56Z" transform="translate(-768.5 -0.5)" fill="#a37bbd"/>
    <path d="M4115.36,169.23l.82-13.63c14-.39,27.52.25,40.34,5.48l.17,1.05a74.64,74.64,0,0,1-7.18,3.27c-8.59,2.9-17.57,3.35-26.52,3.81C4120.61,169.33,4118.22,169.23,4115.36,169.23Z" transform="translate(-768.5 -0.5)" fill="#a279bb"/>
    <path d="M4023.74,50c5.59,1.17,12,2,18,3.91,6.57,2.14,8.18,9,6.11,15.45-2.84,8.87-9.77,13.71-17.91,16.52a53.37,53.37,0,0,1-41.84-2.34,15.21,15.21,0,0,1-5.48-4.93c-2.34-3.34-1.28-7.08.45-10.26,5.07-9.33,13.69-14,23.58-16.27C4011.92,50.87,4017.47,50.73,4023.74,50Z" transform="translate(-768.5 -0.5)" fill="#a37bbd"/>
    <path d="M4297.85,131.25c10.3,0,20.61.85,30.23,5.27a34.15,34.15,0,0,1,7.5,5.18c1.74,1.47,1.22,3.11-.65,4.39a27.39,27.39,0,0,1-13.17,4.68c-8.18.71-16.42.84-24.63,1.19a.86.86,0,0,1-.45-.13Z" transform="translate(-768.5 -0.5)" fill="#a37abc"/>
    <path d="M4364.52,72c4-3.31,7.7-6.32,11.38-9.31,1.81-1.47,3.62-3,5.54-4.29.44-.31,1.76-.24,1.87,0,1.47,3.21,2.8,6.48,4.13,9.75a6,6,0,0,1,.12,1.51Z" transform="translate(-768.5 -0.5)" fill="#a078b9"/>
    <path d="M4234.51,138.23l5.36,12.37L4216.33,153Z" transform="translate(-768.5 -0.5)" fill="#a078b9"/>
  </g>
  </g>
  <g id="tur5">
    <g>
    <path d="M3072.5.5h768q0,341.5,0,683h-768Q3072.5,342,3072.5.5Zm760.06,679.06V4.44H3080.44V679.56Z" transform="translate(-768.5 -0.5)" fill="#0a070c"/>
    <path d="M3832.56,679.56H3080.44V4.44h752.12ZM3799.43,102.2H3113.59V257.87h15V205.45h33.55l-16.65,51.69,14.63,1.16a24.46,24.46,0,0,0,1.14-2.47c2.77-8.48,5.55-16.95,8.2-25.46.37-1.2.75-2,1.93-1.42,1.41.64,3.15,1.29,3.92,2.48,5.52,8.42,10.82,17,16.23,25.46.34.54,1.14,1.23,1.63,1.16,4.47-.58,8.92-1.31,13.64-2l-17.32-27.22c10.5-5,13.91-12.6,8.66-23.4h77.35V257.9h15.06v-52.4h42.17l-16.63,51.67c4.84.38,9.14.77,13.45,1a2.33,2.33,0,0,0,1.85-1.15c1.77-5,3.41-10.11,5.06-15.19,1.43-4.42,2.83-8.85,4.45-13.92,1.86,1.31,3.77,2,4.69,3.4,5.47,8.25,10.69,16.68,16.08,25,.52.81,1.73,1.8,2.51,1.71,4.36-.49,8.69-1.29,13.19-2-.62-.94-1.1-1.65-1.56-2.38q-6.68-10.67-13.35-21.35c-2.1-3.38-2.11-3.47,1.19-5.4,6.41-3.75,10-12,5.86-19.48l-1.06-1.92h80.3c0,1.18,0,2.17,0,3.16,0,15.58,0,31.17,0,46.75,0,2,.55,2.86,2.69,2.75a94.71,94.71,0,0,1,10-.07c2.4.13,2.95-.78,2.94-3-.08-15.58,0-31.16,0-46.75,0-1,0-1.91,0-2.82h81.12c-4.9,7.92-4,17.24,8.23,23.51l-17.19,27c4.58.72,8.91,1.46,13.27,2,.61.08,1.57-.67,2-1.29,5.29-8.09,10.66-16.13,15.65-24.41,1.5-2.48,3.35-3.26,5.93-3.62.48,1.67.89,3.32,1.41,4.94,2.28,7,4.54,14,6.93,20.91.45,1.32,1.47,3.49,2.22,3.49,4.53,0,9.06-.52,13.93-.89l-16.6-51.66h35.59v3.2c0,15.5,0,31,0,46.5,0,2.36.74,3.08,3,2.94a81.5,81.5,0,0,1,9.49-.08c2.42.14,3.14-.66,3.13-3.09-.1-15.5,0-31,0-46.5v-3.06h83.64c-2.44,4.55-3.45,9-1.63,13.77s5.64,7.54,10.09,9.58L3707,256c4.71.72,8.88,1.44,13.08,1.94a3,3,0,0,0,2.3-1.21c2.14-3.17,4.1-6.47,6.15-9.7,3.32-5.27,6.71-10.5,10-15.8a5.32,5.32,0,0,1,4.52-2.36c.46,0,1.07,1.85,1.61,2.85a2.89,2.89,0,0,1,.23.43q2.31,6.9,4.61,13.8,2.06,6.2,4.11,12.39l14.74-1.32-16.62-51.62h32.84v52.4h14.86Zm-51.77,498.92-1.18-54a20.84,20.84,0,0,0,9.25,7c8.66,3.53,17.63,3.91,26.7,2.3,5.38-1,10.55-2.66,14.53-6.73,3.49-3.57,3.57-7.87-.08-11.3a22.46,22.46,0,0,0-6.23-4.17c-9.14-4-18.68-4.31-28.33-2.29-6.08,1.27-11.75,3.39-15.56,9.33-.12-1-.24-1.56-.26-2.17-.31-15.28-.69-30.55-.91-45.83q-.58-40.53-1-81.07c-.09-7.5-.06-15-.1-22.49,0-.71-.09-1.42-.12-1.81H3593.49c0,1.25,0,2.14,0,3,.3,15.78.65,31.55.9,47.33q.56,35,1,70.08c.34,24.44.73,48.89,1,73.33.17,16.33.12,32.66.18,49,0,3.39.09,3.48,3.54,3.47q40.61-.15,81.22-.32,31.61-.11,63.23-.18h3.19V610.77c2.72,1.63,5.28,3.57,8.15,4.8,8.6,3.69,17.61,3.92,26.68,2.29,5.29-1,10.38-2.63,14.31-6.63,3.63-3.69,3.7-7.89-.09-11.45a22.54,22.54,0,0,0-6-4.06c-8.12-3.68-16.7-4.14-25.4-2.91C3758.84,593.74,3752.7,595.66,3747.66,601.12Zm-634.06-545c.83,0,1.56.13,2.3.13q51.22,0,102.45,0c2.31,0,3-.73,3-3-.1-10.74,0-21.49,0-32.23,0-3.34,0-3.35-3.33-3.35H3113.6Zm686.73.13V17.81c-.75,0-1.33-.08-1.9-.08q-51.47,0-102.95,0c-2.26,0-2.82.83-2.8,3,.08,10.83,0,21.66,0,32.48,0,3.16,0,3.17,3.25,3.17h104.36ZM3269,57l0-.57h60.38c1.41,0,2.17-.62,2-2.14-.07-.74,0-1.5,0-2.25,0-3.46,0-3.47-3.45-3.47h-56.48c-.84,0-1.68-.08-2.52-.12l0-.44,69-26c-3.09-2.07-5.67-3.89-8.37-5.54a3,3,0,0,0-2.29,0c-9.86,3.65-19.7,7.35-29.54,11q-21.27,8-42.54,16c-5.17,1.95-10.32,3.95-15.33,5.87.89,1.11,2.3,2.1,2.29,3.06s-1.38,2-2.27,3.19l20.84,7.86Q3293.88,76,3327,88.43c.74.28,1.82.61,2.35.28,2.81-1.72,5.5-3.64,8.6-5.75Zm312.57-.63h62l.06.53L3574.33,83c3,1.94,5.47,3.67,8.08,5.23a3.25,3.25,0,0,0,2.45.27c7.93-2.88,15.84-5.86,23.74-8.83L3647.67,65l24.56-9.27c-.64-1.15-1.64-2.16-1.63-3.14s1-2.16,1.57-3.35l-30.65-11.49Q3613.27,27.11,3585,16.51a3,3,0,0,0-2.3,0c-2.73,1.67-5.35,3.52-8.32,5.52l69.25,26.09-.09.51h-62ZM3229.74,476,3299,502l-.16.73h-62.29c0,1.64,0,3,0,4.29,0,3.37,0,3.37,3.44,3.37h58.83l.08.49-69.08,26c2.62,1.77,4.77,3.08,6.74,4.6a4.39,4.39,0,0,0,4.74.7q19-7.26,38.11-14.38,19.29-7.24,38.58-14.46c3.28-1.23,6.53-2.54,9.93-3.86-3.08-3-3.08-3-.2-6.1-.7-.33-1.31-.68-2-.93q-19.29-7.27-38.59-14.51c-15.39-5.8-30.77-11.64-46.18-17.4a4.06,4.06,0,0,0-3,0C3235.34,472.07,3232.9,473.86,3229.74,476Zm544.39-41.66c1.85-.19,5-.3,8.13-.89,5.45-1,10.72-2.68,14.76-6.81,3.38-3.45,3.5-7.86,0-11.18a22.84,22.84,0,0,0-6.21-4.2c-8.11-3.69-16.7-4.14-25.4-2.95-5.61.77-11,2.31-15.44,6.06-1.94,1.64-3.46,3.56-3.53,6.34-.1,4.06,2.41,6.42,5.4,8.34C3758.24,433.12,3765.44,434.1,3774.12,434.32Zm0,61.5c1.8-.18,5-.29,8.07-.88,5.44-1,10.71-2.64,14.76-6.77,3.49-3.57,3.59-7.87,0-11.29a23.26,23.26,0,0,0-6.21-4.18c-8-3.66-16.52-4.07-25.12-2.93-5.69.75-11.16,2.32-15.64,6.14-1.9,1.62-3.51,3.53-3.54,6.34,0,4,2.51,6.39,5.47,8.29C3758.21,494.62,3765.4,495.6,3774.12,495.82Z" transform="translate(-768.5 -0.5)" fill="#a47bbe"/>
    <path d="M3799.43,102.2V257.86h-14.86v-52.4h-32.84l16.62,51.62-14.74,1.32q-2.05-6.19-4.11-12.39-2.3-6.9-4.61-13.8a2.89,2.89,0,0,0-.23-.43c-.54-1-1.15-2.88-1.61-2.85a5.32,5.32,0,0,0-4.52,2.36c-3.26,5.3-6.64,10.53-10,15.8-2,3.24-4,6.53-6.15,9.7a3,3,0,0,1-2.3,1.21c-4.2-.5-8.37-1.22-13.08-1.94l17.33-27.27c-4.45-2-8.24-4.68-10.09-9.58s-.8-9.23,1.63-13.77h-83.64v3.06c0,15.5,0,31,0,46.5,0,2.42-.7,3.22-3.13,3.09a81.5,81.5,0,0,0-9.49.08c-2.28.14-3-.58-3-2.94.1-15.5,0-31,0-46.5v-3.2h-35.59l16.6,51.66c-4.86.37-9.39.89-13.93.89-.75,0-1.77-2.17-2.22-3.49-2.39-6.94-4.65-13.93-6.93-20.91-.53-1.61-.94-3.26-1.41-4.94-2.58.36-4.44,1.14-5.93,3.62-5,8.28-10.36,16.32-15.65,24.41-.41.62-1.37,1.36-2,1.29-4.36-.55-8.69-1.29-13.27-2l17.19-27c-12.27-6.27-13.13-15.59-8.23-23.51h-81.12c0,.91,0,1.87,0,2.82,0,15.58,0,31.17,0,46.75,0,2.24-.53,3.15-2.94,3a94.71,94.71,0,0,0-10,.07c-2.14.11-2.7-.7-2.69-2.75.07-15.58,0-31.16,0-46.75,0-1,0-2,0-3.16h-80.3l1.06,1.92c4.15,7.53.55,15.74-5.86,19.48-3.3,1.93-3.29,2-1.19,5.4q6.65,10.69,13.35,21.35c.46.73.94,1.44,1.56,2.38-4.49.72-8.82,1.51-13.19,2-.78.09-2-.9-2.51-1.71-5.39-8.31-10.61-16.73-16.08-25-.91-1.38-2.83-2.09-4.69-3.4-1.62,5.07-3,9.5-4.45,13.92-1.65,5.08-3.29,10.15-5.06,15.19a2.33,2.33,0,0,1-1.85,1.15c-4.31-.23-8.61-.62-13.45-1l16.63-51.67h-42.17v52.4h-15.06V205.4h-77.35c5.25,10.8,1.84,18.39-8.66,23.4L3206.79,256c-4.71.73-9.17,1.46-13.64,2-.5.06-1.29-.63-1.63-1.16-5.42-8.49-10.71-17-16.23-25.46-.78-1.18-2.51-1.84-3.92-2.48-1.18-.54-1.56.22-1.93,1.42-2.65,8.51-5.43,17-8.2,25.46a24.46,24.46,0,0,1-1.14,2.47l-14.63-1.16,16.65-51.69h-33.55v52.42h-15V102.2Zm-508.93,7.52c0,1.09,0,2,0,2.9,0,27.41.09,54.83,0,82.24,0,2.4.76,2.92,3,2.91q33-.1,66,0c2.21,0,3-.5,3-2.91-.1-21.75-.06-43.5-.06-65.25v-3h15.08v71h70.93V109.72Zm326.07.16h-153v3q0,40.75,0,81.5c0,3.31,0,3.32,3.21,3.32h62c.89,0,1.78-.07,2.93-.12v-3.13q0-31.25,0-62.5c0-4.41,0-4.41,4.53-4.41h7.5c3.51,0,3.51,0,3.51,3.42q0,31.75,0,63.5v3h69.31Zm101,17.83v69.88h66.79V109.8H3632.49v87.79c.54.06.87.13,1.19.13q33.24,0,66.49,0c2,0,2.28-.83,2.27-2.57q-.08-32.24,0-64.49v-3Zm-442.12-18H3128.6v87.75h63.13v-3.44c0-21.58,0-43.15,0-64.73,0-2.12.53-3,2.8-2.89,3.16.16,6.33,0,9.49,0s3.28,0,3.28,3.36q0,32.37,0,64.73v3.05h68.19Zm-89.9,103.66a9.12,9.12,0,0,0-4.13-7,3,3,0,0,0-2.78,0,9.46,9.46,0,0,0-.13,15.47,2.44,2.44,0,0,0,3.31-.11C3184.46,219.81,3185.5,217.26,3185.56,213.42Zm383,.86a8.62,8.62,0,0,0-4-7.82,3,3,0,0,0-2.76-.13c-5.29,3.83-5.82,11.34-.3,15.48a2.56,2.56,0,0,0,3.55-.14A8.74,8.74,0,0,0,3568.51,214.28Zm-223.44,0a39.19,39.19,0,0,0,1.54,5c1.48,3.26,4.65,4.1,6.72,1.76,4-4.5,3.87-9.79-.48-14.17-1.51-1.52-2.91-1.32-4.28-.06A9.85,9.85,0,0,0,3345.07,214.31Zm394.9-.12c-1.31-2.5-2.28-5-3.83-7.09-1.26-1.68-3-1.66-4.81,0a9.91,9.91,0,0,0-.49,13.63c2.24,2.43,3.64,2.5,5.72-.21C3738,218.74,3738.77,216.51,3740,214.2Z" transform="translate(-768.5 -0.5)" fill="#040305"/>
    <path d="M3747.66,601.12c5-5.46,11.18-7.39,17.72-8.31,8.7-1.23,17.28-.77,25.4,2.91a22.54,22.54,0,0,1,6,4.06c3.79,3.56,3.71,7.76.09,11.45-3.93,4-9,5.68-14.31,6.63-9.06,1.63-18.08,1.4-26.68-2.29-2.86-1.23-5.42-3.17-8.15-4.8v22.82h-3.19q-31.61.09-63.23.18-40.61.14-81.22.32c-3.45,0-3.52-.08-3.54-3.47-.05-16.33,0-32.66-.18-49-.25-24.44-.64-48.89-1-73.33q-.49-35-1-70.08c-.25-15.78-.6-31.55-.9-47.33,0-.9,0-1.79,0-3h150.89c0,.39.11,1.1.12,1.81,0,7.5,0,15,.1,22.49q.47,40.53,1,81.07c.22,15.28.59,30.55.91,45.83,0,.61.14,1.22.26,2.17,3.8-5.93,9.47-8.06,15.56-9.33,9.65-2,19.19-1.71,28.33,2.29a22.46,22.46,0,0,1,6.23,4.17c3.65,3.43,3.57,7.73.08,11.3-4,4.07-9.15,5.77-14.53,6.73-9.07,1.61-18,1.23-26.7-2.3a20.84,20.84,0,0,1-9.25-7Zm-138-151.06h121.08c-.36-4.21-.89-7.89-1-11.58-.17-10.41-.16-20.81-.21-31.22,0-4,0-8.09,0-11.87H3608.45Zm120.75,61.76V458h-121.1l1.19,53.85Zm1.18,59.84c0-2.53,0-4.6,0-6.67,0-14.33-.16-28.65-.1-43,0-2.27-.73-2.82-2.83-2.79-9.16.14-18.32.18-27.48.2q-44,.1-88,.16H3611v52.08Zm.88,54.55c.06-.84.12-1.24.12-1.64,0-12.66,0-25.31-.19-38a58.62,58.62,0,0,0-.91-7.18H3611.65v46.8Zm40.25-75.89c3.08-.93,6.22-1.47,9-2.82,3.92-1.92,3.9-5,.06-7a17.85,17.85,0,0,0-17.8.1c-3.32,1.78-3.37,5.11,0,6.8C3766.56,548.72,3769.6,549.32,3772.69,550.33Zm2.25,49.36c-5.2.21-8.73.53-11.68,2.92-2.4,1.94-2.41,3.82-.06,5.78,4.52,3.76,14.78,3.82,19.4.12,2.6-2.08,2.75-4.41-.17-6A42.9,42.9,0,0,0,3774.95,599.68Z" transform="translate(-768.5 -0.5)" fill="#030204"/>
    <path d="M3113.6,56.15V17.72H3218c3.32,0,3.32,0,3.33,3.35,0,10.74-.06,21.49,0,32.23,0,2.29-.68,3-3,3q-51.22-.09-102.45,0C3115.16,56.28,3114.43,56.2,3113.6,56.15Zm92-30.67h-76.9v7.58h76.9Zm-77,23h76.88V41H3128.6Z" transform="translate(-768.5 -0.5)" fill="#08060a"/>
    <path d="M3800.33,56.28H3696c-3.24,0-3.25,0-3.25-3.17,0-10.83,0-21.66,0-32.48,0-2.12.54-3,2.8-3q51.47.08,102.95,0c.57,0,1.15,0,1.9.08ZM3708.43,33h76.9V25.44h-76.9Zm0,15.49h76.9V40.95h-76.9Z" transform="translate(-768.5 -0.5)" fill="#08060a"/>
    <path d="M3269,57l69,26c-3.1,2.11-5.79,4-8.6,5.75-.53.33-1.61,0-2.35-.28Q3293.87,76,3260.76,63.5l-20.84-7.86c.89-1.16,2.25-2.17,2.27-3.19s-1.39-1.95-2.29-3.06c5-1.92,10.16-3.92,15.33-5.87q21.26-8,42.54-16c9.84-3.7,19.68-7.4,29.54-11a3,3,0,0,1,2.29,0c2.7,1.65,5.29,3.47,8.37,5.54l-69,26,0,.44c.84,0,1.68.12,2.52.12H3328c3.44,0,3.44,0,3.45,3.47,0,.75-.06,1.5,0,2.25.14,1.52-.62,2.13-2,2.14H3269Z" transform="translate(-768.5 -0.5)" fill="#019241"/>
    <path d="M3581.55,56.38V48.62h62l.09-.51L3574.39,22c3-2,5.6-3.85,8.32-5.52a3,3,0,0,1,2.3,0q28.27,10.57,56.51,21.23l30.65,11.49c-.6,1.19-1.56,2.26-1.57,3.35s1,2,1.63,3.14L3647.67,65,3608.6,79.68c-7.9,3-15.81,5.94-23.74,8.83a3.25,3.25,0,0,1-2.45-.27c-2.61-1.56-5.11-3.29-8.08-5.23l69.27-26.1-.06-.53Z" transform="translate(-768.5 -0.5)" fill="#019241"/>
    <path d="M3229.74,476c3.17-2.12,5.6-3.9,8.21-5.4a4.06,4.06,0,0,1,3,0c15.41,5.76,30.79,11.6,46.18,17.4q19.29,7.27,38.59,14.51c.65.25,1.26.6,2,.93-2.87,3.14-2.87,3.14.2,6.1-3.4,1.32-6.65,2.63-9.93,3.86q-19.28,7.25-38.58,14.46-19.07,7.16-38.11,14.38a4.39,4.39,0,0,1-4.74-.7c-2-1.53-4.12-2.83-6.74-4.6l69.08-26-.08-.49H3240c-3.44,0-3.44,0-3.44-3.37,0-1.33,0-2.65,0-4.29h62.29l.16-.73Z" transform="translate(-768.5 -0.5)" fill="#019241"/>
    <path d="M3774.12,434.32c-8.68-.22-15.88-1.19-22.24-5.27-3-1.92-5.5-4.28-5.4-8.34.07-2.78,1.58-4.7,3.53-6.34,4.45-3.76,9.83-5.29,15.44-6.06,8.7-1.19,17.28-.75,25.4,2.95a22.84,22.84,0,0,1,6.21,4.2c3.47,3.31,3.36,7.72,0,11.18-4,4.12-9.31,5.77-14.76,6.81C3779.16,434,3776,434.13,3774.12,434.32Zm1-19.14c-5.29.21-8.81.53-11.76,2.87-2.49,2-2.49,3.9,0,5.89,4.64,3.72,14.73,3.73,19.32,0,2.51-2,2.71-4.22,0-5.81A44.12,44.12,0,0,0,3775.08,415.18Z" transform="translate(-768.5 -0.5)" fill="#030203"/>
    <path d="M3774.12,495.82c-8.72-.22-15.91-1.2-22.26-5.28-3-1.91-5.51-4.26-5.47-8.29,0-2.8,1.64-4.72,3.54-6.34,4.49-3.82,10-5.38,15.64-6.14,8.6-1.14,17.1-.73,25.12,2.93a23.26,23.26,0,0,1,6.21,4.18c3.63,3.42,3.53,7.72,0,11.29-4,4.13-9.32,5.73-14.76,6.77C3779.1,495.53,3775.92,495.63,3774.12,495.82Zm-1.09-7c3.08-1,6.12-1.56,8.77-2.89,3.72-1.88,3.71-4.91.05-6.91a17.92,17.92,0,0,0-18,.05c-3.29,1.78-3.34,5.14,0,6.78C3766.69,487.25,3769.89,487.85,3773,488.83Z" transform="translate(-768.5 -0.5)" fill="#030203"/>
    <path d="M3290.51,109.72h157.91v87.87h-70.93v-71h-15.08v3c0,21.75,0,43.5.06,65.25,0,2.4-.76,2.91-3,2.91q-33-.1-66,0c-2.21,0-3-.51-3-2.91.06-27.41,0-54.83,0-82.24C3290.5,111.71,3290.51,110.81,3290.51,109.72Z" transform="translate(-768.5 -0.5)" fill="#a47bbd"/>
    <path d="M3616.58,109.88v87.62h-69.31v-3q0-31.75,0-63.5c0-3.42,0-3.42-3.51-3.42h-7.5c-4.53,0-4.53,0-4.53,4.41q0,31.25,0,62.5v3.13c-1.15.05-2,.12-2.93.12h-62c-3.21,0-3.21,0-3.21-3.32q0-40.75,0-81.5v-3Z" transform="translate(-768.5 -0.5)" fill="#a47bbe"/>
    <path d="M3717.57,127.71h-15.17v3q0,32.24,0,64.49c0,1.74-.32,2.57-2.27,2.57q-33.24-.07-66.49,0c-.33,0-.65-.07-1.19-.13V109.8h151.88v87.8h-66.79Z" transform="translate(-768.5 -0.5)" fill="#a47bbe"/>
    <path d="M3275.46,109.76v87.8h-68.19V194.5q0-32.37,0-64.73c0-3.36,0-3.37-3.28-3.36s-6.34.19-9.49,0c-2.27-.11-2.81.77-2.8,2.89.06,21.58,0,43.15,0,64.73v3.44H3128.6V109.76Z" transform="translate(-768.5 -0.5)" fill="#a47bbe"/>
    <path d="M3185.56,213.42c-.06,3.84-1.1,6.39-3.73,8.32a2.44,2.44,0,0,1-3.31.11,9.46,9.46,0,0,1,.13-15.47,3,3,0,0,1,2.78,0A9.12,9.12,0,0,1,3185.56,213.42Z" transform="translate(-768.5 -0.5)" fill="#9d76b6"/>
    <path d="M3568.51,214.28a8.74,8.74,0,0,1-3.49,7.4,2.56,2.56,0,0,1-3.55.14c-5.53-4.14-5-11.66.3-15.48a3,3,0,0,1,2.76.13A8.62,8.62,0,0,1,3568.51,214.28Z" transform="translate(-768.5 -0.5)" fill="#9d76b6"/>
    <path d="M3345.07,214.31a9.85,9.85,0,0,1,3.5-7.46c1.37-1.26,2.77-1.46,4.28.06,4.35,4.37,4.46,9.67.48,14.17-2.07,2.34-5.24,1.5-6.72-1.76A39.19,39.19,0,0,1,3345.07,214.31Z" transform="translate(-768.5 -0.5)" fill="#9f77b8"/>
    <path d="M3740,214.2c-1.21,2.31-2,4.54-3.4,6.34-2.09,2.71-3.48,2.64-5.72.21a9.91,9.91,0,0,1,.49-13.63c1.77-1.67,3.55-1.69,4.81,0C3737.7,209.18,3738.66,211.7,3740,214.2Z" transform="translate(-768.5 -0.5)" fill="#a078b9"/>
    <path d="M3609.64,450.06l-1.19-54.67h121.11c0,3.78,0,7.82,0,11.87,0,10.41,0,20.82.21,31.22.06,3.69.59,7.37,1,11.58Z" transform="translate(-768.5 -0.5)" fill="#a47bbe"/>
    <path d="M3730.39,511.82H3610.48L3609.29,458h121.1Z" transform="translate(-768.5 -0.5)" fill="#a47bbe"/>
    <path d="M3731.56,571.67H3611V519.59h2.23q44-.08,88-.16c9.16,0,18.32-.06,27.48-.2,2.1,0,2.84.52,2.83,2.79-.06,14.33,0,28.65.1,43C3731.57,567.07,3731.56,569.13,3731.56,571.67Z" transform="translate(-768.5 -0.5)" fill="#a47bbe"/>
    <path d="M3732.44,626.22H3611.65v-46.8h119.81a58.62,58.62,0,0,1,.91,7.18c.15,12.66.15,25.31.19,38C3732.56,625,3732.5,625.38,3732.44,626.22Z" transform="translate(-768.5 -0.5)" fill="#a47bbe"/>
    <path d="M3772.69,550.33c-3.1-1-6.14-1.61-8.8-3-3.34-1.69-3.29-5,0-6.8a17.85,17.85,0,0,1,17.8-.1c3.83,2.08,3.86,5.11-.06,7C3778.91,548.85,3775.77,549.39,3772.69,550.33Z" transform="translate(-768.5 -0.5)" fill="#a27abc"/>
    <path d="M3774.95,599.68a42.9,42.9,0,0,1,7.49,2.79c2.92,1.61,2.77,3.94.17,6-4.63,3.7-14.88,3.64-19.4-.12-2.35-2-2.34-3.83.06-5.78C3766.21,600.21,3769.74,599.89,3774.95,599.68Z" transform="translate(-768.5 -0.5)" fill="#a27abc"/>
    <path d="M3205.57,25.48v7.58h-76.9V25.48Z" transform="translate(-768.5 -0.5)" fill="#a47cbe"/>
    <path d="M3128.6,48.49V41h76.88v7.52Z" transform="translate(-768.5 -0.5)" fill="#a47cbe"/>
    <path d="M3708.43,33V25.44h76.9V33Z" transform="translate(-768.5 -0.5)" fill="#a47cbe"/>
    <path d="M3708.42,48.51V40.95h76.9v7.56Z" transform="translate(-768.5 -0.5)" fill="#a47cbe"/>
    <path d="M3775.08,415.18a44.12,44.12,0,0,1,7.51,3c2.75,1.59,2.55,3.78,0,5.81-4.58,3.71-14.68,3.7-19.32,0-2.48-2-2.48-3.92,0-5.89C3766.28,415.71,3769.79,415.38,3775.08,415.18Z" transform="translate(-768.5 -0.5)" fill="#a27abc"/>
    <path d="M3773,488.83c-3.14-1-6.34-1.58-9.15-3-3.33-1.64-3.28-5,0-6.78a17.92,17.92,0,0,1,18-.05c3.65,2,3.67,5-.05,6.91C3779.15,487.28,3776.12,487.85,3773,488.83Z" transform="translate(-768.5 -0.5)" fill="#a27abc"/>
 </g>
  </g>
      </g>
</svg>

