<svg xmlns="http://www.w3.org/2000/svg" viewBox="0 0 678.67 617">
  <title>cs_logo_gul_small_123</title>
  <g id="Layer_2" data-name="Layer 2">
    <rect x="5.5" y="5.5" width="667.67" height="606" rx="125.99" ry="125.99" fill="#fbb03b" stroke="#000" stroke-miterlimit="10" stroke-width="11" opacity="0.6"/>
    <circle cx="310.67" cy="308.77" r="294.27" fill="#997bbb"/>
    <text transform="translate(614.7 125.59) rotate(90.2)" font-size="72" fill="#333" font-family="MyriadPro-Regular, Myriad Pro">Kon<tspan x="118.51" y="0" letter-spacing="0em">k</tspan><tspan x="152.57" y="0" letter-spacing="0em">u</tspan><tspan x="192.24" y="0" letter-spacing="0em">r</tspan><tspan x="216.07" y="0" letter-spacing="-0.01em">r</tspan><tspan x="238.89" y="0">en</tspan><tspan x="314.92" y="0" letter-spacing="-0.01em">c</tspan><tspan x="346.75" y="0">e</tspan></text>
    <text transform="translate(102.67 491.6)" font-size="43" fill="#4d4d4d" font-family="SourceSansPro-Bold, Source Sans Pro" font-weight="700">21. n<tspan x="91.85" y="0" letter-spacing="-0.01em">ov</tspan><tspan x="137.51" y="0">ember</tspan></text>
    <text transform="translate(182.16 125.59)" font-size="48" fill="#fff" font-family="TimesNewRomanPS-BoldMT, Times New Roman" font-weight="700">Kommunal &amp; <tspan x="24" y="57.6">Regionsvalg</tspan><tspan x="-87.34" y="115.2">98 Byråd 5 Regionsråd</tspan></text>
    <text transform="translate(208.44 308.77)" font-size="25" font-family="SourceSansPro-Bold, Source Sans Pro" font-weight="700" text-decoration="underline"><tspan letter-spacing="-0.03em">k</tspan><tspan x="13" y="0">ommunalbesty</tspan><tspan x="179.67" y="0" letter-spacing="-0.01em">r</tspan><tspan x="189.37" y="0">elser</tspan></text>
    <polygon points="438.17 357.25 466.87 415.42 531.06 424.74 484.61 470.02 495.58 533.95 438.17 503.76 380.75 533.95 391.72 470.02 345.27 424.74 409.46 415.42 438.17 357.25" fill="#333" opacity="0.54"/>
    <text transform="translate(398.7 478.36)" font-size="72" fill="#fff" font-family="TimesNewRomanPS-BoldMT, Times New Roman" font-weight="700">18</text>
    <text transform="translate(85.73 420.59)" font-size="60" font-family="MyriadPro-Semibold, Myriad Pro" font-weight="700"><tspan letter-spacing="-0.02em">T</tspan><tspan x="30.42" y="0">irsdag</tspan></text>
  </g>
</svg>
