<?xml version="1.0" encoding="utf-8"?>
<!-- Generator: Adobe Illustrator 21.1.0, SVG Export Plug-In . SVG Version: 6.00 Build 0)  -->
<svg version="1.1" id="Layer_1" xmlns="http://www.w3.org/2000/svg" xmlns:xlink="http://www.w3.org/1999/xlink" x="0px" y="0px"
	 width="1255.6px" height="182.9px" viewBox="0 0 1255.6 182.9" enable-background="new 0 0 1255.6 182.9" xml:space="preserve">
<title>cs_titel</title>
<g enable-background="new    ">
	<path d="M72.6,28.2c1.7,0,3.2,0.3,4.8,0.9c1.5,0.6,2.9,1.3,4.1,2.3c1.2,1,2.1,2.1,2.8,3.5c0.7,1.3,1,2.8,1,4.3c0,0.7,0,1.4-0.1,2.1
		c-0.1,0.7-0.2,1.2-0.3,1.8c-0.2,0.6-0.3,1.2-0.4,1.6c-3.9,15.2-7.9,30.7-12.1,46.5c-4.2,15.8-8.3,31.3-12.1,46.4
		c-0.9,1.9-2,3.6-3.4,5.1c-1.2,1.3-2.7,2.5-4.7,3.5c-1.9,1.1-4.3,1.6-7.1,1.6h-2.7c-2.8,0-5.2-0.5-7.2-1.6c-1.9-1.1-3.5-2.2-4.7-3.5
		c-1.4-1.5-2.5-3.2-3.3-5.1l-24.3-93c-0.2-0.5-0.3-1-0.4-1.6c-0.3-1.1-0.4-2.4-0.4-3.8c0-1.5,0.3-3,1-4.3c0.7-1.3,1.6-2.5,2.7-3.5
		c1.1-1,2.5-1.7,4-2.3c1.5-0.6,3.2-0.9,5-0.9c2.7,0,4.9,0.6,6.6,1.8c1.7,1.2,3,2.5,4,4c1.1,1.7,1.9,3.6,2.4,5.8
		c0.7,2.7,1.4,5.8,2.2,9.3c0.8,3.4,1.6,7,2.4,10.7c0.8,3.7,1.6,7.5,2.4,11.3c0.8,3.8,1.6,7.6,2.3,11.2c1.8,8.4,3.5,17.1,5.3,25.9
		h2.7c1.9-8.8,3.8-17.5,5.6-25.9c0.7-3.6,1.5-7.3,2.3-11.2c0.8-3.8,1.6-7.6,2.4-11.3c0.8-3.7,1.6-7.3,2.3-10.7
		c0.7-3.4,1.4-6.5,2-9.3c0.6-2.2,1.4-4.1,2.5-5.8c1-1.5,2.3-2.8,3.9-4C67.7,28.8,69.9,28.2,72.6,28.2z"/>
	<path d="M99.1,81.5c0-2.4,0.1-4.7,0.4-7c0.3-2.3,0.8-4.3,1.8-6.1c0.9-1.8,2.2-3.2,3.9-4.4c1.7-1.1,4-1.7,6.9-1.7s5.2,0.6,6.9,1.7
		c1.7,1.1,3,2.6,3.9,4.4c0.9,1.8,1.5,3.8,1.8,6.1c0.3,2.3,0.4,4.6,0.4,7v47.2c0,2.4-0.1,4.7-0.4,7c-0.3,2.3-0.8,4.4-1.8,6.2
		c-0.9,1.8-2.2,3.2-3.9,4.3s-4,1.6-6.9,1.6s-5.2-0.5-6.9-1.6s-3-2.5-3.9-4.3c-0.9-1.8-1.5-3.8-1.8-6.2c-0.3-2.3-0.4-4.7-0.4-7V81.5z
		 M125.3,41.2c0,4.4-1.1,7.6-3.4,9.8c-2.3,2.1-5.5,3.2-9.6,3.2s-7.3-1.1-9.6-3.2c-2.3-2.1-3.4-5.4-3.4-9.8c0-4.6,1.1-7.9,3.4-9.9
		c2.3-2.1,5.5-3.1,9.6-3.1c4.4,0,7.6,1,9.8,3.1C124.2,33.3,125.3,36.6,125.3,41.2z"/>
	<path d="M287.6,99.1c0,0.9-0.1,2-0.2,3.2c-0.1,1.2-0.6,2.4-1.3,3.5c-0.8,1.1-2,2.1-3.6,2.9c-1.7,0.8-4,1.2-7,1.2h-34v8.2
		c0,1.4,0.2,2.8,0.5,4.3c0.3,1.5,0.9,2.8,1.8,4.1c0.8,1.3,1.9,2.3,3.3,3.1c1.4,0.8,3,1.2,5,1.2c2.3,0,4-0.3,5.3-0.8
		c1.2-0.5,2.2-1.2,2.9-2c0.7-0.8,1.4-1.7,1.9-2.6c0.6-0.9,1.3-1.8,2.3-2.6c0.9-0.8,2.2-1.5,3.9-2c1.7-0.5,4-0.8,7-0.8
		c1.4,0,2.8,0.1,4.1,0.3c1.3,0.2,2.5,0.7,3.5,1.3s1.9,1.5,2.5,2.6c0.6,1.1,0.9,2.6,0.9,4.3c0,3.7-1.2,6.8-3.5,9.3
		c-2.3,2.5-5.3,4.5-8.8,5.9c-3.5,1.5-7.4,2.5-11.5,3.2c-4.1,0.6-8,0.9-11.6,0.9c-4.7-0.1-9.2-0.7-13.5-1.8c-4.3-1.1-8-3-11.3-5.5
		c-3.3-2.5-5.9-5.8-7.8-9.8c-1.9-4-2.9-9-2.9-14.9v-20c0-5.4,0.6-10,1.9-13.8c1.3-3.8,2.9-6.9,5-9.4s4.4-4.5,6.9-5.9
		c2.6-1.4,5.2-2.4,7.8-3.1c2.6-0.7,5.1-1.1,7.5-1.3c2.4-0.2,4.4-0.3,6.1-0.3c5.8,0,10.7,0.5,14.7,1.5c4.1,1,7.5,2.4,10.2,4
		c2.7,1.7,4.9,3.6,6.5,5.7c1.6,2.2,2.8,4.4,3.6,6.7c0.8,2.3,1.3,4.6,1.5,7c0.2,2.4,0.3,4.6,0.3,6.6V99.1z M241.5,97.1h21.4
		c0-2.7-0.1-5.1-0.2-7.1c-0.1-2.1-0.6-3.8-1.3-5.3c-0.7-1.4-1.8-2.5-3.3-3.2c-1.5-0.7-3.7-1.1-6.5-1.1c-2.3,0-4.2,0.4-5.5,1.1
		c-1.3,0.7-2.3,1.7-3,2.8c-0.7,1.1-1.1,2.3-1.3,3.5s-0.3,2.4-0.3,3.3V97.1z"/>
	<path d="M360.6,75.2c0,4.4-1.1,7.7-3.3,9.7c-2.2,2.1-5.3,3.1-9.4,3.1c-0.6,0-1.4,0-2.4,0.1c-1.1,0.1-2.2,0.3-3.4,0.7
		c-1.2,0.4-2.4,0.9-3.6,1.6c-1.2,0.7-2.3,1.7-3.4,2.9c-1,1.2-1.9,2.8-2.5,4.7c-0.6,1.9-0.9,4.1-0.9,6.8v24.4c0,2.3-0.1,4.6-0.4,6.8
		c-0.3,2.2-0.8,4.2-1.8,5.9c-0.9,1.7-2.2,3.1-3.9,4.2s-4,1.6-6.9,1.6c-2.8,0-5.1-0.5-6.8-1.6c-1.7-1.1-2.9-2.5-3.8-4.2
		c-0.9-1.7-1.5-3.7-1.7-5.9c-0.3-2.2-0.4-4.5-0.4-6.8V81.3c0-2.4,0.1-4.7,0.4-7c0.3-2.3,0.8-4.3,1.7-6c0.9-1.8,2.1-3.2,3.8-4.2
		c1.7-1.1,3.9-1.6,6.8-1.6c2.9,0,5.1,0.6,6.7,1.9c1.6,1.3,2.7,2.9,3.5,5c0.7,2,1.2,4.3,1.3,6.8c0.1,2.5,0.2,4.9,0.2,7.2h1.4
		c0.8-3.2,1.9-6.1,3.2-8.7c1.3-2.6,2.8-4.8,4.4-6.6c1.6-1.8,3.3-3.2,5.1-4.1c1.8-1,3.6-1.5,5.5-1.5c2.2,0,4,0.2,5.4,0.7
		c1.4,0.5,2.5,1.2,3.3,2.3c0.8,1,1.3,2.3,1.6,3.9C360.4,71,360.6,73,360.6,75.2z"/>
	<path d="M508.4,128.5c0,2.4-0.1,4.7-0.3,7c-0.2,2.3-0.7,4.4-1.5,6.2c-0.9,1.8-2.1,3.3-3.8,4.4c-1.7,1.1-4.1,1.7-7.2,1.7
		c-3.1,0-5.6-0.5-7.3-1.6c-1.8-1.1-3.1-2.3-3.9-3.8c-0.9-1.5-1.4-3.1-1.6-4.7c-0.2-1.7-0.3-3-0.3-4.2c-0.5,1.7-1.2,3.3-2.2,5
		c-0.9,1.7-2.2,3.2-3.6,4.6c-1.5,1.4-3.3,2.5-5.3,3.4c-2.1,0.9-4.5,1.3-7.3,1.3c-3.1,0-6.3-0.5-9.4-1.5c-3.1-1-6-2.7-8.5-5.1
		c-2.5-2.4-4.5-5.5-6.1-9.4c-1.6-3.8-2.3-8.6-2.3-14.2V92.8c0-5.7,0.8-10.5,2.3-14.3c1.6-3.8,3.6-6.9,6.1-9.3
		c2.5-2.4,5.3-4.1,8.5-5.1c3.1-1,6.3-1.5,9.4-1.5c2.8,0,5.2,0.4,7.3,1.3c2.1,0.9,3.9,2,5.3,3.3c1.5,1.4,2.7,2.9,3.6,4.6
		c0.9,1.7,1.7,3.4,2.2,5.1V47.7c0-2.4,0.1-4.9,0.4-7.2c0.3-2.4,0.8-4.4,1.7-6.2c0.9-1.8,2.2-3.2,3.9-4.4c1.7-1.1,4.1-1.7,7.1-1.7
		c2.8,0,5.1,0.6,6.8,1.7c1.7,1.1,3,2.6,3.9,4.4c0.9,1.8,1.5,3.9,1.7,6.2c0.3,2.4,0.4,4.8,0.4,7.2V128.5z M464,115.3
		c0,1.5,0.1,3,0.2,4.5c0.1,1.5,0.4,2.8,0.9,4c0.5,1.2,1.3,2.2,2.3,2.9c1,0.7,2.4,1.1,4.1,1.1c2.2,0,4-0.5,5.4-1.5
		c1.4-1,2.5-2.5,3.3-4.6c0.8-2.1,1.4-4.7,1.7-7.9c0.3-3.2,0.5-6.9,0.6-11.3c0-1.8-0.2-3.8-0.5-6.1c-0.3-2.3-0.9-4.5-1.7-6.5
		c-0.8-2.1-1.9-3.8-3.3-5.2c-1.4-1.4-3.2-2.1-5.5-2.1c-1.8,0-3.1,0.4-4.1,1.1c-1,0.7-1.8,1.6-2.3,2.8c-0.5,1.1-0.8,2.4-0.9,3.9
		c-0.1,1.5-0.2,2.9-0.2,4.4V115.3z"/>
	<path d="M597.8,99.1c0,0.9-0.1,2-0.2,3.2c-0.1,1.2-0.6,2.4-1.3,3.5c-0.8,1.1-2,2.1-3.6,2.9c-1.7,0.8-4,1.2-7,1.2h-34v8.2
		c0,1.4,0.2,2.8,0.5,4.3c0.3,1.5,0.9,2.8,1.8,4.1c0.8,1.3,1.9,2.3,3.3,3.1c1.4,0.8,3,1.2,5,1.2c2.3,0,4-0.3,5.3-0.8
		c1.2-0.5,2.2-1.2,2.9-2c0.7-0.8,1.4-1.7,1.9-2.6c0.6-0.9,1.3-1.8,2.3-2.6c0.9-0.8,2.2-1.5,3.9-2c1.7-0.5,4-0.8,7-0.8
		c1.4,0,2.8,0.1,4.1,0.3c1.3,0.2,2.5,0.7,3.5,1.3s1.9,1.5,2.5,2.6c0.6,1.1,0.9,2.6,0.9,4.3c0,3.7-1.2,6.8-3.5,9.3
		c-2.3,2.5-5.3,4.5-8.8,5.9c-3.5,1.5-7.4,2.5-11.5,3.2c-4.1,0.6-8,0.9-11.6,0.9c-4.7-0.1-9.2-0.7-13.5-1.8c-4.3-1.1-8-3-11.3-5.5
		c-3.3-2.5-5.9-5.8-7.8-9.8c-1.9-4-2.9-9-2.9-14.9v-20c0-5.4,0.6-10,1.9-13.8c1.3-3.8,2.9-6.9,5-9.4s4.4-4.5,6.9-5.9
		c2.6-1.4,5.2-2.4,7.8-3.1c2.6-0.7,5.1-1.1,7.5-1.3c2.4-0.2,4.4-0.3,6.1-0.3c5.8,0,10.7,0.5,14.7,1.5c4.1,1,7.5,2.4,10.2,4
		c2.7,1.7,4.9,3.6,6.5,5.7c1.6,2.2,2.8,4.4,3.6,6.7c0.8,2.3,1.3,4.6,1.5,7c0.2,2.4,0.3,4.6,0.3,6.6V99.1z M551.6,97.1H573
		c0-2.7-0.1-5.1-0.2-7.1c-0.1-2.1-0.6-3.8-1.3-5.3c-0.7-1.4-1.8-2.5-3.3-3.2c-1.5-0.7-3.7-1.1-6.5-1.1c-2.3,0-4.2,0.4-5.5,1.1
		c-1.3,0.7-2.3,1.7-3,2.8c-0.7,1.1-1.1,2.3-1.3,3.5c-0.2,1.3-0.3,2.4-0.3,3.3V97.1z"/>
	<path d="M670.8,75.2c0,4.4-1.1,7.7-3.3,9.7c-2.2,2.1-5.3,3.1-9.4,3.1c-0.6,0-1.4,0-2.4,0.1c-1.1,0.1-2.2,0.3-3.4,0.7
		c-1.2,0.4-2.4,0.9-3.6,1.6c-1.2,0.7-2.3,1.7-3.4,2.9c-1,1.2-1.9,2.8-2.5,4.7c-0.6,1.9-0.9,4.1-0.9,6.8v24.4c0,2.3-0.1,4.6-0.4,6.8
		c-0.3,2.2-0.8,4.2-1.8,5.9c-0.9,1.7-2.2,3.1-3.9,4.2s-4,1.6-6.9,1.6c-2.8,0-5.1-0.5-6.8-1.6c-1.7-1.1-2.9-2.5-3.8-4.2
		c-0.9-1.7-1.5-3.7-1.7-5.9c-0.3-2.2-0.4-4.5-0.4-6.8V81.3c0-2.4,0.1-4.7,0.4-7c0.3-2.3,0.8-4.3,1.7-6c0.9-1.8,2.1-3.2,3.8-4.2
		c1.7-1.1,3.9-1.6,6.8-1.6c2.9,0,5.1,0.6,6.7,1.9c1.6,1.3,2.7,2.9,3.5,5c0.7,2,1.2,4.3,1.3,6.8c0.1,2.5,0.2,4.9,0.2,7.2h1.4
		c0.8-3.2,1.9-6.1,3.2-8.7c1.3-2.6,2.8-4.8,4.4-6.6c1.6-1.8,3.3-3.2,5.1-4.1c1.8-1,3.6-1.5,5.5-1.5c2.2,0,4,0.2,5.4,0.7
		c1.4,0.5,2.5,1.2,3.3,2.3c0.8,1,1.3,2.3,1.6,3.9C670.6,71,670.8,73,670.8,75.2z"/>
	<path d="M789,62.4c1.4,0,2.9,0.1,4.4,0.3c1.5,0.2,2.8,0.6,4,1.3c1.2,0.7,2.1,1.7,2.9,3.2c0.7,1.4,1.1,3.4,1.1,5.9
		c0,2.3-0.4,4.2-1.1,5.5c-0.7,1.3-1.7,2.4-2.9,3.1c-1.2,0.7-2.5,1.2-4,1.4c-1.5,0.2-2.9,0.3-4.4,0.3h-5.1v45.3
		c0,2.5-0.1,4.9-0.4,7.2c-0.3,2.3-0.9,4.4-1.8,6.2c-0.9,1.8-2.3,3.2-4.1,4.3c-1.8,1.1-4.2,1.6-7.2,1.6c-2.9,0-5.2-0.5-6.9-1.6
		c-1.7-1.1-2.9-2.5-3.8-4.3c-0.9-1.8-1.4-3.8-1.6-6.2c-0.2-2.3-0.3-4.7-0.3-7.2V83.2H753c-1.6,0-3.1-0.1-4.6-0.3
		c-1.5-0.2-2.7-0.7-3.8-1.4c-1.1-0.7-2-1.7-2.7-3.1c-0.7-1.3-1-3.2-1-5.5c0-2.5,0.3-4.5,1-5.9c0.7-1.4,1.6-2.5,2.7-3.2
		c1.1-0.7,2.4-1.1,3.8-1.3c1.5-0.2,3-0.3,4.6-0.3h4.8c0-5,0.2-9.6,0.7-13.8c0.5-4.2,1.6-7.8,3.3-10.8c1.8-3,4.4-5.3,7.9-7
		c3.5-1.7,8.2-2.5,14.3-2.5c2.6,0,5,0.2,7.3,0.7c2.3,0.5,4.3,1.2,6,2.1s3.1,2.2,4.1,3.8c1,1.6,1.5,3.5,1.5,5.7
		c0,2.1-0.4,3.8-1.1,5.1c-0.7,1.4-1.6,2.5-2.6,3.3c-1,0.9-2.2,1.5-3.4,1.8c-1.2,0.3-2.3,0.5-3.4,0.5c-0.9,0-1.7-0.2-2.4-0.6
		c-0.7-0.4-1.6-0.6-2.6-0.6c-0.8,0-1.4,0.3-1.8,0.8c-0.4,0.5-0.8,1.2-1,2.1c-0.3,0.9-0.4,1.8-0.5,2.8c-0.1,1-0.1,2.1-0.1,3.1v3.6
		H789z"/>
	<path d="M811.6,94.5c0-5.2,0.7-9.7,2.1-13.3c1.4-3.6,3.3-6.7,5.5-9.1c2.3-2.4,4.8-4.4,7.5-5.7c2.8-1.4,5.5-2.4,8.2-3.1
		s5.2-1.1,7.5-1.3c2.3-0.2,4.1-0.3,5.4-0.3c1.3,0,3.1,0.1,5.4,0.3c2.3,0.2,4.7,0.6,7.3,1.3c2.6,0.7,5.2,1.7,7.9,3.1
		c2.6,1.4,5,3.3,7.2,5.7c2.1,2.4,3.9,5.5,5.3,9.1c1.4,3.6,2.1,8.1,2.1,13.3v21.2c0,5.2-0.7,9.7-2.1,13.3c-1.4,3.6-3.1,6.7-5.3,9.1
		c-2.1,2.5-4.5,4.4-7.2,5.7c-2.6,1.4-5.3,2.4-7.9,3.1c-2.6,0.7-5,1.1-7.3,1.3c-2.3,0.2-4.1,0.3-5.4,0.3c-1.3,0-3.1-0.1-5.4-0.3
		c-2.3-0.2-4.8-0.6-7.5-1.3s-5.4-1.7-8.2-3.1c-2.8-1.4-5.3-3.3-7.5-5.7c-2.3-2.4-4.1-5.5-5.5-9.1c-1.4-3.6-2.1-8.1-2.1-13.3V94.5z
		 M837.9,121.7c0.1,1.7,0.5,3.1,1.2,4.4c0.6,1.1,1.6,2.2,2.9,3c1.3,0.9,3.3,1.3,5.8,1.3c2.4,0,4.2-0.4,5.5-1.3
		c1.3-0.9,2.2-1.9,2.9-3c0.7-1.3,1.1-2.7,1.2-4.4V90.7c-0.1-1.7-0.5-3.3-1.2-4.7c-0.6-1.1-1.6-2.2-2.9-3.2c-1.3-1-3.1-1.5-5.5-1.5
		c-2.5,0-4.4,0.5-5.8,1.5c-1.3,1-2.3,2.1-2.9,3.2c-0.7,1.4-1.1,3-1.2,4.7V121.7z"/>
	<path d="M955.3,75.2c0,4.4-1.1,7.7-3.3,9.7c-2.2,2.1-5.3,3.1-9.4,3.1c-0.6,0-1.4,0-2.4,0.1c-1.1,0.1-2.2,0.3-3.4,0.7
		c-1.2,0.4-2.4,0.9-3.6,1.6c-1.2,0.7-2.3,1.7-3.4,2.9c-1,1.2-1.9,2.8-2.5,4.7c-0.6,1.9-0.9,4.1-0.9,6.8v24.4c0,2.3-0.1,4.6-0.4,6.8
		c-0.3,2.2-0.8,4.2-1.8,5.9c-0.9,1.7-2.2,3.1-3.9,4.2s-4,1.6-6.9,1.6c-2.8,0-5.1-0.5-6.8-1.6c-1.7-1.1-2.9-2.5-3.8-4.2
		c-0.9-1.7-1.5-3.7-1.7-5.9c-0.3-2.2-0.4-4.5-0.4-6.8V81.3c0-2.4,0.1-4.7,0.4-7c0.3-2.3,0.8-4.3,1.7-6c0.9-1.8,2.1-3.2,3.8-4.2
		c1.7-1.1,3.9-1.6,6.8-1.6c2.9,0,5.1,0.6,6.7,1.9c1.6,1.3,2.7,2.9,3.5,5c0.7,2,1.2,4.3,1.3,6.8c0.1,2.5,0.2,4.9,0.2,7.2h1.4
		c0.8-3.2,1.9-6.1,3.2-8.7c1.3-2.6,2.8-4.8,4.4-6.6c1.6-1.8,3.3-3.2,5.1-4.1c1.8-1,3.6-1.5,5.5-1.5c2.2,0,4,0.2,5.4,0.7
		c1.4,0.5,2.5,1.2,3.3,2.3c0.8,1,1.3,2.3,1.6,3.9C955.2,71,955.3,73,955.3,75.2z"/>
	<path d="M1103.1,128.5c0,2.4-0.1,4.7-0.3,7c-0.2,2.3-0.7,4.4-1.5,6.2c-0.9,1.8-2.1,3.3-3.8,4.4c-1.7,1.1-4.1,1.7-7.2,1.7
		c-3.1,0-5.6-0.5-7.3-1.6c-1.8-1.1-3.1-2.3-3.9-3.8c-0.9-1.5-1.4-3.1-1.6-4.7c-0.2-1.7-0.3-3-0.3-4.2c-0.5,1.7-1.2,3.3-2.2,5
		c-0.9,1.7-2.2,3.2-3.6,4.6c-1.5,1.4-3.3,2.5-5.3,3.4c-2.1,0.9-4.5,1.3-7.3,1.3c-3.1,0-6.3-0.5-9.4-1.5c-3.1-1-6-2.7-8.5-5.1
		c-2.5-2.4-4.5-5.5-6.1-9.4c-1.6-3.8-2.3-8.6-2.3-14.2V92.8c0-5.7,0.8-10.5,2.3-14.3c1.6-3.8,3.6-6.9,6.1-9.3
		c2.5-2.4,5.3-4.1,8.5-5.1c3.1-1,6.3-1.5,9.4-1.5c2.8,0,5.2,0.4,7.3,1.3c2.1,0.9,3.9,2,5.3,3.3c1.5,1.4,2.7,2.9,3.6,4.6
		c0.9,1.7,1.7,3.4,2.2,5.1V47.7c0-2.4,0.1-4.9,0.4-7.2c0.3-2.4,0.8-4.4,1.7-6.2c0.9-1.8,2.2-3.2,3.9-4.4c1.7-1.1,4.1-1.7,7.1-1.7
		c2.8,0,5.1,0.6,6.8,1.7c1.7,1.1,3,2.6,3.9,4.4c0.9,1.8,1.5,3.9,1.7,6.2c0.3,2.4,0.4,4.8,0.4,7.2V128.5z M1058.7,115.3
		c0,1.5,0.1,3,0.2,4.5c0.1,1.5,0.4,2.8,0.9,4c0.5,1.2,1.3,2.2,2.3,2.9c1,0.7,2.4,1.1,4.1,1.1c2.2,0,4-0.5,5.4-1.5
		c1.4-1,2.5-2.5,3.3-4.6c0.8-2.1,1.4-4.7,1.7-7.9c0.3-3.2,0.5-6.9,0.6-11.3c0-1.8-0.2-3.8-0.5-6.1c-0.3-2.3-0.9-4.5-1.7-6.5
		c-0.8-2.1-1.9-3.8-3.3-5.2c-1.4-1.4-3.2-2.1-5.5-2.1c-1.8,0-3.1,0.4-4.1,1.1c-1,0.7-1.8,1.6-2.3,2.8c-0.5,1.1-0.8,2.4-0.9,3.9
		c-0.1,1.5-0.2,2.9-0.2,4.4V115.3z"/>
	<path d="M1125.7,81.5c0-2.4,0.1-4.7,0.4-7c0.3-2.3,0.8-4.3,1.8-6.1c0.9-1.8,2.2-3.2,3.9-4.4c1.7-1.1,4-1.7,6.9-1.7s5.2,0.6,6.9,1.7
		c1.7,1.1,3,2.6,3.9,4.4c0.9,1.8,1.5,3.8,1.8,6.1c0.3,2.3,0.4,4.6,0.4,7v47.2c0,2.4-0.1,4.7-0.4,7c-0.3,2.3-0.8,4.4-1.8,6.2
		c-0.9,1.8-2.2,3.2-3.9,4.3s-4,1.6-6.9,1.6s-5.2-0.5-6.9-1.6s-3-2.5-3.9-4.3c-0.9-1.8-1.5-3.8-1.8-6.2c-0.3-2.3-0.4-4.7-0.4-7V81.5z
		 M1151.8,41.2c0,4.4-1.1,7.6-3.4,9.8c-2.3,2.1-5.5,3.2-9.6,3.2s-7.3-1.1-9.6-3.2c-2.3-2.1-3.4-5.4-3.4-9.8c0-4.6,1.1-7.9,3.4-9.9
		c2.3-2.1,5.5-3.1,9.6-3.1c4.4,0,7.6,1,9.8,3.1C1150.8,33.3,1151.8,36.6,1151.8,41.2z"/>
	<path d="M1244.8,150.4c0,5.1-0.7,9.5-2.1,13c-1.4,3.5-3.2,6.5-5.3,8.8c-2.2,2.3-4.6,4.2-7.2,5.5c-2.6,1.3-5.2,2.3-7.8,2.9
		c-2.5,0.7-4.9,1.1-7,1.2c-2.1,0.1-3.7,0.2-4.8,0.2c-4,0-8.1-0.3-12.1-0.9c-4-0.6-7.7-1.6-11.1-3.2c-3.3-1.5-6.1-3.6-8.3-6.2
		c-2.2-2.6-3.4-6-3.7-10.1c0-0.7,0.1-1.5,0.3-2.3c0.2-0.9,0.7-1.7,1.5-2.4c0.8-0.8,2-1.4,3.6-2c1.6-0.5,3.8-0.8,6.5-0.8
		c3.3,0,5.8,0.3,7.6,0.8c1.8,0.5,3.1,1.2,3.9,2c0.9,0.8,1.4,1.6,1.7,2.5c0.3,0.9,0.5,1.7,0.8,2.4c0.5,1.2,1.4,2,2.7,2.5
		c1.3,0.5,3.2,0.7,5.5,0.7c2.1,0,3.8-0.5,5-1.5c1.2-1,2.1-2.1,2.8-3.5c0.6-1.3,1-2.7,1.2-4.1c0.2-1.4,0.3-2.6,0.3-3.5v-19.1
		c-0.5,1.7-1.2,3.4-2.2,5.1c-0.9,1.7-2.2,3.2-3.6,4.6c-1.5,1.4-3.3,2.5-5.3,3.3c-2.1,0.9-4.5,1.3-7.3,1.3c-3.1,0-6.3-0.5-9.4-1.5
		c-3.1-1-6-2.7-8.5-5.1c-2.5-2.4-4.6-5.5-6.2-9.4c-1.6-3.9-2.4-8.7-2.4-14.4V92.6c0-5.6,0.8-10.4,2.4-14.2c1.6-3.8,3.7-7,6.2-9.4
		c2.5-2.4,5.4-4.1,8.5-5.1c3.1-1,6.3-1.5,9.4-1.5c2.8,0,5.2,0.4,7.3,1.3c2.1,0.9,3.9,2,5.3,3.4c1.5,1.4,2.7,2.9,3.6,4.6
		c0.9,1.7,1.7,3.4,2.2,5c0-1.1,0.1-2.5,0.3-4.2c0.2-1.7,0.7-3.2,1.6-4.7c0.9-1.5,2.2-2.8,3.9-3.8c1.8-1.1,4.2-1.6,7.3-1.6
		c3.1,0,5.5,0.6,7.2,1.7c1.7,1.1,3,2.6,3.8,4.4c0.9,1.8,1.4,3.9,1.5,6.2c0.2,2.3,0.3,4.7,0.3,7V150.4z M1200.4,115.5
		c0,1.5,0.1,3,0.2,4.4c0.1,1.5,0.4,2.8,0.9,4c0.5,1.2,1.3,2.1,2.3,2.8c1,0.7,2.4,1.1,4.1,1.1c2.2,0,4-0.7,5.5-2.1
		c1.4-1.4,2.5-3.2,3.3-5.3c0.8-2.1,1.4-4.3,1.7-6.6c0.3-2.3,0.5-4.4,0.5-6.2c-0.1-4.3-0.2-8.1-0.6-11.3c-0.3-3.2-0.9-5.8-1.7-7.9
		c-0.8-2.1-1.9-3.6-3.3-4.6c-1.4-1-3.2-1.5-5.4-1.5c-1.8,0-3.1,0.4-4.1,1.1c-1,0.7-1.8,1.7-2.3,2.9c-0.5,1.2-0.8,2.5-0.9,4
		c-0.1,1.5-0.2,3-0.2,4.5V115.5z"/>
</g>
<g enable-background="new    ">
	<path fill="none" stroke="#FFFFFF" stroke-miterlimit="10" d="M72.6,28.2c1.7,0,3.2,0.3,4.8,0.9c1.5,0.6,2.9,1.3,4.1,2.3
		c1.2,1,2.1,2.1,2.8,3.5c0.7,1.3,1,2.8,1,4.3c0,0.7,0,1.4-0.1,2.1c-0.1,0.7-0.2,1.2-0.3,1.8c-0.2,0.6-0.3,1.2-0.4,1.6
		c-3.9,15.2-7.9,30.7-12.1,46.5c-4.2,15.8-8.3,31.3-12.1,46.4c-0.9,1.9-2,3.6-3.4,5.1c-1.2,1.3-2.7,2.5-4.7,3.5
		c-1.9,1.1-4.3,1.6-7.1,1.6h-2.7c-2.8,0-5.2-0.5-7.2-1.6c-1.9-1.1-3.5-2.2-4.7-3.5c-1.4-1.5-2.5-3.2-3.3-5.1l-24.3-93
		c-0.2-0.5-0.3-1-0.4-1.6c-0.3-1.1-0.4-2.4-0.4-3.8c0-1.5,0.3-3,1-4.3c0.7-1.3,1.6-2.5,2.7-3.5c1.1-1,2.5-1.7,4-2.3
		c1.5-0.6,3.2-0.9,5-0.9c2.7,0,4.9,0.6,6.6,1.8c1.7,1.2,3,2.5,4,4c1.1,1.7,1.9,3.6,2.4,5.8c0.7,2.7,1.4,5.8,2.2,9.3
		c0.8,3.4,1.6,7,2.4,10.7c0.8,3.7,1.6,7.5,2.4,11.3c0.8,3.8,1.6,7.6,2.3,11.2c1.8,8.4,3.5,17.1,5.3,25.9h2.7
		c1.9-8.8,3.8-17.5,5.6-25.9c0.7-3.6,1.5-7.3,2.3-11.2c0.8-3.8,1.6-7.6,2.4-11.3c0.8-3.7,1.6-7.3,2.3-10.7c0.7-3.4,1.4-6.5,2-9.3
		c0.6-2.2,1.4-4.1,2.5-5.8c1-1.5,2.3-2.8,3.9-4C67.7,28.8,69.9,28.2,72.6,28.2z"/>
	<path fill="none" stroke="#FFFFFF" stroke-miterlimit="10" d="M99.1,81.5c0-2.4,0.1-4.7,0.4-7c0.3-2.3,0.8-4.3,1.8-6.1
		c0.9-1.8,2.2-3.2,3.9-4.4c1.7-1.1,4-1.7,6.9-1.7s5.2,0.6,6.9,1.7c1.7,1.1,3,2.6,3.9,4.4c0.9,1.8,1.5,3.8,1.8,6.1
		c0.3,2.3,0.4,4.6,0.4,7v47.2c0,2.4-0.1,4.7-0.4,7c-0.3,2.3-0.8,4.4-1.8,6.2c-0.9,1.8-2.2,3.2-3.9,4.3s-4,1.6-6.9,1.6
		s-5.2-0.5-6.9-1.6s-3-2.5-3.9-4.3c-0.9-1.8-1.5-3.8-1.8-6.2c-0.3-2.3-0.4-4.7-0.4-7V81.5z M125.3,41.2c0,4.4-1.1,7.6-3.4,9.8
		c-2.3,2.1-5.5,3.2-9.6,3.2s-7.3-1.1-9.6-3.2c-2.3-2.1-3.4-5.4-3.4-9.8c0-4.6,1.1-7.9,3.4-9.9c2.3-2.1,5.5-3.1,9.6-3.1
		c4.4,0,7.6,1,9.8,3.1C124.2,33.3,125.3,36.6,125.3,41.2z"/>
	<path fill="none" stroke="#FFFFFF" stroke-miterlimit="10" d="M287.6,99.1c0,0.9-0.1,2-0.2,3.2c-0.1,1.2-0.6,2.4-1.3,3.5
		c-0.8,1.1-2,2.1-3.6,2.9c-1.7,0.8-4,1.2-7,1.2h-34v8.2c0,1.4,0.2,2.8,0.5,4.3c0.3,1.5,0.9,2.8,1.8,4.1c0.8,1.3,1.9,2.3,3.3,3.1
		c1.4,0.8,3,1.2,5,1.2c2.3,0,4-0.3,5.3-0.8c1.2-0.5,2.2-1.2,2.9-2c0.7-0.8,1.4-1.7,1.9-2.6c0.6-0.9,1.3-1.8,2.3-2.6
		c0.9-0.8,2.2-1.5,3.9-2c1.7-0.5,4-0.8,7-0.8c1.4,0,2.8,0.1,4.1,0.3c1.3,0.2,2.5,0.7,3.5,1.3s1.9,1.5,2.5,2.6
		c0.6,1.1,0.9,2.6,0.9,4.3c0,3.7-1.2,6.8-3.5,9.3c-2.3,2.5-5.3,4.5-8.8,5.9c-3.5,1.5-7.4,2.5-11.5,3.2c-4.1,0.6-8,0.9-11.6,0.9
		c-4.7-0.1-9.2-0.7-13.5-1.8c-4.3-1.1-8-3-11.3-5.5c-3.3-2.5-5.9-5.8-7.8-9.8c-1.9-4-2.9-9-2.9-14.9v-20c0-5.4,0.6-10,1.9-13.8
		c1.3-3.8,2.9-6.9,5-9.4s4.4-4.5,6.9-5.9c2.6-1.4,5.2-2.4,7.8-3.1c2.6-0.7,5.1-1.1,7.5-1.3c2.4-0.2,4.4-0.3,6.1-0.3
		c5.8,0,10.7,0.5,14.7,1.5c4.1,1,7.5,2.4,10.2,4c2.7,1.7,4.9,3.6,6.5,5.7c1.6,2.2,2.8,4.4,3.6,6.7c0.8,2.3,1.3,4.6,1.5,7
		c0.2,2.4,0.3,4.6,0.3,6.6V99.1z M241.5,97.1h21.4c0-2.7-0.1-5.1-0.2-7.1c-0.1-2.1-0.6-3.8-1.3-5.3c-0.7-1.4-1.8-2.5-3.3-3.2
		c-1.5-0.7-3.7-1.1-6.5-1.1c-2.3,0-4.2,0.4-5.5,1.1c-1.3,0.7-2.3,1.7-3,2.8c-0.7,1.1-1.1,2.3-1.3,3.5s-0.3,2.4-0.3,3.3V97.1z"/>
	<path fill="none" stroke="#FFFFFF" stroke-miterlimit="10" d="M360.6,75.2c0,4.4-1.1,7.7-3.3,9.7c-2.2,2.1-5.3,3.1-9.4,3.1
		c-0.6,0-1.4,0-2.4,0.1c-1.1,0.1-2.2,0.3-3.4,0.7c-1.2,0.4-2.4,0.9-3.6,1.6c-1.2,0.7-2.3,1.7-3.4,2.9c-1,1.2-1.9,2.8-2.5,4.7
		c-0.6,1.9-0.9,4.1-0.9,6.8v24.4c0,2.3-0.1,4.6-0.4,6.8c-0.3,2.2-0.8,4.2-1.8,5.9c-0.9,1.7-2.2,3.1-3.9,4.2s-4,1.6-6.9,1.6
		c-2.8,0-5.1-0.5-6.8-1.6c-1.7-1.1-2.9-2.5-3.8-4.2c-0.9-1.7-1.5-3.7-1.7-5.9c-0.3-2.2-0.4-4.5-0.4-6.8V81.3c0-2.4,0.1-4.7,0.4-7
		c0.3-2.3,0.8-4.3,1.7-6c0.9-1.8,2.1-3.2,3.8-4.2c1.7-1.1,3.9-1.6,6.8-1.6c2.9,0,5.1,0.6,6.7,1.9c1.6,1.3,2.7,2.9,3.5,5
		c0.7,2,1.2,4.3,1.3,6.8c0.1,2.5,0.2,4.9,0.2,7.2h1.4c0.8-3.2,1.9-6.1,3.2-8.7c1.3-2.6,2.8-4.8,4.4-6.6c1.6-1.8,3.3-3.2,5.1-4.1
		c1.8-1,3.6-1.5,5.5-1.5c2.2,0,4,0.2,5.4,0.7c1.4,0.5,2.5,1.2,3.3,2.3c0.8,1,1.3,2.3,1.6,3.9C360.4,71,360.6,73,360.6,75.2z"/>
	<path fill="none" stroke="#FFFFFF" stroke-miterlimit="10" d="M508.4,128.5c0,2.4-0.1,4.7-0.3,7c-0.2,2.3-0.7,4.4-1.5,6.2
		c-0.9,1.8-2.1,3.3-3.8,4.4c-1.7,1.1-4.1,1.7-7.2,1.7c-3.1,0-5.6-0.5-7.3-1.6c-1.8-1.1-3.1-2.3-3.9-3.8c-0.9-1.5-1.4-3.1-1.6-4.7
		c-0.2-1.7-0.3-3-0.3-4.2c-0.5,1.7-1.2,3.3-2.2,5c-0.9,1.7-2.2,3.2-3.6,4.6c-1.5,1.4-3.3,2.5-5.3,3.4c-2.1,0.9-4.5,1.3-7.3,1.3
		c-3.1,0-6.3-0.5-9.4-1.5c-3.1-1-6-2.7-8.5-5.1c-2.5-2.4-4.5-5.5-6.1-9.4c-1.6-3.8-2.3-8.6-2.3-14.2V92.8c0-5.7,0.8-10.5,2.3-14.3
		c1.6-3.8,3.6-6.9,6.1-9.3c2.5-2.4,5.3-4.1,8.5-5.1c3.1-1,6.3-1.5,9.4-1.5c2.8,0,5.2,0.4,7.3,1.3c2.1,0.9,3.9,2,5.3,3.3
		c1.5,1.4,2.7,2.9,3.6,4.6c0.9,1.7,1.7,3.4,2.2,5.1V47.7c0-2.4,0.1-4.9,0.4-7.2c0.3-2.4,0.8-4.4,1.7-6.2c0.9-1.8,2.2-3.2,3.9-4.4
		c1.7-1.1,4.1-1.7,7.1-1.7c2.8,0,5.1,0.6,6.8,1.7c1.7,1.1,3,2.6,3.9,4.4c0.9,1.8,1.5,3.9,1.7,6.2c0.3,2.4,0.4,4.8,0.4,7.2V128.5z
		 M464,115.3c0,1.5,0.1,3,0.2,4.5c0.1,1.5,0.4,2.8,0.9,4c0.5,1.2,1.3,2.2,2.3,2.9c1,0.7,2.4,1.1,4.1,1.1c2.2,0,4-0.5,5.4-1.5
		c1.4-1,2.5-2.5,3.3-4.6c0.8-2.1,1.4-4.7,1.7-7.9c0.3-3.2,0.5-6.9,0.6-11.3c0-1.8-0.2-3.8-0.5-6.1c-0.3-2.3-0.9-4.5-1.7-6.5
		c-0.8-2.1-1.9-3.8-3.3-5.2c-1.4-1.4-3.2-2.1-5.5-2.1c-1.8,0-3.1,0.4-4.1,1.1c-1,0.7-1.8,1.6-2.3,2.8c-0.5,1.1-0.8,2.4-0.9,3.9
		c-0.1,1.5-0.2,2.9-0.2,4.4V115.3z"/>
	<path fill="none" stroke="#FFFFFF" stroke-miterlimit="10" d="M597.8,99.1c0,0.9-0.1,2-0.2,3.2c-0.1,1.2-0.6,2.4-1.3,3.5
		c-0.8,1.1-2,2.1-3.6,2.9c-1.7,0.8-4,1.2-7,1.2h-34v8.2c0,1.4,0.2,2.8,0.5,4.3c0.3,1.5,0.9,2.8,1.8,4.1c0.8,1.3,1.9,2.3,3.3,3.1
		c1.4,0.8,3,1.2,5,1.2c2.3,0,4-0.3,5.3-0.8c1.2-0.5,2.2-1.2,2.9-2c0.7-0.8,1.4-1.7,1.9-2.6c0.6-0.9,1.3-1.8,2.3-2.6
		c0.9-0.8,2.2-1.5,3.9-2c1.7-0.5,4-0.8,7-0.8c1.4,0,2.8,0.1,4.1,0.3c1.3,0.2,2.5,0.7,3.5,1.3s1.9,1.5,2.5,2.6
		c0.6,1.1,0.9,2.6,0.9,4.3c0,3.7-1.2,6.8-3.5,9.3c-2.3,2.5-5.3,4.5-8.8,5.9c-3.5,1.5-7.4,2.5-11.5,3.2c-4.1,0.6-8,0.9-11.6,0.9
		c-4.7-0.1-9.2-0.7-13.5-1.8c-4.3-1.1-8-3-11.3-5.5c-3.3-2.5-5.9-5.8-7.8-9.8c-1.9-4-2.9-9-2.9-14.9v-20c0-5.4,0.6-10,1.9-13.8
		c1.3-3.8,2.9-6.9,5-9.4s4.4-4.5,6.9-5.9c2.6-1.4,5.2-2.4,7.8-3.1c2.6-0.7,5.1-1.1,7.5-1.3c2.4-0.2,4.4-0.3,6.1-0.3
		c5.8,0,10.7,0.5,14.7,1.5c4.1,1,7.5,2.4,10.2,4c2.7,1.7,4.9,3.6,6.5,5.7c1.6,2.2,2.8,4.4,3.6,6.7c0.8,2.3,1.3,4.6,1.5,7
		c0.2,2.4,0.3,4.6,0.3,6.6V99.1z M551.6,97.1H573c0-2.7-0.1-5.1-0.2-7.1c-0.1-2.1-0.6-3.8-1.3-5.3c-0.7-1.4-1.8-2.5-3.3-3.2
		c-1.5-0.7-3.7-1.1-6.5-1.1c-2.3,0-4.2,0.4-5.5,1.1c-1.3,0.7-2.3,1.7-3,2.8c-0.7,1.1-1.1,2.3-1.3,3.5c-0.2,1.3-0.3,2.4-0.3,3.3V97.1
		z"/>
	<path fill="none" stroke="#FFFFFF" stroke-miterlimit="10" d="M670.8,75.2c0,4.4-1.1,7.7-3.3,9.7c-2.2,2.1-5.3,3.1-9.4,3.1
		c-0.6,0-1.4,0-2.4,0.1c-1.1,0.1-2.2,0.3-3.4,0.7c-1.2,0.4-2.4,0.9-3.6,1.6c-1.2,0.7-2.3,1.7-3.4,2.9c-1,1.2-1.9,2.8-2.5,4.7
		c-0.6,1.9-0.9,4.1-0.9,6.8v24.4c0,2.3-0.1,4.6-0.4,6.8c-0.3,2.2-0.8,4.2-1.8,5.9c-0.9,1.7-2.2,3.1-3.9,4.2s-4,1.6-6.9,1.6
		c-2.8,0-5.1-0.5-6.8-1.6c-1.7-1.1-2.9-2.5-3.8-4.2c-0.9-1.7-1.5-3.7-1.7-5.9c-0.3-2.2-0.4-4.5-0.4-6.8V81.3c0-2.4,0.1-4.7,0.4-7
		c0.3-2.3,0.8-4.3,1.7-6c0.9-1.8,2.1-3.2,3.8-4.2c1.7-1.1,3.9-1.6,6.8-1.6c2.9,0,5.1,0.6,6.7,1.9c1.6,1.3,2.7,2.9,3.5,5
		c0.7,2,1.2,4.3,1.3,6.8c0.1,2.5,0.2,4.9,0.2,7.2h1.4c0.8-3.2,1.9-6.1,3.2-8.7c1.3-2.6,2.8-4.8,4.4-6.6c1.6-1.8,3.3-3.2,5.1-4.1
		c1.8-1,3.6-1.5,5.5-1.5c2.2,0,4,0.2,5.4,0.7c1.4,0.5,2.5,1.2,3.3,2.3c0.8,1,1.3,2.3,1.6,3.9C670.6,71,670.8,73,670.8,75.2z"/>
	<path fill="none" stroke="#FFFFFF" stroke-miterlimit="10" d="M789,62.4c1.4,0,2.9,0.1,4.4,0.3c1.5,0.2,2.8,0.6,4,1.3
		c1.2,0.7,2.1,1.7,2.9,3.2c0.7,1.4,1.1,3.4,1.1,5.9c0,2.3-0.4,4.2-1.1,5.5c-0.7,1.3-1.7,2.4-2.9,3.1c-1.2,0.7-2.5,1.2-4,1.4
		c-1.5,0.2-2.9,0.3-4.4,0.3h-5.1v45.3c0,2.5-0.1,4.9-0.4,7.2c-0.3,2.3-0.9,4.4-1.8,6.2c-0.9,1.8-2.3,3.2-4.1,4.3
		c-1.8,1.1-4.2,1.6-7.2,1.6c-2.9,0-5.2-0.5-6.9-1.6c-1.7-1.1-2.9-2.5-3.8-4.3c-0.9-1.8-1.4-3.8-1.6-6.2c-0.2-2.3-0.3-4.7-0.3-7.2
		V83.2H753c-1.6,0-3.1-0.1-4.6-0.3c-1.5-0.2-2.7-0.7-3.8-1.4c-1.1-0.7-2-1.7-2.7-3.1c-0.7-1.3-1-3.2-1-5.5c0-2.5,0.3-4.5,1-5.9
		c0.7-1.4,1.6-2.5,2.7-3.2c1.1-0.7,2.4-1.1,3.8-1.3c1.5-0.2,3-0.3,4.6-0.3h4.8c0-5,0.2-9.6,0.7-13.8c0.5-4.2,1.6-7.8,3.3-10.8
		c1.8-3,4.4-5.3,7.9-7c3.5-1.7,8.2-2.5,14.3-2.5c2.6,0,5,0.2,7.3,0.7c2.3,0.5,4.3,1.2,6,2.1s3.1,2.2,4.1,3.8c1,1.6,1.5,3.5,1.5,5.7
		c0,2.1-0.4,3.8-1.1,5.1c-0.7,1.4-1.6,2.5-2.6,3.3c-1,0.9-2.2,1.5-3.4,1.8c-1.2,0.3-2.3,0.5-3.4,0.5c-0.9,0-1.7-0.2-2.4-0.6
		c-0.7-0.4-1.6-0.6-2.6-0.6c-0.8,0-1.4,0.3-1.8,0.8c-0.4,0.5-0.8,1.2-1,2.1c-0.3,0.9-0.4,1.8-0.5,2.8c-0.1,1-0.1,2.1-0.1,3.1v3.6
		H789z"/>
	<path fill="none" stroke="#FFFFFF" stroke-miterlimit="10" d="M811.6,94.5c0-5.2,0.7-9.7,2.1-13.3c1.4-3.6,3.3-6.7,5.5-9.1
		c2.3-2.4,4.8-4.4,7.5-5.7c2.8-1.4,5.5-2.4,8.2-3.1s5.2-1.1,7.5-1.3c2.3-0.2,4.1-0.3,5.4-0.3c1.3,0,3.1,0.1,5.4,0.3
		c2.3,0.2,4.7,0.6,7.3,1.3c2.6,0.7,5.2,1.7,7.9,3.1c2.6,1.4,5,3.3,7.2,5.7c2.1,2.4,3.9,5.5,5.3,9.1c1.4,3.6,2.1,8.1,2.1,13.3v21.2
		c0,5.2-0.7,9.7-2.1,13.3c-1.4,3.6-3.1,6.7-5.3,9.1c-2.1,2.5-4.5,4.4-7.2,5.7c-2.6,1.4-5.3,2.4-7.9,3.1c-2.6,0.7-5,1.1-7.3,1.3
		c-2.3,0.2-4.1,0.3-5.4,0.3c-1.3,0-3.1-0.1-5.4-0.3c-2.3-0.2-4.8-0.6-7.5-1.3s-5.4-1.7-8.2-3.1c-2.8-1.4-5.3-3.3-7.5-5.7
		c-2.3-2.4-4.1-5.5-5.5-9.1c-1.4-3.6-2.1-8.1-2.1-13.3V94.5z M837.9,121.7c0.1,1.7,0.5,3.1,1.2,4.4c0.6,1.1,1.6,2.2,2.9,3
		c1.3,0.9,3.3,1.3,5.8,1.3c2.4,0,4.2-0.4,5.5-1.3c1.3-0.9,2.2-1.9,2.9-3c0.7-1.3,1.1-2.7,1.2-4.4V90.7c-0.1-1.7-0.5-3.3-1.2-4.7
		c-0.6-1.1-1.6-2.2-2.9-3.2c-1.3-1-3.1-1.5-5.5-1.5c-2.5,0-4.4,0.5-5.8,1.5c-1.3,1-2.3,2.1-2.9,3.2c-0.7,1.4-1.1,3-1.2,4.7V121.7z"
		/>
	<path fill="none" stroke="#FFFFFF" stroke-miterlimit="10" d="M955.3,75.2c0,4.4-1.1,7.7-3.3,9.7c-2.2,2.1-5.3,3.1-9.4,3.1
		c-0.6,0-1.4,0-2.4,0.1c-1.1,0.1-2.2,0.3-3.4,0.7c-1.2,0.4-2.4,0.9-3.6,1.6c-1.2,0.7-2.3,1.7-3.4,2.9c-1,1.2-1.9,2.8-2.5,4.7
		c-0.6,1.9-0.9,4.1-0.9,6.8v24.4c0,2.3-0.1,4.6-0.4,6.8c-0.3,2.2-0.8,4.2-1.8,5.9c-0.9,1.7-2.2,3.1-3.9,4.2s-4,1.6-6.9,1.6
		c-2.8,0-5.1-0.5-6.8-1.6c-1.7-1.1-2.9-2.5-3.8-4.2c-0.9-1.7-1.5-3.7-1.7-5.9c-0.3-2.2-0.4-4.5-0.4-6.8V81.3c0-2.4,0.1-4.7,0.4-7
		c0.3-2.3,0.8-4.3,1.7-6c0.9-1.8,2.1-3.2,3.8-4.2c1.7-1.1,3.9-1.6,6.8-1.6c2.9,0,5.1,0.6,6.7,1.9c1.6,1.3,2.7,2.9,3.5,5
		c0.7,2,1.2,4.3,1.3,6.8c0.1,2.5,0.2,4.9,0.2,7.2h1.4c0.8-3.2,1.9-6.1,3.2-8.7c1.3-2.6,2.8-4.8,4.4-6.6c1.6-1.8,3.3-3.2,5.1-4.1
		c1.8-1,3.6-1.5,5.5-1.5c2.2,0,4,0.2,5.4,0.7c1.4,0.5,2.5,1.2,3.3,2.3c0.8,1,1.3,2.3,1.6,3.9C955.2,71,955.3,73,955.3,75.2z"/>
	<path fill="none" stroke="#FFFFFF" stroke-miterlimit="10" d="M1103.1,128.5c0,2.4-0.1,4.7-0.3,7c-0.2,2.3-0.7,4.4-1.5,6.2
		c-0.9,1.8-2.1,3.3-3.8,4.4c-1.7,1.1-4.1,1.7-7.2,1.7c-3.1,0-5.6-0.5-7.3-1.6c-1.8-1.1-3.1-2.3-3.9-3.8c-0.9-1.5-1.4-3.1-1.6-4.7
		c-0.2-1.7-0.3-3-0.3-4.2c-0.5,1.7-1.2,3.3-2.2,5c-0.9,1.7-2.2,3.2-3.6,4.6c-1.5,1.4-3.3,2.5-5.3,3.4c-2.1,0.9-4.5,1.3-7.3,1.3
		c-3.1,0-6.3-0.5-9.4-1.5c-3.1-1-6-2.7-8.5-5.1c-2.5-2.4-4.5-5.5-6.1-9.4c-1.6-3.8-2.3-8.6-2.3-14.2V92.8c0-5.7,0.8-10.5,2.3-14.3
		c1.6-3.8,3.6-6.9,6.1-9.3c2.5-2.4,5.3-4.1,8.5-5.1c3.1-1,6.3-1.5,9.4-1.5c2.8,0,5.2,0.4,7.3,1.3c2.1,0.9,3.9,2,5.3,3.3
		c1.5,1.4,2.7,2.9,3.6,4.6c0.9,1.7,1.7,3.4,2.2,5.1V47.7c0-2.4,0.1-4.9,0.4-7.2c0.3-2.4,0.8-4.4,1.7-6.2c0.9-1.8,2.2-3.2,3.9-4.4
		c1.7-1.1,4.1-1.7,7.1-1.7c2.8,0,5.1,0.6,6.8,1.7c1.7,1.1,3,2.6,3.9,4.4c0.9,1.8,1.5,3.9,1.7,6.2c0.3,2.4,0.4,4.8,0.4,7.2V128.5z
		 M1058.7,115.3c0,1.5,0.1,3,0.2,4.5c0.1,1.5,0.4,2.8,0.9,4c0.5,1.2,1.3,2.2,2.3,2.9c1,0.7,2.4,1.1,4.1,1.1c2.2,0,4-0.5,5.4-1.5
		c1.4-1,2.5-2.5,3.3-4.6c0.8-2.1,1.4-4.7,1.7-7.9c0.3-3.2,0.5-6.9,0.6-11.3c0-1.8-0.2-3.8-0.5-6.1c-0.3-2.3-0.9-4.5-1.7-6.5
		c-0.8-2.1-1.9-3.8-3.3-5.2c-1.4-1.4-3.2-2.1-5.5-2.1c-1.8,0-3.1,0.4-4.1,1.1c-1,0.7-1.8,1.6-2.3,2.8c-0.5,1.1-0.8,2.4-0.9,3.9
		c-0.1,1.5-0.2,2.9-0.2,4.4V115.3z"/>
	<path fill="none" stroke="#FFFFFF" stroke-miterlimit="10" d="M1125.7,81.5c0-2.4,0.1-4.7,0.4-7c0.3-2.3,0.8-4.3,1.8-6.1
		c0.9-1.8,2.2-3.2,3.9-4.4c1.7-1.1,4-1.7,6.9-1.7s5.2,0.6,6.9,1.7c1.7,1.1,3,2.6,3.9,4.4c0.9,1.8,1.5,3.8,1.8,6.1
		c0.3,2.3,0.4,4.6,0.4,7v47.2c0,2.4-0.1,4.7-0.4,7c-0.3,2.3-0.8,4.4-1.8,6.2c-0.9,1.8-2.2,3.2-3.9,4.3s-4,1.6-6.9,1.6
		s-5.2-0.5-6.9-1.6s-3-2.5-3.9-4.3c-0.9-1.8-1.5-3.8-1.8-6.2c-0.3-2.3-0.4-4.7-0.4-7V81.5z M1151.8,41.2c0,4.4-1.1,7.6-3.4,9.8
		c-2.3,2.1-5.5,3.2-9.6,3.2s-7.3-1.1-9.6-3.2c-2.3-2.1-3.4-5.4-3.4-9.8c0-4.6,1.1-7.9,3.4-9.9c2.3-2.1,5.5-3.1,9.6-3.1
		c4.4,0,7.6,1,9.8,3.1C1150.8,33.3,1151.8,36.6,1151.8,41.2z"/>
	<path fill="none" stroke="#FFFFFF" stroke-miterlimit="10" d="M1244.8,150.4c0,5.1-0.7,9.5-2.1,13c-1.4,3.5-3.2,6.5-5.3,8.8
		c-2.2,2.3-4.6,4.2-7.2,5.5c-2.6,1.3-5.2,2.3-7.8,2.9c-2.5,0.7-4.9,1.1-7,1.2c-2.1,0.1-3.7,0.2-4.8,0.2c-4,0-8.1-0.3-12.1-0.9
		c-4-0.6-7.7-1.6-11.1-3.2c-3.3-1.5-6.1-3.6-8.3-6.2c-2.2-2.6-3.4-6-3.7-10.1c0-0.7,0.1-1.5,0.3-2.3c0.2-0.9,0.7-1.7,1.5-2.4
		c0.8-0.8,2-1.4,3.6-2c1.6-0.5,3.8-0.8,6.5-0.8c3.3,0,5.8,0.3,7.6,0.8c1.8,0.5,3.1,1.2,3.9,2c0.9,0.8,1.4,1.6,1.7,2.5
		c0.3,0.9,0.5,1.7,0.8,2.4c0.5,1.2,1.4,2,2.7,2.5c1.3,0.5,3.2,0.7,5.5,0.7c2.1,0,3.8-0.5,5-1.5c1.2-1,2.1-2.1,2.8-3.5
		c0.6-1.3,1-2.7,1.2-4.1c0.2-1.4,0.3-2.6,0.3-3.5v-19.1c-0.5,1.7-1.2,3.4-2.2,5.1c-0.9,1.7-2.2,3.2-3.6,4.6
		c-1.5,1.4-3.3,2.5-5.3,3.3c-2.1,0.9-4.5,1.3-7.3,1.3c-3.1,0-6.3-0.5-9.4-1.5c-3.1-1-6-2.7-8.5-5.1c-2.5-2.4-4.6-5.5-6.2-9.4
		c-1.6-3.9-2.4-8.7-2.4-14.4V92.6c0-5.6,0.8-10.4,2.4-14.2c1.6-3.8,3.7-7,6.2-9.4c2.5-2.4,5.4-4.1,8.5-5.1c3.1-1,6.3-1.5,9.4-1.5
		c2.8,0,5.2,0.4,7.3,1.3c2.1,0.9,3.9,2,5.3,3.4c1.5,1.4,2.7,2.9,3.6,4.6c0.9,1.7,1.7,3.4,2.2,5c0-1.1,0.1-2.5,0.3-4.2
		c0.2-1.7,0.7-3.2,1.6-4.7c0.9-1.5,2.2-2.8,3.9-3.8c1.8-1.1,4.2-1.6,7.3-1.6c3.1,0,5.5,0.6,7.2,1.7c1.7,1.1,3,2.6,3.8,4.4
		c0.9,1.8,1.4,3.9,1.5,6.2c0.2,2.3,0.3,4.7,0.3,7V150.4z M1200.4,115.5c0,1.5,0.1,3,0.2,4.4c0.1,1.5,0.4,2.8,0.9,4
		c0.5,1.2,1.3,2.1,2.3,2.8c1,0.7,2.4,1.1,4.1,1.1c2.2,0,4-0.7,5.5-2.1c1.4-1.4,2.5-3.2,3.3-5.3c0.8-2.1,1.4-4.3,1.7-6.6
		c0.3-2.3,0.5-4.4,0.5-6.2c-0.1-4.3-0.2-8.1-0.6-11.3c-0.3-3.2-0.9-5.8-1.7-7.9c-0.8-2.1-1.9-3.6-3.3-4.6c-1.4-1-3.2-1.5-5.4-1.5
		c-1.8,0-3.1,0.4-4.1,1.1c-1,0.7-1.8,1.7-2.3,2.9c-0.5,1.2-0.8,2.5-0.9,4c-0.1,1.5-0.2,3-0.2,4.5V115.5z"/>
</g>
</svg>
