<svg xmlns="http://www.w3.org/2000/svg" viewBox="0 0 113.08 210.07">
  <title>icon-3</title>
  <g id="68a1bb02-05a0-4427-8f2d-286c98572b7d" data-name="Layer 1">
    <g>
      <path d="M60,138.35a53,53,0,1,1,53-53A53.1,53.1,0,0,1,60,138.35Z" transform="translate(-3.46 -28.77)" style="fill: #ed1c24"/>
      <path d="M60,35.77A49.54,49.54,0,1,1,10.46,85.31,49.59,49.59,0,0,1,60,35.77m0-7a56.54,56.54,0,1,0,56.54,56.54A56.54,56.54,0,0,0,60,28.77Z" transform="translate(-3.46 -28.77)"/>
    </g>
    <text transform="translate(31.31 77.31)" style="font-size: 90px;font-family: MyriadPro-Regular, Myriad Pro">3</text>
  </g>
  <g id="6e9b0233-6e33-4e73-a42c-de35f24f28d1" data-name="Layer 2">
    <path d="M114.77,90.31a55.55,55.55,0,0,0-1,10.11,45.45,45.45,0,0,0,.89,10.81c.68,3.75,1.66,7.61,1.61,11.08a19.29,19.29,0,0,1-.66,5c-.43,1.58-1.09,3.09-1.66,4.62-4.58,12.27-9.51,24.41-14.67,36.46s-10.7,24-16.6,35.75c-3,5.87-6,11.74-9.24,17.52S67,233.21,63.28,238.84l-6.56-2.44c.89-6.65,2.16-13.17,3.5-19.66s2.88-12.9,4.45-19.3q4.85-19.16,10.78-37.91c4-12.5,8.17-24.91,12.72-37.19.58-1.53,1.06-3.1,1.77-4.58a19.29,19.29,0,0,1,2.76-4.21c2.23-2.66,5.5-4.94,8.46-7.33a45.45,45.45,0,0,0,7.74-7.6A55.55,55.55,0,0,0,114.77,90.31Z" transform="translate(-3.46 -28.77)"/>
    <path d="M5.23,88a55.55,55.55,0,0,0,5.86,8.3,45.45,45.45,0,0,0,7.74,7.6c3,2.39,6.23,4.67,8.46,7.33a19.29,19.29,0,0,1,2.76,4.21c.71,1.48,1.19,3.05,1.77,4.58,4.54,12.28,8.74,24.69,12.72,37.19s7.55,25.14,10.78,37.91c1.57,6.4,3.12,12.81,4.45,19.3s2.61,13,3.5,19.66l-6.56,2.44c-3.67-5.62-7-11.38-10.19-17.17s-6.25-11.65-9.24-17.52q-8.85-17.67-16.6-35.75C15.53,154,10.6,141.86,6,129.6c-.56-1.54-1.22-3-1.66-4.62a19.29,19.29,0,0,1-.66-5c-.05-3.47.93-7.33,1.61-11.08a45.45,45.45,0,0,0,.89-10.81A55.55,55.55,0,0,0,5.23,88Z" transform="translate(-3.46 -28.77)"/>
  </g>
</svg>
