<svg id="Layer_2" data-name="Layer 2" xmlns="http://www.w3.org/2000/svg" width="400" height="400" viewBox="0 0 400 400">
  <title>kort_kbhture_A12-01-01</title>
  <g opacity="0.75">
    <path d="M39.76,204v-3.12c-1.2-2.48.88-5.09.83-7.65-.08-4.59-1.9-9.94-.08-14.35.67-4.69-.22-8.32-.5-13-.34-5.6,2.06-11.87,2.75-17.25.29-2.25,2.47-3.8,3.12-6,.9-3.05,2.13-3.74,5-2.28a30.32,30.32,0,0,1,9.08,7c1.78,2,3.63,1.25,5.62,1.49,2.49.31,3.72-.47,4.31-2.78a2.68,2.68,0,0,1,1.68-1.91,6.38,6.38,0,0,0,4.07-5.92c.25-4.32,2.4-6.35,6.29-7.16a23.51,23.51,0,0,1,5.38-.45c2.84.83,3.7,3.1,4,5.68.69,5.17.67,5.17,6,4.87,4.44-1.46,8.86-2.58,12.78,1.25a7.88,7.88,0,0,1,2.38,4.88c.45,3.85,2,5.63,4.85,5.83,3.13.21,5-1.28,5.88-5.25a7.38,7.38,0,0,1,4.47-5.6,18.41,18.41,0,0,1,5-.39,18.64,18.64,0,0,0,5.16-.11,2.89,2.89,0,0,1,3.8,2c1.62,2.17.69,4.72,1.06,7.07,1.56,3.35,4.44,5.51,7.09,7.88l1.72,0c1.16-2.06,2.69-3.08,5.22-2.37a10.32,10.32,0,0,0,3.87,0,4.63,4.63,0,0,1,5.12,2.49,1.5,1.5,0,0,0,.45.44c2.55,1.94,4.87,7.37,3.56,10.33-.4.9-1,1.81-.8,2.74.79,3.59-1.11,5.84-3.65,7.82-.48,1.84-2.26,2.66-3.24,4.1-.84,2-2.33,3.95-2.87,6.06-.23.91.15,2.06-1.38,2.1-1.34,0-3-2.39-3.66-4-.34-.8-.21-2.33-1.52-2.1s-1,1.7-1.08,2.75c0,.77,0,1.54,0,2.3,0,1.14,0,4.86-2,4.77-1.49-.07-2.94-1.85-2.91-4.3,0-2-1.1-2.71-2.94-2.59-2.12.14-3-1-3-3,0-.94-.24-1.8-1.29-2-1.21-.25-1.42,1-1.78,1.59-1.2,2.07-2.5,4.22-.51,6.61a3.17,3.17,0,0,1,.61,2.18c-.22,4,.43,7.87.35,11.82-.06,2.71-1.7,8.87-4.24,9.42-.7.15-2.64-2.87-3.3-2.77-1.7.27-1.81.2-4.2.52-1,.7-1.92,1.69-.29,2.41,2.84,1.26,1.39,1.07,1.47,3.77.09,5.23.09,5.23-5.77,5.36-4.36,2.79-4.94,2.77-9-.72-1.35-1.16-3-1.69-4-.34-2.06,2.67-4.34,1.83-6.77,1.13a8.36,8.36,0,0,1-2.49-1.7c-4.54-3.36-9.34-6.24-14.92-7.45a9.1,9.1,0,0,1-4.59-2.84c-1.63-1.89-2.55-.55-3.48.77s-1.58,3.43-3.84,3.59c-2,.22-3.51-.82-5.14-1.74-3.49-2-4.52-1.43-4.95,2.37-.19,1.69-.59,3.06-2.73,2.79a22.9,22.9,0,0,1-6.27-2.67,5.06,5.06,0,0,0-6.12.05,3.67,3.67,0,0,1-4.46.93c-1.78-.79-1.36-2.35-1.28-3.68C41.84,211.81,39.25,207.94,39.76,204Z" fill="#f1e5b4"/>
    <path d="M87.39,131.07c-1.68.86-3.5.55-5.27.6-5.07,1-5.36,1.5-6.09,6.5-.39,2.67-1.08,5.52-4.37,6.28-1.28.3-1.37,1.31-1.64,2.21-.57,1.91-1.43,3.17-3.75,2.51a7.61,7.61,0,0,0-2.93.23,2.94,2.94,0,0,1-2.71-.78,35.49,35.49,0,0,0-12-8.84c-2.34-1-1.47-3-.75-4.5a104.12,104.12,0,0,0,4.49-10.2v0c2.21-5.5,4.91-10.65,10.2-13.89a10.77,10.77,0,0,0,2-2.1c1.28-2.4,3-3.55,5.68-2.39,3.63,1.13,7.14,1,10.45-1a5.11,5.11,0,0,1,5.28-.48c2,1,4,.09,6.07.15l2-.56c5.08,0,9.19-2.66,13.54-4.74.93-.45,1.09-1.23,1.45-2v0c4.67-5.72,7-12.78,10.83-19a24,24,0,0,0,1.7-2.76l0,0c3.19-6.25,8.34-9.46,15.24-10.52,2.18-.33,4.72-.56,6.53-2.33l1.72-1c2.33-1,4-2.83,5.89-4.42.69-.58,1.7-1.55,2.57-.9,1.17.87-.27,1.67-.58,2.46-1.06,2.71-3.74,4.16-5.21,6.61s-1.63,4.44.36,6.67c.94,1.06,1.53,2.38,2.56,3.37,1.12,2.29.35,4.73.56,7.1.33,3.78-.64,7.62.56,11.35v5.44c-2.23,5-6.61,6-7.08,10.84a11.62,11.62,0,0,1-2.14,6.44l-.25,4.5c-3.91,4.91-3.12,5.84-3,11.26.07,2.13.81,4.24,1,6.4.18,1.71-.53,2.33-2.12,2.54-1.82.24-3.74-.35-5.46.69l-5.11.05a5.93,5.93,0,0,0-4,5.39c-.46,3.75-3.28,5.52-7,5.13-2.73-.29-4.48-2.57-4.68-6.1a6.92,6.92,0,0,0-7.25-6.71c-2.44.06-5.07-.76-7.18,1.25l-.65,0c-5.66,0-5.66,0-6-5.57C90.78,133.85,90,131.81,87.39,131.07Z" fill="#e7c1e0"/>
    <path d="M170.58,231.1c-2.21-1.21-2.12-3.63-3-5.57-.22-.66-1-.9-1.25-1.48-1-1.94-.37-3,1.81-3.14a132.12,132.12,0,0,1,14.58,0c1.58.11,2.87-.48,2.82-2-.13-3.91,2-5.87,5.31-7a1.76,1.76,0,0,1,.38-.35c1.22-2.41-1.12-2.75-2.26-3.33-1.76-.9-3.75-1.39-5.61-2.16h0a2.42,2.42,0,0,1-.74-3.66c.87-1.29,2.4-.78,3.46,0,2,1.41,4.34,1.73,6.63,2.24,3.33,1,6.73.14,10.08.48,1.39.14,3.27-.91,4.06,1s-.59,3.07-1.8,4.22c-1.11,3.6-.68,4.55,2.59,5.25,1,.22,1.38.92,1.73,1.73,1.54,1.75,1.24,3.9,1.19,5.94s.43,3.18,2.79,2.29c2-.76,4.18-.89,6.18-2s4.3-1.31,6.14.38c1.37,1.26.75,4.47-1.05,6.52-.57.65-1.43,1.2-1,2.2s1.48.73,2.31.78a9.37,9.37,0,0,1,4.16.71,3.78,3.78,0,0,1,1.16,1,3,3,0,0,1-.5,4.13,15.21,15.21,0,0,0-3.57,5.26,5.63,5.63,0,0,0-.28,4.56l1,1a6.12,6.12,0,0,0,3.3,1.1c3.89.08,4.57.7,5.68,4.66a2.22,2.22,0,0,0,.51.82c1.2,2.41.55,4.91.38,7.39-1.54,1.61-3.64,1-5.49,1.39a10.32,10.32,0,0,0-3.86,1.38c-1.4,2.39-3.92,3.34-6.13,4.67-.48.29-1,.4-1,1.07,0,.89.71,1,1.39,1,2.39-.2,2.39.42,1.89,2.78-.61,2.87-.15,6,0,9.08a1.79,1.79,0,0,0,1.83,1.58c.76,0,1.12-.34,1.24-1.16.69-4.59,1-4.7,5.18-2.11,2.37.52,5-1,7.18,1a17.63,17.63,0,0,1,1,2.37c.48,3,0,3.43-3.06,3.57-1.28.06-2.77-.74-3.84.66-1.24.49-2.79.27-3.66,1.62-2.56,1.31-4.08,4.38-7.45,4.37-.44,0-.39.9-.47,1.42-1.88,4-2.54,8.4-4.78,12.22-2.34,1.63-.77,4.34-1.75,6.34-.74,1.08-1.55,2-3.08,1.6-1.77-.47-1.47-1.89-1.51-3.17-.05-2-.39-3.54-2.77-1.67a2.82,2.82,0,0,1-2.47.47c-3.22-.71-6.17.68-9.25,1.09-1.88.25-1.39,2.62-3,3.08-1.68,1.42-3.05.34-3.75-.94-2.78-5.11-7.71-6.28-12.74-7.36-1-2.44-3.43-3.41-5.54-4.12-4.45-1.48-5.1-2.28-3.69-6.79h0c2.5-.59,2.87-2.64,2.94-4.67.05-1.56.45-2.69,1.95-3.28l.79-1.26c2.44-.48,4.93-.69,7.38-1.09,3.77-.61,6.12,2.15,8.25,4.77,1.88,2.3,3.06,2.89,6.18,3.89,1.58.51,1.68,0,2.24-1.15,1.12-2.35,2.67-3.07,6.22-2.23,1.33.31,1.76-.79,2-2,.59-3.32,3.18-4.25,5.67-2,.73.67,1.22,1.52,2.34,1.52,1.08,1,2.61.22,3.72,1s1.89,1.44,2.46-.34c.48-1.5.52-2.92-1.44-3.3a20.68,20.68,0,0,0-3.24-.43c-4.54-.15-7.37-3.39-10.61-5.88-.34-.26,0,.14-.23-.23-.59-.92-.47-8.41.4-9,2.18-1.53,0-2.38-.4-3.45-.54-1.32-1.39-1.74-2.86-1.06a10,10,0,0,1-8.85.07c-2.09-.94-4.28-.28-6.42-.44-3.92-.29-4.43-.72-5-4.65-.27-2.05-1.63-3.53-2.84-5-.82-1-1.48-2.15-2.36-3.11s-.94-1.91.24-2.72h0c3.77-2.82,3.87-3.8.73-7.82l-1.37-1c-1.93-1.64-3.57-2.91-1.17-5.89,1.5-1.87-.63-4.23-2.23-5.79A9.58,9.58,0,0,0,170.58,231.1Z" fill="#8ce3dc"/>
    <path d="M100.07,223.21l1.57,1.28c1.86,1.9,4.68,1.17,6.89,2.68a21.46,21.46,0,0,1,4.31,4.27c1,1.2,1.62,2.26,3.46,2.88,2.58.87-.49,1.94-.69,3a.71.71,0,0,1-.29,1c-.53.15-1.27.36-1.37.8-1,4.45-4.46,3.39-7.44,3.47-.64,0-1.32-.11-1.84.43-.84.76-1.63,1.63-1.13,2.83s1.72.59,2.62.69a21.39,21.39,0,0,0,2.3,0c.69,0,5.25.65,5.33,1.49s.38,1.67-.43,2.11c-3.54,1.9-2.66,5.05-2.05,7.88.36,1.66,1.77,1.12.43,2.36s-.91,2.09.74,2.58c.72.21.26,1.9.84,2.5a3.45,3.45,0,0,1,1.09,3.28c-.36,1.58-1.73,1.47-2.93,1.39-3-.19-5.9-.12-8,2.53a1.5,1.5,0,0,0-.35,2.66c1.24,1,1.2,2.85,2.91,3.72,1.52.78-3.18,1.43-4.63,1.92s-2.23-.63-1.19,1.92c.87,2.12,2.74,1.61,4.21,1.15s1.71-3.62,2.54-1.9c1.51,3.16,9,4.21,7.75,9-.26.62-.64,5.1-.75,5.75-.16,1-2.41,1.19-3.52,1s-1.09-.88-1.12-1.7c0-1.09.06-2.49-.76-3.09-1.25-.9-2.89-1.13-4,.44-1.64,2.32-4,3.86-6.11,5.64-2.79,2-4.76,1.92-6.82-.5a1.91,1.91,0,0,0-1.62-.82,7.59,7.59,0,0,0-1,0,16.44,16.44,0,0,1-13-3.61l.05,0c-2.87-.79-5.8-.19-8.7-.35-1.14-.06-2.23,0-2.17-1.61.19-5.73-.5-14.2-8.5-14l-.25-9c3,.5,12.21,1.62,10.27-1.63-1.14-1.91,0-4.9-.37-7.39-.85-3.6-.2-3.91-2.14-7.23-1-1.79-1.76-3.81-4.44-3.6-.67.05-1.07-.69-1.51-1.17-3.26-.78-3,11.91-4.29,9-4-5.5-3-15.09-3.25-16.25-.11-.64,0-1.38-.94-1.44s-2.05-5.07-2.29-4.32c-.52,1.62,1.42,9.38.73,11-4.24-2.51-10.62-4.82-9.5-9.5.48-2,4-11.21,3.49-13.28-.06-2.21-.76-4.84,3.13-4.16.73.13,1.26-.75,1.79-1.28,1.5-1.51,3.07-1.55,4.95-.54a23.23,23.23,0,0,0,6.85,2.7c2.29,1.28,3,.49,3-2,0-4.65,1.25-5.22,5.56-2.89,1.66.9,2.87,3.3,5.35,1.78,2-1,2.42-3.2,3.58-4.81,1.4-1.95,2.33-1.75,3.55-.07,1.06,2.53,3.27,2.76,5.62,3.53,4.58,1.49,8.83,4,13,6.49A12.94,12.94,0,0,0,100.07,223.21Z" fill="#dad3d3"/>
    <path d="M153.69,283.17c-2.18,1.06-4.35.69-6.51-.08-.46-1-1.33-1.05-2.23-1-2.57.25-5,.2-6.69-2.27a1.48,1.48,0,0,0-2.07-.39c-2.14,1.35-3.61-1-5.54-1-.88,0-1.13-1.26-.54-2.14a24.34,24.34,0,0,0,1.38-2.22c.86-1.61.8-3.21-1-3.86-3.35-1.23-3.29-.59-6.79-1.59-.64-.18-1.51-5.83-1.53-6.48,0-1.42,0-2.85-.09-4.27-.09-2.22-2.16-1.4-3.23-2.11-.07-.43-.13.13-.1-.3.3-3.92-1.58-7.17-3.23-10.48a1.27,1.27,0,0,1,.08-1.48c1.55-1.15,2.78-2.39,5-.52,1,.86,3.26.84,5.12-.46a100.12,100.12,0,0,1,9-5.29,7.76,7.76,0,0,1,9.45,1c.81.72,1.48,1.63,2.33,2.28,1.88,1.44,2,2.92.35,4.58-.18.52-.6.93-.74,1.45a2.69,2.69,0,0,0,.61,3c1,.74,1.76-.4,2.43-1s1.66-1.65,2.77-1.56c3.07.23,2.88-1.71,2.91-3.79,0-1.43-.84-3.68,1-4.07,2.13-.46,2,2.08,2.55,3.45s2.41,2.82.72,4.65c-.38.38-.69,1-1.14,1.09-3.71,1.17-2.13,2.77-.41,4.41a12.82,12.82,0,0,1,6.44,11,3.9,3.9,0,0,1-.94,3c1.2,1.33-.25,2.63,0,4-1.35,2-1.44,4.3-1.83,6.5-.49,2.73-1.8,4.38-4.58,4.6C155.36,281.85,154.67,282.75,153.69,283.17Z" fill="#dad3d3"/>
    <path d="M239,236.17c-1.28,1-2.74-1.76-4.2-1.09h0c-1.24.66-2.34,2.4-3.93.55l-.62-.62c-1.35-1.92-3.38-1.08-5.15-1.27-.86-.09-1.88.08-2.29-.9-.5-1.19.46-2,1.27-2.35,2.76-1.33,1.63-3.75,1.76-5.79.08-1.29-1.05-1-1.89-1.21-3.47-.76-6.2,1.62-9.38,2.15-4.08.68-4.15.82-4.16-3.16,0-2.7-3.11-7.19-.94-9.56,1-1.1,3.84-1.36,2.55-2.9-.09-1.86-.06.09-.8-1.85-.57-1.52,1.36-6.83,2.54-7.55,1.78-1.09,2.63-2.79,3.83-4.27,1.58-2.74,4.05-3.46,7.08-3.86,4.61-.6,9,0,13.52.73,2.91.44,4.89,2.37,6.86,4.19,1.14,1.06.48,2.59.13,4-1.07,4.26-1.53,8.29.63,12.65,1.16,2.33,1.2,5.64.62,8.57-.29,1.46-.87,3,.91,4.05l1.25,2.75c2.49,4.37,2.26,4.34-1,7.9-2,2.19-3.2,2.95-4.39,1.59-.37-.42-4.19-2.19-4.25-2.75" fill="#e3d897"/>
    <path d="M148.73,211.27l-.26-7.62c3.21-2,3.37-1.7,4.45,1.76,1.23,3.92,2.82,7.67,2.56,11.91a3.53,3.53,0,0,1-1.68,3.26l0,0c-4.86.76-5.67.14-5.58-4.62C148.28,214.39,147.63,212.73,148.73,211.27Z" fill="#f1e5b4"/>
    <path d="M155.8,295.83l.06-2.53c.36-.67.07-1.57.64-2.14,2.45-2.4,3.91-2.48,5.75-5.25,1.67-1.4,5-10.9,6.75-12.25,1.66,3.34-2.24,12.18-2.82,15.19a8.24,8.24,0,0,1-1.27,2.23c-2.28,2.89-2.36,6.64-3.85,9.84l0-.06c-.92,1.83.09,3.87-.65,5.72-.36.89-.47,2-1.82,1.87s-1.71-1-1.85-2.25C156.44,303.34,153.55,298.18,155.8,295.83Z" fill="#d8d1d1"/>
    <path d="M115.53,285.56c-.62-.14-1.25-.28-1.87-.41-1.27-.25-3.47-1.75-3.27-3.94.15-1.72,11.36-1.58,3.24-2.76.53.08,10.59,5.23,11.13,5.21,3.31,2.61,2,2.75,2.41,5.52,1.78,1.14,1.46,3.14,1.59,4.73s-1.51,1.25-2.47.91c-2.1-.74-7.32-1.47-9.39-2.29-.13-.3.14-.6,0-.89-.93-2.73,3.11-2.35,1.07-4C117.59,287.33,115.88,286,115.53,285.56Z" fill="#d9d2d2"/>
    <path d="M141.84,300.89a1.69,1.69,0,0,1-1.19-1.48c-.2-1.43-1.28-2.21-2.29-3a6.54,6.54,0,0,1-2-2c-.56-1.07-1.39-2.37-.31-3.2s2.51-1.75,3.21-1.25c1.63,1.18,5.11,3.61,7.21,4h0c.45,1.33,1.74,1.54,2.79,2,1.82.82,1.46,1.82,0,2.37S143.44,301.51,141.84,300.89Z" fill="#d8d1d1"/>
    <path d="M150.47,291c.09-1.11,1.49-6.25,1.58-7.35a3.94,3.94,0,0,1,2.2-.44c1.26.15,1.08,4.64,1.15,6.1.07,1.64-1.16,2.56-2.4,3.16S150.7,292.5,150.47,291Z" fill="#d6cfcf"/>
    <path d="M171.25,104.17c-1.59,0-5-2.28-5-4,0-1.53,2.77-4.39,4.25-4.5a18.17,18.17,0,0,1,6.17.56c.18.05.67,0,.81.13a1.29,1.29,0,0,1,.13.85c-2.49.77-3.79,5.11-5.41,6.94C172.06,104.31,171.57,104.17,171.25,104.17Z" fill="#e5c0de"/>
    <path d="M361.76,282.07a.39.39,0,0,1-.36.33c-.21.06-.47.1-.59.25-3.8,4.88-5,4.23-10.06.81-1.91-1.28-9.32.4-11-1-1.54-1.44-2.52-3.32-4.45-4.56-1.65-1.06-.87-3.49-.61-5.22.54-3.51,1.87-6.87,2-10.5a2,2,0,0,1,1.7-2.09c1.91-.3,1,1.95,2.13,2.3,1.17.84,7.1,1.82,8.95,1.65,1.28-.12,1.6,1.15,1.8,2.23A8.89,8.89,0,0,0,357,271C361.58,272.16,363.37,276.7,361.76,282.07Z" fill="#e3d897"/>
  </g>
  <path d="M196.21,150.23c-1,0-1.76-.34-1.77-1.38s.71-1.31,1.6-1.37c1.21-.09,2.51.34,3.59-.6a.51.51,0,0,1,.49.08.78.78,0,0,1,.08.51c-1.51.47-.21,1.09-1.19,2.2A23.1,23.1,0,0,1,196.21,150.23Z" fill="#e5c0de" opacity="0.75"/>
  <path d="M91.24,51S60.17,64.09,29.91,105c-39.33,112.67,14,132,26,176.67,7.33,17.33,41,19,71.33,12.67,8.22,5.69,23.33,14.67,23.33,14.67s25.14,7.38,27.33,8c5.18,1.46,19.43,2.43,22,2,4-.67,4.38,4.36,11.33-1.33s11.75-15.31,26-26c8.42-5.5,2.6-16.24-.67-21.33-1.32-2.06,130.43,37.37,127.33,2-3-34.25-131.07-10-128.67-12,10.75-8.85-18.33-19.36-7.72-14.61,45.72-8.73,13.05-55.39,13.05-55.39s-29.67-39.67-36.67-46.67c-3-3-2.77-17.56-.67-31.67,4.67-31.33-15-43.33-23.33-52C169.91,50.36,111.24,48.36,91.24,51Z" fill="#997bbb" opacity="0.2" style="isolation: isolate"/>
</svg>
