<svg id="Layer_2" data-name="Layer 2" xmlns="http://www.w3.org/2000/svg" width="400" height="400" viewBox="0 0 400 400">
  <title>kort_kbhture_A12-01</title>
  <g opacity="0.75">
    <path d="M39.76,206.65v-3.23c-1.2-2.57.88-5.27.83-7.93-.08-4.76-1.9-10.3-.08-14.87.67-4.86-.22-8.62-.5-13.47-.34-5.8,2.06-12.3,2.75-17.87.29-2.33,2.47-3.94,3.12-6.22.9-3.16,2.13-3.87,5-2.36A30.48,30.48,0,0,1,60,148c1.78,2.07,3.63,1.3,5.62,1.54,2.49.32,3.72-.49,4.31-2.88a2.75,2.75,0,0,1,1.68-2,6.61,6.61,0,0,0,4.07-6.13c.25-4.48,2.4-6.58,6.29-7.42a22.71,22.71,0,0,1,5.38-.47c2.84.86,3.7,3.21,4,5.88.69,5.36.67,5.36,6,5,4.44-1.51,8.86-2.67,12.78,1.3a8.28,8.28,0,0,1,2.38,5.06c.45,4,2,5.83,4.85,6,3.13.22,5-1.33,5.88-5.44a7.6,7.6,0,0,1,4.47-5.8,17.79,17.79,0,0,1,5-.4,18,18,0,0,0,5.16-.11,2.86,2.86,0,0,1,3.71,1.77,3.08,3.08,0,0,1,.09.3c1.62,2.25.69,4.89,1.06,7.33,1.56,3.47,4.8,8.67,7.45,11.13h1.72c1.16-2.13,2.69-3.19,5.22-2.46a10,10,0,0,0,3.87,0,4.58,4.58,0,0,1,5.12,2.58,1.53,1.53,0,0,0,.45.46c2.55,2,5.56,5.15,4.25,8.21a7.19,7.19,0,0,0-.63,3.5c.79,3.72-.85,5.95-3.39,8a18.51,18.51,0,0,1-2.74,5.25,68.41,68.41,0,0,0-2,7.83c-.23.94-1.89,1.13-3.42,1.17-1.34,0-3.78-5.06-4.44-6.72-.34-.83-.21-2.41-1.52-2.18s-1,1.76-1.08,2.85v2.38c0,1.18,1.66,6.51-.34,6.42-1.49-.07-5.27-1.46-5.24-4,0-2.07-1.1-2.81-2.94-2.68-2.12.15-2.34-3-2.34-5,0-1-.24-1.86-1.29-2.07-1.21-.26-1.42,1-1.78,1.65-1.2,2.14-.23,3.66,1.76,6.14a3.37,3.37,0,0,1,.61,2.26c-.22,4.14-.22,10.53-.3,14.62-.06,2.81,1.32,8.31-1.22,8.88-.7.16-6.29-.62-6.95-.52-1.7.28-2.8-2.93-5.19-2.6-1,.73,15.07,6.12,16.7,6.87,2.84,1.31,2.84,1.31,0,4,.09,5.42-12.9,3.09-18.76,3.23-4.36,2.89-7.47.71-11.53-2.9-1.35-1.2-3-1.75-4-.35-2.06,2.77-4.34,1.9-6.77,1.17a8.35,8.35,0,0,1-2.49-1.76c-4.54-3.48-9.34-6.47-14.92-7.72a9.06,9.06,0,0,1-4.59-2.94c-1.63-2-2.55-.57-3.48.8s-1.58,3.55-3.84,3.72c-2,.23-3.51-.85-5.14-1.8-3.49-2.07-4.52-1.48-5,2.46-.19,1.75-.59,3.17-2.73,2.89a22.48,22.48,0,0,1-6.27-2.77,4.92,4.92,0,0,0-6.12.05,3.58,3.58,0,0,1-4.46,1c-1.78-.82-1.36-2.43-1.28-3.81C41.84,214.74,39.25,210.73,39.76,206.65Z" fill="#f1e5b4"/>
    <path d="M89,131.07c-1.75.86-3.64.55-5.49.6-5.28,1-5.58,1.5-6.34,6.5-.41,2.67-1.12,5.52-4.55,6.28-1.33.3-1.43,1.31-1.71,2.21-.59,1.91-1.49,3.17-3.9,2.51a8.23,8.23,0,0,0-3,.23,3.14,3.14,0,0,1-2.82-.78,36.89,36.89,0,0,0-12.49-8.84c-2.44-1-1.53-3-.78-4.5a102.07,102.07,0,0,0,4.67-10.2h0c2.3-5.5,5.11-10.65,10.62-13.89a11,11,0,0,0,2.08-2.1c1.33-2.4,3.12-3.55,5.91-2.39a13.23,13.23,0,0,0,10.88-1,5.5,5.5,0,0,1,5.5-.48c2.08,1,4.16.09,6.32.15l2.08-.56c5.29,0,7.26-4.73,11.78-6.81,1-.45,1.13-1.23,1.51-2h0c4.86-5.72,5-12.28,9-18.5.65-.88,3.31-5.29,3.83-6.25l2.42-3c6.5-4.25,8.79-1.4,16-2.46,2.27-.33,4.91-.56,6.8-2.33l1.79-1c2.43-1,4.16-2.83,6.13-4.42.72-.58,1.77-1.55,2.67-.9,1.22.87.79,3.07.47,3.86-1.1,2.71-2.05,3-3.58,5.5a22,22,0,0,0-2.54,6.38c1,1.06,1.59,2.38,2.66,3.37,1.17,2.29.36,4.73.58,7.1.34,3.78-.67,7.62.58,11.35v5.44c.5,5-5.05,6.52-5.54,11.36-.06,2.31-2.66,4-4.05,5.92l-.26,4.5c-4.07,4.91-3.25,5.84-3.12,11.26.07,2.13.84,4.24,1,6.4.19,1.71-.55,2.33-2.21,2.54-1.89.24-3.89-.35-5.68.69l-5.32.05a6,6,0,0,0-4.16,5.39c-.48,3.75-3.41,5.52-7.29,5.13-2.7,2.37-6.44-.1-6.65-3.63-.12-3.82-1.3-5.91-5.63-9.18H107c-2.54.06-5.28-.76-7.47,1.25h-.68c-5.89,0-8.53,0-8.88-5.57C89.93,133.85,91.75,131.81,89,131.07Z" fill="#e7c1e0"/>
    <path d="M225.37,275.77s3.88,0,8,5.29c2.59.53,5.47-1,7.85,1,.43.78,1.77,3.78,2.07,4.6.52,3,0,3.48-3.34,3.62-1.4.06-3-.75-4.2.67-1.36.5-3,.27-4,1.64-2.8,1.33-4.46,4.44-8.14,4.43-.48,0-.43.91-.51,1.44-2.05,4.06-2.78,8.52-5.22,12.39-2.56,1.65,0,8.09-1,10.12-.81,1.09-1.69,2-3.37,1.62-1.93-.48-1.61-1.92-1.65-3.21-.05-2-1.3-7.28-3.91-5.39a3.28,3.28,0,0,1-2.7.48c-3.52-.72-6.74.69-10.11,1.11-2.05.25-1.52,2.66-3.28,3.12-1.84,1.44-3.33.34-4.1-1-3-5.18-8.43-6.37-13.92-7.46-1.09-2.47-3.75-3.46-6.06-4.18-4.86-1.5-5.57-2.31-4-6.88h0c2.73-.6,2.57-4.77,2.64-6.83.05-1.58.49-2.73,2.13-3.33l.86-1.28c2.67-.49,6-1.76,8.67-2.17,8.43-14.21,16.37-1.55,18.7,1.11,2.05,2.33-6.91,4.56-3.5,5.58,1.73.52,1.84,0,2.45-1.17,1.22-2.38,2.88,0,6.76.89,1.45.31-.38-2.87-.11-4.1.64-3.37,1.42-5.63,1.67-5.39" fill="#8ce3dc"/>
    <path d="M204,282.56c-.37-.26,0,.14-.25-.23-.64-.93-3.46-3.28-2.51-3.88,2.38-1.55,0-2.41-.44-3.5-.59-1.34-1.52-1.76-3.13-1.07-3,1.42-4.62-.56-7.68-1.93-2.28-1-9.18,2.82-11.52,2.65-4.28-.29-.34-3.83-1-7.81-.3-2.08-.83-6.82-2.15-8.31-.9-1-1.62-2.18-2.58-3.15s-1-1.94.26-2.76h0c4.12-2.86,4.23-3.85.8-7.93l-1.5-1c-2.11-1.66-3.9-3-1.28-6,1.64-1.9-3-3-4.78-4.61a10.26,10.26,0,0,0-2.3-1.9c-2.42-1.23,0-4.93-.94-6.9-.24-.67-1.09-.91-1.37-1.5-1.09-2-.4-3,2-3.18a155.68,155.68,0,0,1,15.94,0c1.73.11-8.8-4.76-8.85-6.3,5.29-2.78,14-1.59,13-4.47-2-1.68,2.55.07,2.7,0,1.33-2.44,1.25.59,0,0-1.92-.91-3.64,1-5.68.22h0c-1.29-.64-1.82-4.18-1.13-5.37a2.45,2.45,0,0,1,.28-.39c1-1.31.28-3.21,3.28-3.21a61.18,61.18,0,0,0,7.25,2.41c3.64,1,10.81,4.61,14.47,5,1.52.14,3.12-3.33,4-1.4s-.64,3.11-2,4.28c-1.21,3.65-3.7,3.21-.12,3.92a2.58,2.58,0,0,1,1.89,1.75c1.68,1.77,1.36,4,1.3,6s.47,3.22,3,2.32c2.19-.77,4.57-.9,6.75-2s4.7-1.33,6.71.39c1.5,1.28,3.15,4.3,1.18,6.37-.62.66-1.37,2.24-.9,3.26s-.91-.05,0,0a11,11,0,0,1,4.55.72,4.06,4.06,0,0,1,1.27,1,2.89,2.89,0,0,1-.55,4.19,15.42,15.42,0,0,0-3.9,5.33,5.34,5.34,0,0,0-.31,4.62l1.09,1a7,7,0,0,0,3.61,1.12c4.25.08,5,.71,6.21,4.72a2.23,2.23,0,0,0,.56.83c1.31,2.44,1.71,6.76,1.52,9.27-1.68,1.63-4,1-6,1.41a11.86,11.86,0,0,0-4.22,1.4c-1.53,2.42-5.39,1.6-7.81,3-.52.29-1.09.41-1.09,1.08,0,.9.78,1,1.52,1,2.61-.2,2.61.43,2.07,2.82" fill="#8ce3dc"/>
    <path d="M111.1,282.13c2.08,4.1,8.88,3.49,8.15,9.21-.19,1.46,0,4.76-.93,5.92s-2.47.38-3.53.62c-.63.14-2.31,1.75-2.65,1.68s-.32-.52-.81-.6c-.66-.1-1.36.37-2,.27a2.82,2.82,0,0,1-2.29-2.49,3.71,3.71,0,0,1-2.53,1.44,14.07,14.07,0,0,0-3.19,1.47c-3.06,1.7-4.17.42-6.68-1.22-2.13-1.4-6-.24-8.51-.71s-5.89-1.67-7.77-3.49c-3.25-.84-6.59.21-9.82-.38-2.4-.44-5.82.61-6-1.36-.42-4.17,1.25-8.23-2.76-10.73-2-1.24-2.37.25-3-1.92l-1.46-4.76c-.38-1.23-.48-1.23,0-2.26a24,24,0,0,1,2.34-3.55l.12,1.11c-.19-1.76,1-1.8,1.62-3.29.42-1,.29-.17.08-1.36-.09-.5-.26-.68,0-1.07-.71.05-2.89-1.71-3.35-2.27-.9-1.07-.52-2.75-1.31-3.72-.93-1.14-2.39-.83-3.23-2.4a18.5,18.5,0,0,1-1.16-3.45c-.41-1.46-.22-2.93-.51-4.41-.44-2.26-2.19-2.8-4.14-3.8-2.22-1.14-5.09-2.4-6.41-4.64-1.2-2-.3-4,.4-6,.83-2.37,1.71-4.74,2.34-7.17.51-2,0-3.77.37-5.71.46-2.7,3.16-1.37,4.87-2.64,1.36-1,2.19-1.9,4-1.58,2.08.36,4,1.88,6.07,2.54,1.86.61,5,2.44,5.91,0,.64-1.71-.67-5.12,2-5.51,2.52-.36,4.49,2.16,6.48,3.13,3.43,1.66,5-2,6.57-4.27,2.7-4.07,3.55,0,6,1.49a17.17,17.17,0,0,0,4.09,1.42,47.37,47.37,0,0,1,6.6,2.65,60.84,60.84,0,0,1,10,5.78c2.85,2.12,6.39,1.8,9.17,4.11a49.73,49.73,0,0,1,4.42,4.59c.43.46,1.72,2.26,2.46,2.3s.41-.69-.07-.84c2,.63.53,1.28-.14,2.21-.22.31-.41,1.21-.51,1.33-.51.61-1.18.51-1.7,1.08-1.08,1.19-1.1,3.81-2.09,5.27-1.15,1.68-2.21,1.66-3.88,2.34-1.07.43-1.79,2.06-2.91,2.07-.79,0-2.69-1.42-2.57-2.29.2-1.45,2.71.11,3.45.23,1.39.22,2.84,0,4.26.26.83.14,2.78.28,3.34,1,1.29,1.77-1.39,2.68-2.18,3.67a5.32,5.32,0,0,0-.81,4.34,9.44,9.44,0,0,0,.46,2.16c.23.55,1,1.22,1,1.72s-1.3,1-1.36,1.75c-.09,1.19,1,.88,1.6,1.47s.31,1,.58,1.73c.36,1,1.21,1.57,1.45,2.61.59,2.56-3.19,5.33-5.41,5.83-1.79.4-2.47-.9-3.95-1.33-1.17-.34-2.52.41-2,1.5s2.79,1.87,3.05,3c.22,1-2,2-.53,2.74" fill="#dad3d3"/>
    <path d="M153.69,283.17c-3.2,1.56-5.41-1.2-7.46-1s-3.87,1.68-5.81,1.95c-1.77.24-6,.25-7.69-.82-1.24-.77-2.12-2.63-3.18-3.63s-2.48.27-3.39-.66-.29-3-.93-3.68c-.42-.44-4.06-2.39-4.14-2.91-.15-1,1.94-1.35,1.71-2.3-.42-1.71-4.61-4.15-5.42-6.28a46.4,46.4,0,0,1-.92-6c0-3.9.45-5.34-.9-8.92-1.27-3.37-3.91-4.37-1.19-7.49,4-4.63,5.49.93,9.19,1.16,4.91.3,7.89-5.92,12.23-7.62,3.94-1.54,9.53-1.18,11.78,3.28,1.91,3.78-3.3,8-1.25,10.55.88,1.1,5.61-.88,6.19-2.09,1-2-.73-7.91.48-10.5,2.52-5.36,10.75,6.22,10.69,9.75,0,1.34-5.82,2.85-5.77,3.39.2,2,2.08,2.39,2.71,3.91,2.11,5.11,2.81,6,2.88,11.92.06,4.58.79,7.7-1.28,12.37C159.38,284,159,280.89,153.69,283.17Z" fill="#dad3d3"/>
    <path d="M240.25,242.25c-1.47,1.08-1.81-4.36-3.48-3.63h0c-1.42.71-2.68,2.6-4.5.6l-.71-.67c-1.55-2.08-3.87-1.17-5.9-1.37-1-.1-2.15.09-2.62-1-.57-1.29.53-2.17,1.46-2.54,3.16-1.44,1.87-4.06,2-6.27.09-1.4-1.2-1.08-2.17-1.31-4-.82-7.1,1.75-10.75,2.33-4.68.74-4.76.89-4.77-3.42,0-2.92-3.56-7.78-1.08-10.35,1.15-1.19,3-1.33,1.51-3-.1-2,.74.09-.1-2-.65-1.65,2.16-7.53,3.51-8.31,2-1.18,3-3,4.39-4.62,1.81-3,4.64-3.75,8.11-4.18,5.28-.65,10.31,0,15.49.79,3.33.48,5.6,2.57,7.86,4.54,1.31,1.15.55,2.8.15,4.33-1.23,4.61-1.75,9,.72,13.69,1.33,2.52,1.38,6.11.71,9.28-.33,1.58-1,3.25,1,4.38l1.43,3c2.85,4.73,2.59,4.7-1.15,8.55-2.29,2.37-3.67,3.19-5,1.72-.42-.45-6.08.08-6.15-.52" fill="#e3d897"/>
    <path d="M144.5,210.87l4-7.22c3.21-2,8.2,7.86,9.28,11.32,1.23,3.92-1,4.78-1.22,9a3.53,3.53,0,0,1-1.68,3.26h0c-4.86.76-5.67.14-5.58-4.62C149.33,221.06,143.4,212.33,144.5,210.87Z" fill="#f1e5b4"/>
    <path d="M154,294.32l.07-2.83c.41-.75.08-1.76.73-2.4,2.78-2.69,4.44-2.78,6.53-5.88,1.9-1.57,5.67-12.2,7.66-13.71,3.74,6.65,1.15,15.75-2.44,18.45A31.73,31.73,0,0,1,164,292.7c-2.59,3.24-.75,3.21-2.44,6.8v-.07c-1,2,.1,4.33-.74,6.4-.41,1-2.17,2.76-3.7,2.61s-1.94-1.12-2.1-2.52C154.69,302.73,151.41,297,154,294.32Z" fill="#d8d1d1"/>
    <path d="M117.38,286.75c-.71-.18-2.52-1.93-3.23-2.1a5.16,5.16,0,0,1-3.76-5.09c.17-2.22,4.86-3.56,6.36-3.56.61.1,9.53,6.75,10.15,6.73,3.8,3.37,2.3,3.55,2.77,7.13,2,1.47,1.68,4.05,1.83,6.11s-5.39,3.48-6.49,3c-2.41-1-4.75-3.77-7.13-4.82-.15-.39.16-.77,0-1.15-1.07-3.52,1.27-1.39-1.07-3.52C116.36,289.1,117.78,287.32,117.38,286.75Z" fill="#d9d2d2"/>
    <path d="M141.84,300.86a2.11,2.11,0,0,1-1.19-1.89,6.14,6.14,0,0,0-2.29-3.82,7.7,7.7,0,0,1-2-2.55c-.56-1.36-3.44-4.8-2.36-5.85s4.56-.46,5.26.18c1.63,1.5,5.11,4.6,7.21,5.1h0c.45,1.7,1.52.25,2.57.84,1.82,1,1.68,4,.22,4.73S143.44,301.65,141.84,300.86Z" fill="#d8d1d1"/>
    <path d="M143,289c.05-.62-3.5-4.93-3.53-6.6,0-2,12.51-.73,14.52-.72.08,0,1.44-.41,1.5-.41,1.26.15,2.69-.34,2.76,1.12,1.42,4-3.06,11.35-4.3,12S143.24,290.48,143,289Z" fill="#d6cfcf"/>
    <path d="M172,110.75c-1.75,0-10.88-1.43-9-7a57.06,57.06,0,0,1,5.5-10c2.59-3.28,3-6.84,5.25-6.25.2.06,9.22,6.86,5.75,7.68,5.22-1.75,3.81,5,3.75,5.32-2.74.85-8.41,8.21-10.19,10.23C172.9,110.9,172.36,110.75,172,110.75Z" fill="#e5c0de"/>
    <path d="M361.68,287.82a.51.51,0,0,1-.41.49c-.24.09-.54.15-.67.37-4.33,7.2-5.7,6.24-11.47,1.2-2.18-1.89-10.63.59-12.55-1.48-1.76-2.13-2.87-4.9-5.08-6.73-1.88-1.56-1-5.15-.7-7.71.62-5.18,2.13-10.14,2.28-15.5a2.86,2.86,0,0,1,1.94-3.09c2.18-.44,1.14,2.88,2.43,3.39,1.33,1.24,8.1,2.69,10.21,2.44,1.46-.18,1.82,1.7,2.05,3.29a11.25,11.25,0,0,0,6.54,7C361.47,273.19,363.51,279.89,361.68,287.82Z" fill="#e3d897"/>
  </g>
  <path d="M196,153.43c-1.1,0-1.84-3.41-1.85-4.55s.78-1.44,1.76-1.51c1.09-2.87,4.86,0,6-1a.56.56,0,0,1,.54.09.86.86,0,0,1,.09.56c-1.66.52-2.59,4.48-2.59,4.48C199,151.77,197,153.29,196,153.43Z" fill="#e5c0de" opacity="0.75" style="isolation: isolate"/>
</svg>
