<svg id="142b0058-c11c-43ac-bf91-83b11e43837d" data-name="Layer 1 Image" xmlns="http://www.w3.org/2000/svg" viewBox="0 0 709 409">
  <title>kort_kbhture_A12</title>
  <g style="opacity: 0.5">
    <g>
      <path d="M186,410H1q0-67.5,0-135c1.23-.34,3.07-.3,3.58-1.1,2.12-3.34,3.86-6.94,5.71-10.45,10.59-20.07,21.27-40.1,31.7-60.25,2.94-5.67,6.93-10.38,5.93-18.38-.71-5.74-2.36-8.39-6.44-11A58.92,58.92,0,0,1,34.58,169c-3.24-2.8-6.8-4.05-10-.87-2.38,2.33-3.77,5.69-5.52,8.64-.42.7-.28,1.78-.77,2.38-1.3,1.62-3.15,2.87-4.17,4.63C9.6,191.42,5.34,199.23,1,207Q1,104.14,1,1H151c-6,10.54-9.51,22.49-19,31a123.24,123.24,0,0,0-14.26,15.88c-2.68,3.44-5.28,7.54-6,11.67-.29,1.75,4.34,4.43,6.87,6.52s5.18,4.1,7.9,6c6.28,4.32,9.6,4.41,14.41-.66,8-8.4,15.64-17.1,23.24-25.85a47.14,47.14,0,0,0,6.67-9.69c5.84-11.71,9.13-25,21.32-32.59.77-.48,1.2-1.51,1.8-2.29H469V17c-1.44-1.77-2.47-2.59-2.9-3.66A57,57,0,0,1,464,6.78c-1.47-5.43-2.8-6-7.42-2.66-3.24,2.31-6.1,5.32-9.62,7-5.44,2.65-5.86,7.26-4.67,11.71.51,1.92,4.22,3.37,6.75,4.28,8.75,3.15,8.71,3,14.32-4.57,1.2-1.62,3.27-2.59,4.93-3.86l1.08,1.3c-1.67,5.49-2.18,11.25-7.82,15.14-5.2,3.59-9.39,8.51-10.51,15.15-.77,4.57-1.26,9.18-1.75,13.79A14.2,14.2,0,0,0,462.74,80c1.28.09,2.55.25,4.57.46L462.22,122l-1.82-.12-.75-6.7-5.86-.79c-.73,3.29-6.4,5.24-2.12,9.8,5.08,5.42,5.58,11.91,2.88,18.32-7.19,17-14.68,33.91-22.27,50.76-7.67,17-15.6,34-23.44,50.91-5.6,12.12-11.23,24.23-17,36.69L403,286.48l16.41-36.41a56,56,0,0,1,5.67,1.25c2.75.92,3.49,2.63,2.11,5.42q-9.68,19.52-19.15,39.15a40.28,40.28,0,0,0-1.64,4.74c6.32,2.59,6.34,2.6,3.59,8.25-1.49,3.08-3.07,6.11-4.62,9.17l-6.57-1.78-6.06,12.39c-2.78-1.2-5.36-2.23-7.88-3.41C365.55,316.15,346.29,307,326.95,298c-1.22-.57-3,.15-4.59.28.77,1.36,1.21,3.39,2.38,4,10.21,5.08,20.55,9.9,30.85,14.8l33.09,15.73c-4,5.38-7.17,10.48-11.13,14.86-14.77,16.35-31.05,30.85-51.08,40.7-2,1-2.77,4.15-4.67,5.56s-5.83,3.29-6.53,2.6c-3.82-3.8-8.61-2.7-13-3.51-7.78-1.44-16-1.61-23.3-4.29s-13.81-7.5-20.34-11.88A232.32,232.32,0,0,1,238.76,362c-6.59-5.53-13.54-7.18-20.79-2.51-5.61,3.61-10.46,8.4-15.65,12.66l-.32.26c-6.92,6.87-13.76,13.83-20.81,20.57-2.69,2.58-2.7,5-.85,7.87S184.12,407,186,410ZM406,124.9l-.72-5.45c-2.24,1.63-3.69,2.62-5.08,3.7-7,5.42-14.54,10.27-20,17.39-.94,1.22-.65,3.39-.93,5.12l2.27,1.29,24.58-22.18c-.8,5.25,3.72,5.81,6.79,7.07s5.42-.63,6.58-3.66c.93-2.46,2.13-4.91,2.48-7.47.41-3,1.78-4,4.61-3.74s5.65.49,6.89-3.19c.16-.48,2.77-.34,4.18-.1.89.15,1.65,1,2.38,1.5,1.62-6.41,3.53-12.2,4.46-18.15.91-5.79,1.87-12.28-4.21-16.11a8.6,8.6,0,0,1,.74-15c1.24-.65,2.75-2.09,2.89-3.31.93-7.72,1.78-15.46,2.12-23.22.25-5.63-3.53-8.92-9.19-8.31-7.84.85-15.62,2.27-23.47,3-2.55.25-5.72,0-7.76-1.33-5.8-3.78-11.22-8.15-16.69-12.43S376,17.5,375.06,23.43c-1.13,7-2.13,14-3.11,21.08-.62,4.48-1.67,8.39-6,11.16-5,3.21-9.46,7.23-14.09,11-6.16,5-6.21,8.64-.16,13.52,5.53,4.46,11.3,8.64,16.67,13.29a12.52,12.52,0,0,1,3.51,6.19c2.13,8.62,3.67,17.39,5.87,26,1.28,5,4.12,5.79,8.5,2.85,6.45-4.33,12.89-8.69,19.18-13.25,4.16-3,8.15-2.74,12.83-.2-1.06,2.83-2.11,5.56-3.11,8.31s-2.27,3.3-4.87,1.58C409.31,124.28,407.48,124.87,406,124.9ZM51.45,174.76c3.68-2.24,8.27-3.63,10.72-6.72,19.77-24.91,39.15-50.12,58.59-75.28,1.72-2.23,3.06-4.65.52-7.41-4.82-5.22-9.6-10.49-14.23-15.88-1.94-2.25-3.6-2.56-5.67-.37-8.16,8.63-17,16.72-24.36,26-14.35,18-27.91,36.62-41.77,55-4.47,5.93-3.65,11,2.35,15.13ZM80.67,277v.12c1.66,0,3.53.49,4.93-.12,2-.86,5.06-2.42,5.15-3.85A7.88,7.88,0,0,0,87.49,267a14.72,14.72,0,0,0-8.5-1.5,21.9,21.9,0,0,0-18.67,27.45,6.36,6.36,0,0,1,.42,2.86c-.95,4-2.46,7.82-3,11.82-.28,2.05.43,5.09,1.86,6.27,1.2,1,4.55.65,6.13-.36,3.37-2.17,4.73-5.53,3.89-9.86a118.18,118.18,0,0,1-2.29-17.14c-.29-6.42,2.9-9.29,9.35-9.49C78,277,79.34,277,80.67,277ZM246.14,78.5c-10.6-.32-8.77,2.08-11,8.62-1.92,5.56-3.31,11.31-4.72,17a7.41,7.41,0,0,0,.22,4.76c.66,1.29,2.7,3,3.65,2.76a5.55,5.55,0,0,0,3.2-3.7c1.11-5.54,1.74-11.18,2.55-16.78.84-5.76,3.19-8.33,9.81-5.87a71.38,71.38,0,0,0,16.28,3.45c1.42.17,3.14-2.2,4.73-3.41-1.12-1.06-2.09-2.8-3.38-3.06C260.39,80.84,253.26,79.73,246.14,78.5Zm110.61,26.41c1.3-2.71,2.21-4.64,3.15-6.56,1.54-3.14.74-5.66-1.85-7.86-6.76-5.72-14.16-10.33-23.12-12.8.77,2,1.66,4.07,3.21,5.35,4.83,4,10,7.54,14.78,11.61,1,.84,1.29,3.45.78,4.84-1.57,4.34.56,9.35,5.07,10.57,2.33.63,4.73,1,6.38,1.37,3.35,6.86-1.09,15.72,7.85,20.6a16.8,16.8,0,0,0,.3-3.61c-1-6.64-2.14-13.28-3.39-19.88a5.45,5.45,0,0,0-1.93-2.29C363.91,109.23,361.08,104.78,356.75,104.91ZM166.05,156.4l-1.34-.84c-1.08.83-3,1.55-3.12,2.51a87.53,87.53,0,0,0-1,13.17c0,3.22,1.27,6.44,1.2,9.65-.05,2.59-1.11,4.93-4.81,2.88a5,5,0,0,0-4.72.63,5.69,5.69,0,0,0-.94,4.91c.5,1.47,2.64,3.66,3.65,3.46,3.21-.64,6.75-1.61,9.22-3.61,4.72-3.83,6.29-8.74,2.07-15.38-2.53-4-3.8-7.37-.95-11.72C166.3,160.63,165.86,158.31,166.05,156.4ZM266.67,60.64l-.94,2c2.34,1.25,4.56,2.85,7,3.65,3.71,1.21,5.21,3,3.59,6.9-1.25,3-2.05,6.29-3.05,9.44a14.74,14.74,0,0,0,4.85-5.11c4.39-7.05,7-15.51,15.24-19.53.12-.06,0-.56,0-1.5-2-.34-5.12-1.79-6.12-.88-3.14,2.83-5.48,6.55-8.42,10.29Zm-48.13,58.73,0-.43c2.64,0,5.41.47,7.89-.18,1.45-.38,2.44-2.53,3.64-3.89-1.16-.9-2.21-2.34-3.51-2.6a34,34,0,0,0-8-.5,101,101,0,0,0-11.5,1.09c-1,.16-1.83,1.53-2.74,2.34,1,1,1.84,2.52,3,2.75C211,118.69,214.79,118.94,218.54,119.37ZM361,55.33l-5-10.22-1.67.15c-.2,1.48-.39,3-.61,4.44s.06,3.68-.81,4.34c-5.55,4.21-11.43,8-17,12.16-1.48,1.11-2.23,3.18-3.32,4.8l1,.87Zm-145.66,134-11-7c-.83,6.47,4.4,5.73,6.08,7.27l-8.84,12.16-8.06-8.76c-2.84,4.29-.88,6.95,8.83,12.91ZM364,39.66h4.85l-.68-5.76,2.08-4.08-1-.7L358,41.07l.77,1.25Z" style="fill: #878787"/>
      <path d="M710,155V282c-6.2,4.74-6.2,8.79,0,15v10l-3.53-3.85-7.73,4,6.2,10.41L710,315v95H586c3.31-6.24,6.46-12.57,10-18.65a13.6,13.6,0,0,1,5.07-4.35c2.89-1.64,6.86-2.08,8.93-4.34,5.5-6,5.56-9.69,1.24-17a9.06,9.06,0,0,1-.71-9.11,100.22,100.22,0,0,0,5.51-19.39c1.1-6.13,2.7-10.81,8.94-14,8.25-4.22,8.92-14.6,2.29-21.36-4.57-4.66-4.31-14.81.34-19.44-.61-1.69-1.52-3.24-1.7-4.87-.48-4.44-.52-8.93-1-13.37-.33-3.11,0-5.21,3.06-7.3,4.66-3.2,3.8-9.7,0-11.2-.82,2.76-.9,6.17-2.63,8.13a12.21,12.21,0,0,0-3.52,9.26c.27,8.74,1,17.64-.22,26.21-1.09,7.46-1.11,13.75,4,19.66,3.37,3.85.74,7.09-2.12,9.77-1.67,1.56-4,2.42-5.7,3.94-1.23,1.1-2.69,2.73-2.78,4.2a82.46,82.46,0,0,1-7.8,29.52c-1.86,4-2.76,7.84.15,12.42,4.14,6.52,1.85,10.72-5.66,13.4-2.4.85-5.55,1.83-6.63,3.73C590.78,393.7,587,401.92,583,410H573c.55-1,1.06-2,1.64-2.94,3.28-5.31,7.2-10.33,9.74-16,6.53-14.5,12.84-29.14,18.44-44,2.69-7.15,3.85-14.93,5.18-22.52,1.57-9,1.85-18.23,4-27,2.53-10.17,2.62-20.15,1.37-30.37-.95-7.7-1.86-15.44-2.1-23.18-.23-7.45.45-14.92.65-22.38a26.69,26.69,0,0,0-.54-4.19c-7,1.13-9.19,6.38-11.32,11.36-1.64,3.83-3.64,6.75-7.75,8.42-1.56.63-3.08,3.38-3.17,5.23a45.41,45.41,0,0,0,1,12.33c.53,2.27,2.62,4.2,4.13,6.2,1.12,1.5,2.5,2.8,3.64,4.29,1.54,2,2.64,4.48,4.52,6.05,4.44,3.73,5.21,8.06,1.88,12.78-1.41,2-2.33,4.35-3.83,6.25a11.17,11.17,0,0,1-4.38,3.63c-4.44,1.68-6.9,4.92-8.16,9.21s-2.32,8.85-3.6,13.81c1.28.77,3,1.69,4.54,2.76,1,.71,2.42,1.46,2.83,2.51,1.84,4.73,3.45,9.55,5,14.38.3,1,.37,2.73-.15,3.09-4.83,3.24-9.48,7.42-14.87,9-5.07,1.48-8.75,3-10.3,8.23A16,16,0,0,1,570,360.5c-4.46,7.51-4.6,8.06,1.2,14.17,5.33,5.6,3.61,12.48,3.1,18.73-.15,1.83-5.78,3.24-8.93,4.79a10,10,0,0,1-2.8,1c-2.08.32-4.18.53-6.28.67-1.7.11-3.45-.13-5.12.11-5.8.85-7.32,6.13-10.13,10.05H520c5.7-6.86,11-14.09,17.18-20.52,16.26-17,24.7-38.24,31.68-59.93,5.38-16.71,9-34,8.38-51.91-.48-14.21-.85-28.43-.91-42.65,0-4.31-2.27-5.76-5.67-5.88-7.72-.26-15.46-.19-23.19-.1a3.62,3.62,0,0,0-2.72,1.51c-1.79,3.5-3.31,7.15-5,10.89,4.53,2.3,8.64,4.1,12.42,6.44a7.83,7.83,0,0,1,3.51,4.7,81.23,81.23,0,0,1,1.09,16.35c-.64,10-1.26,20.18-3.29,30-2.07,10-2.32,20.76-8.71,29.57-.37.5-.83,1.45-.62,1.78,3.62,5.65-2.73,8.24-3,12.54a7.79,7.79,0,0,1-1.65-.24c-3.42-1.75-6.88-4.56-9.61,1.06-.23.46-2.59.35-3.67-.14-8.89-4-17.7-8.16-26.56-12.21a35.2,35.2,0,0,0-4.37-1.35c-.11,1.15-.26,1.72-.16,1.78,17.16,8.6,34.34,17.17,51.85,25.9-5,12.51-9.89,24.92-19.75,34.85-5.27,5.31-9.51,11.66-14.21,17.54H486l-6.63-27.85-2.62.62L483,410H409l42.66-49.61c4,2.49,8.17,5.09,12.36,7.65s9.12,4.37,9.57,11.33c3.22-8.44,1.67-13.75-4.39-17.76-1-.64-1.93-1.3-2.92-1.9q-9.71-5.79-19.44-11.57c-3.41-2-8.93-3.47-9.73-6.26-1.5-5.23-6-5.26-8.86-7.86a22.37,22.37,0,0,0-3.35-2.1l12.38-24c4.72,2.09,8.94,4,13.17,5.82s8.56,3.72,13.18,5.73c-3.54,7.46-6.58,14.05-9.78,20.57-2,4.17-1.8,7.45,3.1,9.57l13.11-28c6.5,3.26,12.31,6.35,18.29,9,1.49.67,3.55.1,5.35.1l.27-2c-6.24-2.95-12.39-6.08-18.74-8.77-3.3-1.4-3.71-3-2.17-6,3.28-6.5,6.28-13.14,9.41-19.71q10.25-21.49,20.54-43c1.24-2.59,1.81-4.63-2.43-4.95l-30.85,63.5c-5.57-2.7-10.75-5.65-16.26-7.73-3.86-1.45-4.06-3.83-3.26-6.9,2-7.77,4.17-15.49,6.4-23.7l-3.17-1.94,7.64-16.36,3.91.56c1.52-3.62,3-6.89,4.27-10.27,1.54-4.24,4.11-4.48,7.68-2.57s7.08,3.63,10.72,5.22c.78.34,2-.23,3-.38-.41-.93-.56-2.28-1.27-2.72-2.24-1.4-4.7-2.45-7.07-3.66-9.54-4.84-10.06-2.71-3.34-14.37L504.65,238l-2.41,5.6,3.16,1.53c1.71-3.7,3.13-7.23,5-10.51.64-1.12,2.53-2.44,3.6-2.26,4.65.8,9.22,2.12,14.56,3.43l-4.74,11,6.67,3.58,9.73-18-23.85-6c3.41-9.36,6.42-18,9.71-26.47.87-2.24,3.49-4.05,3.74-6.24.57-5.08.18-10.27.18-15.39l-6.79-1.88c0-4-.15-7.68,0-11.33.24-4.63-.54-9.77,5.26-12.1a3.15,3.15,0,0,0,1.39-2.43c.12-6.09.06-12.18.06-18.69H508.51c-1.18-4.14,1.08-4.7,3.92-4.76l18.13-.34c-4.79-5.48-4.65-6.08.94-7.86,4.71-1.5,9.46-3.53,14.27-3.81,2.63-.15,7.26,2.37,7.85,4.54a158.15,158.15,0,0,1,4.28,24.87c.25,2.39-1.91,5-2.87,7.56a5.76,5.76,0,0,0-.61,3c5.07,22.37,10.35,44.7,15.24,67.11.89,4.06,2.74,4.28,6.69,3.33-.7-3.08-1.31-6.06-2.07-9-4.65-18.06-9.34-36.1-14-54.16-.8-3.12-.09-5.35,3.62-6.08,6-1.18,12.08-2.37,13.31-10a1.47,1.47,0,0,1,1-1c4.32-.61,3.63-4,3.76-6.83.17-3.49.19-7,.1-10.49-.13-5,1.08-8.91,8.43-9.51l-6.64-8.14c-.89,6.27-3.74,5.81-7.06,4.68-10.65-3.62-21.33-7.12-32-10.69-2.29-.77-4.55-1.65-7.05-2.56l3-9.18c1.68.47,3.08.8,4.45,1.25q13.41,4.39,26.8,8.83c8.26,2.75,10.33,1.25,10.81-8.27L541.19,80.84,545,53.61c16.72,4.21,32,11.68,48.88,13.71a6.44,6.44,0,0,0-3.61-3.4c-13-4.42-26-8.71-39.05-13.09-2.1-.71-4.11-1.67-6-2.46L550.9,9.33c6.81,2.21,12.83,4,18.72,6.15,3.1,1.13,4.57.41,5.46-2.72,1.13-4,2.6-7.84,3.92-11.76H710V64c-6.52-2.87-4.49,2.91-6.2,5.8L710,71v31l-18.79,4.65,7.12,26.6c-4.92,3.08-6.71,1.46-7.51-3.23-.57-3.36-2.13-6.55-3.28-9.89-6.2,1.73-12.2,3.52-18.26,5.07-11.13,2.84-21.77,8.2-33.79,6.6a77.62,77.62,0,0,0-9.4-.74c-3.66,0-5.65,1.31-5.35,5.68.47,6.8.38,13.66.19,20.49-.11,4.11,1.62,5.34,5.42,4.9,6.91-.81,13.87-1.23,20.74-2.26,10.34-1.56,19.86-1.22,26.15,9.19,7-4,15.36-5.2,20.65-11.78l2.61,4ZM570.91,189.62c4.11-.58,5.45,2.52,6.14,6.37a12.93,12.93,0,0,0,1.14,4.27c1.21,2,2.82,5.45,4.28,5.46,7,0,11.11,4.57,15.51,8.8,2.33,2.24,4.59,2.1,7.06.17s6.32-2.52,4.4-7.35c-2.12-5.33-3.61-10.91-5.33-16.4-2.38-7.62-4.51-15.32-7.14-22.85-1.36-3.92-5-5-8.88-5-4.14,0-4.51,3.59-5,6.3C581.55,177.76,573.32,181.59,570.91,189.62Zm-83.77,75.43,1.15-1.67c-5.36-4.59-12.35-6.57-18.49-9.88-.52-.28-1.82.87-3.54,1.76Zm-8.89,20,1.16-2.09a104.2,104.2,0,0,0-20.08-9.54l-1,1.81ZM623,243.21l.78-.94-4.42-2.55c1,1.76,1.18,2.4,1.59,2.68A9.31,9.31,0,0,0,623,243.21Zm2.71,1.83.78-.9-2.62-1.06-.31.64Z" style="fill: #868787"/>
      <path d="M579,1c-1.32,3.91-2.79,7.79-3.92,11.76-.89,3.12-2.36,3.85-5.46,2.72-5.89-2.15-11.91-3.93-18.72-6.15l-5.67,39.05c1.91.79,3.92,1.76,6,2.46,13,4.38,26.05,8.67,39.05,13.09a6.44,6.44,0,0,1,3.61,3.4c-16.91-2-32.17-9.5-48.88-13.71l-3.84,27.23,41.65,13.49c-.48,9.52-2.56,11-10.81,8.27q-13.39-4.46-26.8-8.83c-1.37-.45-2.77-.78-4.45-1.25l-3,9.18c2.5.91,4.76,1.79,7.05,2.56,10.66,3.57,21.35,7.07,32,10.69,3.32,1.13,6.17,1.59,7.06-4.68l6.64,8.14c-7.35.59-8.55,4.53-8.43,9.51.09,3.5.07,7-.1,10.49-.13,2.81.56,6.22-3.76,6.83a1.47,1.47,0,0,0-1,1c-1.23,7.61-7.35,8.8-13.31,10-3.71.74-4.42,3-3.62,6.08,4.63,18.06,9.33,36.1,14,54.16.76,2.94,1.36,5.92,2.07,9-3.94.95-5.8.73-6.69-3.33-4.9-22.41-10.17-44.73-15.24-67.11a5.76,5.76,0,0,1,.61-3c1-2.55,3.12-5.17,2.87-7.56a158.15,158.15,0,0,0-4.28-24.87c-.59-2.17-5.22-4.69-7.85-4.54-4.82.27-9.56,2.31-14.27,3.81-5.59,1.78-5.73,2.38-.94,7.86l-18.13.34c-2.84.05-5.1.61-3.92,4.76H530c0,6.51.05,12.6-.06,18.69A3.15,3.15,0,0,1,528.5,153c-5.81,2.33-5,7.47-5.26,12.1-.19,3.65,0,7.31,0,11.33l6.79,1.88c0,5.12.39,10.31-.18,15.39-.25,2.19-2.87,4-3.74,6.24-3.29,8.5-6.3,17.11-9.71,26.47l23.85,6-9.73,18-6.67-3.58,4.74-11c-5.34-1.31-9.9-2.63-14.56-3.43-1.08-.18-3,1.13-3.6,2.26-1.86,3.28-3.28,6.81-5,10.51l-3.16-1.53,2.41-5.6-25.73-12.85c-6.73,11.66-6.2,9.52,3.34,14.37,2.37,1.2,4.82,2.26,7.07,3.66.71.45.86,1.79,1.27,2.72-1,.15-2.18.72-3,.38-3.64-1.59-7.22-3.34-10.72-5.22s-6.15-1.67-7.68,2.57c-1.22,3.38-2.75,6.65-4.27,10.27l-3.91-.56-7.64,16.36,3.17,1.94c-2.23,8.2-4.39,15.93-6.4,23.7-.8,3.07-.6,5.45,3.26,6.9,5.51,2.07,10.7,5,16.26,7.73l30.85-63.5c4.24.32,3.68,2.36,2.43,4.95q-10.32,21.45-20.54,43c-3.13,6.57-6.13,13.21-9.41,19.71-1.54,3-1.13,4.64,2.17,6,6.34,2.69,12.5,5.82,18.74,8.77l-.27,2c-1.8,0-3.85.57-5.35-.1-6-2.7-11.79-5.79-18.29-9l-13.11,28c-4.89-2.13-5.14-5.4-3.1-9.57,3.2-6.52,6.24-13.11,9.78-20.57-4.62-2-8.91-3.86-13.18-5.73S442,310.06,437.28,308l-12.38,24a22.37,22.37,0,0,1,3.35,2.1c2.86,2.6,7.36,2.62,8.86,7.86.8,2.79,6.33,4.23,9.73,6.26q9.71,5.79,19.44,11.57c1,.59,2,1.25,2.92,1.9,6.06,4,7.6,9.32,4.39,17.76-.45-7-5.38-8.77-9.57-11.33s-8.35-5.16-12.36-7.65L409,410h-8c6-7.48,11.92-15,18-22.44,7.94-9.75,16-19.41,23.94-29.17,1.93-2.37,1.65-4.44-1.25-6.09-5.18-2.93-10.21-6.11-15.4-9-1-.53-2.76-.73-3.54-.19-3.34,2.36-6.43,5.06-9.85,7.83l10.35,12.31-6.49,4.22-10.37-11.53-37.23,28.12c2,2.54,3.65,4.56,5.18,6.69,4.6,6.39,9.13,12.83,13.69,19.24h-4c-5.65-7.73-11.21-15.52-17.07-23.09-.64-.82-3.4-1-4.5-.31-6.08,3.64-12,7.63-17.9,11.5-1.93,1.26-3.85,2.54-5.78,3.81l1.38,1.42L346,410H314l1.88-3.43L294.23,399c-2.79-1-5.59-1.9-8.35-2.95-5.61-2.12-11.81-3.4-16.66-6.66-11.35-7.64-22-16.28-33-24.45-7.27-5.41-11-5.37-19-.65-4.84,2.85-9.93,5.27-14.91,7.89,5.19-4.26,10-9,15.65-12.66,7.25-4.67,14.21-3,20.79,2.51a232.32,232.32,0,0,0,19.89,14.82c6.53,4.38,13.08,9.22,20.34,11.88s15.52,2.85,23.3,4.29c4.36.81,9.15-.29,13,3.51.69.69,4.64-1.18,6.53-2.6s2.69-4.59,4.67-5.56c20-9.85,36.3-24.36,51.08-40.7,4-4.38,7.13-9.47,11.13-14.86l-33.09-15.73c-10.3-4.9-20.64-9.72-30.85-14.8-1.16-.58-1.6-2.61-2.38-4,1.54-.12,3.37-.84,4.59-.28,19.34,9,38.6,18.14,57.89,27.24,2.51,1.18,5.1,2.22,7.88,3.41l6.06-12.39,6.57,1.78c1.54-3.06,3.12-6.1,4.62-9.17,2.75-5.65,2.72-5.66-3.59-8.25a40.28,40.28,0,0,1,1.64-4.74q9.51-19.61,19.15-39.15c1.38-2.78.64-4.5-2.11-5.42a56,56,0,0,0-5.67-1.25L403,286.48l-11.14-5.58c5.78-12.47,11.41-24.57,17-36.69,7.84-17,15.76-33.88,23.44-50.91,7.59-16.85,15.08-33.74,22.27-50.76,2.71-6.41,2.21-12.9-2.88-18.32-4.28-4.56,1.4-6.5,2.12-9.8l5.86.79.75,6.7,1.82.12,5.09-41.57c-2-.21-3.29-.37-4.57-.46a14.2,14.2,0,0,1-13.41-15.92c.49-4.61,1-9.22,1.75-13.79,1.12-6.64,5.31-11.56,10.51-15.15,5.64-3.89,6.15-9.66,7.82-15.14l-1.08-1.3c-1.67,1.27-3.73,2.25-4.93,3.86-5.61,7.53-5.57,7.72-14.32,4.57-2.53-.91-6.23-2.36-6.75-4.28-1.2-4.46-.78-9.07,4.67-11.71,3.51-1.71,6.38-4.71,9.62-7,4.62-3.3,6-2.76,7.42,2.66a57,57,0,0,0,2.07,6.61c.43,1.06,1.45,1.88,2.9,3.66V1Z" style="fill: #024a00"/>
      <path d="M513,410c4.7-5.88,8.94-12.23,14.21-17.54,9.85-9.93,14.78-22.35,19.75-34.85-17.51-8.73-34.69-17.3-51.85-25.9-.11-.05,0-.62.16-1.78a35.2,35.2,0,0,1,4.37,1.35c8.86,4.05,17.67,8.22,26.56,12.21,1.08.49,3.44.6,3.67.14,2.74-5.62,6.19-2.82,9.61-1.06a7.79,7.79,0,0,0,1.65.24c.31-4.3,6.66-6.9,3-12.54-.21-.33.25-1.28.62-1.78,6.4-8.81,6.64-19.55,8.71-29.57,2-9.81,2.66-20,3.29-30a81.23,81.23,0,0,0-1.09-16.35,7.83,7.83,0,0,0-3.51-4.7c-3.78-2.34-7.9-4.14-12.42-6.44,1.68-3.74,3.19-7.39,5-10.89a3.62,3.62,0,0,1,2.72-1.51c7.73-.09,15.47-.17,23.19.1,3.4.12,5.65,1.57,5.67,5.88.06,14.22.43,28.44.91,42.65.6,17.87-3,35.2-8.38,51.91-7,21.69-15.42,42.91-31.68,59.93C531,395.91,525.7,403.14,520,410Z" style="fill: #024a00"/>
      <path d="M202.32,372.16c5-2.61,10.07-5,14.91-7.89,8-4.72,11.72-4.76,19,.65,11,8.18,21.66,16.81,33,24.45,4.85,3.27,11,4.54,16.66,6.66,2.76,1,5.57,2,8.35,2.95l21.64,7.58L314,410H191l-8.08-14c5.78-6.25,11.48-12.25,17-18.46,1.15-1.3,1.44-3.37,2.12-5.08Z" style="fill: #868788"/>
      <path d="M541,410c2.81-3.93,4.33-9.2,10.13-10.05,1.68-.25,3.42,0,5.12-.11,2.1-.14,4.2-.35,6.28-.67a10,10,0,0,0,2.8-1c3.15-1.55,8.78-3,8.93-4.79.51-6.24,2.23-13.12-3.1-18.73-5.8-6.1-5.66-6.65-1.2-14.17a16,16,0,0,0,1.49-3.59c1.55-5.19,5.22-6.75,10.3-8.23,5.38-1.58,10-5.76,14.87-9,.53-.35.46-2.13.15-3.09-1.54-4.83-3.15-9.66-5-14.38-.41-1-1.78-1.8-2.83-2.51-1.58-1.07-3.26-2-4.54-2.76,1.28-5,2.31-9.42,3.6-13.81s3.72-7.52,8.16-9.21a11.17,11.17,0,0,0,4.38-3.63c1.5-1.91,2.42-4.26,3.83-6.25,3.33-4.72,2.56-9.05-1.88-12.78-1.88-1.57-3-4.05-4.52-6.05-1.14-1.48-2.52-2.79-3.64-4.29-1.5-2-3.6-3.93-4.12-6.2a45.41,45.41,0,0,1-1-12.33c.09-1.85,1.61-4.6,3.17-5.23,4.11-1.67,6.12-4.58,7.75-8.42,2.13-5,4.28-10.23,11.32-11.36a26.69,26.69,0,0,1,.54,4.19c-.19,7.46-.88,14.94-.65,22.38.24,7.74,1.15,15.48,2.1,23.18,1.26,10.23,1.17,20.2-1.37,30.37-2.19,8.79-2.46,18-4,27-1.33,7.59-2.49,15.37-5.18,22.52-5.6,14.88-11.91,29.51-18.44,44-2.54,5.64-6.46,10.66-9.74,16-.59,1-1.1,2-1.64,2.94Z" style="fill: #024a00"/>
      <path d="M710,155l-13.49,6.23-2.61-4c-5.29,6.58-13.61,7.8-20.65,11.78-6.29-10.4-15.81-10.75-26.15-9.19-6.87,1-13.83,1.46-20.74,2.26-3.8.44-5.54-.79-5.42-4.9.19-6.83.28-13.68-.19-20.49-.3-4.37,1.69-5.72,5.35-5.68a77.62,77.62,0,0,1,9.4.74c12,1.61,22.66-3.76,33.79-6.6,6.06-1.54,12.05-3.33,18.26-5.07,1.15,3.34,2.71,6.53,3.28,9.89.79,4.69,2.58,6.3,7.51,3.23l-7.12-26.6L710,102Z" style="fill: #024a00"/>
      <path d="M194,1c-.59.78-1,1.81-1.8,2.29C180,10.86,176.72,24.17,170.89,35.88a47.14,47.14,0,0,1-6.67,9.69C156.62,54.32,148.95,63,141,71.42c-4.82,5.08-8.14,5-14.41.66-2.72-1.87-5.36-3.87-7.9-6s-7.16-4.77-6.87-6.52c.69-4.13,3.29-8.22,6-11.67A123.24,123.24,0,0,1,132,32c9.46-8.55,13-20.49,19-31ZM158.89,9.4l-2.19-.58-2.49,8.29C158.64,15.5,161.35,13.36,158.89,9.4Z" style="fill: #024a00"/>
      <path d="M1,207c4.34-7.77,8.6-15.58,13.08-23.26,1-1.75,2.87-3,4.17-4.63.49-.61.35-1.68.77-2.38,1.75-2.95,3.14-6.3,5.52-8.64,3.24-3.18,6.8-1.93,10,.87a58.92,58.92,0,0,0,6.89,4.85c4.08,2.61,5.73,5.26,6.44,11,1,8-3,12.71-5.93,18.38-10.43,20.16-21.11,40.18-31.7,60.25C8.44,267,6.7,270.56,4.58,273.9c-.51.8-2.35.75-3.58,1.1Q1,241,1,207Z" style="fill: #024a00"/>
      <path d="M388,410c-4.56-6.42-9.1-12.85-13.69-19.24-1.53-2.13-3.21-4.16-5.18-6.69l37.23-28.12,10.37,11.53,6.49-4.22-10.35-12.31c3.41-2.76,6.51-5.46,9.85-7.83.77-.55,2.58-.35,3.54.19,5.19,2.89,10.23,6.08,15.4,9,2.9,1.64,3.18,3.72,1.25,6.09-7.94,9.76-16,19.41-23.94,29.17-6,7.43-12,15-18,22.44Z" style="fill: #868787"/>
      <path d="M346,410l-5.87-6.67-1.38-1.42c1.93-1.27,3.85-2.55,5.78-3.81,5.94-3.87,11.81-7.86,17.9-11.5,1.1-.66,3.86-.52,4.5.31,5.86,7.56,11.42,15.36,17.07,23.09Z" style="fill: #858787"/>
      <path d="M583,410c4-8.08,7.78-16.3,12.21-24.14,1.07-1.9,4.23-2.88,6.63-3.73,7.52-2.68,9.8-6.87,5.66-13.4-2.91-4.58-2-8.39-.15-12.42a82.46,82.46,0,0,0,7.8-29.52c.09-1.47,1.55-3.1,2.78-4.2,1.72-1.52,4-2.38,5.7-3.94,2.86-2.68,5.48-5.92,2.12-9.77-5.16-5.91-5.14-12.2-4-19.66,1.26-8.57.49-17.47.22-26.21a12.21,12.21,0,0,1,3.52-9.26c1.73-2,1.81-5.38,2.63-8.13,3.76,1.5,4.62,8,0,11.2-3.05,2.09-3.39,4.19-3.06,7.3.47,4.44.51,8.93,1,13.37.18,1.63,1.09,3.18,1.7,4.87-4.65,4.63-4.9,14.78-.34,19.44,6.63,6.76,6,17.14-2.29,21.36-6.24,3.19-7.84,7.88-8.94,14a100.22,100.22,0,0,1-5.51,19.39,9.06,9.06,0,0,0,.71,9.11c4.32,7.29,4.26,11-1.24,17-2.07,2.27-6,2.7-8.93,4.34a13.6,13.6,0,0,0-5.07,4.35c-3.57,6.08-6.72,12.42-10,18.65Z" style="fill: #024a00"/>
      <path d="M202,372.42c-.68,1.71-1,3.78-2.12,5.08-5.47,6.21-11.18,12.21-17,18.46L191,410h-5c-1.88-3-3.73-6.12-5.66-9.14s-1.84-5.3.85-7.87C188.24,386.25,195.08,379.29,202,372.42Z" style="fill: #024a00"/>
      <path d="M710,315l-5.07,2.57-6.2-10.41,7.73-4L710,307Z" style="fill: #024a00"/>
      <path d="M483,410l-6.25-27.23,2.62-.62L486,410Z" style="fill: #024a00"/>
      <path d="M710,297c-6.2-6.21-6.2-10.26,0-15Z" style="fill: #024a00"/>
      <path d="M710,71l-6.2-1.2c1.72-2.88-.32-8.66,6.2-5.8Z" style="fill: #024a00"/>
      <path d="M51.45,174.76,37.6,165.2c-6-4.15-6.82-9.2-2.35-15.13,13.86-18.38,27.42-37,41.77-55,7.38-9.25,16.2-17.34,24.36-26,2.06-2.18,3.73-1.88,5.67.37,4.63,5.39,9.41,10.66,14.23,15.88,2.54,2.75,1.2,5.18-.52,7.41C101.32,117.92,81.93,143.13,62.17,168,59.72,171.13,55.14,172.52,51.45,174.76Z" style="fill: #024a00"/>
      <path d="M406,124.89c1.45,0,3.28-.61,4.28.05,2.6,1.73,3.91,1.06,4.87-1.58s2-5.48,3.11-8.31c-4.68-2.54-8.67-2.82-12.83.2-6.29,4.56-12.73,8.92-19.18,13.25-4.38,2.94-7.22,2.15-8.5-2.85-2.2-8.6-3.74-17.37-5.87-26a12.52,12.52,0,0,0-3.51-6.19c-5.36-4.65-11.13-8.83-16.67-13.29-6.05-4.88-6-8.52.16-13.52,4.63-3.76,9.1-7.78,14.09-11,4.32-2.78,5.37-6.68,6-11.16,1-7,2-14.07,3.11-21.08,1-5.93,8.28-7.45,13.88-3.07S399.84,29,405.64,32.79c2,1.33,5.2,1.59,7.76,1.33,7.85-.78,15.63-2.2,23.47-3,5.66-.61,9.43,2.68,9.19,8.31-.34,7.76-1.19,15.51-2.12,23.22-.15,1.23-1.65,2.67-2.89,3.31a8.6,8.6,0,0,0-.74,15c6.08,3.83,5.12,10.32,4.21,16.11-.94,6-2.85,11.75-4.46,18.15-.73-.48-1.49-1.35-2.38-1.5-1.41-.24-4-.37-4.18.1-1.24,3.69-4.07,3.43-6.89,3.19s-4.19.7-4.61,3.74c-.35,2.56-1.55,5-2.48,7.47-1.15,3-3.5,4.93-6.58,3.66s-7.59-1.83-6.79-7.07ZM382,23.85c-.66,8.46-7,15.89-2.08,24.21a1.55,1.55,0,0,1-.11,1.43c-3.22,3.61-2.35,11.38-10.41,10.16-.9-.14-2.08.94-3,1.65-2.34,1.84-4.6,3.79-6.89,5.7-7.74,6.48-7.93,6.73,0,12.61,4.15,3.08,7.23,8.5,13.76,7.6.74-.1,1.92,1.26,2.51,2.18,1.84,2.89,3.5,5.91,4.63,7.83-3.77,9.73,1,17.53,2.79,26.29,6.19-5.39,15.14-6.75,18.54-15.28a4,4,0,0,1,2.13-2.15c3.44-1.1,7-1.93,10-2.75,1.72,1.53,3.13,3.85,4.85,4.11,6.16.93,12.42,1.17,20.18,1.8-1.82-6.42-3.44-11.68-4.77-17-.95-3.8-.95-8-6-9.14-.46-.1-1.18-1.06-1.08-1.42,1.82-6.35-5.73-14.63,3.93-19.4.47-.23.76-1.06.92-1.67,1.76-6.36,3.35-12.77,5.27-19.08,1-3.18-.63-3.47-3-3.32a75.54,75.54,0,0,0-9.88.87,43.4,43.4,0,0,0-10.07,3.19c-3.5,1.67-12.87,0-13.86-3.28C397.68,29.8,388.25,29.14,382,23.85Z" style="fill: #024a00"/>
      <path d="M80.67,277c-1.33,0-2.66,0-4,0-6.45.2-9.64,3.07-9.35,9.49a118.18,118.18,0,0,0,2.29,17.14c.84,4.33-.52,7.69-3.89,9.86-1.58,1-4.93,1.35-6.13.36-1.43-1.18-2.14-4.21-1.86-6.27.54-4,2.06-7.86,3-11.82a6.36,6.36,0,0,0-.42-2.86A21.9,21.9,0,0,1,79,265.47a14.72,14.72,0,0,1,8.5,1.5,7.88,7.88,0,0,1,3.26,6.19c-.1,1.43-3.15,3-5.15,3.85-1.4.6-3.27.12-4.93.12Z" style="fill: #024a00"/>
      <path d="M246.14,78.5c7.11,1.23,14.25,2.34,21.31,3.8,1.28.27,2.26,2,3.38,3.06-1.58,1.2-3.31,3.58-4.73,3.41a71.38,71.38,0,0,1-16.28-3.45c-6.62-2.46-9,.11-9.81,5.87-.81,5.6-1.44,11.24-2.55,16.78a5.55,5.55,0,0,1-3.2,3.7c-1,.26-3-1.46-3.65-2.76a7.41,7.41,0,0,1-.22-4.76c1.41-5.72,2.81-11.47,4.72-17C237.38,80.59,235.55,78.18,246.14,78.5Z" style="fill: #024a00"/>
      <path d="M356.75,104.91c4.32-.13,7.16,4.32,11.23,1.34a5.45,5.45,0,0,1,1.93,2.29c1.25,6.6,2.34,13.24,3.39,19.88A16.8,16.8,0,0,1,373,132c-8.94-4.88-4.5-13.74-7.85-20.6-1.65-.35-4.05-.73-6.38-1.37-4.51-1.23-6.64-6.23-5.07-10.57.5-1.39.2-4-.78-4.84C348.16,90.58,343,87,338.13,83c-1.55-1.28-2.44-3.35-3.21-5.35,9,2.47,16.36,7.08,23.12,12.8,2.59,2.19,3.39,4.72,1.85,7.86C359,100.27,358,102.2,356.75,104.91Z" style="fill: #024a00"/>
      <path d="M166.05,156.4c-.19,1.91.24,4.23-.69,5.65-2.85,4.35-1.58,7.74.95,11.72,4.22,6.64,2.65,11.55-2.07,15.38-2.47,2-6,3-9.22,3.61-1,.2-3.15-2-3.65-3.46a5.69,5.69,0,0,1,.94-4.91,5,5,0,0,1,4.72-.63c3.7,2,4.76-.29,4.81-2.88.06-3.21-1.17-6.43-1.2-9.65a87.53,87.53,0,0,1,1-13.17c.14-1,2-1.68,3.12-2.51Z" style="fill: #024a00"/>
      <path d="M406.13,124.77l-24.58,22.18-2.27-1.29c.28-1.73,0-3.9.93-5.12,5.47-7.12,13-12,20-17.39,1.39-1.07,2.83-2.07,5.08-3.7.32,2.41.52,3.93.72,5.45Z" style="fill: #024a00"/>
      <path d="M266.67,60.64l12.2,5.26c2.94-3.75,5.28-7.46,8.42-10.29,1-.9,4.12.54,6.12.88,0,.94.1,1.44,0,1.5-8.28,4-10.85,12.48-15.24,19.53a14.74,14.74,0,0,1-4.85,5.11c1-3.15,1.8-6.39,3.05-9.44,1.62-3.93.12-5.69-3.59-6.9-2.48-.81-4.7-2.41-7-3.65Z" style="fill: #024a00"/>
      <path d="M218.54,119.37c-3.74-.43-7.53-.68-11.21-1.42-1.12-.22-2-1.79-3-2.75.91-.81,1.73-2.19,2.74-2.34a101,101,0,0,1,11.5-1.09,34,34,0,0,1,8,.5c1.29.26,2.34,1.7,3.51,2.6-1.2,1.36-2.19,3.51-3.64,3.89-2.48.65-5.24.18-7.89.18Z" style="fill: #024a00"/>
      <path d="M361,55.33,333.61,71.88l-1-.87c1.09-1.63,1.84-3.69,3.32-4.8,5.57-4.18,11.46-7.94,17-12.16.87-.66.59-2.85.81-4.34s.41-3,.61-4.44l1.67-.15Z" style="fill: #024a00"/>
      <path d="M215.34,189.29l-13,16.56c-9.71-6-11.68-8.62-8.83-12.91l8.06,8.76,8.84-12.16c-1.68-1.54-6.91-.8-6.08-7.27Z" style="fill: #024a00"/>
      <path d="M364,39.66l-5.23,2.65L358,41.07l11.23-11.94,1,.7-2.08,4.08.68,5.76Z" style="fill: #024a00"/>
      <path d="M570.91,189.62c2.41-8,10.64-11.86,12.19-20.27.5-2.72.87-6.32,5-6.3,3.84,0,7.51,1.13,8.88,5,2.62,7.53,4.76,15.23,7.14,22.85,1.71,5.49,3.2,11.07,5.33,16.4,1.92,4.83-2,5.45-4.4,7.35s-4.73,2.07-7.06-.17c-4.4-4.23-8.47-8.76-15.51-8.8-1.46,0-3.07-3.42-4.28-5.46a12.93,12.93,0,0,1-1.14-4.27C576.36,192.15,575,189,570.91,189.62Z" style="fill: #024a00"/>
      <path d="M487.14,265.05l-20.88-9.79c1.72-.89,3-2,3.54-1.76,6.14,3.32,13.13,5.29,18.49,9.88Z" style="fill: #024a00"/>
      <path d="M478.24,285.08l-19.87-9.83,1-1.81A104.2,104.2,0,0,1,479.41,283Z" style="fill: #024a00"/>
      <path d="M623,243.21a9.31,9.31,0,0,1-2.06-.81c-.41-.28-.58-.92-1.59-2.68l4.42,2.55Z" style="fill: #024a00"/>
      <path d="M625.73,245l-2.15-1.32.31-.64,2.62,1.06Z" style="fill: #024a00"/>
      <path d="M158.89,9.4c2.46,4-.26,6.11-4.68,7.72l2.49-8.29Z" style="fill: #7c8285"/>
      <path d="M382,23.85c6.28,5.29,15.71,6,18.47,15.14,1,3.3,10.36,5,13.86,3.28a43.4,43.4,0,0,1,10.07-3.19,75.54,75.54,0,0,1,9.88-.87c2.33-.16,3.93.14,3,3.32-1.92,6.31-3.51,12.72-5.27,19.08-.17.61-.45,1.44-.92,1.67-9.66,4.77-2.12,13-3.93,19.4-.1.36.62,1.32,1.08,1.42,5,1.12,5,5.34,6,9.14,1.33,5.33,2.95,10.58,4.77,17-7.76-.62-14-.86-20.18-1.8-1.72-.26-3.13-2.58-4.85-4.11-3.07.82-6.59,1.65-10,2.75a4,4,0,0,0-2.13,2.15c-3.4,8.53-12.36,9.89-18.54,15.28-1.77-8.75-6.57-16.55-2.79-26.29-1.13-1.93-2.78-4.94-4.63-7.83-.59-.93-1.77-2.28-2.51-2.18-6.54.9-9.61-4.52-13.76-7.6-7.93-5.88-7.74-6.14,0-12.61,2.29-1.91,4.55-3.86,6.89-5.7.9-.71,2.08-1.78,3-1.65,8.06,1.22,7.19-6.55,10.41-10.16a1.55,1.55,0,0,0,.11-1.43C374.94,39.74,381.3,32.31,382,23.85Z" style="fill: #868787"/>
    </g>
  </g>
</svg>
