<svg id="Layer_2" data-name="Layer 2" xmlns="http://www.w3.org/2000/svg" width="400" height="400" viewBox="0 0 400 400">
  <title>kort_kbhture_A12-01</title>
  <g opacity="0.75">
    <path d="M39.76,206.65v-3.23c-1.2-2.57.88-5.27.83-7.93-.08-4.76-1.9-10.3-.08-14.87.67-4.86-.22-8.62-.5-13.47-.34-5.8,2.06-12.3,2.75-17.87.29-2.33,2.47-3.94,3.12-6.22.9-3.16,2.13-3.87,5-2.36A30.48,30.48,0,0,1,60,148c1.78,2.07,3.63,1.3,5.62,1.54,2.49.32,3.72-.49,4.31-2.88a2.75,2.75,0,0,1,1.68-2,6.61,6.61,0,0,0,4.07-6.13c.25-4.48,2.4-6.58,6.29-7.42a22.71,22.71,0,0,1,5.38-.47c2.84.86,3.7,3.21,4,5.88.69,5.36.67,5.36,6,5,4.44-1.51,8.86-2.67,12.78,1.3a8.28,8.28,0,0,1,2.38,5.06c.45,4,2,5.83,4.85,6,3.13.22,5-1.33,5.88-5.44a7.6,7.6,0,0,1,4.47-5.8,17.79,17.79,0,0,1,5-.4,18,18,0,0,0,5.16-.11,2.86,2.86,0,0,1,3.71,1.77,3.08,3.08,0,0,1,.09.3c1.62,2.25.69,4.89,1.06,7.33,1.56,3.47,4.8,8.67,7.45,11.13h1.72c1.16-2.13,2.69-3.19,5.22-2.46a10,10,0,0,0,3.87,0,4.58,4.58,0,0,1,5.12,2.58,1.53,1.53,0,0,0,.45.46c2.55,2,4.51,4.67,3.2,7.74-.4.93-1,1.88-.8,2.84.79,3.72-1.11,6.05-3.65,8.1-.48,1.91-2.26,2.76-3.24,4.25-.84,2.07-2.33,4.09-2.87,6.28-.23.94.15,2.13-1.38,2.18-1.34,0-3-2.48-3.66-4.14-.34-.83-.21-2.41-1.52-2.18s-1,1.76-1.08,2.85v2.38c0,1.18,2,5.13,0,5-1.49-.07-5.6-.08-5.57-2.62,0-2.07-1.1-2.81-2.94-2.68-2.12.15-2.34-3-2.34-5,0-1-.24-1.86-1.29-2.07-1.21-.26-1.42,1-1.78,1.65-1.2,2.14-.23,3.66,1.76,6.14a3.37,3.37,0,0,1,.61,2.26c-.22,4.14-.22,10.53-.3,14.62-.06,2.81-3.32,7.52-5.86,8.09-.7.16-2.64-3-3.3-2.87-1.7.28-1.81.21-4.2.54-1,.73,3.56,3.37,5.19,4.12,2.84,1.31-.08,2,0,4.75.09,5.42-1.39,5.12-7.25,5.25-4.36,2.89-7.47.71-11.53-2.9-1.35-1.2-3-1.75-4-.35-2.06,2.77-4.34,1.9-6.77,1.17a8.35,8.35,0,0,1-2.49-1.76c-4.54-3.48-9.34-6.47-14.92-7.72a9.06,9.06,0,0,1-4.59-2.94c-1.63-2-2.55-.57-3.48.8s-1.58,3.55-3.84,3.72c-2,.23-3.51-.85-5.14-1.8-3.49-2.07-4.52-1.48-5,2.46-.19,1.75-.59,3.17-2.73,2.89a22.48,22.48,0,0,1-6.27-2.77,4.92,4.92,0,0,0-6.12.05,3.58,3.58,0,0,1-4.46,1c-1.78-.82-1.36-2.43-1.28-3.81C41.84,214.74,39.25,210.73,39.76,206.65Z" fill="#f1e5b4"/>
    <path d="M89,131.07c-1.75.86-3.64.55-5.49.6-5.28,1-5.58,1.5-6.34,6.5-.41,2.67-1.12,5.52-4.55,6.28-1.33.3-1.43,1.31-1.71,2.21-.59,1.91-1.49,3.17-3.9,2.51a8.23,8.23,0,0,0-3,.23,3.14,3.14,0,0,1-2.82-.78,36.89,36.89,0,0,0-12.49-8.84c-2.44-1-1.53-3-.78-4.5a102.07,102.07,0,0,0,4.67-10.2h0c2.3-5.5,5.11-10.65,10.62-13.89a11,11,0,0,0,2.08-2.1c1.33-2.4,3.12-3.55,5.91-2.39a13.23,13.23,0,0,0,10.88-1,5.5,5.5,0,0,1,5.5-.48c2.08,1,4.16.09,6.32.15l2.08-.56c5.29,0,9.57-2.66,14.09-4.74,1-.45,1.13-1.23,1.51-2h0c4.86-5.72,5.2-13.35,9.18-19.57.65-.88,3.34-1.23,3.86-2.19h0c3.32-6.25,8.68-9.46,15.86-10.52,2.27-.33,4.91-.56,6.8-2.33l1.79-1c2.43-1,4.16-2.83,6.13-4.42.72-.58,1.77-1.55,2.67-.9,1.22.87-.28,1.67-.6,2.46-1.1,2.71-3.89,4.16-5.42,6.61s-1.7,4.44.37,6.67c1,1.06,1.59,2.38,2.66,3.37,1.17,2.29.36,4.73.58,7.1.34,3.78-.67,7.62.58,11.35v5.44c.5,5-5.05,6.52-5.54,11.36-.06,2.31-2.66,4-4.05,5.92l-.26,4.5c-4.07,4.91-3.25,5.84-3.12,11.26.07,2.13.84,4.24,1,6.4.19,1.71-.55,2.33-2.21,2.54-1.89.24-3.89-.35-5.68.69l-5.32.05a6,6,0,0,0-4.16,5.39c-.48,3.75-3.41,5.52-7.29,5.13-2.84-.29-4.66-2.57-4.87-6.1a7.09,7.09,0,0,0-7.41-6.72H107c-2.54.06-5.28-.76-7.47,1.25h-.68c-5.89,0-5.89,0-6.24-5.57C92.56,133.85,91.75,131.81,89,131.07Z" fill="#e7c1e0"/>
    <path d="M166.35,229.88c-2.42-1.23-2.32-3.68-3.28-5.65-.24-.67-1.09-.91-1.37-1.5-1.09-2-.4-3,2-3.18a155.68,155.68,0,0,1,15.94,0c1.73.11,3.14-.49,3.08-2,5.29-2.78,4.79-5.9,3.79-8.78-2-1.68-.16.1,0,0,1.33-2.44,1.25.59,0,0-1.92-.91-3.64,1-5.68.22h0c-1.29-.64-1.82-4.18-1.13-5.37a2.45,2.45,0,0,1,.28-.39c1-1.31,2.62-.79,3.78,0,2.19,1.43,4.74,1.75,7.25,2.27,3.64,1,10.31,1.54,14,1.89,1.52.14,3.12-3.33,4-1.4s-.64,3.11-2,4.28c-1.21,3.65-3.7,3.21-.12,3.92a2.58,2.58,0,0,1,1.89,1.75c1.68,1.77,1.36,4,1.3,6s.47,3.22,3,2.32c2.19-.77,4.57-.9,6.75-2s4.7-1.33,6.71.39c1.5,1.28.82,4.53-1.15,6.61-.62.66-1.56,1.22-1.09,2.23s1.62.74,2.52.79a11,11,0,0,1,4.55.72,4.06,4.06,0,0,1,1.27,1,2.89,2.89,0,0,1-.55,4.19,15.42,15.42,0,0,0-3.9,5.33,5.34,5.34,0,0,0-.31,4.62l1.09,1a7,7,0,0,0,3.61,1.12c4.25.08,5,.71,6.21,4.72a2.23,2.23,0,0,0,.56.83c1.31,2.44,1.71,6.76,1.52,9.27-1.68,1.63-4,1-6,1.41a11.86,11.86,0,0,0-4.22,1.4c-1.53,2.42-5.39,1.6-7.81,3-.52.29-1.09.41-1.09,1.08,0,.9.78,1,1.52,1,2.61-.2,2.61.43,2.07,2.82-.67,2.91-.16,6.08,0,9.21a1.92,1.92,0,0,0,2,1.6c.83,0-2.46-6.48-2.33-7.31.75-4.65,3.8-.83,8.37,1.8,2.59.53,5.47-1,7.85,1,.43.78,1.77,3.78,2.07,4.6.52,3,0,3.48-3.34,3.62-1.4.06-3-.75-4.2.67-1.36.5-3,.27-4,1.64-2.8,1.33-4.46,4.44-8.14,4.43-.48,0-.43.91-.51,1.44-2.05,4.06-2.78,8.52-5.22,12.39-2.56,1.65-.84,4.4-1.91,6.43-.81,1.09-1.69,2-3.37,1.62-1.93-.48-1.61-1.92-1.65-3.21-.05-2-.43-3.59-3-1.69a3.28,3.28,0,0,1-2.7.48c-3.52-.72-6.74.69-10.11,1.11-2.05.25-1.52,2.66-3.28,3.12-1.84,1.44-3.33.34-4.1-1-3-5.18-8.43-6.37-13.92-7.46-1.09-2.47-3.75-3.46-6.06-4.18-4.86-1.5-5.57-2.31-4-6.88h0c2.73-.6,2.57-4.77,2.64-6.83.05-1.58.49-2.73,2.13-3.33l.86-1.28c2.67-.49,6-1.76,8.67-2.17,4.12-.62,6.12.09,8.45,2.74,2.05,2.33,3.34,2.93,6.75,3.94,1.73.52,1.84,0,2.45-1.17,1.22-2.38,2.88,0,6.76.89,1.45.31,1.92-.8,2.19-2,.64-3.37,3.48-4.31,6.2-2,.8.68,1.33,1.54,2.56,1.54,1.18,1,2.26.79,3.47,1.59a2.58,2.58,0,0,0,2.25.38c.52-1.52-.62-.87-.62-.87-.87.25-1.87.06-2.88-2.1-5-.15-8.06-3.44-11.6-6-.37-.26,0,.14-.25-.23-.64-.93-1.47-5.28-.52-5.88,2.38-1.55,0-2.41-.44-3.5-.59-1.34-1.52-1.76-3.13-1.07a11.7,11.7,0,0,1-9.67.07c-2.28-1-4.68-.28-7-.45-4.28-.29-4.84-.73-5.47-4.71-.3-2.08-.83-6.82-2.15-8.31-.9-1-1.62-2.18-2.58-3.15s-1-1.94.26-2.76h0c4.12-2.86,4.23-3.85.8-7.93l-1.5-1c-2.11-1.66-3.9-3-1.28-6,1.64-1.9-.69-4.29-2.44-5.87A10.26,10.26,0,0,0,166.35,229.88Z" fill="#8ce3dc"/>
    <path d="M103.78,223.21l1.66,1.28c2,1.9,5,1.17,7.31,2.68a22.17,22.17,0,0,1,4.57,4.27c5.5,6.22,4,3,3.67,2.88,2.74.87-.52,1.94-.73,3a.69.69,0,0,1-.26,1l0,0c-.56.15-1.35.36-1.45.8-1.06,4.45-4.73,3.39-7.89,3.47a2.5,2.5,0,0,0-2,.43c-.89.76-1.73,1.63-1.2,2.83s1.82.59,2.78.69a24.05,24.05,0,0,0,2.44,0c.73,0,5.57.65,5.65,1.49s.4,1.67-.46,2.11c-3.75,1.9-2.82,5.05-2.17,7.88.38,1.66,1.88,1.12.46,2.36s-1,2.09.78,2.58c.76.21.28,1.9.89,2.5a3.34,3.34,0,0,1,1.16,3.28c-.38,1.58-1.83,1.47-3.11,1.39-3.18-.19-6.26-.12-8.48,2.53a1.48,1.48,0,0,0-1,1.91,1.51,1.51,0,0,0,.61.75c1.31,1,1.27,2.85,3.09,3.72,1.61.78-3.37,1.43-4.91,1.92s-2.36-.63-1.26,1.92c.92,2.12,2.3-2.07,3.86-2.53s2.41.06,3.29,1.78c1.6,3.16,9.54,4.21,8.22,9-.28.62-.68,5.1-.8,5.75-.17,1-2.56,1.19-3.73,1s-2.7,2.34-2.73,1.52c0-1.09.06-2.49-.81-3.09-1.33-.9-3.06-1.13-4.24.44-1.74,2.32-2.7.64-4.93,2.42-3,2-5,1.92-7.23-.5a2.07,2.07,0,0,0-1.72-.82,8.54,8.54,0,0,0-1.06,0,18.19,18.19,0,0,1-13.78-3.61h.05c-3-.79-6.15-.19-9.23-.35-1.21-.06-2.36,0-2.3-1.61.2-5.73-.53-14.2-9-14l-.27-9c3.18.5,12.95,1.62,10.89-1.63-1.21-1.91,0-4.9-.39-7.39-.9-3.6-.21-3.91-2.27-7.23-1.06-1.79-1.87-3.81-4.71-3.6-.71.05-1.13-.69-1.6-1.17-3.46-.78-3.18,11.91-4.55,9-4.24-5.5-3.18-15.09-3.45-16.25-.12-.64,0-1.38-1-1.44s-2.17-5.07-2.43-4.32c-.55,1.62,1.51,9.38.77,11-4.5-2.51-11.26-4.82-10.07-9.5.51-2,4.24-11.21,3.7-13.28-.06-2.21-.81-4.84,3.32-4.16.77.13,1.34-.75,1.9-1.28,1.59-1.51,3.26-1.55,5.25-.54a25.53,25.53,0,0,0,7.26,2.7c2.43,1.28,3.18.49,3.18-2,0-4.65,1.33-5.22,5.9-2.89,1.76.9,3,3.3,5.67,1.78,2.12-1,2.57-3.2,3.8-4.81,1.48-1.95,2.47-1.75,3.76-.07,1.12,2.53,3.47,2.76,6,3.53,4.86,1.49,9.36,4,13.78,6.49A13.81,13.81,0,0,0,103.78,223.21Z" fill="#dad3d3"/>
    <path d="M153.69,283.17c-2.18,1.06-4.35.69-6.51-.08-.46-1-1.33-1-2.23-1-2.57.25-6.65,1.17-8.34-1.3a1.48,1.48,0,0,0-2.05-.4h0c-2.14,1.35-3.61-1-5.54-1-.88,0-3.59.23-3-.65.5-.71.25-2,.67-2.75.86-1.61-2.79-2.14-4.59-2.79-3.35-1.23,3.17-2.71-.33-3.71-.64-.18-1.51-5.83-1.53-6.48,0-1.42,0-2.85-.09-4.27-.09-2.22-.21-2.28-1.28-3-.07-.43-1.63-2.08-1.6-2.51.3-3.92-1.69-3.28-3.34-6.59-.29-.46-1.27-3.6-.93-4,1.55-1.15,4.55-4.51,6.77-2.64,1,.86,4.11,3.82,6,2.52,2.91-1.92,7-5.9,10.08-7.51a7.76,7.76,0,0,1,9.45,1c.81.72,1.48,1.63,2.33,2.28,1.88,1.44.92,5.14-.73,6.8-.18.52-.6.93-.74,1.45a2.69,2.69,0,0,0,.61,3c1,.74,1.76-.4,2.43-1s1.66-1.65,2.77-1.56c3.07.23-.63-3.33-.6-5.41,0-1.43-.84-3.68,1-4.07,2.13-.46,2.64-.87,3.19.5s7.39,7.17,5.7,9c-.38.38-.69,1-1.14,1.09-3.71,1.17-2.13,2.77-.41,4.41,3.95,2.26,4.29,6.67,4.34,11.22a3.9,3.9,0,0,1-.94,3c1.2,1.33.71,4.66,1,6a16.18,16.18,0,0,0-2.13,6.5c-.49,2.73-2.56,3.73-5.34,4C155.26,283.23,154.67,282.75,153.69,283.17Z" fill="#dad3d3"/>
    <path d="M241.58,239.8c-1.47,1.08-3.14-1.91-4.81-1.18h0c-1.42.71-2.68,2.6-4.5.6l-.71-.67c-1.55-2.08-3.87-1.17-5.9-1.37-1-.1-2.15.09-2.62-1-.57-1.29.53-2.17,1.46-2.54,3.16-1.44,1.87-4.06,2-6.27.09-1.4-1.2-1.08-2.17-1.31-4-.82-7.1,1.75-10.75,2.33-4.68.74-4.76.89-4.77-3.42,0-2.92-3.56-7.78-1.08-10.35,1.15-1.19,3-1.33,1.51-3-.1-2,.74.09-.1-2-.65-1.65,2.16-7.53,3.51-8.31,2-1.18,3-3,4.39-4.62,1.81-3,4.64-3.75,8.11-4.18,5.28-.65,10.31,0,15.49.79,3.33.48,5.6,2.57,7.86,4.54,1.31,1.15.55,2.8.15,4.33-1.23,4.61-1.75,9,.72,13.69,1.33,2.52,1.38,6.11.71,9.28-.33,1.58-1,3.25,1,4.38l1.43,3c2.85,4.73,2.59,4.7-1.15,8.55-2.29,2.37-3.67,3.19-5,1.72-.42-.45-4.8-2.37-4.87-3" fill="#e3d897"/>
    <path d="M148.73,211.27l-.26-7.62c3.21-2,3.37-1.7,4.45,1.76,1.23,3.92,3.87,14.34,3.61,18.58a3.53,3.53,0,0,1-1.68,3.26h0c-4.86.76-5.67.14-5.58-4.62C149.33,221.06,147.63,212.73,148.73,211.27Z" fill="#f1e5b4"/>
    <path d="M154,294.32l.07-2.83c.41-.75.08-1.76.73-2.4,2.78-2.69,4.44-2.78,6.53-5.88,1.9-1.57,5.67-12.2,7.66-13.71,3.74,6.65,1.15,15.75-2.44,18.45A31.73,31.73,0,0,1,164,292.7c-2.59,3.24-.75,3.21-2.44,6.8v-.07c-1,2,.1,4.33-.74,6.4-.41,1-2.17,2.76-3.7,2.61s-1.94-1.12-2.1-2.52C154.69,302.73,151.41,297,154,294.32Z" fill="#d8d1d1"/>
    <path d="M116.3,285.18l-2.15-.53a5.16,5.16,0,0,1-3.76-5.09c.17-2.22,13-2,3.72-3.56.61.1,12.16,6.75,12.78,6.73,3.8,3.37,2.3,3.55,2.77,7.13,2,1.47,1.68,4.05,1.83,6.11s-1.73,1.61-2.84,1.17c-2.41-1-8.41-1.9-10.79-3-.15-.39.16-.77,0-1.15-1.07-3.52,3.57-3,1.23-5.16A34.63,34.63,0,0,1,116.3,285.18Z" fill="#d9d2d2"/>
    <path d="M141.84,300.86a2.11,2.11,0,0,1-1.19-1.89,6.14,6.14,0,0,0-2.29-3.82,7.7,7.7,0,0,1-2-2.55c-.56-1.36-1.39-3-.31-4.08s2.51-2.23,3.21-1.59c1.63,1.5,5.11,4.6,7.21,5.1h0c.45,1.7,1.74,2,2.79,2.55,1.82,1,1.46,2.32,0,3S143.44,301.65,141.84,300.86Z" fill="#d8d1d1"/>
    <path d="M150.47,291c.05-.62,0-2.43,0-4.1a3.61,3.61,0,0,1,3.57-3.7h.22c1.26.15,1,3.18,1.08,4.64.07,1.64-1.09,4-2.33,4.62S150.7,292.5,150.47,291Z" fill="#d6cfcf"/>
    <path d="M172,110.75c-1.75,0-7-2.75-5.15-8.32.53-1.6,1.86-7.06,3.49-7.18a20,20,0,0,1,6.79.62c.2.06.74,0,.89.14a1.42,1.42,0,0,1,.14.93c-2.74.85-3.34,11.78-5.12,13.79C172.9,110.9,172.36,110.75,172,110.75Z" fill="#e5c0de"/>
    <path d="M361.68,287.82a.51.51,0,0,1-.41.49c-.24.09-.54.15-.67.37-4.33,7.2-5.7,6.24-11.47,1.2-2.18-1.89-10.63.59-12.55-1.48-1.76-2.13-2.87-4.9-5.08-6.73-1.88-1.56-1-5.15-.7-7.71.62-5.18,2.13-10.14,2.28-15.5a2.86,2.86,0,0,1,1.94-3.09c2.18-.44,1.14,2.88,2.43,3.39,1.33,1.24,8.1,2.69,10.21,2.44,1.46-.18,1.82,1.7,2.05,3.29a11.25,11.25,0,0,0,6.54,7C361.47,273.19,363.51,279.89,361.68,287.82Z" fill="#e3d897"/>
  </g>
  <path d="M196,153.43c-1.1,0-1.84-3.41-1.85-4.55s.78-1.44,1.76-1.51c1.09-2.87,4.86,0,6-1a.56.56,0,0,1,.54.09.86.86,0,0,1,.09.56c-1.66.52-2.59,4.48-2.59,4.48C199,151.77,197,153.29,196,153.43Z" fill="#e5c0de" opacity="0.75" style="isolation: isolate"/>
</svg>
