<svg id="Layer_1" data-name="Layer 1" xmlns="http://www.w3.org/2000/svg" width="351.47" height="433.03" viewBox="0 0 351.47 433.03">
  <title>kort_kbhture_A12-01-01</title>
  <path d="M256,47S148.86,73.25,101,138c-51,69-60,212-8,275-4,33,90,41,138,31,13,9,28,12,28,12s54,16,57,14,32,9,36,10,1-23,12-32,8.47-2.1,31-19c16-12-22-26-5-40s-16.78-48.51,0-41c38,17,9-47,9-47s27-18-36-83c-4.67-4.82-56-36-51-58s23-68-5-82A390.08,390.08,0,0,1,256,47Z" transform="translate(-58.11 -47)" fill="#997bbb" opacity="0.6"/>
</svg>
