<svg id="Layer_1" data-name="Layer 1" xmlns="http://www.w3.org/2000/svg" width="229.9" height="419.16" viewBox="0 0 229.9 419.16">
  <title>megetglad-01</title>
  <path d="M62,160.68l-8.4,13.53s-41.4-3.36-47.3,0c-17.3,9.7,6.5,32.29,7.3,25.57,4.8-41.24,49.8-3.17,51.7-21.37C66.59,166.65,83.69,166.46,62,160.68Z" transform="translate(0 -30)" fill="#e7d0a5"/>
  <path d="M216.29,385.09l13,25.66s1.8,20.44-9,5.88l-27.4-36.77,13.1-8.49Z" transform="translate(0 -30)" stroke="#000" stroke-miterlimit="10"/>
  <path d="M87.79,408.24l-4.1,31.45s-10,20.06-10.4.19l-1-50.2,15.2-.28Z" transform="translate(0 -30)" stroke="#000" stroke-miterlimit="10"/>
  <path d="M110.89,280c-5.2-2.15-11.4,2.05-16.6,0-21.6,49.46-12.1,51.23-20,101.43-.1.56-6.3,18.1,3.4,20.72,15.1,4.11,6.2-19.41,8.8-25.75C95.19,355.42,118,291.88,110.89,280Z" transform="translate(0 -30)" fill="#e7d0a5"/>
  <path d="M156.49,301l13.6-7.84c24.5,43.39,21.9,57.39,29,67.47.3.47,19.8,15.12,8.7,20.34-17.5,8.21-19-9.42-21.9-14.56C176.19,349.36,138.49,304.47,156.49,301Z" transform="translate(0 -30)" fill="#e7d0a5"/>
  <path d="M100.29,72.22c.2,0,25.2-1.12,25.4-1.21,40.4-15.49,21.6,30.51,21.6,30.51-10.7,3.27-2.3,9.7-11.9,8.77-.7-.09-5.4,20.06-12.4,20.81-2.4.28-17.5.09-18,0-6.5-.75-2.4,2-6.7-19.41C96.09,100.49,88.59,74.64,100.29,72.22Z" transform="translate(0 -30)" fill="#e7d0a5"/>
  <path d="M45,111.59" transform="translate(0 -30)" fill="#513d1d"/>
  <path d="M98.29,167.68" transform="translate(0 -30)" fill="#513d1d"/>
  <path d="M45,118.69" transform="translate(0 -30)" fill="#513d1d"/>
  <path d="M120.79,87.43c0,3.55-3.1,11.48-6.9,11.48S107,91.07,107,87.43a6.92,6.92,0,0,1,13.8,0Z" transform="translate(0 -30)"/>
  <path d="M168.39,170.29l-.7-5.69s.2-16.33,37.9-38.82c7.9-38.82,26.9-17.17,21.8-12.41-18.4,17.36-42.4,40.22-45.7,47.22C170.69,183.91,168.39,170.29,168.39,170.29Z" transform="translate(0 -30)" fill="#e7d0a5"/>
  <path d="M139.79,203.6s44.1,67.65,28,102.83-98.1-11.85-98.1-11.85L68.39,268s16-36.58,11.4-57.67C72.69,177.94,139.79,203.6,139.79,203.6Z" transform="translate(0 -30)" stroke="#000" stroke-miterlimit="10"/>
  <path d="M141.19,121.58c11.5,2.05,18,27.62,24.3,31.91,7.3,5,17.2-15.3,17.2-15.3,4.1,6.53,8.5-3.73,11.9,8.86L165.79,183l-23.3-18.76h0c0,7.65,8.6,54.12,7.8,57.29l1.6,22.77a8.14,8.14,0,0,1-8.7,5.69l-76.6-10c-.5,7.09,28.3-93.41,7.8-69.33h0s-9.7.09-2.9,23.79l-24.4-24.63c30.1-69.05,28-57.39,32.1-57.85l62,9.61" transform="translate(0 -30)" fill="#d9e021"/>
  <path d="M157,85.65c18.7-14.28,12.2-45.91-13.3-52.26-33-11.38-66.6,8.49-75.4,20.53l-9.2,12.6s-46.1,79.5,0,83.24C91.69,152.37,81.69,57.66,157,85.65Z" transform="translate(0 -30)" fill="#f15a24"/>
  <path d="M151.69,92c0,5.32-4.7,5.6-10.4,5.6s0-2.33,0-7.65-5.7-7.65,0-7.65,10.39,4.33,10.4,9.69Z" transform="translate(0 -30)"/>
  <g>
    <path d="M139,166.63v5.85c0,.27-.06.33-.35.33H88c-.39,0-.34-.15-.34-.38v-17c.1,0,.15,0,.19.08a4.81,4.81,0,0,0,.93,1.68.24.24,0,0,1,.09.11c0,.46.34.69.68.93a1.35,1.35,0,0,1,.49.59,7.73,7.73,0,0,1,.45,1.17,1,1,0,0,1,0,.16,2.52,2.52,0,0,0,.11.59,15.34,15.34,0,0,1-.08,2.38,3.6,3.6,0,0,0,.17,1.32,1.08,1.08,0,0,0,.5.7,1.34,1.34,0,0,0,.63.24H92a8.57,8.57,0,0,1,1,0,6,6,0,0,0,1.95,0c.11-.31-.5-.16-.43-.48a.34.34,0,0,1,.06-.15.6.6,0,0,1,.39-.16c.23,0,.26.18.33.31a.38.38,0,0,1,.08.34c.05-.21-.08-.31-.11-.44.43-.21.46.08.5.35s-.11.81.23,1.14a1,1,0,0,0,.32.21c.65.14.87-.37,1.19-.71l.09-.11a1.15,1.15,0,0,0,.21-.42,3.2,3.2,0,0,1,.14-.32,3.72,3.72,0,0,0,.31-.82.42.42,0,0,1,.2-.22c.23,0,.46,0,.28-.33a.26.26,0,0,1,.08-.38l.05,0c.2,0,.25.38.54.2.23.12.24.66.71.32h.15l.29.08a.7.7,0,0,0,.59-.06,4.08,4.08,0,0,0,1.13-.6c.17-.14.38-.29.61-.13s.12.35.06.54a10.09,10.09,0,0,0-.49,2.16,1,1,0,0,0,0,.64l.06.2a.77.77,0,0,0,.3.35.43.43,0,0,0,.53,0c.16-.08.38-.43.7-.49.13,0,.2,0,.18-.14a.37.37,0,0,1,.19-.28c.33,0,.09-.22.15-.33a8.65,8.65,0,0,0,.71-1.19,5.17,5.17,0,0,0,.67-3.08.59.59,0,0,0-.19-.36.79.79,0,0,1-.13-.16l-.08-.11c-.11-.12-.2-.07-.29,0l-.11.11a.56.56,0,0,1-.29.13.6.6,0,0,1-.26,0,.5.5,0,0,1-.35-.63l0,0c.09-.29-.07-.63.25-.93a1.41,1.41,0,0,1,.13.68c.1-.33-.22-.69,0-1s0-.45.06-.55a.81.81,0,0,1-.06.55c-.41,0-.33-.25-.35-.45a2.34,2.34,0,0,0-.14-1,6.56,6.56,0,0,0-.73-1.14,2.08,2.08,0,0,0-1.7-.57,1.63,1.63,0,0,0-.76.16c-.2.1-.38.24-.59.34l-.5.23c-.44.17-.44-.18-.54-.4a5.3,5.3,0,0,0-.61-1.32,2.76,2.76,0,0,0-.42-.69,8.47,8.47,0,0,0-1.78-1.88.76.76,0,0,0-.56-.39,4,4,0,0,1-.52-.2l-.14-.09a7.75,7.75,0,0,0-4.83-1.09,2.41,2.41,0,0,0-1.11.38,4.67,4.67,0,0,0-.49.35,2.67,2.67,0,0,0-.54.6,1.26,1.26,0,0,0-.22.42l-.11.32a.52.52,0,0,1-.07.12c-.08.07-.15.13-.27.07v-6.11c0-.39.08-.49.52-.49h50.27c.46,0,.51.13.51.5v16.2l-.13.08c-.19.07-.42,0-.6.14a3,3,0,0,0-.57.77c-.1.15-.11.39-.39.39-.27-.24-.16-.56-.17-.85s0-.74,0-1.11c0-.15.06-.37-.15-.41s-.3.21-.33.4v3.83c0,.1,0,.27.2.28s.25-.14.26-.29a2.06,2.06,0,0,1,.14-.93.47.47,0,0,1,.2-.19.31.31,0,0,1,.33.08c.27.36.3.83.54,1.21S138.77,166.43,139,166.63Z" transform="translate(0 -30)" fill="#fefefe"/>
    <path d="M138.8,162.92H139v3.36c-.36,0-.27-.4-.44-.58a1.38,1.38,0,0,1-.15-.35,2.59,2.59,0,0,0-.2-.56c-.43-.69.14-1.18.41-1.73A.92.92,0,0,0,138.8,162.92Z" transform="translate(0 -30)" fill="#fbfbfc"/>
    <path d="M87.79,155.53a.09.09,0,0,0-.1-.07h0v-2a.23.23,0,0,1,.25,0,.32.32,0,0,1,.16.29,6.71,6.71,0,0,0,0,1.37,1.08,1.08,0,0,0,.29.81.35.35,0,0,1,0,.51l0,0C87.84,156.29,88,155.83,87.79,155.53Z" transform="translate(0 -30)" fill="#87a40e"/>
    <path d="M138.61,165.66c.19.19.12.49.33.65v.32c-.25-.11-.61.15-.79-.21.23-.07.47-.14.31-.46a.21.21,0,0,1,.11-.29Z" transform="translate(0 -30)" fill="#69787f"/>
    <path d="M87.89,153.45h-.23v-.63l.21-.13A.52.52,0,0,1,87.89,153.45Z" transform="translate(0 -30)" fill="#86a311"/>
    <path d="M108.86,160.24v-4.55c0-.19.05-.32.28-.31a9.9,9.9,0,0,1,1.53,0,1.32,1.32,0,0,1,1.09,1.56,1.29,1.29,0,0,1-.34.61c-.27,0-.35-.21-.53-.33s-.05-.37-.07-.57a.44.44,0,0,0-.35-.43c-.23,0-.58-.18-.73.18a.63.63,0,0,0,.26.89l.1,0,.22.06c.19.21.64,0,.7.43a.69.69,0,0,0,.05.61.36.36,0,0,0,.1.31c.1.07,0,.35.22.43a1.59,1.59,0,0,0,.24.73c-.08.35-.17.36-.69.11-.05-.09-.15-.16-.13-.28a.84.84,0,0,0-.21-.57.33.33,0,0,1-.12-.3c-.14-.15-.14-.35-.26-.51l-.08-.11-.45-.11a8.3,8.3,0,0,0-.05,1.57C109.6,160.36,109.6,160.38,108.86,160.24Z" transform="translate(0 -30)" fill="#66757e"/>
    <path d="M114.11,165.22v-.61c-.23-.45.06-.79.23-1.17.38-.66,1-.62,1.64-.45.14-.47-.18-1.05.43-1.36a.27.27,0,0,1,.19-.07c.19,0,.19.17.19.3v4.26c0,.16.09.35-.09.49a5.81,5.81,0,0,0-1.25,0c-.52.12-.89-.19-1.21-.85C114.09,165.6,114.22,165.39,114.11,165.22Z" transform="translate(0 -30)" fill="#65767d"/>
    <path d="M88.78,151.17c.1-.18.31-.2.47-.31s.21.12.26.06c.21-.32.6-.31.89-.46a5.46,5.46,0,0,1,2.68.12,9.29,9.29,0,0,1,2.11.77c.11.06.25.11.26.26s-.14.25-.1.4a.35.35,0,0,1-.05.31.83.83,0,0,1-.41.22,6.77,6.77,0,0,1-2-.7c0-.3.34-.21.52-.28,0,.07,0,0,.05,0h.05c-.24,0-.52,0-.71.18a.39.39,0,0,1-.29.12,1.31,1.31,0,0,1-.35,0c-.54-.12-1.1,0-1.64-.09-.21,0,0-.31-.23-.28-.33-.26-.6,0-.89.08S88.86,151.63,88.78,151.17Z" transform="translate(0 -30)" fill="#85a30a"/>
    <path d="M100.2,163.78c-.16.26-.47.14-.68.28-.17-.21.16-.47-.12-.63A.64.64,0,0,1,99,163v.19l-.05.06c-.3.32.09.53.15.8a.59.59,0,0,1-.58-.06c-.2-.19-.06-.4,0-.6a2.62,2.62,0,0,0,.07-.68.47.47,0,0,0-.48-.47.52.52,0,0,0-.25.06,4.77,4.77,0,0,1-.61.28.39.39,0,0,1-.44-.33v0a1.25,1.25,0,0,1,.1-.57c.35-.58.51-1.24.84-1.87.29-.38.39-.87.81-1.18.37.07.19.37.27.56a8.58,8.58,0,0,1-.11-.87.23.23,0,0,1,.22-.15.34.34,0,0,1,.19.07.88.88,0,0,1,.14.65v2.74c.06.16.06.34.12.49s.06.3.11.44a2.6,2.6,0,0,0,.15.4C99.72,163.29,100.12,163.48,100.2,163.78Z" transform="translate(0 -30)" fill="#fdfdfd"/>
    <path d="M120.14,160.15l-.33-.34c-.13-.14-.28-.28-.19-.49s.26-.08.06-.23a.76.76,0,0,1-.21-.36,1.12,1.12,0,0,1,0-.69.49.49,0,0,1,0-.15,2.29,2.29,0,0,0,0-.54.82.82,0,0,1,.5-.59,1.42,1.42,0,0,1,1.89.24,1.21,1.21,0,0,1,.28.74,2.33,2.33,0,0,1-.62,2.41A1.41,1.41,0,0,1,120.14,160.15Z" transform="translate(0 -30)" fill="#66767d"/>
    <path d="M99.35,162.61a.55.55,0,0,1-.08-.4c-.06-.4-.05-.8-.15-1.2v-2.61c0-.16,0-.37-.29-.15l-.06.1c0,.13-.12.17-.24.18a.51.51,0,0,1-.4-.25.24.24,0,0,1,0-.14,2.14,2.14,0,0,0,.3-.48.47.47,0,0,1,.15-.15.38.38,0,0,0,.23-.37c-.06-.52-.32-1-.41-1.52.08-.33-.16-.79.44-.93a3.7,3.7,0,0,1,.6,1.34.67.67,0,0,1,0,.25c0,.38.2.35.39.07l.45-.23a.48.48,0,0,1,.21.21c.23.3-.25.26-.25.45a.42.42,0,0,1-.13.16,1.88,1.88,0,0,0-.33.23c-.11.18,0,.34,0,.49a.67.67,0,0,1,0,.35c-.06.14,0,.28,0,.42a1.56,1.56,0,0,0,0,.84,3.14,3.14,0,0,1,0,.51v.88a4,4,0,0,0,.14,1.78,2.12,2.12,0,0,1,.1.45c-.05.14-.08.26.1.35a.41.41,0,0,1,.15.27.24.24,0,0,1-.1.21h-.1a1.39,1.39,0,0,1-.68-.77C99.58,162.83,99.6,162.67,99.35,162.61Z" transform="translate(0 -30)" fill="#86a409"/>
    <path d="M112.84,159.19l.12.3c.22.3.5.24.79.12a.06.06,0,0,1,.07,0,.74.74,0,0,1,.47,0c.23.2.12.32-.09.42a.64.64,0,0,1-.56.14.42.42,0,0,0-.46.08,1,1,0,0,1-1-.63,2.46,2.46,0,0,1-.06-2.25c.06-.07.11-.16.22-.14s.21-.18.37-.09a.32.32,0,0,1,.16.16c.05.26-.1.65.45.59.13,0,.29,0,.35-.1s-.06-.26-.18-.35a1.94,1.94,0,0,0-.46-.19,1.14,1.14,0,0,1-.39-.39.44.44,0,0,1,0-.15.18.18,0,0,1,.19-.07,4,4,0,0,1,.88,0c.56.11.63.61.88.93h0c.14,1.06.14,1.06-1,1.07h-.45C112.81,158.65,112.72,158.81,112.84,159.19Z" transform="translate(0 -30)" fill="#66767d"/>
    <path d="M121.39,166.63c-.27,0-.54.07-.72-.2.13-.29-.11-.35-.31-.43a1.31,1.31,0,0,1,.35-1.6.75.75,0,0,1,.59-.24c.63-.06.63-.06.44-.61a.55.55,0,0,1,0-.33c.15-.28.45-.07.65-.19s.18.22.3.32c.28.2,0,.46.1.68a11.57,11.57,0,0,0,0,1.87v.16c.05.22-.3.25-.26.47-.2.17-.36,0-.52-.07h0A3.6,3.6,0,0,1,121.39,166.63Z" transform="translate(0 -30)" fill="#65767d"/>
    <path d="M110.69,166.42a1.71,1.71,0,0,1-2.08-.23c-.1-.12-.33-.24-.09-.44s.35-.32.58-.11.74.5,1.14.13.08-.85-.42-1.21-.86-.46-1.1-.93c-.07-.25.15-.35.29-.49a.4.4,0,0,1,.3-.08,1.48,1.48,0,0,1,.65.62c.07.07.13.16.25.17a1.57,1.57,0,0,1,1,2A1,1,0,0,1,110.69,166.42Z" transform="translate(0 -30)" fill="#65757c"/>
    <path d="M103.49,156.32c.4.26.45.71.7,1.06a7,7,0,0,1,.11,2.9c0,.25-.32.63.28.66a.42.42,0,0,1,.45.31c0,.29-.35.36-.53.54a1.48,1.48,0,0,1-.5.42l-.21.07a.48.48,0,0,1-.42-.06.5.5,0,0,1-.14-.17.42.42,0,0,1,0-.14.75.75,0,0,1,0-.15,1.86,1.86,0,0,1,.08-.38,6.72,6.72,0,0,0,0-3.65,7.23,7.23,0,0,1-.12-.78,1.74,1.74,0,0,1,0-.45C103.21,156.37,103.26,156.2,103.49,156.32Z" transform="translate(0 -30)" fill="#86a30a"/>
    <path d="M91.77,165.49a.65.65,0,0,1-.59-.21,7.61,7.61,0,0,1-.55-.67,2.21,2.21,0,0,1-.22-1.38.37.37,0,0,1,.13-.08h.16c.14.07.26.21.44.11.26.28.37.66.67.93a1.65,1.65,0,0,0,1.52.36,2.12,2.12,0,0,1,.72-.14.46.46,0,0,0,.37-.1.86.86,0,0,1,.15-.16.39.39,0,0,1,.29-.08c.19.07.42.11.47.35a.47.47,0,0,1-.35.25.57.57,0,0,0-.36.2V165a1.43,1.43,0,0,1-1,.49c-.18-.09-.2-.5-.56-.23a1.09,1.09,0,0,0-.39,0c-.13,0,0-.07-.05,0h0s.33.12.48,0,.28.08.34.22-.25.14-.38.21a5.64,5.64,0,0,1-1.23,0,.07.07,0,0,1,0-.08C91.85,165.43,91.81,165.47,91.77,165.49Z" transform="translate(0 -30)" fill="#86a30f"/>
    <path d="M128.46,163l.21.13c.14.21.42.07.59.21s.12.09.1.18-.3.16-.34.34a11.51,11.51,0,0,0-.05,1.74v.32c0,.1.06.33-.18.3s-.12-.2-.09-.31a2.61,2.61,0,0,0,0-.61,1,1,0,0,1-.05.52c0,.1-.09.26-.27.12v-1.87a1.39,1.39,0,0,1,0-.41c-.1-.07.28-.1,0-.18a1.07,1.07,0,0,0-.58,0,.74.74,0,0,0-.6.16c-.15.14.08.08.14.12v2.49c0,.13.06.34-.15.34s-.47.21-.53-.16c.15-.09.33,0,.48,0a1.44,1.44,0,0,1-.48-.06v-2.89c0-.49.2-.62.67-.38.13.07.18.08.27,0A2.28,2.28,0,0,1,128.46,163Z" transform="translate(0 -30)" fill="#66767d"/>
    <path d="M117.59,156.54l.32.13c-.34-.47.15-.81.07-1.21h.21c.22.08.18.68.64.28a.28.28,0,0,0-.08-.29c-.12-.1-.32-.07-.42-.21.23-.21.54,0,.81-.13.06,0,.37-.17.4.14s0,.19-.24.31-.19.26-.11.35,0,.34,0,.49v.07h0c-.3.09.2.47-.21.53-.18-.07-.22-.39-.49-.27s-.17.34-.17.52v2c0,.49,0,.87.64.93-.47.31-.9,0-1.34-.07-.22-.17-.19-.41-.19-.63V158A3.5,3.5,0,0,1,117.59,156.54Z" transform="translate(0 -30)" fill="#fcfcfc"/>
    <path d="M116.93,160.07c-1,.47-1.63.18-1.82-.85a2,2,0,0,0-.1-.47,2,2,0,0,1,1.26-2.25c.27,0,.39.29.66.2.07.07,0,.13,0,.19-.24.11-.42.33-.68.43a2.22,2.22,0,0,0-.18,1.87c.06.35.42.29.7.3s.08.28.2.38a.33.33,0,0,1,.06.12A.14.14,0,0,1,116.93,160.07Z" transform="translate(0 -30)" fill="#67767e"/>
    <path d="M136.45,162.26c0-.18-.06-.36.17-.45s.33-.19.46-.15.1.27.11.42v1.74c0,.15-.07.33.12.43s.37-.07.56-.21c.18.3.13.64.34.93,0,.17.15.32.12.49s-.19.15-.32,0-.14-.29-.33-.32l-.22-.12c-.22,0-.23.14-.25.28a3.68,3.68,0,0,0,0,.83c0,.19,0,.35-.25.41-.07,0-.17-.07-.16-.12.06-.23-.17-.28-.27-.4C136.46,164.77,136.55,163.48,136.45,162.26Z" transform="translate(0 -30)" fill="#67787f"/>
    <path d="M112.27,164.61v.19a3.7,3.7,0,0,1,.21.45.07.07,0,0,1,0,.07c.17.19.19,0,.27-.09s.06-.35.05-.52l.29-1.18c.22-.09.1-.29.15-.43h0a.52.52,0,0,1,.6-.07c.17.07.11.27,0,.41a6,6,0,0,1-.29,1,2.47,2.47,0,0,0-.32.77v.3c-.08.21,0,.47-.24.61s-.37.62-.84.57a2.82,2.82,0,0,1-.31-.87.88.88,0,0,0-.17-.8.71.71,0,0,1,0-.14.89.89,0,0,0-.2-.55,5.56,5.56,0,0,1-.27-1.35.75.75,0,0,1,.7.07.28.28,0,0,1,0,.25l.09.71A1,1,0,0,0,112.27,164.61Z" transform="translate(0 -30)" fill="#67777d"/>
    <path d="M134.33,164.76v-1.48c0-.21.05-.38.3-.33a3.43,3.43,0,0,0,1.12-.06c.45,0,.58.18.42.56-.09.21-.23.17-.41.15-.49-.06-.74.13-.72.63v2c0,.22,0,.36-.33.37s-.4-.09-.39-.37v-1.48Z" transform="translate(0 -30)" fill="#66787f"/>
    <path d="M106,161.21a2.62,2.62,0,0,1-.08,1.87,5.32,5.32,0,0,1-.59,1.41c-.18.22-.29.09-.4-.07s-.23.09-.34,0a.24.24,0,0,1-.17-.23.41.41,0,0,1,.1-.28.77.77,0,0,0,.22-.5.83.83,0,0,1,.14-.34.73.73,0,0,0,.14-.83,4.87,4.87,0,0,1,.14-.68.64.64,0,0,0,0-.2c0-.19-.32-.25-.28-.48l.18-.12a.69.69,0,0,1,.6,0l.13.11C105.76,161.06,106,161.09,106,161.21Z" transform="translate(0 -30)" fill="#86a20c"/>
    <path d="M103.28,162.06l.11.11a.78.78,0,0,1,.25.54c-.19.83-.47,1.64-.69,2.47a1,1,0,0,0,0,.93c.08.13.28.19.25.37a.57.57,0,0,1-.76.15l0,0v-.19a1.28,1.28,0,0,1,0-.71,9.13,9.13,0,0,1,.5-2.31c0-.13.18-.28,0-.37s-.28,0-.39.16a2.79,2.79,0,0,1-1.3.67,1.22,1.22,0,0,1-.65,0c-.1,0-.17,0-.2-.09v-.23a.19.19,0,0,1,.15-.15h.15a1.18,1.18,0,0,0,.57,0h.14a.71.71,0,0,0,.43-.2,2.83,2.83,0,0,1,.81-.49c.06,0,.2.18.21-.07s.1-.19.16-.27S103.11,162.08,103.28,162.06Z" transform="translate(0 -30)" fill="#88a412"/>
    <path d="M119.1,166.43a1.18,1.18,0,0,1-1.54-.14,1.2,1.2,0,0,1-.26-.63v-.21c-.08-.18,0-.36-.07-.54v-.28c.1-.18,0-.37.08-.56v-.21a.72.72,0,0,1,.23-.54c.16-.08.23-.29.43-.33s.42-.13.35.21a2,2,0,0,0,0,.46,4.77,4.77,0,0,0-.17,1.58.62.62,0,0,0,.62.69c.16.1.36.17.43.36A.18.18,0,0,1,119.1,166.43Z" transform="translate(0 -30)" fill="#66767d"/>
    <path d="M97.21,162.48c.4-.25.83-.62,1.29-.31s.19.77.13,1.19a3.35,3.35,0,0,1-.12.62l-.13.21A5.28,5.28,0,0,0,98,165a.5.5,0,0,1-.14.31c-.07.09-.12.21-.25.23h0c.06,0,.11.1.05.18h0c-.17,0-.19.35-.44.23a.45.45,0,0,1-.26-.57,2.34,2.34,0,0,1,.36-.78c.51-.13.3-.51.32-.81s.32-.65,0-1a1.22,1.22,0,0,1-.49-.22A.14.14,0,0,1,97.21,162.48Z" transform="translate(0 -30)" fill="#87a30d"/>
    <path d="M119,160.22c-.74,0-.74,0-.75-.65v-2.48c0-.22-.1-.5.34-.53s.42.24.44.5v.21a4.92,4.92,0,0,1,0,2.55Z" transform="translate(0 -30)" fill="#68787e"/>
    <path d="M112,165.81a7.88,7.88,0,0,0,.22.93c0,.13,0,.23-.19.25s.17-.49-.31-.33a.31.31,0,0,1-.26-.34c0-.19.3.22.41,0s-.18-.21-.26-.33-.25,0-.29.17c-.1.35-.37.32-.66.28.78-.93.64-1.7-.47-2.56h.22c.43-.4.51,0,.64.33.18-.32.3-.52,0-.76s-.09-.37.19-.5q.06,0,0,.06h0l.33,1.38c.18.16.14.38.2.58A1.82,1.82,0,0,1,112,165.81Z" transform="translate(0 -30)" fill="#fcfdfc"/>
    <path d="M123.42,156.64a.22.22,0,0,0,.23.07.42.42,0,0,1,.28.23c0,.19-.17.21-.26.33a1.42,1.42,0,0,0-.14.64,15.25,15.25,0,0,1-.07,2.24c-.63.08-.64.08-.64-.49V157C122.82,156.54,122.83,156.54,123.42,156.64Z" transform="translate(0 -30)" fill="#6a7981"/>
    <path d="M102.37,166.63c.28,0,.6.06.78-.24a2.57,2.57,0,0,1,.85-1.29c.18,0,.18,0,.1-.26a.49.49,0,0,1,.42-.66.23.23,0,0,0,.12.21c.11,0,.23-.07.34,0s.18.22.35.11a6.91,6.91,0,0,1-.67,1.21c-.11.07-.09.22-.22.28a.25.25,0,0,0-.14.31.27.27,0,0,1-.22.12l-.64.53a1,1,0,0,1-.79,0C102.55,166.85,102.36,166.81,102.37,166.63Z" transform="translate(0 -30)" fill="#86a30d"/>
    <path d="M123.9,163l.22-.06a.68.68,0,0,1,.32.16c.1.21.46.17.48.44-.53,0-.74.21-.71.71s0,1.19,0,1.79-.06.66-.77.49a20.31,20.31,0,0,1,0-3.51c.3,0,.21.24.21.4v.14C123.67,163.34,123.67,163.12,123.9,163Z" transform="translate(0 -30)" fill="#6a7980"/>
    <path d="M125.4,163.08a.77.77,0,0,1,.54.78v2.44c0,.27-.14.31-.39.32s-.34-.13-.35-.35a10.84,10.84,0,0,0-.12-2.58C125.11,163.48,125.11,163.2,125.4,163.08Z" transform="translate(0 -30)" fill="#66777e"/>
    <path d="M129.37,163.52l-.11-.09c0-.35.3-.33.53-.25a.64.64,0,0,1,.51.74,7.43,7.43,0,0,0-.07,1.33,4.73,4.73,0,0,1,.19-1.8.17.17,0,0,1,.16-.12c.21.15.17.37.21.58a9.79,9.79,0,0,1,.09,2.15c0,.21,0,.48-.29.58-.52.07-.68-.14-.65-.63s0-1.23,0-1.87C130,163.74,129.84,163.48,129.37,163.52Z" transform="translate(0 -30)" fill="#69787f"/>
    <path d="M96.55,152.28a5.62,5.62,0,0,1,1.82,1.82.59.59,0,0,1-.27.79.22.22,0,0,1-.22-.07c-.13-.06.13-.36-.21-.28a.28.28,0,0,1-.05-.13c0-.15.1-.29.08-.45-.12,0-.22.12-.35.1h-.14a1,1,0,0,0-.5-.36c-.24-.1-.48-.2-.55-.48.25-.31-.16-.6,0-.93a.31.31,0,0,1,.09-.12C96.37,152.06,96.46,152.15,96.55,152.28Z" transform="translate(0 -30)" fill="#86a30c"/>
    <path d="M133.58,163.54v.68a5.45,5.45,0,0,0,0,1.45.79.79,0,0,1,.07.15c0,.72,0,.72-.66.71l-.29-.11c-.12,0-.17,0-.19-.12a.24.24,0,0,1,.12-.27c.48-.25.44-.59.21-.93l-.11-.1c-.1-.1-.21-.21-.38-.1a.36.36,0,0,1-.15,0c-.12,0-.24-.1-.23-.25a.92.92,0,0,1,.46-.36h.15c.46.07.28-.21.25-.4a.78.78,0,0,0-.23-.24.55.55,0,0,1-.21-.2.38.38,0,0,1,.1-.35c.06-.06.13-.1.22,0s.4-.06.54.12A.39.39,0,0,0,133.58,163.54Z" transform="translate(0 -30)" fill="#66777d"/>
    <path d="M88.78,151.17c.12.35.32.42.66.2a1.06,1.06,0,0,1,.73-.17c.19,0,.14.11.11.21a.21.21,0,0,1-.13.15l-.25.07-.1,0c0,.18.15,0,.21.07a.22.22,0,0,1,.19.1,16.49,16.49,0,0,1-1.61,1.49c-.22-.2,0-.37,0-.56s-.19-.09-.28-.14a.23.23,0,0,1-.13-.15c.11-.21-.1-.45,0-.66A1.56,1.56,0,0,1,88.78,151.17Z" transform="translate(0 -30)" fill="#85a30c"/>
    <path d="M109.29,163.12l-.21.1c-.23.19-.42.18-.55-.1a1.08,1.08,0,0,1,.45-1.19,1.61,1.61,0,0,1,1.81.12.26.26,0,0,1,.14.43.23.23,0,0,0,0,.09.19.19,0,0,1-.2.07,2.63,2.63,0,0,0-.73-.17c-.34-.13-.52,0-.54.33C109.43,162.92,109.43,163,109.29,163.12Z" transform="translate(0 -30)" fill="#68787f"/>
    <path d="M125.17,157.26a16.23,16.23,0,0,1,.09,2.72c0,.27-.2.23-.39.24s-.3-.14-.3-.34a14.41,14.41,0,0,0-.1-2.53.18.18,0,0,1,.15,0,.68.68,0,0,1,.34.31c.07-.17-.14-.31,0-.43A.2.2,0,0,1,125.17,157.26Z" transform="translate(0 -30)" fill="#68797e"/>
    <path d="M103.49,156.32a.2.2,0,0,0-.21.18.17.17,0,0,0,0,0,1.53,1.53,0,0,1-.51.29.62.62,0,0,1-.31,0,.4.4,0,0,1-.13-.07l-.09-.12a.51.51,0,0,0-.1-.11,14.88,14.88,0,0,0-1.71-.1.27.27,0,0,1-.13-.24l.54-.3a3.48,3.48,0,0,0,.83-.19A1.9,1.9,0,0,1,103.49,156.32Z" transform="translate(0 -30)" fill="#87a30d"/>
    <path d="M132.87,164.94c.37.42.36.82-.06,1.12-.16.11-.38.15-.13.36-.31.37-.67.26-1,.09l.12-.16-.13.16-.34-.21c-.45-.3-.37-.74-.37-1.16a.7.7,0,0,1,0-.16.5.5,0,0,1,.25-.3.15.15,0,0,1,.13,0c0,.25.39.17.49.35s0,.47.15.67c.51.16.69.07.76-.39C132.78,165.23,132.76,165.06,132.87,164.94Z" transform="translate(0 -30)" fill="#68787f"/>
    <path d="M90.51,163.22h-.1c-.05-.85.17-1.7.08-2.55-.06-.18,0-.37-.1-.54a0,0,0,0,1,0-.07h0a.53.53,0,0,1,.1-.57c.36,0,.27.33.34.52a1.76,1.76,0,0,1,.12.57,2.62,2.62,0,0,0,.11.84.44.44,0,0,1,0,.3.39.39,0,0,0-.11.43c0-.12-.11-.34.2-.28a1.44,1.44,0,0,1,0,1.35c-.15.4-.31,0-.46,0-.11-.16,0-.34-.06-.48C90.54,162.9,90.62,163.07,90.51,163.22Z" transform="translate(0 -30)" fill="#87a411"/>
    <path d="M116.15,157.17l.68-.33c.22,0,.17-.08.14-.21.18-.18.42,0,.61-.09a6.5,6.5,0,0,1,0,1.47,2.86,2.86,0,0,0-.1,1.08c0,.14,0,.31-.21.32s-.23-.16-.26-.29c-.07-.4,0-.8-.06-1.2a.24.24,0,0,0-.09-.23A2.28,2.28,0,0,0,116.15,157.17Z" transform="translate(0 -30)" fill="#677880"/>
    <path d="M131.09,165a2.32,2.32,0,0,0,.22,1.28c-.29,0-.43.3-.71.31a5.46,5.46,0,0,0,.11-1.93,2.28,2.28,0,0,0-.18-1.4.24.24,0,0,1-.12-.07.19.19,0,0,1,0-.2.46.46,0,0,1,.47.38c0,.18-.17.43.35.44.34,0-.2.28-.15.54a.81.81,0,0,1,.72-.09v.07a.73.73,0,0,1-.47.36l-.21.24c-.32,0-.12.29-.2.4s.12,0,0,0h0S130.77,165,131.09,165Z" transform="translate(0 -30)" fill="#fafbfb"/>
    <path d="M117,157.7c.06,0,.18-.33.2,0a11,11,0,0,0,.08,1.62c.25-.21.14-.48.17-.71s-.07-.47.21-.61v2.13h0c-.23,0-.4.25-.66.21v-.28a.54.54,0,0,1,.06-.2v0s-.11,0,0,0,.06-.07,0,0c-.42,0-.17-.22-.16-.38A3,3,0,0,1,117,157.7Z" transform="translate(0 -30)" fill="#647379"/>
    <path d="M87.89,153.45v-.77a.05.05,0,0,1,0-.07c.25,0,.36.16.49.3a.12.12,0,0,1,0,.13.32.32,0,0,0-.05.26V153a.12.12,0,0,1,.13,0c.1.12,0,.3.12.41a.21.21,0,0,1,0,.14.47.47,0,0,1-.11.17c-.05.06-.28.11,0,.17a.28.28,0,0,1,0,.21c-.33.38,0,.78,0,1.17a.75.75,0,0,1,0,.13,1,1,0,0,0,.1.45.56.56,0,0,1,0,.14.5.5,0,0,1-.2.46.23.23,0,0,1-.15,0c.21-.38-.24-.59-.3-.93,0-.14-.2-.26,0-.4a5.23,5.23,0,0,1,0-1.49Z" transform="translate(0 -30)" fill="#85a309"/>
    <path d="M138.14,164.92c-.33-.18-.12-.52-.29-.77-.1.47-.27.55-.53.1a4.68,4.68,0,0,1,.78-1.26c.22,0,.48-.18.62.13-.28.53-.84,1-.46,1.69A.14.14,0,0,1,138.14,164.92Z" transform="translate(0 -30)" fill="#68777e"/>
    <path d="M89.93,158.9c-.2-.15-.19-.44-.43-.56a2.86,2.86,0,0,1-.7-1.05h0a.49.49,0,0,1-.22-.68.52.52,0,0,1,.22-.2c.35.11.4.45.57.69a5.66,5.66,0,0,1,.93,1.73C90.23,159,90.06,158.89,89.93,158.9Z" transform="translate(0 -30)" fill="#89a413"/>
    <path d="M119,159.82v-2.55l.44.85c.14.25,0,.54.13.79a.42.42,0,0,1,.05.39l.17.51c-.23-.09-.49-.11-.64-.35Z" transform="translate(0 -30)" fill="#fcfcfc"/>
    <path d="M112.07,167l.19-.25.7-.63c.16.13.09.28,0,.42a5.84,5.84,0,0,0-.29.85c-.07.37-.29.54-.65.43s0-.36,0-.56A1.37,1.37,0,0,1,112.07,167Z" transform="translate(0 -30)" fill="#67767d"/>
    <path d="M121.85,163.55a.55.55,0,0,1,.19.66c-.11.21-.37,0-.56.06l-.77.14c-.43-.35.33-.27.21-.51.23,0,.17-.11,0-.19,0-.15.11-.21.25-.26A.74.74,0,0,1,121.85,163.55Z" transform="translate(0 -30)" fill="#f7f8f8"/>
    <path d="M93.59,165.34c.4,0,.64-.36,1-.42.47.1.57.38.38.83-.13-.12-.18-.29-.46-.21a1.82,1.82,0,0,1-1.41,0l.37-.19a.06.06,0,0,1,.05-.07A.06.06,0,0,1,93.59,165.34Z" transform="translate(0 -30)" fill="#fbfbf9"/>
    <path d="M130.49,163.22a.05.05,0,0,1,0,.07,15.12,15.12,0,0,0-.34,2.26V164a.68.68,0,0,0-.37-.65c-.16-.09-.44-.17-.57.12-.17-.13-.54.06-.58-.3.23.13.35-.13.55-.14a1.4,1.4,0,0,1,.76,0c.12,0,.15.22.33.17A.21.21,0,0,1,130.49,163.22Z" transform="translate(0 -30)" fill="#69787f"/>
    <path d="M110.7,162.63l.21,0c.24.49-.22.36-.45.44h0c-.36,0-.5-.36-.79-.53-.09.31-.15.58.22.76.2.1.2.28.1.46a1.43,1.43,0,0,1-.68-.58c0-.71,0-.74.78-.73A1.91,1.91,0,0,0,110.7,162.63Z" transform="translate(0 -30)" fill="#fcfdfc"/>
    <path d="M104.64,161l-.2.09c-.11,0-.2.21-.33.08s0-.21,0-.3a7.61,7.61,0,0,0,.22-2.4,10.15,10.15,0,0,0-.13-1.09c.36.31.18.72.23,1.08,0,.19-.12.44.22.51h0v1.17h-.09v-.63c.14.45-.58,1,.18,1.39a.06.06,0,0,1,0,.09A.07.07,0,0,1,104.64,161Z" transform="translate(0 -30)" fill="#fcfef3"/>
    <path d="M95,164.61l.33-.23c.1-.2.23-.4.5-.34s.22.3.23.49,0,.38,0,.58v.45c-.07.32.14.63,0,.93-.54-.32-.34-.82-.38-1.27,0-.18.11-.53-.34-.32h0c-.12-.07-.17-.22-.34-.21s-.05,0,0-.07S95,164.61,95,164.61Z" transform="translate(0 -30)" fill="#fbfbf9"/>
    <path d="M119.33,161.83c.55-.31.56-.31.56.22v4.07a.26.26,0,1,1-.46.14c.28-.38.11-.84.21-1.25v-.75a11.83,11.83,0,0,0-.07-1.93l-.23-.45Z" transform="translate(0 -30)" fill="#6b7a82"/>
    <path d="M95.3,152.28c0-.07-.13-.14,0-.21s.08-.31.23-.41c.15.09.36,0,.49.2s.33.07.23.29h0a.39.39,0,0,0-.06.39c.06.23-.08.35-.3.42a.84.84,0,0,1-.71-.31C95,152.48,95.2,152.39,95.3,152.28Z" transform="translate(0 -30)" fill="#85a306"/>
    <path d="M132.67,163.54l.24.21c0,.23.31.66-.35.54h-.12c-.1.07-.23.06-.33.1a.39.39,0,0,1-.33-.08h0l.3-.14c.15-.08.43-.11.32-.35s-.27,0-.4,0a.5.5,0,0,1-.55-.18c-.09-.17-.23-.37-.12-.58s.3-.07.45-.07-.37.4.11.48A1.23,1.23,0,0,1,132.67,163.54Z" transform="translate(0 -30)" fill="#fafbfb"/>
    <path d="M137.68,165.16c0-.09,0-.24.18-.09s.16.35.4.39c.06-.06.09-.17.22-.1l.13.3a.32.32,0,0,0,0,.35c.08.13.18.3.06.44s-.34,0-.51,0A5,5,0,0,1,137.68,165.16Z" transform="translate(0 -30)" fill="#68777e"/>
    <path d="M97.1,165.43c0,.51.1.56.58.35a1.82,1.82,0,0,1-.8.86c-.19.08-.38.17-.58,0v-.07c.15-.29,0-.61.09-.93C96.67,165.69,96.86,165.48,97.1,165.43Z" transform="translate(0 -30)" fill="#86a40d"/>
    <path d="M118.2,163.64c-.08-.16-.18-.32,0-.49s.11-.08,0-.12a.79.79,0,0,0-.22,0,1,1,0,0,1,1,0c.08,0,.2,0,.27.09a1.72,1.72,0,0,0,.25.26c.14.28-.11.34-.29.43H119A4.6,4.6,0,0,0,118.2,163.64Z" transform="translate(0 -30)" fill="#697880"/>
    <path d="M113.53,164.5a4.9,4.9,0,0,1,.34-1.09h0c.08.63.25-.13.36,0l-.23,1.17c-.11.16-.44,0-.45.32h0c-.14.06-.08.28-.27.3A.89.89,0,0,1,113.53,164.5Z" transform="translate(0 -30)" fill="#fafbfb"/>
    <path d="M136.88,166.51c.37-.14.2-.45.23-.68a5.16,5.16,0,0,0,0-.68.18.18,0,0,1,.24,0l0,0a1.75,1.75,0,0,0-.16,1.08c0,.26-.09.38-.39.38s-.39-.09-.39-.36v-4c.08,0,.15,0,.14.13-.09,1.23,0,2.46,0,3.73C136.69,166.21,136.64,166.46,136.88,166.51Z" transform="translate(0 -30)" fill="#788488"/>
    <path d="M116,161.43c-.14-.21-.23-.41.16-.48a1.25,1.25,0,0,0,.75-.5.14.14,0,0,1,.13,0l.31.2c.07.07.12.16,0,.25a2.66,2.66,0,0,1-.69.54.22.22,0,0,1-.19.09A1.37,1.37,0,0,0,116,161.43Z" transform="translate(0 -30)" fill="#69787e"/>
    <path d="M128.46,166c.33-.25.18-.62.3-.93v1.06h.14V164.2c0-.15-.06-.28.13-.35v2.27c0,.54-.24.57-.68.39C128.51,166.36,128.31,166.15,128.46,166Z" transform="translate(0 -30)" fill="#66777e"/>
    <path d="M125.17,157.26h-.24c-.07.16-.29-.09-.34.1h-.12l-.34-.22-.23-.21a.42.42,0,0,1-.25-.25l.12-.07a2.88,2.88,0,0,1,.94,0A.63.63,0,0,1,125.17,157.26Z" transform="translate(0 -30)" fill="#68777f"/>
    <path d="M123.9,163a21.9,21.9,0,0,0-.15,2.72h-.19V163c0-.09,0-.17.12-.09Z" transform="translate(0 -30)" fill="#65747b"/>
    <path d="M121.17,163.54l-.23.17a.39.39,0,0,1-.35-.41c0-.28.33-.15.45-.29s.4,0,.58-.1l.79.12c-.15.18-.43,0-.57.2C121.77,163.62,121.38,163.42,121.17,163.54Z" transform="translate(0 -30)" fill="#68787f"/>
    <path d="M116.68,166.61c.11-1.29,0-2.58,0-3.86v-1c0-.06.06-.06.1,0v4.67C116.86,166.59,116.81,166.62,116.68,166.61Z" transform="translate(0 -30)" fill="#f3f5f6"/>
    <path d="M96,166.51a1.69,1.69,0,0,1-.15-.93c0-.1.15.15.16,0a5.94,5.94,0,0,1,.07-.93c.06-.26.2-.34.42-.1a1.07,1.07,0,0,1,0,.68c-.26.45-.1.93-.22,1.41h0Z" transform="translate(0 -30)" fill="#86a40d"/>
    <path d="M98,154.85a1,1,0,0,0,.39-.77,1.45,1.45,0,0,1,.43.65c-.37.21-.21.6-.34.89A.65.65,0,0,1,98,154.85Z" transform="translate(0 -30)" fill="#89a412"/>
    <path d="M123.42,156.64c-.39,0-.58.06-.56.48v2.47c0,.44.12.63.59.56-.63.2-.7.16-.7-.41V157C122.76,156.5,122.81,156.47,123.42,156.64Z" transform="translate(0 -30)" fill="#7a898f"/>
    <path d="M115,157.88v.85c-.18-.09,0-.3-.21-.47,0,.41-.18.49-.53.48s-.64,0-1,0-.47.13-.48.42c-.26-.41-.12-.57.37-.54h.68c.81,0,.86.2.79-.8v-.26a.27.27,0,0,1,.12.27C114.78,158.21,114.94,157.88,115,157.88Z" transform="translate(0 -30)" fill="#f2f5f6"/>
    <path d="M123.67,162.92l-.12.09c-.2.25-.08.54-.09.81v2.7c-.08,0-.16,0-.16-.11v-3.18C123.34,163,123.3,162.77,123.67,162.92Z" transform="translate(0 -30)" fill="#f4f6f6"/>
    <path d="M133.47,164.07l.13-.35a13.07,13.07,0,0,1,.05,2.61c0,.45-.41.25-.68.2.58,0,.61-.36.6-.77A6.23,6.23,0,0,1,133.47,164.07Z" transform="translate(0 -30)" fill="#6a7a81"/>
    <path d="M125.4,163.08l-.29.6-.19-.14c-.22-.12-.53-.14-.58-.45,0-.09.06-.12.15-.13s.32.21.43-.06C125.07,163,125.27,162.94,125.4,163.08Z" transform="translate(0 -30)" fill="#64737a"/>
    <path d="M131.76,163.65c-.39-.2-.39-.35,0-.64.2,0,.36-.18.57-.11s.16.14.23.21l-.12.32a.44.44,0,0,1-.41,0C131.79,163.38,131.85,163.6,131.76,163.65Z" transform="translate(0 -30)" fill="#607078"/>
    <path d="M122.77,164.07a1.75,1.75,0,0,0-.06-.73c.21,0,.23.14.22.35a9.63,9.63,0,0,0,.05,2.72c0,.19-.14.16-.24.21a.4.4,0,0,1-.07-.14.7.7,0,0,1,.1-.38V166A6.31,6.31,0,0,1,122.77,164.07Z" transform="translate(0 -30)" fill="#f4f6f6"/>
    <path d="M108.86,160.24c.59.1.72-.15.7-.66a2.62,2.62,0,0,1,.09-1.43c.17.63-.11,1.27.08,1.87C109.83,160.4,109.41,160.49,108.86,160.24Z" transform="translate(0 -30)" fill="#f8f9f9"/>
    <path d="M110.91,157.88c0-.36-.47-.17-.57-.42a.39.39,0,0,1,.55-.22c.31-.07.33.22.5.34l-.33.32Q111,158,110.91,157.88Z" transform="translate(0 -30)" fill="#667379"/>
    <path d="M118.31,155.25c.19,0,.42-.13.56.11a1.6,1.6,0,0,0-.17.21c.05.06.05,0,.09,0s.11.18.2.24c-.07.28-.29.31-.52.24s-.3-.33-.3-.56Z" transform="translate(0 -30)" fill="#738085"/>
    <path d="M89.93,158.9c.11-.16.25,0,.37,0a.46.46,0,0,1,.24.6l-.15.61Z" transform="translate(0 -30)" fill="#89a512"/>
    <path d="M88.8,157.28a3,3,0,0,1,.7,1.05C89,158.11,88.62,157.88,88.8,157.28Z" transform="translate(0 -30)" fill="#fafbf6"/>
    <path d="M90.39,150.46c-.28.23-.63.37-.92.62s-.18-.1-.23-.21A1.75,1.75,0,0,1,90.39,150.46Z" transform="translate(0 -30)" fill="#89a411"/>
    <path d="M88.57,156.84l.22.43c-.35.12-.29-.22-.37-.33a2.32,2.32,0,0,1-.63-1.42c.22.28.25.66.52.93h0A.39.39,0,0,1,88.57,156.84Z" transform="translate(0 -30)" fill="#fafbf5"/>
    <path d="M128.46,166c-.07.17.2.39-.09.53a19.93,19.93,0,0,1,0-2.55.09.09,0,0,1,.13,0h0Z" transform="translate(0 -30)" fill="#697379"/>
    <path d="M120.14,160.15a2.13,2.13,0,0,0,1.48,0c-.08.07.25.32-.12.26a10.47,10.47,0,0,0-1.09,0C120.1,160.42,120.25,160.22,120.14,160.15Z" transform="translate(0 -30)" fill="#fcfcfc"/>
    <path d="M120.07,156.75a1.71,1.71,0,0,0-.39.63c-.14.16,0,.37-.12.53h0a.07.07,0,0,1-.09,0c0-.31-.19-.61,0-.93S119.81,156.71,120.07,156.75Z" transform="translate(0 -30)" fill="#fcfcfc"/>
    <path d="M119.23,163.12c-.1,0-.23.11-.23-.08.24-.21.08-.49.12-.74s-.1-.4.21-.47h0a1.65,1.65,0,0,1,.08.46c-.1.21.28.36.09.58C119.38,162.93,119.41,163.14,119.23,163.12Z" transform="translate(0 -30)" fill="#6b7a82"/>
    <path d="M110.45,163c.42.27.14.48-.1.79C110.35,163.46,110,163.2,110.45,163Z" transform="translate(0 -30)" fill="#fcfdfc"/>
    <path d="M90.51,150.17c.47-.48,1-.31,1.58-.29A3.64,3.64,0,0,0,90.51,150.17Z" transform="translate(0 -30)" fill="#fdfdf3"/>
    <path d="M110.93,162.48a.52.52,0,0,0-.14-.43c.08-.17.19-.21.34-.06s.21.2.17.36S111,162.43,110.93,162.48Z" transform="translate(0 -30)" fill="#fcfdfc"/>
    <path d="M110.1,158.26h.09a.66.66,0,0,1,.18.62c-.15,0-.34.2-.44,0S110,158.46,110.1,158.26Z" transform="translate(0 -30)" fill="#f8f9f9"/>
    <path d="M105.51,164.79a.26.26,0,0,1,.23.2.54.54,0,0,1,0,.5c0,.07-.13,0-.2,0-.25-.14,0-.26,0-.39S105.41,164.9,105.51,164.79Z" transform="translate(0 -30)" fill="#fcfdf6"/>
    <path d="M119.45,166.28c.17,0,.33,0,.34.21-.25.1-.49.16-.69-.08v-.13a.25.25,0,0,1,.34,0Z" transform="translate(0 -30)" fill="#637179"/>
    <path d="M99.06,163c.12.14.32.22.34.43s0,.2-.06.24-.15,0-.2-.09a.56.56,0,0,1-.19-.36h0C99,163.17,99,163.07,99.06,163Z" transform="translate(0 -30)" fill="#fcfcf7"/>
    <path d="M133.58,163.54c-.18,0-.38.13-.5-.07s.13-.22.17-.35C133.54,163.13,133.58,163.33,133.58,163.54Z" transform="translate(0 -30)" fill="#6a7a81"/>
    <path d="M95.3,164.92c.42.21.2.5.12.77C95.24,165.45,95.33,165.18,95.3,164.92Z" transform="translate(0 -30)" fill="#fbfbf9"/>
    <path d="M127.33,163.76c-.48.32-.15-.27-.24-.25.16.12.4-.32.68-.07-.1.09-.25.12-.34.22Z" transform="translate(0 -30)" fill="#63737a"/>
    <path d="M113,166.52v-.42c.24-.11.19-.39.34-.56A.9.9,0,0,1,113,166.52Z" transform="translate(0 -30)" fill="#fafbfb"/>
    <path d="M127.43,163.66a.34.34,0,0,1,.34-.22.7.7,0,0,1,.81,0h-.11c-.11.08-.23,0-.35,0A1.42,1.42,0,0,0,127.43,163.66Z" transform="translate(0 -30)" fill="#69787f"/>
    <path d="M120.36,166c.23-.36.27.07.38.11.29.1,0,.21-.07.32C120.51,166.32,120.34,166.23,120.36,166Z" transform="translate(0 -30)" fill="#647177"/>
    <path d="M113.19,160.25a.22.22,0,0,1,.21-.23.24.24,0,0,1,.16,0c.24.11.44,0,.65,0C113.93,160.37,113.55,160.29,113.19,160.25Z" transform="translate(0 -30)" fill="#6b7a81"/>
    <path d="M88.34,152.91a1.22,1.22,0,0,1-.46-.32.32.32,0,0,1,.11-.32c.19,0,.26,0,.23.21l.11.1a.21.21,0,0,1,0,.32Z" transform="translate(0 -30)" fill="#84a202"/>
    <path d="M114,163.42h-.09c.05-.53-.4-.2-.59-.3.13-.34.46-.08.66-.2.21.17.17.34,0,.51Z" transform="translate(0 -30)" fill="#68787e"/>
    <path d="M130,163.12a1.8,1.8,0,0,0-.83-.11,1.31,1.31,0,0,1,1.15,0l.12.21h-.21C130.19,163.22,130.13,163.15,130,163.12Z" transform="translate(0 -30)" fill="#69787f"/>
    <path d="M112.73,157.17c-.16.07-.07.24-.19.36l-.16-.26a.35.35,0,0,1,.12-.4l.21-.19v.16a.21.21,0,0,1,0,.32Z" transform="translate(0 -30)" fill="#627277"/>
    <path d="M88.23,152.48a.39.39,0,0,0-.24-.21.63.63,0,0,1,.23-.42C88.16,152.06,88.64,152.28,88.23,152.48Z" transform="translate(0 -30)" fill="#86a311"/>
    <path d="M98,165a.9.9,0,0,1,.35-.86A1.57,1.57,0,0,1,98,165Z" transform="translate(0 -30)" fill="#86a40d"/>
    <path d="M117.06,160.46h-.13v-.1c.2-.12.36-.35.66-.21a.38.38,0,0,1-.07.35h-.07C117.34,160.46,117.2,160.58,117.06,160.46Z" transform="translate(0 -30)" fill="#6d7d84"/>
    <path d="M128.11,163.55c.11-.18.23,0,.35,0V164h-.13Z" transform="translate(0 -30)" fill="#606e75"/>
    <path d="M110.91,160c.23,0,.54.34.69-.11.08.09.18.26,0,.28S111,160.43,110.91,160Z" transform="translate(0 -30)" fill="#6b7a81"/>
    <path d="M90.63,164.61c.35.11.38.44.55.67A.94.94,0,0,1,90.63,164.61Z" transform="translate(0 -30)" fill="#8aa711"/>
    <path d="M108.53,163.12a.49.49,0,0,0,.55.1l-.35.43A.78.78,0,0,1,108.53,163.12Z" transform="translate(0 -30)" fill="#6d7b82"/>
    <path d="M128.46,163c-.3.13-.6,0-.9,0A.78.78,0,0,1,128.46,163Z" transform="translate(0 -30)" fill="#69787f"/>
    <path d="M95.52,151.64a.36.36,0,0,1-.23.41c-.29-.24-.05-.34.14-.44A.09.09,0,0,1,95.52,151.64Z" transform="translate(0 -30)" fill="#83a204"/>
    <path d="M96.24,152.14c.06-.19-.2-.16-.23-.29.28,0,.55.06.54.41Z" transform="translate(0 -30)" fill="#f6f9ef"/>
    <path d="M104.64,161v-.08h.19l.46.43a.24.24,0,0,1-.32,0h0A.7.7,0,0,0,104.64,161Z" transform="translate(0 -30)" fill="#8ba616"/>
    <path d="M118.43,155c.15-.29.15-.29.63-.25A1.93,1.93,0,0,0,118.43,155Z" transform="translate(0 -30)" fill="#fcfcfc"/>
    <path d="M101.68,155.69c-.21.33-.54.17-.83.19A1.3,1.3,0,0,1,101.68,155.69Z" transform="translate(0 -30)" fill="#87a410"/>
    <path d="M124.72,156.63c-.31-.06-.63.18-.94,0A1,1,0,0,1,124.72,156.63Z" transform="translate(0 -30)" fill="#728087"/>
    <path d="M113.76,159.61c-.32.28-.59.26-.79-.12A1.21,1.21,0,0,0,113.76,159.61Z" transform="translate(0 -30)" fill="#6b7a81"/>
    <path d="M113.53,164.5l-.16.73h-.07C113.24,165,113.2,164.68,113.53,164.5Z" transform="translate(0 -30)" fill="#68787e"/>
    <path d="M119.47,157.94h.09v.87a.16.16,0,0,1,0,.22c-.15-.28,0-.58-.1-.87Z" transform="translate(0 -30)" fill="#6e7b82"/>
    <path d="M114,163.48c0-.17.08-.35,0-.51.13,0,.32.06.33.21S114.12,163.37,114,163.48Z" transform="translate(0 -30)" fill="#fafbfb"/>
    <path d="M117.53,163.34l-.23.54C117.09,163.59,117.21,163.43,117.53,163.34Z" transform="translate(0 -30)" fill="#f3f5f6"/>
    <path d="M111.35,159.18c-.07,0-.14.13-.2.13s-.07-.09-.06-.17,0-.26,0-.4A.64.64,0,0,1,111.35,159.18Z" transform="translate(0 -30)" fill="#6b7a81"/>
    <path d="M119.61,160c0,.07,0,.17-.17.16s-.1-.09-.09-.16,0-.18.15-.16a.12.12,0,0,1,.12.13Z" transform="translate(0 -30)" fill="#fcfcfc"/>
    <path d="M113.79,156.62c-.29.14-.59,0-.88,0A.91.91,0,0,1,113.79,156.62Z" transform="translate(0 -30)" fill="#6c7c83"/>
    <path d="M104.44,166l.22-.28c0,.17.21.24.16.42S104.59,166,104.44,166Z" transform="translate(0 -30)" fill="#f8faf3"/>
    <path d="M117.3,165.67l.26.63a.43.43,0,0,1-.29-.56Z" transform="translate(0 -30)" fill="#f3f5f6"/>
    <path d="M99.85,156.4a.2.2,0,0,1-.29.21c-.17-.07-.13-.35-.15-.54C99.6,156.13,99.36,156.68,99.85,156.4Z" transform="translate(0 -30)" fill="#87a410"/>
    <path d="M112.51,156.87a.66.66,0,0,1-.12.4l-.22.1A.6.6,0,0,1,112.51,156.87Z" transform="translate(0 -30)" fill="#6c7c83"/>
    <path d="M112,163.32v-.21c-.11-.08-.23-.13-.34-.21a.21.21,0,0,1,.26-.1l.07,0a.3.3,0,0,1,0,.45Z" transform="translate(0 -30)" fill="#fcfdfc"/>
    <path d="M97.69,165.77l-.11-.21h0c.15,0,0-.36.32-.21A.62.62,0,0,1,97.69,165.77Z" transform="translate(0 -30)" fill="#86a40d"/>
    <path d="M123.9,156.94a.2.2,0,0,1,.23.16.17.17,0,0,1,0,.05l-.46.1C123.66,157.1,123.83,157.07,123.9,156.94Z" transform="translate(0 -30)" fill="#728087"/>
    <path d="M105.1,160.68c.19-.29.38-.3.56,0A.63.63,0,0,1,105.1,160.68Z" transform="translate(0 -30)" fill="#f8f9f1"/>
    <path d="M104.64,159v-.72C104.72,158.49,104.85,158.74,104.64,159Z" transform="translate(0 -30)" fill="#fefef4"/>
    <path d="M114.3,159.61a.45.45,0,0,1-.47,0C114,159.45,114.16,159.3,114.3,159.61Z" transform="translate(0 -30)" fill="#6b7a81"/>
    <path d="M117.2,164.92a.88.88,0,0,1,.07.54c-.06,0-.17.08-.17,0A2.88,2.88,0,0,1,117.2,164.92Z" transform="translate(0 -30)" fill="#f3f5f6"/>
    <path d="M122.74,166.52a.16.16,0,0,1,0,.1c-.23-.08-.55.14-.71-.19.17,0,.34.19.5,0S122.69,166.44,122.74,166.52Z" transform="translate(0 -30)" fill="#6f7e85"/>
    <path d="M102.64,167h.79A.58.58,0,0,1,102.64,167Z" transform="translate(0 -30)" fill="#88a410"/>
    <path d="M89.42,158.69a.13.13,0,0,1-.13.14h0a.11.11,0,0,1-.12-.09.1.1,0,0,1,0,0,.15.15,0,0,1,.09-.1.13.13,0,0,1,.16.09Z" transform="translate(0 -30)" fill="#fafbf6"/>
    <path d="M111.75,168.26a.59.59,0,0,1,.64-.06Z" transform="translate(0 -30)" fill="#faf8f8"/>
    <path d="M113.64,164.92c.31.06.22.25.14.44Z" transform="translate(0 -30)" fill="#fafbfb"/>
    <path d="M116,161.43c.15-.14.31-.07.47,0a.13.13,0,0,1,0,.2h-.1C116.34,161.46,116.08,161.61,116,161.43Z" transform="translate(0 -30)" fill="#6f7e85"/>
    <path d="M138.72,163.13c-.17-.19-.42-.07-.62-.13.22-.12.47,0,.7-.07C138.81,163,138.85,163.09,138.72,163.13Z" transform="translate(0 -30)" fill="#7f8b90"/>
    <path d="M105.1,160.68h.56a.17.17,0,0,1,0,.09c-.21.16-.4,0-.6,0Z" transform="translate(0 -30)" fill="#8ba616"/>
    <path d="M110.36,158.81l-.18-.62c.29.15.26.4.26.64Z" transform="translate(0 -30)" fill="#68767d"/>
    <path d="M112.84,165.24c-.08.12-.08.34-.27.34s-.05-.16-.06-.25l.24-.07C112.78,165.19,112.81,165.19,112.84,165.24Z" transform="translate(0 -30)" fill="#697981"/>
    <path d="M111.59,162.92c.12.06.33,0,.34.21l-.67-.1a.2.2,0,0,1,0-.09Z" transform="translate(0 -30)" fill="#6b7a81"/>
    <path d="M90.53,165.4a.4.4,0,0,1,.39.22C90.71,165.63,90.6,165.59,90.53,165.4Z" transform="translate(0 -30)" fill="#fdfdf2"/>
    <path d="M110.57,159.18c.3.11.3.33.21.57A1.16,1.16,0,0,1,110.57,159.18Z" transform="translate(0 -30)" fill="#6b7a81"/>
    <path d="M112.84,165.24h-.08a.58.58,0,0,1,.08-.54C113.06,164.89,112.77,165.06,112.84,165.24Z" transform="translate(0 -30)" fill="#68787e"/>
    <path d="M104.07,166.43c0-.13.13-.1.22-.12s.16.21,0,.28S104.13,166.52,104.07,166.43Z" transform="translate(0 -30)" fill="#f8faf3"/>
    <path d="M106.34,162.12v-.62C106.48,161.81,106.5,162,106.34,162.12Z" transform="translate(0 -30)" fill="#fbfdef"/>
    <path d="M137.38,165.16h-.26c0-.23.15-.28.34-.1Z" transform="translate(0 -30)" fill="#68777e"/>
    <path d="M89,150.76a.46.46,0,0,1-.14.09c-.06,0-.09,0-.06-.09a.31.31,0,0,1,.14-.13C89,150.61,89,150.66,89,150.76Z" transform="translate(0 -30)" fill="#fbfbf1"/>
    <path d="M90.51,149.64H91C90.82,149.78,90.67,149.7,90.51,149.64Z" transform="translate(0 -30)" fill="#fcfdf5"/>
    <path d="M104.92,159.8c.16.11.15.22,0,.39A.45.45,0,0,1,104.92,159.8Z" transform="translate(0 -30)" fill="#fcfdf3"/>
    <path d="M90.4,160.15a.46.46,0,0,1,.1.54A.88.88,0,0,1,90.4,160.15Z" transform="translate(0 -30)" fill="#89a512"/>
    <path d="M124.92,162.91c0,.49-.34-.07-.45.1q-.1-.07,0-.09Z" transform="translate(0 -30)" fill="#6a7980"/>
    <path d="M121.62,162.91a.52.52,0,0,1-.58.1A.71.71,0,0,1,121.62,162.91Z" transform="translate(0 -30)" fill="#6f7d84"/>
    <path d="M116.48,161.61v-.21h.21l.12.33h-.1Z" transform="translate(0 -30)" fill="#c4cbcc"/>
    <path d="M112.27,164.61c-.28-.13-.22-.36-.21-.58A.81.81,0,0,1,112.27,164.61Z" transform="translate(0 -30)" fill="#68777d"/>
    <path d="M122.25,156.74c.3,0,.29.17.24.35Z" transform="translate(0 -30)" fill="#f9f6f6"/>
    <path d="M119.23,156.52v-.1c.2.08.25.23.2.49Z" transform="translate(0 -30)" fill="#f9f9f8"/>
    <path d="M103.79,155.92a.62.62,0,0,1,.12.13.14.14,0,0,1-.06.11l-.14-.13A.09.09,0,0,1,103.79,155.92Z" transform="translate(0 -30)" fill="#fdfef3"/>
    <path d="M102.35,165.73v.71A.88.88,0,0,1,102.35,165.73Z" transform="translate(0 -30)" fill="#90ab22"/>
    <path d="M110.91,157.88h.15c-.1.17,0,.35,0,.52A.42.42,0,0,1,110.91,157.88Z" transform="translate(0 -30)" fill="#6d7a80"/>
    <path d="M121.39,166.63a1,1,0,0,1,.6-.2A.67.67,0,0,1,121.39,166.63Z" transform="translate(0 -30)" fill="#6f7e85"/>
    <path d="M96.18,167a.57.57,0,0,1,.5,0A.57.57,0,0,1,96.18,167Z" transform="translate(0 -30)" fill="#f9fcec"/>
    <path d="M100.51,163.88h.65A.67.67,0,0,1,100.51,163.88Z" transform="translate(0 -30)" fill="#8ba71a"/>
    <path d="M131,163.39c0-.07,0-.12.1-.08a.18.18,0,0,1,.07.11c0,.06,0,.1-.1.07S131,163.42,131,163.39Z" transform="translate(0 -30)" fill="#fafbfb"/>
    <path d="M118,155.46l-.21.25C117.78,155.55,117.68,155.33,118,155.46Z" transform="translate(0 -30)" fill="#fcfcfc"/>
    <path d="M114.11,165.22a1,1,0,0,1,.1.56C114,165.61,114.12,165.41,114.11,165.22Z" transform="translate(0 -30)" fill="#fafbfb"/>
    <path d="M91.77,165.49c.07-.18.2-.16.38-.1l-.26.12Z" transform="translate(0 -30)" fill="#8aa900"/>
    <path d="M95,164.61v.1l-.34.12C94.62,164.61,94.79,164.61,95,164.61Z" transform="translate(0 -30)" fill="#89a514"/>
    <path d="M117.26,164.08a.88.88,0,0,1-.08.56C117.19,164.41,117.11,164.25,117.26,164.08Z" transform="translate(0 -30)" fill="#f3f5f6"/>
    <path d="M132.56,163.12a.21.21,0,0,1-.23-.18.18.18,0,0,1,0,0c.14,0,.28-.06.37.09Z" transform="translate(0 -30)" fill="#6a7a81"/>
    <path d="M117,156.64c.12.13.12.25,0,.34s-.09-.07-.1-.13l.1-.14A.06.06,0,0,1,117,156.64Z" transform="translate(0 -30)" fill="#5f6f76"/>
    <path d="M124.5,162.92V163l-.13.07-.23-.16C124.24,162.78,124.37,162.94,124.5,162.92Z" transform="translate(0 -30)" fill="#f4f6f6"/>
    <path d="M112.5,165.24a.53.53,0,0,1-.21-.45C112.49,164.89,112.5,165.06,112.5,165.24Z" transform="translate(0 -30)" fill="#68777d"/>
    <path d="M106,161.21c-.11-.08-.37-.07-.23-.31C106,160.93,106,161.06,106,161.21Z" transform="translate(0 -30)" fill="#8ba616"/>
    <path d="M113.28,163.1c.12.2.1.35-.15.43C113.19,163.39,113.15,163.22,113.28,163.1Z" transform="translate(0 -30)" fill="#68787e"/>
    <path d="M113.33,162.44s.12.07.14.12-.05.07-.1,0l-.15-.12Z" transform="translate(0 -30)" fill="#fafbfb"/>
    <path d="M126.65,166.28h.43v.08h-.44Z" transform="translate(0 -30)" fill="#606f76"/>
    <path d="M117.4,160.87a.2.2,0,0,0-.11-.2c0-.17,0-.22.21-.22h0C117.54,160.62,117.55,160.77,117.4,160.87Z" transform="translate(0 -30)" fill="#6d7d84"/>
    <path d="M138.48,165.34l-.22.1-.11-.53.12-.11A1.21,1.21,0,0,1,138.48,165.34Z" transform="translate(0 -30)" fill="#69787f"/>
    <path d="M88,153.66c-.09.49.16,1,0,1.49A2.09,2.09,0,0,1,88,153.66Z" transform="translate(0 -30)" fill="#86a311"/>
    <path d="M110.89,157.26c-.22,0-.35.19-.55.22s-.65.11-.73-.12a1.84,1.84,0,0,1,0-1.14c.12-.34.57-.15.86-.13a.65.65,0,0,1,.53.64A2.68,2.68,0,0,1,110.89,157.26Z" transform="translate(0 -30)" fill="#fafbfb"/>
    <path d="M111,155.71a.18.18,0,0,1,.13.08s-.1.11-.17.15-.17,0-.14-.07S111,155.77,111,155.71Z" transform="translate(0 -30)" fill="#607277"/>
    <path d="M116,164.8v.74a.45.45,0,0,1-.46.45h0a.44.44,0,0,1-.53-.31h0a2.84,2.84,0,0,1,0-1.82.44.44,0,0,1,.51-.33h0a.47.47,0,0,1,.46.46A7.34,7.34,0,0,0,116,164.8Z" transform="translate(0 -30)" fill="#fbfcfc"/>
    <path d="M90.53,159.46l-.24-.6a18.16,18.16,0,0,0-1.49-2.44c-.25-.12-.11-.37-.21-.55h0c-.19-.15,0-.37-.12-.54h0a2,2,0,0,1,0-1.27v-.21a.3.3,0,0,1,.08-.33v-.16h0a5.54,5.54,0,0,1,1.61-1.5,4.75,4.75,0,0,1,2-.14h.32c.11.07.27,0,.37.08l2,.66a.19.19,0,0,1,.23.11,1.85,1.85,0,0,0,.68.33.34.34,0,0,1,.33.2,1.71,1.71,0,0,0,.59.42,1.48,1.48,0,0,1,.47.41h0c.19.12.4.21.43.46a.06.06,0,0,0,0,.07.71.71,0,0,1,.19.23l.07.11.48.77a6.63,6.63,0,0,1,.46,1.61c-.12.11-.16.3-.36.35l-.09.1a2,2,0,0,1-.31.44l-.06.09c-.05.44-.39.75-.55,1.14-.35.6-.57,1.26-.86,1.87l-.07.14a2,2,0,0,0-.21.8,8.12,8.12,0,0,0-.22.93.62.62,0,0,1-.35.4c-.16,0-.36,0-.4.21a.31.31,0,0,1-.17.13c-.13,0-.29-.25-.36.07,0,.11-.22.17-.29.29l-.11.1a.54.54,0,0,1-.38.21.87.87,0,0,0-.43.09,1.9,1.9,0,0,1-2.6-1.35,7.57,7.57,0,0,0-.1-1.41s-.05,0,0-.06h0v-.32a2.52,2.52,0,0,1-.08-.76Z" transform="translate(0 -30)" fill="#fefefe"/>
    <path d="M92.21,151.72a12.41,12.41,0,0,0-2,.14H90c-.21,0-.18-.09-.11-.21h0c.09-.09.21-.07.33-.06a.25.25,0,0,1,.24.06A8.29,8.29,0,0,1,92.21,151.72Z" transform="translate(0 -30)" fill="#87a310"/>
    <path d="M92.79,151.64c.52-.28.6-.28,1.06,0-.14.17-.26,0-.38,0A1,1,0,0,1,92.79,151.64Z" transform="translate(0 -30)" fill="#84a303"/>
    <path d="M92.79,151.64h.68c-.13.21-.43,0-.57.21a.47.47,0,0,1-.37-.08C92.63,151.74,92.73,151.73,92.79,151.64Z" transform="translate(0 -30)" fill="#86a01f"/>
    <path d="M95.17,152.62c-.08,0-.19,0-.23-.11a.35.35,0,0,1,.35-.23C95.6,152.49,95,152.43,95.17,152.62Z" transform="translate(0 -30)" fill="#83a204"/>
    <path d="M90.4,151.64h-.23s-.05,0,0-.07h0l.11-.1h.39Z" transform="translate(0 -30)" fill="#85a01b"/>
    <path d="M96.08,163.09a3.42,3.42,0,0,1,.19-.93c.24-.23.11-.59.28-.84a.2.2,0,0,1,0-.1.17.17,0,0,1,.22.1h0c.05.13.17.33.21.32.05.2-.17.34-.1.53-.09.07,0,.17-.08.24a.42.42,0,0,0-.07.37,1.09,1.09,0,0,1,0,.14,1.43,1.43,0,0,1,0,.47c-.15.36-.08.78-.35,1.1-.13,0-.22,0-.21.12a4.37,4.37,0,0,1-.14,1.28l-.2-.34v-.43c.11-.22,0-.48.11-.71.14-.43-.48-.41-.49-.75a.27.27,0,0,1,.21-.2C96,163.48,96.06,163.32,96.08,163.09Z" transform="translate(0 -30)" fill="#86a30b"/>
    <path d="M97,161.61a.38.38,0,0,0-.27.14c-.17-.19.16-.45-.16-.57a9,9,0,0,1,.9-1.91c.4,0,.43.26.35.55Z" transform="translate(0 -30)" fill="#88a410"/>
    <path d="M97.81,159.85a.7.7,0,0,0-.35-.55,3.86,3.86,0,0,1,.65-1.07l.41.24a.17.17,0,0,1,0,.21A8,8,0,0,1,97.81,159.85Z" transform="translate(0 -30)" fill="#89a413"/>
    <path d="M99.16,158.14v3c0,.21.14.44,0,.64A9.12,9.12,0,0,1,99,159.6a3.12,3.12,0,0,0-.1-1.39C99,158,99,158,99.16,158.14Z" transform="translate(0 -30)" fill="#bdca89"/>
    <path d="M98.53,158.66v-.21a.24.24,0,0,0,.25-.11,3,3,0,0,1,.06,1C98.64,159.1,98.81,158.81,98.53,158.66Z" transform="translate(0 -30)" fill="#f8fae7"/>
    <path d="M96.76,162.38l.14-.21a.3.3,0,0,0,.28.32h0a.16.16,0,0,1,0,.1.35.35,0,0,1-.43.23l-.09,0h0C96.5,162.63,96.74,162.54,96.76,162.38Z" transform="translate(0 -30)" fill="#f6f8ef"/>
    <path d="M99.15,161.75v-.64c.28.35.11.73.09,1.1A1.77,1.77,0,0,1,99.15,161.75Z" transform="translate(0 -30)" fill="#8aa612"/>
    <path d="M99.06,163a.22.22,0,0,1-.11.21,3.15,3.15,0,0,0-.12-1.09C99.16,162.47,99,162.76,99.06,163Z" transform="translate(0 -30)" fill="#fefeef"/>
    <path d="M99.35,162.61c.11,0,.25-.15.33,0s0,.28-.17.39A.63.63,0,0,1,99.35,162.61Z" transform="translate(0 -30)" fill="#87a310"/>
    <path d="M98.74,161.5v-.7h.06v.71Z" transform="translate(0 -30)" fill="#fefef1"/>
    <path d="M97.46,161.76c0,.06,0,.12-.08.13s-.13,0-.13-.1a.14.14,0,0,1,.08-.1Z" transform="translate(0 -30)" fill="#fcfdef"/>
    <path d="M98.49,159.6s-.08.12-.13.14-.08-.06-.05-.1l.13-.16Z" transform="translate(0 -30)" fill="#fcfdef"/>
    <path d="M99.16,158.14c-.09,0-.18,0-.22.07h-.11c0-.11,0-.25.17-.26S99.14,158.06,99.16,158.14Z" transform="translate(0 -30)" fill="#90ab20"/>
    <path d="M120.93,157.16a.79.79,0,0,1,.59.81,7.2,7.2,0,0,1,0,1.05.55.55,0,0,1-.6.59.6.6,0,0,1-.64-.56.54.54,0,0,1,0-.09c0-.58-.25-1.19.25-1.69h0C120.62,157.19,120.74,157.06,120.93,157.16Z" transform="translate(0 -30)" fill="#fcfcfc"/>
    <path d="M120.5,157.28a3.12,3.12,0,0,0-.25,1.69C120,158.22,120.06,157.59,120.5,157.28Z" transform="translate(0 -30)" fill="#6e7d83"/>
    <path d="M119.56,159v-.22c0,.18.52.32.06.54C119.52,159.22,119.55,159.1,119.56,159Z" transform="translate(0 -30)" fill="#687880"/>
    <path d="M120.93,157.16l-.44.13C120.58,157.08,120.71,156.94,120.93,157.16Z" transform="translate(0 -30)" fill="#6e7d83"/>
    <path d="M119.56,157.88a.65.65,0,0,1,.12-.53C119.66,157.56,119.77,157.77,119.56,157.88Z" transform="translate(0 -30)" fill="#6e7d83"/>
    <path d="M102.38,156.71h.29a.64.64,0,0,1,.44.29,6.17,6.17,0,0,0,.28.65,6.22,6.22,0,0,1,0,3.83c0,.12-.23.17-.11.32v.11a4,4,0,0,1-.38.47c-.08.07-.17.12-.28.06a.16.16,0,0,1,0-.14h0a.21.21,0,0,0,.11.17.15.15,0,0,1,0,.2l-.81.53a1.55,1.55,0,0,1-.48.2h0a1.18,1.18,0,0,1-.68,0h-.1a.7.7,0,0,1-.29-.32.51.51,0,0,1,0-.13l-.38-.39a6.87,6.87,0,0,1-.22-1.87v-.89a12.57,12.57,0,0,0,0-1.74v-.42c-.09-.12,0-.25,0-.38a.69.69,0,0,1,.35-.31c.12,0,.23-.11.37-.09s.3.08.41-.08.19-.37.45-.15h0a.26.26,0,0,1,.16-.3.88.88,0,0,1,.33,0c.2.09.43.1.59.25a.05.05,0,0,1,0,.07c-.07.07-.07.16-.12.23s-.12.07-.19.06a.35.35,0,0,0,.25.06c.13,0,0-.07,0-.1A.24.24,0,0,1,102.38,156.71Z" transform="translate(0 -30)" fill="#fefefe"/>
    <path d="M101.79,156.43h-.34c-.45.06-.73.55-1.25.42l-.08-.35c.27.09.27.09.31-.07a2.55,2.55,0,0,1,1.94.1C102.14,156.64,102,156.49,101.79,156.43Z" transform="translate(0 -30)" fill="#87a410"/>
    <path d="M100.2,156.85c.43-.09.76-.47,1.25-.42-.15.07,0,.54-.39.26l-.17.25a.37.37,0,0,1-.46,0l-.33.1s-.06,0,0-.07h0Z" transform="translate(0 -30)" fill="#f9faf4"/>
    <path d="M99.75,160.73l.22,1.87A3,3,0,0,1,99.75,160.73Z" transform="translate(0 -30)" fill="#8aa612"/>
    <path d="M99.76,158.11a4.52,4.52,0,0,1,0,1.74v-.58a1.91,1.91,0,0,1,0-.82C99.78,158.34,99.6,158.21,99.76,158.11Z" transform="translate(0 -30)" fill="#87a310"/>
    <path d="M99.6,159.94v1.14A2.05,2.05,0,0,1,99.6,159.94Z" transform="translate(0 -30)" fill="#87a310"/>
    <path d="M99.72,158.46v.82A.78.78,0,0,1,99.72,158.46Z" transform="translate(0 -30)" fill="#83a101"/>
    <path d="M99.31,160.56V160h0v.59Z" transform="translate(0 -30)" fill="#86a112"/>
    <path d="M99.51,162c.1,0,.1.08.1.16s0,.15-.1.15-.1-.08-.1-.15S99.41,162,99.51,162Z" transform="translate(0 -30)" fill="#87a310"/>
    <path d="M100.1,163l.09.07a.21.21,0,0,1,0,.3c-.14,0-.28,0-.29-.18S100,163,100.1,163Z" transform="translate(0 -30)" fill="#87a310"/>
    <path d="M100.2,163.34V163a.47.47,0,0,1,.24.37l-.13.13Z" transform="translate(0 -30)" fill="#88a411"/>
    <path d="M99.44,157.56a.12.12,0,0,1-.17.09.11.11,0,0,1-.08-.14v0a.16.16,0,0,1,.12-.07.12.12,0,0,1,.12.13Z" transform="translate(0 -30)" fill="#87a310"/>
    <path d="M99.74,157.27v.42c-.11-.18-.26-.35,0-.53q.06,0,0,.07C99.68,157.31,99.75,157.27,99.74,157.27Z" transform="translate(0 -30)" fill="#87a310"/>
    <path d="M98.17,158.12a.93.93,0,0,1,.31-.44C98.46,157.88,98.42,158.06,98.17,158.12Z" transform="translate(0 -30)" fill="#8ba51a"/>
    <path d="M99.74,157.27v-.11a.35.35,0,0,1,.34-.21v.11Z" transform="translate(0 -30)" fill="#87a410"/>
    <path d="M98.57,157.58a.79.79,0,0,1,.36-.35C98.88,157.4,98.84,157.59,98.57,157.58Z" transform="translate(0 -30)" fill="#87a310"/>
    <path d="M113.08,157.2a.62.62,0,0,1,.7.21c.11.17.24.35.14.54s-.31.08-.47.08c-.76,0-.76,0-.59-.76A.17.17,0,0,1,113.08,157.2Z" transform="translate(0 -30)" fill="#f7f8f8"/>
    <path d="M113.08,157.2l-.21.08-.14-.12v-.32C113,156.86,113,157,113.08,157.2Z" transform="translate(0 -30)" fill="#6c7c83"/>
    <path d="M121,165.26a.61.61,0,0,1,.72-.44.63.63,0,0,1,.28.13c.36.22.2.61.06.93s-.33.13-.49.21a.83.83,0,0,1-.52-.41.29.29,0,0,1-.05-.42Z" transform="translate(0 -30)" fill="#f7f9f8"/>
    <path d="M122.77,164.07V166A3.18,3.18,0,0,1,122.77,164.07Z" transform="translate(0 -30)" fill="#677176"/>
    <path d="M121.47,166.08l.49-.21c0,.09.24.12.13.23a.36.36,0,0,1-.37.08Z" transform="translate(0 -30)" fill="#6f7e85"/>
    <path d="M121,165.26v.41l-.33,0,.23-.49h.05Z" transform="translate(0 -30)" fill="#617077"/>
    <path d="M121.17,163.54c.19-.17.54,0,.68-.31v.32Z" transform="translate(0 -30)" fill="#6f7d84"/>
    <path d="M122.74,166.52l-.21-.1c0-.19.16-.21.23-.32A.62.62,0,0,1,122.74,166.52Z" transform="translate(0 -30)" fill="#646f75"/>
    <path d="M104.52,164.18a2.53,2.53,0,0,0-.37.74c0,.09,0,.19-.13.21l-.88,1.26c-.2.07-.28,0-.35-.19a2.15,2.15,0,0,1,0-.93l.7-2.56c.12-.09,0-.32.19-.37.34.21.12-.19.25-.2s.23-.35.46-.39.37,0,.48-.21.28-.22.43,0-.21.49-.16.76a1.41,1.41,0,0,1-.09.59c-.11.21-.44.33-.25.63a.73.73,0,0,1-.21.47C104.51,164,104.52,164.09,104.52,164.18Z" transform="translate(0 -30)" fill="#fdfdfc"/>
    <path d="M105.31,161.53c-.19-.12-.32-.07-.38.12-.11.37-.32.22-.52.09l.58-.43h.34Z" transform="translate(0 -30)" fill="#f9faf5"/>
    <path d="M103,157.09l-.36-.34c.2-.08.35-.27.6-.22v.41A.23.23,0,0,1,103,157.09Z" transform="translate(0 -30)" fill="#83a303"/>
    <path d="M103.73,157.49a.89.89,0,0,1,.17,1.05Z" transform="translate(0 -30)" fill="#87a315"/>
    <path d="M103,157.09a.24.24,0,0,1,.24-.14l.11.75Z" transform="translate(0 -30)" fill="#87a315"/>
    <path d="M103.27,161.84c-.13,0-.29.06-.42-.11.13-.17.44,0,.53-.21A.27.27,0,0,1,103.27,161.84Z" transform="translate(0 -30)" fill="#fafbf5"/>
    <path d="M103.7,162.37l-.2.34-.11-.53a.45.45,0,0,0,.37,0C103.8,162.25,103.8,162.32,103.7,162.37Z" transform="translate(0 -30)" fill="#8aa516"/>
    <path d="M102.82,162.38a1.19,1.19,0,0,1,.43-.43v.1l-.25.27C103,162.45,102.91,162.43,102.82,162.38Z" transform="translate(0 -30)" fill="#fafbf5"/>
    <path d="M103.7,162.37l.06-.19.18,0v.35Z" transform="translate(0 -30)" fill="#f8faf0"/>
    <path d="M103.73,157.49c-.15-.13-.25-.26,0-.5Z" transform="translate(0 -30)" fill="#87a315"/>
    <path d="M95.53,163.67a1,1,0,0,1,.4,1.37l-.06.09v-1c-.27,0-.34.27-.58.26l-.45-.3c0-.23.27-.22.42-.33l.15-.11a.08.08,0,0,1,.11,0Z" transform="translate(0 -30)" fill="#89a50f"/>
    <path d="M95.26,163.76l-.42.33-.23.1C94.76,164,94.76,163.48,95.26,163.76Z" transform="translate(0 -30)" fill="#f8f9f1"/>
    <path d="M93.13,165.14c-.25.2-.53.08-.83.09C92.56,164.9,92.86,165.11,93.13,165.14Z" transform="translate(0 -30)" fill="#84a302"/>
    <path d="M93.59,165.34h-.1c-.13-.07-.18-.23-.36-.22h0c0-.16.1-.18.22-.1S93.72,165.09,93.59,165.34Z" transform="translate(0 -30)" fill="#84a106"/>
    <path d="M91.54,164.92l-.28-.42c.26,0,.44.06.4.32C91.61,164.86,91.6,164.92,91.54,164.92Z" transform="translate(0 -30)" fill="#80a101"/>
    <path d="M94.12,164.48a.34.34,0,0,1,.38-.21C94.53,164.6,94.37,164.62,94.12,164.48Z" transform="translate(0 -30)" fill="#89a514"/>
    <path d="M91.54,164.92l.11-.1c0,.16.13.21.29.27C91.69,165.17,91.56,165.14,91.54,164.92Z" transform="translate(0 -30)" fill="#809f02"/>
    <path d="M90.51,163.22v-.41h.09v.42Z" transform="translate(0 -30)" fill="#83a102"/>
    <path d="M118.65,155.57a.2.2,0,0,1,.19-.21h0a.42.42,0,0,1,.12.42l-.22-.2a.09.09,0,0,1-.13,0Z" transform="translate(0 -30)" fill="#5e6a6f"/>
    <path d="M117,157.7a8.65,8.65,0,0,1-.13,1.79c-.65.26-1,.13-1-.5s-.24-1.28.32-1.81a.67.67,0,0,1,.8.47Z" transform="translate(0 -30)" fill="#fbfcfc"/>
    <path d="M136.88,166.51c-.37,0-.33-.2-.33-.41C137,166,136.73,166.4,136.88,166.51Z" transform="translate(0 -30)" fill="#647379"/>
    <path d="M136.84,162.4a.69.69,0,0,1,0,.52C136.74,162.77,136.77,162.63,136.84,162.4Z" transform="translate(0 -30)" fill="#697585"/>
    <path d="M112,165.81a2,2,0,0,1-.22-.78C112.18,165.22,112.08,165.52,112,165.81Z" transform="translate(0 -30)" fill="#68777d"/>
    <path d="M111.8,165a1,1,0,0,1-.2-.58C112,164.49,111.77,164.77,111.8,165Z" transform="translate(0 -30)" fill="#68777d"/>
    <path d="M105,162.91l.16-.63c.29.34,0,.58-.16.84a.13.13,0,0,1,0-.2Z" transform="translate(0 -30)" fill="#86a30d"/>
    <path d="M105,162.91v.21c-.07.08-.16.17-.13.29s0,.07-.1,0C104.26,163.07,104.82,163.06,105,162.91Z" transform="translate(0 -30)" fill="#f9faf5"/>
    <path d="M105,164.41c-.11.08-.23.27-.34,0l.28-.23Z" transform="translate(0 -30)" fill="#86a701"/>
    <path d="M104.76,163.48h.1c0,.22,0,.44-.26.55Z" transform="translate(0 -30)" fill="#86a30d"/>
    <path d="M102.8,165.25v.93A.88.88,0,0,1,102.8,165.25Z" transform="translate(0 -30)" fill="#90ab22"/>
    <path d="M102.82,162.38l.21,0c-.1.17-.1.43-.43.36v-.21h0Z" transform="translate(0 -30)" fill="#8aa516"/>
    <path d="M100.54,163.48h.68A.57.57,0,0,1,100.54,163.48Z" transform="translate(0 -30)" fill="#8ba71a"/>
    <path d="M101.31,163.43a.81.81,0,0,1,.48-.2A.41.41,0,0,1,101.31,163.43Z" transform="translate(0 -30)" fill="#8ba71a"/>
    <path d="M118.2,163.64a.76.76,0,0,1,.9.12c.3.39.12.83.16,1.25a2.61,2.61,0,0,1,0,.57.61.61,0,0,1-.05.18.6.6,0,0,1-.26.25.18.18,0,0,1-.17,0,.52.52,0,0,1-.76-.49A3.06,3.06,0,0,1,118.2,163.64Z" transform="translate(0 -30)" fill="#fbfcfc"/>
    <path d="M118.77,166a.13.13,0,0,1,.1,0c.16,0,.26,0,.24-.19h0a7.28,7.28,0,0,0,.06-1.46,1.11,1.11,0,0,1,.05-.57c.1-.19.36-.08.23-.32s0-.35,0-.53-.48-.36-.11-.63c.06-.06.1-.17.23-.1a.47.47,0,0,1,.23.4v1.73a.09.09,0,0,1-.13,0h0c-.26,0-.08.24-.16.36.11-.08-.14-.4.23-.29.05.26,0,.53.06.79s-.14.25-.06.4c.18.34,0,.56-.27.77h-.34C119,166.17,118.75,166.23,118.77,166Z" transform="translate(0 -30)" fill="#68777f"/>
    <path d="M96.42,164.5a2.84,2.84,0,0,1,.26-1.15,1.82,1.82,0,0,1,1.14-.65c.34,0,.22.21.19.35s-.13.53-.2.8a1.8,1.8,0,0,1-.38.85l-.32.72-.22.29c-.2.27-.33.18-.43-.07a.38.38,0,0,1,0-.4Z" transform="translate(0 -30)" fill="#fcfcfa"/>
    <path d="M97.81,162.7l-1.14.65v-.58l.52-.2Z" transform="translate(0 -30)" fill="#8ba61a"/>
    <path d="M97.43,164.71l.38-.85a1,1,0,0,0,0,.26C97.9,164.41,97.83,164.66,97.43,164.71Z" transform="translate(0 -30)" fill="#86a40d"/>
    <path d="M97.57,165.57c-.1,0-.23,0-.17-.18s.08,0,.12-.07v.23Z" transform="translate(0 -30)" fill="#85a215"/>
    <path d="M118.4,157.38v2.52h-.05v-2.52Z" transform="translate(0 -30)" fill="#667378"/>
    <path d="M118.83,159a.34.34,0,0,1,0,.38C118.74,159.31,118.76,159.19,118.83,159Z" transform="translate(0 -30)" fill="#607077"/>
    <path d="M104,165.12l.13-.21c.1.06.18.13.1.22S104.11,165.13,104,165.12Z" transform="translate(0 -30)" fill="#88a40f"/>
    <path d="M96.18,153.14a.5.5,0,0,1-.33-.2c.42-.14,0-.63.35-.77,0,.27-.09.6.46.62A.86.86,0,0,0,96.18,153.14Z" transform="translate(0 -30)" fill="#86a311"/>
    <path d="M97.68,154.43l-.43-.46h.06c.25.07.32-.39.5-.21S97.75,154.2,97.68,154.43Z" transform="translate(0 -30)" fill="#88a511"/>
    <path d="M97.24,154l-.47-.41A.47.47,0,0,1,97.24,154Z" transform="translate(0 -30)" fill="#88a511"/>
    <path d="M97.91,154.73l-.19-.23c.1,0,.18-.2.26-.1S97.94,154.61,97.91,154.73Z" transform="translate(0 -30)" fill="#88a511"/>
    <path d="M132.87,164.94v.36c0,.69-.33.88-1,.58a1.52,1.52,0,0,1,0-.93.35.35,0,0,1,.34-.11.13.13,0,0,0,.1,0c.18-.09.31,0,.45.09A.13.13,0,0,0,132.87,164.94Z" transform="translate(0 -30)" fill="#f8f9f9"/>
    <path d="M132.23,164.84l-.23.09c-.13.06-.22-.14-.35,0a.59.59,0,0,1-.32-.15h0c.08-.21.31-.27.46-.41h.33c.06.13,0,.22-.11.31Z" transform="translate(0 -30)" fill="#68787f"/>
    <path d="M133.47,164.07a4.9,4.9,0,0,1,.1,1.7h-.1A5.39,5.39,0,0,1,133.47,164.07Z" transform="translate(0 -30)" fill="#657378"/>
    <path d="M133.47,164.07v1.7A2.67,2.67,0,0,1,133.47,164.07Z" transform="translate(0 -30)" fill="#69797f"/>
    <path d="M131.76,163.65c0-.18-.07-.45.31-.22.09.06.25,0,.38,0a.26.26,0,0,1,.23.1A2.82,2.82,0,0,0,131.76,163.65Z" transform="translate(0 -30)" fill="#707f86"/>
    <path d="M132.56,164.3c.52,0,.31-.32.35-.54a.47.47,0,0,1,0,.65C132.76,164.57,132.64,164.41,132.56,164.3Z" transform="translate(0 -30)" fill="#6a7a81"/>
    <path d="M132.78,164.91l-.45-.09C132.53,164.53,132.54,164.53,132.78,164.91Z" transform="translate(0 -30)" fill="#68787f"/>
    <path d="M132,164.61l.11-.31h.34C132.3,164.41,132.21,164.59,132,164.61Z" transform="translate(0 -30)" fill="#607276"/>
    <path d="M88.59,153.36a.09.09,0,0,1,0,.08c-.17-.11-.1-.28-.12-.43s0-.4.34-.32C88.87,153,88.48,153.09,88.59,153.36Z" transform="translate(0 -30)" fill="#86a603"/>
    <path d="M89.83,151.64a.21.21,0,0,0,.11.21c-.19.18-.31,0-.42-.08s0-.16,0-.18A.72.72,0,0,1,89.83,151.64Z" transform="translate(0 -30)" fill="#84a204"/>
    <path d="M88.8,152.7a.31.31,0,0,0-.34.28.28.28,0,0,0,0,0h-.11v-.43C88.5,152.61,88.68,152.54,88.8,152.7Z" transform="translate(0 -30)" fill="#86a311"/>
    <path d="M90.17,151.53v.1h-.34C89.85,151.35,90,151.47,90.17,151.53Z" transform="translate(0 -30)" fill="#84a204"/>
    <path d="M110.7,162.63c-.36.28-.4-.2-.62-.23C110.29,162.44,110.58,162.33,110.7,162.63Z" transform="translate(0 -30)" fill="#6b7b82"/>
    <path d="M124.58,157.37c0-.18,0-.18.34-.1a.4.4,0,0,1,.11.58.44.44,0,0,1-.11.11Z" transform="translate(0 -30)" fill="#637379"/>
    <path d="M101.79,156.43c.21,0,.38.07.57.09v.1C102.14,156.64,101.91,156.66,101.79,156.43Z" transform="translate(0 -30)" fill="#f9faf4"/>
    <path d="M131.65,164.82c.18-.12.24.06.35.11a1.3,1.3,0,0,0-.13.93c-.22-.26-.06-.57-.11-.85C131.68,165,131.58,164.94,131.65,164.82Z" transform="translate(0 -30)" fill="#6c7a7f"/>
    <path d="M131.09,165c-.24.17,0,.43-.19.67a1.07,1.07,0,0,1,0-.81c.14-.22.12,0,.16.07a.05.05,0,0,1,0,.07Z" transform="translate(0 -30)" fill="#fefefe"/>
    <path d="M131.65,164.82l.11.21c-.25,0-.53.1-.43-.3Z" transform="translate(0 -30)" fill="#5e7177"/>
    <path d="M131.65,166.52c0-.15.06-.28.25-.28,0,0,.12.07.11.09A3.18,3.18,0,0,0,131.65,166.52Z" transform="translate(0 -30)" fill="#5b6e75"/>
    <path d="M90.89,160.68a1.37,1.37,0,0,1,.08.76A.71.71,0,0,1,90.89,160.68Z" transform="translate(0 -30)" fill="#89a512"/>
    <path d="M91,161.73a.05.05,0,0,1,0,.08h0l-.06.6C90.84,162.08,90.79,161.89,91,161.73Z" transform="translate(0 -30)" fill="#84a600"/>
    <path d="M117,159.93c0-.13,0-.3.27-.31C117.1,159.74,117.2,159.93,117,159.93Z" transform="translate(0 -30)" fill="#697980"/>
    <path d="M88.59,155.87a1.07,1.07,0,0,1,.21.55.28.28,0,1,1-.48,0A.72.72,0,0,0,88.59,155.87Z" transform="translate(0 -30)" fill="#87a40e"/>
    <path d="M88.45,154.08v1.27l-.18-.07a1.11,1.11,0,0,0-.11-.79C88.09,154.29,88.36,154.22,88.45,154.08Z" transform="translate(0 -30)" fill="#87a40e"/>
    <path d="M88.47,155.34a.88.88,0,0,1,.12.54C88.31,155.75,88.43,155.54,88.47,155.34Z" transform="translate(0 -30)" fill="#87a40e"/>
    <path d="M88.58,153.55a.35.35,0,0,1-.08.33.31.31,0,0,1-.18-.07A.74.74,0,0,1,88.58,153.55Z" transform="translate(0 -30)" fill="#86a311"/>
    <path d="M88.35,153v.48C88.18,153.28,88.21,153.15,88.35,153Z" transform="translate(0 -30)" fill="#86a311"/>
    <path d="M130,163.12c.17-.13.17,0,.23.1s0,.15-.1.13S130.06,163.22,130,163.12Z" transform="translate(0 -30)" fill="#606e75"/>
    <path d="M119.68,164.29h.1v.83c-.21-.26-.05-.56-.1-.84Z" transform="translate(0 -30)" fill="#627577"/>
    <path d="M119.57,162.16l-.23.1c0-.14-.12-.28,0-.41S119.44,162.1,119.57,162.16Z" transform="translate(0 -30)" fill="#627577"/>
    <path d="M96.42,165.25v.4c0,.32.29.68-.11.93A2.21,2.21,0,0,1,96.42,165.25Z" transform="translate(0 -30)" fill="#86a30b"/>
    <path d="M119.23,163.76a7.16,7.16,0,0,1-.12,2v-2Z" transform="translate(0 -30)" fill="#6b7a82"/>
    <path d="M119.45,162.91c.25.18,0,.35,0,.53-.23,0-.23-.16-.22-.32S119.1,162.73,119.45,162.91Z" transform="translate(0 -30)" fill="#607078"/>
    <path d="M117.5,160.45l-.21.22a.2.2,0,0,1-.23-.15.17.17,0,0,1,0-.06C117.21,160.61,117.34,160,117.5,160.45Z" transform="translate(0 -30)" fill="#5e6f76"/>
    <path d="M118.65,155.57h.12c0,.2-.16.22-.33.18s0-.07-.06-.12Z" transform="translate(0 -30)" fill="#6f8189"/>
    <path d="M90.07,152.14c.34.35.11.49,0,.63s-.41.11-.75,0C89.69,152.64,90.08,152.65,90.07,152.14Z" transform="translate(0 -30)" fill="#fdfef7"/>
    <path d="M92.6,164.41a3.66,3.66,0,0,1,1.39-.23C93.51,164.36,93.14,164.61,92.6,164.41Z" transform="translate(0 -30)" fill="#fcfdf1"/>
    <path d="M97.85,155.19a.41.41,0,0,1,.16.59l0,0C97.68,155.67,97.74,155.45,97.85,155.19Z" transform="translate(0 -30)" fill="#fbfcf5"/>
    <path d="M94.16,152.81c.22-.08.43-.33.7-.06a.75.75,0,0,1-.68.14A.72.72,0,0,0,94.16,152.81Z" transform="translate(0 -30)" fill="#fafbf6"/>
    <path d="M96.55,161.31a.94.94,0,0,1-.28.84C96.38,161.88,96.28,161.55,96.55,161.31Z" transform="translate(0 -30)" fill="#89a514"/>
    <path d="M91.33,158.92l-.34.82A.65.65,0,0,1,91.33,158.92Z" transform="translate(0 -30)" fill="#fcfcf5"/>
    <path d="M91.29,161v.8h-.06V161Z" transform="translate(0 -30)" fill="#fefdf4"/>
    <path d="M95.53,163.67h-.12l-.07-.22c.14,0,.3-.16.42,0s.08.13,0,.07h0Z" transform="translate(0 -30)" fill="#f8f9f1"/>
    <path d="M89.28,153.88c-.15-.15-.26-.24-.15-.4A.27.27,0,0,1,89.28,153.88Z" transform="translate(0 -30)" fill="#fbfbf3"/>
    <path d="M95.74,163.54a.29.29,0,0,0,0-.08c.22,0,.22-.24.32-.36C96.24,163.43,96,163.48,95.74,163.54Z" transform="translate(0 -30)" fill="#8ca71b"/>
    <path d="M96.76,162.38l-.07.41C96.43,162.62,96.59,162.5,96.76,162.38Z" transform="translate(0 -30)" fill="#89a514"/>
    <path d="M97.12,160.56v-.22s.09.06.08.11a.71.71,0,0,1-.05.13Z" transform="translate(0 -30)" fill="#89a31b"/>
    <path d="M102.38,156.71c-.09.2.26.26.16.48a6.18,6.18,0,0,1-.92-.21c.33-.16.65,0,.76-.27Z" transform="translate(0 -30)" fill="#f9faf4"/>
    <path d="M103.19,160v-.93h.05V160Z" transform="translate(0 -30)" fill="#fdfef5"/>
    <path d="M100.29,159.94v.6h-.06v-.6Z" transform="translate(0 -30)" fill="#fdfef5"/>
    <path d="M100.27,161.61c0,.19.09.36,0,.39s-.15-.11-.1-.21A1.2,1.2,0,0,1,100.27,161.61Z" transform="translate(0 -30)" fill="#fbfcf6"/>
    <path d="M100.42,156.94h.46C100.73,157.16,100.58,157.3,100.42,156.94Z" transform="translate(0 -30)" fill="#fbfdf2"/>
    <path d="M102.61,162.5c-.38-.07,0-.26,0-.39v.39Z" transform="translate(0 -30)" fill="#fafbf5"/>
    <path d="M104,164.06v-.78C104.24,163.53,104.22,163.75,104,164.06Z" transform="translate(0 -30)" fill="#fdfdf4"/>
    <path d="M103.55,165.1c0-.07,0-.13.07-.12s.07.07.09.1,0,.06,0,.08Z" transform="translate(0 -30)" fill="#fbfdf1"/>
    <path d="M103.73,163a.53.53,0,0,1,.06.16.11.11,0,0,1-.07.07c-.08,0-.1,0-.09-.08S103.68,163.08,103.73,163Z" transform="translate(0 -30)" fill="#f8faf0"/>
    <path d="M119.11,165.77c0,.09.25.15.17.21s-.29.18-.41,0Z" transform="translate(0 -30)" fill="#6b7b82"/>
    <path d="M119.68,164.29c-.21.17-.05.43-.22.78a3.14,3.14,0,0,1,0-.83c.07-.22.17-.08.2.06Z" transform="translate(0 -30)" fill="#627577"/>
    <path d="M97.07,164.41a.32.32,0,0,1,0,.35h-.13A.59.59,0,0,1,97.07,164.41Z" transform="translate(0 -30)" fill="#fafbf5"/>
  </g>
</svg>
