<svg id="Layer_1" data-name="Layer 1" xmlns="http://www.w3.org/2000/svg" width="420.33" height="126.41" viewBox="0 0 420.33 126.41">
  <title>regionhlogo-md</title>
  <g>
    <path d="M260,130q144.5,0,289-.1c3.42,0,4.11.67,4.1,4.1q-.23,59,0,118c0,3.43-.67,4.1-4.1,4.1q-144.5-.18-289-.1c-1.74-2-1.39-4.37-1.39-6.67,0-13.32,0-26.64,0-40q0-5.73,0-11.47,0-11.46,0-22.93c0-9.62,0-19.24,0-28.86C259.21,140.76,257.18,135.17,260,130Z" transform="translate(-132.77 -129.9)" fill="#fefefe"/>
    <path d="M175,130h42c1.5,1.63,1.39,3.67,1.4,5.66,0,10.31.07,20.62,0,30.93-.05,5.77-1,6.82-6.67,6.76-12-.13-23.93.67-35.87-.44a3.24,3.24,0,0,1-1.46-1.23c-.94-1.74-.69-3.66-.82-5.52-.13-2.36.12-4.71,0-7.07-.12-2,.14-4.09,0-6.14a41,41,0,0,0-.07-4.51q-.07-6.43,0-12.87C173.49,133.6,173.55,131.61,175,130Z" transform="translate(-132.77 -129.9)" fill="#fefefe"/>
    <path d="M217,256H175c-1.8-2.07-1.54-4.61-1.55-7.05,0-5.1.2-10.2.13-15.3,0-2.07,0-4.14,0-6.21s.05-3.94,0-5.91c0-1.13,0-2.27-.06-3.4a3.6,3.6,0,0,1,2.65-4.19c12.45-.72,24.9-.23,37.35-.27a5.36,5.36,0,0,1,3.72,1.17c1.87,13.29,1.64,26.6.5,39.93C217.77,255.25,217.29,255.6,217,256Z" transform="translate(-132.77 -129.9)" fill="#fefefe"/>
    <path d="M175,130l-.06,19c-4.1,4.77-8,9.8-14.2,12.08-2.63,0-5.16-1-7.84-.8-4.35.28-7.57,2.61-8.33,6.38-.81,4,.68,7.09,4.36,9a8.65,8.65,0,0,1,3.26,2.17,3.34,3.34,0,0,1-1,3.42c-1.86,1.57-4.57.22-6.39,1.88-.73,1.18-.56,2.53-.71,3.82a7.53,7.53,0,0,1-.29,1.4c-2.38,5.1-5.69,9.71-7.78,15-.5,1.25-1,3-3.06,2.64,0-24.23,0-48.46-.07-72.69,0-2.61.31-3.45,3.23-3.4C149.11,130.12,162.05,130,175,130Z" transform="translate(-132.77 -129.9)" fill="#003460"/>
    <path d="M217,256q0-20.5,0-41a1.16,1.16,0,0,1,1.34.11,4.23,4.23,0,0,1,.64,1.34,20.65,20.65,0,0,1,.29,3.72c0,1,0,2,0,3,0,1.27,0,2.55,0,3.82s0,2.54,0,3.81a32.24,32.24,0,0,1-.36,5.74c7.91-13.51,19.49-21.44,34.51-24.42,2-.41,4.32-1,5.93,1.21.13,2.36.06,4.72,0,7.07-.92,2.22-3.12,2.28-5,2.75-16,4.11-26.28,14-30.19,30.2A5.43,5.43,0,0,1,223,256Z" transform="translate(-132.77 -129.9)" fill="#5b7c9f"/>
    <path d="M139,256c-5.13,1.13-6.65-.82-6.13-6,.57-5.61.13-11.32.13-17,1.51-2.69,1.33-5.73,1.67-8.63.88-7.46,4.7-13.54,8.9-19.47,2.57-.32,3.73,1.42,4.81,3.28a4.16,4.16,0,0,1-1.53,3.55c-2.08,1.32-2.46,3.35-2.47,5.62,0,3.32.1,6.64-.06,10-1.7,8.62-3.84,17.17-4.1,26A4.47,4.47,0,0,1,139,256Z" transform="translate(-132.77 -129.9)" fill="#0d3e69"/>
    <path d="M223,256c.25-12.62,11.19-27.22,24-31.85A49.67,49.67,0,0,1,258.94,221c1,1.43.37,3,.5,4.57-.71,1.8-2.37,2.23-4,2.6-13.75,3.22-21.91,12.18-26.08,25.26A6.43,6.43,0,0,1,228,256Z" transform="translate(-132.77 -129.9)" fill="#6382a4"/>
    <path d="M133,206l10-18c3.25-2.21,6.74-1.45,10.21-.82,1.25.64,1.2,1.68.87,2.81a12.58,12.58,0,0,0,.25,9.86,3.8,3.8,0,0,1-1,3.37c-4.75,1-6.59-.48-6.19-5,.09-1,.48-1.91.54-2.9,0-.69-.07-1.37-.82-1.58s-1.22.29-1.59.85c-.93,1.4-1,3.11-1.57,4.64a167,167,0,0,0-7.11,16.39c-.57,1.61-1,3.7-3.55,3.32Z" transform="translate(-132.77 -129.9)" fill="#063964"/>
    <path d="M235,130h24a1.71,1.71,0,0,1-.08,2.37c-3.4,1.89-7.19.76-10.77,1.36a189.74,189.74,0,0,0-23.85,5.2c-2,.62-4.09,1.6-6.26.4-.88-1.28-.46-2.7-.43-4.07,3.5-3,7.82-3.65,12.17-4.37C231.52,130.6,233.39,131,235,130Z" transform="translate(-132.77 -129.9)" fill="#0c3d68"/>
    <path d="M139,256c-.69-10,2.19-19.56,4.1-29.22a5.11,5.11,0,0,1,5.89-.15c1.3,1.68.82,3.2-.38,4.67-5.32,4.39-6.1,11.85-1.87,18.14.8,2.31.9,4.54-.75,6.56Z" transform="translate(-132.77 -129.9)" fill="#184670"/>
    <path d="M133,219c3.26-2.7,3.18-7,4.9-10.43,1.61-3.21,2.86-6.6,4.92-9.58,2.06,1.8,1.51,4.08,1.17,6.32-3.64,7.42-8.37,14.42-8.73,23.11-.07,1.71-.12,3.74-2.26,4.57Z" transform="translate(-132.77 -129.9)" fill="#093b66"/>
    <path d="M233,256h-2c-1.62-3.18.35-5.89,1.49-8.46,4.15-9.39,11.57-15.2,21.26-18.23,1.77-.55,3.6-.79,5.28.37a2.57,2.57,0,0,1,.3,2.2c-.8,1.23-2.14,1.54-3.4,1.88-10.05,2.71-16.72,9.08-20.31,18.76A5.93,5.93,0,0,1,233,256Z" transform="translate(-132.77 -129.9)" fill="#6886a8"/>
    <path d="M218.14,135v4a5.58,5.58,0,0,1,1.11,3.55c0,.74,0,1.48,0,2.21s0,1.44,0,2.16,0,1.42,0,2.14,0,1.42,0,2.13c0,.95,0,1.9,0,2.84s0,1.9,0,2.86c0,.72,0,1.43,0,2.15,0,1,0,1.91,0,2.86,0,.72,0,1.43,0,2.15,0,1,0,1.92,0,2.88,0,.73,0,1.47,0,2.2a11.22,11.22,0,0,1-.21,2.24,3.23,3.23,0,0,1-1.75,2.36,25.83,25.83,0,0,1-5.93.88c-.76,0-1.5-.16-2.25-.22-1.78-.13-3.55,0-5.33,0s-3.68,0-5.52,0c-1.06,0-2.12,0-3.19,0-1.32,0-2.65,0-4,0s-2.63,0-4,0-2.63,0-3.94,0c-.8,0-1.6,0-2.4,0a18.54,18.54,0,0,1-4.07-.28c-1-.46-2.28-.68-1.6-2.28,13.09.13,26.17.19,39.26.44,3.29.06,2.78-2,2.77-3.91q-.07-19.15-.15-38.29h1A3.73,3.73,0,0,1,218.14,135Z" transform="translate(-132.77 -129.9)" fill="#2a557d"/>
    <path d="M174.95,221v6c-2,8.27-4.25,16.47-5.47,24.91-.21,1.48-.39,2.94-1.48,4.08h-2c-3-4.42-.09-8.87-.08-13.31.72-2.8,1.72-5.54,1.77-8.48a12.77,12.77,0,0,1,2-6.42,13.77,13.77,0,0,0,2.67-4.85C173,222,173.34,220.65,174.95,221Z" transform="translate(-132.77 -129.9)" fill="#2c577e"/>
    <path d="M233,256c2.64-9.76,8.26-17.14,17.39-21.71a27.36,27.36,0,0,1,8.54-2.3,1.8,1.8,0,0,1,.33,2.05,5.41,5.41,0,0,1-3.31,2c-9.39,2.64-15.27,8.9-18.56,17.86a6.34,6.34,0,0,1-1.4,2Z" transform="translate(-132.77 -129.9)" fill="#6a88a9"/>
    <path d="M240,256h-2a2.76,2.76,0,0,1-.76-2.28c1.25-8.74,12.81-18.25,21.85-18a4.67,4.67,0,0,1,.31,3c-.58,1.16-1.73,1.5-2.82,1.85A22.33,22.33,0,0,0,242.49,253,6.14,6.14,0,0,1,240,256Z" transform="translate(-132.77 -129.9)" fill="#6e8aab"/>
    <path d="M258.94,230c-10.51.24-22,8.62-25.77,18.9-.86,2.32-1.45,4.74-2.17,7.11h-2c.76-14.29,15.4-27.85,29.28-28.6a1.57,1.57,0,0,1,.88.44A1.74,1.74,0,0,1,258.94,230Z" transform="translate(-132.77 -129.9)" fill="#6685a6"/>
    <path d="M258.94,228c-13.28,1-25.39,11.34-28.91,24.73-.29,1.11-.68,2.18-1,3.28h-1c.86-12.65,12.33-25.32,26.15-28.87,1.59-.41,3.19-.76,4.79-1.13A1.28,1.28,0,0,1,258.94,228Z" transform="translate(-132.77 -129.9)" fill="#6583a5"/>
    <path d="M240,256c3.17-9.17,8.85-15.54,18.94-17,.81.84.51,1.85.43,2.82-.74,1.28-2.12,1.51-3.33,2-4.33,1.66-7.81,4.27-9.85,8.54A7.8,7.8,0,0,1,243,256Z" transform="translate(-132.77 -129.9)" fill="#718dae"/>
    <path d="M174.95,233l.05,23h-5C169.53,247.88,170,240,174.95,233Z" transform="translate(-132.77 -129.9)" fill="#315b82"/>
    <path d="M174.95,233c-3.17,7.34-3.53,15.28-4.95,23h-2c.81-10,2.17-19.92,6.94-29Z" transform="translate(-132.77 -129.9)" fill="#2e5880"/>
    <path d="M249,256h-3c-.54-6.61,5.81-12.5,13.12-12.19.59,1.21.3,2.5.32,3.76A92.37,92.37,0,0,0,249,256Z" transform="translate(-132.77 -129.9)" fill="#7590b1"/>
    <path d="M258.94,236c-11.52,2-20.27,10.31-20.94,20h-2c2.44-12.77,11-19.17,22.94-22A1.28,1.28,0,0,1,258.94,236Z" transform="translate(-132.77 -129.9)" fill="#6c89aa"/>
    <path d="M249,256c2.12-4.16,4.72-7.71,9.95-8,.83,3,1.5,6-1.95,8Z" transform="translate(-132.77 -129.9)" fill="#7993b3"/>
    <path d="M257,256c2.2-2.3,2.14-5.14,1.95-8q0-2,0-4a1.44,1.44,0,0,1,0-2q0-1.5,0-3t0-3q0-1,0-2t0-2q0-1,0-2t0-2q0-1,0-2,0-2.51,0-5,0-4,0-8a3.14,3.14,0,0,1-.43-3.64.94.94,0,0,1,1.32-.36l.17,47Z" transform="translate(-132.77 -129.9)" fill="#8199b8"/>
    <path d="M218.14,135l-.14-5h17A120.61,120.61,0,0,1,218.14,135Z" transform="translate(-132.77 -129.9)" fill="#073964"/>
    <path d="M258.94,242q0,1,0,2c-6.62,1.52-11.35,5.07-12.95,12h-3C246,248.75,250.32,242.9,258.94,242Z" transform="translate(-132.77 -129.9)" fill="#738eaf"/>
    <path d="M163,256h-5c-1.25-2.65-.55-5.06.94-7.37a4.44,4.44,0,0,1,5.1.17C165.37,251.45,165.87,254,163,256Z" transform="translate(-132.77 -129.9)" fill="#26527a"/>
    <path d="M163,256c1.37-2.24,1-4.69.88-7.11,0-.19,0-.38,0-.57.19-.77.48-1.5.69-2.27.49-1.45.08-3.26,1.74-4.22l.65.17c.34,4.71-1.67,9.26-1,14Z" transform="translate(-132.77 -129.9)" fill="#2b567e"/>
    <path d="M154,256h-4c-.78-2.62-.73-5.11,1-7.37a2.83,2.83,0,0,1,3.35.41A6,6,0,0,1,154,256Z" transform="translate(-132.77 -129.9)" fill="#1f4c75"/>
    <path d="M151,249.06c-.06,2.35.38,4.78-1,6.94h-2c-1.59-2.52-1.27-4.87.63-7.09A1.85,1.85,0,0,1,151,249.06Z" transform="translate(-132.77 -129.9)" fill="#1c4a73"/>
    <path d="M159,249.06c.32,2.41-.44,4.66-1,6.94h-2c-1.59-2.52-1.27-4.87.63-7.09A1.84,1.84,0,0,1,159,249.06Z" transform="translate(-132.77 -129.9)" fill="#235078"/>
    <path d="M258.91,132l.09-2h1l-.17,16a.87.87,0,0,1-1.16,0,3.74,3.74,0,0,1-.56-1.19,10.48,10.48,0,0,1-.21-2c0-.66,0-1.33,0-2,0-.89,0-1.79,0-2.69,0-.46,0-.92,0-1.38a20.85,20.85,0,0,1,.05-2.11A4.43,4.43,0,0,1,258.91,132Z" transform="translate(-132.77 -129.9)" fill="#496e92"/>
    <path d="M149,249.06c-.61,2.27-1.3,4.53-1,6.94h-2v-6.94A2,2,0,0,1,149,249.06Z" transform="translate(-132.77 -129.9)" fill="#1a4872"/>
    <path d="M157,249.06c-.61,2.27-1.3,4.53-1,6.94h-2v-6.94A2,2,0,0,1,157,249.06Z" transform="translate(-132.77 -129.9)" fill="#214e77"/>
    <path d="M328.12,186c-5.84,1.8-9.62.53-11.47-5-.47-1.4-1.57-2.57-2.1-4-.87-2.22-2.58-2.29-4.49-2.12-2.69.25-1.75,2.35-1.88,3.83a22.75,22.75,0,0,0,0,4.49c.36,3.17-1.44,3.4-3.94,3.47-2.77.08-3.32-1.13-3.28-3.59.11-8.33.09-16.66,0-25,0-2.21.44-3.41,3-3.3,4.49.2,9,0,13.48.26,4.25.28,7.86,2,9,6.54,1.08,4.17.4,8.1-3.51,10.55-2.16,1.35-1.42,2.44-.52,4C324.32,179.26,326.1,182.44,328.12,186Z" transform="translate(-132.77 -129.9)" fill="#757779"/>
    <path d="M358.51,179.47c3.31,1.13,6.11.57,8.81.65s5.58.4,6.45,3.53c1,3.44.29,6.64-2.86,8.88-3.68,2.62-13,2.81-16.84.35-2-1.26-3.76-3.4-2.62-5.32,1.61-2.71.44-5.91,1.33-7.72,1.81-3.68.16-6.3-.28-9.45-.65-4.62,2.71-8.07,7.88-8.33,3.29-.17,6.53.2,9.27-2.35,1-1,3.1-1.44,4-.08s1.13,3.86-.18,5.11a4.3,4.3,0,0,0-1.49,3.78c.18,6.86-2.23,9.34-9,9.64C361.73,178.22,360.34,177.74,358.51,179.47Z" transform="translate(-132.77 -129.9)" fill="#757779"/>
    <path d="M301,214.1c0-4,.14-8,0-12-.13-2.72.62-3.85,3.57-3.83s4,.93,3.65,3.76a15.09,15.09,0,0,0,0,2c0,6.74,2.28,8.39,9,6.82a2.06,2.06,0,0,0,1.84-2.41c0-2,.15-4,0-6-.24-2.8.32-4.3,3.69-4.2,3,.09,4.08,1,4,4.05-.17,8-.18,16,0,24,.07,3.12-1,3.89-4,4-3.36.1-4-1.34-3.7-4.14.13-1.15-.13-2.35,0-3.49.71-4.47-.93-5.82-5.57-5.83s-6,1.34-5.34,5.63c.22,1.46-.1,3,.06,4.48.29,2.79-1.13,3.32-3.55,3.28-2.25,0-3.83-.16-3.68-3.13C301.16,222.76,301,218.42,301,214.1Z" transform="translate(-132.77 -129.9)" fill="#757779"/>
    <path d="M412.15,206.93a36.57,36.57,0,0,0,.2-4.46c-.25-2.87.61-4.19,3.83-4.18s3.77,1.52,3.72,4.29q-.19,11.94,0,23.88c0,2.73-.69,4.1-3.61,3.71a17.91,17.91,0,0,0-9,.54c-2.22.82-4.54-.35-6.31-2.09-4.61-4.51-4.22-17,.69-21.06C404.86,205,408.39,205.32,412.15,206.93Z" transform="translate(-132.77 -129.9)" fill="#757779"/>
    <path d="M497,206.93c0-1.86.13-3.36,0-4.83-.29-2.71.58-3.86,3.54-3.82,2.81,0,3.76.91,3.7,3.75-.16,7.81,0,15.62-.06,23.43,0,4.54-2.25,6.28-6.42,4.33-1.37-.64-1.71-.8-3-.12-4.94,2.56-9.81.54-11.45-4.74a19.67,19.67,0,0,1-.76-9.83C484.15,206.8,488.24,204.25,497,206.93Z" transform="translate(-132.77 -129.9)" fill="#757779"/>
    <path d="M531.15,218c0-3,0-6,0-9,0-1.36,0-3.15,1.88-2.78,4.24.85,8.34-.24,12.5-.34,3-.07,4.89,2,5.44,4.92,1.07,5.6.6,11.28.64,16.93,0,3-2.2,2.34-3.92,2.36s-3.81.51-3.71-2.51c.13-4,0-8,0-12,0-1.95-.19-3.86-2.73-3.9-2.71,0-2.57,2.13-2.61,3.92-.08,3.83-.15,7.66,0,11.49.12,3-1.69,3-3.85,3s-3.89-.24-3.7-3.17S531.15,221,531.15,218Z" transform="translate(-132.77 -129.9)" fill="#76787a"/>
    <path d="M479.85,220.61v1.5c0,7.36,0,7.33-7.41,7.54a14.38,14.38,0,0,0-2.84.86c-4.88,1.24-8.53-.52-9.55-4.58-1.28-5.11,1-8.79,6.26-10,1-.22,2-.32,2.94-.55,1.17-.27,3.11.12,2.67-2s-2.17-1.6-3.62-1.18c-.44.13-.73.68-1.16.9-2.52,1.27-5.53.47-6.6-1.2-1.26-2,1.23-3.82,3.09-4.92,8-4.7,16.19,0,16.22,9.12C479.86,217.61,479.85,219.11,479.85,220.61Z" transform="translate(-132.77 -129.9)" fill="#757779"/>
    <path d="M339.62,187.08c-4.6,0-8.13-1.58-9.85-5.78-2.21-5.4-2.08-10.78,1.39-15.66,2.65-3.72,6.66-4.2,10.78-3.51,4.85.82,9.24,8.26,7.87,12.83-.45,1.5-1.51,1.61-2.68,1.62-2.66,0-5.33,0-8,.07-1.13,0-3.08-.66-2.83,1.58a3.13,3.13,0,0,0,3.15,2.68c.46,0,1.22-.06,1.39-.36,1.93-3.31,4.72-2.38,7.39-1.45,1.27.44.79,1.67.39,2.55a8.55,8.55,0,0,1-7.27,5.31C340.71,187.05,340,187.06,339.62,187.08Z" transform="translate(-132.77 -129.9)" fill="#757779"/>
    <path d="M412.85,174.18c0-3,0-6,0-9,0-1.15,0-2.91,1.49-2.61,4.71,1,9.34-1,13.92-.23,3.44.58,4.57,3.69,4.68,6.86.16,4.83-.08,9.67.11,14.49.13,3.17-1.82,2.89-3.89,2.95-2.27.06-3.93-.26-3.82-3.17.14-3.66.13-7.33,0-11-.07-1.78.88-4.49-2.33-4.51s-2.79,2.68-2.83,4.77c-.06,3.5-.15,7,0,10.49.13,2.65-.92,3.47-3.48,3.45s-4.15-.4-3.92-3.52S412.85,177.18,412.85,174.18Z" transform="translate(-132.77 -129.9)" fill="#76787a"/>
    <path d="M388,174.41c0-8.31,3.56-12.42,10.75-12.46,7.37,0,11.12,4.26,11.1,12.71,0,8.26-3.61,12.35-10.85,12.4C391.48,187.11,388,183.09,388,174.41Z" transform="translate(-132.77 -129.9)" fill="#757779"/>
    <path d="M390.07,221.78c1.69.69,4.6-.27,4.83,2.34.21,2.42-1.73,4.22-3.84,5.42a10.87,10.87,0,0,1-16.07-7c-2.09-8.79,1.87-16.06,9.17-16.83,5.89-.63,9.57,1.85,11,7.62a54.92,54.92,0,0,1,.8,6.4c-3.54,1.56-7.66.49-11.62,2.39C386.69,223.76,388.25,221,390.07,221.78Z" transform="translate(-132.77 -129.9)" fill="#76787a"/>
    <path d="M329.7,217.71c.28-8.27,4.09-12.36,11.28-12.13,6.85.23,10.76,5,10.59,13-.17,8.34-4.22,12.57-11.73,12.26C332.82,230.56,329.42,226.15,329.7,217.71Z" transform="translate(-132.77 -129.9)" fill="#757779"/>
    <path d="M523.07,221.83c1.51.76,4.24-.16,4.45,2.15.18,1.93-1.42,3.63-3,4.89-5.49,4.26-14.23,1.86-16.52-4.7-1.85-5.28-1.61-10.51,2-15.08,2.65-3.35,6.36-3.89,10.36-3.21,5.73,1,7,5.36,7.86,10.13.87,3,.39,4.72-3.34,4.54-2.39-.11-4.8.61-7.85,1.47C519.61,223.3,521.23,220.47,523.07,221.83Z" transform="translate(-132.77 -129.9)" fill="#76787a"/>
    <path d="M432,230.88a11,11,0,0,1-7.06-2c-1.63-1.14-3.67-3-2.39-4.74a4.64,4.64,0,0,1,6.22-.79c.79.53,1.3,1.5,2.4,1.59,1.54.13,3.32.18,3.72-1.6s-1.4-1.9-2.63-2.28a39.39,39.39,0,0,1-6.14-1.93c-3.79-1.89-4.57-5.18-2.94-8.84s5.16-4.49,8.75-4.61,7,.66,9.15,3.94c.51.77,1.39,1.8.14,2.55a7.06,7.06,0,0,1-5.22,1c-1.06-.25-1.9-1.35-3-1.69a2.13,2.13,0,0,0-2.86,1.25c-.35,1.29,1.07,1.47,1.94,1.76,1.1.36,2.27.46,3.39.76,3.91,1,7.34,2.65,7.22,7.48-.1,4.08-3.43,7.22-8.23,8A23.18,23.18,0,0,1,432,230.88Z" transform="translate(-132.77 -129.9)" fill="#767779"/>
    <path d="M352,206.7c6-1.86,8.55.23,9.05,5.47a13.5,13.5,0,0,0,2.51,6.46,72.86,72.86,0,0,0,2.09-8.91c.54-4.8,4.06-4,6.69-3.42,3.6.73.77,3.3.42,4.68-1.36,5.31-3.33,10.46-4.79,15.74-.77,2.79-2.24,3.47-5,3.53s-4.14-1-4.89-3.65C356.16,219.93,354,213.32,352,206.7Z" transform="translate(-132.77 -129.9)" fill="#76787a"/>
    <path d="M453.86,230.86c-5.15,0-7.6-2.12-7.81-6.57-.13-2.66,0-5.34-.08-8-.09-1.76.85-3.76-2.2-4.68-1.54-.47-1.22-4.49-.28-4.72,2.67-.66,2-3.17,3.37-4.34,1.74-1.52,3.59-3.92,5.73-3.58s.86,3.15,1,4.86.89,2.31,2.5,2.34c2.37,0,1.8,1.89,1.9,3.29s-.24,2.66-2.11,2.55c-2.23-.13-2.44,1.42-2.23,3,.49,3.63-2.14,8.34,3.61,10.29.73.25,1.5,2.62,1.1,3.48C457.44,230.78,455.13,230.71,453.86,230.86Z" transform="translate(-132.77 -129.9)" fill="#76787a"/>
    <path d="M377.13,174.11c0-2.49.12-5,0-7.48-.16-2.72.3-4.34,3.67-4.36s4.3,1.18,4.16,4.4c-.23,5.48-.21,11,0,16.46.11,3.07-1.38,3.56-3.94,3.57s-4.1-.58-3.89-3.61S377.13,177.1,377.13,174.11Z" transform="translate(-132.77 -129.9)" fill="#787a7c"/>
    <path d="M381,161c-2,.05-3.9.36-4-2.82s1.51-3.4,4-3.41,4,.3,4,3.44C384.95,161.52,382.9,160.95,381,161Z" transform="translate(-132.77 -129.9)" fill="#7a7c7e"/>
    <path d="M523.07,221.83c-2-.2-2.37,2.05-3.88,2.66a2.94,2.94,0,0,1-3.54-.89,3.13,3.13,0,0,1-.73-2.22c.22-1.62,1.68-1.23,2.75-1.26a44,44,0,0,1,6.39,0c3.28.38,4.48-1,4.12-4.11C531.74,222.59,524.93,220,523.07,221.83Z" transform="translate(-132.77 -129.9)" fill="#efeff0"/>
    <path d="M390.07,221.78c-1,.83-2,1.7-3,2.48-1.3,1-2.56.49-3.64-.39a2.7,2.7,0,0,1-1.22-2.59c.45-2,2.15-1.07,3.3-1.14,3.47-.23,7-.28,10.43-.4C394.64,222.31,391.63,220,390.07,221.78Z" transform="translate(-132.77 -129.9)" fill="#f3f3f3"/>
    <path d="M259.1,146l.74-.05q0,14.5,0,29a.89.89,0,0,1-1.18-.07,4,4,0,0,1-.56-1.23,10.73,10.73,0,0,1-.22-2c0-.91,0-1.83-.06-2.74,0-.69,0-1.39,0-2.08,0-.93,0-1.87,0-2.8,0-1.17,0-2.34,0-3.51,0-.47,0-.93,0-1.4,0-.7,0-1.39,0-2.09s0-1.39,0-2.08,0-1.39,0-2.09c0-.94,0-1.88,0-2.82a11.22,11.22,0,0,1,.17-2.17A2.71,2.71,0,0,1,259.1,146Z" transform="translate(-132.77 -129.9)" fill="#5b7c9f"/>
    <path d="M259.08,175l.76-.07q0,11.51,0,23l-.64.26-.57-.4a4.26,4.26,0,0,1-.67-2c-.1-.91-.1-1.82-.12-2.73,0-.45,0-.9,0-1.35,0-.89,0-1.78,0-2.66,0-.66,0-1.32,0-2s0-1.31,0-2c0-.43,0-.87,0-1.3,0-.86,0-1.73,0-2.59,0-.43,0-.87,0-1.3s0-.88,0-1.32a9.17,9.17,0,0,1,.35-2.64A2.28,2.28,0,0,1,259.08,175Z" transform="translate(-132.77 -129.9)" fill="#718dae"/>
    <path d="M259.07,198h.76q0,5.5,0,11l-.78,0a2.66,2.66,0,0,1-.87-1.12,7.75,7.75,0,0,1-.35-2.13c-.05-1-.06-1.93-.07-2.9a17.6,17.6,0,0,1,.05-2.23A3.43,3.43,0,0,1,259.07,198Z" transform="translate(-132.77 -129.9)" fill="#7994b3"/>
    <path d="M150.94,180.69l1.05-2.56a2.05,2.05,0,0,1,1.6-1.07c5.88-.19,9-3.65,10.63-8.9,3.28-3.39,5.5-8,10.72-9.16v7c-4.57,5.83-8.78,12-15.2,16.07C156.72,182.15,153.51,183.41,150.94,180.69Z" transform="translate(-132.77 -129.9)" fill="#0b3d67"/>
    <path d="M174.95,159l-9.89,9c-2-1.46-2.55-3.53-2.38-5.89,3-2.55,6.16-4.84,8.86-7.72.86-.92,1.86-1.94,3.41-1.39Z" transform="translate(-132.77 -129.9)" fill="#063964"/>
    <path d="M161,180.71c4.52-5,8.46-10.61,14-14.7v5a33.11,33.11,0,0,1-10.55,11C163.06,182.09,161.75,182.12,161,180.71Z" transform="translate(-132.77 -129.9)" fill="#0f406a"/>
    <path d="M174.94,153c-4.34,2.59-6.41,8.2-12.06,9-1.49.27-2.09-.53-2.25-1.87,5.84-2.35,8.87-8.3,14.31-11.16Z" transform="translate(-132.77 -129.9)" fill="#033661"/>
    <path d="M165,181a64.08,64.08,0,0,1,9.94-10,.78.78,0,0,1,.17.75c.16,1.05,1,1.23,1.82,1.36-2,5.94-7.09,9.17-11.43,13.07-.28.25-.87-.29-1.15-.73A3.9,3.9,0,0,1,165,181Z" transform="translate(-132.77 -129.9)" fill="#11416c"/>
    <path d="M211,174c1.86-1.19,3.93-1,6-1a1.13,1.13,0,0,1,.05,1.3c-5.34,3.62-11,6.82-16.08,10.82-10.14,7.9-17.57,18-24.32,28.72-.48.48-1.24.67-1.5,1.4-.91.85-.2,1.82-.21,2.74-.79.67-1,1.71-1.52,2.54a11.82,11.82,0,0,0-1.59,4.05,4.94,4.94,0,0,1-.56,1.19,19.27,19.27,0,0,0-3.41,10.68,5.15,5.15,0,0,1-.52,1.34c-.46,2-.87,4-3,5a9.94,9.94,0,0,1-7.08-.26c-1.76-1.9-.42-3.16,1-4.33a26.63,26.63,0,0,1,4.13-2.35c1.65-.87,1.38-2.72,2-4.1,4-9.83,7.83-19.71,14.13-28.42,8-11,17.24-20.57,28.82-27.78A8.58,8.58,0,0,1,211,174Z" transform="translate(-132.77 -129.9)" fill="#29547b"/>
    <path d="M175.15,215.26l.85-1.33a4.73,4.73,0,0,1,2-1,17.76,17.76,0,0,1,3-.19c1,0,2,0,3,0s2,0,2.95,0,2,0,2.94,0c.74,0,1.47,0,2.21,0h11.78c.73,0,1.47,0,2.2,0h5.87c.75,0,1.49,0,2.24,0a6.55,6.55,0,0,1,3.66.87A1.05,1.05,0,0,1,218,215h-1Z" transform="translate(-132.77 -129.9)" fill="#54779a"/>
    <path d="M173,220a1.81,1.81,0,0,1,1.94-2v3L173,223l-.45-.49A3.06,3.06,0,0,1,173,220Z" transform="translate(-132.77 -129.9)" fill="#2b567e"/>
    <path d="M164,151c.74,3.41.08,5.3-4.12,4.93s-8.66,0-13-.12c-1.33,0-3.36.81-3.64-1.44-.25-2-.73-4.31,2-5.53a29.27,29.27,0,0,0,7.75-5c-2.37,0-4.73-.05-7.1,0-1.76,0-2.78-.35-2.81-2.45s.64-3,2.83-3c5,.09,10,0,15,0,1.21,0,3.06-.55,3.13,1.43.06,1.81,1.1,4-1.42,5.29s-5,2.63-7.49,4c-.11,2.4,1.7,1.15,2.66,1.32C159.85,150.84,162,150,164,151Z" transform="translate(-132.77 -129.9)" fill="#f9fafb"/>
    <path d="M160.63,160.17l2.25,1.87,2.17,6c-1.84,8.17-3.75,9.66-13.07,10.14-4.42-1-8.21-2.75-8.94-7.88-1-7.17,3.23-11.31,11.32-11.3C156.59,158.95,158.56,159.73,160.63,160.17Z" transform="translate(-132.77 -129.9)" fill="#fcfcfd"/>
    <path d="M143.11,186.79l0-4.59c6.33-1.47,12.74-.33,19.11-.65,1.31-.07,2.29.43,2.26,1.93s.57,3.39-1.44,4.32a4.7,4.7,0,0,1-2.4.51C154.78,187.73,148.89,187.87,143.11,186.79Z" transform="translate(-132.77 -129.9)" fill="#f4f6f8"/>
    <path d="M143.11,186.79c6.15.11,12.29.19,18.44.37,1.9.05,2.74-.6,2.61-2.57-.1-1.54.08-3.1-2.21-3-6.29.3-12.62-.64-18.88.6,2.19-2.78,5.32-.58,7.86-1.5h10l4,.29.11,4.94c.74,1.5,0,2.34-1.28,3-3.38.64-6.76,1.26-9.93-.77L143,188Z" transform="translate(-132.77 -129.9)" fill="#245177"/>
    <path d="M164,151c-3,0-6,0-8.93-.1-.61,0-1.93.37-1.16-1.1.18-.34.82-.44,1.24-.65C157.77,151.33,161.46,148.41,164,151Z" transform="translate(-132.77 -129.9)" fill="#708ca5"/>
    <path d="M258.94,208l.12,1q-.06,2-.11,4c-12.59.35-28.62,6.45-40.88,27v-9c6.46-12.1,17.33-18.36,29.88-22.14C251.4,207.79,255.1,205.77,258.94,208Z" transform="translate(-132.77 -129.9)" fill="#54779a"/>
    <path d="M259.07,198l-.13,3a6.5,6.5,0,0,1-3.94,2c-12.66,1.56-23.44,7.14-33,15.33-1.11.95-2.14,2.2-3.91,1.65q0-2,0-4c1.89-4.35,5.72-6.7,9.45-9.17,8.15-5.39,17.22-8.26,26.76-9.84,1.66-.27,3.31-.24,4.64,1.07Z" transform="translate(-132.77 -129.9)" fill="#4c7094"/>
    <path d="M258.94,203v3c-1.58,1.52-3.77,1.27-5.63,1.59a54.17,54.17,0,0,0-30.44,16.46c-1.28,1.33-2.27,3.47-4.79,2.91v-4c7.33-10.14,17.68-15.67,29.41-18.86C251.16,203.1,254.94,201.41,258.94,203Z" transform="translate(-132.77 -129.9)" fill="#507397"/>
    <path d="M218.07,227c6.82-6.27,13.29-13,22.15-16.59,6-2.42,12.14-4.37,18.71-4.38q0,1,0,2c-16.25,1.57-29.51,8.56-39.36,21.73a8.07,8.07,0,0,1-1.51,1.24Q218.07,229,218.07,227Z" transform="translate(-132.77 -129.9)" fill="#527598"/>
    <path d="M258.94,203c-13.49,1-25.4,5.67-35.38,14.94-1.82,1.69-3.66,3.36-5.49,5q0-1.5,0-3c11.59-10.71,25-17.45,40.87-19Q258.94,202,258.94,203Z" transform="translate(-132.77 -129.9)" fill="#4e7195"/>
    <path d="M258.93,198c-14.36.83-27.09,5.66-37.83,15.38-1,.89-2,1.71-3,2.56q0-.48-.07-1t0-1c-.54-1.82.75-2.78,1.88-3.72,10.38-8.71,22.45-13.48,35.81-15.19a3.78,3.78,0,0,1,3.25.9Z" transform="translate(-132.77 -129.9)" fill="#496e92"/>
    <path d="M149,227.18l-5.9-.4c0-4,.29-7.94,0-11.88-.27-3.25,1.24-4,3.94-4,3.62.85,1.41,4.17,2.61,6.08.41-1.85.24-4,2.54-4.88a4.71,4.71,0,0,1,3.63.3c1.62,1.18,1.22,3.1,1.7,4.83.75-2.57-.64-5.88,2.91-7.17a5.53,5.53,0,0,1,2.39,0,3.82,3.82,0,0,1,1.51.77,4.54,4.54,0,0,1,.79,1.56c.08,5,1.34,10-.89,14.9-2.21,1.48-4.69,1.18-7.14,1.14C154.31,228.35,151.46,229,149,227.18Z" transform="translate(-132.77 -129.9)" fill="#f7f9fa"/>
    <path d="M144,205.32c-1.78-1.85-.49-4.26-1.17-6.32.16-1.82.22-3.71,1.32-5.23.89-1.23,1.88-3.29,3.72-2.09a3.91,3.91,0,0,1,1.24,4.74c-2.07,5.57-1.63,6.3,3.89,6.51,1.28-1.35,3.58-.79,4.66-2.29,1.21-1.68.73-2.42-1.35-1.57-2.35,1-3.81.53-3.78-2.36.06-5.58-.6-6.8,4.55-7a8.52,8.52,0,0,1,2.34.36,11.18,11.18,0,0,1,3.92,2.28,7.15,7.15,0,0,1,1.62,2.44,18.16,18.16,0,0,1,1,3.47,10.48,10.48,0,0,1-.67,5.06,9.89,9.89,0,0,1-2.88,4.34,11,11,0,0,1-4.78,2.39,25.25,25.25,0,0,1-4.72.25c-1.91-.11-3.85-.13-5-2.09Z" transform="translate(-132.77 -129.9)" fill="#f7f8fa"/>
    <path d="M148,208.22l5,1c1.27,1.68,0,2.68-1,3.76-2,1.89-.62,4.31-1,6.46-.15.83-.19,1.59-1.28,1.69-1.32.13-1.55-.62-1.72-1.73-.43-2.8,1.13-5.83-1-8.42Z" transform="translate(-132.77 -129.9)" fill="#14446e"/>
    <path d="M157,197c2-1.19,2.47.54,2.84,1.73a3,3,0,0,1-1.71,3.63,7.09,7.09,0,0,1-5.14.58l.84-2.67C155.18,199.45,156.72,198.83,157,197Z" transform="translate(-132.77 -129.9)" fill="#1e4c73"/>
    <path d="M159.83,191.06l-1.87-.31c-1.58-.84-3.58.55-5-1l1-1.67,10.06-.07C164,191,162.53,191.88,159.83,191.06Z" transform="translate(-132.77 -129.9)" fill="#12426c"/>
    <path d="M152.94,189.8c1.66.39,3.56-.44,5,1-5-1.14-5.95,1.5-5.39,5.64.15,1.09-.25,2.4,1.26,2.87,2.06.65,2.42-1.08,3.15-2.28.37,2.47-1.13,3.13-3.16,3.27C150.32,197,151.7,193.42,152.94,189.8Z" transform="translate(-132.77 -129.9)" fill="#245177"/>
    <path d="M258.91,132v3c-2.65,2.22-6,1.66-9,2a128.55,128.55,0,0,0-27,6c-1.5.52-3.14,1.27-4.71,0q0-2,0-4c9.46-2.18,18.73-5.1,28.41-6.45C250.7,132,254.79,132.3,258.91,132Z" transform="translate(-132.77 -129.9)" fill="#0f406a"/>
    <path d="M163.73,236.93c-2.48,1.33-6.34.84-6.61,5.05.83.7,1.83.49,2.78.52,5.57.19,5.84.62,3.91,6.4l.07,0-4.88.17H146c-.64-.13-1.68-.08-1.85-.43-2.07-4.45-.81-9.18-.8-13.77,0-2.22,2.16-3.71,4.66-3.9,2.31-1.63,4.28-.49,6.23.77s3.37,0,5-.75,3-2.21,4.92-.95C164.6,232.37,165,234.7,163.73,236.93Z" transform="translate(-132.77 -129.9)" fill="#fcfcfd"/>
    <path d="M154.12,232.94a10.1,10.1,0,0,0-6.12-2,6.24,6.24,0,0,0,1-3.78h8C157.92,230,157.71,232.33,154.12,232.94Z" transform="translate(-132.77 -129.9)" fill="#184770"/>
    <path d="M154.12,232.94c2.28-1.26,2.13-3.73,2.86-5.77l7-.18c1.12-2.08.26-4.32.57-6.47,3.46-10.37,9.55-19.17,16.34-27.56a102.9,102.9,0,0,1,14.34-14.32,29.9,29.9,0,0,1,8.72-5.55h6c.39,1.36-.76,1.62-1.54,2.13-19.78,12.87-34,30.21-41.89,52.52a5.06,5.06,0,0,1-.81,1.25c-.72.84-1.77.57-2.67.81C160.11,231,158.26,235.22,154.12,232.94Z" transform="translate(-132.77 -129.9)" fill="#255179"/>
    <path d="M203.94,173.1c-3.51,3-7,6-10.53,9-11.53,9.62-20,21.52-26.46,35A27.13,27.13,0,0,1,165.1,220c-1.24-2.21-.29-4.61-.58-6.9,2-8.13,7.4-14.35,12.5-20.55,6.07-7.37,12.4-14.64,20.94-19.43Z" transform="translate(-132.77 -129.9)" fill="#214e77"/>
    <path d="M217,174q0-.49,0-1a2.39,2.39,0,0,0,1.09-2.08c3.09-4.51,8.26-5.43,12.88-6.61,7.59-1.94,15.17-4.24,23.1-4.58,1.63-.07,3.28-.55,4.86.26v4a4.85,4.85,0,0,1-3.75,2.15c-5.5-.09-10.72,1.87-16.15,2.21-4.33-.34-8.12,1.46-12,3a11.91,11.91,0,0,1-1.34.56C222.71,172.23,220.43,175.56,217,174Z" transform="translate(-132.77 -129.9)" fill="#2a547c"/>
    <path d="M165,229c8.49-23.86,23.55-42.42,44.95-55.9L211,174c-7.23,6-15.28,11-21.68,18-9.33,10.35-17,21.61-21.48,34.88-.61,1.79-.58,4.07-2.76,5.06A2.26,2.26,0,0,1,165,229Z" transform="translate(-132.77 -129.9)" fill="#27537b"/>
    <path d="M163.88,211.1h-.46l-.42-.17c-1.84-3.33,2.2-5.11,2.1-8,5.93-12.27,14.26-22.47,25.85-29.84h4c.5,1.39-.38,2.16-1.29,2.93-11.18,9.41-20.65,20.23-27.59,33.16A3.38,3.38,0,0,1,163.88,211.1Z" transform="translate(-132.77 -129.9)" fill="#1e4b75"/>
    <path d="M258.93,150v3c-2.92,2.34-6.43,1-9.64,1.52-9,1.59-17.9,3.5-26.4,6.95-1.54.62-3.09,1.29-4.79.49v-3c.83-1.87,2.64-2.44,4.3-3.13,9.59-3.92,19.68-5.77,29.88-7.08C254.53,148.45,257,148.23,258.93,150Z" transform="translate(-132.77 -129.9)" fill="#204d76"/>
    <path d="M259.1,146l-.17,2c-4.86,1.87-10.1,1.25-15.09,2.34-7.78,1.71-15.57,3.36-22.92,6.57-.88.38-1.84.87-2.8.07v-3c3.84-4.17,9.33-4.66,14.29-6.14,7.26-2.16,14.8-3,22.32-3.86a4.87,4.87,0,0,1,4.16,1Z" transform="translate(-132.77 -129.9)" fill="#1c4a73"/>
    <path d="M191,173.11c-7.17,6.42-14,13.12-19.57,21-2,2.83-4.39,5.41-5.38,8.84a1.16,1.16,0,0,1-1.82,0l.81-5c.37-3.61,3.24-5.82,5.25-8.27,5-6.08,8.69-13.57,16.71-16.62Z" transform="translate(-132.77 -129.9)" fill="#1c4a73"/>
    <path d="M218.13,143c13.23-4.5,26.71-7.71,40.77-8q0,1,0,2c-4.91,3.8-11,1.6-16.4,3.23-2.19.66-4.55.87-6.72,1.74a12.69,12.69,0,0,1-4.7,1.33c-2.64-.08-5,1-7.48,1.69-1.79.53-3.65,1.58-5.47,0Z" transform="translate(-132.77 -129.9)" fill="#12426c"/>
    <path d="M231,142a6.72,6.72,0,0,0,4-1,112,112,0,0,1,23.9-3v3c-3.49,2.64-7.7,1.21-11.54,1.92a171.5,171.5,0,0,0-24,5.88c-1.67.57-3.41,1.49-5.18.19v-2C221.89,143.92,226.73,143.69,231,142Z" transform="translate(-132.77 -129.9)" fill="#14446e"/>
    <path d="M258.92,155v2c-3.85,2.25-8.22,1.9-12.41,2.56a113.39,113.39,0,0,0-22.75,6.56c-1.82.7-3.6,1.79-5.67.84v-3c6.44-4.43,14-5.93,21.35-7.73A62.43,62.43,0,0,1,253.67,154C255.46,154,257.37,153.6,258.92,155Z" transform="translate(-132.77 -129.9)" fill="#235078"/>
    <path d="M258.89,145c-14,1-27.7,3.64-40.77,9q0-1.49,0-3c8.7-4.56,18.18-6.5,27.75-7.9,4.27-.62,8.67-2.51,13-.1Z" transform="translate(-132.77 -129.9)" fill="#184771"/>
    <path d="M258.92,155c-12.38,0-24.15,3-35.63,7.37-1.69.64-3.46,1.09-5.19,1.62q0-1,0-2c13.09-5.37,26.47-9.4,40.83-9Q258.92,154,258.92,155Z" transform="translate(-132.77 -129.9)" fill="#214e77"/>
    <path d="M258.89,143a113.3,113.3,0,0,0-34.55,6.35c-2,.69-4,1.73-6.22,1.64q0-1,0-2c13.29-4.19,26.56-8.48,40.77-8Q258.89,142,258.89,143Z" transform="translate(-132.77 -129.9)" fill="#17466f"/>
    <path d="M163.88,211.1a132.55,132.55,0,0,1,21.75-29.25c3-3,7.07-4.93,9.33-8.75h3c-2.1,3.56-5.86,5.34-8.76,8-9.7,9-17.38,19.56-24.13,30.86-.59-.05-.75-.71-1.23-.9Z" transform="translate(-132.77 -129.9)" fill="#204d76"/>
    <path d="M258.92,160a29.7,29.7,0,0,1-3.77,1c-12.83,1.58-25.44,3.94-37.07,10q0-1,0-2c4-3.78,9.41-4.53,14.3-6.36,7.18-2.69,14.77-3.52,22.3-4.52,1.46-.19,3-.24,4.23.92Z" transform="translate(-132.77 -129.9)" fill="#27527b"/>
    <path d="M186.94,173.11c-9,6.78-14.53,16.69-22,24.89l-.84-3a57.92,57.92,0,0,1,18.8-21.85Z" transform="translate(-132.77 -129.9)" fill="#184771"/>
    <path d="M159.83,191.06c2-.11,3.24-1.34,4.13-3a2.46,2.46,0,0,0,1.15-2.12l11.82-12.81h4c.43,1.67-1,2.35-1.86,3.22a105.42,105.42,0,0,0-13.05,15c-.7,1-1.41,2.42-3.15,1.71Z" transform="translate(-132.77 -129.9)" fill="#16456e"/>
    <path d="M258.92,159c-14.42,0-27.86,4-40.83,10q0-1,0-2c13.06-5.57,26.53-9.47,40.83-10Q258.92,158,258.92,159Z" transform="translate(-132.77 -129.9)" fill="#26517a"/>
    <path d="M218.12,157c13.14-5.11,26.63-8.62,40.81-9q0,1,0,2c-14.27-.06-27.75,3.54-40.82,8.95Q218.12,158,218.12,157Z" transform="translate(-132.77 -129.9)" fill="#1c4a73"/>
    <path d="M162.89,193,181,173.12h2A254.61,254.61,0,0,0,164.15,195Z" transform="translate(-132.77 -129.9)" fill="#16456f"/>
    <path d="M231,142c-4,2.53-8.74,2.91-12.87,5q0-1,0-2C222.62,144.84,226.4,141.65,231,142Z" transform="translate(-132.77 -129.9)" fill="#13436d"/>
    <path d="M167,237a21.85,21.85,0,0,1,4-12,2.37,2.37,0,0,1,0,3,9.43,9.43,0,0,0-2,6C167.71,234.58,169.62,237.3,167,237Z" transform="translate(-132.77 -129.9)" fill="#29547c"/>
    <path d="M167,237l2-3a15.07,15.07,0,0,1-2,8h0a5.75,5.75,0,0,1,0-5Z" transform="translate(-132.77 -129.9)" fill="#2b567e"/>
    <path d="M171,228q0-1.5,0-3h0c.9-.43,0-2.63,2-2h0A5.77,5.77,0,0,1,171,228Z" transform="translate(-132.77 -129.9)" fill="#2b567e"/>
    <path d="M163.81,248.91c2.79-7.15-3.73-5.32-6.68-6.93l7.88,0a6.23,6.23,0,0,1,.09,4.93C165,247.81,164.84,248.65,163.81,248.91Z" transform="translate(-132.77 -129.9)" fill="#375f84"/>
    <path d="M165.09,246.94,165,242c1.26-1.43.41-3.71,2-5v5C165.11,243.16,166.87,245.73,165.09,246.94Z" transform="translate(-132.77 -129.9)" fill="#29547c"/>
    <path d="M258.9,138,235,141c3.55-2.41,7.83-2.25,11.74-2.74s8.1-.93,12.16-1.26Q258.9,137.5,258.9,138Z" transform="translate(-132.77 -129.9)" fill="#13436d"/>
    <path d="M311.57,160.91c3.76.19,7.17-.33,7.33,3.69.18,4.28-3.27,4-6.28,4.31-3.24.29-4.62-.56-4.63-4.23S309.83,160.69,311.57,160.91Z" transform="translate(-132.77 -129.9)" fill="#f9fafa"/>
    <path d="M362.88,186c1.37.22,3.6-.47,3.53,1.61-.07,1.92-2.21,2.24-3.91,2.24s-3.93-.16-3.73-2.27S361.37,186.3,362.88,186Z" transform="translate(-132.77 -129.9)" fill="#ebebec"/>
    <path d="M364.93,170.65c-.29,1.76-1.27,2.62-3,2.44s-2-1.36-2-2.78a2.16,2.16,0,0,1,2.39-2.41C364.11,167.91,364.84,169,364.93,170.65Z" transform="translate(-132.77 -129.9)" fill="#f8f9f9"/>
    <path d="M412.45,218.43a23.48,23.48,0,0,1-.61,3.67c-.46,1.44-1.28,2.82-3.06,2.8s-2.52-1.22-3-2.81a13,13,0,0,1-.11-7.33c.5-1.69,1.2-3.34,3.15-3.29,2.19.05,2.94,1.84,3.23,3.77C412.24,216.21,412.31,217.21,412.45,218.43Z" transform="translate(-132.77 -129.9)" fill="#fafafa"/>
    <path d="M489.8,218.28c.39-2.58-.48-6.61,3.27-6.71,4-.11,3.62,3.93,3.77,6.86a9,9,0,0,1-.32,2.94c-.52,1.76-1.11,3.76-3.5,3.48-2.18-.26-2.82-2.06-3-4C489.89,220,489.87,219.21,489.8,218.28Z" transform="translate(-132.77 -129.9)" fill="#fafafa"/>
    <path d="M470.45,220.17c1.78,0,1.67,1.27,1.73,2.41.1,1.79-.82,2.84-2.54,2.86-1.41,0-2.6-.7-2.46-2.37C467.35,221.1,468.82,220.45,470.45,220.17Z" transform="translate(-132.77 -129.9)" fill="#eeefef"/>
    <path d="M339,172c-1.13-.41-2.88.49-2.64-1.47a2.66,2.66,0,0,1,3.06-2.49,2.38,2.38,0,0,1,2.45,2.52C341.75,172.67,339.82,171.39,339,172Z" transform="translate(-132.77 -129.9)" fill="#f5f5f5"/>
    <path d="M402.22,174.3c-.27,2.83.59,6.41-3.22,6.48-4,.07-3.67-3.82-3.68-6.41s-.22-6.14,3.42-6.19C403,168.12,401.79,172,402.22,174.3Z" transform="translate(-132.77 -129.9)" fill="#fafafa"/>
    <path d="M385.38,211.84c1.47.12,2.61.84,2.58,2.36,0,2-1.78,1.52-3,1.5s-3,.2-2.57-1.87A2.53,2.53,0,0,1,385.38,211.84Z" transform="translate(-132.77 -129.9)" fill="#e8e8e8"/>
    <path d="M344.06,218.3c-.25,2.68.1,6.25-3.41,6.22-3.72,0-3.67-3.66-3.61-6.48.06-2.56-.33-6,3.42-6C344.65,212,343.69,215.74,344.06,218.3Z" transform="translate(-132.77 -129.9)" fill="#fbfbfb"/>
    <path d="M520.42,214.08c.14,1.54-1.12,1.58-2.24,1.55s-2.91.54-3.15-1.3c-.2-1.51,1-2.31,2.45-2.44A2.57,2.57,0,0,1,520.42,214.08Z" transform="translate(-132.77 -129.9)" fill="#f5f5f5"/>
    <path d="M187,213.89h-3c-1.6-2.9.68-4.78,2.05-6.62,15.79-21.18,36.45-34.54,62.79-38.5,3.3-.5,6.78-2.37,10.07.22v3c-2.86,2.16-6.39,1.48-9.57,2q-36.09,6-57.94,35.2A22.84,22.84,0,0,1,187,213.89Z" transform="translate(-132.77 -129.9)" fill="#315b82"/>
    <path d="M238,167l20.91-3q0,1.5,0,3c-6.46,2-13.26,2.09-19.8,3.82-22.43,5.93-39.93,18.71-53.49,37.29-1.45,2-2.43,4.38-4.62,5.8h-3c-.78-3.11,1.76-4.82,3.11-6.93a94.8,94.8,0,0,1,30.91-29.61c4.36-2.66,9.36-4.1,13.95-6.37C229.91,169.41,234,168.22,238,167Z" transform="translate(-132.77 -129.9)" fill="#2d577e"/>
    <path d="M181,213.9c7.31-13.79,18.17-24.29,31.16-32.51,14.2-9,29.72-14.31,46.75-14.39q0,1,0,2c-19.73,1-37.5,7.32-53.1,19.63A101.38,101.38,0,0,0,186,209.43a9.48,9.48,0,0,0-2,4.46Z" transform="translate(-132.77 -129.9)" fill="#2e5880"/>
    <path d="M187,213.89c4.52-8.67,11.36-15.41,18.64-21.64,13.34-11.4,29.16-17.34,46.3-20a54.29,54.29,0,0,1,7-.22q0,1,0,2c-4,2.42-8.62,2.11-13,3-21.62,4.37-39,15.43-52.29,32.89a20.19,20.19,0,0,1-3.66,4Z" transform="translate(-132.77 -129.9)" fill="#335c83"/>
    <path d="M190,213.89c4.35-9.09,11.6-15.61,19.32-21.66,14.55-11.4,31.25-17.08,49.59-18.24l.17,1q-.06.48-.12,1c-1.47,1.55-3.4,2-5.42,2.19-22.71,2.51-41.28,12.65-55.86,30.24-1.67,2-3,4.44-5.66,5.48Z" transform="translate(-132.77 -129.9)" fill="#365e84"/>
    <path d="M201,213.91h-3c-.69-1.87.36-3.23,1.43-4.49q21.44-25.28,54.32-29.53c1.82-.23,3.68-.31,5.18,1.11v3c-2.86,2.19-6.4,1.36-9.59,2-15.81,3.41-29.88,9.89-41.06,21.93C206.15,210.27,204,212.66,201,213.91Z" transform="translate(-132.77 -129.9)" fill="#3c6389"/>
    <path d="M192,213.9c13.79-20.42,33.22-32.09,57.14-36.73,3.22-.63,6.53-.8,9.79-1.18q0,1.5,0,3c-4.25,1.75-9,1-13.27,2.51-1.34.87-2.92.93-4.39,1.34a27.34,27.34,0,0,0-9,2.74c-11.77,4.16-21.29,11.61-29.82,20.48-2.5,2.6-4.42,5.74-7.45,7.83Z" transform="translate(-132.77 -129.9)" fill="#375f86"/>
    <path d="M241,182a6.72,6.72,0,0,0,4-1c4.63-.58,9.17-2.49,13.94-1a4.19,4.19,0,0,1,0,1c-19.32,1-36.42,7.52-50.44,21.1-3.77,3.65-8.18,6.82-10.48,11.81h-3c9.25-13.58,21.23-23.64,37-28.9A79.29,79.29,0,0,1,241,182Z" transform="translate(-132.77 -129.9)" fill="#396187"/>
    <path d="M258.93,196c-15.54,1.68-29.69,6.55-40.93,18l-4-.09c-.52-2.23,1.12-3.39,2.46-4.53a71,71,0,0,1,39.67-17.15,3.32,3.32,0,0,1,2.78.75Z" transform="translate(-132.77 -129.9)" fill="#476c91"/>
    <path d="M209,213.91h-3c-.81-3,1.39-4.63,3.15-6.28A79.27,79.27,0,0,1,254.74,186c1.53-.19,3-.2,4.2,1v2a7.64,7.64,0,0,1-4.93,2.15c-15.72,2-29.42,8.14-40.5,19.65A16.73,16.73,0,0,1,209,213.91Z" transform="translate(-132.77 -129.9)" fill="#41678d"/>
    <path d="M209,213.91c11.63-14,26.62-21.74,44.59-23.94,1.79-.22,3.55-.64,5.33-1q0,1.5,0,3c-4.89,1.38-10,1.56-14.93,2.9-12.47,3.38-22.67,10.4-32,19Z" transform="translate(-132.77 -129.9)" fill="#44698f"/>
    <path d="M258.94,187c-16,1.23-30.6,6.31-43.07,16.69-3.64,3-8,5.46-9.84,10.23h-2c-.87-1-.39-1.84.31-2.61C219,195.13,236.8,185.59,258.94,185Z" transform="translate(-132.77 -129.9)" fill="#3f668b"/>
    <path d="M258.94,185c-9.45,1.38-18.9,2.91-27.61,7.07-10.78,5.15-20.76,11.38-27.33,21.83h-3c13.28-16.62,30.62-26.27,51.48-29.78a43,43,0,0,1,6.44-.14Q258.94,184.5,258.94,185Z" transform="translate(-132.77 -129.9)" fill="#3f658b"/>
    <path d="M212,213.91c12.45-14.14,28.22-21.15,46.91-21.92q0,.5,0,1c-14.8,1.69-28.41,6.33-40,16a22.76,22.76,0,0,0-4.88,4.91Z" transform="translate(-132.77 -129.9)" fill="#456a8f"/>
    <path d="M258.94,180c-4.72-.68-9.25,1.35-13.94,1,4.42-2.22,9.2-2,13.94-2Q258.94,179.5,258.94,180Z" transform="translate(-132.77 -129.9)" fill="#396187"/>
    <path d="M226,171c-7.29,4.83-15.49,8-22.48,13.55A103.58,103.58,0,0,0,178,213.9l-2,0c4.72-10.43,11.93-19,20.42-26.46,6.17-5.4,12.5-10.86,20.58-13.47C220.24,173.72,222.56,170.68,226,171Z" transform="translate(-132.77 -129.9)" fill="#2a557d"/>
    <path d="M165,229q0,1.5.09,3c-.45,1.65.78,3.75-1.35,4.94.31-2.43,1.41-4.94-.71-7.13Z" transform="translate(-132.77 -129.9)" fill="#29547c"/>
    <path d="M173,223l-2,2a5.77,5.77,0,0,1,2-5Z" transform="translate(-132.77 -129.9)" fill="#29547c"/>
    <path d="M153,172.16c-2.64-.08-5.31-.6-5-3.91.29-3.64,3.43-3.35,6.06-3.41s4.93,1,4.81,3.66C158.71,171.79,155.86,172.28,153,172.16Z" transform="translate(-132.77 -129.9)" fill="#053863"/>
    <path d="M158,209l4-2.17c1.35,1.74.59,3-.95,4.07-3.06,1.58-1,4.4-1.56,6.58-.37,1.39.75,3.69-2,3.54-2.41-.13-1.38-2.15-1.54-3.42-.19-1.46-.15-3-.21-4.43A5.83,5.83,0,0,1,158,209Z" transform="translate(-132.77 -129.9)" fill="#1c4a73"/>
    <path d="M158,209a5.26,5.26,0,0,1-2.33,4.16l-3.67-.26,1-3.76Z" transform="translate(-132.77 -129.9)" fill="#16456f"/>
    <path d="M161,210.93a6.19,6.19,0,0,0,.95-4.07l2.22-3.87H166l-3,7.93Z" transform="translate(-132.77 -129.9)" fill="#1d4b73"/>
    <path d="M163.84,211.09l1.23.9q0,4,0,8c-.58,2.31.9,4.94-1.13,7A97.39,97.39,0,0,0,163.84,211.09Z" transform="translate(-132.77 -129.9)" fill="#27537b"/>
    <path d="M148.26,242c-.28-2.14-1.29-4.79,2.74-3.86C151.4,240.35,152.83,243.3,148.26,242Z" transform="translate(-132.77 -129.9)" fill="#1c4a73"/>
    <path d="M148.26,242c3.06.24,2.76-1.91,2.74-3.86,2,1,1.46,2.91.73,4A2.05,2.05,0,0,1,148.26,242Z" transform="translate(-132.77 -129.9)" fill="#1e4b74"/>
    <path d="M238,167a34.77,34.77,0,0,1-12,4A21.84,21.84,0,0,1,238,167Z" transform="translate(-132.77 -129.9)" fill="#2a557d"/>
    <path d="M241,182a20,20,0,0,1-9,3A12.87,12.87,0,0,1,241,182Z" transform="translate(-132.77 -129.9)" fill="#396187"/>
  </g>
</svg>
