<svg id="Layer_1" data-name="Layer 1" xmlns="http://www.w3.org/2000/svg" width="6120" height="309" viewBox="0 0 6120 309">
  <title>star18-25-01</title>
  <polygon points="230.71 212.42 238.93 180.25 259.46 206.34 292.6 204.21 274.13 231.81 286.39 262.66 254.44 253.63 228.88 274.82 227.6 241.64 199.55 223.89 230.71 212.42" fill="#675373" opacity="0.75"/>
  <text transform="translate(225.89 235.31) rotate(-10.71)" opacity="0.75" font-size="20" fill="#fff" font-family="TimesNewRomanPS-BoldMT, Times New Roman" font-weight="700">18-25</text>
  <polygon points="576.91 186.74 581.78 153.9 604.88 177.75 637.63 172.24 622.09 201.58 637.44 231.01 604.74 225.3 581.49 249 576.81 216.13 547.09 201.34 576.91 186.74" fill="#675373" opacity="0.75"/>
  <text transform="translate(574.46 210.01) rotate(-16.59)" opacity="0.75" font-size="20" fill="#fff" font-family="TimesNewRomanPS-BoldMT, Times New Roman" font-weight="700">18-25</text>
  <polygon points="929.81 158.34 939.62 126.62 958.83 153.7 992.03 153.23 972.21 179.87 982.92 211.3 951.46 200.68 924.88 220.57 925.26 187.37 898.12 168.24 929.81 158.34" fill="#675373" opacity="0.75"/>
  <text transform="matrix(0.99, -0.14, 0.14, 0.99, 923.86, 180.96)" opacity="0.75" font-size="20" fill="#fff" font-family="TimesNewRomanPS-BoldMT, Times New Roman" font-weight="700">18-25</text>
  <polygon points="1284.52 130.22 1299.24 100.46 1313.91 130.25 1346.76 135.06 1322.96 158.21 1328.54 190.94 1299.17 175.46 1269.77 190.89 1275.41 158.16 1251.65 134.97 1284.52 130.22" fill="#675373" opacity="0.75"/>
  <text transform="translate(1275.05 151.62) rotate(1.28)" opacity="0.75" font-size="20" fill="#fff" font-family="TimesNewRomanPS-BoldMT, Times New Roman" font-weight="700">18-25</text>
  <polygon points="1612.24 140.92 1622.24 109.26 1641.29 136.45 1674.49 136.18 1654.51 162.7 1665.04 194.19 1633.64 183.38 1606.94 203.12 1607.51 169.93 1580.49 150.63 1612.24 140.92" fill="#675373" opacity="0.75"/>
  <text transform="matrix(0.99, -0.13, 0.13, 0.99, 1606.16, 163.51)" opacity="0.75" font-size="20" fill="#fff" font-family="TimesNewRomanPSMT, Times New Roman">18-25</text>
  <polygon points="1942.07 150.54 1957.68 121.24 1971.44 151.45 2004.13 157.25 1979.65 179.67 1984.24 212.56 1955.35 196.2 1925.49 210.73 1932.12 178.19 1909.07 154.29 1942.07 150.54" fill="#675373" opacity="0.75"/>
  <text transform="translate(1931.96 171.64) rotate(3.01)" opacity="0.75" font-size="20" fill="#fff" font-family="TimesNewRomanPS-BoldMT, Times New Roman" font-weight="700">18-25</text>
  <polygon points="2274.45 161.78 2294.06 134.99 2303.4 166.86 2334.94 177.23 2307.51 195.96 2307.39 229.16 2281.11 208.87 2249.5 219.01 2260.68 187.74 2241.26 160.81 2274.45 161.78" fill="#675373" opacity="0.75"/>
  <text transform="matrix(0.98, 0.19, -0.19, 0.98, 2261.45, 181.23)" opacity="0.75" font-size="20" fill="#fff" font-family="TimesNewRomanPS-BoldMT, Times New Roman" font-weight="700">18-25</text>
  <polygon points="2611.81 175.36 2633.92 150.59 2640.13 183.21 2670.53 196.58 2641.42 212.57 2638.1 245.6 2613.9 222.87 2581.45 229.91 2595.6 199.87 2578.87 171.19 2611.81 175.36" fill="#675373" opacity="0.75"/>
  <text transform="translate(2596.99 193.46) rotate(16.71)" opacity="0.75" font-size="20" fill="#fff" font-family="TimesNewRomanPS-BoldMT, Times New Roman" font-weight="700">18-25</text>
  <polygon points="2948.37 191.09 2956.59 158.91 2977.13 185.01 3010.26 182.88 2991.8 210.47 3004.06 241.33 2972.11 232.29 2946.55 253.49 2945.27 220.31 2917.21 202.55 2948.37 191.09" fill="#675373" opacity="0.75"/>
  <text transform="translate(2943.56 213.98) rotate(-10.71)" opacity="0.75" font-size="20" fill="#fff" font-family="TimesNewRomanPS-BoldMT, Times New Roman" font-weight="700">18-25</text>
  <polygon points="3290.86 196.44 3305.04 166.42 3320.24 195.94 3353.18 200.15 3329.8 223.73 3335.98 256.35 3306.33 241.41 3277.21 257.36 3282.26 224.54 3258.09 201.78 3290.86 196.44" fill="#675373" opacity="0.75"/>
  <text transform="translate(3281.78 218) rotate(0.24)" opacity="0.75" font-size="20" fill="#fff" font-family="TimesNewRomanPS-BoldMT, Times New Roman" font-weight="700">18-25</text>
  <polygon points="3634.12 194.59 3653.29 167.48 3663.15 199.19 3694.86 209.04 3667.75 228.22 3668.18 261.42 3641.56 241.56 3610.12 252.22 3620.78 220.78 3600.92 194.17 3634.12 194.59" fill="#675373" opacity="0.75"/>
  <text transform="translate(3621.44 214.26) rotate(10.22)" opacity="0.75" font-size="20" fill="#fff" font-family="TimesNewRomanPS-BoldMT, Times New Roman" font-weight="700">18-25</text>
  <polygon points="3972.4 195.02 3997.49 173.28 3999.49 206.42 4027.92 223.57 3997.02 235.71 3989.5 268.05 3968.41 242.41 3935.32 245.25 3953.19 217.26 3940.26 186.68 3972.4 195.02" fill="#675373" opacity="0.75"/>
  <text transform="translate(3955.39 211.09) rotate(24.05)" opacity="0.75" font-size="20" fill="#fff" font-family="TimesNewRomanPS-BoldMT, Times New Roman" font-weight="700">18-25</text>
  <polygon points="4300.48 204.41 4311.6 173.13 4329.67 200.98 4362.86 201.88 4341.96 227.68 4351.35 259.52 4320.36 247.61 4292.98 266.39 4294.73 233.24 4268.41 213 4300.48 204.41" fill="#675373" opacity="0.75"/>
  <text transform="translate(4293.6 226.78) rotate(-5.49)" opacity="0.75" font-size="20" fill="#fff" font-family="TimesNewRomanPS-BoldMT, Times New Roman" font-weight="700">18-25</text>
  <polygon points="4637.82 208.33 4647.65 176.62 4666.85 203.71 4700.05 203.25 4680.21 229.88 4690.9 261.32 4659.45 250.68 4632.85 270.56 4633.25 237.36 4606.12 218.21 4637.82 208.33" fill="#675373" opacity="0.75"/>
  <text transform="translate(4631.86 230.95) rotate(-7.82)" opacity="0.75" font-size="20" fill="#fff" font-family="TimesNewRomanPS-BoldMT, Times New Roman" font-weight="700">18-25</text>
  <polygon points="4974.92 212.05 4979.83 179.22 5002.91 203.09 5035.66 197.62 5020.08 226.94 5035.41 256.39 5002.71 250.64 4979.43 274.32 4974.8 241.44 4945.08 226.62 4974.92 212.05" fill="#675373" opacity="0.75"/>
  <text transform="translate(4972.45 235.32) rotate(-16.53)" opacity="0.75" font-size="20" fill="#fff" font-family="TimesNewRomanPS-BoldMT, Times New Roman" font-weight="700">18-25</text>
  <polygon points="5325.77 209.12 5336.8 177.8 5354.95 205.61 5388.14 206.42 5367.31 232.27 5376.79 264.09 5345.77 252.26 5318.43 271.12 5320.1 237.95 5293.72 217.78 5325.77 209.12" fill="#675373" opacity="0.75"/>
  <text transform="translate(5318.95 231.5) rotate(-5.64)" opacity="0.75" font-size="20" fill="#fff" font-family="TimesNewRomanPS-BoldMT, Times New Roman" font-weight="700">18-25</text>
  <polygon points="5667.42 207.52 5679.06 176.42 5696.66 204.57 5729.84 206.02 5708.51 231.47 5717.37 263.47 5686.58 251.04 5658.89 269.36 5661.19 236.24 5635.21 215.57 5667.42 207.52" fill="#675373" opacity="0.75"/>
  <text transform="matrix(1, -0.08, 0.08, 1, 5660.17, 229.76)" opacity="0.75" font-size="20" fill="#fff" font-family="TimesNewRomanPS-BoldMT, Times New Roman" font-weight="700">18-25</text>
  <polygon points="6009.87 208.45 6025.71 179.27 6039.24 209.59 6071.89 215.64 6047.23 237.87 6051.57 270.79 6022.8 254.21 5992.84 268.51 5999.71 236.03 5976.85 211.95 6009.87 208.45" fill="#675373" opacity="0.75"/>
  <text transform="translate(5999.6 229.47) rotate(3.45)" opacity="0.75" font-size="20" fill="#fff" font-family="TimesNewRomanPS-BoldMT, Times New Roman" font-weight="700">18-25</text>
</svg>
