<svg id="Layer_1" data-name="Layer 1" xmlns="http://www.w3.org/2000/svg" viewBox="0 0 5376 1366">
  <title>cs_infografik_12345</title>
      <g id="ture">
    <g id="tur1">
      <g>
    <path d="M1537,1367H769V1h768Zm-760.12-7.89h752.24V8.89H776.88Z" fill="#0a070c"/>
    <path d="M776.88,1359.11V8.89h752.24V1359.11Zm705.37-34.81L1299.93,621l-358.77,2.32-114.88,701ZM1259.41,610.68V108.23H979.32V610.68Z" fill="#a47bbe"/>
    <path d="M1482.26,1324.3h-656l114.88-701L1299.93,621Zm-638.2-15.13H1462.3c-.29-1.77-.42-3.23-.78-4.62q-20.09-77.49-40.21-155-33.72-130.11-67.41-260.24Q1321.67,765,1289.48,640.71c-1-3.72-2.5-4.64-6.08-4.59q-37.73.54-75.46.75-58.23.4-116.47.67-54,.27-108,.47c-9.65,0-19.29,0-29.44,0Z" fill="#050406"/>
    <path d="M1259.41,610.68H979.32V108.23h280.1Zm-15.27-487.19H994.48V595.14h249.67Z" fill="#040304"/>
    <path d="M844.06,1309.17,954.06,638c10.14,0,19.79,0,29.44,0q54-.21,108-.47,58.23-.3,116.47-.67,37.73-.26,75.46-.75c3.58-.05,5.12.87,6.08,4.59q32.06,124.36,64.42,248.64,33.73,130.11,67.41,260.24,20.08,77.49,40.21,155c.36,1.39.49,2.85.78,4.62Zm301.14-32c1.45-2.59,2.78-4.69,3.84-6.92,6.33-13.38,12.79-26.7,18.83-40.21,10.17-22.78,19.76-45.83,33.19-67,9.69-15.28,22.32-27.57,37.59-37.61.53,1.56,1,2.79,1.38,4.07,8.42,30.06,22.08,57.4,42.63,81,12.67,14.57,25.74,28.79,38.49,43.3,5.44,6.2,10.51,12.73,15.86,19.25l12-8.49c-1.19-1.67-2.05-3.11-3.14-4.36-13.54-15.58-26.73-31.49-40.76-46.62-25.18-27.14-43.21-58-52.27-94.07-.69-2.76-.69-4.41,1.78-6.3a123.41,123.41,0,0,0,33.19-38.24c7.6-13.64,14.67-27.61,21.31-41.74,10.64-22.66,20.73-45.57,31.17-68.65l-12.31-7c-1.16,2-2.19,3.5-3,5.12-6.36,13.36-12.89,26.65-18.94,40.15-10.41,23.21-20,46.8-33.76,68.37a116.1,116.1,0,0,1-25,28.28c-.9-2.66-1.7-4.78-2.35-6.94-7.1-23.45-17-45.65-32.52-64.71-14.41-17.66-29.87-34.46-44.78-51.72-6-7-11.85-14.21-17.91-21.5L1137,963.8c12.16,13.83,23.47,27.62,35.76,40.48,27.78,29.08,50.28,61.12,60.3,100.79.88,3.49.5,5.3-2.55,7.31-21.73,14.33-38.77,33-50.35,56.35-9.76,19.64-18.77,39.66-28.07,59.52-6.46,13.79-12.87,27.61-19.42,41.66Zm-99-287.61c12.92,6,18.54,18.25,15.17,30.47-2,7.25-4.71,9.48-12.09,9-18.14-1.07-31.53-10.42-41.91-24.68-4.7-6.45-4.61-10.25-.13-16.84,1.68-2.47,3.66-4.77,5.09-7.37,1.86-3.38.77-6.6-1.91-9s-6.14-2.94-9-.3c-8.88,8.1-19,23.87-10.12,38.22,14.16,22.89,34.23,36.43,62,36,9.81-.16,16.91-5.29,20.94-14.41,9.53-21.57.76-45.47-20.82-56.78-2-1.06-4.26-2-5.77-3.66-2.56-2.75-5.77-4.46-8.79-2.69a13.5,13.5,0,0,0-5.52,7.47,54.4,54.4,0,0,0-2,15.29,187.72,187.72,0,0,0,2.06,26.66c.8,4.85,5.58,6.81,9.63,5.58,4.38-1.34,6.19-5.22,5.52-10.3C1047.52,1005,1047,997.77,1046.2,989.56ZM1055.4,809c-15.16-.4-24.24,2.77-30.33,11.58-7.16,10.34-10.32,22.07-8.4,34.53,2.79,18.08,14.68,29.35,30.34,36.93,9.75,4.72,20.08,6.81,30.92,3.27,23.91-7.82,37-44.84,15.26-67.35C1081.52,815.88,1067.45,809.46,1055.4,809Zm31.94-47.78a106.23,106.23,0,0,0-4.09-10.3c-5-9.73-14-13.88-24.63-11a37,37,0,0,0-11.2,5.16c-13.17,9.1-19.11,22.47-21.8,37.79-1.33,7.6,1,11.91,8.58,13.29,13.09,2.37,26.2,4.58,39.3,6.87,8.84,1.55,17.69,3.06,26.52,4.68,7.37,1.36,11.59-.71,12.35-6.23s-2.55-8.61-10.15-9.45c-.5-.05-1-.06-1.49-.13L1088.34,790c1-2,1.76-3.42,2.58-4.81a96.26,96.26,0,0,1,23.66-26.78c1.65-1.31,4-3,4.15-4.66.18-3-.27-6.72-2-9.05-2.3-3.2-6.45-3-9.43-.58C1100.51,749.58,1094,755.46,1087.34,761.21Zm-38.58,175.94c-1.35-1.9-2.34-3.43-3.47-4.85-8.64-11-17.17-22-26.06-32.76-3-3.65-6.9-3.54-10.1-.78-3.46,3-3.88,7.38-.74,11.57,5.29,7,10.8,13.94,16.17,20.93,2.86,3.73,5.63,7.53,9.18,12.29-9.12-1.84-16.9-3.46-24.7-5-5.62-1.08-9.32,1.11-10.22,5.87-1,5.11,1.75,8.49,7.5,9.59,16.48,3.15,32.95,6.4,49.43,9.56,7.67,1.47,15.32,3,23,4.22,5.6.87,10.32-2.65,11-7.7.61-4.38-2-7.25-7.78-8.43-1.46-.3-2.95-.5-4.42-.77l-16.39-3c7.69-6.11,15.15-11.22,21.55-17.42,4.41-4.27,7.8-9.8,10.77-15.25,1.91-3.5-.27-7-3.77-8.66s-7.45-1.56-9.74,2.18C1072.36,921.33,1059.49,927.89,1048.76,937.15Zm-19.53,201c8-1.91,15.18-3.23,22.12-5.41,5.23-1.64,6.75-4.94,5.52-9.09s-5.07-6.11-10-5.28c-4.75.81-9.46,2.18-14.23,2.44-17.29,1-34.59,1.55-51.89,2.28-4.13.17-8.87.64-9.66,5.21-.47,2.69,1.53,6.68,3.68,8.82,10.38,10.33,21.27,20.16,31.79,30.35,3,2.89,5.28,6.5,8.07,9.61a13.34,13.34,0,0,0,3.89,2.63c1.56.8,3.38,1.14,4.86,2,3.68,2.27,7.16,4.86,10.85,7.12,5,3.07,8.54,2.56,11.33-1.39s2-8.47-2.27-11.81-8.72-6.15-12.86-9.49c-1.34-1.09-2.8-3.12-2.74-4.68C1027.95,1153.61,1028.69,1145.67,1029.23,1138.19Zm-18.2,94.87-.13,1.22c-1.26.24-2.51.57-3.78.71q-25.06,2.74-50.12,5.45c-6.23.68-9.17,3.47-9,8.45s3.28,7.91,9.63,7.55c8.46-.48,16.91-1.4,25.31-2.52,16.65-2.22,33.27-4.64,49.89-7.12,3.78-.56,7.07-2.3,8-6.5s-.67-7.45-4.35-9.73q-19.09-11.8-38.15-23.66c-9.15-5.73-18.42-11.29-27.25-17.48-5.14-3.6-8.89-4.41-12.31-.84s-3.24,8.81,1.13,12.81a72,72,0,0,0,11.58,8.57C984.58,1217.81,997.84,1225.38,1011,1233.06Zm49.23-547.74c2-9.26,4.11-17.63,5.67-26.1,1-5.46-1.73-9.05-6.66-9.84-4.21-.68-7.65,1.83-8.72,6.93q-6.66,31.67-13.06,63.4c-.83,4.15,1.27,7,5.21,8.5,4.17,1.55,7.31,0,9.11-3.74a52.48,52.48,0,0,0,3.22-9.4c1.18-4.42,2.08-8.92,3.31-14.27,20.22,2.69,40,5.27,59.69,8,4.29.59,7.16-1,9-4.66s1-7.12-2.33-9.21a24.21,24.21,0,0,0-9.14-3.54c-10-1.42-20.14-2.34-30.22-3.43C1077.24,687.07,1069.17,686.25,1060.27,685.32Zm-9.7,407.49c-6.4-1.52-12-3-17.67-4.15q-23.94-4.86-47.94-9.48c-5.89-1.13-9.81,1.24-10.84,6.06-1,4.5,1.69,8.6,6.53,9.59q35.16,7.22,70.36,14.25c7.54,1.5,12.29-1.61,13.9-9.18a67.3,67.3,0,0,0,1.7-14.34c-.07-9.46-.35-19-1.32-28.36-.61-6-4.25-8.37-9-7.57s-6.67,3.78-6.31,9.62c.12,2,.57,4,.59,6C1050.6,1074.14,1050.57,1083.08,1050.57,1092.81Z" fill="#a47bbe"/>
    <path d="M1244.15,123.49V595.14H994.48V123.49ZM1057.2,490.1h121.34V475.7H1057.2Zm148.7-136,34-1.49v-15L1205,339.15Zm-87.85-118.4v14.47h6.62V235.74Z" fill="#a47bbe"/>
    <path d="M1145.2,1277.17l-12.52-7.26c6.55-14,13-27.87,19.42-41.66,9.31-19.87,18.31-39.88,28.07-59.52,11.58-23.3,28.62-42,50.35-56.35,3-2,3.43-3.82,2.55-7.31-10-39.67-32.52-71.71-60.3-100.79-12.28-12.86-23.59-26.64-35.76-40.48l12.79-9.08c6.05,7.28,11.86,14.49,17.91,21.5,14.91,17.26,30.37,34.06,44.78,51.72,15.55,19.06,25.42,41.26,32.52,64.71.66,2.16,1.45,4.29,2.35,6.94a116.1,116.1,0,0,0,25-28.28c13.74-21.56,23.34-45.16,33.76-68.37,6.06-13.5,12.59-26.79,18.94-40.15.77-1.63,1.8-3.13,3-5.12l12.31,7c-10.45,23.08-20.54,46-31.17,68.65-6.64,14.14-13.71,28.1-21.31,41.74a123.41,123.41,0,0,1-33.19,38.24c-2.47,1.89-2.47,3.54-1.78,6.3,9.06,36,27.09,66.94,52.27,94.07,14,15.12,27.22,31,40.76,46.62,1.08,1.25,1.95,2.69,3.14,4.36l-12,8.49c-5.36-6.53-10.42-13.06-15.86-19.25-12.74-14.51-25.82-28.73-38.49-43.3-20.56-23.64-34.21-51-42.63-81-.36-1.27-.84-2.51-1.38-4.07-15.27,10-27.9,22.33-37.59,37.61-13.42,21.17-23,44.22-33.19,67-6,13.51-12.5,26.83-18.83,40.21C1148,1272.48,1146.64,1274.58,1145.2,1277.17Z" fill="#fe0203"/>
    <path d="M1046.2,989.56c.8,8.2,1.33,15.46,2.28,22.66.68,5.08-1.14,9-5.52,10.3-4,1.23-8.83-.73-9.63-5.58a187.72,187.72,0,0,1-2.06-26.66,54.4,54.4,0,0,1,2-15.29,13.5,13.5,0,0,1,5.52-7.47c3-1.78,6.23-.06,8.79,2.69,1.5,1.61,3.75,2.6,5.77,3.66,21.58,11.32,30.34,35.21,20.82,56.78-4,9.12-11.13,14.24-20.94,14.41-27.76.46-47.83-13.08-62-36-8.88-14.35,1.25-30.13,10.12-38.22,2.9-2.65,6.27-2.2,9,.3s3.77,5.63,1.91,9c-1.43,2.6-3.41,4.9-5.09,7.37-4.47,6.59-4.57,10.39.13,16.84,10.38,14.26,23.78,23.61,41.91,24.68,7.38.43,10.09-1.8,12.09-9C1064.74,1007.81,1059.12,995.59,1046.2,989.56Z" fill="#030203"/>
    <path d="M1055.4,809c12,.46,26.11,6.88,37.79,19,21.76,22.5,8.64,59.53-15.26,67.35-10.84,3.55-21.17,1.45-30.92-3.27-15.67-7.58-27.56-18.85-30.34-36.93-1.92-12.45,1.25-24.19,8.4-34.53C1031.16,811.76,1040.24,808.6,1055.4,809Zm-23.67,39.71-.85.38c1.6,4.27,2.56,8.93,4.91,12.73,6,9.76,15,15.78,26.3,18.15a22.11,22.11,0,0,0,8.34.39c11.81-2.19,20.39-15.87,18-28.2C1086,840,1073,828.85,1058,826c-16.17-3-22.41,1.13-25.69,17.24C1032,845,1031.93,846.89,1031.73,848.7Z" fill="#020203"/>
    <path d="M1087.34,761.21c6.67-5.75,13.18-11.63,20-17.12,3-2.39,7.13-2.61,9.43.58,1.68,2.34,2.14,6,2,9.05-.1,1.64-2.5,3.35-4.15,4.66a96.26,96.26,0,0,0-23.66,26.78c-.82,1.4-1.53,2.85-2.58,4.81l12.37,1.88c.49.07,1,.08,1.49.13,7.6.84,10.92,3.92,10.15,9.45s-5,7.58-12.35,6.23c-8.83-1.62-17.67-3.14-26.52-4.68-13.1-2.29-26.22-4.5-39.3-6.87-7.57-1.37-9.91-5.68-8.58-13.29,2.69-15.33,8.63-28.69,21.8-37.79a37,37,0,0,1,11.2-5.16c10.59-2.85,19.63,1.29,24.63,11A106.23,106.23,0,0,1,1087.34,761.21Zm-16.06,25.47c1.77-8.84,3.2-17.15-.5-25.3-3.15-6.93-7.09-8.13-13.43-4-8.69,5.65-13.52,13.78-14.81,24.47Z" fill="#030203"/>
    <path d="M1048.76,937.15c10.73-9.26,23.6-15.81,31.26-28.34,2.29-3.74,6.18-3.87,9.74-2.18s5.68,5.16,3.77,8.66c-3,5.45-6.37,11-10.77,15.25-6.4,6.2-13.86,11.31-21.55,17.42l16.39,3c1.47.27,3,.47,4.42.77,5.75,1.18,8.39,4,7.78,8.43-.7,5.06-5.41,8.58-11,7.7-7.71-1.2-15.37-2.75-23-4.22-16.48-3.17-32.95-6.41-49.43-9.56-5.75-1.1-8.47-4.49-7.5-9.59.91-4.76,4.6-7,10.22-5.87,7.8,1.5,15.58,3.12,24.7,5-3.55-4.76-6.31-8.56-9.18-12.29-5.37-7-10.88-13.88-16.17-20.93-3.14-4.19-2.72-8.59.74-11.57,3.2-2.76,7.08-2.87,10.1.78,8.89,10.75,17.41,21.81,26.06,32.76C1046.42,933.72,1047.41,935.25,1048.76,937.15Z" fill="#020203"/>
    <path d="M1029.23,1138.19c-.54,7.48-1.29,15.42-1.56,23.36-.05,1.55,1.4,3.59,2.74,4.68,4.14,3.34,8.64,6.23,12.86,9.49s5.07,7.84,2.27,11.81-6.33,4.47-11.33,1.39c-3.68-2.26-7.17-4.85-10.85-7.12-1.48-.91-3.3-1.24-4.86-2a13.34,13.34,0,0,1-3.89-2.63c-2.79-3.12-5.08-6.72-8.07-9.61-10.52-10.19-21.41-20-31.79-30.35-2.15-2.14-4.15-6.12-3.68-8.82.79-4.57,5.53-5,9.66-5.21,17.3-.72,34.6-1.32,51.89-2.28,4.77-.26,9.49-1.63,14.23-2.44,4.93-.84,8.8,1.23,10,5.28s-.29,7.45-5.52,9.09C1044.42,1135,1037.22,1136.28,1029.23,1138.19Zm-30.72.34-.43,1.09,16.33,13.66,1.14-14.75Z" fill="#020203"/>
    <path d="M1011,1233.06c-13.2-7.67-26.46-15.24-39.56-23.08a72,72,0,0,1-11.58-8.57c-4.37-4-4.56-9.24-1.13-12.81s7.17-2.76,12.31.84c8.83,6.19,18.1,11.75,27.25,17.48q19,11.91,38.15,23.66c3.68,2.27,5.28,5.49,4.35,9.73s-4.21,5.94-8,6.5c-16.61,2.48-33.24,4.91-49.89,7.12-8.4,1.12-16.85,2-25.31,2.52-6.35.36-9.46-2.46-9.63-7.55s2.77-7.78,9-8.45q25.06-2.73,50.12-5.45c1.27-.14,2.52-.47,3.78-.71Z" fill="#030204"/>
    <path d="M1060.27,685.32c8.9.93,17,1.76,25,2.63,10.08,1.09,20.18,2,30.22,3.43a24.21,24.21,0,0,1,9.14,3.54c3.35,2.1,4.12,5.6,2.33,9.21s-4.67,5.25-9,4.66c-19.72-2.73-39.47-5.3-59.69-8-1.22,5.35-2.13,9.85-3.31,14.27a52.48,52.48,0,0,1-3.22,9.4c-1.81,3.72-4.94,5.29-9.11,3.74-3.95-1.47-6-4.35-5.21-8.5q6.37-31.73,13.06-63.4c1.07-5.09,4.51-7.6,8.72-6.93,4.93.79,7.67,4.39,6.66,9.84C1064.38,667.69,1062.31,676.06,1060.27,685.32Z" fill="#030204"/>
    <path d="M1050.57,1092.81c0-9.73,0-18.66,0-27.6,0-2-.46-4-.59-6-.36-5.84,1.64-8.85,6.31-9.62s8.42,1.62,9,7.57c1,9.4,1.26,18.9,1.32,28.36a67.3,67.3,0,0,1-1.7,14.34c-1.61,7.57-6.35,10.67-13.9,9.18q-35.21-7-70.36-14.25c-4.84-1-7.49-5.09-6.53-9.59,1-4.82,5-7.18,10.84-6.06q24,4.59,47.94,9.48C1038.56,1089.81,1044.16,1091.29,1050.57,1092.81Z" fill="#030204"/>
    <path d="M1057.2,490.1V475.7h121.34v14.4Z" fill="#0a080c"/>
    <path d="M1205.9,354.14l-.9-15,34.93-1.54v15Z" fill="#040305"/>
    <path d="M1118.05,235.74h6.62v14.47h-6.62Z" fill="#0d0a10"/>
    <path d="M1031.73,848.7c.19-1.81.24-3.66.61-5.44,3.27-16.11,9.52-20.28,25.69-17.24,15,2.83,28,14,30.38,26.13,2.43,12.32-6.16,26-18,28.2a22.11,22.11,0,0,1-8.34-.39c-11.26-2.37-20.26-8.39-26.3-18.15-2.35-3.8-3.32-8.46-4.91-12.73Z" fill="#a37abd"/>
    <path d="M1071.28,786.68l-28.75-4.83c1.29-10.69,6.13-18.81,14.81-24.47,6.35-4.13,10.28-2.93,13.43,4C1074.48,769.53,1073,777.84,1071.28,786.68Z" fill="#a27abb"/>
    <path d="M998.51,1138.53h17l-1.14,14.75-16.33-13.66Z" fill="#9670ae"/>
 </g>
  </g>
  <g id="tur2">
    <g>
    <path d="M1537.19,1h767.75V1366.86H1537.19Zm7.8,7.75V1359.05H2297.1V8.77Z"/>
    <path d="M1545,8.77H2297.1V1359.05H1545ZM2039.11,705.9c53.28,25.92,107.81,2,130.6-40,23-42.42,11-96.27-28.42-124.9-38.93-28.31-95.24-23.2-127.19,11.41-17.1,18.52-26.58,40.3-26.84,65.44-.33,32.86,13.24,59.47,39,79.89-4.21,6.71-8.42,12.91-12.08,19.42-2.21,3.93-4.78,5.38-9.42,5.37q-150-.23-300-.12H1698c2.15,2,3.08,2.95,4,3.83,54,49.49,107.93,99.11,162.21,148.32,8.81,8,14.18,17.42,17.57,28.33a23.21,23.21,0,0,1,.86,9.74c-2.54,18.45-2,36.86-.15,55.31.91,9.06,3.18,18.43,1.81,27.19-8.2,52.39-25.61,102-46.67,150.52-1.05,2.43-2.28,3.54-5.14,3.51-24.33-.22-48.66-.27-73-.35-9.09,0-18.18,0-27.29,0v15.42h315.42v-15.13c-3.44,0-6.43,0-9.41,0-26.82.22-53.64.42-80.45.73-2.84,0-4.47-.67-5.73-3.47-20.13-44.83-36.92-90.8-47.68-138.82-1.87-8.36-4.06-16.62-2.92-25.58a230.47,230.47,0,0,0-1.5-71.11c-1.82-9.94,1.43-19.43,8.51-26.9,6.18-6.52,12.92-12.5,19.42-18.72q62.1-59.4,124.13-118.87c8-7.69,14.95-16.4,21.76-23.95h-45.06Zm-191.44-403c1.39-1.55,2.47-2.81,3.61-4,12.82-13.48,11.1-33.76-3.51-45.11-12.09-9.39-25.5-9-39.45-6.49-4.38.8-6.18,3.19-6.26,7.49-.15,7.48-.49,15-.75,22.43-.77,21.77-1.62,43.53-2.26,65.3-.21,7,3.45,10.45,10.46,10.29,4.65-.11,9.32-.34,13.93-.91,12.82-1.58,25.24-4.27,35.13-13.59,11.06-10.42,10.31-21.84-2.22-30.3C1853.61,306.18,1850.65,304.67,1847.67,302.93Zm-88.8-173.67c0-1.83.14-3.67,0-5.49-1.24-14.19-5.76-26.48-20.16-32.36a55.51,55.51,0,0,0-33.31-2.81c-31.68,6.92-50.06,53.62-37.12,79.58,13,26.11,52.2,31.53,72.3,9.83C1753.24,164.33,1758.82,147.76,1758.87,129.26Zm234,190.31c1.39.38,2.82.7,4.19,1.16,15.93,5.33,29.54,14.35,41.5,26,4.09,4,7.86,4.48,10.91,1.57,3.23-3.07,3-7.21-1-11.42a79.55,79.55,0,0,0-9.55-8.77c-5.81-4.35-11.93-8.3-17.82-12.35,4.63-2.5,9.48-4.62,13.79-7.55,10.25-7,14.46-16.78,10.6-27.56a48.08,48.08,0,0,0-10.54-16.54c-11.53-12-26.53-15.72-42.73-16.07-9.59-.21-12.5,2.09-12.33,11.59.14,7.82,1.62,15.75.7,23.42a348.37,348.37,0,0,0-1.57,59.81c.3,5.84,2.76,9,7.14,9s6.78-3.37,6.76-9.18C1992.86,335.07,1992.88,327.49,1992.88,319.57ZM1874.5,132.09l-1.11-.68c0-1.63,0-3.26,0-4.89.37-10.81.88-21.61,1.11-32.42.11-5.06-2.32-7.82-6.33-8s-6.89,2.72-7,7.47q-1,45.42-1.65,90.85c0,2.06.32,4.84,1.63,6.06,2.08,1.93,5.1,3.84,7.75,3.88,3.58.06,4.32-3.34,4.3-6.66-.08-10,0-20,0-30a35.94,35.94,0,0,1,.36-3.61l1.31-.78a69.25,69.25,0,0,0,5.41,6.48c8.33,7.89,16.55,15.91,25.31,23.3,3.57,3,8.25,5,12.72,6.58,3.67,1.33,7.34.53,8.79-4,1.31-4.12-.23-7-4.64-9.06-2.26-1-4.8-1.82-6.61-3.41-11.24-9.84-22.3-19.88-34.22-30.57,5.12-4.79,9.81-8.57,13.77-13,9.08-10.15,17.91-20.54,26.63-31,2.65-3.18,2.71-6.8-.81-9.7-3.1-2.55-6.82-1.91-10.06,1.77-4.4,5-8.61,10.16-13,15.13C1890.3,114.66,1882.38,123.36,1874.5,132.09Zm212.7,21c1.37,6.41,2.22,12.16,3.89,17.66a75.35,75.35,0,0,0,6.35,15.55c2.46,4.29,8.09,4.38,10.3.39,1.19-2.15,1.24-5.47.63-8-1.41-5.78-4-11.28-5.3-17.09-4.58-21.26-8.65-42.64-13.31-63.88-.62-2.84-3-6.39-5.51-7.33-1.72-.66-5.86,1.95-7.32,4.15-10.24,15.52-20,31.36-30.07,47-1.7,2.64-4.44,4.59-6.36,7.11a18.72,18.72,0,0,0-3,5.91c-1,3.35-1.2,7-2.36,10.24-1.65,4.69-4,9.12-5.77,13.77-1.84,4.89-.47,8.5,3.58,9.94,4.58,1.63,7.26-.81,9.08-4.68,3.23-6.91,6.38-13.87,9.67-20.75.59-1.23,1.53-3,2.59-3.2C2065.15,157.51,2076,155.37,2087.2,153.1Zm-148.09,162c1,5.15,1.59,9.78,3,14.14a177.3,177.3,0,0,0,7.12,19c1.34,3,4.5,3.94,7.73,2.64a6.2,6.2,0,0,0,4.09-7.16c-.18-1.31-.6-2.58-.91-3.87-5.06-21.13-10.18-42.26-15.16-63.41-1.52-6.46-2.24-13.14-4.12-19.48-1.8-6.07-6.61-6.82-10.84-2.14a48.5,48.5,0,0,0-5.19,6.7c-8.89,14.23-17.61,28.58-26.56,42.77-1.5,2.37-4.07,4-5.82,6.29-1.35,1.73-3.46,4.21-3,5.72,1.29,4.49-1.08,7.69-2.58,11.27-1.8,4.28-3.86,8.46-5.48,12.81-1.87,5-.58,8.39,3.38,10s7,0,9.33-5c3.2-6.75,6.17-13.61,9.5-20.3.77-1.55,2.43-3.37,4-3.71C1917.74,319.22,1928,317.32,1939.11,315.14Zm221.13-211.88c8,.73,14.65,1.62,21.28,1.84,5.93.2,9.44-5.34,6.37-10.11a9.45,9.45,0,0,0-6.51-3.66q-24.89-1.5-49.82-2.24c-5.65-.17-8.28,2.63-8.06,7.25s3.14,6.69,8.71,6.62c4.9-.06,9.81,0,14.05,0,0,20.73.19,41-.07,61.26-.15,11.36-.48,11.36-12.82,11.77-5.69.19-8.73,2.93-8.35,7.53.36,4.32,3.71,6.6,9.08,6.28q22.65-1.34,45.31-2.61c5.72-.32,9.18-5.33,6.27-10-1.22-1.93-4.44-3.43-6.87-3.62-6.2-.5-12.48-.17-18.57-.17ZM1632.52,89l-.51-1.36c-5.64,2.13-11.85,3.38-16.8,6.57-13.84,8.94-22.69,22.22-29.24,37.07a54.72,54.72,0,0,0-4.84,25.75c1.19,19,16.27,32.94,34.63,31.86,13.09-.77,23.7-7.09,33.13-15.7.93-.85,2.08-2.38,1.89-3.34-.52-2.59-1.06-5.87-2.85-7.29-1.49-1.18-5.18-.92-7.17.11-6.31,3.29-11.9,8.19-18.44,10.73-15.22,5.91-28.68-4.44-27.42-20.8,1.54-19.94,12.33-34.85,27.67-46.52,3.38-2.57,9.1-3.08,13.61-2.75,2.23.16,3.92,4.68,6.31,6.67,1.85,1.54,4.61,3.32,6.6,3s4.92-3.16,5-5A81,81,0,0,0,1653,91.2c-.6-3.8-4.53-5.75-7.16-3.79C1641.3,90.77,1636.9,88.53,1632.52,89Zm189,0a27.29,27.29,0,0,0-19.25,6.44c-17.56,14.26-29.34,32.1-32,55-2.12,18.32,9.85,35.49,27,38.06,16.51,2.47,29.75-5.1,41.28-16,2.67-2.52,2.29-6.14-.27-9.05s-5.38-3.05-8.47-1c-1.94,1.29-3.72,2.86-5.75,4-5.24,2.8-10.33,6.29-15.93,7.92-11.89,3.45-23.38-5.31-24.23-17.66-1.18-17.07,14.32-44.31,29.61-52,7.8-3.94,12.92-2.29,17.81,4.81,1.33,1.93,4.68,3.81,6.75,3.49s5.18-3.36,5.28-5.34A74.77,74.77,0,0,0,1842,90.89c-.63-3.5-4.4-5.32-6.94-3.52C1830.57,90.52,1826.17,88.74,1821.53,89Zm162.09,13.87c2.11,0,3.74-.06,5.36,0,9.31.41,18.61.93,27.92,1.24,4.71.16,7.67-2.48,7.6-6.64s-2.22-6.83-6.72-7c-1.16-.05-2.32-.24-3.48-.29q-35.63-1.5-71.26-2.95c-3.85-.15-6.37,1.81-7.07,5.62s.53,6.67,4.39,7.84a32.46,32.46,0,0,0,6.83,1.36c7.41.58,14.83,1,23.17,1.5.9,25.44,1.9,50.81,2.62,76.18.12,4.32,1.5,7.22,5.66,8.13s6.75-1.68,7.57-5.45A40.8,40.8,0,0,0,1987,172C1986,149.26,1984.81,126.51,1983.62,102.87ZM2212,180c.46-6.3,1.07-11.92,1.24-17.55q1.06-34.95,1.83-69.9c.11-5.43-4.7-8.89-9-6.31a10,10,0,0,0-4,7.15c-.66,17.47-.69,35-1.23,52.44-.35,11.31-1.32,22.6-1.85,33.91-.48,10.32,3,14.23,13.33,14.08a114.22,114.22,0,0,0,19.85-1.92c9.11-1.75,18.14-4,27-6.68,4.55-1.35,6.07-5.17,4.55-9.1-1.66-4.26-5.09-4.85-9.06-3.86-1.45.36-2.85.92-4.29,1.32C2238.15,176.94,2225.73,179.86,2212,180Z" fill="#a47bbe"/>
    <path d="M2039.11,705.9l-10.36,16.55h45.06C2067,730,2060,738.71,2052.05,746.4q-61.86,59.65-124.13,118.87c-6.5,6.22-13.25,12.2-19.42,18.72-7.08,7.48-10.34,17-8.51,26.9a230.47,230.47,0,0,1,1.5,71.11c-1.14,9,1.05,17.22,2.92,25.58,10.76,48,27.56,94,47.68,138.82,1.25,2.79,2.89,3.5,5.73,3.47,26.82-.31,53.63-.51,80.45-.73,3,0,6,0,9.41,0v15.13H1732.26v-15.42c9.11,0,18.2,0,27.29,0,24.33.08,48.66.13,73,.35,2.86,0,4.08-1.09,5.14-3.51,21.06-48.47,38.47-98.13,46.67-150.52,1.37-8.76-.91-18.13-1.81-27.19-1.84-18.45-2.39-36.86.15-55.31a23.21,23.21,0,0,0-.86-9.74c-3.39-10.91-8.76-20.34-17.57-28.33C1810,825.39,1756.07,775.77,1702,726.28c-1-.88-1.9-1.8-4-3.83h6.83q150,0,300,.12c4.64,0,7.21-1.45,9.42-5.37,3.66-6.51,7.86-12.71,12.08-19.42-25.78-20.42-39.36-47-39-79.89.25-25.14,9.74-46.92,26.84-65.44,32-34.61,88.27-39.71,127.19-11.41,39.37,28.63,51.47,82.48,28.42,124.9C2146.92,707.89,2092.39,731.82,2039.11,705.9ZM1891.43,879.24l147.95-141.52H1736.9Zm45.5,270.15a831.72,831.72,0,0,1-43.33-119.81c-10.07,41.06-24.13,80.53-41,119.81ZM2075.51,612.6l-11.72-71.86c-33.82,7.25-61.87,41.65-61,77.29l69.62-5C2073.19,612.93,2074,612.8,2075.51,612.6Zm70.76,60.28c23.42-25.72,24.52-65.25,12.13-86.59l-61.89,35.13Zm5.11-100c-18.73-27.4-52-38-72.69-34.29l11.3,69.13Zm-15.77,110.7-48.7-50.32-26.34,64.92C2088.33,705.65,2112.9,700.67,2135.61,683.6Zm-89,8.91,26.12-64.5-69.4,5.07C2008.66,659.7,2022.84,679.17,2046.6,692.51Z" fill="#030203"/>
    <path d="M1847.67,302.93c3,1.74,5.94,3.24,8.67,5.09,12.53,8.47,13.28,19.88,2.22,30.3-9.89,9.32-22.3,12-35.13,13.59-4.61.57-9.28.8-13.93.91-7,.16-10.67-3.3-10.46-10.29.64-21.77,1.5-43.54,2.26-65.3.26-7.48.61-15,.75-22.43.08-4.3,1.88-6.69,6.26-7.49,14-2.56,27.37-2.89,39.45,6.49,14.61,11.34,16.33,31.63,3.51,45.11C1850.14,300.12,1849.06,301.39,1847.67,302.93Zm-33.19-6.61c9.28,1.81,18.22.84,25.81-5.89,6.92-6.13,8.09-16,2.85-22.3-6.36-7.64-18.5-10.84-28.67-7.14Zm-1.94,15V339c4-.36,8-.49,11.87-1.09,9.08-1.4,18-3.2,25.08-9.86,4.65-4.4,4.58-6-.91-9.32C1837.69,312.16,1825.82,310.06,1812.54,311.37Z" fill="#030204"/>
    <path d="M1758.87,129.26c-.05,18.5-5.63,35.07-18.3,48.75-20.1,21.7-59.28,16.29-72.3-9.83-12.94-26,5.44-72.65,37.12-79.58a55.51,55.51,0,0,1,33.31,2.81c14.4,5.87,18.92,18.17,20.16,32.36C1759,125.59,1758.87,127.43,1758.87,129.26Zm-14,.3a49.92,49.92,0,0,0,0-6.47c-.93-7.08-2.82-13.73-9.5-17.76-11.28-6.8-29.47-5.45-39.32,3.39-11.58,10.39-17.5,23.66-18,39.18-.39,12.8,5.42,22.21,16.8,26.83,12.07,4.9,23.85,4.71,33.89-4.76C1740.3,159.07,1744.81,145.11,1744.9,129.56Z" fill="#030204"/>
    <path d="M1992.88,319.57c0,7.92,0,15.5,0,23.09,0,5.81-2.38,9.09-6.76,9.18s-6.84-3.12-7.14-9a348.37,348.37,0,0,1,1.57-59.81c.92-7.66-.56-15.6-.7-23.42-.17-9.49,2.74-11.8,12.33-11.59,16.2.36,31.2,4.11,42.73,16.07a48.08,48.08,0,0,1,10.54,16.54c3.86,10.79-.34,20.61-10.6,27.56-4.31,2.92-9.16,5-13.79,7.55,5.89,4,12,8,17.82,12.35a79.55,79.55,0,0,1,9.55,8.77c4,4.21,4.27,8.34,1,11.42-3.05,2.9-6.82,2.41-10.91-1.57-12-11.66-25.57-20.69-41.5-26C1995.69,320.27,1994.27,320,1992.88,319.57Zm.66-56.93v41c8.57,1.73,23.08-.27,30-4.31,11.24-6.56,12.44-14.95,3.39-24.16S2007,262.19,1993.54,262.64Z" fill="#030204"/>
    <path d="M1874.5,132.09c7.88-8.74,15.81-17.43,23.63-26.22,4.43-5,8.64-10.13,13-15.13,3.24-3.68,7-4.33,10.06-1.77,3.52,2.9,3.47,6.52.81,9.7-8.73,10.46-17.55,20.86-26.63,31-4,4.43-8.65,8.21-13.77,13,11.92,10.69,23,20.73,34.22,30.57,1.81,1.59,4.35,2.37,6.61,3.41,4.41,2,6,4.94,4.64,9.06-1.45,4.56-5.12,5.37-8.79,4-4.47-1.62-9.15-3.57-12.72-6.58-8.76-7.38-17-15.41-25.31-23.3a69.25,69.25,0,0,1-5.41-6.48l-1.31.78a35.94,35.94,0,0,0-.36,3.61c0,10-.07,20,0,30,0,3.32-.72,6.71-4.3,6.66-2.65,0-5.68-2-7.75-3.88-1.31-1.22-1.66-4-1.63-6.06q.68-45.43,1.65-90.85c.1-4.75,3-7.61,7-7.47s6.44,2.9,6.33,8c-.23,10.81-.74,21.61-1.11,32.42-.06,1.63,0,3.26,0,4.89Z" fill="#030204"/>
    <path d="M2087.2,153.1c-11.18,2.27-22.05,4.41-32.87,6.8-1.06.23-2,2-2.59,3.2-3.29,6.88-6.44,13.84-9.67,20.75-1.81,3.87-4.49,6.31-9.08,4.68-4.05-1.44-5.42-5-3.58-9.94,1.75-4.65,4.12-9.08,5.77-13.77,1.15-3.28,1.37-6.89,2.36-10.24a18.72,18.72,0,0,1,3-5.91c1.92-2.53,4.66-4.47,6.36-7.11,10.08-15.62,19.84-31.46,30.07-47,1.46-2.21,5.6-4.81,7.32-4.15,2.46.95,4.89,4.5,5.51,7.33,4.66,21.25,8.73,42.62,13.31,63.88,1.25,5.81,3.88,11.31,5.3,17.09.61,2.51.56,5.83-.63,8-2.21,4-7.84,3.9-10.3-.39a75.35,75.35,0,0,1-6.35-15.55C2089.42,165.26,2088.57,159.51,2087.2,153.1Zm-2.76-13.85-5.25-24.78L2061,143.91Z" fill="#030203"/>
    <path d="M1939.11,315.14c-11.08,2.18-21.37,4.07-31.59,6.34-1.55.34-3.2,2.16-4,3.71-3.33,6.68-6.3,13.55-9.5,20.3-2.36,5-5.47,6.56-9.33,5s-5.25-5-3.38-10c1.62-4.35,3.68-8.53,5.48-12.81,1.5-3.57,3.87-6.77,2.58-11.27-.44-1.51,1.68-4,3-5.72,1.75-2.25,4.32-3.92,5.82-6.29,9-14.19,17.67-28.53,26.56-42.77a48.5,48.5,0,0,1,5.19-6.7c4.23-4.69,9-3.94,10.84,2.14,1.88,6.34,2.6,13,4.12,19.48,5,21.15,10.09,42.28,15.16,63.41.31,1.29.73,2.56.91,3.87a6.2,6.2,0,0,1-4.09,7.16c-3.23,1.3-6.39.36-7.73-2.64a177.3,177.3,0,0,1-7.12-19C1940.7,324.92,1940.16,320.3,1939.11,315.14ZM1912.79,306l23.54-4.78L1931,276.51Z" fill="#030203"/>
    <path d="M2160.23,103.26v70.18c6.09,0,12.36-.34,18.57.17,2.43.2,5.65,1.69,6.87,3.62,2.91,4.62-.55,9.63-6.27,10q-22.66,1.28-45.31,2.61c-5.37.32-8.72-2-9.08-6.28-.38-4.6,2.66-7.34,8.35-7.53,12.35-.41,12.68-.41,12.82-11.77.26-20.26.07-40.53.07-61.26-4.24,0-9.15,0-14.05,0-5.57.07-8.5-2.12-8.71-6.62s2.41-7.42,8.06-7.25q24.92.75,49.82,2.24a9.45,9.45,0,0,1,6.51,3.66c3.08,4.78-.43,10.31-6.37,10.11C2174.88,104.88,2168.27,104,2160.23,103.26Z" fill="#040305"/>
    <path d="M1632.52,89c4.39-.5,8.78,1.74,13.28-1.62,2.63-2,6.55,0,7.16,3.79a81,81,0,0,1,1.14,16.8c-.1,1.86-3,4.67-5,5s-4.76-1.42-6.6-3c-2.39-2-4.08-6.51-6.31-6.67-4.51-.33-10.23.17-13.61,2.75-15.33,11.66-26.13,26.57-27.67,46.52-1.26,16.36,12.2,26.71,27.42,20.8,6.54-2.54,12.13-7.44,18.44-10.73,2-1,5.68-1.29,7.17-.11,1.79,1.42,2.33,4.7,2.85,7.29.19,1-1,2.49-1.89,3.34-9.42,8.61-20,14.93-33.13,15.7-18.35,1.08-33.44-12.88-34.63-31.86a54.72,54.72,0,0,1,4.84-25.75c6.55-14.85,15.4-28.13,29.24-37.07,5-3.2,11.17-4.44,16.8-6.57Z" fill="#030204"/>
    <path d="M1821.53,89c4.64-.26,9,1.52,13.49-1.64,2.53-1.8,6.3,0,6.94,3.52a74.77,74.77,0,0,1,1.43,16.76c-.1,2-3.2,5-5.28,5.34s-5.43-1.56-6.75-3.49c-4.89-7.1-10-8.75-17.81-4.81-15.29,7.72-30.8,35-29.61,52,.86,12.34,12.34,21.1,24.23,17.66,5.61-1.63,10.7-5.11,15.93-7.92,2-1.09,3.82-2.67,5.75-4,3.08-2.05,6-1.82,8.47,1s2.94,6.54.27,9.05c-11.54,10.87-24.77,18.44-41.28,16-17.16-2.57-29.14-19.74-27-38.06,2.65-22.91,14.43-40.76,32-55A27.29,27.29,0,0,1,1821.53,89Z" fill="#030204"/>
    <path d="M1983.62,102.87c1.19,23.64,2.39,46.39,3.42,69.15a40.8,40.8,0,0,1-.84,10.36c-.82,3.77-3.32,6.38-7.57,5.45s-5.54-3.81-5.66-8.13c-.72-25.37-1.71-50.74-2.62-76.18-8.35-.53-15.77-.92-23.17-1.5a32.46,32.46,0,0,1-6.83-1.36c-3.86-1.17-5.08-4.12-4.39-7.84s3.22-5.77,7.07-5.62q35.63,1.42,71.26,2.95c1.16,0,2.32.24,3.48.29,4.49.21,6.65,2.75,6.72,7s-2.89,6.79-7.6,6.64c-9.31-.31-18.61-.83-27.92-1.24C1987.36,102.81,1985.73,102.87,1983.62,102.87Z" fill="#040304"/>
    <path d="M2212,180c13.69-.1,26.11-3,38.45-6.43,1.44-.4,2.84-1,4.29-1.32,4-1,7.41-.4,9.06,3.86,1.53,3.93,0,7.75-4.55,9.1-8.89,2.64-17.93,4.93-27,6.68a114.22,114.22,0,0,1-19.85,1.92c-10.3.15-13.81-3.76-13.33-14.08.53-11.31,1.5-22.6,1.85-33.91.54-17.47.57-35,1.23-52.44a10,10,0,0,1,4-7.15c4.25-2.59,9.07.88,9,6.31q-.72,35-1.83,69.9C2213.11,168,2212.5,173.66,2212,180Z" fill="#030204"/>
    <path d="M1891.43,879.24,1736.9,737.72h302.48Z" fill="#fc071c"/>
    <path d="M1936.93,1149.39h-84.31c16.85-39.28,30.92-78.75,41-119.81A831.72,831.72,0,0,0,1936.93,1149.39Z" fill="#a37abd"/>
    <path d="M2075.51,612.6c-1.53.19-2.33.33-3.13.39l-69.62,5c-.84-35.65,27.21-70,61-77.29Z" fill="#fcfc00"/>
    <path d="M2146.27,672.88l-49.76-51.46,61.89-35.13C2170.79,607.63,2169.69,647.16,2146.27,672.88Z" fill="#fcfc00"/>
    <path d="M2151.39,572.9,2090,607.74l-11.3-69.13C2099.35,534.89,2132.65,545.5,2151.39,572.9Z" fill="#fbfb00"/>
    <path d="M2135.61,683.6c-22.71,17.07-47.28,22.05-75,14.6l26.34-64.92Z" fill="#fbfb00"/>
    <path d="M2046.6,692.51c-23.77-13.34-37.94-32.8-43.28-59.43l69.4-5.07Z" fill="#fbfb00"/>
    <path d="M1814.48,296.33V261c10.17-3.7,22.31-.5,28.67,7.14,5.24,6.29,4.06,16.18-2.85,22.3C1832.7,297.17,1823.77,298.14,1814.48,296.33Z" fill="#a37bbd"/>
    <path d="M1812.54,311.37c13.27-1.31,25.14.78,36,7.38,5.5,3.33,5.56,4.92.91,9.32-7,6.67-16,8.46-25.08,9.86-3.88.6-7.83.73-11.87,1.09Z" fill="#a279bb"/>
    <path d="M1744.9,129.56c-.08,15.56-4.6,29.51-16.15,40.4-10,9.47-21.82,9.66-33.89,4.76-11.38-4.62-17.19-14-16.8-26.83.47-15.52,6.4-28.78,18-39.18,9.85-8.85,28-10.19,39.32-3.39,6.69,4,8.57,10.68,9.5,17.76A49.92,49.92,0,0,1,1744.9,129.56Z" fill="#a37bbd"/>
    <path d="M1993.54,262.64c13.5-.45,24.47,3.41,33.38,12.48s7.85,17.6-3.39,24.16c-6.91,4-21.42,6-30,4.31Z" fill="#a37abc"/>
    <path d="M2084.44,139.25,2061,143.91l18.2-29.45Z" fill="#a078b9"/>
    <path d="M1912.79,306,1931,276.51l5.31,24.68Z" fill="#a078b9"/>
 </g>
  </g>
  <g id="tur3">
    <g>
    <path d="M3073,1367H2305V1h768Zm-760.24-8h752.32V8.88H2312.76Z"/>
    <path d="M2312.76,1359V8.88h752.32V1359Zm166.33-824.77,13.94,5.41c1.09-2.58,2-4.67,2.87-6.8Q2522,466,2548.07,399.12c1.52-3.92,3.45-5.12,7.55-5,14,.27,28,.1,42,.1h9l-54.81,140.1,13.92,5.35c.83-1.83,1.5-3.16,2-4.53q26.61-68,53.15-136c1.27-3.26,2.56-5,6.61-5q110,.23,220,0c3.67,0,5.15,1.27,6.41,4.53q26.44,68.08,53.13,136.06c.64,1.64,1.42,3.23,2.23,5l13.83-5.51-54.77-140c13.24,0,25.4.16,37.55-.1,3.67-.08,5.6,1.24,7.55,4.18q36.35,55,72.93,109.8c3.76,5.65,7.49,11.32,11.43,17.27l12.66-8.36c-28.58-43-56.74-85.45-85-127.8a18.78,18.78,0,0,1-3.27-11.11q.14-102.49,0-205a17.68,17.68,0,0,0-2.17-8.42c-20.21-35.19-40.64-70.26-60.86-105.45-1.83-3.19-3.85-4.17-7.44-4.17q-186.23.15-372.45,0c-3.85,0-5.89,1.16-7.8,4.48-20.11,35.06-40.45,70-60.55,105.05a19.62,19.62,0,0,0-2.56,9.28c-.14,68-.07,136-.23,204a17.63,17.63,0,0,1-2.75,9.15q-38.34,58.15-77,116.09c-3,4.52-5.93,9.09-9.11,14l12.42,8.25c1.36-2,2.5-3.61,3.6-5.26q40.5-60.91,81.05-121.79c1.09-1.63,3-3.83,4.55-3.87,13.24-.31,26.5-.18,40.4-.18l-54.79,140.06,14,5.47,1.81-4.58q26.73-68.22,53.4-136.46c1.23-3.16,2.58-4.67,6.34-4.61,15.66.25,31.33.1,47,.12,1.38,0,2.77.22,4.79.4Zm53.22,276.48c3.54-6.19,7.74-12.07,10.48-18.56,8-19,9.43-39,6.72-59.29-1.89-14.18-6-27.67-14.83-39.23-13.66-17.89-34.18-17.94-48-.23a47.1,47.1,0,0,0-4.5,6.58c-13.23,24.71-14.23,50.86-8.65,77.64a72.31,72.31,0,0,0,15.83,32.69c-16.8,12.76-25.9,24.85-33.3,44.36-10.78,28.43-13.41,57.93-10.76,88,2,22.2,7.23,43.64,18.31,63.26,9.3,16.46,21.38,29.72,41,33.83.23,0,.38.49.69.91a74.05,74.05,0,0,0-7,36.76c.94,17.18,4.6,33.38,19.94,44.53l-30.85,97.1,14.28,4.45c.64-1.86,1.1-3.09,1.5-4.34q14.52-45.6,29-91.19c.54-1.69,1-3.8,2.26-4.8,4.54-3.66,9.4-6.93,14.33-10.5l18.41,111.83L2582,1222c-5.55-33.83-11-67.13-16.46-100.43-2.73-16.74-6-33.43-7.8-50.28-1.73-16.21-4.45-31.6-16.86-42.95,4.79-6.16,9.88-11.72,13.81-18a114.4,114.4,0,0,0,10.21-20.47c13.39-35.9,15.21-72.76,7.33-110C2566.43,852.46,2556.25,827.3,2532.31,810.74Zm163.46-29.42c3.84-7,8.24-13.33,11.05-20.34,7.89-19.64,8.88-40.12,5.57-60.87-2.13-13.3-6.3-25.86-14.75-36.61-13.4-17-33.63-17.17-47.05-.21a50.08,50.08,0,0,0-7.58,12.25c-14.46,36.61-13.12,71.91,9.11,105.57-19,16-27,27.07-34.28,48.89-12.31,36.81-13.33,74.16-4,111.67a156.29,156.29,0,0,0,11.34,30.76c9.1,18.62,22,33.6,43.76,37.91-6.55,15.38-8.68,27.5-6.76,44.22,1.5,13.08,5,25.7,15.65,34.58,3.19,2.65,3.46,4.64,2.28,8.25-7,21.48-13.79,43-20.63,64.57-2.89,9.1-5.75,18.21-8.69,27.53l14.24,4.45c.62-1.74,1.09-3,1.49-4.24q14.33-45.12,28.67-90.24c.65-2,1.05-4.63,2.51-5.84,4.58-3.8,9.6-7.06,14.49-10.55l18.4,111.85,14.36-2.35a24.69,24.69,0,0,0,0-3.69q-8.64-52.68-17.33-105.36c-2.28-13.95-5-27.86-6.39-41.9-1.63-16.22-4.53-31.59-17.44-43.31A87.78,87.78,0,0,0,2725,968.22c17.86-41.5,19.43-84.23,8.28-127.54C2727.17,816.89,2716.79,795.35,2695.77,781.32Zm186.06,279.82a94.16,94.16,0,0,0,23.31-34.42c14.63-36.3,16.66-73.78,9.19-111.8-5.56-28.26-15.88-54.22-40.17-71.09,3.72-6.78,8.22-13.13,10.89-20.17,10-26.35,9.83-53,.71-79.62-3.16-9.21-8-17.56-15.73-23.89-11.29-9.29-25.33-9.71-35.75.5a64.81,64.81,0,0,0-14.22,20.71c-10.16,24.34-10.34,49.51-3.35,74.81a70.55,70.55,0,0,0,14.55,27.4c-14.47,9.12-23.49,22.12-30.27,36.88-10.67,23.25-14.71,47.95-14.89,73.28-.21,29,4.43,57,18,83,6.49,12.41,14.72,23.5,27.3,30.39,4.86,2.66,10.28,4.28,15.63,6.45a71.46,71.46,0,0,0-7.13,32.67c.23,18.8,3.44,36.5,19.92,48.84l-30.84,97,14.29,4.42c.76-2.26,1.36-4,1.91-5.67q14.39-45.11,28.8-90.22c.53-1.65,1.18-3.61,2.43-4.62,4.45-3.59,9.18-6.84,14-10.36l18.42,111.88,14.84-2.49c-5.47-33.33-10.93-66-16.13-98.63-3.11-19.53-5.84-39.12-8.67-58.7C2896.9,1084,2893.44,1071,2881.83,1061.14ZM2742.74,462.82l1.3-.46,51.88,68.91L2808.1,522,2742,434.2h-14.18l-66.11,87.9,12.24,9.12L2726.17,462l1.16.36v61.55h15.41ZM2746,628V566l1.35-.42,52.36,69.47,12.19-9.23-66.08-87.75h-14.29l-66,87.78,12.23,9.15,52.36-69.47,1.22.55V628Z" fill="#a47bbe"/>
    <path d="M2479.09,534.26l54.64-139.67c-2-.17-3.41-.4-4.79-.4-15.66,0-31.33.13-47-.12-3.76-.06-5.11,1.45-6.34,4.61q-26.6,68.27-53.4,136.46l-1.81,4.58-14-5.47,54.79-140.06c-13.9,0-27.16-.13-40.4.18-1.56,0-3.46,2.23-4.55,3.87q-40.61,60.84-81.05,121.79c-1.1,1.65-2.24,3.27-3.6,5.26L2319.14,517c3.18-4.88,6.1-9.45,9.11-14q38.54-58,77-116.09a17.63,17.63,0,0,0,2.75-9.15c.15-68,.08-136,.23-204a19.62,19.62,0,0,1,2.56-9.28c20.1-35.06,40.44-70,60.55-105.05,1.91-3.33,3.95-4.49,7.8-4.48q186.23.17,372.45,0c3.6,0,5.61,1,7.44,4.17,20.22,35.19,40.65,70.26,60.86,105.45a17.68,17.68,0,0,1,2.17,8.42q.18,102.49,0,205a18.78,18.78,0,0,0,3.27,11.11c28.29,42.35,56.45,84.79,85,127.8l-12.66,8.36c-3.94-6-7.67-11.62-11.43-17.27q-36.49-54.88-72.93-109.8c-1.95-2.94-3.88-4.26-7.55-4.18-12.15.26-24.31.1-37.55.1l54.77,140-13.83,5.51c-.8-1.8-1.58-3.39-2.23-5q-26.61-68-53.13-136.06c-1.26-3.26-2.74-4.53-6.41-4.53q-110,.18-220,0c-4,0-5.34,1.73-6.61,5q-26.48,68.06-53.15,136c-.54,1.37-1.21,2.69-2,4.53l-13.92-5.35,54.81-140.1h-9c-14,0-28,.16-42-.1-4.1-.08-6,1.13-7.55,5q-25.91,66.95-52.18,133.75c-.83,2.13-1.77,4.22-2.87,6.8ZM2906.85,379V178.57H2423.48V378.76h186.84V238.46H2865V379Zm-5.75-216.05a17.42,17.42,0,0,0-.75-1.93q-25.37-43.84-50.69-87.71c-1.49-2.59-3.28-3.13-6-3.13q-178.24.08-356.48,0c-3.29,0-5,1.06-6.63,3.89-14.06,24.54-28.29,49-42.46,73.44-2.89,5-5.77,10-8.94,15.47Zm-51.59,216V253.53H2742.64L2745,377.87h-15l-2.41-124.31H2625.49V378.92Z" fill="#020203"/>
    <path d="M2532.31,810.74c23.94,16.56,34.12,41.73,39.91,69.13,7.88,37.28,6.06,74.14-7.33,110a114.4,114.4,0,0,1-10.21,20.47c-3.93,6.29-9,11.86-13.81,18,12.42,11.35,15.14,26.74,16.86,42.95,1.79,16.84,5.08,33.53,7.8,50.28,5.42,33.3,10.91,66.6,16.46,100.43l-14.85,2.45-18.41-111.83c-4.93,3.56-9.79,6.84-14.33,10.5-1.24,1-1.72,3.11-2.26,4.8q-14.56,45.58-29,91.19c-.4,1.25-.86,2.48-1.5,4.34l-14.28-4.45,30.85-97.1c-15.33-11.14-19-27.34-19.94-44.53a74.05,74.05,0,0,1,7-36.76c-.3-.42-.45-.86-.69-.91-19.57-4.11-31.65-17.36-41-33.83-11.08-19.61-16.35-41.05-18.31-63.26-2.65-30,0-59.52,10.76-88,7.4-19.51,16.5-31.6,33.3-44.36a72.31,72.31,0,0,1-15.83-32.69c-5.58-26.79-4.59-52.93,8.65-77.64a47.1,47.1,0,0,1,4.5-6.58c13.81-17.71,34.33-17.65,48,.23,8.83,11.57,12.93,25.05,14.83,39.23,2.71,20.29,1.31,40.26-6.72,59.29C2540,798.67,2535.85,804.55,2532.31,810.74Zm29.59,108.45c-.51-5.89-.83-15.24-2.24-24.42a185.48,185.48,0,0,0-5.84-25.72c-4.42-14.59-10.69-28.36-21.88-39.2-13.24-12.83-27.44-13.25-41.31-1.27C2482,836,2476.42,845.67,2472,856c-10.42,24.35-13.43,49.95-12.32,76.17.87,20.45,4.88,40.23,13.37,59,4.72,10.4,10.7,20,19.89,27.09,11.66,9,24.55,9.38,35.44-.53a82.83,82.83,0,0,0,16.37-20.47C2557.66,974.12,2561.19,948.63,2561.9,919.19Zm-30.59-142.7L2533,776c.9-7.66,2.37-15.31,2.6-23,.49-16.32-1.9-32.23-10.49-46.5-9-15-20-14.89-29.15,0-6.9,11.19-9.51,23.65-10.23,36.55-1,17.71,1,34.89,10.21,50.53,3.35,5.71,7.53,11.27,14.83,11.09,7.48-.18,11.29-6.15,15-12.08l-11.89-13.09,11.65-10.69Zm12.08,297.6c-.82-9.46-2.14-18.56-6.79-26.63-1.91-3.31-5.68-7.61-8.66-7.66s-7.08,4.19-8.67,7.52c-8.58,18-8.56,36.3.36,54.18,1.53,3.06,5.32,6.84,8.13,6.89s5.85-4,8.3-6.7a14.38,14.38,0,0,0,2.9-6.26C2540.6,1088.35,2541.93,1081.21,2543.38,1074.09Z" fill="#030204"/>
    <path d="M2695.77,781.32c21,14,31.39,35.57,37.52,59.37,11.15,43.31,9.57,86-8.28,127.54a87.78,87.78,0,0,1-21.29,30.11c12.91,11.72,15.81,27.09,17.44,43.31,1.41,14,4.11,28,6.39,41.9q8.61,52.69,17.33,105.36a24.69,24.69,0,0,1,0,3.69l-14.36,2.35-18.4-111.85c-4.88,3.49-9.91,6.75-14.49,10.55-1.46,1.21-1.86,3.8-2.51,5.84q-14.37,45.11-28.67,90.24c-.4,1.26-.88,2.49-1.49,4.24l-14.24-4.45c2.94-9.32,5.8-18.43,8.69-27.53,6.84-21.53,13.61-43.09,20.63-64.57,1.18-3.61.91-5.6-2.28-8.25-10.69-8.88-14.14-21.49-15.65-34.58-1.92-16.72.21-28.84,6.76-44.22-21.77-4.31-34.66-19.29-43.76-37.91a156.29,156.29,0,0,1-11.34-30.76c-9.3-37.51-8.28-74.87,4-111.67,7.3-21.82,15.27-32.91,34.28-48.89-22.23-33.66-23.57-69-9.11-105.57a50.08,50.08,0,0,1,7.58-12.25c13.42-17,33.66-16.82,47.05.21,8.45,10.75,12.63,23.31,14.75,36.61,3.32,20.75,2.32,41.23-5.57,60.87C2704,768,2699.62,774.35,2695.77,781.32Zm-73,111.4a172.85,172.85,0,0,0,8.15,54.54c4.62,14.19,10.73,27.63,21.71,38.19,13.48,13,28.75,13.51,41.88.22a80.19,80.19,0,0,0,16.13-23.09c17.85-40.12,18.68-81.47,6.48-123.28-4.28-14.66-10.73-28.34-21.93-39.17-13.62-13.17-29.44-13.18-42.68.38a79.17,79.17,0,0,0-12.47,16.7C2627.08,840.66,2623.17,866.32,2622.81,892.72Zm66.08-130L2677.33,750l12-11.16,6.56,9c1-6.48,2.18-11.54,2.63-16.65,1.63-18.55-.09-36.63-9.37-53.22-9-16.16-20.91-16.17-30.26-.28-.17.29-.36.56-.52.85-5.27,9.46-7.87,19.75-8.89,30.4-1.82,19.05-.14,37.64,9.6,54.61,8.94,15.57,20.66,15.48,29.71.05A3.65,3.65,0,0,0,2688.89,762.72Zm-12.56,277.52c.3,5.36-.16,9.36.87,12.93,2.13,7.4,4.28,15,7.86,21.73,3.21,6,8.12,5.81,12.28.38a35,35,0,0,0,4.94-9.12c3.66-10,5.16-20.47,2.86-30.85a86.2,86.2,0,0,0-8-21.63c-2.94-5.52-7.8-5.33-11.62-.35a32.34,32.34,0,0,0-5.38,10C2678.33,1029.26,2677.36,1035.5,2676.33,1040.23Z" fill="#030203"/>
    <path d="M2881.83,1061.14c11.61,9.81,15.07,22.85,17.06,36.6,2.83,19.57,5.56,39.17,8.67,58.7,5.2,32.67,10.66,65.3,16.13,98.63l-14.84,2.49-18.42-111.88c-4.82,3.52-9.55,6.76-14,10.36-1.25,1-1.9,3-2.43,4.62q-14.45,45.09-28.8,90.22c-.55,1.71-1.15,3.41-1.91,5.67l-14.29-4.42,30.84-97c-16.48-12.34-19.7-30-19.92-48.84a71.46,71.46,0,0,1,7.13-32.67c-5.35-2.17-10.77-3.79-15.63-6.45-12.58-6.89-20.81-18-27.3-30.39-13.6-26-18.24-54.07-18-83,.18-25.33,4.22-50,14.89-73.28,6.78-14.76,15.8-27.76,30.27-36.88a70.55,70.55,0,0,1-14.55-27.4c-7-25.3-6.81-50.47,3.35-74.81a64.81,64.81,0,0,1,14.22-20.71c10.42-10.2,24.46-9.79,35.75-.5,7.7,6.33,12.57,14.68,15.73,23.89,9.11,26.57,9.27,53.27-.71,79.62-2.67,7-7.17,13.39-10.89,20.17,24.29,16.86,34.61,42.83,40.17,71.09,7.48,38,5.44,75.49-9.19,111.8A94.16,94.16,0,0,1,2881.83,1061.14Zm21.54-103.58c-.07-23.75-3.14-44.87-11.21-65.08-4.79-12-10.85-23.24-20.94-31.74-12.21-10.29-25.23-10.4-37.58-.31-8.43,6.89-14.28,15.82-18.56,25.66-16.13,37.08-17.73,75.36-8.51,114.31,4,16.82,10.46,32.66,22.32,45.67,14.2,15.57,30.93,16,45.51.89a75.94,75.94,0,0,0,11.52-15.57C2899.08,1007.83,2903,982,2903.37,957.57ZM2855.5,812.68l11.44-10.51,7,8.18c4.32-18,5.11-35.25.25-52.2a79.6,79.6,0,0,0-10.26-22.45c-6.77-10-15.92-9.71-23.29-.2a48.75,48.75,0,0,0-6.52,11.14c-7.92,19.22-8.83,39.07-4.43,59.24,2,9.18,5.11,18,11.2,25.31,7.42,9,15.56,8.87,22.9-.09.74-.9,1.87-1.79,2-2.79.24-1.64.42-3.86-.46-5C2862.43,819.72,2859.06,816.48,2855.5,812.68Zm30,293.65c-2.05-7.93-3.87-16.3-6.46-24.43-1.41-4.42-4.15-9.32-9.28-9.39-5.42-.07-7.76,5.14-9.78,9.52a57.18,57.18,0,0,0-4.25,34.58,68.93,68.93,0,0,0,6.94,20c3.85,7.21,9.11,7,13.8.33a22.68,22.68,0,0,0,3.67-7C2882,1122.44,2883.56,1114.84,2885.46,1106.33Z" fill="#030203"/>
    <path d="M2742.74,462.82v61.06h-15.41V462.33l-1.16-.36L2674,531.23l-12.24-9.12,66.11-87.9H2742L2808.1,522l-12.18,9.29L2744,462.36Z" fill="#019241"/>
    <path d="M2746,628h-14.69v-61.9l-1.22-.55L2677.77,635l-12.23-9.15,66-87.78h14.29l66.08,87.75-12.19,9.23-52.36-69.47L2746,566Z" fill="#00923f"/>
    <path d="M2906.85,379H2865V238.46H2610.32v140.3H2423.48V178.57h483.37Z" fill="#a47bbe"/>
    <path d="M2901.09,162.9h-472c3.17-5.48,6-10.48,8.94-15.47,14.18-24.47,28.4-48.91,42.46-73.44,1.62-2.83,3.34-3.89,6.63-3.89q178.24.13,356.48,0c2.72,0,4.51.54,6,3.13q25.24,43.92,50.69,87.71A17.42,17.42,0,0,1,2901.09,162.9Z" fill="#a47bbe"/>
    <path d="M2849.51,378.92h-224V253.56h102.07L2730,377.87h15l-2.32-124.34h106.87Z" fill="#a47bbd"/>
    <path d="M2561.9,919.19c-.71,29.44-4.24,54.93-17.13,78a82.83,82.83,0,0,1-16.37,20.47c-10.89,9.91-23.79,9.57-35.44.53-9.19-7.13-15.18-16.68-19.89-27.09-8.49-18.72-12.5-38.5-13.37-59-1.11-26.22,1.9-51.82,12.32-76.17,4.42-10.32,10-20,18.62-27.41,13.88-12,28.08-11.55,41.31,1.27,11.19,10.85,17.46,24.61,21.88,39.2a185.48,185.48,0,0,1,5.84,25.72C2561.07,904,2561.39,913.3,2561.9,919.19Zm-28,59.93a7,7,0,0,0,0-1.56c-4.2-12.07-8.23-24.22-12.72-36.18-1.94-5.18-2.82-9.14,2.53-13.16,3-2.23,4.8-6.33,6.43-9.92,5.54-12.21,6-25.11,4.26-38.16-1.09-8.35-3.69-16.22-8.83-23-9.45-12.52-24.12-12.55-33.59,0a34.59,34.59,0,0,0-4.79,8.13c-7,18.17-7.47,36.51.85,54.27,2.47,5.28,7.7,9.27,11.65,13.86,1.64,1.9,3.54,3.66,4.76,5.81s1.69,4.67,2.51,7c4.38,12.51,8.76,25,13.21,37.7Z" fill="#a37bbd"/>
    <path d="M2531.31,776.49l-5.79-7.64-11.65,10.69,11.89,13.09c-3.7,5.93-7.51,11.89-15,12.08-7.3.18-11.48-5.38-14.83-11.09-9.17-15.65-11.2-32.83-10.21-50.53.72-12.91,3.33-25.37,10.23-36.55,9.19-14.9,20.13-15,29.15,0,8.59,14.27,11,30.18,10.49,46.5-.23,7.68-1.69,15.33-2.6,23Zm-5.82-29.11,6.15-13.76-18.18-8.17-6.14,13.74Z" fill="#a37abc"/>
    <path d="M2543.38,1074.09c-1.45,7.12-2.79,14.26-4.43,21.33a14.38,14.38,0,0,1-2.9,6.26c-2.45,2.7-5.54,6.75-8.3,6.7s-6.6-3.83-8.13-6.89c-8.93-17.88-8.95-36.2-.36-54.18,1.59-3.33,5.75-7.56,8.67-7.52s6.75,4.35,8.66,7.66C2541.24,1055.53,2542.56,1064.63,2543.38,1074.09Z" fill="#a27abc"/>
    <path d="M2622.81,892.72c.36-26.4,4.26-52.06,17.27-75.5a79.17,79.17,0,0,1,12.47-16.7c13.24-13.56,29.06-13.55,42.68-.38,11.2,10.83,17.65,24.51,21.93,39.17,12.2,41.81,11.37,83.16-6.48,123.28a80.19,80.19,0,0,1-16.13,23.09c-13.13,13.29-28.4,12.75-41.88-.22-11-10.57-17.09-24-21.71-38.19A172.85,172.85,0,0,1,2622.81,892.72Zm59.1,10.82c7.55-5.38,11.6-12.55,14-20.69a72.25,72.25,0,0,0,1-37.47c-2-8.34-5.19-16.16-11.81-22.05-8.08-7.19-19-7.16-26.38.72a45,45,0,0,0-8.62,13.19c-5.33,12.77-5.71,26.19-3.1,39.66,1.9,9.81,5.12,19.45,13.82,25.08,5.15,3.33,7.46,7.46,9,12.76.41,1.43.9,2.85,1.39,4.25,4.11,11.68,8.22,23.36,12.45,35.37l14.14-5.05Z" fill="#a37bbd"/>
    <path d="M2688.89,762.72a3.65,3.65,0,0,1-.11.88c-9,15.42-20.77,15.52-29.71-.05-9.74-17-11.42-35.56-9.6-54.61,1-10.65,3.62-20.94,8.89-30.4.16-.29.35-.56.52-.85,9.35-15.89,21.22-15.87,30.26.28,9.28,16.59,11,34.67,9.37,53.22-.45,5.11-1.58,10.17-2.63,16.65l-6.56-9-12,11.16Zm0-44.94,6.14-13.8-18.21-8.08-6.17,13.73Z" fill="#a37abc"/>
    <path d="M2676.33,1040.23c1-4.73,2-11,3.81-17a32.34,32.34,0,0,1,5.38-10c3.82-5,8.68-5.17,11.62.35a86.2,86.2,0,0,1,8,21.63c2.3,10.38.8,20.85-2.86,30.85a35,35,0,0,1-4.94,9.12c-4.16,5.44-9.07,5.66-12.28-.38-3.59-6.74-5.74-14.32-7.86-21.73C2676.18,1049.59,2676.63,1045.59,2676.33,1040.23Z" fill="#a37abd"/>
    <path d="M2903.37,957.57c-.33,24.46-4.29,50.27-17.45,73.84A75.94,75.94,0,0,1,2874.4,1047c-14.57,15.1-31.31,14.68-45.51-.89-11.87-13-18.34-28.85-22.32-45.67-9.23-38.95-7.62-77.23,8.51-114.31,4.28-9.84,10.13-18.77,18.56-25.66,12.36-10.1,25.37-10,37.58.31,10.09,8.5,16.15,19.73,20.94,31.74C2900.23,912.7,2903.29,933.82,2903.37,957.57ZM2861.92,1017l14.19-5c-4.19-12-7.92-23.73-12.36-35.15-2.48-6.35-3-10.67,2.43-16.7,11.24-12.4,11.85-28.43,10.33-44.3-1-10.24-3.95-19.94-11-27.8-8.87-9.83-21.88-9.7-30.33.5a40.15,40.15,0,0,0-6.87,11.47,70.06,70.06,0,0,0,0,49.77c2.59,7,6.75,12.87,13.3,17A11.39,11.39,0,0,1,2846,972C2851.42,986.78,2856.55,1001.68,2861.92,1017Z" fill="#a37bbd"/>
    <path d="M2855.5,812.68c3.56,3.8,6.93,7,9.8,10.66.88,1.11.69,3.34.46,5-.14,1-1.28,1.89-2,2.79-7.33,9-15.48,9.06-22.9.09-6.09-7.36-9.19-16.13-11.2-25.31-4.41-20.18-3.5-40,4.43-59.24a48.75,48.75,0,0,1,6.52-11.14c7.38-9.51,16.52-9.8,23.29.2a79.6,79.6,0,0,1,10.26,22.45c4.86,16.95,4.07,34.16-.25,52.2l-7-8.18ZM2849,772.32l18.29,8.07,6.13-13.75-18.2-8.08Z" fill="#a37abc"/>
    <path d="M2885.46,1106.33c-1.9,8.51-3.42,16.11-5.36,23.6a22.68,22.68,0,0,1-3.67,7c-4.69,6.66-9.95,6.88-13.8-.33a68.93,68.93,0,0,1-6.94-20,57.18,57.18,0,0,1,4.25-34.58c2-4.37,4.36-9.59,9.78-9.52,5.12.07,7.87,5,9.28,9.39C2881.58,1090,2883.41,1098.41,2885.46,1106.33Z" fill="#a37abd"/>
    <path d="M2533.94,979.12l-13.74,4.77c-4.44-12.68-8.83-25.18-13.21-37.7-.82-2.35-1.3-4.89-2.51-7s-3.12-3.91-4.76-5.81c-3.95-4.59-9.17-8.58-11.65-13.86-8.32-17.76-7.88-36.1-.85-54.27a34.59,34.59,0,0,1,4.79-8.13c9.47-12.53,24.13-12.51,33.59,0,5.14,6.81,7.74,14.68,8.83,23,1.7,13,1.28,26-4.26,38.16-1.63,3.59-3.46,7.69-6.43,9.92-5.36,4-4.48,8-2.53,13.16,4.49,12,8.52,24.11,12.72,36.18A7,7,0,0,1,2533.94,979.12Zm-13.79-87.84a43,43,0,0,0-5.27-23c-3.93-7-8.28-7.34-11.92-.29-8.14,15.82-8.2,32,.17,47.81,3.47,6.54,7.41,6.37,11.37,0C2519,908.47,2520.32,900.29,2520.14,891.28Z" fill="#030203"/>
    <path d="M2525.49,747.38l-18.18-8.2,6.14-13.74,18.18,8.17Z" fill="#040305"/>
    <path d="M2681.91,903.54l15.88,45.77-14.14,5.05c-4.23-12-8.34-23.69-12.45-35.37-.49-1.41-1-2.82-1.39-4.25-1.51-5.29-3.82-9.43-9-12.76-8.7-5.63-11.92-15.26-13.82-25.08-2.61-13.47-2.23-26.89,3.1-39.66a45,45,0,0,1,8.62-13.19c7.41-7.88,18.29-7.91,26.38-.72,6.62,5.89,9.82,13.71,11.81,22.05a72.25,72.25,0,0,1-1,37.47C2693.51,891,2689.46,898.15,2681.91,903.54ZM2659,861.73c2.41,8.25,4,16.27,7.12,23.58,3.36,7.77,8.42,7.74,12.21.07,7.77-15.7,7.73-31.71-.51-47.28-3.43-6.49-8.11-6.66-11.18,0C2663.25,845.48,2661.54,853.63,2659,861.73Z" fill="#030203"/>
    <path d="M2688.94,717.78l-18.23-8.14,6.17-13.73,18.21,8.08Z" fill="#040305"/>
    <path d="M2861.92,1017c-5.38-15.33-10.5-30.22-15.9-45a11.39,11.39,0,0,0-4.44-5.3c-6.54-4.09-10.7-10-13.3-17a70.06,70.06,0,0,1,0-49.77,40.15,40.15,0,0,1,6.87-11.47c8.45-10.2,21.46-10.33,30.33-.5,7.1,7.86,10.07,17.56,11,27.8,1.51,15.88.9,31.91-10.33,44.3-5.47,6-4.9,10.35-2.43,16.7,4.45,11.41,8.17,23.1,12.36,35.15Zm-23.05-92.48c0,8.42,1.37,16.54,5.61,23.93,3.91,6.83,8.29,7.06,11.86,0,8-15.8,8.13-32-.22-47.7-3.5-6.61-7.29-6.45-11.33-.08C2840.19,907.95,2839.07,916.14,2838.87,924.52Z" fill="#030203"/>
    <path d="M2849,772.32l6.22-13.76,18.2,8.08-6.13,13.75Z" fill="#040305"/>
    <path d="M2520.14,891.28c.17,9-1.12,17.19-5.65,24.49-4,6.39-7.91,6.57-11.37,0-8.37-15.79-8.31-32-.17-47.81,3.63-7.06,8-6.73,11.92.29A43,43,0,0,1,2520.14,891.28Z" fill="#a27abc"/>
    <path d="M2659,861.73c2.53-8.1,4.24-16.25,7.64-23.62,3.07-6.67,7.75-6.5,11.18,0,8.23,15.57,8.27,31.58.51,47.28-3.79,7.66-8.85,7.69-12.21-.07C2663,878,2661.42,870,2659,861.73Z" fill="#a27abc"/>
    <path d="M2838.86,924.52c.21-8.38,1.33-16.57,5.92-23.83,4-6.38,7.83-6.53,11.33.08,8.34,15.75,8.23,31.9.22,47.7-3.57,7-7.95,6.81-11.86,0C2840.24,941.06,2838.83,932.95,2838.86,924.52Z" fill="#a27abc"/>
 </g>
  </g>
  <g id="tur4">
    <g>
    <path d="M3073.19,1h767.75V1366.86H3073.19Zm7.8,7.75V1359.05H3833.1V8.77Z"/>
    <path d="M3081,8.77H3833.1V1359.05H3081ZM3575.11,705.9c53.28,25.92,107.81,2,130.6-40,23-42.42,11-96.27-28.42-124.9-38.93-28.31-95.24-23.2-127.19,11.41-17.1,18.52-26.58,40.3-26.84,65.44-.33,32.86,13.24,59.47,39,79.89-4.21,6.71-8.42,12.91-12.08,19.42-2.21,3.93-4.78,5.38-9.42,5.37q-150-.23-300-.12H3234c2.15,2,3.08,2.95,4,3.83,54,49.49,107.93,99.11,162.21,148.32,8.81,8,14.18,17.42,17.57,28.33a23.21,23.21,0,0,1,.86,9.74c-2.54,18.45-2,36.86-.15,55.31.91,9.06,3.18,18.43,1.81,27.19-8.2,52.39-25.61,102-46.67,150.52-1.05,2.43-2.28,3.54-5.14,3.51-24.33-.22-48.66-.27-73-.35-9.09,0-18.18,0-27.29,0v15.42h315.42v-15.13c-3.44,0-6.43,0-9.41,0-26.82.22-53.64.42-80.45.73-2.84,0-4.47-.67-5.73-3.47-20.13-44.83-36.92-90.8-47.68-138.82-1.87-8.36-4.06-16.62-2.92-25.58a230.47,230.47,0,0,0-1.5-71.11c-1.82-9.94,1.43-19.43,8.51-26.9,6.18-6.52,12.92-12.5,19.42-18.72q62.1-59.4,124.13-118.87c8-7.69,14.95-16.4,21.76-23.95h-45.06Zm-191.44-403c1.39-1.55,2.47-2.81,3.61-4,12.82-13.48,11.1-33.76-3.51-45.11-12.09-9.39-25.5-9-39.45-6.49-4.38.8-6.18,3.19-6.26,7.49-.15,7.48-.49,15-.75,22.43-.77,21.77-1.62,43.53-2.26,65.3-.21,7,3.45,10.45,10.46,10.29,4.65-.11,9.32-.34,13.93-.91,12.82-1.58,25.24-4.27,35.13-13.59,11.06-10.42,10.31-21.84-2.22-30.3C3389.61,306.18,3386.65,304.67,3383.67,302.93Zm-88.8-173.67c0-1.83.14-3.67,0-5.49-1.24-14.19-5.76-26.48-20.16-32.36a55.51,55.51,0,0,0-33.31-2.81c-31.68,6.92-50.06,53.62-37.12,79.58,13,26.11,52.2,31.53,72.3,9.83C3289.24,164.33,3294.82,147.76,3294.87,129.26Zm234,190.31c1.39.38,2.82.7,4.19,1.16,15.93,5.33,29.54,14.35,41.5,26,4.09,4,7.86,4.48,10.91,1.57,3.23-3.07,3-7.21-1-11.42a79.55,79.55,0,0,0-9.55-8.77c-5.81-4.35-11.93-8.3-17.82-12.35,4.63-2.5,9.48-4.62,13.79-7.55,10.25-7,14.46-16.78,10.6-27.56a48.08,48.08,0,0,0-10.54-16.54c-11.53-12-26.53-15.72-42.73-16.07-9.59-.21-12.5,2.09-12.33,11.59.14,7.82,1.62,15.75.7,23.42a348.37,348.37,0,0,0-1.57,59.81c.3,5.84,2.76,9,7.14,9s6.78-3.37,6.76-9.18C3528.86,335.07,3528.88,327.49,3528.88,319.57ZM3410.5,132.09l-1.11-.68c0-1.63,0-3.26,0-4.89.37-10.81.88-21.61,1.11-32.42.11-5.06-2.32-7.82-6.33-8s-6.89,2.72-7,7.47q-1,45.42-1.65,90.85c0,2.06.32,4.84,1.63,6.06,2.08,1.93,5.1,3.84,7.75,3.88,3.58.06,4.32-3.34,4.3-6.66-.08-10,0-20,0-30a35.94,35.94,0,0,1,.36-3.61l1.31-.78a69.25,69.25,0,0,0,5.41,6.48c8.33,7.89,16.55,15.91,25.31,23.3,3.57,3,8.25,5,12.72,6.58,3.67,1.33,7.34.53,8.79-4,1.31-4.12-.23-7-4.64-9.06-2.26-1-4.8-1.82-6.61-3.41-11.24-9.84-22.3-19.88-34.22-30.57,5.12-4.79,9.81-8.57,13.77-13,9.08-10.15,17.91-20.54,26.63-31,2.65-3.18,2.71-6.8-.81-9.7-3.1-2.55-6.82-1.91-10.06,1.77-4.4,5-8.61,10.16-13,15.13C3426.3,114.66,3418.38,123.36,3410.5,132.09Zm212.7,21c1.37,6.41,2.22,12.16,3.89,17.66a75.35,75.35,0,0,0,6.35,15.55c2.46,4.29,8.09,4.38,10.3.39,1.19-2.15,1.24-5.47.63-8-1.41-5.78-4-11.28-5.3-17.09-4.58-21.26-8.65-42.64-13.31-63.88-.62-2.84-3-6.39-5.51-7.33-1.72-.66-5.86,1.95-7.32,4.15-10.24,15.52-20,31.36-30.07,47-1.7,2.64-4.44,4.59-6.36,7.11a18.72,18.72,0,0,0-3,5.91c-1,3.35-1.2,7-2.36,10.24-1.65,4.69-4,9.12-5.77,13.77-1.84,4.89-.47,8.5,3.58,9.94,4.58,1.63,7.26-.81,9.08-4.68,3.23-6.91,6.38-13.87,9.67-20.75.59-1.23,1.53-3,2.59-3.2C3601.15,157.51,3612,155.37,3623.2,153.1Zm-148.09,162c1,5.15,1.59,9.78,3,14.14a177.3,177.3,0,0,0,7.12,19c1.34,3,4.5,3.94,7.73,2.64a6.2,6.2,0,0,0,4.09-7.16c-.18-1.31-.6-2.58-.91-3.87-5.06-21.13-10.18-42.26-15.16-63.41-1.52-6.46-2.24-13.14-4.12-19.48-1.8-6.07-6.61-6.82-10.84-2.14a48.5,48.5,0,0,0-5.19,6.7c-8.89,14.23-17.61,28.58-26.56,42.77-1.5,2.37-4.07,4-5.82,6.29-1.35,1.73-3.46,4.21-3,5.72,1.29,4.49-1.08,7.69-2.58,11.27-1.8,4.28-3.86,8.46-5.48,12.81-1.87,5-.58,8.39,3.38,10s7,0,9.33-5c3.2-6.75,6.17-13.61,9.5-20.3.77-1.55,2.43-3.37,4-3.71C3453.74,319.22,3464,317.32,3475.11,315.14Zm221.13-211.88c8,.73,14.65,1.62,21.28,1.84,5.93.2,9.44-5.34,6.37-10.11a9.45,9.45,0,0,0-6.51-3.66q-24.89-1.5-49.82-2.24c-5.65-.17-8.28,2.63-8.06,7.25s3.14,6.69,8.71,6.62c4.9-.06,9.81,0,14.05,0,0,20.73.19,41-.07,61.26-.15,11.36-.48,11.36-12.82,11.77-5.69.19-8.73,2.93-8.35,7.53.36,4.32,3.71,6.6,9.08,6.28q22.65-1.34,45.31-2.61c5.72-.32,9.18-5.33,6.27-10-1.22-1.93-4.44-3.43-6.87-3.62-6.2-.5-12.48-.17-18.57-.17ZM3168.52,89l-.51-1.36c-5.64,2.13-11.85,3.38-16.8,6.57-13.84,8.94-22.69,22.22-29.24,37.07a54.72,54.72,0,0,0-4.84,25.75c1.19,19,16.27,32.94,34.63,31.86,13.09-.77,23.7-7.09,33.13-15.7.93-.85,2.08-2.38,1.89-3.34-.52-2.59-1.06-5.87-2.85-7.29-1.49-1.18-5.18-.92-7.17.11-6.31,3.29-11.9,8.19-18.44,10.73-15.22,5.91-28.68-4.44-27.42-20.8,1.54-19.94,12.33-34.85,27.67-46.52,3.38-2.57,9.1-3.08,13.61-2.75,2.23.16,3.92,4.68,6.31,6.67,1.85,1.54,4.61,3.32,6.6,3s4.92-3.16,5-5A81,81,0,0,0,3189,91.2c-.6-3.8-4.53-5.75-7.16-3.79C3177.3,90.77,3172.9,88.53,3168.52,89Zm189,0a27.29,27.29,0,0,0-19.25,6.44c-17.56,14.26-29.34,32.1-32,55-2.12,18.32,9.85,35.49,27,38.06,16.51,2.47,29.75-5.1,41.28-16,2.67-2.52,2.29-6.14-.27-9.05s-5.38-3.05-8.47-1c-1.94,1.29-3.72,2.86-5.75,4-5.24,2.8-10.33,6.29-15.93,7.92-11.89,3.45-23.38-5.31-24.23-17.66-1.18-17.07,14.32-44.31,29.61-52,7.8-3.94,12.92-2.29,17.81,4.81,1.33,1.93,4.68,3.81,6.75,3.49s5.18-3.36,5.28-5.34A74.77,74.77,0,0,0,3378,90.89c-.63-3.5-4.4-5.32-6.94-3.52C3366.57,90.52,3362.17,88.74,3357.53,89Zm162.09,13.87c2.11,0,3.74-.06,5.36,0,9.31.41,18.61.93,27.92,1.24,4.71.16,7.67-2.48,7.6-6.64s-2.22-6.83-6.72-7c-1.16-.05-2.32-.24-3.48-.29q-35.63-1.5-71.26-2.95c-3.85-.15-6.37,1.81-7.07,5.62s.53,6.67,4.39,7.84a32.46,32.46,0,0,0,6.83,1.36c7.41.58,14.83,1,23.17,1.5.9,25.44,1.9,50.81,2.62,76.18.12,4.32,1.5,7.22,5.66,8.13s6.75-1.68,7.57-5.45A40.8,40.8,0,0,0,3523,172C3522,149.26,3520.81,126.51,3519.62,102.87ZM3748,180c.46-6.3,1.07-11.92,1.24-17.55q1.06-34.95,1.83-69.9c.11-5.43-4.7-8.89-9-6.31a10,10,0,0,0-4,7.15c-.66,17.47-.69,35-1.23,52.44-.35,11.31-1.32,22.6-1.85,33.91-.48,10.32,3,14.23,13.33,14.08a114.22,114.22,0,0,0,19.85-1.92c9.11-1.75,18.14-4,27-6.68,4.55-1.35,6.07-5.17,4.55-9.1-1.66-4.26-5.09-4.85-9.06-3.86-1.45.36-2.85.92-4.29,1.32C3774.15,176.94,3761.73,179.86,3748,180Z" fill="#a47bbe"/>
    <path d="M3575.11,705.9l-10.36,16.55h45.06C3603,730,3596,738.71,3588.05,746.4q-61.86,59.65-124.13,118.87c-6.5,6.22-13.25,12.2-19.42,18.72-7.08,7.48-10.34,17-8.51,26.9a230.47,230.47,0,0,1,1.5,71.11c-1.14,9,1.05,17.22,2.92,25.58,10.76,48,27.56,94,47.68,138.82,1.25,2.79,2.89,3.5,5.73,3.47,26.82-.31,53.63-.51,80.45-.73,3,0,6,0,9.41,0v15.13H3268.26v-15.42c9.11,0,18.2,0,27.29,0,24.33.08,48.66.13,73,.35,2.86,0,4.08-1.09,5.14-3.51,21.06-48.47,38.47-98.13,46.67-150.52,1.37-8.76-.91-18.13-1.81-27.19-1.84-18.45-2.39-36.86.15-55.31a23.21,23.21,0,0,0-.86-9.74c-3.39-10.91-8.76-20.34-17.57-28.33C3346,825.39,3292.07,775.77,3238,726.28c-1-.88-1.9-1.8-4-3.83h6.83q150,0,300,.12c4.64,0,7.21-1.45,9.42-5.37,3.66-6.51,7.86-12.71,12.08-19.42-25.78-20.42-39.36-47-39-79.89.25-25.14,9.74-46.92,26.84-65.44,32-34.61,88.27-39.71,127.19-11.41,39.37,28.63,51.47,82.48,28.42,124.9C3682.92,707.89,3628.39,731.82,3575.11,705.9ZM3427.43,879.24l147.95-141.52H3272.9Zm45.5,270.15a831.72,831.72,0,0,1-43.33-119.81c-10.07,41.06-24.13,80.53-41,119.81ZM3611.51,612.6l-11.72-71.86c-33.82,7.25-61.87,41.65-61,77.29l69.62-5C3609.19,612.93,3610,612.8,3611.51,612.6Zm70.76,60.28c23.42-25.72,24.52-65.25,12.13-86.59l-61.89,35.13Zm5.11-100c-18.73-27.4-52-38-72.69-34.29l11.3,69.13Zm-15.77,110.7-48.7-50.32-26.34,64.92C3624.33,705.65,3648.9,700.67,3671.61,683.6Zm-89,8.91,26.12-64.5-69.4,5.07C3544.66,659.7,3558.84,679.17,3582.6,692.51Z" fill="#030203"/>
    <path d="M3383.67,302.93c3,1.74,5.94,3.24,8.67,5.09,12.53,8.47,13.28,19.88,2.22,30.3-9.89,9.32-22.3,12-35.13,13.59-4.61.57-9.28.8-13.93.91-7,.16-10.67-3.3-10.46-10.29.64-21.77,1.5-43.54,2.26-65.3.26-7.48.61-15,.75-22.43.08-4.3,1.88-6.69,6.26-7.49,14-2.56,27.37-2.89,39.45,6.49,14.61,11.34,16.33,31.63,3.51,45.11C3386.14,300.12,3385.06,301.39,3383.67,302.93Zm-33.19-6.61c9.28,1.81,18.22.84,25.81-5.89,6.92-6.13,8.09-16,2.85-22.3-6.36-7.64-18.5-10.84-28.67-7.14Zm-1.94,15V339c4-.36,8-.49,11.87-1.09,9.08-1.4,18-3.2,25.08-9.86,4.65-4.4,4.58-6-.91-9.32C3373.69,312.16,3361.82,310.06,3348.54,311.37Z" fill="#030204"/>
    <path d="M3294.87,129.26c-.05,18.5-5.63,35.07-18.3,48.75-20.1,21.7-59.28,16.29-72.3-9.83-12.94-26,5.44-72.65,37.12-79.58a55.51,55.51,0,0,1,33.31,2.81c14.4,5.87,18.92,18.17,20.16,32.36C3295,125.59,3294.87,127.43,3294.87,129.26Zm-14,.3a49.92,49.92,0,0,0,0-6.47c-.93-7.08-2.82-13.73-9.5-17.76-11.28-6.8-29.47-5.45-39.32,3.39-11.58,10.39-17.5,23.66-18,39.18-.39,12.8,5.42,22.21,16.8,26.83,12.07,4.9,23.85,4.71,33.89-4.76C3276.3,159.07,3280.81,145.11,3280.9,129.56Z" fill="#030204"/>
    <path d="M3528.88,319.57c0,7.92,0,15.5,0,23.09,0,5.81-2.38,9.09-6.76,9.18s-6.84-3.12-7.14-9a348.37,348.37,0,0,1,1.57-59.81c.92-7.66-.56-15.6-.7-23.42-.17-9.49,2.74-11.8,12.33-11.59,16.2.36,31.2,4.11,42.73,16.07a48.08,48.08,0,0,1,10.54,16.54c3.86,10.79-.34,20.61-10.6,27.56-4.31,2.92-9.16,5-13.79,7.55,5.89,4,12,8,17.82,12.35a79.55,79.55,0,0,1,9.55,8.77c4,4.21,4.27,8.34,1,11.42-3.05,2.9-6.82,2.41-10.91-1.57-12-11.66-25.57-20.69-41.5-26C3531.69,320.27,3530.27,320,3528.88,319.57Zm.66-56.93v41c8.57,1.73,23.08-.27,30-4.31,11.24-6.56,12.44-14.95,3.39-24.16S3543,262.19,3529.54,262.64Z" fill="#030204"/>
    <path d="M3410.5,132.09c7.88-8.74,15.81-17.43,23.63-26.22,4.43-5,8.64-10.13,13-15.13,3.24-3.68,7-4.33,10.06-1.77,3.52,2.9,3.47,6.52.81,9.7-8.73,10.46-17.55,20.86-26.63,31-4,4.43-8.65,8.21-13.77,13,11.92,10.69,23,20.73,34.22,30.57,1.81,1.59,4.35,2.37,6.61,3.41,4.41,2,6,4.94,4.64,9.06-1.45,4.56-5.12,5.37-8.79,4-4.47-1.62-9.15-3.57-12.72-6.58-8.76-7.38-17-15.41-25.31-23.3a69.25,69.25,0,0,1-5.41-6.48l-1.31.78a35.94,35.94,0,0,0-.36,3.61c0,10-.07,20,0,30,0,3.32-.72,6.71-4.3,6.66-2.65,0-5.68-2-7.75-3.88-1.31-1.22-1.66-4-1.63-6.06q.68-45.43,1.65-90.85c.1-4.75,3-7.61,7-7.47s6.44,2.9,6.33,8c-.23,10.81-.74,21.61-1.11,32.42-.06,1.63,0,3.26,0,4.89Z" fill="#030204"/>
    <path d="M3623.2,153.1c-11.18,2.27-22.05,4.41-32.87,6.8-1.06.23-2,2-2.59,3.2-3.29,6.88-6.44,13.84-9.67,20.75-1.81,3.87-4.49,6.31-9.08,4.68-4.05-1.44-5.42-5-3.58-9.94,1.75-4.65,4.12-9.08,5.77-13.77,1.15-3.28,1.37-6.89,2.36-10.24a18.72,18.72,0,0,1,3-5.91c1.92-2.53,4.66-4.47,6.36-7.11,10.08-15.62,19.84-31.46,30.07-47,1.46-2.21,5.6-4.81,7.32-4.15,2.46.95,4.89,4.5,5.51,7.33,4.66,21.25,8.73,42.62,13.31,63.88,1.25,5.81,3.88,11.31,5.3,17.09.61,2.51.56,5.83-.63,8-2.21,4-7.84,3.9-10.3-.39a75.35,75.35,0,0,1-6.35-15.55C3625.42,165.26,3624.57,159.51,3623.2,153.1Zm-2.76-13.85-5.25-24.78L3597,143.91Z" fill="#030203"/>
    <path d="M3475.11,315.14c-11.08,2.18-21.37,4.07-31.59,6.34-1.55.34-3.2,2.16-4,3.71-3.33,6.68-6.3,13.55-9.5,20.3-2.36,5-5.47,6.56-9.33,5s-5.25-5-3.38-10c1.62-4.35,3.68-8.53,5.48-12.81,1.5-3.57,3.87-6.77,2.58-11.27-.44-1.51,1.68-4,3-5.72,1.75-2.25,4.32-3.92,5.82-6.29,9-14.19,17.67-28.53,26.56-42.77a48.5,48.5,0,0,1,5.19-6.7c4.23-4.69,9-3.94,10.84,2.14,1.88,6.34,2.6,13,4.12,19.48,5,21.15,10.09,42.28,15.16,63.41.31,1.29.73,2.56.91,3.87a6.2,6.2,0,0,1-4.09,7.16c-3.23,1.3-6.39.36-7.73-2.64a177.3,177.3,0,0,1-7.12-19C3476.7,324.92,3476.16,320.3,3475.11,315.14ZM3448.79,306l23.54-4.78L3467,276.51Z" fill="#030203"/>
    <path d="M3696.23,103.26v70.18c6.09,0,12.36-.34,18.57.17,2.43.2,5.65,1.69,6.87,3.62,2.91,4.62-.55,9.63-6.27,10q-22.66,1.28-45.31,2.61c-5.37.32-8.72-2-9.08-6.28-.38-4.6,2.66-7.34,8.35-7.53,12.35-.41,12.68-.41,12.82-11.77.26-20.26.07-40.53.07-61.26-4.24,0-9.15,0-14.05,0-5.57.07-8.5-2.12-8.71-6.62s2.41-7.42,8.06-7.25q24.92.75,49.82,2.24a9.45,9.45,0,0,1,6.51,3.66c3.08,4.78-.43,10.31-6.37,10.11C3710.88,104.88,3704.27,104,3696.23,103.26Z" fill="#040305"/>
    <path d="M3168.52,89c4.39-.5,8.78,1.74,13.28-1.62,2.63-2,6.55,0,7.16,3.79a81,81,0,0,1,1.14,16.8c-.1,1.86-3,4.67-5,5s-4.76-1.42-6.6-3c-2.39-2-4.08-6.51-6.31-6.67-4.51-.33-10.23.17-13.61,2.75-15.33,11.66-26.13,26.57-27.67,46.52-1.26,16.36,12.2,26.71,27.42,20.8,6.54-2.54,12.13-7.44,18.44-10.73,2-1,5.68-1.29,7.17-.11,1.79,1.42,2.33,4.7,2.85,7.29.19,1-1,2.49-1.89,3.34-9.42,8.61-20,14.93-33.13,15.7-18.35,1.08-33.44-12.88-34.63-31.86a54.72,54.72,0,0,1,4.84-25.75c6.55-14.85,15.4-28.13,29.24-37.07,5-3.2,11.17-4.44,16.8-6.57Z" fill="#030204"/>
    <path d="M3357.53,89c4.64-.26,9,1.52,13.49-1.64,2.53-1.8,6.3,0,6.94,3.52a74.77,74.77,0,0,1,1.43,16.76c-.1,2-3.2,5-5.28,5.34s-5.43-1.56-6.75-3.49c-4.89-7.1-10-8.75-17.81-4.81-15.29,7.72-30.8,35-29.61,52,.86,12.34,12.34,21.1,24.23,17.66,5.61-1.63,10.7-5.11,15.93-7.92,2-1.09,3.82-2.67,5.75-4,3.08-2.05,6-1.82,8.47,1s2.94,6.54.27,9.05c-11.54,10.87-24.77,18.44-41.28,16-17.16-2.57-29.14-19.74-27-38.06,2.65-22.91,14.43-40.76,32-55A27.29,27.29,0,0,1,3357.53,89Z" fill="#030204"/>
    <path d="M3519.62,102.87c1.19,23.64,2.39,46.39,3.42,69.15a40.8,40.8,0,0,1-.84,10.36c-.82,3.77-3.32,6.38-7.57,5.45s-5.54-3.81-5.66-8.13c-.72-25.37-1.71-50.74-2.62-76.18-8.35-.53-15.77-.92-23.17-1.5a32.46,32.46,0,0,1-6.83-1.36c-3.86-1.17-5.08-4.12-4.39-7.84s3.22-5.77,7.07-5.62q35.63,1.42,71.26,2.95c1.16,0,2.32.24,3.48.29,4.49.21,6.65,2.75,6.72,7s-2.89,6.79-7.6,6.64c-9.31-.31-18.61-.83-27.92-1.24C3523.36,102.81,3521.73,102.87,3519.62,102.87Z" fill="#040304"/>
    <path d="M3748,180c13.69-.1,26.11-3,38.45-6.43,1.44-.4,2.84-1,4.29-1.32,4-1,7.41-.4,9.06,3.86,1.53,3.93,0,7.75-4.55,9.1-8.89,2.64-17.93,4.93-27,6.68a114.22,114.22,0,0,1-19.85,1.92c-10.3.15-13.81-3.76-13.33-14.08.53-11.31,1.5-22.6,1.85-33.91.54-17.47.57-35,1.23-52.44a10,10,0,0,1,4-7.15c4.25-2.59,9.07.88,9,6.31q-.72,35-1.83,69.9C3749.11,168,3748.5,173.66,3748,180Z" fill="#030204"/>
    <path d="M3427.43,879.24,3272.9,737.72h302.48Z" fill="#fc071c"/>
    <path d="M3472.93,1149.39h-84.31c16.85-39.28,30.92-78.75,41-119.81A831.72,831.72,0,0,0,3472.93,1149.39Z" fill="#a37abd"/>
    <path d="M3611.51,612.6c-1.53.19-2.33.33-3.13.39l-69.62,5c-.84-35.65,27.21-70,61-77.29Z" fill="#fcfc00"/>
    <path d="M3682.27,672.88l-49.76-51.46,61.89-35.13C3706.79,607.63,3705.69,647.16,3682.27,672.88Z" fill="#fcfc00"/>
    <path d="M3687.39,572.9,3626,607.74l-11.3-69.13C3635.35,534.89,3668.65,545.5,3687.39,572.9Z" fill="#fbfb00"/>
    <path d="M3671.61,683.6c-22.71,17.07-47.28,22.05-75,14.6l26.34-64.92Z" fill="#fbfb00"/>
    <path d="M3582.6,692.51c-23.77-13.34-37.94-32.8-43.28-59.43l69.4-5.07Z" fill="#fbfb00"/>
    <path d="M3350.48,296.33V261c10.17-3.7,22.31-.5,28.67,7.14,5.24,6.29,4.06,16.18-2.85,22.3C3368.7,297.17,3359.77,298.14,3350.48,296.33Z" fill="#a37bbd"/>
    <path d="M3348.54,311.37c13.27-1.31,25.14.78,36,7.38,5.5,3.33,5.56,4.92.91,9.32-7,6.67-16,8.46-25.08,9.86-3.88.6-7.83.73-11.87,1.09Z" fill="#a279bb"/>
    <path d="M3280.9,129.56c-.08,15.56-4.6,29.51-16.15,40.4-10,9.47-21.82,9.66-33.89,4.76-11.38-4.62-17.19-14-16.8-26.83.47-15.52,6.4-28.78,18-39.18,9.85-8.85,28-10.19,39.32-3.39,6.69,4,8.57,10.68,9.5,17.76A49.92,49.92,0,0,1,3280.9,129.56Z" fill="#a37bbd"/>
    <path d="M3529.54,262.64c13.5-.45,24.47,3.41,33.38,12.48s7.85,17.6-3.39,24.16c-6.91,4-21.42,6-30,4.31Z" fill="#a37abc"/>
    <path d="M3620.44,139.25,3597,143.91l18.2-29.45Z" fill="#a078b9"/>
    <path d="M3448.79,306,3467,276.51l5.31,24.68Z" fill="#a078b9"/>
 </g>
  </g>
  <g id="tur5">
    <g>
    <path d="M3831,1h768V1367H3831q0-344.87,0-689.75Q3831,339.13,3831,1Zm7.93,7.91V1359.06h752.14V8.91Z" fill="#0a070c"/>
    <path d="M3831,1q0,338.13,0,676.25,0,344.87,0,689.75c-.33-.17-.94-.32-1-.5-.08-1.33,0-2.66,0-4q0-678.5,0-1357A21.71,21.71,0,0,1,3831,1Z" fill="#fefefe"/>
    <path d="M3838.93,8.91h752.14V1359.06H3838.93Zm210.12,402h42.16l-16.63,103.44,14.81,2.28,9.73-59,1.26-.59c1.29,1.87,2.9,3.6,3.79,5.65a91.65,91.65,0,0,1,3,9l14.37,44.89,14.31-4.55c-.6-1.94-1.08-3.48-1.57-5-4.8-15.21-9.7-30.39-14.3-45.67-.53-1.77.2-4.22,1-6,2.17-4.79,5.41-9.18,7-14.13,3.11-9.93,2.14-20-1.06-30.22h80.63V516h15.14V410.88h81.15c-.52,2.09-1,3.83-1.38,5.61-2.61,13.73-2.1,27,7.25,38.33,2,2.48,2.16,4.28,1.26,7-5.38,16.55-10.61,33.16-16,50.19l14.46,4.55c5.78-18.22,11.27-35.81,17-53.32.73-2.22,2.71-4,4.11-6l1.3.87,9.65,58.52,14.82-2.31L4339.65,411h35.9V515.83h15.12V410.89h83.57c-.59,2.88-1.26,5.42-1.61,8-1.84,13.61-1.13,26.6,8.9,37.46.78.84.69,3,.28,4.34-4,13-8.24,26-12.37,39-1.28,4-2.47,8.11-3.8,12.48l14.2,4.28c.55-1.42.88-2.17,1.13-3,5.34-16.78,10.62-33.59,16.1-50.32.7-2.13,2.48-3.9,3.77-5.84l1.55.7,9.7,58.68,14.78-2.46-16.61-103.31h32.86V515.77h14.62V204.35H3872.1v311.5h15.07v-105h33.45L3904,514.29l14.81,2.33,9.71-58.72,1.43-.6c1.29,1.81,3.09,3.45,3.77,5.47,3.26,9.6,6.21,19.3,9.28,29,2.6,8.16,5.21,16.32,7.93,24.85l14.4-4.61c-5.51-17.28-10.91-34-16.11-50.81-.49-1.58-.46-4.18.5-5.19,6.74-7.12,9.11-15.85,9.2-25.18.06-6.56-1-13.13-1.63-19.86h76.88V515.75h14.92Zm456.57,684.6c6.77,14.86,17.71,21.34,31.72,18.45,11.28-2.33,20.23-13,20.66-24.54.47-12.67-7.53-23.85-19.44-27a26.38,26.38,0,0,0-20.25,2.53c-6.53,3.65-10.38,9.4-13.22,17.63l-2.21-306.8H4352c0,2.57,0,4.38,0,6.18q.41,51.72.83,103.45.51,65.72,1,131.44.53,74,1,147.94c.18,32.33.2,64.66.34,97a53.37,53.37,0,0,0,.52,5.51h150.73v-46.54c7.92,13.68,18.72,19,31.43,16.09a26.88,26.88,0,0,0,20.14-23.43,26.56,26.56,0,0,0-16.55-27,26.27,26.27,0,0,0-20.42.24c-6.69,2.78-11.06,8-15.38,13.87ZM3979.38,35.77h-107v76.44h107Zm579.37,76.54V35.71h-107v76.61Zm-560.91-1.44,89.51,67.36,9.1-12.3-69.22-52.15.56-.9h52c10.2,0,10,0,10.21-10.42.07-4.07-1-5.48-5.3-5.43-17.66.22-35.32.1-53,.08-1.39,0-2.77-.16-5.27-.31l70-52.74-9.13-12.3-89.47,67.34C4001.77,103.1,4001.79,107,3997.84,110.88Zm344.23,67.32,87.8-66.08V97.88L4342,31.8,4332.86,44l69.34,52.28-.53,1.06h-61.51V113h63.06l-70.38,53ZM3988.24,951.93l69.4,52.31-.43,1.09h-61.74v15.78h62.88l-70.07,52.78,9.16,12.25,87.81-66.09c-.26-4.26-1.55-7.81-.35-10,1.85-3.34.4-4.28-1.76-5.9q-31.71-23.81-63.35-47.71c-7.37-5.55-14.81-11-22.42-16.67ZM4505,841.84a26.51,26.51,0,1,0,26.75-26.42A26.4,26.4,0,0,0,4505,841.84Zm53,123.06a26.59,26.59,0,1,0-26.6,26.67A26.55,26.55,0,0,0,4558,964.9Z" fill="#a47bbe"/>
    <path d="M4049.05,410.88V515.75h-14.92V410.94h-76.88c.59,6.72,1.69,13.3,1.63,19.86-.09,9.33-2.46,18.05-9.2,25.18-1,1-1,3.62-.5,5.19,5.2,16.8,10.6,33.53,16.11,50.81l-14.4,4.61c-2.73-8.54-5.34-16.69-7.93-24.85-3.07-9.66-6-19.36-9.28-29-.69-2-2.49-3.66-3.77-5.47l-1.43.6-9.71,58.72L3904,514.29l16.65-103.44h-33.45v105H3872.1V204.35h685.63V515.77h-14.62V410.93h-32.86l16.61,103.31-14.78,2.46-9.7-58.68-1.55-.7c-1.28,1.94-3.07,3.71-3.77,5.84-5.48,16.74-10.75,33.54-16.1,50.32-.25.78-.59,1.54-1.13,3l-14.2-4.28c1.33-4.37,2.52-8.44,3.8-12.48,4.13-13,8.33-25.95,12.37-39,.41-1.33.5-3.5-.28-4.34-10-10.86-10.74-23.86-8.9-37.46.35-2.59,1-5.13,1.61-8h-83.57V515.83h-15.12V411h-35.9l16.61,103.26-14.82,2.31-9.65-58.52-1.3-.87c-1.4,2-3.38,3.81-4.11,6-5.73,17.51-11.23,35.1-17,53.32L4294.92,512c5.42-17,10.65-33.64,16-50.19.89-2.75.78-4.54-1.26-7-9.34-11.35-9.86-24.6-7.25-38.33.34-1.78.86-3.52,1.38-5.61h-81.15V516h-15.14v-105H4126.9c3.21,10.19,4.18,20.29,1.06,30.22-1.55,4.95-4.8,9.34-7,14.13-.83,1.83-1.56,4.28-1,6,4.6,15.27,9.49,30.46,14.3,45.67.49,1.55,1,3.1,1.57,5l-14.31,4.55-14.37-44.89a91.65,91.65,0,0,0-3-9c-.9-2-2.5-3.78-3.79-5.65l-1.26.59-9.73,59-14.81-2.28,16.63-103.44Zm157.88-191.33h-157.4V395.09H4121v-142h15V395.05h71Zm15.53-.1V395.08h68V255.49h15.3V395H4375V219.44Zm168.57,0V395.12h69.76V255.47H4476V395.08h66.73V219.43Zm-425.34,33.62v142h68.05V219.51H3887.2V395h63.38V253.05Zm-27.17,158.38c-7.43,8.69-7.12,27.28.35,33.4C3945.93,436.59,3945.87,419.7,3938.52,411.44Zm383.09,33.68c7.5-8.41,7.24-27-.23-33.49C4314.32,419.92,4314.32,436.9,4321.61,445.12Zm170.49.06c7.6-8,7.53-26.52.11-33.37C4485.09,418.75,4484.9,436.09,4492.1,445.18Zm-382.63-33.59c-7.59,7-7.6,26.11-.24,33.33C4116.38,437.8,4116.63,420.65,4109.47,411.59Z" fill="#040305"/>
    <path d="M4505.62,1095.48v105c4.32-5.91,8.68-11.1,15.38-13.87a26.27,26.27,0,0,1,20.42-.24,26.56,26.56,0,0,1,16.55,27,26.88,26.88,0,0,1-20.14,23.43c-12.7,2.93-23.5-2.41-31.43-16.09v46.54H4355.66a53.37,53.37,0,0,1-.52-5.51c-.14-32.33-.16-64.66-.34-97q-.41-74-1-147.94-.47-65.72-1-131.44-.4-51.72-.83-103.45c0-1.8,0-3.61,0-6.18h150.9l2.21,306.8c2.84-8.23,6.69-14,13.22-17.63a26.38,26.38,0,0,1,20.25-2.53c11.91,3.12,19.91,14.3,19.44,27-.43,11.58-9.38,22.21-20.66,24.54C4523.33,1116.82,4512.38,1110.34,4505.62,1095.48ZM4367.8,790.67v109.7H4488V790.67Zm121,233V916h-120v107.58Zm1,119.7V1039.19h-120.4v104.14Zm.8,15.47H4370.38v93.5h120.27Zm40.69-59.39a11.41,11.41,0,1,0-11.33-11.54A11.7,11.7,0,0,0,4531.34,1099.41Zm.34,100.19a11.41,11.41,0,1,0,11.3,11.61A11.64,11.64,0,0,0,4531.68,1199.6Z" fill="#030204"/>
    <path d="M3979.38,35.77v76.44h-107V35.77Zm-15.31,30.31V51h-76.73v15.1Zm-76.87,31h76.86V82h-76.86Z" fill="#08060a"/>
    <path d="M4558.75,112.32h-107V35.71h107ZM4466.91,66h76.75V50.91h-76.75Zm0,31h76.77v-15h-76.77Z" fill="#08060a"/>
    <path d="M3997.84,110.88c3.95-3.91,3.93-7.79,0-11.77l89.47-67.34,9.13,12.3-70,52.74c2.5.15,3.88.31,5.27.31,17.66,0,35.33.14,53-.08,4.25-.05,5.37,1.36,5.3,5.43-.18,10.42,0,10.42-10.21,10.42h-52l-.56.9,69.22,52.15-9.1,12.3Z" fill="#019241"/>
    <path d="M4342.07,178.2l-9.23-12.2,70.38-53h-63.06V97.35h61.51l.53-1.06L4332.86,44,4342,31.8l87.83,66.08v14.24Z" fill="#019241"/>
    <path d="M3988.24,951.93l9.15-12.14c7.61,5.66,15,11.12,22.42,16.67q31.69,23.84,63.35,47.71c2.16,1.62,3.61,2.56,1.76,5.9-1.2,2.16.09,5.71.35,10l-87.81,66.09-9.16-12.25,70.07-52.78h-62.88v-15.78h61.74l.43-1.09Z" fill="#019241"/>
    <path d="M4505,841.84a26.51,26.51,0,1,1,26.44,26.74A26.41,26.41,0,0,1,4505,841.84Zm38-.13a11.49,11.49,0,1,0-11.23,11.69A11.71,11.71,0,0,0,4543,841.71Z" fill="#030203"/>
    <path d="M4558,964.9a26.59,26.59,0,1,1-26.29-26.48A26.58,26.58,0,0,1,4558,964.9Zm-15-.05a11.49,11.49,0,1,0-11.37,11.56A11.7,11.7,0,0,0,4543,964.85Z" fill="#030203"/>
    <path d="M4206.93,219.55V395.05h-71V253.12h-15v142h-71.43V219.55Z" fill="#a47bbd"/>
    <path d="M4222.46,219.44H4375V395h-69.2V255.49h-15.3V395.08h-68Z" fill="#a47bbe"/>
    <path d="M4391,219.43H4542.7V395.08H4476V255.47H4460.8V395.12H4391Z" fill="#a47bbe"/>
    <path d="M3965.69,253.05h-15.11V395H3887.2V219.51h146.55V395.06h-68.05Z" fill="#a47bbe"/>
    <path d="M3938.52,411.44c7.35,8.26,7.41,25.16.35,33.4C3931.4,438.71,3931.09,420.12,3938.52,411.44Z" fill="#9f78b8"/>
    <path d="M4321.61,445.12c-7.29-8.23-7.29-25.2-.23-33.49C4328.85,418.09,4329.11,436.71,4321.61,445.12Z" fill="#9f78b9"/>
    <path d="M4492.1,445.18c-7.21-9.09-7-26.43.11-33.37C4499.63,418.66,4499.7,437.17,4492.1,445.18Z" fill="#a078b9"/>
    <path d="M4109.47,411.59c7.16,9.07,6.91,26.22-.24,33.33C4101.87,437.7,4101.88,418.6,4109.47,411.59Z" fill="#a078b9"/>
    <path d="M4367.8,790.67H4488v109.7H4367.8Z" fill="#a47bbe"/>
    <path d="M4488.83,1023.63h-120V916h120Z" fill="#a47bbe"/>
    <path d="M4489.85,1143.33h-120.4V1039.19h120.4Z" fill="#a47bbe"/>
    <path d="M4490.65,1158.8v93.5H4370.38v-93.5Z" fill="#a47bbe"/>
    <path d="M4531.34,1099.41a11.41,11.41,0,1,1,11.64-11.28A11.63,11.63,0,0,1,4531.34,1099.41Z" fill="#a27abc"/>
    <path d="M4531.68,1199.6a11.41,11.41,0,1,1-11.67,11.2A11.69,11.69,0,0,1,4531.68,1199.6Z" fill="#a27abc"/>
    <path d="M3964.07,66.09h-76.73V51h76.73Z" fill="#a47cbe"/>
    <path d="M3887.21,97.09V82h76.86v15.1Z" fill="#a47cbe"/>
    <path d="M4466.91,66V50.91h76.75V66Z" fill="#a47cbe"/>
    <path d="M4466.91,97v-15h76.77V97Z" fill="#a47cbe"/>
    <path d="M4543,841.71a11.49,11.49,0,1,1-11.8-11.12A11.71,11.71,0,0,1,4543,841.71Z" fill="#a27abc"/>
    <path d="M4543,964.85a11.49,11.49,0,1,1-11.66-11.26A11.7,11.7,0,0,1,4543,964.85Z" fill="#a27abc"/>
  </g>
  </g>
	  </g>
</svg>
