<svg id="Layer_1" data-name="Layer 1" xmlns="http://www.w3.org/2000/svg" width="404.52" height="676.5" viewBox="0 0 404.52 676.5">
  <title>ekstatisk-01</title>
  <path d="M40.74,554.48,8.48,568.07S-10.64,586,10.32,581.18l53-12.2-2.68-19.08Z" transform="translate(0 94)" stroke="#000" stroke-miterlimit="10"/>
  <path d="M376.25,419l15.86,33.27s17.31,17.28,10.2-5.27l-18-57-14.84,7.68Z" transform="translate(0 94)" stroke="#000" stroke-miterlimit="10"/>
  <path d="M178-70.56c-.21,0-23.6,13.08-23.82,13.07-43.76-1.37-6.4,62.26-6.4,62.26,11.25-1.09,6.31,14.32,14.73,7.14.61-.52,13.75,29.43,20.47,26.45,2.32-1,16-10.24,16.48-10.62,5.58-5.12,9.18-3.84,3.73-41.09C200.35-32.59,189.8-73.68,178-70.56Z" transform="translate(0 94)" fill="#e7d0a5"/>
  <path d="M157.67,203.48C126.52,240.09,125.45,240,82.13,320.35c-12.89,23.89-20.67,107.49-49.79,218.4C29.17,550.83,43.55,572,51.52,564.34c13.6-13,51.79-87.45,57.94-128,7-45.91,56.16-102.5,62-89.58,23.13,51.19,32.93,50.33,32.93,50.33l83.07,77.56L376.79,421s2.14-21.26-14-31.57l-75.33,4.26c-11-16.52-34.92-64.89-34.67-81,.22-13.82-19.12-76.14-37.12-99.44C198.11,190.5,186.54,172.15,157.67,203.48Z" transform="translate(0 94)" fill="#46766a"/>
  <path d="M-104.83-36" transform="translate(0 94)" fill="#513d1d"/>
  <path d="M-51.52,40.86" transform="translate(0 94)" fill="#513d1d"/>
  <path d="M-104.83-26.33" transform="translate(0 94)" fill="#513d1d"/>
  <path d="M146.17-16.93c1.84-.27,6.15,1.82,6.45,5.12s-3.53,6.59-5.37,6.87-3.57-2.2-3.87-5.5S144.38-16.66,146.17-16.93Z" transform="translate(0 94)"/>
  <path d="M115.89,133.55l-1,18.09s-15.89,3-59.27-10.94c-35.71,29-31.89-9-24.59-8.73,26.13.9,60.43,1.75,68.16-1.71C125,118.64,115.89,133.55,115.89,133.55Z" transform="translate(0 94)" fill="#e7d0a5"/>
  <path d="M263.06,109.58l22.81,11.25s5,80,8.77,87.39c11.12,21.63,32-6.85,24.67-7.47-44.33-3.84,9.29-89.08-8.7-98.82C273.26,81.7,268.43,81.52,263.06,109.58Z" transform="translate(0 94)" fill="#e7d0a5"/>
  <path d="M107.8,186.81V161.21l6.73-52.86,28.58-65.68L181.64,29l41.16-8.06s62.33,39.35,60,48.87-31.09,59.88-31.09,59.88l.15,16.78-8.06,37.11,1,73.71L113.17,264Z" transform="translate(0 94)" fill="#534741"/>
  <path d="M200.8-35.15c13-5.3,10.2-37.11.35-48-11.77-16.32-33.4-11-41.15-4.73l-8.1,6.55s-45.71,44-25.51,58.29C140.62-13,174.52-73.87,200.8-35.15Z" transform="translate(0 94)" fill="#f15a24"/>
  <g>
    <path d="M156.9,96h72.25c.86,0,1,.22,1,1.28q-.06,18.87,0,37.75c0,1.1-.17,1.28-1,1.28H156.9a3.4,3.4,0,0,1-.35-2.12V98A3.28,3.28,0,0,1,156.9,96Z" transform="translate(0 94)" fill="#fefefe"/>
    <path d="M135.65,96h10.5a3,3,0,0,1,.35,1.8v9.89c0,1.89-.27,2.19-1.78,2.19h-7.48a2.69,2.69,0,0,1-1.47-.22,1.72,1.72,0,0,1-.46-1.36c-.05-.68,0-1.36,0-2v-3.72c-.06-1.59,0-3.17,0-4.76A3.13,3.13,0,0,1,135.65,96Z" transform="translate(0 94)" fill="#fefefe"/>
    <path d="M146.15,136.32h-10.5c-.59-1-.34-2.15-.37-3.25v-5.66c0-1,.06-1.77,0-2.65a2.58,2.58,0,0,1,.42-1.71,2,2,0,0,1,1.33-.28h7.73a1.82,1.82,0,0,1,1.44.36,3.15,3.15,0,0,1,.29,1.68v9.41A3.45,3.45,0,0,1,146.15,136.32Z" transform="translate(0 94)" fill="#fefefe"/>
    <path d="M135.65,96v6.72c-.81.79-1.5,1.77-2.29,2.56a1.91,1.91,0,0,1-1.23.64c-.54,0-1.06-.23-1.6-.26a2.2,2.2,0,0,0-2.41,1.73,3.16,3.16,0,0,0,1,3.3,4.43,4.43,0,0,1,.6.56,1.21,1.21,0,0,1-.18,1.09c-.54.47-1.41.23-1.68,1.28-.68,1.06-1.09,2.33-1.69,3.46-.24.45-.35,1.11-1,1V97c0-.84.09-1.1.81-1.09C129.18,96.07,132.41,96,135.65,96Z" transform="translate(0 94)" fill="#003460"/>
    <path d="M135.68,123.31l-.05,1.51a65,65,0,0,0-1.73,6.55c-.13.64-.27,1.86-1.11.6-.16-.6,0-1.28-.12-1.84a19.75,19.75,0,0,1-.14-2.09c0-.32.24-.56.49-.54s.47-.32.58-.69a31.82,31.82,0,0,1,10.29-16.33c.07,0,.17-.1.2-.18s0-.17-.16-.14h-6.58a2.43,2.43,0,0,1-1.66-.35.43.43,0,0,1,0-.5c3.27,0,6.54,0,9.82.14.82,0,.69-.63.69-1.28V95.94h.25a2.5,2.5,0,0,1,.34,1.51v9.09a10.23,10.23,0,0,0,0,1.16c.47.75.9.08,1.29-.12a16.62,16.62,0,0,1,8.55-2.11,1,1,0,0,1,.15.69,1,1,0,0,1-.1.47c-1.12.87-2.43.61-3.64.93a22.49,22.49,0,0,0-12.12,8c-1.91,2-3.19,4.76-4.65,7.29C136.09,123.1,135.78,123,135.68,123.31Z" transform="translate(0 94)" fill="#29547c"/>
    <path d="M146.15,136.32V123.23a.29.29,0,0,1,.36.14,3.69,3.69,0,0,1,.23,1.51v4.9c-.09.84.18,1.77-.26,2.56a22.34,22.34,0,0,1,2.29-4.47,11,11,0,0,1,7-4.76.93.93,0,0,1,1,.13,3.68,3.68,0,0,1,0,1.28c-1.11.84-2.43.82-3.61,1.54a13,13,0,0,0-5.57,8.3,6.06,6.06,0,0,1-.66,2Z" transform="translate(0 94)" fill="#5c7c9f"/>
    <path d="M126.65,136.32c-1.28.36-1.74-.27-1.52-1.92a19.9,19.9,0,0,0,0-2.56,46.06,46.06,0,0,1,1.51-7.59c.2-.59.17-1.74,1.15-1.2A14.37,14.37,0,0,1,128,127a69.61,69.61,0,0,0-1,8.48A1.6,1.6,0,0,1,126.65,136.32Z" transform="translate(0 94)" fill="#0f3f6a"/>
    <path d="M146.9,136.32c.56-6.45,4.67-11.45,9.73-11.84a1.21,1.21,0,0,1,.09.93,1.37,1.37,0,0,1-1,.63c-3.83.74-6.86,4.54-7.52,9.42a1.94,1.94,0,0,1-.32.84Z" transform="translate(0 94)" fill="#5e7ea1"/>
    <path d="M149.15,136.32h-.75a1.65,1.65,0,0,1-.15-1.34c.8-4.24,3.33-7.59,6.61-8.75a1.62,1.62,0,0,1,1.81.1,1.87,1.87,0,0,1,.07,1c-.33.58-.87.58-1.33.75-2.61.89-4.7,3.41-5.54,6.69C149.71,135.34,149.66,136,149.15,136.32Z" transform="translate(0 94)" fill="#6482a5"/>
    <path d="M149.15,136.32a12,12,0,0,1,4-7.47,6.5,6.5,0,0,1,3.48-1.48c.24.37.11.79.12,1.19-.16.38-.46.42-.74.5-2.49.64-4.53,2.94-5.33,6a3.47,3.47,0,0,1-.53,1.28Z" transform="translate(0 94)" fill="#6785a7"/>
    <path d="M132.9,131.84c.72.9.68-.13.73-.54a35,35,0,0,1,1.2-5,2.41,2.41,0,0,1,.81-1.52v2.56a72,72,0,0,0-1.35,7.49,3,3,0,0,1-.38,1.46h-.75a6,6,0,0,1-.52-2.19c-.15-.73-.2-1.52-1-1.65-.27,0-.69-.2-.38-.81A1.22,1.22,0,0,1,132.9,131.84Z" transform="translate(0 94)" fill="#2c577e"/>
    <path d="M127.63,122.9c-.91,1.42-1,3.26-1.51,4.89-.42,1.28-.13,2.93-1,4.07v-4.8c.61-1.73.78-3.63,1.39-5.35a8.61,8.61,0,0,1,1-2.32c.9,0,1,1.14,1.44,1.82a1.48,1.48,0,0,1-.27.81A9,9,0,0,0,127.63,122.9Z" transform="translate(0 94)" fill="#0c3d68"/>
    <path d="M146.43,98.91V97.63c1.31-1,2.83-1,4.22-1.6h6a.67.67,0,0,1,0,.75c-.85.6-1.8.24-2.69.44a38.48,38.48,0,0,0-6,1.66C147.47,99.09,146.95,99.43,146.43,98.91Z" transform="translate(0 94)" fill="#0c3d68"/>
    <path d="M156.63,126.42c-4-.18-8,4.8-8.23,9.92h-.5c.34-5.25,3.37-9.57,7.41-10.57.45-.08.89-.2,1.33-.31A.87.87,0,0,1,156.63,126.42Z" transform="translate(0 94)" fill="#6180a3"/>
    <path d="M150.15,136.32c.47-4.2,3.17-7.41,6.48-7.68a1.19,1.19,0,0,1,.1.91c-1.24.88-2.72,1.2-3.68,2.78a10.28,10.28,0,0,0-1.5,2.88,1.83,1.83,0,0,1-.66,1.11Z" transform="translate(0 94)" fill="#6a88a9"/>
    <path d="M156.63,129.62v-6.4a1.9,1.9,0,0,1-.31-1.2V107.8a4.91,4.91,0,0,1,0-.72,1.41,1.41,0,0,1,.27-.61.93.93,0,0,0,0-.28c0-.14.1-.17.19,0v30.16H155a1.14,1.14,0,0,1,.4-1.46,2.64,2.64,0,0,0,.77-2.35v-1q0-.5,0-1A1.72,1.72,0,0,1,156.63,129.62Z" transform="translate(0 94)" fill="#7e98b6"/>
    <path d="M126.65,136.32c-.17-3.21.55-6.26,1-9.35a1.53,1.53,0,0,1,1.92-.08,1.3,1.3,0,0,1-.1,1.5c-1.41.6-1.64,2-1.52,3.65a14.31,14.31,0,0,0,.1,2.06,4.59,4.59,0,0,1-.42,2.21Z" transform="translate(0 94)" fill="#16456f"/>
    <path d="M125.15,123.53v-2.88q.82-2.46,1.85-4.8a3.33,3.33,0,0,1,1-1.52,1.6,1.6,0,0,1,1.56.08c.38.75-.14,1-.46,1.37-.9.4-1.09,1.43-1.32,2.43a33.47,33.47,0,0,0-1.53,3.93C126,122.76,125.93,123.62,125.15,123.53Z" transform="translate(0 94)" fill="#063964"/>
    <path d="M156.63,129.62v1c-.78.67-1.71,1-2.47,1.73a10.05,10.05,0,0,0-2.26,4h-1a8.71,8.71,0,0,1,4.65-6.49A5.51,5.51,0,0,1,156.63,129.62Z" transform="translate(0 94)" fill="#6d8aab"/>
    <path d="M125.15,123.53c.83-.69.83-2,1.28-2.93s.52-1.88,1.18-2.56a1,1,0,0,1,.15,1.14.79.79,0,0,1-.1.14,53.64,53.64,0,0,0-1.86,6.62,1.45,1.45,0,0,1-.65,1.09Z" transform="translate(0 94)" fill="#083b65"/>
    <path d="M156.64,132.48c0,1.07.18,2.2-.93,2.69a1.25,1.25,0,0,0-.56,1.15H153.4c0-2.08,1.24-3.8,2.86-3.86A2.3,2.3,0,0,1,156.64,132.48Z" transform="translate(0 94)" fill="#7691b1"/>
    <path d="M151.9,136.32c.4-3.06,2.33-5.4,4.74-5.76v1a2.84,2.84,0,0,1-1.16.86c-1.44.74-2.09,2.39-2.83,4Z" transform="translate(0 94)" fill="#708cad"/>
    <path d="M127.9,114.57a44.42,44.42,0,0,0-2.27,5.63.54.54,0,0,1-.48.41v-2.56a10.7,10.7,0,0,0,1.49-2.88c.28-.59.46-1.28,1-1.6a.7.7,0,0,1,.24.45A2.1,2.1,0,0,1,127.9,114.57Z" transform="translate(0 94)" fill="#033662"/>
    <path d="M133.9,136.32a40.63,40.63,0,0,1,1.27-8.27,1,1,0,0,1,.47-.69v2.88a27.22,27.22,0,0,0-.64,4.2,3.91,3.91,0,0,1-.6,1.88Z" transform="translate(0 94)" fill="#2e5880"/>
    <path d="M152.65,136.32c.37-2.55,2-4.49,4-4.8v1a4.58,4.58,0,0,0-3.24,3.84Z" transform="translate(0 94)" fill="#738eaf"/>
    <path d="M134.4,136.32c.18-1.5.32-3,.56-4.48.09-.58.13-1.28.67-1.6v6.08Z" transform="translate(0 94)" fill="#315a82"/>
    <path d="M150.65,96a7.76,7.76,0,0,1-4.22,1.6V96Z" transform="translate(0 94)" fill="#083a65"/>
    <path d="M132.88,134a5.22,5.22,0,0,1,.26,2.29h-1.5a2.34,2.34,0,0,1-.08-2.26A.84.84,0,0,1,132.88,134Z" transform="translate(0 94)" fill="#27537b"/>
    <path d="M129.65,136.32H128.4a2.32,2.32,0,0,1-.06-2.3.94.94,0,0,1,1.37,0A2.31,2.31,0,0,1,129.65,136.32Z" transform="translate(0 94)" fill="#1b4972"/>
    <path d="M156.86,106.25h-.19v-.68a1.87,1.87,0,0,1-.28-.91V98.5q0-.5,0-1a1.89,1.89,0,0,1,.28-.93v-.64h.25Z" transform="translate(0 94)" fill="#3d648a"/>
    <path d="M129.65,136.32V134.1a.84.84,0,0,1,1.24-.14,2.54,2.54,0,0,1-.23,2.35Z" transform="translate(0 94)" fill="#204d76"/>
    <path d="M130.65,136.32a7.25,7.25,0,0,1,.25-2.21.43.43,0,0,1,.71-.06l0,.06v2.21Z" transform="translate(0 94)" fill="#235078"/>
    <path d="M128.4,134.12v2.2h-.75a5.14,5.14,0,0,1,.25-2.24.3.3,0,0,1,.49,0Z" transform="translate(0 94)" fill="#174670"/>
    <path d="M173.93,113.94c-1.46.56-2.41.15-2.87-1.61-.12-.45-.39-.82-.53-1.28-.22-.72-.65-.73-1.12-.67-.67.09-.43.75-.46,1.28a9.19,9.19,0,0,0,0,1.43c.09,1-.38,1.07-1,1.1s-.82-.38-.81-1.15v-7.83c0-.86.13-1.28.89-1.22,1.08.09,2.17,0,3.25.09,1.3,0,2.36,1.36,2.36,3a3.34,3.34,0,0,1-1,2.45c-.43.35-.43.63-.19,1.13C172.95,111.7,173.41,112.77,173.93,113.94Z" transform="translate(0 94)" fill="#757779"/>
    <path d="M181.59,111.9a5.45,5.45,0,0,0,2.16.18c.75,0,1.46.18,1.63,1.28a2.58,2.58,0,0,1-.88,2.75,3.54,3.54,0,0,1-4,.08,1.59,1.59,0,0,1-.47-2.46c.32-.45.08-.7.11-1,.13-1.52-.14-3,0-4.53a1.81,1.81,0,0,1,2-1.87,2.36,2.36,0,0,0,2.08-.68c.29-.35.84-.56,1.11-.06a1.67,1.67,0,0,1-.06,1.64,1.45,1.45,0,0,0-.38,1c0,2.56-.47,3.11-2.5,3.22A.69.69,0,0,0,181.59,111.9Z" transform="translate(0 94)" fill="#757779"/>
    <path d="M167.15,122.9v-3.67c0-.88.08-1.36.92-1.36s.93.59.88,1.41v.64a2,2,0,0,0,1.43,2.22,1.32,1.32,0,0,0,1-.28c.3-.17.3-.46.3-.77q0-1,0-1.92c-.07-.95.16-1.28,1-1.28s1,.41,1,1.28v7.68c0,1-.32,1.28-1,1.28s-1-.32-.9-1.2V125c.08-.95-.25-1.16-.93-1.14-2.23.08-1.73-.2-1.8,2.28,0,.91.36,2.14-1,2-.61-.08-.77-.33-.76-1C167.17,125.66,167.15,124.28,167.15,122.9Z" transform="translate(0 94)" fill="#757779"/>
    <path d="M195,120.62v-1.5c-.06-.86.17-1.28.9-1.28s1,.33,1,1.28q-.07,3.84,0,7.68c0,1-.2,1.37-1,1.28a3.65,3.65,0,0,0-2.12.14,1.55,1.55,0,0,1-2-1.28,7.11,7.11,0,0,1,.08-5.49C192.59,120,193.71,120,195,120.62Z" transform="translate(0 94)" fill="#767779"/>
    <path d="M216.15,120.6V119c-.06-.81.14-1.15.82-1.14s1,.12,1,1.11v7.5c0,1.54-.48,2.07-1.55,1.48a.65.65,0,0,0-.87,0,1.68,1.68,0,0,1-2.59-.86,2.83,2.83,0,0,1-.2-.63,8.1,8.1,0,0,1,0-4.22C213.17,120.47,214.24,119.94,216.15,120.6Z" transform="translate(0 94)" fill="#757779"/>
    <path d="M224.69,124.19v-2.88c0-.44,0-1,.47-.88a10.75,10.75,0,0,0,3.12-.12,1.52,1.52,0,0,1,1.36,1.57,37.78,37.78,0,0,1,.16,5.41c0,.95-.55.74-1,.75s-1,.17-.93-.81v-3.84c0-.63,0-1.28-.68-1.28s-.64.69-.65,1.28v3.67c0,1-.43,1-1,1s-1-.09-.92-1S224.69,125.15,224.69,124.19Z" transform="translate(0 94)" fill="#76787a"/>
    <path d="M211.86,125.09v.64c0,2.19,0,2.18-1.79,2.18a3.24,3.24,0,0,0-.83.29A1.64,1.64,0,0,1,207,127a2.7,2.7,0,0,1-.08-.32,2.58,2.58,0,0,1,1.18-3,1.53,1.53,0,0,1,.33-.1c.24-.08.49-.1.74-.18s.63,0,.73-.41a.76.76,0,0,0-.14-.55.56.56,0,0,0-.91.08c-.46.69-.92.15-1.38.1-.68-.06-.58-.56-.33-1.1a2.55,2.55,0,0,1,3.16-1.13,2.36,2.36,0,0,1,1.57,2.56C211.87,123.6,211.86,124.35,211.86,125.09Z" transform="translate(0 94)" fill="#767779"/>
    <path d="M176.78,114.29a2.37,2.37,0,0,1-2.46-1.88,6.12,6.12,0,0,1,.38-5,2.22,2.22,0,0,1,2.71-1.07,3.93,3.93,0,0,1,1.95,4c-.08.59-.38.63-.72.64h-1.87c-.27,0-.62-.15-.78.26s.07.61.25.83a.6.6,0,0,0,.91.15,2.83,2.83,0,0,0,.34-.46.94.94,0,0,1,1.48.08c.51.45,0,1-.26,1.47A2,2,0,0,1,176.78,114.29Z" transform="translate(0 94)" fill="#757779"/>
    <path d="M195.11,110.24v-2.88c0-.52,0-1,.57-1a11.58,11.58,0,0,0,2.87-.08c1-.18,1.5.86,1.56,2,.08,1.65,0,3.3,0,5,0,.93-.44.84-.91.86s-1,0-1-.93v-3.52c0-.61.24-1.57-.65-1.51s-.63.95-.64,1.61v3.35c0,1.11-.37,1-.94,1s-1-.13-.91-1S195.11,111.2,195.11,110.24Z" transform="translate(0 94)" fill="#76787a"/>
    <path d="M188.9,110.18c0-2.64.92-3.94,2.73-3.93s2.75,1.41,2.73,4.12-.93,3.92-2.76,3.92S188.89,113,188.9,110.18Z" transform="translate(0 94)" fill="#757779"/>
    <path d="M189.42,125.4c.42.22,1.15-.09,1.21.75a2,2,0,0,1-1,1.74c-1.3,1-3,.37-3.71-1.29a4.11,4.11,0,0,1-.29-.94c-.52-2.82.47-5.12,2.29-5.39,1.22-.35,2.44.64,2.71,2.21q0,.12,0,.24.15,1,.2,2c-.89.5-1.91.15-2.91.77C188.57,126.09,189,125.15,189.42,125.4Z" transform="translate(0 94)" fill="#76787a"/>
    <path d="M174.3,124.4c0-2.71.93-4.18,2.73-4.18s2.73,1.45,2.76,4-.93,4-2.69,4.07S174.33,127,174.3,124.4Z" transform="translate(0 94)" fill="#757779"/>
    <path d="M222.67,125.41c.38.24,1.06,0,1.11.69a2.1,2.1,0,0,1-.76,1.56,2.35,2.35,0,0,1-3.79-.72,3.83,3.83,0,0,1-.34-.78,5.93,5.93,0,0,1,.5-4.82,2.2,2.2,0,0,1,2.59-1c1.43.31,1.76,1.71,2,3.24.22.95.1,1.52-.84,1.45a4.88,4.88,0,0,0-1.78.46C221.8,125.88,222.21,125,222.67,125.41Z" transform="translate(0 94)" fill="#76787a"/>
    <path d="M199.82,128.33a2.43,2.43,0,0,1-1.75-.72c-.37-.35-.84-.92-.56-1.41a1.06,1.06,0,0,1,1.56-.35c.18.1.28.42.46.5.41.17.92.22,1.07-.4s-.38-.67-.72-.79a1.87,1.87,0,0,1-.49-.14,2.42,2.42,0,0,1-.18-4.67,2.46,2.46,0,0,1,3,1.28c.09.24.24.51,0,.7a1.55,1.55,0,0,1-1.3.37c-.22,0-.4-.35-.62-.49a.51.51,0,0,0-.81.19l0,.09c-.16.54.3.52.54.64a6.15,6.15,0,0,0,.85.24,2.16,2.16,0,0,1,1.73,2.3,2.5,2.5,0,0,1-1.89,2.56A5.5,5.5,0,0,1,199.82,128.33Z" transform="translate(0 94)" fill="#767779"/>
    <path d="M182.88,124.17a25.07,25.07,0,0,0,.4-2.48c.09-1.41.82-1.28,1.59-1.28.47,0,.56.28.43.81-.52,2.07-1,4.13-1.54,6.22-.19.81-.67.65-1.1.65s-.91.15-1.1-.65c-.48-2.09-1-4.15-1.53-6.22-.1-.38-.16-.84.29-.75s1.32-.58,1.58.6.37,2.07.54,3.1C182.58,124.44,182.72,124.42,182.88,124.17Z" transform="translate(0 94)" fill="#76787a"/>
    <path d="M205.06,128.3c-.83.09-1.56-.7-1.63-1.76q0-.1,0-.2v-2.56c0-.6.28-1.34-.56-1.64-.37-.13-.29-1.28-.11-1.41.57-.37.61-1.15,1-1.6s.85-1.18,1.34-1,.2,1,.25,1.57.13.73.51.72c.53,0,.61.38.59.92s0,1-.54,1-.59.49-.54,1c.11,1.16-.51,2.66.91,3.29a1.11,1.11,0,0,1,.27,1.13C206.18,128.31,205.59,128.29,205.06,128.3Z" transform="translate(0 94)" fill="#76787a"/>
    <path d="M188.12,110.36v2.39c.06,1-.15,1.45-1,1.43s-1-.47-.94-1.37q.06-2.56,0-5.12c0-.91.14-1.37,1-1.36s1.07.28,1,1.28S188.12,109.45,188.12,110.36Z" transform="translate(0 94)" fill="#787a7c"/>
    <path d="M187.14,105.94c-.54,0-1,.06-1-.92s.42-1.07,1-1.06.95,0,1,1S187.72,106,187.14,105.94Z" transform="translate(0 94)" fill="#7a7c7e"/>
    <path d="M222.67,125.41c-.51-.06-.59.65-1,.84a.64.64,0,0,1-.88-.28,1.19,1.19,0,0,1-.18-.7c.06-.51.42-.4.69-.41a8.6,8.6,0,0,1,1.6,0c.82.13,1.12-.32,1-1.28C224.84,125.65,223.13,124.81,222.67,125.41Z" transform="translate(0 94)" fill="#efeff0"/>
    <path d="M189.42,125.4c-.25.27-.49.55-.75.79a.59.59,0,0,1-.91-.13,1,1,0,0,1-.31-.83c.11-.63.54-.35.83-.37.87-.08,1.74-.09,2.61-.13C190.56,125.56,189.81,124.81,189.42,125.4Z" transform="translate(0 94)" fill="#f3f3f3"/>
    <path d="M182.88,124.17c0,.31.08.77-.18.78-.43,0-.26-.49-.27-.81Z" transform="translate(0 94)" fill="#aeafb1"/>
    <path d="M135.63,106.28v1.89c-1.12,1.43-2.13,3-3.29,4.38a.87.87,0,0,1-.89,0c-.33-.37-.2-.83-.15-1.28a6.55,6.55,0,0,0,1.65-2.56C133.83,107.79,134.47,106.55,135.63,106.28Z" transform="translate(0 94)" fill="#0d3e68"/>
    <path d="M132.4,112.39a10.26,10.26,0,0,1,3.24-4.2v1.61c-.24,1.52-1.23,2.34-2,3.38-.34.47-.66,0-.91-.35A1.5,1.5,0,0,1,132.4,112.39Z" transform="translate(0 94)" fill="#0f406a"/>
    <path d="M135.63,106.28l-2.5,2.56a2.68,2.68,0,0,1-.38-1.84,7.14,7.14,0,0,1,1.66-2.3c.33-.36.73-.75,1.22-.33Z" transform="translate(0 94)" fill="#073a65"/>
    <path d="M135.63,104.33c-1.27.22-1.75,1.8-2.71,2.56a1.22,1.22,0,0,1-.87-1.28c1-.15,1.52-1.11,2.16-1.91.4-.5.74-1.15,1.42-1Z" transform="translate(0 94)" fill="#043762"/>
    <path d="M146.4,123.23h-.25l-10.46.09c0-.36.25-.4.47-.44a1.71,1.71,0,0,1,.95-.38h8.68a.77.77,0,0,1,.64.45Z" transform="translate(0 94)" fill="#55779a"/>
    <path d="M132.9,102.76c.18,1.09,0,1.69-1,1.57a30.58,30.58,0,0,0-3.25,0c-.33,0-.84.26-.91-.46s-.18-1.38.5-1.77a7.4,7.4,0,0,0,1.94-1.6h-1.77c-.44,0-.7-.12-.7-.78s.16-1,.71-.95h3.75c.3,0,.76-.18.78.46s.27,1.28-.36,1.69-1.25.84-1.87,1.28c0,.77.43.37.67.42C131.86,102.69,132.4,102.43,132.9,102.76Z" transform="translate(0 94)" fill="#f9fafb"/>
    <path d="M132.06,105.69l.87,1.28.21,1.92a3.36,3.36,0,0,1-1.79,2.56,1.05,1.05,0,0,1-1.7,0c-1.28-.22-2.18-1.73-2-3.37h0a2.56,2.56,0,0,1,2.2-2.71A4,4,0,0,1,132.06,105.69Z" transform="translate(0 94)" fill="#fcfcfd"/>
    <path d="M132.4,112.39h.37a2,2,0,0,1,.15,2,1.9,1.9,0,0,1-1.54.35,17,17,0,0,1-3.71-.51l-.05-.56c0-1.84,1.17-.86,1.77-1.28a1.25,1.25,0,0,1,2,0A1.32,1.32,0,0,0,132.4,112.39Z" transform="translate(0 94)" fill="#eef1f4"/>
    <path d="M131.4,112.39a4.5,4.5,0,0,1-2,0l.25-1h1.7C131.7,111.68,131.32,112,131.4,112.39Z" transform="translate(0 94)" fill="#093b66"/>
    <path d="M132.9,102.76h-2.23c-.15,0-.48.12-.29-.36,0-.1.2-.14.31-.2C131.34,102.86,132.26,101.93,132.9,102.76Z" transform="translate(0 94)" fill="#708ca5"/>
    <path d="M128.4,134.12h-.5a13.17,13.17,0,0,1-.14-4.61c.06-1,1-1,1.64-1.16.71-.44,1.41.95,2.12,0,.37-.18.7-.55,1.14-.37.53.69.24,1.5.19,2.26-.38.83-1.22.9-1.66,1.64,0,.21.22.33.38.27,1.27-.28,1.58.49,1.31,1.92l-1.24.06H128.4Z" transform="translate(0 94)" fill="#fbfcfc"/>
    <path d="M137.15,122.87h-1a22.86,22.86,0,0,1,4.5-7.33,25,25,0,0,1,10.79-7.68,22.27,22.27,0,0,1,4.56-1,.74.74,0,0,1,.69.28v.64c-.85.73-1.85.46-2.78.67-6.28,1.32-11.88,5.83-15.53,12.52A6.71,6.71,0,0,1,137.15,122.87Z" transform="translate(0 94)" fill="#2c567e"/>
    <path d="M141.88,109.82h1.5c.13.78-.4,1-.74,1.28A33,33,0,0,0,134,124.55c-.18.51-.35,1.28-1.05.77a4.45,4.45,0,0,1-.08-2.19,35.47,35.47,0,0,1,7.31-11.93A9.39,9.39,0,0,1,141.88,109.82Z" transform="translate(0 94)" fill="#235078"/>
    <path d="M139.39,109.82h1.24c.09,1-.53,1.38-1,1.86a32.11,32.11,0,0,0-5.8,9,3.41,3.41,0,0,1-.94,1.45,2.55,2.55,0,0,0-.76.51c-.43.82.13,2-.58,2.69-1.5,0-.87-1.46-1-2.41a4.54,4.54,0,0,1,.61-1.61,8.57,8.57,0,0,0,1.84-2.73c1.23-1.14,1.85-2.93,2.82-4.35A27.61,27.61,0,0,1,139.39,109.82Z" transform="translate(0 94)" fill="#1e4b74"/>
    <path d="M156.62,100.83v.95a3,3,0,0,1-2.14.68,24.64,24.64,0,0,0-6.88,2.11c-.38.17-.76.49-1.17.09v-1.28a2.18,2.18,0,0,1,1-.9,20.18,20.18,0,0,1,8.14-2.09A1.2,1.2,0,0,1,156.62,100.83Z" transform="translate(0 94)" fill="#1b4972"/>
    <path d="M132.87,122a43.31,43.31,0,0,1,5.44-9.35c.76-1,1.77-1.57,2.33-2.8h1.25a6.6,6.6,0,0,1-1.73,2,32.54,32.54,0,0,0-6.49,10.42,3.51,3.51,0,0,1-.49.69,1,1,0,0,1-.31-.7A1.77,1.77,0,0,1,132.87,122Z" transform="translate(0 94)" fill="#204d76"/>
    <path d="M132.9,114.29a3.83,3.83,0,0,0-.13-1.89c.42.54.85.95,1.22,0s1.22-1.59,1.66-2.56h1.74a.91.91,0,0,1-.12.88c-1.31,1.78-2.46,3.74-3.72,5.57a.87.87,0,0,1-.65.42,1.53,1.53,0,0,1-1.16-1.1,1.1,1.1,0,0,1,.32-1C132.31,114.33,132.65,114.57,132.9,114.29Z" transform="translate(0 94)" fill="#16456f"/>
    <path d="M156.62,97.63v1a1.5,1.5,0,0,1-1.43.75,19.47,19.47,0,0,0-6.89,1.71c-.6.26-1.23.74-1.87.09v-1a2.5,2.5,0,0,1,1.37-1,27.74,27.74,0,0,1,7.41-1.93A1.37,1.37,0,0,1,156.62,97.63Z" transform="translate(0 94)" fill="#12426c"/>
    <path d="M133.17,125.46c.93-.88,1-2.38,1.55-3.56a33.2,33.2,0,0,1,8.45-11.7,1.46,1.46,0,0,0,.22-.38h.75c.13.58-.24.74-.5,1a32.91,32.91,0,0,0-10.07,16.38.74.74,0,0,1-.42.54l-.49.26-1,.65a1.45,1.45,0,0,1,.13-1.59,2.5,2.5,0,0,1,.78-.47C132.93,126.34,132.83,125.7,133.17,125.46Z" transform="translate(0 94)" fill="#26527a"/>
    <path d="M156.62,97.63a27.33,27.33,0,0,0-10.18,2.56V98.91a69.45,69.45,0,0,1,7.1-2.06c1-.18,2.06-.08,3.09-.18Q156.62,97.15,156.62,97.63Z" transform="translate(0 94)" fill="#0f406a"/>
    <path d="M156.62,103.71v1a2.66,2.66,0,0,1-1.89.68,21.08,21.08,0,0,0-6.87,2.24c-.46.22-.91.56-1.43.27v-1.28c1.07-1.43,2.62-1.47,3.94-2.1a17.57,17.57,0,0,1,4.72-1.18A1.49,1.49,0,0,1,156.62,103.71Z" transform="translate(0 94)" fill="#235078"/>
    <path d="M146.42,107.85a23.58,23.58,0,0,1,10.2-3.19v1c-2.18.54-4.43.51-6.55,1.54a29.16,29.16,0,0,0-2.76,1.39C146.69,109,146.36,108.84,146.42,107.85Z" transform="translate(0 94)" fill="#26527a"/>
    <path d="M156.62,100.83a21.06,21.06,0,0,0-10.19,2.56v-1c.25-.72.81-.88,1.3-1.1a24.38,24.38,0,0,1,8-2.06.93.93,0,0,1,.93.29Z" transform="translate(0 94)" fill="#174670"/>
    <path d="M133.15,127.7a33,33,0,0,1,10.57-17.33,3.84,3.84,0,0,0,.42-.56h.47c.26.49-.15.63-.35.79a31.85,31.85,0,0,0-10.42,16.49C133.59,128.16,133.57,128.15,133.15,127.7Z" transform="translate(0 94)" fill="#27527a"/>
    <path d="M156.62,103.71c-3.58-.08-6.88,1.46-10.2,2.88v-1a4,4,0,0,1,2.28-1.47,26.68,26.68,0,0,1,6.39-1.79,1.47,1.47,0,0,1,1.53.38Z" transform="translate(0 94)" fill="#204d76"/>
    <path d="M139.39,109.82a1.14,1.14,0,0,1-.31.83,29,29,0,0,0-5.16,7.42,1,1,0,0,1-.78.67,2.44,2.44,0,0,1-.37-1.77c1.33-1.14,2.1-2.94,3.14-4.41a32.25,32.25,0,0,1,2.23-2.74Z" transform="translate(0 94)" fill="#1b4972"/>
    <path d="M156.62,102.75a24.24,24.24,0,0,0-10.19,2.87v-1a25,25,0,0,1,10.19-2.88Z" transform="translate(0 94)" fill="#1e4b74"/>
    <path d="M156.62,99.55a26,26,0,0,0-10.19,2.87v-1.28c1.72-.13,3.24-1.28,4.91-1.65s3.54-.37,5.27-.91Q156.62,99.07,156.62,99.55Z" transform="translate(0 94)" fill="#14446e"/>
    <path d="M156.65,107.22a20.61,20.61,0,0,0-14.26,6.87,4.37,4.37,0,0,1-1.74,1.45,21.31,21.31,0,0,1,10.15-7.68,25.41,25.41,0,0,1,5.86-1.28Z" transform="translate(0 94)" fill="#2c567e"/>
    <path d="M138.14,109.82c-.3,1.43-1.48,1.84-2.09,3s-1.64,2.34-2.31,3.67c-.19.38-.44.65-.81.33a.28.28,0,0,1-.12-.28,30.34,30.34,0,0,0,3.23-4.71c.44-.67,1.14-1.09,1.34-2Z" transform="translate(0 94)" fill="#184670"/>
    <path d="M131.19,131.86c.06-1.37,1-1.19,1.66-1.64.62.51,0,1.09.05,1.63Z" transform="translate(0 94)" fill="#28537b"/>
    <path d="M156.63,121.94v1.28a14.38,14.38,0,0,0-4.82,2,14.21,14.21,0,0,0-4.66,6.4,6.57,6.57,0,0,1-.38.79c0,.06-.14,0-.36.15v-2.64a12.68,12.68,0,0,1,9.3-8.3A.86.86,0,0,1,156.63,121.94Z" transform="translate(0 94)" fill="#58799c"/>
    <path d="M156.64,120V121a2.71,2.71,0,0,1-1.62.69,13.08,13.08,0,0,0-7,5c-.43.58-.77,1.42-1.57,1.28v-1.6a13.46,13.46,0,0,1,8.56-6.63A1.45,1.45,0,0,1,156.64,120Z" transform="translate(0 94)" fill="#527498"/>
    <path d="M156.64,120a12.39,12.39,0,0,0-9,5l-1.2,1.38v-1.6a5.76,5.76,0,0,1,2-2.56,13.65,13.65,0,0,1,7.3-3.72.83.83,0,0,1,.94.2Z" transform="translate(0 94)" fill="#4f7296"/>
    <path d="M156.64,118.74a15.88,15.88,0,0,0-10.22,6.07v-1.59h0a13.66,13.66,0,0,1,9.31-5.8.92.92,0,0,1,.92.36Z" transform="translate(0 94)" fill="#4c6f94"/>
    <path d="M146.41,128c1.81-2.09,3.46-4.43,5.8-5.63a11.44,11.44,0,0,1,4.43-1.39v1c-4,.32-7.57,3-9.72,7.31a5.51,5.51,0,0,1-.5.68Q146.41,129,146.41,128Z" transform="translate(0 94)" fill="#55779a"/>
    <path d="M132.89,127.06h-1a1.65,1.65,0,0,1-2.25,0l-2-.13v-4.08c0-1,.53-.91,1-1,.84.26.42,1.18.62,1.77.14-.2.1-.55.21-.82a.79.79,0,0,1,.68-.58c.28,0,.59,0,.7.42a9.16,9.16,0,0,1,0,1.74c0,.81.3.87.78.6.39-1-.14-2.11.31-3.08h.9A17.77,17.77,0,0,1,132.89,127.06Z" transform="translate(0 94)" fill="#fafafb"/>
    <path d="M132.81,116.55l.12.28.21,1.92a3.4,3.4,0,0,1-1.74,2.56,1.76,1.76,0,0,1-2.47,0,5.12,5.12,0,0,1-1.27-1.93l-.05-1.28c.08-1.14.23-2.21,1.28-2.56.69.47.66,1.22.49,2-.12.54-.19,1.11.34,1.28s1.16.33,1.53-.45c.1-.22-.18-.2-.34-.18-1,.23-1.07-.69-1.07-1.57,0-1.28.62-1.63,1.51-1.48a.85.85,0,0,1,.53.46Z" transform="translate(0 94)" fill="#fcfcfd"/>
    <path d="M128.92,121.29h2.47c0,.6-.42.9-.54,1.39-.81-.24-1.37-.13-1.24,1.28,0,.4.31,1.28-.39,1.18s-.25-.83-.33-1.28.21-1.37-.26-1.93A.7.7,0,0,1,128.92,121.29Z" transform="translate(0 94)" fill="#15446e"/>
    <path d="M139.9,122.87h-1a2,2,0,0,1,.39-1.6,23.65,23.65,0,0,1,10.45-10.15c1.69-.78,3.44-1.19,5.15-1.83a1.56,1.56,0,0,1,1.75.5v.93a1.93,1.93,0,0,1-1.57.74,9.61,9.61,0,0,0-3,.75,17.39,17.39,0,0,0-7.88,5.2,2.67,2.67,0,0,1-.28.27,11,11,0,0,0-2.28,2.87,3.18,3.18,0,0,1-.2.35C140.91,121.53,140.62,122.48,139.9,122.87Z" transform="translate(0 94)" fill="#355d84"/>
    <path d="M156.65,109.78c-3.09-.26-5.89,1.15-8.6,2.69a22.62,22.62,0,0,0-9.15,10.39h-1a3.38,3.38,0,0,1,.83-2.56c4-6.31,9-10.62,15.39-11.8a2.67,2.67,0,0,1,2.53.28Z" transform="translate(0 94)" fill="#315b82"/>
    <path d="M156.65,108.82c-5.54,0-10.85,2.78-14.73,7.83-1.5,1.88-3.19,3.6-4,6.21h-.76c4-9,11.41-14.66,19.5-15Z" transform="translate(0 94)" fill="#2e5980"/>
    <path d="M144.15,122.87H142.9a1.14,1.14,0,0,1,.31-1.38c3.33-4.77,8-7.67,13-8.06a.54.54,0,0,1,.46.2v1.28a4.83,4.83,0,0,1-2.39.73,17.17,17.17,0,0,0-7.75,4.48C145.66,121,145.25,122.39,144.15,122.87Z" transform="translate(0 94)" fill="#40678c"/>
    <path d="M156.64,113.62a19.61,19.61,0,0,0-6.91,2.26,16.84,16.84,0,0,0-6.84,7h-1a2.76,2.76,0,0,1,.8-2,19.17,19.17,0,0,1,12-8.19,1.82,1.82,0,0,1,1.91.33Z" transform="translate(0 94)" fill="#3d648a"/>
    <path d="M156.64,117.78a13.5,13.5,0,0,0-9.3,4.72c-.28.31-.5.73-.93.72a.57.57,0,0,0-.51-.35c-.32-.86.21-1.28.59-1.69a16,16,0,0,1,8.86-5,1.18,1.18,0,0,1,1.29.32Z" transform="translate(0 94)" fill="#486c91"/>
    <path d="M144.15,122.87a15.26,15.26,0,0,1,12.49-8v1a53.33,53.33,0,0,0-5.12,1.6,16.66,16.66,0,0,0-5.53,4.38,4.78,4.78,0,0,1-1.08,1Z" transform="translate(0 94)" fill="#43698e"/>
    <path d="M151.9,112c1.47-1.13,3.18-.77,4.75-1.28v1c-.94.81-2.06.68-3.1,1a19.91,19.91,0,0,0-11.74,9.12,2.93,2.93,0,0,1-.91,1.06h-.5c-.09-1,.7-1.45,1-2.21h0a18.55,18.55,0,0,1,2.5-3.2h0A22,22,0,0,1,151.9,112Z" transform="translate(0 94)" fill="#386086"/>
    <path d="M140.9,122.87a18.38,18.38,0,0,1,5.51-6.9,18.17,18.17,0,0,1,10.23-4.27v.64c-.66.6-1.44.32-2.16.47-5,1-9.51,4.41-12.61,9.53a1.66,1.66,0,0,1-.46.51Z" transform="translate(0 94)" fill="#3a6288"/>
    <path d="M141.41,122.87a20.26,20.26,0,0,1,8.39-8.59,14.63,14.63,0,0,1,6.85-1.93V113c-5.86.1-11.34,3.78-14.74,9.89Z" transform="translate(0 94)" fill="#3a6288"/>
    <path d="M144.9,122.87c3-4.38,7.22-6.93,11.74-7v.64a15.1,15.1,0,0,0-10.26,5.31,1.53,1.53,0,0,0-.49,1.06Z" transform="translate(0 94)" fill="#456a90"/>
    <path d="M129.65,127.12h2.25l-.25,1.5c-.87,1.37-1.52,0-2.25-.29Z" transform="translate(0 94)" fill="#1c4a73"/>
    <path d="M131.87,115.64l-.48-.17c-.44-.09-1-.38-1.27.15a3.21,3.21,0,0,0,0,2.32c.37.82.81.26,1.06-.38.69-.31.75.45.62.83-.41,1.28-1.36,1.09-2.2,1a1,1,0,0,1-.8-1.05,1.24,1.24,0,0,1,.16-.6,2.44,2.44,0,0,0-.06-2.15,1.93,1.93,0,0,0,.75-.92,3.32,3.32,0,0,1,2.5,0Z" transform="translate(0 94)" fill="#0d3e69"/>
    <path d="M132.14,114.57H127.9l-.22-.44,5.22.09C132.72,114.67,132.41,114.57,132.14,114.57Z" transform="translate(0 94)" fill="#2f597e"/>
    <path d="M169.75,108.5c-.55.14-.81-.24-.85-1.28,0-1.28.5-1.28,1.21-1.28s1.53,0,1.51,1.28S170.72,108.41,169.75,108.5Z" transform="translate(0 94)" fill="#f9fafa"/>
    <path d="M182.49,115.21c-.39,0-.89-.06-.9-.64,0-.79.56-.6.94-.59s1-.23,1,.54S182.91,115.17,182.49,115.21Z" transform="translate(0 94)" fill="#ebebec"/>
    <path d="M182.5,109.83c-.29.06-.57-.2-.62-.58a.88.88,0,0,1,0-.16c0-.54.12-.92.6-.93.32,0,.61.24.65.65a1,1,0,0,1,0,.1.8.8,0,0,1-.48.92Z" transform="translate(0 94)" fill="#f8f9f9"/>
    <path d="M195,124.32a9.45,9.45,0,0,1-.15,1.18c-.11.46-.32.91-.77.9s-.63-.4-.74-.9a5.25,5.25,0,0,1-.06-2.19c.12-.58.26-1.22.82-1.2s.73.59.81,1.2A3.57,3.57,0,0,1,195,124.32Z" transform="translate(0 94)" fill="#fafafa"/>
    <path d="M214.35,124.26c.1-.83-.11-2.12.84-2.12s.88,1.28.92,2.23a3.84,3.84,0,0,1-.09.95c-.11.52-.26,1.09-.77,1.1s-.76-.54-.84-1.16C214.37,124.91,214.37,124.59,214.35,124.26Z" transform="translate(0 94)" fill="#fafafa"/>
    <path d="M209.29,126.57a.66.66,0,0,1-.59-.79c.05-.54.43-.94.86-.88s.37.44.38.79C210,126.27,209.72,126.53,209.29,126.57Z" transform="translate(0 94)" fill="#eeefef"/>
    <path d="M176.63,109.45c-.24-.09-.67.17-.65-.41a.77.77,0,0,1,.67-.84h.07c.33,0,.62.29.64.71t0,.05C177.37,109.66,176.9,109.34,176.63,109.45Z" transform="translate(0 94)" fill="#f5f5f5"/>
    <path d="M192.45,110.3c-.06.83.15,2-.81,2s-.91-1.28-.91-2.07-.05-2,.87-2S192.36,109.45,192.45,110.3Z" transform="translate(0 94)" fill="#f9f9f9"/>
    <path d="M188.19,122.25a.65.65,0,0,1,.69.69c0,.49-.38.55-.68.55s-.74.1-.7-.54c0-.43.33-.75.66-.71Z" transform="translate(0 94)" fill="#e8e8e8"/>
    <path d="M177.91,124.22c-.08.87.07,2.07-.91,2s-.87-1.13-.85-2-.12-2,.91-2S177.83,123.41,177.91,124.22Z" transform="translate(0 94)" fill="#fbfbfb"/>
    <path d="M221.35,123.44c-.28,0-.66.1-.69-.44a.64.64,0,0,1,.65-.77c.32-.07.62.2.67.6a.94.94,0,0,1,0,.13C222,123.53,221.6,123.37,221.35,123.44Z" transform="translate(0 94)" fill="#fafafa"/>
    <path d="M141.4,120.66c-.08.92-.83,1.34-1,2.21h-.5A6.2,6.2,0,0,1,141.4,120.66Z" transform="translate(0 94)" fill="#376086"/>
    <path d="M130.35,109.53c-.66,0-1.46,0-1.46-1.22s.73-1.14,1.37-1.14,1.49,0,1.54,1.11S131,109.45,130.35,109.53Z" transform="translate(0 94)" fill="#063963"/>
    <path d="M129.45,132.14c-.69,0-.54-.56-.55-1s.12-.87.55-.81.49.6.51,1.07S129.82,132.24,129.45,132.14Z" transform="translate(0 94)" fill="#325c81"/>
    <path d="M132.89,127.06a38.8,38.8,0,0,0,0-5.12c.35.17.28.59.32.93v2.56C133.07,126,133.33,126.62,132.89,127.06Z" transform="translate(0 94)" fill="#27527a"/>
    <path d="M131.95,122c-.39,1,.1,2.11-.31,3.08C131.78,124,131.29,122.9,131.95,122Z" transform="translate(0 94)" fill="#2d587d"/>
    <path d="M131.16,117.55c.06.7-.22,1-.74.9s-.53-.51-.56-1c-.15-2.24.08-2.56,1.53-2-1.07-.26-1.54.26-1.34,1.68.06.38-.12.88.36,1S130.93,117.81,131.16,117.55Z" transform="translate(0 94)" fill="#2f597e"/>
    <path d="M151.9,112c-1.05,1.06-2.41,1.28-3.57,2-1.53,1-2.9,2.38-4.43,3.39A14.41,14.41,0,0,1,151.9,112Z" transform="translate(0 94)" fill="#376086"/>
    <path d="M143.9,117.46a17.11,17.11,0,0,1-2.5,3.2A5.9,5.9,0,0,1,143.9,117.46Z" transform="translate(0 94)" fill="#376086"/>
  </g>
</svg>
