<svg id="Layer_1" data-name="Layer 1" xmlns="http://www.w3.org/2000/svg" width="196.3" height="420.91" viewBox="0 0 196.3 420.91">
  <title>flov-01</title>
  <path d="M147.5,454.53l29.8-13.1s23.3-3.45,6.2,6.75L140.3,474l-9-9.8Z" transform="translate(0 -102.87)" stroke="#000" stroke-miterlimit="10"/>
  <path d="M82.5,503,55.3,513.9s-14.9,12.93,3.2,8.44l45.8-11.41-4.7-12.29Z" transform="translate(0 -102.87)" stroke="#000" stroke-miterlimit="10"/>
  <path d="M8.8,211l22.5-.48c-2.9,55.35-9.9,96.33-16.8,96.81a113.56,113.56,0,0,1-13.8-.8c-2.5-.32,5.6-18.32,6.1-18.16C8.8,288.62,2.8,246,8.8,211Z" transform="translate(0 -102.87)" fill="#e7d0a5"/>
  <path d="M77,144.81c8.6-2.09,42.5-7.31,51.2-9.4-.5,27-6.8,43-22.8,42.82-.7,0,0,0-7,.64a38.57,38.57,0,0,1-4.3.24C86,178.31,83.3,181,77,144.81Z" transform="translate(0 -102.87)" fill="#e7d0a5"/>
  <path d="M147.8,288.22c31.2,23,18.5,56.4,24.2,70,9.1,21.85-1.9,84.92-20.4,96.81-7.8,5-12.3,10.28-20.2,5.46-13.6-8.19-6.4-46.44-6.4-72.31,0-25.55-29.4-73.83-27.6-69.49,8.3,20.73-10.2,108.62-10.2,108.62l11.6,83.8L68.4,501s-23.3-67.73-21.8-69.17L34.4,388.24c-.9-7.31.3-40.81,0-51-.2-8.68-14-50.69,4-65.32C55.9,257.69,118.9,268.62,147.8,288.22Z" transform="translate(0 -102.87)" fill="#46766a"/>
  <path d="M113.4,130.35" transform="translate(0 -102.87)" fill="#513d1d"/>
  <path d="M166.7,178.64" transform="translate(0 -102.87)" fill="#513d1d"/>
  <path d="M113.4,136.38" transform="translate(0 -102.87)" fill="#513d1d"/>
  <g>
    <path d="M49.4,153c31.5-13.18,30.8-16.63,29-26.19a40.92,40.92,0,0,1-.3-17.76c20.4-3.94,32.8-5.7,40.3-5.7,4.5,0,7.2.64,8.5,1.93,1.9,1.85,1.1,5.14,0,9.32a47,47,0,0,0-1.7,9.8c-.1,2.57.5,4.5,2,5.7a7,7,0,0,0,4.4,1.37,11.06,11.06,0,0,0,2.8-.32c6.8.56,16.1,1.37,21.5,1.93-23.2.32-37.6,3.7-73.4,12.13C72.8,147.54,62.1,150,49.4,153Z" transform="translate(0 -102.87)"/>
    <path d="M118.4,103.76c4.3,0,6.9.56,8.2,1.77,1.7,1.69.9,4.9-.1,9a47.77,47.77,0,0,0-1.7,9.88c-.1,2.73.6,4.74,2.1,5.95a7.59,7.59,0,0,0,4.8,1.53,16.62,16.62,0,0,0,2.8-.32c4.4.32,10.1.88,15,1.29-19.7.8-34.6,4.34-67.1,12-8.4,2-17.6,4.18-28.4,6.67,12.3-5.3,18.8-8.84,22.3-12.13,4.4-4.18,3.7-7.71,2.7-12.69a42.27,42.27,0,0,1-.3-17.35c20-3.86,32.3-5.62,39.7-5.54m-.1-.88c-7.5,0-20,1.77-40.7,5.7-5.5,27.16,18.5,24.83-33,45.79,67.7-15.26,82.3-20.89,114.5-20.89,8.5,0-24.9-2.73-24.9-2.73a10.34,10.34,0,0,1-2.7.32c-2.6,0-6.1-1-5.9-6.67C126.2,111.79,135.1,102.87,118.3,102.87Z" transform="translate(0 -102.87)" fill="#fff"/>
  </g>
  <ellipse cx="114.6" cy="35.83" rx="10.4" ry="8.36"/>
  <path d="M142.5,197.6l24.8-10.77c28.6,50.37,13.6,66.84,22.1,78.65.4.48,11.6,16.15,4.6,18.08a41.83,41.83,0,0,1-4.3,1C181.4,285.25,156.9,231,142.5,197.6Z" transform="translate(0 -102.87)" fill="#e7d0a5"/>
  <ellipse cx="90.4" cy="38.08" rx="10.4" ry="8.36"/>
  <path d="M111.4,173.73c15.4,2,36.1-3.45,44.5.8,9.8,5,18.8,20.33,19.3,22.09,2.4,7.71,1.1,1.29,5.7,13.82l-28,8.28-17.5-10.44h0c0,7.63,11.5,54,10.4,57.12l2.2,22.82c-1.3,3.7-6.3,6.11-11.7,5.7L33.6,284c-.7,7.07,38.5-97.61-4-47.8l-29.6-6,25.8-56.88c10.9-16.07,44.7,1.29,50.1.8l35.5-.4" transform="translate(0 -102.87)" fill="#fff"/>
  <path d="M115.8,160s-4.9-10.52-10-4.42-5.6-2.49-5.6-2.49S89.5,153,89,158.31" transform="translate(0 -102.87)" fill="none" stroke="#000" stroke-miterlimit="10" stroke-width="4"/>
  <g>
    <path d="M96.76,236.91H54.68c-.47,0-.56-.07-.56-.45q0-18.17,0-36.35c0-.38.09-.45.56-.45q42.08,0,84.16,0c.47,0,.56.07.56.45q0,18.17,0,36.35c0,.38-.09.45-.56.45Z" transform="translate(0 -102.87)" fill="#fefefe"/>
    <path d="M127.43,218.45c1.49.59,1.76,1.31.94,2.52-.63.69-1.44.77-2.59.26l-.18-.11c-1-1-.67-2.24.73-2.7A1.28,1.28,0,0,1,127.43,218.45Z" transform="translate(0 -102.87)" fill="#6cb4cc"/>
    <path d="M125.78,221.1a2.44,2.44,0,0,0,2.59-.13c-.15.35-.18.65.37.8.2.05.28.24.11.36s-.31-.08-.36-.16c-.18-.27-.38-.25-.64-.1a.63.63,0,0,1-.81,0c-.19-.15-.26-.08-.33.4a1.49,1.49,0,0,1-.8.12.88.88,0,0,1-.56-.14c0-.19.08-.33.38-.26s.48-.12.71-.33c-.44-.09-.81-.2-1.15.1s-.43,0-.64,0a.16.16,0,0,1-.1-.23.22.22,0,0,1,.13-.1c.35-.1.31-.08.19-.35a1.41,1.41,0,0,0-1.08-.88c-.18,0-.3-.13-.47,0a.36.36,0,0,1-.25,0c-.33-.4-.64-.51-1,0a1.17,1.17,0,0,1-.24,0c.31-.37-.41-.35-.36-.63a.85.85,0,0,1,.59-.05,2.22,2.22,0,0,0,1.75-.45,1.6,1.6,0,0,0,.52-1.45.36.36,0,0,1,.14-.23c.18.06.26.34.56.13s.3.07.42.15.22.26.05.32c-.35.14-.26.28,0,.37s.6.22.7-.13.46-.29.79-.19c.16.21.51,0,.69.22l-.27.21c-1.56,0-2.33.61-2.22,1.68a1.92,1.92,0,0,0,.58,1,.44.44,0,0,1-.14.09A.31.31,0,0,0,125.78,221.1Z" transform="translate(0 -102.87)" fill="#fcfdfc"/>
    <path d="M124,219.12a2.57,2.57,0,0,1-2.46.41c-.42-.26-.9-.48-1-1-.13-.17.06-.4-.14-.56a1.13,1.13,0,0,1,.55-1.21c.45.16.54,0,.54-.34a2.82,2.82,0,0,1,1.65-.19.29.29,0,0,1,.32.14.25.25,0,0,1-.07.15l-.09.08c-.13.17-.61.1-.53.33s.41,0,.62,0,.39.11.35.31c-.11.57.34,1.14,0,1.71C123.76,219,123.93,219.06,124,219.12Z" transform="translate(0 -102.87)" fill="#80bdd3"/>
    <path d="M68,223.17H66.58c-.19,0-.4,0-.41-.22s.22-.26.43-.26c.8,0,1.6,0,2.4,0,.43,0,.62-.09.6-.47s-.18-.47-.62-.46c-.66,0-1.33,0-2,0s-.91-.19-.87-.69c0,0,0,0,0-.06,0-1.16,0-1.18,1.42-1.18h2.13c.21,0,.53,0,.51.23s-.31.23-.53.23c-.78,0-1.56,0-2.33,0-.52,0-.53.2-.54.51s.1.47.54.45c.73,0,1.46,0,2.2,0,.47,0,.69.19.72.58.1,1.24,0,1.32-1.52,1.32H68Z" transform="translate(0 -102.87)" fill="#717174"/>
    <path d="M99.5,215.29c0-.39,0-.77,0-1.16s.22-.51.64-.51c.94,0,1.87,0,2.81,0,.47,0,.69.21.69.6,0,.72,0,1.43,0,2.15,0,.35-.2.58-.63.59-.91,0-1.82,0-2.73,0-.59,0-.82-.23-.77-.69S99.5,215.62,99.5,215.29Z" transform="translate(0 -102.87)" fill="#a0a0a3"/>
    <path d="M103.1,222.65c0-.82,0-1.59,0-2.36,0-.19-.06-.47.31-.45s.32.27.32.48c0,.73,0,1.47-.06,2.2,0,.23.17.57-.3.64a1,1,0,0,1-1.16-.37c-.46-.7-1-1.37-1.5-2-.09-.12-.11-.28-.4-.35,0,.45,0,.88,0,1.32s0,.81,0,1.21a.29.29,0,0,1-.32.3c-.22,0-.33-.11-.33-.29q0-1.38,0-2.76c0-.18.12-.29.33-.28.39,0,.81-.11,1.08.28.5.72,1.05,1.42,1.59,2.13A.68.68,0,0,0,103.1,222.65Z" transform="translate(0 -102.87)" fill="#707072"/>
    <path d="M106.94,214.24c0,.71,0,1.42,0,2.13a2.13,2.13,0,0,1,0,.44.26.26,0,0,1-.29.19c-.17,0-.24-.1-.24-.22q0-1.44,0-2.87c0-.17.13-.27.34-.29.37,0,.73,0,1,.27.48.65,1,1.29,1.46,1.93a1.94,1.94,0,0,0,.56.55q0-.88,0-1.77c0-.18,0-.37,0-.55s0-.45.37-.43.28.25.28.43c0,.77,0,1.55,0,2.32,0,.26,0,.53-.41.6a.92.92,0,0,1-1-.32c-.53-.73-1.08-1.45-1.63-2.17a3.3,3.3,0,0,0-.24-.26Z" transform="translate(0 -102.87)" fill="#9fa0a2"/>
    <path d="M75.32,215.32c0-.4,0-.81,0-1.21s.11-.51.57-.5c.92,0,1.83,0,2.75,0,.55,0,.8.21.8.64,0,.26,0,.52,0,.77s-.06.39-.27.41c-1,.12-.31.42-.15.69s.76.57.28.82-.52-.34-.79-.53a2.35,2.35,0,0,1-.45-.48.94.94,0,0,0-1-.39c-.22,0-.65.06-.65-.24s.39-.16.62-.17c.43,0,.87,0,1.31,0s.51-.23.49-.52-.06-.53-.5-.53h-2c-.37,0-.39.17-.39.4,0,.7,0,1.4,0,2.1,0,.2,0,.46-.34.45s-.31-.27-.31-.47C75.32,216.13,75.32,215.72,75.32,215.32Z" transform="translate(0 -102.87)" fill="#9fa0a2"/>
    <path d="M106.35,221.46c0-.44-.28-1.13.11-1.46s1.3-.09,2-.12a7.42,7.42,0,0,1,.82,0c.65,0,1.07.3,1.15.84a5.37,5.37,0,0,1,0,1.59c-.08.52-.47.8-1.08.83-.87,0-1.74,0-2.61,0-.32,0-.37-.14-.37-.35C106.36,222.4,106.35,222,106.35,221.46Z" transform="translate(0 -102.87)" fill="#6f7073"/>
    <path d="M91.28,213.61h1.37c.23,0,.51,0,.5.25s-.29.18-.48.19c-.78,0-1.56,0-2.34,0-.44,0-.63.11-.61.48s0,1,0,1.49c0,.32.1.47.54.45.62,0,1.24,0,1.86,0,.34,0,.53-.08.49-.37s.14-.59-.42-.61c-.24,0-.6.05-.59-.23s.41-.21.66-.22c.93,0,.93,0,.93.73,0,1.16,0,1.16-1.47,1.17l-1.65,0c-.72,0-1-.16-1-.73s0-1.4,0-2.09c0-.34.25-.54.7-.54Z" transform="translate(0 -102.87)" fill="#9fa0a2"/>
    <path d="M117.93,211.49a1.82,1.82,0,0,1,2.05,0,1.19,1.19,0,0,1,.45,1.45,1.64,1.64,0,0,1-1.81.79,1.28,1.28,0,0,1-1.23-1.42A3.1,3.1,0,0,1,117.93,211.49Z" transform="translate(0 -102.87)" fill="#a2cfdf"/>
    <path d="M117.52,217.46a1.69,1.69,0,0,1-1.38-1.52c0-.66.61-1.22,1.49-1.4a2.05,2.05,0,0,1,2,.73,1.11,1.11,0,0,1-.26,1.65c-.6,0-.68-.05-.51-.45A1.26,1.26,0,0,0,119,216a1.25,1.25,0,0,0-.38.88.67.67,0,0,1-.14.58A1,1,0,0,1,117.52,217.46Z" transform="translate(0 -102.87)" fill="#94c6db"/>
    <path d="M95.3,220.36c-.52.82-1,1.64-1.56,2.45-.12.18-.19.5-.55.37s-.14-.38,0-.57c.5-.81,1-1.6,1.51-2.41a.65.65,0,0,1,.63-.33.73.73,0,0,1,.71.33c.51.82,1,1.64,1.54,2.46.1.17.3.39,0,.52s-.46-.1-.53-.29a1,1,0,0,0-1.2-.58,5,5,0,0,1-.69,0c-.21,0-.45,0-.43-.24s.23-.18.42-.2c.37,0,.9.16,1.07-.12s-.25-.56-.41-.84S95.59,220.5,95.3,220.36Z" transform="translate(0 -102.87)" fill="#6f7072"/>
    <path d="M125.91,222.21l.81,0c.37.31.89.55.83,1.07a.42.42,0,0,0-.23.52c0,.23-.18.44-.28.66a1.92,1.92,0,0,1-2.46-.32c-.2-.27.2-.49.08-.75-.09-.06-.19-.12-.19-.23a1.11,1.11,0,0,1,.25-.57.65.65,0,0,1,.33-.15C125.3,222.3,125.68,222.4,125.91,222.21Z" transform="translate(0 -102.87)" fill="#54aec6"/>
    <path d="M125.06,222.54l-.25.14c-.17.11-.19.29-.26.44s.1.42.05.63,0,.25.06.36a1.77,1.77,0,0,0,2.35.29c.08,0,.13-.15.27-.11.34.24.28.46-.13.55a8.77,8.77,0,0,1-2.09,0c-.06,0-.16,0-.18-.07-.1-.2-.23-.48-.51-.35s0,.4.17.69a1.37,1.37,0,0,0-1.14.19c-.15-.39.15-.85-.29-1.2a3.26,3.26,0,0,0-.43-.27c-.24-.25-.63,0-.89-.18s-.18-.47,0-.43c.53.12.53-.24.74-.4s.36-.23.53-.1.57.09.82.21c0,.18-.27.27-.16.45.38,0,.5-.17.55-.48a.55.55,0,0,1,.77-.47Q125.2,222.48,125.06,222.54Z" transform="translate(0 -102.87)" fill="#fafcfc"/>
    <path d="M84.07,215.05h1.51c.21,0,.45,0,.43.26s-.25.18-.43.18c-.76,0-1.51,0-2.27,0-.56,0-.54.25-.56.57s.18.43.57.42c.78,0,1.56,0,2.34,0,.24,0,.5,0,.5.26s-.27.24-.46.24c-1,0-2.06,0-3.09,0-.32,0-.46-.13-.44-.38a.38.38,0,0,0,0-.06C82.06,215.05,82.06,215.05,84.07,215.05Z" transform="translate(0 -102.87)" fill="#a1a2a5"/>
    <path d="M122.07,212.15c-1-.64-.92-1.54.08-1.9a1.34,1.34,0,0,1,1.71.59,1,1,0,0,1-.72,1.3,4.81,4.81,0,0,1-.66.12C122.36,212.19,122.16,212.29,122.07,212.15Z" transform="translate(0 -102.87)" fill="#b5dbe5"/>
    <path d="M79.88,219.88h1.37c.19,0,.39,0,.38.23s-.21.22-.39.22c-.73,0-1.46,0-2.19,0a.91.91,0,0,0-.87.4c-.56.76-1.17,1.49-1.75,2.24-.13.16-.26.34-.53.2s-.13-.29,0-.44l2-2.57a.9.9,0,0,1,.77-.29Z" transform="translate(0 -102.87)" fill="#717174"/>
    <path d="M84.15,221.52c0-.42,0-.85,0-1.27,0-.2,0-.46.35-.44s.28.25.28.43a13.4,13.4,0,0,1,0,1.76c-.08.59.22.74.88.68.43,0,.87,0,1.3,0,.22,0,.44,0,.42.26s-.22.22-.41.22h-2.4c-.35,0-.42-.15-.42-.39C84.16,222.37,84.15,221.95,84.15,221.52Z" transform="translate(0 -102.87)" fill="#77777a"/>
    <path d="M80,221.31h1.17c.17,0,.33,0,.33.21s-.15.23-.32.23c-.55,0-1.1,0-1.65,0s-.47.22-.48.49.06.45.48.43,1.05,0,1.58,0c.23,0,.5,0,.51.25s-.25.25-.45.25H78.85c-.24,0-.39-.08-.38-.3s0-.22,0-.33C78.47,221.31,78.47,221.31,80,221.31Z" transform="translate(0 -102.87)" fill="#727275"/>
    <path d="M123.16,224c.58.38.43.84.24,1.3a1.62,1.62,0,0,1-2,.23c-.31-.06-.34-.28-.4-.47a1.1,1.1,0,0,1,.81-1.31l.06,0,.18.2c.06.07.12.14.19.21a1.45,1.45,0,0,0,.51.13C123,224.32,123,224.08,123.16,224Z" transform="translate(0 -102.87)" fill="#38a7c0"/>
    <path d="M90.35,223.17c-1.57,0-1.57,0-1.57-1.25a2.41,2.41,0,0,1,0-.66c.14-.48-.37-1.05.31-1.45.58.43.17,1,.27,1.48a3.74,3.74,0,0,1,0,1c0,.31.12.43.51.41.55,0,1.1,0,1.65,0,.22,0,.46,0,.48.22s-.26.26-.49.26Z" transform="translate(0 -102.87)" fill="#727375"/>
    <path d="M73.62,221.55c0,.62.2,1.42-.58,2.05-.19.15-.36.41-.66.2s0-.37.14-.51a1.29,1.29,0,0,0,.49-1.16c0-.64,0-1.29,0-1.93,0-.17,0-.37.27-.39s.35.19.36.38C73.63,220.6,73.62,221,73.62,221.55Z" transform="translate(0 -102.87)" fill="#777679"/>
    <path d="M119.87,223.9c0,.43-.41.75-1,.76s-1-.31-1-.78a.88.88,0,0,1,1-.78A.92.92,0,0,1,119.87,223.9Z" transform="translate(0 -102.87)" fill="#069eba"/>
    <path d="M96.64,215.34c0,.42,0,.84,0,1.26,0,.16,0,.36-.27.38s-.31-.18-.31-.35q0-1.35,0-2.69c0-.17,0-.36.31-.35s.27.21.27.37C96.64,214.43,96.64,214.89,96.64,215.34Z" transform="translate(0 -102.87)" fill="#9fa1a3"/>
    <path d="M84.15,214.06h-1.5c-.2,0-.44,0-.46-.21s.22-.24.43-.24h3.07c.21,0,.45,0,.46.23s-.3.22-.5.22C85.15,214.07,84.65,214.06,84.15,214.06Z" transform="translate(0 -102.87)" fill="#a2a3a5"/>
    <path d="M126.6,212.71c-.79.16-1.29,0-1.47-.51s.14-.81.63-1,.87.18,1.25.38c.2.32.27.62-.12.89-.34-.08-.55-.22-.44-.55s-.21-.37-.45-.46c-.12.19-.34.35-.41.56s.21.24.39.29.51,0,.72.14S126.69,212.65,126.6,212.71Z" transform="translate(0 -102.87)" fill="#cee6eb"/>
    <path d="M116.55,221.65c0-.07.05-.1.13-.1a1.62,1.62,0,0,1,.85,0c.39.25.45.52.05.81a.68.68,0,0,1-1.06-.1A.77.77,0,0,1,116.55,221.65Z" transform="translate(0 -102.87)" fill="#0c93b2"/>
    <path d="M118.48,217.35c0-1.06.09-1.29.7-1.71.33.32,0,.57-.15.81s-.1.45.32.47c0,.21-.35.24-.46.41A.3.3,0,0,1,118.48,217.35Z" transform="translate(0 -102.87)" fill="#93c8d6"/>
    <path d="M127.27,224.29l-.27.11c0-.28.22-.51,0-.84s.27-.22.5-.25A1.06,1.06,0,0,1,127.27,224.29Z" transform="translate(0 -102.87)" fill="#5babc8"/>
    <path d="M121.5,216.47c.17,0,.35,0,.5.09-.12.19-.52.1-.5.38,0,.13-.13.18-.28.18s-.25-.17-.25-.31Z" transform="translate(0 -102.87)" fill="#7ebed2"/>
    <path d="M123.44,216.47l-.28-.19c.08-.17-.31-.26-.14-.42s.34-.07.51,0,.16.25.14.41a.88.88,0,0,0,0,.26A.24.24,0,0,1,123.44,216.47Z" transform="translate(0 -102.87)" fill="#f9fcfa"/>
    <path d="M118.48,217.35l.4,0c-.64.62-.94.64-1.37.13C117.84,217.41,118.19,217.55,118.48,217.35Z" transform="translate(0 -102.87)" fill="#f7fcfd"/>
    <path d="M126.74,212.49c.46-.22.21-.58.27-.89.52.14.27.49.24.73a.49.49,0,0,1-.65.38l.14-.22Z" transform="translate(0 -102.87)" fill="#f5fdfd"/>
    <path d="M121,225.05l.4.47c-.21.29-.57,0-.86.13-.08,0-.13-.24,0-.31S121,225.27,121,225.05Z" transform="translate(0 -102.87)" fill="#fafdf8"/>
    <path d="M123.44,216.47l.26,0c.17.22.53.33.57.63l-.07,0c-.5-.06-.78-.27-.78-.7Z" transform="translate(0 -102.87)" fill="#89bfd1"/>
    <path d="M123.2,226a1.23,1.23,0,0,1-1.18.12A3.33,3.33,0,0,1,123.2,226Z" transform="translate(0 -102.87)" fill="#f7fef9"/>
    <path d="M127.7,218.24c-.2-.13-.68.3-.69-.22.2,0,.4,0,.6,0S127.84,218.12,127.7,218.24Z" transform="translate(0 -102.87)" fill="#fbfef5"/>
    <path d="M123.34,226.12a1,1,0,0,1,.88-.08C124,226.28,123.76,226.18,123.34,226.12Z" transform="translate(0 -102.87)" fill="#fafcfc"/>
    <path d="M125.06,222.54a.1.1,0,0,0,0-.1l.31-.21.55,0C125.79,222.6,125.29,222.35,125.06,222.54Z" transform="translate(0 -102.87)" fill="#5fadc8"/>
    <path d="M117.93,211.49c0,.35-.36.52-.53.78A.82.82,0,0,1,117.93,211.49Z" transform="translate(0 -102.87)" fill="#b4cfdb"/>
    <path d="M121.78,223.65c.33,0,.69-.27,1,.09a1.26,1.26,0,0,1-1,.05l0,0A.8.8,0,0,1,121.78,223.65Z" transform="translate(0 -102.87)" fill="#eff6f2"/>
    <path d="M123.73,225.54c.08,0,.2,0,.17.12s-.13.09-.22.08-.2,0-.17-.12S123.64,225.53,123.73,225.54Z" transform="translate(0 -102.87)" fill="#fafcfc"/>
    <path d="M122.07,212.15c.15,0,.31,0,.42.11-.12,0-.15.21-.31.17S122.08,212.25,122.07,212.15Z" transform="translate(0 -102.87)" fill="#f2fefd"/>
    <path d="M124.52,217.36v.22c-.49,0-.42-.19-.27-.43h0Z" transform="translate(0 -102.87)" fill="#89bfd1"/>
    <path d="M117.54,221.54h-.85A.68.68,0,0,1,117.54,221.54Z" transform="translate(0 -102.87)" fill="#1396b0"/>
    <path d="M120.41,218c.29.15.18.36.14.56C120.36,218.41,120.4,218.21,120.41,218Z" transform="translate(0 -102.87)" fill="#82c1d2"/>
    <path d="M116.55,221.65v.61C116.31,222.05,116.36,221.85,116.55,221.65Z" transform="translate(0 -102.87)" fill="#1396b0"/>
    <path d="M124.25,217.14c0,.16-.08.39.27.43a1.39,1.39,0,0,1-.54,1.55c-.21,0-.47.11-.31-.28a1,1,0,0,0-.15-1.1.31.31,0,0,1,0-.26c0-.12.34-.22.08-.36s-.28.07-.41.13c-.73.32-.42-.37-.74-.48a3,3,0,0,0,1-.29A1.3,1.3,0,0,0,124.25,217.14Z" transform="translate(0 -102.87)" fill="#7ebed2"/>
    <path d="M125.78,221.1c.06.14.07.26-.19.23s-.24-.06-.2-.17.27,0,.4-.05Z" transform="translate(0 -102.87)" fill="#fefefe"/>
    <path d="M121.1,217.31c.15.29.18.47,0,.7C120.91,217.78,120.93,217.6,121.1,217.31Z" transform="translate(0 -102.87)" fill="#80bfc8"/>
    <path d="M103,215.3c0,1.17,0,1.17-1.44,1.17s-1.36,0-1.36-1.1c0-1.32,0-1.32,1.68-1.32h.55c.48,0,.66.16.62.53S103,215.06,103,215.3Z" transform="translate(0 -102.87)" fill="#fefefe"/>
    <path d="M107,221.5c0-1.16,0-1.16,1.41-1.16s1.45.05,1.45,1.19c0,.18,0,.37,0,.55,0,.39-.29.6-.79.6h-.55C107,222.69,107,222.69,107,221.5Z" transform="translate(0 -102.87)" fill="#fdfdfd"/>
    <path d="M118.76,215.36c0,.17-.19.24-.3.35s-.51.41-.63-.09c-.08.05-.12.07-.14.09s.13.51-.33.5-.23-.26-.25-.43.07-.46.48-.44.78,0,1.16,0Z" transform="translate(0 -102.87)" fill="#92c8d6"/>
    <path d="M118.13,217.38c-.11-.37-.62-.41-.47-.77,0-.1.19-.17.26-.11A.7.7,0,0,1,118.13,217.38Z" transform="translate(0 -102.87)" fill="#91c7d5"/>
    <path d="M118.76,215.36c.09-.16-.36-.24-.12-.4s.33,0,.45.12.2.13.11.22-.29,0-.44.06Z" transform="translate(0 -102.87)" fill="#8acbda"/>
    <path d="M116.82,216.48c.2,0,.28.09.27.24s-.07.17-.15.14a.73.73,0,0,1-.3-.27C116.6,216.51,116.74,216.49,116.82,216.48Z" transform="translate(0 -102.87)" fill="#8dc9db"/>
    <path d="M124.66,224.11a.33.33,0,0,1-.14-.32c-.15-.26.12-.34.29-.47.27,0,.3.13.13.28A.59.59,0,0,0,124.66,224.11Z" transform="translate(0 -102.87)" fill="#56b0c7"/>
    <path d="M124.81,223.32l-.29.47a.52.52,0,0,1,0-.71s.06,0,.05.08,0,0,0,0S124.7,223.32,124.81,223.32Z" transform="translate(0 -102.87)" fill="#5fadc8"/>
    <path d="M125.63,222.88c0,.13,0,.28-.11.39-.24-.1-.13-.27-.16-.39A.22.22,0,0,1,125.63,222.88Z" transform="translate(0 -102.87)" fill="#5fadc8"/>
    <path d="M124.54,223.2l0-.12a.36.36,0,0,1,.28-.4A1.11,1.11,0,0,1,124.54,223.2Z" transform="translate(0 -102.87)" fill="#56b0c7"/>
    <path d="M125.63,222.88h-.27c0-.1,0-.24.16-.24S125.6,222.79,125.63,222.88Z" transform="translate(0 -102.87)" fill="#56b0c7"/>
    <path d="M121.77,223.79a2.5,2.5,0,0,1,1-.05c.15.08.33.11.41.26-.08.18.21.58-.41.43a1.11,1.11,0,0,1-.26-.19c-.15-.13-.39-.14-.56-.25Z" transform="translate(0 -102.87)" fill="#33aac0"/>
    <path d="M121.92,224c.24,0,.6-.14.69.22a.56.56,0,0,1-.55,0Z" transform="translate(0 -102.87)" fill="#3ea1cb"/>
    <path d="M122.06,224.2h.55l.14.22C122.56,224.27,122.14,224.58,122.06,224.2Z" transform="translate(0 -102.87)" fill="#2ea9b7"/>
    <path d="M123,224.93c.13,0,.13.08.14.14s0,.16-.11.17-.13-.07-.14-.14A.15.15,0,0,1,123,224.93Z" transform="translate(0 -102.87)" fill="#2baac7"/>
    <path d="M126.74,212.49h-.41a1,1,0,0,1-.95-.28c-.22-.34.44-.45.42-.79,0-.06.39-.07.55,0s.49.26.34.42.07.43,0,.64Z" transform="translate(0 -102.87)" fill="#c6e5ef"/>
  </g>
</svg>
