<svg id="Layer_1" data-name="Layer 1" xmlns="http://www.w3.org/2000/svg" width="195.68" height="365.16" viewBox="0 0 195.68 365.16">
  <title>sur-01</title>
  <path d="M81.63,488.84l33.12,5.41s20.37,8.77-.86,7.5l-53.63-3.22,1.26-10.89Z" transform="translate(0.07 -141.14)" stroke="#000" stroke-miterlimit="10"/>
  <path d="M22.56,487.53l27.18,9.83s14.9,11.62-3.25,7.58L.63,494.72l4.73-11Z" transform="translate(0.07 -141.14)" stroke="#000" stroke-miterlimit="10"/>
  <path d="M74.35,170.65a4.89,4.89,0,0,0,.65-.09c40.37-11.95,38.25,11.6,38.25,11.6-3.85,8.65-7.33-1-14.24,12.26-.25.48-3.1,9.93-10.1,10.47-2.42.19-17.45,0-18,0-6.47-.61-9.51.82-13.76-15.67C55,180.69,62.6,172.46,74.35,170.65Z" transform="translate(0.07 -141.14)" fill="#e7d0a5"/>
  <path d="M92.5,288.92c31.15,20.62,8.5,54.62,14.18,66.86,9.09,19.65-14.79,76.8-14.79,127.93,0,7.21-22.41,8.23-30.39,3.93-13.6-7.32,8.17-85.69,8.17-108.94,0-23-8.54-38.51-11.13-34.82-18.62,26.54-17,67.11-17,67.11l-7.2,76.65-29-3.93s2.94-66,4.43-67.32V372.07c-.87-6.53.26-26.58,0-35.68C9.55,328.57,10,313.12,28,300,45.63,287.17,63.64,271.32,92.5,288.92Z" transform="translate(0.07 -141.14)" fill="#46766a"/>
  <path d="M91.89,153.14" transform="translate(0.07 -141.14)" fill="#513d1d"/>
  <path d="M145.2,196.45" transform="translate(0.07 -141.14)" fill="#513d1d"/>
  <path d="M91.89,158.6" transform="translate(0.07 -141.14)" fill="#513d1d"/>
  <g>
    <path d="M27.37,186.07c31.53-11.77,30.85-14.93,29-23.53a33.65,33.65,0,0,1-.28-15.92c20.39-3.52,32.82-5.09,40.26-5.09,4.47,0,7.18.56,8.54,1.75,1.9,1.67,1.06,4.64,0,8.4a39.21,39.21,0,0,0-1.73,8.82c-.12,2.31.55,4,2,5.09a7.43,7.43,0,0,0,4.42,1.23,13.22,13.22,0,0,0,2.78-.3c6.82.5,16.07,1.23,21.5,1.76-23.15.27-37.56,3.31-73.37,10.89C50.89,181.19,40.17,183.45,27.37,186.07Z" transform="translate(0.07 -141.14)"/>
    <path d="M96.34,141.86c4.25,0,6.91.53,8.15,1.61,1.74,1.54.93,4.43-.1,8.1a39.41,39.41,0,0,0-1.74,8.87c-.12,2.42.59,4.22,2.11,5.35a8,8,0,0,0,4.78,1.34,14.07,14.07,0,0,0,2.83-.3c4.41.32,10.1.77,15,1.18-19.73.72-34.63,3.89-67.07,10.76-8.38,1.77-17.64,3.73-28.42,6,12.29-4.73,18.8-7.93,22.26-10.91,4.37-3.73,3.67-6.94,2.72-11.38a33.42,33.42,0,0,1-.33-15.55c20.16-3.47,32.47-5,39.81-5m0-.72c-7.47,0-20,1.59-40.7,5.15-5.5,24.36,18.5,22.29-33,41.09,67.66-13.81,82.25-18.85,114.5-18.85,8.5,0-24.89-2.47-24.89-2.47a12.33,12.33,0,0,1-2.72.31c-2.62,0-6.14-.92-5.89-5.95C104.21,149.07,113.11,141.14,96.34,141.14Z" transform="translate(0.07 -141.14)" fill="#fff"/>
  </g>
  <ellipse cx="97.88" cy="33.35" rx="10.39" ry="7.49"/>
  <path d="M140.52,256.38l-19.52-6c31.49-44.21,42-51.57,48.2-62.93.27-.49,21.27-21.89,24.67-17.23,7.35,10-10.87,11.33-11.31,17.23C181.22,207.14,164.23,229.64,140.52,256.38Z" transform="translate(0.07 -141.14)" fill="#e7d0a5"/>
  <path d="M93.11,203.86c15.43,1.8,24.47,7,32.88,10.88l9.81,4.48c5.51,5.89,4.83-.83,9.4,10.46l-13.81,28.55-17.5-9.37h0c0,6.85,11.53,48.44,10.39,51.28l2.18,20.42c-1.33,3.3-6.3,5.49-11.65,5.13L12.13,316.75c-.74,6.32,38-83.58,10.52-62h0C15,257,.79,254.1,2.29,248.29l9.66-37.44c10.93-14.42,29.53-6.58,34.93-7H93.1" transform="translate(0.07 -141.14)" fill="#d9e021"/>
  <path d="M2.29,248.29c9.38-.18,11,6.6,20.36,6.42-2.88,49.66,46,35.83,51.92,38.4,17.32,7.51-7.83,10-14.3,7.51-13.38-5-13.38,3.12-32.2-.64C12.4,296.85-3.91,273.06,2.29,248.29Z" transform="translate(0.07 -141.14)" fill="#e7d0a5"/>
  <line x1="87.49" y1="51.93" x2="99.06" y2="53.27" fill="none" stroke="#fff" stroke-miterlimit="10" stroke-width="2"/>
  <g>
    <path d="M72.34,253.2H38.75c-.67,0-.81-.09-.81-.58v-23.3c0-.48.13-.58.8-.58h67.38c.67,0,.81.09.81.58v23.3c0,.48-.13.58-.8.58Z" transform="translate(0.07 -141.14)" fill="#fefefe"/>
    <path d="M60.26,244.47a1.44,1.44,0,0,1-.2-1v-6c0-1.44-.32-1.65-2.26-1.8a9.16,9.16,0,0,0-2.52.06c-.38.16-.18.43-.18.63v8.1a1.37,1.37,0,0,1-.07.76,15.51,15.51,0,0,1-4.31,0c-.06-2.69,0-5.39,0-8.07,0-.27.14-.56-.2-.79a1.89,1.89,0,0,0-1.59-.63,7.23,7.23,0,0,0-3.09.19,1.07,1.07,0,0,0-.1.72v8.59a20.65,20.65,0,0,1-4,.09c-.66,0-.48-.43-.48-.72v-7.83c0-1.24-.3-1.54-2-1.93-.67-.08-1.12-.53-1-1a.72.72,0,0,1,.11-.24c.13-.34.48-.34.84-.35,1.47,0,2.94-.12,4.4-.12,5.71,0,11.42-.12,17.11.25,1.3.09,2.71.1,3.51,1.09a7.55,7.55,0,0,1,.47,3c.07,1.82-.09,3.65.08,5.48a6,6,0,0,1,0,1.38c-.27.9-.27.89-1.57.91a13.15,13.15,0,0,0-1.74,0,1.09,1.09,0,0,1-1.14-.61c.18-1.73,0-3.46.08-5.19v4.76A.36.36,0,0,1,60.26,244.47Z" transform="translate(0.07 -141.14)" fill="#850040"/>
    <path d="M77.13,238.51a5,5,0,0,1,.87-2.93,5.71,5.71,0,0,1,4.73-2.47,35.84,35.84,0,0,1,4.39,0c.71,0,1-.12,1-.66V229.7c0-.24-.14-.54.36-.63.33.14.7,0,1,.09s.78,0,1.09.21c2,.17,2,.17,2,1.63v11.07a.73.73,0,0,0,.05.25.15.15,0,0,1,0,.12c.09,0,0-.09,0-.13a.17.17,0,0,1,.13-.13c0,.73.74,1.35,1.75,1.39h.25c1.14.06,1,.6,1,1.15s-.62.58-1.22.61c-3.65.12-7.3.06-10.95,0-4-.05-6.37-1.67-6.49-5A16.12,16.12,0,0,0,77.13,238.51Z" transform="translate(0.07 -141.14)" fill="#840040"/>
    <path d="M99.07,230.32c1.5.09,1.67.19,1.91,1.2.39,1.68.39,1.68,2.77,1.8.73,0,1.34.4,1.36.92a.73.73,0,0,1-.11.4c-.08.18-.25.18-.43.21-.41.07-.82.14-1.22.24-1.09.13-1.82.87-1.64,1.66a19.87,19.87,0,0,1-.07,2c-.46,0-.29-.26-.29-.41v1.87c0,.15.23.05.1.07s-.07,0-.07,0V239.2c0-.14,0-.3.3-.26.05,1.07.13,2.16.15,3.23-.1.65.56,1.24,1.47,1.31h0c.83.11,1.65.27,2.48.36.61.07.8.29.77.72s-.2.68-.82.72a48.18,48.18,0,0,1-5.83,0,2.72,2.72,0,0,1-2.64-1.51c.24-.64-.16-1.25-.15-1.88,0-2.21-.12-4.43.06-6.64.12-1.57,0-3.14.22-4.71C97.86,230.12,98.51,230.42,99.07,230.32Z" transform="translate(0.07 -141.14)" fill="#850040"/>
    <path d="M69.26,236a3.26,3.26,0,0,0-2.21-1.11c-.92-.14-.66-.62-.69-1s.39-.53.88-.54c2.07-.09,4.15-.08,6.22,0,.25,0,.54,0,.55.28a.32.32,0,0,0-.12.32v10.72a.49.49,0,0,0,.12.4c0,.22-.21.27-.46.27H69.76c-.24,0-.45-.05-.46-.27a.71.71,0,0,0,.09-.55v-7.93C69.39,236.3,69.49,236.13,69.26,236Z" transform="translate(0.07 -141.14)" fill="#840040"/>
    <path d="M55.8,249.84c0-1.29.29-1.57,1.68-1.59,1.6,0,2,.27,2,1.44v.43c.08.76-.71,1.42-1.76,1.48a2.48,2.48,0,0,1-1.24-.25C55.9,251.11,55.8,250.89,55.8,249.84Z" transform="translate(0.07 -141.14)" fill="#908871"/>
    <path d="M51.45,252.16c0-.32.8-.81-.33-.92a5.37,5.37,0,0,1-1.69,0,.47.47,0,0,1-.51-.27,6,6,0,0,1,0-2.16c0-.2.17-.38.44-.4h.11a5.31,5.31,0,0,1,1.76,0c1,.09,1,.09,1,1v2.31c.07.4-.27.79-.81.91a.56.56,0,0,1-.26-.14.18.18,0,0,1,0-.15A.45.45,0,0,0,51.45,252.16Z" transform="translate(0.07 -141.14)" fill="#8e8770"/>
    <path d="M66.31,248.51a2.54,2.54,0,0,1,2.11-.09c.39.17.6,0,.88-.06,1.47-.34,2.15,0,2.15,1.13V251c0,.17,0,.35-.33.35s-.34-.16-.34-.34v-1.69c0-.56-.31-.68-1-.66s-1.1,0-1,.63a9.49,9.49,0,0,1,0,1.69c0,.16,0,.36-.31.35s-.29-.2-.3-.37a13.86,13.86,0,0,1,0-1.44c.08-.64-.23-.93-1.15-.83a3.25,3.25,0,0,1-.48,0C66.47,248.63,66.33,248.61,66.31,248.51Z" transform="translate(0.07 -141.14)" fill="#262101"/>
    <path d="M90.06,249.27V251c0,.27,0,.45-.52.45s-.45-.19-.45-.43v-3.67c0-.25.07-.4.47-.4s.5.13.5.39Z" transform="translate(0.07 -141.14)" fill="#8d856d"/>
    <path d="M105.93,251.35h-.76a5.64,5.64,0,0,1-1.81,0c-.36,0-.46-.19-.49-.36a3.83,3.83,0,0,1,.09-2.21,6.86,6.86,0,0,1,.14,1.82,6.5,6.5,0,0,0-.14-1.82c.23-.61.92-.54,1.54-.53a8.78,8.78,0,0,1,1,.12c.23-.33,0-.72.11-1s.07-.35.39-.16A12.11,12.11,0,0,1,105.93,251.35Z" transform="translate(0.07 -141.14)" fill="#8b836b"/>
    <path d="M50.48,236.3c0-.08,0-.3.24-.1a1,1,0,0,1,.16.72c0,2.68-.1,5.36.07,8,0,.12-.11.15-.24.17-.3-.22-.15-.49-.15-.72v-6.94C50.55,237.07,50.51,236.67,50.48,236.3Z" transform="translate(0.07 -141.14)" fill="#800038"/>
    <path d="M60.88,251.35c-.51-.47-.18-1-.23-1.52s-.31-1.16.12-1.33a5.58,5.58,0,0,1,2.42-.24c.44,0,.83.15.83.55-.14.85.22,1.71-.21,2.54-.49,0-.37-.25-.38-.44v-1.69c0-.59-.58-.53-1.09-.51s-1-.09-1.09.53.28,1.44-.2,2.12c-.25-.79.06-1.61-.11-2.16A9.62,9.62,0,0,1,60.88,251.35Z" transform="translate(0.07 -141.14)" fill="#8d856e"/>
    <path d="M79.65,249c-.09-.22-1.33-.3-.12-.68.32-.1-.28-.76.44-.72.55,0,.09.53.31.76s.35.06.53.09.66-.12.85.17c0,0-.06.09-.11.12-.39.19-1.16-.19-1.27.24a4.83,4.83,0,0,0,0,1.88c0,.35.56.2.89.23.18,0,.43,0,.44.16s-.2.19-.35.2c-.64,0-1.4.2-1.62-.5A3.07,3.07,0,0,0,79.65,249Z" transform="translate(0.07 -141.14)" fill="#262102"/>
    <path d="M77.33,251.21a2.65,2.65,0,0,1-2.18.16c-.69-.19-.5-.72-.52-1.11v-.56c0-1.32.63-1.67,2.42-1.35l.48.06a.19.19,0,0,1,.21,0h0v0c0,.28-.33.35-.65.4s-1.1-.14-1.34.25a1.71,1.71,0,0,0,0,1.51c.12.35.64.25,1,.35C76.86,251.11,77.31,250.9,77.33,251.21Z" transform="translate(0.07 -141.14)" fill="#2f290c"/>
    <path d="M97.5,230.46c0,3.6-.33,7.21-.2,10.77a5.35,5.35,0,0,0,.16,1.61c.1.28.23.66-.22.92a.9.9,0,0,1-.15-.82,34.69,34.69,0,0,1-.06-4.33,36.73,36.73,0,0,1,.07-4.33h0a13.17,13.17,0,0,0,0-3.67c0-.13,0-.25.17-.3A.23.23,0,0,1,97.5,230.46Z" transform="translate(0.07 -141.14)" fill="#82003c"/>
    <path d="M92.61,242.33c-.34-.23-.2-.53-.2-.8V230.79c0-1.13,0-1.13-1.53-1.32a.7.7,0,0,1-.43-.14.21.21,0,0,1,.23,0h0a3.06,3.06,0,0,1,1.94.37,1.39,1.39,0,0,1,.07.72v11.64A.33.33,0,0,1,92.61,242.33Z" transform="translate(0.07 -141.14)" fill="#82003a"/>
    <path d="M83.66,250.36v1.55c0,.45-.58.8-1.2.77a1.53,1.53,0,0,1-.34-.05c-.13,0-.26,0-.26-.17s.12-.16.25-.16c1,0,1-.47,1-1V248.8c0-.18-.07-.43.31-.44s.3.25.31.43v1.55Z" transform="translate(0.07 -141.14)" fill="#837a60"/>
    <path d="M99.27,248.38c1.74-.37,2.32-.08,2.33,1.17V251c0,.18,0,.4-.35.41s-.37-.21-.37-.39a9.24,9.24,0,0,1,0-1.44c.09-.67-.23-1-1.19-.87a5.15,5.15,0,0,1-.59,0c-.08,0-.2.05-.22,0C98.79,248.42,99.19,248.51,99.27,248.38Z" transform="translate(0.07 -141.14)" fill="#888068"/>
    <path d="M92.61,242.18q0-6.24,0-12.49a3.93,3.93,0,0,1,.16,1.88v10.59l-.06,0S92.66,242.24,92.61,242.18Z" transform="translate(0.07 -141.14)" fill="#840040"/>
    <path d="M64.6,242.89v-4.64a10.06,10.06,0,0,0-.52-3.67s.09-.11.15-.17a2,2,0,0,1,.59,1.51c.06,2.64.1,5.28.14,7.93a.5.5,0,0,1-.13.47l-.1-.09A4.43,4.43,0,0,0,64.6,242.89Z" transform="translate(0.07 -141.14)" fill="#81043d"/>
    <path d="M54.55,249.88v1.2c0,.19-.12.32-.42.3s-.31-.15-.31-.31v-2.4c0-.15.07-.28.32-.3a.35.35,0,0,1,.41.31C54.56,249.08,54.55,249.48,54.55,249.88Z" transform="translate(0.07 -141.14)" fill="#9b9481"/>
    <path d="M42.07,248.81c-.48.63-.11,1.32-.23,2,0,.21.17.56-.3.56s-.35-.37-.36-.59v-2c0-.24,0-.51.52-.37C41.75,248.55,42.15,248.55,42.07,248.81Z" transform="translate(0.07 -141.14)" fill="#857d64"/>
    <path d="M74,245c-.36-.22-.2-.53-.21-.79v-9.6a1.88,1.88,0,0,0-.09-.91c-.14-.28.15-.15.31-.14a8.3,8.3,0,0,1,.07,2v8.65C74.09,244.5,74,244.75,74,245Z" transform="translate(0.07 -141.14)" fill="#7d0038"/>
    <path d="M44.2,248.91a.7.7,0,0,1,.75-.53.53.53,0,0,1,.25,0,5,5,0,0,0,1.3,0,.28.28,0,0,1,.24,0c.83.22.77.72.81,1.23,0,.25-.26.35-.6.31a7,7,0,0,0-2.15,0h0a.46.46,0,0,0-.18.17c-.17.21.23.62-.45.65A5.11,5.11,0,0,1,44.2,248.91Z" transform="translate(0.07 -141.14)" fill="#8f866f"/>
    <path d="M99.27,248.38c.05.13-.43.12-.16.31-.39.13-.4.38-.39.65V251c0,.17,0,.35-.34.33s-.28-.17-.28-.31c0-.79-.06-1.59,0-2.38C98.16,248.08,98.9,248.55,99.27,248.38Z" transform="translate(0.07 -141.14)" fill="#8d846d"/>
    <path d="M91.43,247.11c.42-.25.72-.23.73.21v3.76c0,.39-.25.5-.72.26a.66.66,0,0,0,.17-.32v-3.72A.62.62,0,0,0,91.43,247.11Z" transform="translate(0.07 -141.14)" fill="#8d856e"/>
    <path d="M45.67,245.17c-.28-.3,0-.63,0-.94v-7.68c0-.25-.13-.52.2-.72q0,4.48,0,9C45.82,244.95,45.86,245.07,45.67,245.17Z" transform="translate(0.07 -141.14)" fill="#7c0432"/>
    <path d="M55,245.19v-8.87c0-.22-.13-.48.28-.61-.17,1.54,0,3.09-.07,4.63v4.22C55.2,244.76,55.36,245,55,245.19Z" transform="translate(0.07 -141.14)" fill="#7b002f"/>
    <path d="M66.31,248.51l.25.17c-.37.12-.36.35-.35.59V251c0,.16,0,.35-.32.34s-.32-.12-.32-.28v-2.47C65.61,248.2,66,248.32,66.31,248.51Z" transform="translate(0.07 -141.14)" fill="#262000"/>
    <path d="M69.26,236c.32.14.23.37.23.56v7.93c0,.18.05.38-.2.52Z" transform="translate(0.07 -141.14)" fill="#750027"/>
    <path d="M73.49,249.93v1.19c0,.12,0,.23-.25.25s-.38-.06-.38-.23v-2.52c0-.12.1-.23.27-.25h.1c.27,0,.28.16.28.3v1.26Z" transform="translate(0.07 -141.14)" fill="#191201"/>
    <path d="M97.1,234.27v8.65a26.54,26.54,0,0,1-.1-5A19.26,19.26,0,0,1,97.1,234.27Z" transform="translate(0.07 -141.14)" fill="#850040"/>
    <path d="M105.93,251.35v-4.24a.29.29,0,0,1,.32-.05l.07.05v3.6C106.29,251,106.54,251.33,105.93,251.35Z" transform="translate(0.07 -141.14)" fill="#82795f"/>
    <path d="M86.34,250.37l.21.23c.08.14.35.07.43.21a3.09,3.09,0,0,1-.59,1.54.41.41,0,0,1-.56.27c-.32-.1-.09-.3,0-.41a1.64,1.64,0,0,0-.12-2l.09-.06A.7.7,0,0,1,86.34,250.37Z" transform="translate(0.07 -141.14)" fill="#918974"/>
    <path d="M87,250.81c-.2,0-.38,0-.43-.21a9.18,9.18,0,0,0,1-1.87c.12-.19.2-.46.59-.34s.1.33,0,.48A5,5,0,0,1,87,250.81Z" transform="translate(0.07 -141.14)" fill="#938c76"/>
    <path d="M60.26,244.47V237.1h.22v6.81c0,.22.1.48-.17.67,0,0-.08,0-.06-.08h0Z" transform="translate(0.07 -141.14)" fill="#800438"/>
    <path d="M96.11,251.26a2.79,2.79,0,0,1-2.74-.17,4.59,4.59,0,0,0,.17-.72c.05-.22.08-.48.55-.45.44,1,.44,1,1.85,1C96.1,251,96.26,251.08,96.11,251.26Z" transform="translate(0.07 -141.14)" fill="#928a74"/>
    <path d="M44.83,250.94c.82.32,1.76,0,2.63.22a3.26,3.26,0,0,1-3.08-.06A.33.33,0,0,1,44.83,250.94Z" transform="translate(0.07 -141.14)" fill="#898069"/>
    <path d="M61.45,245.19c0-.16.1-.23.38-.21.52,0,1,0,1.57,0,.8.08,1.14-.19,1.21-.72a.1.1,0,0,1,.11,0h0l.07,0c.1,1,.1,1-1.16,1A8.79,8.79,0,0,1,61.45,245.19Z" transform="translate(0.07 -141.14)" fill="#81013b"/>
    <path d="M77.06,248.71a.78.78,0,0,0,.66-.31,1.34,1.34,0,0,1,0-1,.27.27,0,0,1,.3.06h0c.09,1.25-.09,2.5.09,3.76-.26.36-.51.09-.76,0l-.39-.13c-.09-.22.21-.26.34-.38a1.85,1.85,0,0,0,0-1.67A.6.6,0,0,1,77.06,248.71Z" transform="translate(0.07 -141.14)" fill="#352f12"/>
    <path d="M85.71,250.26c-.3-.51-.61-1-.9-1.54-.06-.11-.24-.27.06-.35a.46.46,0,0,1,.52.14h0v0a3,3,0,0,1,.53,1.11c-.24.16.1.4-.16.55Z" transform="translate(0.07 -141.14)" fill="#918a73"/>
    <path d="M94.17,249.95c-.48,0-.41.28-.41.5s0,.51-.39.63c-.23-.56-.41-1.13.59-1.44a.39.39,0,0,1,.31,0c.41.05.82,0,1.23,0,.23,0,.54,0,.34.32A2,2,0,0,1,94.17,249.95Z" transform="translate(0.07 -141.14)" fill="#837a60"/>
    <path d="M101.63,238.94c-.47.48,0,1-.38,1.54v-4.22c.38.83-.11,1.71.37,2.53Z" transform="translate(0.07 -141.14)" fill="#82003c"/>
    <path d="M96.11,251.26l-.22-.34v-.09a1.22,1.22,0,0,1,.13-.35,5.73,5.73,0,0,0,.06-1.44.27.27,0,0,0-.2-.23l-.35-.16a.23.23,0,0,1-.11-.17.24.24,0,0,1,.14-.15,1.73,1.73,0,0,1,.73.19l.24.25a8.29,8.29,0,0,1,0,2.57A.39.39,0,0,1,96.11,251.26Z" transform="translate(0.07 -141.14)" fill="#857c64"/>
    <path d="M63.81,251.35c.11-.85-.24-1.71.21-2.54a8.65,8.65,0,0,1,.09,2.31c0,.11-.09.21-.24.22Z" transform="translate(0.07 -141.14)" fill="#7e755b"/>
    <path d="M91.43,247.11h.18a17,17,0,0,1,0,4.09l-.2.14C91.34,249.95,91.36,248.55,91.43,247.11Z" transform="translate(0.07 -141.14)" fill="#7d755b"/>
    <path d="M42.07,248.81c-.11-.14-.41-.17-.39-.38.5.11.92-.17,1.4-.16.26,0,.56,0,.55.25s-.31.17-.52.19Z" transform="translate(0.07 -141.14)" fill="#968f7a"/>
    <path d="M78.09,251.22a5.21,5.21,0,0,1-.16-2.2v-1.61a.13.13,0,0,1,.14,0h0Q78.09,249.31,78.09,251.22Z" transform="translate(0.07 -141.14)" fill="#2d2708"/>
    <path d="M51.45,252.16l-.19.2c-.64.14-1.31,0-2,.11-.13,0,.08.1,0,0s0-.05.06-.05a9,9,0,0,1,1.89.05l.2.12a8.93,8.93,0,0,1-1.93.06c-.24,0-.59,0-.57-.25s.34-.17.55-.17A9.68,9.68,0,0,0,51.45,252.16Z" transform="translate(0.07 -141.14)" fill="#918973"/>
    <path d="M97.12,230.6a7,7,0,0,1,0,3.67A25.21,25.21,0,0,1,97.12,230.6Z" transform="translate(0.07 -141.14)" fill="#850040"/>
    <path d="M44.83,250.94l-.45.16a2.26,2.26,0,0,1-.17-2.16c.16.62-.22,1.28.22,1.88.25-.26,0-.58.18-.84h.22A2,2,0,0,0,44.83,250.94Z" transform="translate(0.07 -141.14)" fill="#918973"/>
    <path d="M77.13,238.51a1.82,1.82,0,0,1,0,1.84A3,3,0,0,1,77.13,238.51Z" transform="translate(0.07 -141.14)" fill="#7e0236"/>
    <path d="M60.88,251.35V249h.2v2.35Z" transform="translate(0.07 -141.14)" fill="#81795f"/>
    <path d="M96.52,251.36v-2.57A4.61,4.61,0,0,1,96.52,251.36Z" transform="translate(0.07 -141.14)" fill="#98917c"/>
    <path d="M97.5,230.46l-.2-.16a3.08,3.08,0,0,1,1.77,0C98.59,230.6,98,230.4,97.5,230.46Z" transform="translate(0.07 -141.14)" fill="#7a0030"/>
    <path d="M95.9,248.83l.23.13c.15.78.15.79-.91.78a4.48,4.48,0,0,1-1.07,0H94a1.93,1.93,0,0,1,1-.09C95.82,249.64,96.15,249.43,95.9,248.83Z" transform="translate(0.07 -141.14)" fill="#98917c"/>
    <path d="M54.19,247.69c-.29,0-.36-.13-.36-.28s.09-.32.39-.31.33.1.34.23a.17.17,0,0,1,0,0C54.54,247.56,54.44,247.69,54.19,247.69Z" transform="translate(0.07 -141.14)" fill="#9f9885"/>
    <path d="M79.65,249a1.88,1.88,0,0,1,0,1.95A6.14,6.14,0,0,1,79.65,249Z" transform="translate(0.07 -141.14)" fill="#160f00"/>
    <path d="M48.91,248.78v2.16A3.48,3.48,0,0,1,48.91,248.78Z" transform="translate(0.07 -141.14)" fill="#938c76"/>
    <path d="M96.31,248.55l-.77-.14a2.57,2.57,0,0,1-1.81,0A3.24,3.24,0,0,1,96.31,248.55Z" transform="translate(0.07 -141.14)" fill="#8f8771"/>
    <path d="M83.38,247.11c.18,0,.34.09.35.22a.17.17,0,0,1,0,0c0,.17-.06.33-.37.33s-.34-.11-.34-.27S83.08,247.11,83.38,247.11Z" transform="translate(0.07 -141.14)" fill="#9d9682"/>
    <path d="M93.73,248.38h1.81v.17c-.5.18-1.07-.05-1.57.14-.18,0-.41.08-.5-.06S93.59,248.42,93.73,248.38Z" transform="translate(0.07 -141.14)" fill="#837b62"/>
    <path d="M106.32,247.11h-.39c-.59.34.06.89-.39,1.25v-1.05C105.54,247,105.91,246.88,106.32,247.11Z" transform="translate(0.07 -141.14)" fill="#edece8"/>
    <path d="M73.49,247.39c0,.14,0,.28-.29.28s-.36-.14-.35-.32.09-.23.26-.25h.09C73.46,247.11,73.49,247.24,73.49,247.39Z" transform="translate(0.07 -141.14)" fill="#0c0401"/>
    <path d="M90.7,229.32h-.24c-.33,0-.71.09-1-.14q-.1,0-.07-.09s0,0,.07,0C89.9,229.09,90.4,229,90.7,229.32Z" transform="translate(0.07 -141.14)" fill="#7d0534"/>
    <path d="M44.82,249.95a3.56,3.56,0,0,1,2.15,0Z" transform="translate(0.07 -141.14)" fill="#877f66"/>
    <path d="M46.75,248.4h-.2a3.44,3.44,0,0,1-1.31,0H45A2.58,2.58,0,0,1,46.75,248.4Z" transform="translate(0.07 -141.14)" fill="#918973"/>
    <path d="M85.78,250.21c0-.19-.12-.4.16-.55,0,.28.45.42.39.72Z" transform="translate(0.07 -141.14)" fill="#837b63"/>
    <path d="M103.36,251.37h1.81A2.79,2.79,0,0,1,103.36,251.37Z" transform="translate(0.07 -141.14)" fill="#97907b"/>
    <path d="M51.23,248.4H49.47A2.45,2.45,0,0,1,51.23,248.4Z" transform="translate(0.07 -141.14)" fill="#938c76"/>
    <path d="M94,248.68c.48-.27,1-.07,1.57-.14v.14Z" transform="translate(0.07 -141.14)" fill="#8f8771"/>
    <path d="M49.43,251.24h1.69A2.61,2.61,0,0,1,49.43,251.24Z" transform="translate(0.07 -141.14)" fill="#908771"/>
    <path d="M77.72,247.41v1h-.2v-1a.14.14,0,0,1,.16,0h0Z" transform="translate(0.07 -141.14)" fill="#2c2607"/>
    <path d="M77.72,247.41h-.18c-.06-.17,0-.3.27-.31s.33.14.28.31Z" transform="translate(0.07 -141.14)" fill="#251e02"/>
    <path d="M89.47,229.09v.12a1.55,1.55,0,0,1-1-.13A2,2,0,0,1,89.47,229.09Z" transform="translate(0.07 -141.14)" fill="#740024"/>
    <path d="M64.75,244.28H64.6v-1.44C65,243.33,64.73,243.81,64.75,244.28Z" transform="translate(0.07 -141.14)" fill="#77002a"/>
    <path d="M88.07,239.36v3c0,.56-.33.77-1,.78H85c-1.52,0-2.83-.76-3-1.85a7.06,7.06,0,0,1,0-4.19c.35-1.21,1-1.61,2.72-1.74a15.06,15.06,0,0,1,2,0c1.32.06,1.4.12,1.41,1.1S88.07,238.39,88.07,239.36Z" transform="translate(0.07 -141.14)" fill="#fefefe"/>
    <path d="M86,245.14h5.45a1.32,1.32,0,0,1,.56.1H86Z" transform="translate(0.07 -141.14)" fill="#82003c"/>
    <path d="M81.56,238.06a.45.45,0,0,1,0-.56C81.75,237.7,81.56,237.9,81.56,238.06Z" transform="translate(0.07 -141.14)" fill="#7f0034"/>
    <path d="M92.61,242.18h.17v.58c-.27-.14-.12-.31-.17-.45Z" transform="translate(0.07 -141.14)" fill="#7e0037"/>
    <path d="M56.54,249.92v-.55c0-.45.14-.72.85-.72s1.37-.06,1.43.63a5.3,5.3,0,0,1,0,1.05,1.29,1.29,0,0,1-1.47.8,1.64,1.64,0,0,1-.53-.14C56.28,250.72,56.65,250.24,56.54,249.92Z" transform="translate(0.07 -141.14)" fill="#fdfdfc"/>
    <path d="M57,248.49a2.4,2.4,0,0,1,1.29,0Z" transform="translate(0.07 -141.14)" fill="#80765c"/>
    <path d="M49.49,248.82c.72-.25,1.62-.28,2,.16a1.33,1.33,0,0,1,0,1.67c-.38.45-1.3.31-2,.13A5.65,5.65,0,0,1,49.49,248.82Z" transform="translate(0.07 -141.14)" fill="#f9f9f8"/>
    <path d="M49.49,248.82v2A2.45,2.45,0,0,1,49.49,248.82Z" transform="translate(0.07 -141.14)" fill="#938c76"/>
    <path d="M51.28,252.49H49.37v-.13h1.91A.48.48,0,0,1,51.28,252.49Z" transform="translate(0.07 -141.14)" fill="#80775d"/>
    <path d="M71.22,249v2h-.1V249Z" transform="translate(0.07 -141.14)" fill="#201900"/>
    <path d="M105.69,249.95v.28c0,.52-.58.95-1.3.95a1.71,1.71,0,0,1-.7-.14.37.37,0,0,1-.26-.35,11,11,0,0,1,0-1.55c0-.51.63-.45,1.11-.45s1,0,1.1.48v.78Z" transform="translate(0.07 -141.14)" fill="#edece8"/>
    <path d="M103,248.8c.46.64.11,1.32,0,2Z" transform="translate(0.07 -141.14)" fill="#847b60"/>
    <path d="M104,248.5a1,1,0,0,1,.74-.06C104.51,248.65,104.24,248.46,104,248.5Z" transform="translate(0.07 -141.14)" fill="#857b63"/>
    <path d="M62.1,248.46a1.85,1.85,0,0,1,1,0A1.8,1.8,0,0,1,62.1,248.46Z" transform="translate(0.07 -141.14)" fill="#847c62"/>
    <path d="M81.38,248.6a1.8,1.8,0,0,1-1,0A1.66,1.66,0,0,1,81.38,248.6Z" transform="translate(0.07 -141.14)" fill="#241e03"/>
    <path d="M77.06,248.71l.37.13a2.89,2.89,0,0,1,.05,2.1c-.18.06-.42,0-.55.15-.22,0-.45,0-.67,0-.77.05-1.08-.2-1-.72a2.08,2.08,0,0,0,0-.35C75.27,248.48,75.26,248.71,77.06,248.71Z" transform="translate(0.07 -141.14)" fill="#f6f6f5"/>
    <path d="M75,250.62v-1.51h.09v1.51Z" transform="translate(0.07 -141.14)" fill="#1a1401"/>
    <path d="M75.72,248.47a1.35,1.35,0,0,1,.86,0A1.35,1.35,0,0,1,75.72,248.47Z" transform="translate(0.07 -141.14)" fill="#211a00"/>
    <path d="M75.79,251.24h.81A.88.88,0,0,1,75.79,251.24Z" transform="translate(0.07 -141.14)" fill="#2b2405"/>
    <path d="M101.07,251.06V249h.09v2.08Z" transform="translate(0.07 -141.14)" fill="#827b62"/>
    <path d="M44.86,248.83a2.94,2.94,0,0,1,1.51-.14c.51,0,.59.28.6.6s-.3.35-.64.35H44.87a.47.47,0,0,1,0-.81Z" transform="translate(0.07 -141.14)" fill="#f1f0ee"/>
    <path d="M45.24,248.41h1.31A1.59,1.59,0,0,1,45.24,248.41Z" transform="translate(0.07 -141.14)" fill="#837a60"/>
    <path d="M44.61,250c-.06.28.16.59-.18.84C44.49,250.51,44.27,250.2,44.61,250Z" transform="translate(0.07 -141.14)" fill="#857c62"/>
    <path d="M44.86,248.83a.87.87,0,0,0,0,.82h-.25a.64.64,0,0,1,0-.72Z" transform="translate(0.07 -141.14)" fill="#918973"/>
    <path d="M44.62,249v.72a.38.38,0,0,1,0-.66h0Z" transform="translate(0.07 -141.14)" fill="#847c63"/>
    <path d="M91.63,251.22v-4.09c.29.15.22.37.2.58C91.72,248.87,92.06,250.05,91.63,251.22Z" transform="translate(0.07 -141.14)" fill="#8f8770"/>
    <path d="M94.17,249.95h1.75L96,250a.79.79,0,0,1-.15.88h0a1.6,1.6,0,0,1-.72.16C93.87,251.11,93.6,250.82,94.17,249.95Z" transform="translate(0.07 -141.14)" fill="#fbfbfa"/>
    <path d="M77.49,250.93q0-1-.05-2.1A1.93,1.93,0,0,1,77.49,250.93Z" transform="translate(0.07 -141.14)" fill="#2c2607"/>
    <path d="M94.16,249.69a8.51,8.51,0,0,1,1,0c.78.07,1.14-.14,1-.72a1.79,1.79,0,0,1,0,1.71c-.27-.2.06-.51-.24-.72h0C95.42,249.6,94.69,250,94.16,249.69Z" transform="translate(0.07 -141.14)" fill="#928a74"/>
    <path d="M95.91,249.95c.38.19.15.48.24.72s-.06.22-.25.25A1.79,1.79,0,0,0,95.91,249.95Z" transform="translate(0.07 -141.14)" fill="#98917c"/>
  </g>
</svg>
