<svg id="Layer_1" data-name="Layer 1" xmlns="http://www.w3.org/2000/svg" width="155.14" height="155.19" viewBox="0 0 155.14 155.19">
  <title>cs_partiring_enhedslisten-sm</title>
  <g>
    <path d="M420,193c0,24.65,0,49.29.06,73.94,0,2.39-.4,3.12-3,3.11q-74.44-.15-148.88,0c-2.94,0-3.24-.81-3.23-3.42q.13-74.19,0-148.38c0-2.68.41-3.38,3.27-3.37q74.19.17,148.38,0c3.21,0,3.49.92,3.48,3.68C420,143.39,420,168.2,420,193Z" transform="translate(-264.93 -114.9)" fill="#fefefe"/>
    <path d="M342.94,121A72,72,0,1,1,271,192.81,72.08,72.08,0,0,1,342.94,121Z" transform="translate(-264.93 -114.9)" fill="#743030"/>
    <path d="M342.87,131A62,62,0,1,1,281,193.13,62.1,62.1,0,0,1,342.87,131Z" transform="translate(-264.93 -114.9)" fill="#fefefe"/>
    <path d="M364,228c-.53,2.1-2.65,2.14-4,3.13-1.34-1.29-1.19-3-1.35-4.64-.05-2-1.32-2.94-3-3.6a7,7,0,0,1-2.21-1.51,3.76,3.76,0,0,1-1.06-2.52c.39-2.14,1.87-3.67,3-5.42,1.37-1.28,1.25-3.36,2.52-4.69,3.87-.56,2.93,2.74,3.25,4.51.5,2.71,1.15,4.72,4.42,4.41,3,.26,4.74,1.43,3.56,4.78-.48,2-.59,4.33-3.69,3.74a4.22,4.22,0,0,0-1.64.39A1,1,0,0,0,364,228Z" transform="translate(-264.93 -114.9)" fill="#ed063e"/>
    <path d="M331.79,228.15,325,224.9c-.94-1.19-.73-2.75-1.34-4a4.09,4.09,0,0,1,2.1-3.31,5.51,5.51,0,0,1,1.33-.5,7.39,7.39,0,0,1,1.42-.14,7.69,7.69,0,0,1,4.62,1.61c1.32,2,3,1.09,4.62.54,2.15-.33,4.32-.73,6.21.83,1.23,2.4-2.52,2.61-2,4.68a21.82,21.82,0,0,1,.62,3c.16,2.54-3.66.81-3.54,3.3-1,.4-1.58,1.73-2.94,1.45-.91-1.26-1.06-2.86-1.92-4.13-.35-.44-.74-.75-1.34-.41A2.16,2.16,0,0,1,331.79,228.15Z" transform="translate(-264.93 -114.9)" fill="#e6063d"/>
    <path d="M327,156.16l1,0c.39.26.68.69,1.21.7l0-.06c.66,1,.16,2.38.88,3.41,1.47,2.11,3.94,3.42,4.75,6,.06,2.52,4.34,2.59,3.34,5.73-1.42,1.43-3.88,1.3-4.93,3.3a3.16,3.16,0,0,1-2,.39c-6.05-.7-6.58-5.14-6.68-9.87.59-1.76-1.28-3.11-.85-4.86C324.43,159.1,326.07,157.88,327,156.16Z" transform="translate(-264.93 -114.9)" fill="#f00642"/>
    <path d="M372.06,207l-.1,2c-.41.61-.68,1.36-1.55,1.51-3.92-1.34-5.86-4.53-7.47-8-.33-2.21-.52-4.41.59-6.49a6.05,6.05,0,0,1,7.06-1.57,1.91,1.91,0,0,1,.92,1.29C372,199.45,369.88,203.33,372.06,207Z" transform="translate(-264.93 -114.9)" fill="#f30643"/>
    <path d="M342.15,152.63a.76.76,0,0,1,.6.28c2.1-1.31,3.45.7,5.16,1.13,3.51,1.49,5.35-.73,7.08-3.18,2.28.06,4.87-.85,6.22,2a2.81,2.81,0,0,1-1,1.64,14.09,14.09,0,0,0-2.74,2.59c-1.31.22-1.15,1.9-2.29,2.3-2.13-.36-4.23-1.49-6.38-.15-.38.55-1-1.08-1.35.19a1.49,1.49,0,0,1-.56.92,2.73,2.73,0,0,1-1.16.21,4.94,4.94,0,0,1-2.25-1.11c-1-.89-2.23-1.51-3-2.66a4,4,0,0,1-.3-1.38A3.06,3.06,0,0,1,342.15,152.63Z" transform="translate(-264.93 -114.9)" fill="#f60843"/>
    <path d="M325,165c.26.59.81,1.23.74,1.78-.57,4.31,1.76,6.7,5.31,8.36-.2,2.31-2.24,1.77-3.58,2.31a4,4,0,0,1-1.36-.06,7.36,7.36,0,0,1-1.85-.92,6.6,6.6,0,0,1-3.16-3.53c-.44-3.07-3.3-5-3.92-7.93-.18-.64.18-.91.73-1,1.69-1.18,3.44-.64,5.19-.19A4.13,4.13,0,0,1,325,165Z" transform="translate(-264.93 -114.9)" fill="#ef0641"/>
    <path d="M317.16,165c2.3,2.25,5.08,4.21,4.84,8a2.41,2.41,0,0,1-2.56,1.61,9.83,9.83,0,0,1-1.87-.51,7,7,0,0,1-1.19-.5,2.25,2.25,0,0,1-1.1-1.51C314.27,169.3,315.83,167.18,317.16,165Z" transform="translate(-264.93 -114.9)" fill="#ed053d"/>
    <path d="M371,196v-1a5.1,5.1,0,0,1-1.26-3c-.08-1.64-.07-3.27,0-4.91a37.78,37.78,0,0,1,1.39-7.17,2.61,2.61,0,0,1,1.06-1.22,111.76,111.76,0,0,1,0,25.64,2.43,2.43,0,0,1-.94-1.11c-.42-1.93,0-3.93-.43-5.87A1.23,1.23,0,0,1,371,196Z" transform="translate(-264.93 -114.9)" fill="#ed002f"/>
    <path d="M354,221l2,1c1,1.39,2,2.85,4,3q0,3.07,0,6.13a3.14,3.14,0,0,1-3,.82,10.89,10.89,0,0,0-1.56-.9,2.83,2.83,0,0,1-1-1.52,7.43,7.43,0,0,0-.72-2.37,6.68,6.68,0,0,1-.4-1.24C352.83,224.17,352.1,222.39,354,221Z" transform="translate(-264.93 -114.9)" fill="#eb053f"/>
    <path d="M368.84,161a12,12,0,0,1,1.24,6.78,5,5,0,0,1,.33,5.13,2.71,2.71,0,0,1-3.22.54c-2.11-1.93-1.27-4.67-1.92-7a7.46,7.46,0,0,1,.55-4C366.5,161.3,367.1,160,368.84,161Z" transform="translate(-264.93 -114.9)" fill="#f90746"/>
    <path d="M314.13,207.95a2.64,2.64,0,0,1-1.14-2.56c0-9.73,0-19.46,0-29.2a6.61,6.61,0,0,1,.9-2.2c1.63,1.42,1.33,3.38,1.45,5.21,0,6.39,0,12.79,0,19.18a33.17,33.17,0,0,1,0,3.6C315.17,204,315.76,206.22,314.13,207.95Z" transform="translate(-264.93 -114.9)" fill="#fae8ed"/>
    <path d="M371.11,215.3l-.21,1.7c-.27.22-.8.46-.84.37-1.39-2.94-4.12-.81-6-1.62-2.56-2-1.24-4.19-.38-6.37a13.7,13.7,0,0,1,7.83,2.12C371.44,212.78,371.67,214.08,371.11,215.3Z" transform="translate(-264.93 -114.9)" fill="#f00542"/>
    <path d="M364,215a7.41,7.41,0,0,1,6.89,2,8.92,8.92,0,0,1-1.75,5.45c.22-4-2.65-3.46-5.14-3.44C363,217.67,362.8,216.33,364,215Z" transform="translate(-264.93 -114.9)" fill="#ef0641"/>
    <path d="M377.28,203.49c-.51-4.91-.91-8.52-1.25-12.15-.08-.82.08-1.8,1.11-1.83.47,0,1.43.91,1.36,1.06C376.86,194.4,380.64,198.52,377.28,203.49Z" transform="translate(-264.93 -114.9)" fill="#fdfefd"/>
    <path d="M311.52,178.6V202C310.5,194.27,311.64,186.51,311.52,178.6Z" transform="translate(-264.93 -114.9)" fill="#fafefd"/>
    <path d="M321,221c-3-.86-3.42-3.45-3.92-6,1.29-1.55,2-3.86,4.77-3.37a2.32,2.32,0,0,1,.82,1c.45,1.72-.52,3.43,0,5.16a4,4,0,0,1-.13,1.94C322.22,220.43,321.56,220.64,321,221Z" transform="translate(-264.93 -114.9)" fill="#e5053e"/>
    <path d="M348,155c-2.28.64-3.23-2.07-5.25-2.09,2.17-3.61,5.33-1.43,8.13-1.39C351.78,154.22,350.31,155,348,155Z" transform="translate(-264.93 -114.9)" fill="#f40741"/>
    <path d="M341,156v1c-.75,1.72-2.08,1.35-3.42,1a6.81,6.81,0,0,0-3.66-.55,6.89,6.89,0,0,1-1.25.1A3.56,3.56,0,0,1,330,156c1.79-2.48,4.63-2,7.09-2.48C338.16,154.73,340.16,154.45,341,156Z" transform="translate(-264.93 -114.9)" fill="#f3073f"/>
    <path d="M348,155c1.43-.77,2.64-1.72,2.88-3.48l4.12-.66C353.8,154.15,352.81,157.81,348,155Z" transform="translate(-264.93 -114.9)" fill="#fb0643"/>
    <path d="M314.06,179l-.12-5c.31-.73.38-1.63,1.34-1.9l1.69,1a2.33,2.33,0,0,1,.84,1.69,5.19,5.19,0,0,1-.17,1.27c-.33,1-.56,2-.89,3a1.93,1.93,0,0,1-1.37,1.23C314.63,180.19,314.45,179.5,314.06,179Z" transform="translate(-264.93 -114.9)" fill="#eb013a"/>
    <path d="M339,230.85c-2.14-3.73,3.25-1.59,3-3.85a1.63,1.63,0,0,1,2.37.17,2.87,2.87,0,0,1-.21,3.35C342.51,231.68,340.73,230.94,339,230.85Z" transform="translate(-264.93 -114.9)" fill="#e5073e"/>
    <path d="M325,165h-2c-1.18-1.52-3.53-2.58-2-5.15l2-2a2.41,2.41,0,0,1,1,3.13C324.19,162.37,326.19,163.29,325,165Z" transform="translate(-264.93 -114.9)" fill="#eb0841"/>
    <path d="M360,154l1.23-1.12c2,.07,2.82,1.64,3.82,3a1.29,1.29,0,0,1,.28,1.24c-1.37,1.89-2.75.73-4.14,0a3.7,3.7,0,0,1-1.58-1.26A1.64,1.64,0,0,1,360,154Z" transform="translate(-264.93 -114.9)" fill="#fc0541"/>
    <path d="M367,234c-2.32.38-4.56,1.73-7.16.61,1.92-2.43,4.74-2,7.16-2.61A1.46,1.46,0,0,1,367,234Z" transform="translate(-264.93 -114.9)" fill="#fefdfc"/>
    <path d="M315,234c2.46-2,5.35-.56,8-1a1.35,1.35,0,0,1,0,2h-7C315.71,234.63,315.07,234.6,315,234Z" transform="translate(-264.93 -114.9)" fill="#fcfdfd"/>
    <path d="M323,235q0-1,0-2h2c1.67-1.31,3.33-2.36,5,0C328.54,236.74,325.32,234.28,323,235Z" transform="translate(-264.93 -114.9)" fill="#fcfdfb"/>
    <path d="M365,157l0-1.12c1.54,1.5,4.07,2.27,3.79,5.12a1.77,1.77,0,0,0-1.84,2,.91.91,0,0,1-1.18.21,4.66,4.66,0,0,1-1.3-2.35C364.4,159.54,364,158.18,365,157Z" transform="translate(-264.93 -114.9)" fill="#f90745"/>
    <path d="M371,196l0,1c1.15,1.78-.14,3.91.84,5.71l.31,1.61-.1,2.67C368.11,203.68,370.06,199.8,371,196Z" transform="translate(-264.93 -114.9)" fill="#f60643"/>
    <path d="M322,212c-2.28-.06-2.47,3.33-4.92,3-.88-.82-1.57-1.71-1-3a2.69,2.69,0,0,1,1.85-1.77,6,6,0,0,1,1.33-.21,4.8,4.8,0,0,1,2,.36C321.87,210.75,322.32,211.2,322,212Z" transform="translate(-264.93 -114.9)" fill="#e5063c"/>
    <path d="M341,156c-1.65-.27-3.28-.57-3.88-2.48,1.5-1.29,3-2.34,5-.89Z" transform="translate(-264.93 -114.9)" fill="#ee093c"/>
    <path d="M370,173l.08-5.22c3,1.79,1.64,4.72,1.91,7.22a1.42,1.42,0,1,1-2-2Z" transform="translate(-264.93 -114.9)" fill="#fb0037"/>
    <path d="M321.34,152.48c1.79-1.85,3.35-1.76,4.86-1,.67.33.5,1.15-.05,1.63C324.5,154.5,323.22,153,321.34,152.48Z" transform="translate(-264.93 -114.9)" fill="#fbfefd"/>
    <path d="M324,161l-1-3.13c1-1.48,2.88-.69,4-1.71C327.22,158.53,326,160,324,161Z" transform="translate(-264.93 -114.9)" fill="#f00841"/>
    <path d="M355,230l1,1c-2.55,1.27-5.4-.21-8,.88-.85.19-1.69.36-2.08-.75-.52-1.67.57-2.19,1.84-2.58a15.72,15.72,0,0,1,2.24.11C351.77,228.79,353.6,228.61,355,230Z" transform="translate(-264.93 -114.9)" fill="#ef033a"/>
    <path d="M321,159.84l2,5.15-5.11-1C318.71,162.42,318.53,160.13,321,159.84Z" transform="translate(-264.93 -114.9)" fill="#f10741"/>
    <path d="M330,156l3,1c.65,3.65-1.68,3.32-4,3-1.64-1.17-.14-2.16.18-3.22Z" transform="translate(-264.93 -114.9)" fill="#f00841"/>
    <path d="M348,229a3.51,3.51,0,0,0-2.06,2.12l-1.79-.61L344,227a3,3,0,0,1,3.94-.34A1.72,1.72,0,0,1,348,229Z" transform="translate(-264.93 -114.9)" fill="#e3093d"/>
    <path d="M367,234q0-1,0-2a3.44,3.44,0,0,1,2-2,1.36,1.36,0,0,1,2,0v3a4.3,4.3,0,0,1-4,1Z" transform="translate(-264.93 -114.9)" fill="#fefbfe"/>
    <path d="M335,227c.09,1.82,2.83,3.11,1.06,5.3a1.86,1.86,0,0,1-2.05.57c-1.28-1.37-1-3-.81-4.65C333.53,227.42,334,226.8,335,227Z" transform="translate(-264.93 -114.9)" fill="#e5073e"/>
    <path d="M314.13,207.95,314,202c2.8-.12,2.9,1.94,3.16,3.88-.21,1.32,0,2.9-2,3.08Z" transform="translate(-264.93 -114.9)" fill="#e10032"/>
    <path d="M374.13,180.82v-8.3C377.38,175.48,373.55,178.26,374.13,180.82Z" transform="translate(-264.93 -114.9)" fill="#fbfdfe"/>
    <path d="M315.16,209c1-.78.8-1.91.84-3,1-.55,1.63.08,2.23.76.31,1.43.89,2.88-.23,4.24l-1.91,1C315.31,211.13,314.54,210.26,315.16,209Z" transform="translate(-264.93 -114.9)" fill="#ea053e"/>
    <path d="M324,221c3.44.51.57,2.62,1,3.9-1.67-.73-3.07-1.69-3.16-3.76l.41-.52A1.38,1.38,0,0,1,324,221Z" transform="translate(-264.93 -114.9)" fill="#ed033c"/>
    <path d="M330,233c-1.67-1.1-3.33.33-5,0v-2a4.06,4.06,0,0,1,4-1C330.18,230.72,330,231.9,330,233Z" transform="translate(-264.93 -114.9)" fill="#fafdfe"/>
    <path d="M370,175h2l.16,3.69-.26,1.27C368.66,179.47,368.41,178.81,370,175Z" transform="translate(-264.93 -114.9)" fill="#fb0643"/>
    <path d="M334,228q0,2.43,0,4.86c-3.88-.1-1.1-3.33-2.22-4.72l.3-.18A1.24,1.24,0,0,1,334,228Z" transform="translate(-264.93 -114.9)" fill="#dd0028"/>
    <path d="M348,231.87c2.5-1.76,5.33-.44,8-.88l1,1A24.07,24.07,0,0,1,348,231.87Z" transform="translate(-264.93 -114.9)" fill="#ce0025"/>
    <path d="M313,217c1.6.15,2.86.72,2.81,2.59,0,.32-.61.94-.82.9-1.28-.28-1.42-1.57-2-2.49q-.38-.33-.26-.67T313,217Z" transform="translate(-264.93 -114.9)" fill="#f9fefd"/>
    <path d="M315,234l1,1c-1.49-.25-3.19.6-4.67-.95C312.62,232.35,313.83,233.6,315,234Z" transform="translate(-264.93 -114.9)" fill="#fefefc"/>
    <path d="M329,230l-4,1C325.87,228.82,327,227.47,329,230Z" transform="translate(-264.93 -114.9)" fill="#fdfbfd"/>
    <path d="M375,207c-1.85-1.8-.58-3.9,0-5.91V207Z" transform="translate(-264.93 -114.9)" fill="#fafefe"/>
    <path d="M367,234a6.73,6.73,0,0,1,4-1C370.29,235.83,368.76,235.38,367,234Z" transform="translate(-264.93 -114.9)" fill="#fefdfc"/>
    <path d="M321.81,224.89c-.47.4-.76.84-1.09.88s-1.06-.17-1.17-.45c-.28-.73.26-1.16.95-1.14C320.87,224.19,321.23,224.56,321.81,224.89Z" transform="translate(-264.93 -114.9)" fill="#fdfbfa"/>
    <path d="M375,207a2.25,2.25,0,0,1,.68,3.06c-.06.12-.63.17-.8,0-1.37-1.06-.18-2.07.12-3.1Z" transform="translate(-264.93 -114.9)" fill="#f9fefd"/>
    <path d="M371.11,215.3,371,211q-.54-.34-.35-.67c.12-.22.24-.33.36-.33l1-1C372.08,211.16,372.18,213.31,371.11,215.3Z" transform="translate(-264.93 -114.9)" fill="#f20d45"/>
    <path d="M341.23,235c-.28-.4-.75-.79-.69-1.05a1.27,1.27,0,0,1,.93-.74c.68-.05,1.24.36,1,1.1C342.39,234.59,341.76,234.71,341.23,235Z" transform="translate(-264.93 -114.9)" fill="#fcfcfc"/>
    <path d="M349.56,234.4c-1.6.77-2.7.86-4.06,0C346.92,232.82,348,234.18,349.56,234.4Z" transform="translate(-264.93 -114.9)" fill="#fcfdfe"/>
    <path d="M313,164.18c-.08.89-.07,2.52-.26,2.54-1.23.16-.55-.93-.66-1.49a3.41,3.41,0,0,1,.27-1.28Z" transform="translate(-264.93 -114.9)" fill="#f6fefe"/>
    <path d="M375,166c1.07-1,1.52-.06,1.63.71.16,1.11-.82,1.19-1.63,1.29A1.34,1.34,0,0,1,375,166Z" transform="translate(-264.93 -114.9)" fill="#f9fefe"/>
    <path d="M312,218c-.93.9-1.38.1-1.71-.58A1.75,1.75,0,0,1,311,215C311.73,215.87,312.6,216.69,312,218Z" transform="translate(-264.93 -114.9)" fill="#fbfefd"/>
    <path d="M379,174.6c-.28.31-.53.83-.87.91a.63.63,0,0,1-.69-.91c.16-.38.66-.62,1-.92Z" transform="translate(-264.93 -114.9)" fill="#fbfefe"/>
    <path d="M375,166v2c-1.07,1-1.52.06-1.63-.71C373.21,166.18,374.18,166.1,375,166Z" transform="translate(-264.93 -114.9)" fill="#fdfcfd"/>
    <path d="M371,230h-2c0-1,0-1.94,0-4.16Z" transform="translate(-264.93 -114.9)" fill="#f8fefc"/>
    <path d="M312,218l-1-3a1.83,1.83,0,0,1,2,2q0,.5,0,1Z" transform="translate(-264.93 -114.9)" fill="#fefafe"/>
    <path d="M363,227c.14-2.31,1.46-1.07,2.45-.81a1,1,0,0,1-1.09,1A1,1,0,0,1,363,227Z" transform="translate(-264.93 -114.9)" fill="#f3043e"/>
    <path d="M329.22,156.85l-1.21-.7A.87.87,0,0,1,329.22,156.85Z" transform="translate(-264.93 -114.9)" fill="#f00841"/>
    <path d="M363,227l1.36.14a1.43,1.43,0,0,1-.32.87Z" transform="translate(-264.93 -114.9)" fill="#ec0b41"/>
    <path d="M321,221l1-1a.59.59,0,0,1,.28.59q-.07.33-.17.33l-.27.22A1.3,1.3,0,0,1,321,221Z" transform="translate(-264.93 -114.9)" fill="#e40845"/>
    <path d="M356.17,214l-3.22,4.91c-.41.94-1,1.62-2.15,1.31-2.17-2-.8-5.73-3.55-7.49a6.19,6.19,0,0,1-.87-1.94,3.68,3.68,0,0,1,.26-2.1c1.36-1.78,1.05-3.88,1.07-5.91-.14-2.86.36-5.74-.36-8.56-.66-.65-1.48-.41-2.26-.39a5.81,5.81,0,0,1-1.29-.05,7.9,7.9,0,0,1-3.95-2.21,4,4,0,0,1-.61-1.16,5.75,5.75,0,0,1-.18-1.3,5.87,5.87,0,0,1,.16-1.28,7.28,7.28,0,0,1,1.18-2.24c.47-.69,1-1.37,1.47-2,.69-.83,1.19-1.81,1.92-2.62,1.35-1.14,2.94-1.13,4.56-1,2.32,1,4.19-.47,6.22-1.15a2.74,2.74,0,0,1,1.43,1.66,37.35,37.35,0,0,1,1.32,6.37c.08,6.95.17,13.9,0,20.84C356.92,209.74,357,211.93,356.17,214Z" transform="translate(-264.93 -114.9)" fill="#fdfefc"/>
    <path d="M364,215v4c-2.44-.45-4.14-1-3.79-4.43.14-1.38,1.05-4.78-2.2-5.57-1-1.14-.53-2.34-.15-3.53a3.5,3.5,0,0,1,1.34-1.73c2-.55,2.49.79,2.83,2.3.08,1.1.33,2.09,1.52,2.52l.44.44Z" transform="translate(-264.93 -114.9)" fill="#f00641"/>
    <path d="M351,219.84l2-1L354,221c-1.09,1.67.48,3.33,0,5-1.74,1.37-3.09.7-4.27-.82a2.9,2.9,0,0,1-.3-1.27c.38-.66.73-1.34.09-2.06a2.77,2.77,0,0,1,0-1.24C349.83,220,350.22,219.58,351,219.84Z" transform="translate(-264.93 -114.9)" fill="#e6073e"/>
    <path d="M359,206l-1,3c0,1.87.31,3.89-1.84,5-1.85-1.48.8-3-.06-4.51.57-1.16.15-2.53.79-3.67A1.7,1.7,0,0,1,359,206Z" transform="translate(-264.93 -114.9)" fill="#e70635"/>
    <path d="M360,225c-3.64,2.07-4.2,0-4-3C358,222.08,359.12,223.4,360,225Z" transform="translate(-264.93 -114.9)" fill="#e9063d"/>
    <path d="M351,219.84l-1,1.07a5,5,0,0,1-2.2,1.79,4.63,4.63,0,0,1-2.9,0,1.78,1.78,0,0,1-1.22-1.67c-2.08-1.48-4.42-1-6.72-.88-1.33-.24-2.81.07-3.93-1-1.71-.11-3-1.72-4.9-1.21a13.75,13.75,0,0,0-1.42-.73,5.57,5.57,0,0,1-1.28-1.05,5.73,5.73,0,0,1-1-1.41,9.25,9.25,0,0,1-.45-1.15c-.28-.83-.62-1.64-.89-2.47a8.77,8.77,0,0,1-.67-5.08c.56-7.32.23-14.64.17-22a8.55,8.55,0,0,1,1.68-5.85,3.76,3.76,0,0,1,1.13-1l.74-.17a7.7,7.7,0,0,1,.81-.14c3.69-.72,4.2,2.86,6.14,4.52a2.29,2.29,0,0,1,.36,1.28c-.39,1.36-1.68,2-2.45,3.06a11.45,11.45,0,0,0-1.29,2.22,36.22,36.22,0,0,0,0,12c.63-.67.93-1.52,1.52-2.17a22.44,22.44,0,0,0,1.89-2.39,10.29,10.29,0,0,1,2.44-2.75,5.7,5.7,0,0,1,1.08-.56c.37-.16.75-.29,1.12-.43A7,7,0,0,1,340,191l4,2,.43.49c0,.22,0,.44,0,.66a6,6,0,0,1-.45,1.25,5.86,5.86,0,0,1-.74,1.12,4.75,4.75,0,0,1-1.65,1.14,5.21,5.21,0,0,1-1.43.28c-.43,0-.87-.15-1.3.06a2.67,2.67,0,0,1,1.23.73,2.8,2.8,0,0,1-.13,2.55c-.76,1.62-2.11,2.82-3,4.32-.72,1.11-1.62,2.08-2.37,3.14a1.63,1.63,0,0,0-.18,1,8.22,8.22,0,0,0,2.35.29,7.66,7.66,0,0,1,1.3.28c1,.34,2,.68,3.06,1a7.65,7.65,0,0,0,4.84.12,6.42,6.42,0,0,1,1.88.26C350.56,213.73,350.76,216.79,351,219.84Z" transform="translate(-264.93 -114.9)" fill="#fcfdfc"/>
    <path d="M348,227h-6l-1-2c-.2-2.05,1.24-1.67,2.43-1.64,1.35,1.35,3.53.32,4.88,1.68A1.75,1.75,0,0,1,348,227Z" transform="translate(-264.93 -114.9)" fill="#ea0540"/>
    <path d="M344,224c-1.1,0-2.28-.17-3,1-1.35-.25-2.49-.68-.77-2a27,27,0,0,1,3.42-1.94l1.35,1.11a.76.76,0,0,1,.3.93A1.75,1.75,0,0,1,344,224Z" transform="translate(-264.93 -114.9)" fill="#e40b3d"/>
    <path d="M322.11,220.93A5.68,5.68,0,0,1,322,220v-2a2.06,2.06,0,0,1,4,0l-2,3Z" transform="translate(-264.93 -114.9)" fill="#ec043d"/>
    <path d="M333,219.17c1.39,0,3-.75,3.93,1C335.28,221.16,333.23,223.74,333,219.17Z" transform="translate(-264.93 -114.9)" fill="#f3013c"/>
    <path d="M334,228l-1.91,0c0-1.21.3-2.33,1.62-2.57,1.1-.2,1.14.82,1.29,1.59Z" transform="translate(-264.93 -114.9)" fill="#e5083e"/>
    <path d="M326,218l-1-1,.1-.41a1.55,1.55,0,0,1,.57-.61l.42-.06,1,1a.71.71,0,0,1,.22.75q-.13.36-.25.36Z" transform="translate(-264.93 -114.9)" fill="#e30639"/>
    <path d="M327,218l0-1.11L328.1,218Z" transform="translate(-264.93 -114.9)" fill="#ed0037"/>
    <path d="M333,182c-3.45,0-2.83-4.87-6.11-5.05.76-2,3.35.11,4.15-1.82l2-.3a2.8,2.8,0,0,1,2.72-1.36c4.25.34,8.51.1,12.76.18a11.17,11.17,0,0,1,3.16.37,3.14,3.14,0,0,1,1.81,1.37,3.56,3.56,0,0,1,.24,1.44c-.3,2.8-4.05,1.72-4.69,4.15-1.73.25-3.74-.71-5.08,1.19a2,2,0,0,1-2,.14C337.94,178.4,337.9,178.4,333,182Z" transform="translate(-264.93 -114.9)" fill="#fefefe"/>
    <path d="M329,160c1.26-1.1,3.85-.42,4-3h0c1.67-1.49,3.33.74,5,0a2.65,2.65,0,0,0,3,0,3,3,0,0,1,3,2c-1,2.1-1.94,4.26-2.94,6.38a6.88,6.88,0,0,1-2.72,1.05c-1.5.38-3,.76-4.34-.44C333,163.47,329.23,163.19,329,160Z" transform="translate(-264.93 -114.9)" fill="#f30643"/>
    <path d="M334,166a6.73,6.73,0,0,0,4-1c4,.68,5,3,3.64,6.61a2.36,2.36,0,0,1-3,.91L338,172C337.57,169.4,332.53,169.86,334,166Z" transform="translate(-264.93 -114.9)" fill="#f30841"/>
    <path d="M335.1,174.43c-.87-.73-1.31.74-2.1.41-.09-4,3-2.5,5-2.84h0a1.7,1.7,0,0,1,.16,2.14A6,6,0,0,1,335.1,174.43Z" transform="translate(-264.93 -114.9)" fill="#f30841"/>
    <path d="M371,192q0,1.5,0,3c-2.42-.32-4.69.43-7,1-1.08.24-2.14.42-2.69-.92-.24-3-.27-6,1.54-8.62C367.17,184.92,369.43,186.46,371,192Z" transform="translate(-264.93 -114.9)" fill="#f30640"/>
    <path d="M371,210q0,.5,0,1c-2.37-.51-5.52,1.69-7-2-1.27-1.28-1.47-2.94-1.68-4.61a3.1,3.1,0,0,1,.41-1.37,1,1,0,0,1,1.27,0C366.3,205.36,367.94,208.39,371,210Z" transform="translate(-264.93 -114.9)" fill="#f00641"/>
    <path d="M364,203h-1a1,1,0,0,1-1.41-.17,6.84,6.84,0,0,1-.16-6.25L362,196c.67-.08,1.33-1.11,2,0Q364,199.5,364,203Z" transform="translate(-264.93 -114.9)" fill="#f2063e"/>
    <path d="M370,175c.45,1.72-1.24,4.26,1.88,5,.77,2.49-1,4.65-.89,7.05-1.7,1.22-3.05.19-3.67-1.11-1.73-3.59-5.16-5.51-7.61-8.36a16.47,16.47,0,0,0-4-4.28,6,6,0,0,1-.7-1.11c-1.27-2.14-1.52-5-4.37-6-1.92-1.63-4.06-3.14-3.61-6.16q0-.5,0-1a.61.61,0,0,1,1,0c2.67-3.74,5.33-1.26,8,0l.5.46c1.37,1.52-.49,4.76,2.8,5.24a10.84,10.84,0,0,1,3.38.68,2.75,2.75,0,0,1,1,1c.66,2.44.62,5.25,3.36,6.65h3Z" transform="translate(-264.93 -114.9)" fill="#f50845"/>
    <path d="M341,165c.27-2.36-1.34-5.67,3-6l2,1a8.45,8.45,0,0,1,1.47,5.3C345.19,167.88,343.1,166.43,341,165Z" transform="translate(-264.93 -114.9)" fill="#f30640"/>
    <path d="M347,165a8.23,8.23,0,0,1-1-5h1l4,6a1.4,1.4,0,0,1-1,.38,10.27,10.27,0,0,1-1.63-.42A2.64,2.64,0,0,1,347,165Z" transform="translate(-264.93 -114.9)" fill="#f70643"/>
    <path d="M356,159c-.51-1.09-.76-2.05,1-2a1.79,1.79,0,0,1,1.92-.46,2.67,2.67,0,0,1,1.33,1.57,1.48,1.48,0,0,1-.41,1.27,3.45,3.45,0,0,1-2,.53A2.83,2.83,0,0,1,356,159Z" transform="translate(-264.93 -114.9)" fill="#fd0643"/>
    <path d="M359,157h-2a2.8,2.8,0,0,1,3-3q0,1,0,2C360.23,156.89,360,157.29,359,157Z" transform="translate(-264.93 -114.9)" fill="#f30c45"/>
    <path d="M348,159h-1c-.43-.43-.87-.86-1.27-1.32,0,0,.35-.53.56-.55C347.6,157,347.9,157.95,348,159Z" transform="translate(-264.93 -114.9)" fill="#fa0644"/>
    <path d="M319,174l3-1,3,3,.41.54-.23.63a5.06,5.06,0,0,1-1.44,1.42,4.55,4.55,0,0,1-2,.34,4.09,4.09,0,0,1-3-1.65,3.82,3.82,0,0,1-.44-1.36A2.32,2.32,0,0,1,319,174Z" transform="translate(-264.93 -114.9)" fill="#ee063f"/>
    <path d="M325,177v-1l1.08,1.09v0A.68.68,0,0,1,325,177Z" transform="translate(-264.93 -114.9)" fill="#fe0241"/>
    <path d="M319,174v2a.87.87,0,0,1-1.16.16,2.63,2.63,0,0,1-.31-1.29c0-.66-.11-1.35.48-1.87Z" transform="translate(-264.93 -114.9)" fill="#f7033e"/>
    <path d="M318,173v2q-.5.68-1,0,0-1,0-1.95Z" transform="translate(-264.93 -114.9)" fill="#ef053e"/>
    <path d="M360,177c3.15,2.39,6.9,4.15,8.12,8.48.3,1,1.64,1.53,2.88,1.53q0,2.49,0,5c-2.25-2.33-3.15-6.81-8-5l-.47-.41c-.61-1.09-.87-2.36-1.74-3.32-1-1.79-2.05-3.58-1.27-5.77Z" transform="translate(-264.93 -114.9)" fill="#f50741"/>
    <path d="M371.85,202.72c-1.67-1.7-.49-3.82-.84-5.71C372.72,198.7,371.8,200.78,371.85,202.72Z" transform="translate(-264.93 -114.9)" fill="#e5002c"/>
    <path d="M355,230h-6a.85.85,0,0,1-.3-.81c.07-.29.14-.43.21-.43,1-.59,2.16-.15,3.24-.17.65.15-.17-1.1,0-.45s0,.43-.43.33c-1.16-.24-2.56-.08-1.32-1.91,1.23,0,2.49-.36,3.61.43C356.65,227.23,354.63,229,355,230Z" transform="translate(-264.93 -114.9)" fill="#e70640"/>
    <path d="M354,227h-4c-.55.56-.24,1.55-1,2q0,.5,0,1l-1-1v-4a1.82,1.82,0,0,1,1-1.36.88.88,0,0,1,1,.36c.76,1.82,2.29,2.09,4,2Q354,226.5,354,227Z" transform="translate(-264.93 -114.9)" fill="#e7073d"/>
    <path d="M367,173c-6.21.45-3.31-4.3-4-7a7,7,0,0,1,3,0C367.92,168.11,366.61,170.67,367,173Z" transform="translate(-264.93 -114.9)" fill="#f80a43"/>
    <path d="M366,166a2.65,2.65,0,0,1-3,0h0c-.67-.55-1.51-1-1.49-2a1.62,1.62,0,0,1,1.27-1.37c1.1-.06,2.21-.26,3.22.41h1Z" transform="translate(-264.93 -114.9)" fill="#fc0645"/>
    <path d="M323.34,206.94c-.82,1.82,1.34,3.21.71,5l-.15.56a2.55,2.55,0,0,1-.86.75,1,1,0,0,1-1-.23v-1l-1-1c-1-.79-1.19-2.05-1.86-3-.32-.39-.43-1-1.14-1l-2-1c.08-1.71-.17-3.24-2-4l0-3a4.72,4.72,0,0,0,.9-1.59c.32-.8.61-1.62,1.68-1.68.95.33,1.3,1.15,1.66,2,1.5,2.21,1.93,5,4,6.88A3,3,0,0,1,323.34,206.94Z" transform="translate(-264.93 -114.9)" fill="#e4073e"/>
    <path d="M315,198,314,199a140.07,140.07,0,0,1,.1-20l.94,1a4.15,4.15,0,0,1,1.24,2.46C316.3,187.67,317.14,193,315,198Z" transform="translate(-264.93 -114.9)" fill="#da0023"/>
    <path d="M322,213h1l.44,0a2.05,2.05,0,0,1,.81.31,1.57,1.57,0,0,1,.59.63,2.17,2.17,0,0,1,.2.91,2.27,2.27,0,0,1,.42,1.07,1.77,1.77,0,0,1-.46,1h0l-3,1C319.84,216.33,322.24,214.67,322,213Z" transform="translate(-264.93 -114.9)" fill="#e1093e"/>
    <path d="M338,157c-1.67,1.79-3.33-.7-5,0C334.67,155.1,336.33,156.3,338,157Z" transform="translate(-264.93 -114.9)" fill="#ee0943"/>
    <path d="M315,182v-2l1-1c1.29-.43,2,.28,2.66,1.26a11.7,11.7,0,0,1,.64,4.76,6.56,6.56,0,0,1-.85,3.71c-1.93,1.06-2.07-.53-2.35-1.69-.33-1.39.18-2.86-.28-4.24Z" transform="translate(-264.93 -114.9)" fill="#eb063d"/>
    <path d="M318,180l-2-1c0-1.1-.17-2.28,1-3a1.51,1.51,0,0,0,1,0h1v1a1.93,1.93,0,0,1,.49,1.82A2,2,0,0,1,318,180Z" transform="translate(-264.93 -114.9)" fill="#e7083e"/>
    <path d="M318,176c-.34.7-.68.67-1,0q0-.5,0-1h1Q318,175.5,318,176Z" transform="translate(-264.93 -114.9)" fill="#eb073e"/>
    <path d="M363,163l-1,1c-1.74.33-2.11-1-2.67-2.15A2.85,2.85,0,0,1,360,159h0a7.36,7.36,0,0,1,2-3c.91.61,1.51,2.12,3,1,0,1.33,1,2.67,0,4C365.45,162.78,364.07,162.74,363,163Z" transform="translate(-264.93 -114.9)" fill="#f90747"/>
    <path d="M362,156a3,3,0,0,1-2,3l-1-2,1-1Z" transform="translate(-264.93 -114.9)" fill="#fd0547"/>
    <path d="M363,163l2-2a2.06,2.06,0,0,1,1,2C365,163.27,364,164.59,363,163Z" transform="translate(-264.93 -114.9)" fill="#f70a46"/>
    <path d="M319,207c2.68.33,1.81,2.43,2,4h-2A3.6,3.6,0,0,1,319,207Z" transform="translate(-264.93 -114.9)" fill="#e2073d"/>
    <path d="M319,207v4h-1c0-1.33-1-2.67,0-4C318.33,206.32,318.67,206.32,319,207Z" transform="translate(-264.93 -114.9)" fill="#ec043f"/>
    <path d="M356,173a4.17,4.17,0,0,1,4,4h0c-1.62.93-.24,6.61-4.74,3L354,178.89c-.84-.41-.52-1.4-1-2a1.34,1.34,0,0,1,.11-.93c.36-.75,0-1.69.63-2.38S355,172.37,356,173Z" transform="translate(-264.93 -114.9)" fill="#f50741"/>
    <path d="M355.26,180c3.32,1.76,2.63-2.84,4.74-3a9.44,9.44,0,0,0,2,6c.46,1.31-.57,1.54-1.38,1.93a18,18,0,0,0-3.69,1.41.67.67,0,0,1-.8-.71C355.72,183.77,354.56,182,355.26,180Z" transform="translate(-264.93 -114.9)" fill="#f30642"/>
    <path d="M330.32,185c0-1.79,2.09-1.12,2.68-2.23a2.54,2.54,0,0,1,1.79-.47,10.86,10.86,0,0,1,1.24.25c1.83.55,3.86-.07,5.62.92l.42.49c-.18.74.15,1.72-.94,2a15.93,15.93,0,0,1-7.55,1.93,4.23,4.23,0,0,1-2.76-1.45A3.49,3.49,0,0,1,330.32,185Z" transform="translate(-264.93 -114.9)" fill="#ec063d"/>
    <path d="M356.13,185.62l.76.6a3.54,3.54,0,0,1,1.33,2.4c-.22,5.8,1.39,11.73-1.17,17.37l-.93,3.46Q356.12,197.54,356.13,185.62Z" transform="translate(-264.93 -114.9)" fill="#fdf9fa"/>
    <path d="M353,176.9c1,.3.91,1.2,1,2-.74,2.94-2.53,3.4-5,2.11.17-1.32-2.53-4.8,2.13-2.79C351.51,178.37,352.4,177.37,353,176.9Z" transform="translate(-264.93 -114.9)" fill="#fafefd"/>
    <path d="M333,187c2.74-.07,5.31-1.55,8.13-.95l-1.34,2a3.53,3.53,0,0,1-1.88,1,10.71,10.71,0,0,1-3.61-.08,3.75,3.75,0,0,1-1.3-.64A1.05,1.05,0,0,1,333,187Z" transform="translate(-264.93 -114.9)" fill="#f40441"/>
    <path d="M348,192.32c1.69,3.35,0,7,.92,10.42a.71.71,0,0,1-1.24.17,6.6,6.6,0,0,1-.95-3.77c0-.53,0-1.05,0-1.58C346.8,195.73,346.47,193.8,348,192.32Z" transform="translate(-264.93 -114.9)" fill="#ee0a3d"/>
    <path d="M342,181.92l1.93.27c.29,1.53-.63,1.82-1.85,1.82l-.46-.06c-2.06-1.07-4.32-.07-6.44-.6L335,183C336.84,179.26,339.43,180.67,342,181.92Z" transform="translate(-264.93 -114.9)" fill="#e03768"/>
    <path d="M347.8,211.66,346,212a7,7,0,0,1-5,.09c-1-.53-2.36.14-3.07-1.11,1.32-1.49,3.12-1.29,4.84-1.35a5,5,0,0,1,4,1.38Z" transform="translate(-264.93 -114.9)" fill="#eb0c43"/>
    <path d="M346.74,211.06,343,211a1.38,1.38,0,0,1-.34-1.25A3.47,3.47,0,0,1,345,207.3a2.73,2.73,0,0,1,2,.4,1.14,1.14,0,0,1,.31.84q0,.46-.12.46Z" transform="translate(-264.93 -114.9)" fill="#e9053c"/>
    <path d="M348,192.32l-.15,5.46c-1.94.25-1.63-1.63-2.39-2.5a6.1,6.1,0,0,1-.63-1.11A1.12,1.12,0,0,1,345,193C346,192.84,346.72,191.37,348,192.32Z" transform="translate(-264.93 -114.9)" fill="#e30029"/>
    <path d="M347.2,209a1.14,1.14,0,0,1,0-.94,7.23,7.23,0,0,1-.24-1.91c.12-1.07.09-2.21,1.25-2.81a6.14,6.14,0,0,0,.73-.6C348.42,204.85,350.56,207.67,347.2,209Z" transform="translate(-264.93 -114.9)" fill="#fdf9fa"/>
    <path d="M353.36,191.34,352,187.16C354,188.52,354.67,189.53,353.36,191.34Z" transform="translate(-264.93 -114.9)" fill="#fafefe"/>
    <path d="M351,192c-.21,1.17,1.2,2.34.17,3.67-1.76-1-.94-2.47-1.17-3.67C350.33,191.53,350.67,191.56,351,192Z" transform="translate(-264.93 -114.9)" fill="#fbfefe"/>
    <path d="M351,192h-1c0-1.17,0-2.35,0-3.69C351.52,189.4,350.79,190.81,351,192Z" transform="translate(-264.93 -114.9)" fill="#f6fcfb"/>
    <path d="M340,191a3.44,3.44,0,0,1-2,2,1.91,1.91,0,0,1-.61-1.11c0-.22.05-.43.07-.65l.28-.59a3.31,3.31,0,0,1,1-.82A1.28,1.28,0,0,1,340,190Q340,190.51,340,191Z" transform="translate(-264.93 -114.9)" fill="#fefefe"/>
    <path d="M338,188l1.77,0a2.26,2.26,0,0,1,.17.87,1.35,1.35,0,0,1-1,.63,1.74,1.74,0,0,1-1.15-.44A.82.82,0,0,1,338,188Z" transform="translate(-264.93 -114.9)" fill="#ce002a"/>
    <path d="M339.19,189.07a3.09,3.09,0,0,0,.78-.17l0,1.11a3,3,0,0,0-.86.13l-.44-.56Z" transform="translate(-264.93 -114.9)" fill="#fdf9fa"/>
    <path d="M345,193a5.93,5.93,0,0,0-.19.72l-.32.48-.52-.26q0-.46,0-.93Z" transform="translate(-264.93 -114.9)" fill="#fdf9fa"/>
    <path d="M357,206l0-18c1.22-.44,1.92.22,2.5,1.16a4.46,4.46,0,0,1,.18,2.26c-.86,3.92-.06,7.92-.56,11.86,0,.24-.09.49-.14.73q0,1,0,2Z" transform="translate(-264.93 -114.9)" fill="#eb093d"/>
    <path d="M362,203h1q0,.5,0,1c-.83.89.55,3.26-2,3,0-1.45,0-2.91-2-3h0c-.83-1.15-.39-2.45-.42-3.69a2.48,2.48,0,0,1,1.51-1.58C362.72,199.26,360.61,201.91,362,203Z" transform="translate(-264.93 -114.9)" fill="#ee0742"/>
    <path d="M361,207l2-3a8.23,8.23,0,0,1,1,5C362.33,209.34,360.55,209.85,361,207Z" transform="translate(-264.93 -114.9)" fill="#f30542"/>
    <path d="M350,224h-1c-1.06.74-1.85.61-2.23-.73.39-.83,1.21-.74,1.91-.9A2.12,2.12,0,0,1,350,223Q350,223.5,350,224Z" transform="translate(-264.93 -114.9)" fill="#f0043c"/>
    <path d="M347.91,222c.27-1.16,1.28-.89,2.06-1V222a1.24,1.24,0,0,1-1,.48A1.21,1.21,0,0,1,347.91,222Z" transform="translate(-264.93 -114.9)" fill="#d02"/>
    <path d="M349,222h1c.68.32.72.66,0,1h-1q-.5-.33-.33-.66T349,222Z" transform="translate(-264.93 -114.9)" fill="#de0d3c"/>
    <path d="M342,181.92c-2.28.66-4.83-.42-7,1l-2-.14q0-.41,0-.82c.93-2,1.23-4.28,4.51-4.1C340.43,178,341.66,179.28,342,181.92Z" transform="translate(-264.93 -114.9)" fill="#fafefe"/>
    <path d="M330.32,185l.73,1c.35,4,.51,8,1.06,12L330,201.88c-.76.16-1.38-.15-1.36-.89.12-4.66-.66-9.36.41-14Z" transform="translate(-264.93 -114.9)" fill="#df0236"/>
    <path d="M332.12,198.05a12.5,12.5,0,0,1-1.06-12l1.95,1q0,.5,0,1c.29,2.66.49,5.32.83,8C333.82,197.13,333,197.58,332.12,198.05Z" transform="translate(-264.93 -114.9)" fill="#ed063e"/>
    <path d="M323.34,206.94l-1-1.82a8.72,8.72,0,0,1-.66-2.39c-.13-5.2-.09-10.41,0-15.62a8.32,8.32,0,0,1,.54-3.14,1.55,1.55,0,0,1,1.19-.91A91.32,91.32,0,0,1,323.34,206.94Z" transform="translate(-264.93 -114.9)" fill="#fcf2f5"/>
    <path d="M336.17,205c.32-1.9,2.42-2.45,3.1-4.07a2,2,0,0,1,1.24-.47,2,2,0,0,1,1.05.81,4.92,4.92,0,0,1,.46,2c-.2,1.76,0,3.62-1.19,5.15a3.08,3.08,0,0,1-2.7.16C336.6,207.87,336.36,206.46,336.17,205Z" transform="translate(-264.93 -114.9)" fill="#ee033e"/>
    <path d="M333.83,196c-2-2.48-2.81-5.08-.83-8h1a10.06,10.06,0,0,1,2.32,3.88,1.52,1.52,0,0,1-.27,1.22Z" transform="translate(-264.93 -114.9)" fill="#ef053c"/>
    <path d="M336.17,205l1.83,3a4,4,0,0,1-.2,1.86,3.81,3.81,0,0,1-.79,1c-1.3-.06-2.59-.11-3.89-.19-.11,0-.2-.18-.3-.28l.36-.34a.79.79,0,0,0,0-1C333.44,207.15,335.52,206.62,336.17,205Z" transform="translate(-264.93 -114.9)" fill="#e9053c"/>
    <path d="M329,187c.66,4.94-1.48,10.06.95,14.88-.23,1.34-1.57,2.56-1.67.64C328,197.38,326.88,192.07,329,187Z" transform="translate(-264.93 -114.9)" fill="#fcf2f5"/>
    <path d="M322,178h2l.57-.43.5.5-1.67,5a.61.61,0,0,1-.49-.1c-1.06.51-1.71-.11-2.31-.85a3,3,0,0,1-.19-2A5.24,5.24,0,0,1,322,178Z" transform="translate(-264.93 -114.9)" fill="#f30540"/>
    <path d="M340.15,199.06a4.93,4.93,0,0,1-3.82-2h5.48l.46.32c0,.19,0,.37,0,.56l-.23.51a2.88,2.88,0,0,1-.87.71A1.31,1.31,0,0,1,340.15,199.06Z" transform="translate(-264.93 -114.9)" fill="#f4fefd"/>
    <path d="M344.81,193.72l1.2.29c.89,1.33.26,2.85.57,4.26a1.79,1.79,0,0,1-.78,1.11,2.41,2.41,0,0,1-2.87-1.33,11.83,11.83,0,0,0-.76-1.09l-.36.08,1.14-1.07a6.37,6.37,0,0,0,1.88-2.24Z" transform="translate(-264.93 -114.9)" fill="#e60c40"/>
    <path d="M326.16,191.73c-1.55-1.24-1.27-2.47-.81-3.68a.87.87,0,0,1,.78-.11C327.16,189,327.28,190.17,326.16,191.73Z" transform="translate(-264.93 -114.9)" fill="#fbfefe"/>
    <path d="M337,210.83q0-.42,0-.83c2-1.24,4-1.56,6,0q0,.49,0,1l-5,0A2,2,0,0,1,337,210.83Z" transform="translate(-264.93 -114.9)" fill="#e1002e"/>
    <path d="M341,212.13l5-.09A3.53,3.53,0,0,1,341,212.13Z" transform="translate(-264.93 -114.9)" fill="#fdf6f8"/>
    <path d="M349,222q0,.5,0,1h-2a1.4,1.4,0,0,1-2,0q0-.42,0-.83l2.9-.2Z" transform="translate(-264.93 -114.9)" fill="#e50837"/>
    <path d="M340.15,199.06a6.86,6.86,0,0,0,.8-.12l.41.29a1.38,1.38,0,0,1,.19,1,1.32,1.32,0,0,1-.55.79l-1.72,0Z" transform="translate(-264.93 -114.9)" fill="#db0022"/>
    <path d="M344.83,193.73c.21,1.45-.44,2.18-1.88,2.24a3.43,3.43,0,0,0,.12-.81A10.47,10.47,0,0,1,344,194v0Z" transform="translate(-264.93 -114.9)" fill="#e00025"/>
    <path d="M324.83,214l-.82,0a2.11,2.11,0,0,1-.47-.91,1.24,1.24,0,0,1,.4-.91l.11-.25C325.15,212.3,325,213.13,324.83,214Z" transform="translate(-264.93 -114.9)" fill="#d50022"/>
    <path d="M325,216l0-1.11,1,1-.19.13A.57.57,0,0,1,325,216Z" transform="translate(-264.93 -114.9)" fill="#ea0034"/>
    <path d="M344,194l-.91,1.17Z" transform="translate(-264.93 -114.9)" fill="#fbe9ef"/>
    <path d="M333.16,209a3.47,3.47,0,0,1,.32.68c0,.07-.2.21-.31.31Z" transform="translate(-264.93 -114.9)" fill="#d00002"/>
    <path d="M337.87,191.76,338,193l-1.12-.05a.81.81,0,0,1-.26-.68c0-.25.08-.37.14-.37A1.11,1.11,0,0,1,337.87,191.76Z" transform="translate(-264.93 -114.9)" fill="#fbe9ef"/>
    <path d="M337,192a2.41,2.41,0,0,1-.15.94,6.57,6.57,0,0,0-.84.16l0-1.11.52-.25Z" transform="translate(-264.93 -114.9)" fill="#ea063a"/>
    <path d="M325,177l1.08,0-1,1-.11-.16a.59.59,0,0,1-.17-.62q.11-.29.22-.29Z" transform="translate(-264.93 -114.9)" fill="#e7002c"/>
    <path d="M345,223h2a2.06,2.06,0,0,0,2,1l-1,1c-1.21-.85-3.35,2.06-4-1Z" transform="translate(-264.93 -114.9)" fill="#ec053f"/>
    <path d="M325,216q.45,0,.89.06L325,217Z" transform="translate(-264.93 -114.9)" fill="#eb0640"/>
    <path d="M356,173l-2,1c-.45.78-1.36.44-2,.82l-2.87.11c-2.91-1-5.94-.1-8.88-.56-1.09-2.1,1-1.7,1.82-2.36,3-.08,5-1.43,5.28-4.65A3.22,3.22,0,0,1,349,165l1,1a27,27,0,0,1,6,6Z" transform="translate(-264.93 -114.9)" fill="#f40640"/>
    <path d="M340,173.87c3,.49,6.25-.72,9.12,1.06-4.68-.21-9.41.79-14-.5L338,174A1.48,1.48,0,0,1,340,173.87Z" transform="translate(-264.93 -114.9)" fill="#fcedf0"/>
    <path d="M352,174.82l2-.82-.85,2Z" transform="translate(-264.93 -114.9)" fill="#f5043f"/>
    <path d="M349,165c-1.48,3.06.68,8.88-6,8-.48-.67-1.5-.27-2-1,.05-2.78.56-5.76-3-7h3c2-.77,4,1.64,6,0Z" transform="translate(-264.93 -114.9)" fill="#f30642"/>
    <path d="M341,172a2,2,0,0,1,2,1c-1,.06-2.19-.16-2.93.89l-2,.13q0-1,0-2Z" transform="translate(-264.93 -114.9)" fill="#f10137"/>
    <path d="M363,187l-1,9h0a1,1,0,0,1-1.45-.26c-1.4-2.41-.51-4.9-.25-7.37.59-1.07,1.36-1.78,2.7-1.37Z" transform="translate(-264.93 -114.9)" fill="#f40545"/>
    <path d="M361,196h1q0,3.5,0,7c-1.62-.86-.38-3.14-2-4a2.21,2.21,0,0,1-.35-2.85A.92.92,0,0,1,361,196Z" transform="translate(-264.93 -114.9)" fill="#f60443"/>
    <path d="M356,159h2c1,.93,1,2.29,1.58,3.42A3.09,3.09,0,0,1,359,166C353.61,165.55,357,161.34,356,159Z" transform="translate(-264.93 -114.9)" fill="#f70a43"/>
    <path d="M356,172c-2.29-1.71-5.09-2.91-6-6h1c1-.25,2.53-1.53,2.73.22C354,168.45,355.95,169.82,356,172Z" transform="translate(-264.93 -114.9)" fill="#f30642"/>
    <path d="M359,166v-4a.6.6,0,0,1,1,0l2,2,1,2Z" transform="translate(-264.93 -114.9)" fill="#f80644"/>
    <path d="M360,162h-1c-1.18-.72-1-1.9-1-3h2Z" transform="translate(-264.93 -114.9)" fill="#f90842"/>
    <path d="M322,178a2.06,2.06,0,0,1-1,2,1.69,1.69,0,0,1-2,.27.8.8,0,0,1,0-1.27v-2Z" transform="translate(-264.93 -114.9)" fill="#eb0540"/>
    <path d="M325,177q0,.46,0,.92-.48.07-1,.09Z" transform="translate(-264.93 -114.9)" fill="#fb0346"/>
    <path d="M363,187l-2,1-.49.41-.6-.23c-.56-1.41-1-2.81.09-4.18a2.06,2.06,0,0,0,2-1C363.46,184.05,362.86,185.62,363,187Z" transform="translate(-264.93 -114.9)" fill="#f20743"/>
    <path d="M349,229a2.06,2.06,0,0,1,1-2c.6,1.25,2.08.67,3.38,1.77Z" transform="translate(-264.93 -114.9)" fill="#ea0442"/>
    <path d="M316,182c2.48,1.81-.39,5.16,2,7a4.13,4.13,0,0,1,1.78,2.32,8,8,0,0,1,.4,2.27c-.22,2.07-.06,4.42-3.18,4.41a2.06,2.06,0,0,0-1-2A41.16,41.16,0,0,1,316,182Z" transform="translate(-264.93 -114.9)" fill="#e7083e"/>
    <path d="M317,198c2.33-1,2-3.07,2-5a1.77,1.77,0,0,1,2.24-.07c1.44,2.71.44,5.64.76,8.45A3.32,3.32,0,0,0,323,204c.24.6.06,1-.57,1.12-.83-.07-1.82.86-2.41-.64C319.09,202.27,318,200.15,317,198Z" transform="translate(-264.93 -114.9)" fill="#e8063f"/>
    <path d="M316,182q0,7,0,14a2.06,2.06,0,0,1-1,2q0-8,0-16Z" transform="translate(-264.93 -114.9)" fill="#eb0540"/>
    <path d="M324,212.18a5.76,5.76,0,0,1,0,.82.64.64,0,0,1-1,0h0Z" transform="translate(-264.93 -114.9)" fill="#f20035"/>
    <path d="M323,213h1l0,1Z" transform="translate(-264.93 -114.9)" fill="#f60344"/>
    <path d="M319,179v1a10.57,10.57,0,0,1,1.79,3.83,3,3,0,0,1-.49,2.07c-1.21.81-1.71-.16-2.3-.91v-5Z" transform="translate(-264.93 -114.9)" fill="#ed043f"/>
    <path d="M318,185l2,1a2.41,2.41,0,0,1,.78,2,3.8,3.8,0,0,1-1.78,3,2.06,2.06,0,0,1-1-2Z" transform="translate(-264.93 -114.9)" fill="#e8063f"/>
    <path d="M360,184c0,1.33,1,2.67,0,4a1.18,1.18,0,0,1-1,1l-2-1-.13-1.77C357,184.22,358.37,183.91,360,184Z" transform="translate(-264.93 -114.9)" fill="#f60543"/>
    <path d="M335.18,183.35c2.15.12,4.44-1.2,6.44.6C339.47,183.75,337.23,184.64,335.18,183.35Z" transform="translate(-264.93 -114.9)" fill="#e20029"/>
    <path d="M336,192c-1.81-.76-2.09-2.29-2-4h4q0,.49,0,1a1.19,1.19,0,0,1,.45.95q-.06.55-.13,1.1a1.17,1.17,0,0,1-.51-.07c-.39.72-1.38.39-1.82,1Z" transform="translate(-264.93 -114.9)" fill="#ee063c"/>
    <path d="M348.18,203.34,348,207c-2.81-.47-1.94-2.77-2.25-4.49a5.31,5.31,0,0,1,.82-3.11.74.74,0,0,1,1.27-.27Z" transform="translate(-264.93 -114.9)" fill="#db0027"/>
    <path d="M347.81,199.11a3.31,3.31,0,0,0-.79-.1.62.62,0,0,1-1,0q0-2.49,0-5c1.6.77.34,2.93,1.82,3.76C347.82,198.22,347.81,198.66,347.81,199.11Z" transform="translate(-264.93 -114.9)" fill="#f50440"/>
    <path d="M347,202c.27,1.68-.64,3.58,1,5,.19.69-.23.94-.79,1.08L345,208a2.55,2.55,0,0,1-1.6-1.82c-.14-.94-.07-1.95-.81-2.72s-.9-1.74-1.58-2.46l0,0v-1a1.72,1.72,0,0,0,.56-1.24l.38-.86-.06.08a7.88,7.88,0,0,0,1.09-1l2,2A2.88,2.88,0,0,0,347,202Z" transform="translate(-264.93 -114.9)" fill="#ee0a3d"/>
    <path d="M344,206l1,2-2,2h-6a2.06,2.06,0,0,1,1-2h3a3.19,3.19,0,0,0,1.07-1.38,3.29,3.29,0,0,1,.84-.89A.94.94,0,0,1,344,206Z" transform="translate(-264.93 -114.9)" fill="#e6073f"/>
    <path d="M336,192l1.82-1a5.23,5.23,0,0,1,0,.79,4.05,4.05,0,0,0-.83.25Z" transform="translate(-264.93 -114.9)" fill="#e30021"/>
    <path d="M338.34,191a2.51,2.51,0,0,0-.18-.59q.1-.9.88-.43l.1.12Z" transform="translate(-264.93 -114.9)" fill="#fdf9fa"/>
    <path d="M339,190a2.58,2.58,0,0,1-.88.43L338,189l1.18.08A7,7,0,0,1,339,190Z" transform="translate(-264.93 -114.9)" fill="#da0028"/>
    <path d="M359,200v4a18,18,0,0,1,0-13C360.94,194,359.25,197,359,200Z" transform="translate(-264.93 -114.9)" fill="#f60036"/>
    <path d="M359,200q0-4.5,0-9,0-1,0-2l1-1h0a14,14,0,0,1,0,8v3Z" transform="translate(-264.93 -114.9)" fill="#f00741"/>
    <path d="M323,204a2,2,0,0,1-1.95-1c1.18-4.41.38-8.79-.22-13.18.09-.56.17-1.11.24-1.67.22-1.11.36-2.31,2-2.15Z" transform="translate(-264.93 -114.9)" fill="#e1063a"/>
    <path d="M323,186a2.1,2.1,0,0,0-1,2,1.33,1.33,0,0,1-2,0v-4c.58-.54.19-1.57,1-2l1.91,1A3,3,0,0,1,323,186Z" transform="translate(-264.93 -114.9)" fill="#eb063e"/>
    <path d="M343,207c-.52.62-.56,2.22-2,1-1.11-1.67.33-3.33,0-5C344.27,203,341.77,205.95,343,207Z" transform="translate(-264.93 -114.9)" fill="#e9053c"/>
    <path d="M343,207c-1.62-.86-.38-3.14-2-4q0-1,0-2a3.4,3.4,0,0,1,2,2,2.2,2.2,0,0,1,0,3Q343,206.5,343,207Z" transform="translate(-264.93 -114.9)" fill="#ed0344"/>
    <path d="M321,182a2.07,2.07,0,0,1-1,2,6.67,6.67,0,0,1-1-4h2Z" transform="translate(-264.93 -114.9)" fill="#e4093d"/>
    <path d="M343,197l-1.09,1,.29-1Z" transform="translate(-264.93 -114.9)" fill="#cd0016"/>
    <path d="M341.94,197.88l0,1.1a.62.62,0,0,1-.89.1l-.15-.14Z" transform="translate(-264.93 -114.9)" fill="#d10020"/>
    <path d="M347,202c-2.88.47-2.26-1.37-2-3h2Q347,200.5,347,202Z" transform="translate(-264.93 -114.9)" fill="#f90241"/>
    <path d="M341.09,199.08q.44-.07.89-.1l-1,1A7.09,7.09,0,0,1,341.09,199.08Z" transform="translate(-264.93 -114.9)" fill="#ea0024"/>
    <path d="M360,196q0-4,0-8h1q0,4,0,8Z" transform="translate(-264.93 -114.9)" fill="#ef0746"/>
    <path d="M320,188h2v1c-1.11,1.13.1,2.84-1,4h-2v-2Z" transform="translate(-264.93 -114.9)" fill="#ef0340"/>
    <path d="M321,193c.16-1.37-.47-2.93,1-4-.49,4.65,1.1,9.44-1,14Q321,198,321,193Z" transform="translate(-264.93 -114.9)" fill="#e3002e"/>
    <path d="M343,206v-3c2.62.24,1.54,1.71,1,3Z" transform="translate(-264.93 -114.9)" fill="#f30440"/>
  </g>
</svg>
