<svg id="Layer_1" data-name="Layer 1" xmlns="http://www.w3.org/2000/svg" width="155.12" height="155.13" viewBox="0 0 155.12 155.13">
  <title>libe-md</title>
  <g>
    <path d="M77.56,155.06q-37.24,0-74.5.07c-2.5,0-3.07-.57-3.06-3.07q.13-74.5,0-149C0,.56.56,0,3.06,0q74.5.13,149,0c2.5,0,3.07.56,3.06,3.06q-.13,74.5,0,149c0,2.5-.56,3.08-3.06,3.07Q114.82,155,77.56,155.06Z" transform="translate(0 0)" fill="#fefefe"/>
    <path d="M78.06,6.06a72,72,0,1,1-72,72v-.17A72.2,72.2,0,0,1,78.06,6.06Z" transform="translate(0 0)" fill="#feac00"/>
    <path d="M78,140.06a62,62,0,1,1,62.08-61.92v.13A62,62,0,0,1,78,140.06Z" transform="translate(0 0)" fill="#fefefe"/>
    <path d="M59.06,99l-1.92-2.5q-.34-.48-.64-1A5.37,5.37,0,0,1,56,94.39,3.69,3.69,0,0,0,55,93l.13.13c-1.41-1.1-1.79-3-3.3-4.07-.34-1.78,0-3.63-.67-5.37a11.75,11.75,0,0,1-.36-2.17c-.08-2.28-.09-4.56,0-6.84a10.16,10.16,0,0,1,.37-2.21c.34-1.15.75-2.28,1.11-3.43s.71-2.24,1.08-3.36a20.39,20.39,0,0,1,1.74-3.1H55q.26-.45.54-.88c.34-.38.68-.78,1-1.18s.37-.57.57-.85l1.92-2.52q.47-.51,1-1A4.9,4.9,0,0,1,61.88,55a46.19,46.19,0,0,1,14.39-4.88,14.92,14.92,0,0,1,3.72,0c5.23.58,9.87,2.95,14.67,4.85L94.57,55a3.68,3.68,0,0,1,1.49,1.09,6.6,6.6,0,0,0,2.87,3,2.54,2.54,0,0,1,.74.78,3.92,3.92,0,0,1,.32,1,3.94,3.94,0,0,0,.18,1,4.15,4.15,0,0,0,1,1.25L101,63a8.7,8.7,0,0,1,2.11,3.55c.4.87.78,1.75,1.11,2.66a18.88,18.88,0,0,1,1.09,4.39,48.5,48.5,0,0,1-.15,8.51c-.06.49-.1,1-.13,1.49a15.34,15.34,0,0,1-1.14,4.19c-.25.65-.54,1.28-.84,1.9A8.12,8.12,0,0,1,101,93.08l.11-.13c-.27.29-.54.6-.78.9a2.72,2.72,0,0,0-.23,1,4.88,4.88,0,0,1-.08.51,4.43,4.43,0,0,1,.09.59c-1.63,1.55-3.63,2.68-5.08,4.44-2.26,1.33-4.71,2.28-7,3.56s-4.82,1.35-7.25,2c-1.78.17-3.56.09-5.34.11-3.39.26-6.26-1.21-9.12-2.73-1.66-.68-3.06-1.9-4.86-2.3a4.82,4.82,0,0,1-1.22-.5C59.68,100.12,59.46,99.47,59.06,99Z" transform="translate(0 0)" fill="#fdfdfd"/>
    <path d="M76.35,51.22c-5.27,1-10.12,3.18-15.06,5.13l-.5-.08a2,2,0,0,1-.67-.73l-.06-.48a23.05,23.05,0,0,1,17-6,.83.83,0,0,1,.36.93C77.35,50.62,75.84,50.06,76.35,51.22Z" transform="translate(0 0)" fill="#00001e"/>
    <path d="M77.06,50.06v-1c6.57-.09,13,.33,17.54,6a1.54,1.54,0,0,1-2.46.56c-3.77-2.51-8.12-3.33-12.39-4.41C79.37,49.61,77.62,51.22,77.06,50.06Z" transform="translate(0 0)" fill="#00001a"/>
    <path d="M104.06,84.06l.08-1a23,23,0,0,0,0-10l-1-4c.61-.65.06-2.33,1.77-2,3.35,5.81,3.13,11.83,1,18C104.9,85.48,104.5,84.73,104.06,84.06Z" transform="translate(0 0)" fill="#00011f"/>
    <path d="M52,82.06l.18,2a2.47,2.47,0,0,1-2.2,1.29c-1.82-4.34-1.16-8.82-.69-13.28A2,2,0,0,1,52.07,72l.09.09-.19,2A16.57,16.57,0,0,0,52,82.06Z" transform="translate(0 0)" fill="#00001e"/>
    <path d="M66.06,102.2c3.14.56,5.67,3,9,2.93.52.81,2.68,0,2,2-4.28,0-8.66.41-12.07-3.05A2.09,2.09,0,0,1,66.06,102.2Z" transform="translate(0 0)" fill="#000017"/>
    <path d="M81.06,104.95c2-1.76,4.87-.45,7-1.92,1.75-.15,1.69.71,1.07,1.89-3.12,1.72-6.39,2.78-10,2.22C78.32,105.16,80.7,106,81.06,104.95Z" transform="translate(0 0)" fill="#000017"/>
    <path d="M89.06,104.92A2,2,0,0,0,88,103c2.21-1.3,4.17-3.09,6.87-3.4a1,1,0,0,1,.23,1.53C93.88,103.7,91.57,104.48,89.06,104.92Z" transform="translate(0 0)" fill="#00001a"/>
    <path d="M66.06,102.2A1.94,1.94,0,0,1,65,104.09c-2.28,0-3.43-1.79-5-3l.16-.48a3.73,3.73,0,0,0,.9-.55C63.31,99.39,64.52,101.19,66.06,102.2Z" transform="translate(0 0)" fill="#000015"/>
    <path d="M95.06,101.16l-.23-1.53c.71-2.69,2.37-4,5.22-3.64C100.31,99.53,97.12,99.79,95.06,101.16Z" transform="translate(0 0)" fill="#000327"/>
    <path d="M49.92,85.33A2.27,2.27,0,0,1,52.12,84c1.39,1.64,1.17,3.28,0,4.91A.8.8,0,0,1,52,90.22C50.27,89.06,50.06,87.2,49.92,85.33Z" transform="translate(0 0)" fill="#000018"/>
    <path d="M52.15,72.06H49.23a3,3,0,0,1,1.62-3.92l.22-.08c1.08-.48,1.61.11,2,1A3.71,3.71,0,0,1,52.15,72.06Z" transform="translate(0 0)" fill="#000018"/>
    <path d="M52,90.22l.11-1.27c2.8.1,3.42,1.77,3,4.18C52.76,93.58,51.9,92.41,52,90.22Z" transform="translate(0 0)" fill="#000428"/>
    <path d="M104.06,84.06l1.88,1a3.68,3.68,0,0,1-.88,4A2.12,2.12,0,0,1,102.8,88Z" transform="translate(0 0)" fill="#000124"/>
    <path d="M53.06,69.06l-2-1c-1.52-1.66.14-2.19,1.06-3,1.11-.41,1.74.12,2.17,1.08A4.2,4.2,0,0,1,53.06,69.06Z" transform="translate(0 0)" fill="#000014"/>
    <path d="M101,93.12a5,5,0,0,1,1.26-4c1.47-.09,2.31.4,1.86,2.05C103.92,93.16,102.71,93.56,101,93.12Z" transform="translate(0 0)" fill="#00001d"/>
    <path d="M102.21,67.06a4.35,4.35,0,0,1-1.22-4c1.68-.33,2.92,0,3.09,2C104.46,66.6,103.65,67.06,102.21,67.06Z" transform="translate(0 0)" fill="#000122"/>
    <path d="M81.06,104.95l-2,2.2h-2l-2-2C77.06,104.23,79.06,104.93,81.06,104.95Z" transform="translate(0 0)" fill="#000017"/>
    <path d="M54.29,66.15l-2.16-1.09c0-2.07,1.72-2,3-2.48C55.49,63.92,55.51,65.17,54.29,66.15Z" transform="translate(0 0)" fill="#00000f"/>
    <path d="M104.06,91.15l-1.82-2.09.55-1.14a2.57,2.57,0,0,1,2.27,1.14A2,2,0,0,1,104.06,91.15Z" transform="translate(0 0)" fill="#000226"/>
    <path d="M102.21,67.06l1.87-2a1.75,1.75,0,0,1,.8,2.08l-1.77,2Z" transform="translate(0 0)" fill="#00062c"/>
    <path d="M59.06,99a.88.88,0,0,1,1.11.88.77.77,0,0,1,.23.63q0,.34-.12.34l-.22.24C58.92,100.75,59.06,99.84,59.06,99Z" transform="translate(0 0)" fill="#00001b"/>
    <path d="M99.06,60.06l-.13-1c.79.07,1.83-.32,1.91,1a1.2,1.2,0,0,1-.89.54A1.34,1.34,0,0,1,99.06,60.06Z" transform="translate(0 0)" fill="#00001b"/>
    <path d="M101.12,63.13a1.39,1.39,0,0,1-1.8-1.07,1.15,1.15,0,0,1,.87-.54,1.28,1.28,0,0,1,.87.56Z" transform="translate(0 0)" fill="#000014"/>
    <path d="M55,93a1.36,1.36,0,0,1,1.82,1.07,1.16,1.16,0,0,1-.87.54,1.26,1.26,0,0,1-.88-.55Z" transform="translate(0 0)" fill="#000016"/>
    <path d="M99.38,94.06c.2-.94,1-.92,1.71-1.08a.52.52,0,0,1,.2.81.78.78,0,0,1-.81.73A1.28,1.28,0,0,1,99.38,94.06Z" transform="translate(0 0)" fill="#001"/>
    <path d="M60.06,57.06l-1,.09c0-.87,0-1.72,1-2.1l.19.28a1,1,0,0,1,.28.89A1.63,1.63,0,0,1,60.06,57.06Z" transform="translate(0 0)" fill="#000016"/>
    <path d="M96.06,56.06c-.88.17-1.23-.42-1.55-1.06C95.15,55.18,96,55.06,96.06,56.06Z" transform="translate(0 0)" fill="#00000e"/>
    <path d="M101.06,62.06,99.85,62a1,1,0,0,1,.16-1,.71.71,0,0,1,1,0Z" transform="translate(0 0)" fill="#001339"/>
    <path d="M56.06,62,55,62.56l.17-1.51.71-.29.53.55Z" transform="translate(0 0)" fill="#001237"/>
    <path d="M101,61.06h-.9l-.4-.52.4-.48h.73Z" transform="translate(0 0)" fill="#00000d"/>
    <path d="M99.82,94.12l1.46-.33h0a1.3,1.3,0,0,1-.21,1.13l-1.08.47-.11-.25.21-.18a.57.57,0,0,1-.32-.74Z" transform="translate(0 0)" fill="#001339"/>
    <path d="M101.06,94.92l.21-1.13.94.76Z" transform="translate(0 0)" fill="#00000d"/>
    <path d="M56.06,95.94c-.73.16-1-.2-.87-.86a.62.62,0,1,1,.87.86Z" transform="translate(0 0)" fill="#00000b"/>
    <path d="M56.06,95.94v-.89l.53-.41.53.41v1.42Z" transform="translate(0 0)" fill="#001035"/>
    <path d="M57.12,59.65l.07,1.4A.82.82,0,0,1,56,61h0q-.34-.28-.23-.56T56,60.2Z" transform="translate(0 0)" fill="#001237"/>
    <path d="M56.06,60.21v.85h-.88C55.06,60.37,55.32,60.06,56.06,60.21Z" transform="translate(0 0)" fill="#00000a"/>
    <path d="M56.06,95.06h-.9l-.09-1,1.18.06a.75.75,0,0,1-.22,1Z" transform="translate(0 0)" fill="#001339"/>
    <path d="M69.06,84.12h-1a25.09,25.09,0,0,1,.1-11.39c3.66.46,2,3.36,1.92,5-.09,3.05.58,4.77,4,4.39C73.31,85.13,70.3,82.39,69.06,84.12Z" transform="translate(0 0)" fill="#000227"/>
    <path d="M87.06,80c.81.88,1.54,2,.72,3s-1.86.32-2.65-.27c-1.52-1.14-3.19-.34-4.77-.53-1.24.58-1.81-.17-2.27-1.14-.07-.88-.28-1.81.8-2.28.75.13,1.47-.27,2.23-.15a10.14,10.14,0,0,0,2.87.16C85.39,78.31,86.17,79.33,87.06,80Z" transform="translate(0 0)" fill="#000a31"/>
    <path d="M81.06,73.95c1.43-2.83,2.77-3,4,.14-.66.91-.49,2.33-1.75,2.87-.9.36-1.8.8-2.59-.2A3.76,3.76,0,0,1,81.06,73.95Z" transform="translate(0 0)" fill="#090f2c"/>
    <path d="M68.16,72.72l-.1,11.39c-1.9-3.85-.77-7.84-.58-11.79h.33A2.33,2.33,0,0,1,68.16,72.72Z" transform="translate(0 0)" fill="#001035"/>
    <path d="M104.12,73.06a11.19,11.19,0,0,1,0,10Z" transform="translate(0 0)" fill="#0d1536"/>
    <path d="M81.06,73.95l.13,3.27a1.21,1.21,0,0,1-.07,1.71l-.16.12c-.71.3-1.48,1-2-.25A5.71,5.71,0,0,1,81.06,73.95Z" transform="translate(0 0)" fill="#00000e"/>
    <path d="M52,82.06a7.82,7.82,0,0,1,0-8Z" transform="translate(0 0)" fill="#0c183b"/>
    <path d="M77.06,50.06c1.15,0,2.3,0,3.44.06.66,0,.67.48.18.83a2.91,2.91,0,0,1-.94.26H76.35l-.6-.7Z" transform="translate(0 0)" fill="#000016"/>
    <path d="M78.12,81.06l2.27,1.14c-.19,1.55-1.16,2.79-2.58,2.08C76.06,83.43,77.32,82.06,78.12,81.06Z" transform="translate(0 0)" fill="#000015"/>
    <path d="M69.06,84.12c1.14-2,3.78-.17,5-2,2.09.95,1.28,1.89-.22,2.15A22.05,22.05,0,0,1,69.06,84.12Z" transform="translate(0 0)" fill="#000015"/>
    <path d="M83.06,76.06l1.89-2c.69,1.2-.07,2.93,1.38,3.85a2.1,2.1,0,0,1-2.1.61A1.87,1.87,0,0,1,83.06,76.06Z" transform="translate(0 0)" fill="#001"/>
    <path d="M84.26,78.06l2.12-.11a2.13,2.13,0,0,1,.72,2c-1,.85-2-1.22-3,.08a1.25,1.25,0,0,1,.16-2Z" transform="translate(0 0)" fill="#000019"/>
    <path d="M100.06,61.06a2.17,2.17,0,0,1-.21,1,3.82,3.82,0,0,1-.52,0l-.31-1a.65.65,0,0,1,1,0Z" transform="translate(0 0)" fill="#00000f"/>
    <path d="M56.06,61.06H57.2c.12.9-.46,1-1.12.94Q56.06,61.53,56.06,61.06Z" transform="translate(0 0)" fill="#00000f"/>
    <path d="M100.06,61.06h-1v-1h1Z" transform="translate(0 0)" fill="#000e34"/>
    <path d="M56.06,95.06a2.58,2.58,0,0,1,.21-1h.56l.3,1Z" transform="translate(0 0)" fill="#00000f"/>
    <path d="M60.26,100.82a3.45,3.45,0,0,1-.11-1,1.61,1.61,0,0,1,.9.25Z" transform="translate(0 0)" fill="#00000e"/>
    <path d="M99.82,94.12a1.88,1.88,0,0,1,.27.85l-1-.28.32-.62Z" transform="translate(0 0)" fill="#000010"/>
    <path d="M60.06,57.06V56a.57.57,0,0,1,.8-.09l0,0a1.46,1.46,0,0,1,.36.47C61.19,57.14,60.74,57.31,60.06,57.06Z" transform="translate(0 0)" fill="#000d33"/>
    <path d="M60.93,55.88l-.42.1h-.42a1.65,1.65,0,0,1,.13-.62Z" transform="translate(0 0)" fill="#00000d"/>
    <path d="M84.26,78.06l-.15,2c-1.2.07-2.53.57-3.2-1l.23-1.83,2-1.16Z" transform="translate(0 0)" fill="#9ca3b1"/>
  </g>
</svg>
