<svg id="Layer_1" data-name="Layer 1" xmlns="http://www.w3.org/2000/svg" width="155.19" height="155.2" viewBox="0 0 155.19 155.2">
  <title>cs_partiring_radikale_venstre-sm</title>
  <g>
    <path d="M342.44,270c-24.67,0-49.33-.08-74,.1-3.16,0-3.51-.85-3.51-3.66q.14-74,0-148c0-3.15.84-3.51,3.66-3.51q74,.14,148,0c3.15,0,3.51.84,3.51,3.66q-.14,74,0,148c0,3.15-.84,3.52-3.66,3.51C391.77,269.95,367.11,270,342.44,270Z" transform="translate(-264.9 -114.9)" fill="#fefefe"/>
    <path d="M343,265a72,72,0,1,1,72-71.73A72,72,0,0,1,343,265Z" transform="translate(-264.9 -114.9)" fill="#fd00e0"/>
    <path d="M388.12,235c-21,25-64.84,26.64-87.38,3.26-.94-1-1.87-1.89-1.81-3.37l.83-.37.9,0c27.58.18,55.15.09,82.72,0a9.82,9.82,0,0,1,1.66-.41,5.21,5.21,0,0,1,1.68,0A2.61,2.61,0,0,1,388.12,235Z" transform="translate(-264.9 -114.9)" fill="#fefdfd"/>
    <path d="M388.12,235l-1.5-.23a6.65,6.65,0,0,1-2-4.95c0-25.74-.28-51.48.15-77.21,0-.66.19-1.31.27-2A3.44,3.44,0,0,1,386,149c15.05,13.85,20.56,31.34,18.5,51.2C403.11,213.54,397.88,225.46,388.12,235Z" transform="translate(-264.9 -114.9)" fill="#fefdfd"/>
    <path d="M386,149q0,.4,0,.79a2.06,2.06,0,0,1-1.49.82,6.91,6.91,0,0,1-1.8-.18c-24.82-.14-49.64,0-74.45-.07-2.79,0-5.74.43-8-1.89,17-19,50.13-23.07,73.82-9.05C378.51,142.05,383,144.69,386,149Z" transform="translate(-264.9 -114.9)" fill="#fefcfd"/>
    <path d="M298.1,150.66v84C278.21,216.86,273,176.89,298.1,150.66Z" transform="translate(-264.9 -114.9)" fill="#fefcfd"/>
    <path d="M300.29,148.5c26.44,0,52.87,0,79.31.13,1.56,0,3.74-1.34,4.76,1.21-1.62,1.9-3.88,1.73-6,1.74q-36.15.11-72.29,0a10.84,10.84,0,0,1-5.35-.92L300,150Z" transform="translate(-264.9 -114.9)" fill="#fe007d"/>
    <path d="M299.86,235.14a1.9,1.9,0,0,1-.92-.21q0-39.66.05-79.32c0-1.88-.86-4,1-5.62l0,0c1.72,1.92,1.59,4.32,1.59,6.63q.05,36,0,72C301.59,230.9,301.87,233.35,299.86,235.14Z" transform="translate(-264.9 -114.9)" fill="#fe007d"/>
    <path d="M299.86,235.14q.08-42.56.16-85.12l84.35-.18a.47.47,0,0,1,.64.18c.95,1.37.46,2.91.46,4.37q0,37.16,0,74.32a37.14,37.14,0,0,0,.49,5.94.83.83,0,0,1-.79.41c-2.08,1-4.28.38-6.41.39-25.17.06-50.33,0-75.5.05a6.79,6.79,0,0,1-3.42-.39Z" transform="translate(-264.9 -114.9)" fill="#fe008f"/>
    <path d="M386,234.66c-1.32-1.76-.94-3.82-.95-5.78q0-39.43,0-78.85l1-.21c.83,1.4.38,2.92.39,4.39q.12,40.31.2,80.61A5.26,5.26,0,0,0,386,234.66Z" transform="translate(-264.9 -114.9)" fill="#fe007e"/>
    <path d="M299.84,235.11l85.33,0c-.61,2.18-2.38,1.35-3.74,1.35q-38.92,0-77.84,0C302.25,236.41,300.47,237.31,299.84,235.11Z" transform="translate(-264.9 -114.9)" fill="#fe007e"/>
    <path d="M367.85,208.69c-1.72,9.58-9,12.4-17.19,14.13-7.3,1.45-14.67.5-22,.57-3.84,0-7.81,1-11.58-.66L317,221c-1-4.25-.38-8.56-.41-12.84-.09-13.42,0-26.84,0-40.25,0-1.63-.39-3.32.43-4.88a.65.65,0,0,0,.11-.72c2.07-1.6,4.47-.76,6.66-.71,8.06.19,16.15-.8,24.18.52,2.57.57,5.14,1.1,7.7,1.7,5.9,1.39,8.05,5.94,9.35,11.19,1.42,2,.83,4,.12,6-.73,4.66-4.41,6.38-8.07,8.14-.7,1.15.38,1.34,1,1.79,6.36,1.55,8.21,6.74,9.79,12.15A5.35,5.35,0,0,1,367.85,208.69Z" transform="translate(-264.9 -114.9)" fill="#fefefe"/>
    <path d="M317,163q0,29,0,58c-1.22-1-.95-2.38-1-3.68q0-25.31,0-50.62C316,165.39,315.74,164,317,163Z" transform="translate(-264.9 -114.9)" fill="#fe0083"/>
    <path d="M317.08,222.74l33.58.09,2.25.36-.06.78h-33.8A2.09,2.09,0,0,1,317.08,222.74Z" transform="translate(-264.9 -114.9)" fill="#fe007e"/>
    <path d="M347.92,162.1l-30.85.19c1.23-2.08,3.27-1.23,5-1.25,8.65-.08,17.3,0,26,0q.44.23.34.53t-.24.32Z" transform="translate(-264.9 -114.9)" fill="#fe007f"/>
    <path d="M365.09,181l-.12-6C368.32,176.92,366.77,179,365.09,181Z" transform="translate(-264.9 -114.9)" fill="#fe0088"/>
    <path d="M367.85,208.69l-.06-5.64c2.22,2,1,4.51.94,6.82C368.73,210,368.05,209.2,367.85,208.69Z" transform="translate(-264.9 -114.9)" fill="#fe007d"/>
    <path d="M348.1,161.86a4.54,4.54,0,0,1-.1-.85h4.2C350.78,162.65,349.35,161.68,348.1,161.86Z" transform="translate(-264.9 -114.9)" fill="#fe007b"/>
    <path d="M358,190.91c-.93,0-2.16.23-2.48-.79-.38-1.21.8-.94,1.51-1Z" transform="translate(-264.9 -114.9)" fill="#fe1190"/>
    <path d="M347.45,196.87c3.48,1.3,5.68,3.56,5.48,7.51-.22,4.42-3.42,6.15-7,7.55-4.35-1.4-9,.65-13.31-1.12-.07-4.7-.65-9.42.35-14.09C337.85,195.24,342.65,196.09,347.45,196.87Z" transform="translate(-264.9 -114.9)" fill="#fe008f"/>
    <path d="M344,173.1c3.79,1,6.6,3,6.08,7.36-.47,4-2.68,6.54-7.08,6.46-3.33-1.28-7,.53-10.29-1.07a83.05,83.05,0,0,1,0-11.67C336.31,172.49,340.29,174.39,344,173.1Z" transform="translate(-264.9 -114.9)" fill="#fe008f"/>
    <path d="M347.45,196.87,333,197a1.41,1.41,0,0,1-.77-1C337.36,195.25,342.5,194.32,347.45,196.87Z" transform="translate(-264.9 -114.9)" fill="#fe007b"/>
    <path d="M332.23,196l.77,1q0,7,0,14,.82.55,0,1.1C330.52,206.84,331.9,201.41,332.23,196Z" transform="translate(-264.9 -114.9)" fill="#fe007e"/>
    <path d="M333,174v12q.52.33.35.66c-.12.22-.23.33-.35.33a16.69,16.69,0,0,1,0-14.07Q333.82,173.46,333,174Z" transform="translate(-264.9 -114.9)" fill="#fe007f"/>
    <path d="M333,212.09q0-.55,0-1.1c4.31.54,8.78-1.11,13,.94A54.67,54.67,0,0,1,333,212.09Z" transform="translate(-264.9 -114.9)" fill="#fe007c"/>
    <path d="M333,174v-1.09a39.42,39.42,0,0,1,11,.18C340.45,175,336.64,173.52,333,174Z" transform="translate(-264.9 -114.9)" fill="#fe007c"/>
    <path d="M333,187q0-.5,0-1c3.31.43,6.79-.95,10,.93Z" transform="translate(-264.9 -114.9)" fill="#fe0080"/>
  </g>
</svg>
