<svg id="Layer_1" data-name="Layer 1" xmlns="http://www.w3.org/2000/svg" width="196.3" height="420.92" viewBox="0 0 196.3 420.92">
  <title>reg-05</title>
  <path d="M147.5,351.66l29.8-13.1s23.3-3.45,6.2,6.75l-43.2,25.82-9-9.8Z" transform="translate(0)" stroke="#000" stroke-miterlimit="10"/>
  <path d="M82.5,400.13,55.3,411S40.4,424,58.5,419.47l45.8-11.41-4.7-12.29Z" transform="translate(0)" stroke="#000" stroke-miterlimit="10"/>
  <path d="M8.8,108.13l22.5-.48C28.4,163,21.4,204,14.5,204.46a113.56,113.56,0,0,1-13.8-.8c-2.5-.32,5.6-18.32,6.1-18.16C8.8,185.75,2.8,143.13,8.8,108.13Z" transform="translate(0)" fill="#e7d0a5"/>
  <path d="M77,41.94c8.6-2.09,42.5-7.31,51.2-9.4-.5,27-6.8,43-22.8,42.82-.7,0,0,0-7,.64a38.57,38.57,0,0,1-4.3.24C86,75.44,83.3,78.13,77,41.94Z" transform="translate(0)" fill="#e7d0a5"/>
  <path d="M147.8,185.35c31.2,23,18.5,56.4,24.2,70,9.1,21.85-1.9,84.92-20.4,96.81-7.8,5-12.3,10.28-20.2,5.46-13.6-8.19-6.4-46.44-6.4-72.31,0-25.55-29.4-73.83-27.6-69.49,8.3,20.73-10.2,108.62-10.2,108.62l11.6,83.8L68.4,398.13S45.1,330.4,46.6,329L34.4,285.37c-.9-7.31.3-40.81,0-51-.2-8.68-14-50.69,4-65.32C55.9,154.82,118.9,165.75,147.8,185.35Z" transform="translate(0)" fill="#46766a"/>
  <path d="M113.4,27.48" transform="translate(0)" fill="#513d1d"/>
  <path d="M166.7,75.77" transform="translate(0)" fill="#513d1d"/>
  <path d="M113.4,33.51" transform="translate(0)" fill="#513d1d"/>
  <g>
    <path d="M49.4,50.13C80.9,37,80.2,33.5,78.4,23.94a40.92,40.92,0,0,1-.3-17.76C98.5,2.24,110.9.48,118.4.48c4.5,0,7.2.64,8.5,1.93,1.9,1.85,1.1,5.14,0,9.32a47,47,0,0,0-1.7,9.8c-.1,2.57.5,4.5,2,5.7a7,7,0,0,0,4.4,1.37,11.06,11.06,0,0,0,2.8-.32c6.8.56,16.1,1.37,21.5,1.93-23.2.32-37.6,3.7-73.4,12.13C72.8,44.67,62.1,47.13,49.4,50.13Z" transform="translate(0)"/>
    <path d="M118.4.89c4.3,0,6.9.56,8.2,1.77,1.7,1.69.9,4.9-.1,9a47.77,47.77,0,0,0-1.7,9.88c-.1,2.73.6,4.74,2.1,6A7.59,7.59,0,0,0,131.7,29a16.62,16.62,0,0,0,2.8-.32c4.4.32,10.1.88,15,1.29-19.7.8-34.6,4.34-67.1,12C74,44,64.8,46.17,54,48.66c12.3-5.3,18.8-8.84,22.3-12.13,4.4-4.18,3.7-7.71,2.7-12.69a42.27,42.27,0,0,1-.3-17.35C98.7,2.63,111,.87,118.4.95m-.1-.88c-7.5,0-20,1.77-40.7,5.7-5.5,27.16,18.5,24.83-33,45.79,67.7-15.26,82.3-20.89,114.5-20.89,8.5,0-24.9-2.73-24.9-2.73a10.34,10.34,0,0,1-2.7.32c-2.6,0-6.1-1-5.9-6.67C126.2,8.92,135.1,0,118.3,0Z" transform="translate(0)" fill="#fff"/>
  </g>
  <ellipse cx="114.6" cy="35.83" rx="10.4" ry="8.36"/>
  <path d="M142.5,94.73,167.3,84c28.6,50.37,13.6,66.84,22.1,78.65.4.48,11.6,16.15,4.6,18.08a41.83,41.83,0,0,1-4.3,1C181.4,182.38,156.9,128.13,142.5,94.73Z" transform="translate(0)" fill="#e7d0a5"/>
  <ellipse cx="90.4" cy="38.08" rx="10.4" ry="8.36"/>
  <path d="M111.4,70.86c15.4,2,36.1-3.45,44.5.8,9.8,5,18.8,20.33,19.3,22.09,2.4,7.71,1.1,1.29,5.7,13.82l-28,8.28-17.5-10.44h0c0,7.63,11.5,54,10.4,57.12l2.2,22.82c-1.3,3.7-6.3,6.11-11.7,5.7L33.6,181.13c-.7,7.07,38.5-97.61-4-47.8l-29.6-6L25.8,70.45c10.9-16.07,44.7,1.29,50.1.8l35.5-.4" transform="translate(0)" fill="#fff"/>
  <path d="M115.8,57.13s-4.9-10.52-10-4.42-5.6-2.49-5.6-2.49S89.5,50.13,89,55.44" transform="translate(0)" fill="none" stroke="#000" stroke-miterlimit="10" stroke-width="4"/>
  <g>
    <path d="M96.76,134H54.68c-.47,0-.56-.07-.56-.45V97.24c0-.38.09-.45.56-.45h84.16c.47,0,.56.07.56.45v36.35c0,.38-.09.45-.56.45Z" transform="translate(0)" fill="#fefefe"/>
    <path d="M127.43,115.58c1.49.59,1.76,1.31.94,2.52-.63.69-1.44.77-2.59.26l-.18-.11c-1-1-.67-2.24.73-2.7A1.28,1.28,0,0,1,127.43,115.58Z" transform="translate(0)" fill="#6cb4cc"/>
    <path d="M125.78,118.23a2.44,2.44,0,0,0,2.59-.13c-.15.35-.18.65.37.8.2.05.28.24.11.36s-.31-.08-.36-.16c-.18-.27-.38-.25-.64-.1a.63.63,0,0,1-.81,0c-.19-.15-.26-.08-.33.4a1.49,1.49,0,0,1-.8.12.88.88,0,0,1-.56-.14c0-.19.08-.33.38-.26s.48-.12.71-.33c-.44-.09-.81-.2-1.15.1s-.43,0-.64,0a.16.16,0,0,1-.11-.2v0a.22.22,0,0,1,.13-.1c.35-.1.31-.08.19-.35a1.41,1.41,0,0,0-1.08-.88c-.18,0-.3-.13-.47,0a.36.36,0,0,1-.25,0c-.33-.4-.64-.51-1,0h-.24c.31-.37-.41-.35-.36-.63a.85.85,0,0,1,.59-.05,2.22,2.22,0,0,0,1.75-.45,1.6,1.6,0,0,0,.52-1.45.36.36,0,0,1,.14-.23c.18.06.26.34.56.13s.3.07.42.15.22.26.05.32c-.35.14-.26.28,0,.37s.6.22.7-.13.46-.29.79-.19c.16.21.51,0,.69.22l-.27.21c-1.56,0-2.33.61-2.22,1.68a1.92,1.92,0,0,0,.58,1,.44.44,0,0,1-.14.09A.31.31,0,0,0,125.78,118.23Z" transform="translate(0)" fill="#fcfdfc"/>
    <path d="M124,116.25a2.57,2.57,0,0,1-2.46.41c-.42-.26-.9-.48-1-1-.13-.17.06-.4-.14-.56a1.13,1.13,0,0,1,.55-1.21c.45.16.54,0,.54-.34a2.82,2.82,0,0,1,1.65-.19.29.29,0,0,1,.32.14.25.25,0,0,1-.07.15l-.09.08c-.13.17-.61.1-.53.33s.41,0,.62,0,.39.11.35.31c-.11.57.34,1.14,0,1.71C123.76,116.13,123.93,116.19,124,116.25Z" transform="translate(0)" fill="#80bdd3"/>
    <path d="M68,120.3H66.58c-.19,0-.4,0-.41-.22s.22-.26.43-.26H69c.43,0,.62-.09.6-.47s-.18-.47-.62-.46H67c-.67,0-.91-.19-.87-.69v-.06c0-1.16,0-1.18,1.42-1.18h2.13c.21,0,.53,0,.51.23s-.31.23-.53.23H67.31c-.52,0-.53.2-.54.51s.1.47.54.45h2.2c.47,0,.69.19.72.58.1,1.24,0,1.32-1.52,1.32H68Z" transform="translate(0)" fill="#717174"/>
    <path d="M99.5,112.42v-1.16c0-.39.22-.51.64-.51h2.81c.47,0,.69.21.69.6v2.15c0,.35-.2.58-.63.59h-2.73c-.59,0-.82-.23-.77-.69A6.19,6.19,0,0,0,99.5,112.42Z" transform="translate(0)" fill="#a0a0a3"/>
    <path d="M103.1,119.78v-2.36c0-.19-.06-.47.31-.45s.32.27.32.48c0,.73,0,1.47-.06,2.2,0,.23.17.57-.3.64a1,1,0,0,1-1.16-.37c-.46-.7-1-1.37-1.5-2-.09-.12-.11-.28-.4-.35v2.53a.29.29,0,0,1-.28.3h0c-.22,0-.33-.11-.33-.29q0-1.38,0-2.76c0-.18.12-.29.33-.28.39,0,.81-.11,1.08.28.5.72,1.05,1.42,1.59,2.13A.68.68,0,0,0,103.1,119.78Z" transform="translate(0)" fill="#707072"/>
    <path d="M106.94,111.37v2.13a2.13,2.13,0,0,1,0,.44.26.26,0,0,1-.29.19.21.21,0,0,1-.24-.22V111c0-.17.13-.27.34-.29a1.3,1.3,0,0,1,1,.27c.48.65,1,1.29,1.46,1.93a1.94,1.94,0,0,0,.56.55v-2.32c0-.18,0-.45.37-.43s.28.25.28.43v2.32c0,.26,0,.53-.41.6a.92.92,0,0,1-1-.32c-.53-.73-1.08-1.45-1.63-2.17l-.24-.26Z" transform="translate(0)" fill="#9fa0a2"/>
    <path d="M75.32,112.45v-1.21c0-.4.11-.51.57-.5h2.75c.55,0,.8.21.8.64v.77c0,.25-.06.39-.27.41-1,.12-.31.42-.15.69s.76.57.28.82-.52-.34-.79-.53a2.35,2.35,0,0,1-.45-.48.94.94,0,0,0-1-.39c-.22,0-.65.06-.65-.24s.39-.16.62-.17h1.31c.44,0,.51-.23.49-.52s-.06-.53-.5-.53h-2c-.37,0-.39.17-.39.4v2.1c0,.2,0,.46-.34.45s-.31-.27-.31-.47C75.32,113.26,75.32,112.85,75.32,112.45Z" transform="translate(0)" fill="#9fa0a2"/>
    <path d="M106.35,118.59c0-.44-.28-1.13.11-1.46s1.3-.09,2-.12a7.42,7.42,0,0,1,.82,0,1,1,0,0,1,1.15.84,5.37,5.37,0,0,1,0,1.59,1,1,0,0,1-1.08.83h-2.61c-.32,0-.37-.14-.37-.35C106.36,119.53,106.35,119.13,106.35,118.59Z" transform="translate(0)" fill="#6f7073"/>
    <path d="M91.28,110.74h1.37c.23,0,.51,0,.5.25s-.29.18-.48.19H90.33c-.44,0-.63.11-.61.48s0,1,0,1.49c0,.32.1.47.54.45h1.86c.34,0,.53-.08.49-.37s.14-.59-.42-.61c-.24,0-.6.05-.59-.23s.41-.21.66-.22c.93,0,.93,0,.93.73,0,1.16,0,1.16-1.47,1.17H90.07c-.72,0-1-.16-1-.73v-2.09c0-.34.25-.54.7-.54Z" transform="translate(0)" fill="#9fa0a2"/>
    <path d="M117.93,108.62a1.82,1.82,0,0,1,2.05,0,1.19,1.19,0,0,1,.45,1.45,1.64,1.64,0,0,1-1.81.79,1.28,1.28,0,0,1-1.24-1.32s0-.07,0-.1A3.1,3.1,0,0,1,117.93,108.62Z" transform="translate(0)" fill="#a2cfdf"/>
    <path d="M117.52,114.59a1.69,1.69,0,0,1-1.38-1.52c0-.66.61-1.22,1.49-1.4a2,2,0,0,1,2,.73,1.11,1.11,0,0,1-.14,1.56l-.12.09c-.6,0-.68-.05-.51-.45a1.26,1.26,0,0,0,.14-.47,1.25,1.25,0,0,0-.38.88.67.67,0,0,1-.14.58A1,1,0,0,1,117.52,114.59Z" transform="translate(0)" fill="#94c6db"/>
    <path d="M95.3,117.49c-.52.82-1,1.64-1.56,2.45-.12.18-.19.5-.55.37s-.14-.38,0-.57c.5-.81,1-1.6,1.51-2.41a.65.65,0,0,1,.63-.33.73.73,0,0,1,.71.33c.51.82,1,1.64,1.54,2.46.1.17.3.39,0,.52s-.46-.1-.53-.29a1,1,0,0,0-1.2-.58,5,5,0,0,1-.69,0c-.21,0-.45,0-.43-.24s.23-.18.42-.2c.37,0,.9.16,1.07-.12s-.25-.56-.41-.84S95.59,117.63,95.3,117.49Z" transform="translate(0)" fill="#6f7072"/>
    <path d="M125.91,119.34h.81c.37.31.89.55.83,1.07a.42.42,0,0,0-.23.52,1.8,1.8,0,0,1-.28.66,1.92,1.92,0,0,1-2.46-.32c-.2-.27.2-.49.08-.75-.09-.06-.19-.12-.19-.23a1.11,1.11,0,0,1,.25-.57.65.65,0,0,1,.33-.15C125.3,119.43,125.68,119.53,125.91,119.34Z" transform="translate(0)" fill="#54aec6"/>
    <path d="M125.06,119.67l-.25.14c-.17.11-.19.29-.26.44s.1.42.05.63a.37.37,0,0,0,.06.36,1.77,1.77,0,0,0,2.35.29c.08,0,.13-.15.27-.11.34.24.28.46-.13.55a8.77,8.77,0,0,1-2.09,0c-.06,0-.16,0-.18-.07s-.23-.48-.51-.35,0,.4.17.69a1.37,1.37,0,0,0-1.14.19c-.15-.39.15-.85-.29-1.2a3.26,3.26,0,0,0-.43-.27c-.24-.25-.63,0-.89-.18s-.18-.47,0-.43c.53.12.53-.24.74-.4s.36-.23.53-.1.57.09.82.21c0,.18-.27.27-.16.45.38,0,.5-.17.55-.48a.55.55,0,0,1,.77-.47Q125.2,119.61,125.06,119.67Z" transform="translate(0)" fill="#fafcfc"/>
    <path d="M84.07,112.18h1.51c.21,0,.45,0,.43.26s-.25.18-.43.18H83.31c-.56,0-.54.25-.56.57s.18.43.57.42h2.34c.24,0,.5,0,.5.26s-.27.24-.46.24H82.61c-.32,0-.46-.13-.44-.38a.38.38,0,0,0,0-.06C82.06,112.18,82.06,112.18,84.07,112.18Z" transform="translate(0)" fill="#a1a2a5"/>
    <path d="M122.07,109.28c-1-.64-.92-1.54.08-1.9a1.34,1.34,0,0,1,1.71.59,1,1,0,0,1-.62,1.27l-.1,0a4.81,4.81,0,0,1-.66.12C122.36,109.32,122.16,109.42,122.07,109.28Z" transform="translate(0)" fill="#b5dbe5"/>
    <path d="M79.88,117h1.37c.19,0,.39,0,.38.23s-.21.22-.39.22H79a.91.91,0,0,0-.87.4c-.56.76-1.17,1.49-1.75,2.24-.13.16-.26.34-.53.2s-.13-.29,0-.44l2-2.57a.9.9,0,0,1,.77-.29Z" transform="translate(0)" fill="#717174"/>
    <path d="M84.15,118.65v-1.27c0-.2,0-.46.35-.44s.28.25.28.43a13.4,13.4,0,0,1,0,1.76c-.08.59.22.74.88.68H87c.22,0,.44,0,.42.26s-.22.22-.41.22h-2.4c-.35,0-.42-.15-.42-.39C84.16,119.5,84.15,119.08,84.15,118.65Z" transform="translate(0)" fill="#77777a"/>
    <path d="M80,118.44h1.17c.17,0,.33,0,.33.21s-.15.23-.32.23H79.53c-.55,0-.47.22-.48.49s.06.45.48.43,1.05,0,1.58,0c.23,0,.5,0,.51.25s-.25.25-.45.25H78.85c-.24,0-.39-.08-.38-.3s0-.22,0-.33C78.47,118.44,78.47,118.44,80,118.44Z" transform="translate(0)" fill="#727275"/>
    <path d="M123.16,121.13c.58.38.43.84.24,1.3a1.62,1.62,0,0,1-2,.23c-.31-.06-.34-.28-.4-.47a1.1,1.1,0,0,1,.81-1.31h.06l.18.2.19.21a1.45,1.45,0,0,0,.51.13C123,121.45,123,121.21,123.16,121.13Z" transform="translate(0)" fill="#38a7c0"/>
    <path d="M90.35,120.3c-1.57,0-1.57,0-1.57-1.25a2.41,2.41,0,0,1,0-.66c.14-.48-.37-1.05.31-1.45.58.43.17,1,.27,1.48a3.74,3.74,0,0,1,0,1c0,.31.12.43.51.41h1.65c.22,0,.46,0,.48.22s-.26.26-.49.26Z" transform="translate(0)" fill="#727375"/>
    <path d="M73.62,118.68c0,.62.2,1.42-.58,2.05-.19.15-.36.41-.66.2s0-.37.14-.51a1.29,1.29,0,0,0,.49-1.16v-1.93c0-.17,0-.37.27-.39s.35.19.36.38C73.63,117.73,73.62,118.13,73.62,118.68Z" transform="translate(0)" fill="#777679"/>
    <path d="M119.87,121c0,.43-.41.75-1,.76s-1-.31-1-.78a.88.88,0,0,1,1-.78h0A.92.92,0,0,1,119.87,121Z" transform="translate(0)" fill="#069eba"/>
    <path d="M96.64,112.47v1.26c0,.16,0,.36-.27.38s-.31-.18-.31-.35v-2.69c0-.17,0-.36.31-.35s.27.21.27.37Z" transform="translate(0)" fill="#9fa1a3"/>
    <path d="M84.15,111.19h-1.5c-.2,0-.44,0-.46-.21s.22-.24.43-.24h3.07c.21,0,.45,0,.46.23s-.3.22-.5.22C85.15,111.2,84.65,111.19,84.15,111.19Z" transform="translate(0)" fill="#a2a3a5"/>
    <path d="M126.6,109.84c-.79.16-1.29,0-1.47-.51s.14-.81.63-1,.87.18,1.25.38c.2.32.27.62-.12.89-.34-.08-.55-.22-.44-.55s-.21-.37-.45-.46c-.12.19-.34.35-.41.56s.21.24.39.29.51,0,.72.14S126.69,109.78,126.6,109.84Z" transform="translate(0)" fill="#cee6eb"/>
    <path d="M116.55,118.78c0-.07.05-.1.13-.1a1.62,1.62,0,0,1,.85,0c.39.25.45.52.05.81a.68.68,0,0,1-1,0l-.1-.12A.77.77,0,0,1,116.55,118.78Z" transform="translate(0)" fill="#0c93b2"/>
    <path d="M118.48,114.48c0-1.06.09-1.29.7-1.71.33.32,0,.57-.15.81s-.1.45.32.47c0,.21-.35.24-.46.41A.3.3,0,0,1,118.48,114.48Z" transform="translate(0)" fill="#93c8d6"/>
    <path d="M127.27,121.42l-.27.11c0-.28.22-.51,0-.84s.27-.22.5-.25A1.06,1.06,0,0,1,127.27,121.42Z" transform="translate(0)" fill="#5babc8"/>
    <path d="M121.5,113.6a1,1,0,0,1,.5.09c-.12.19-.52.1-.5.38s-.13.18-.28.18-.25-.17-.25-.31Z" transform="translate(0)" fill="#7ebed2"/>
    <path d="M123.44,113.6l-.28-.19c.08-.17-.31-.26-.14-.42s.34-.07.51,0,.16.25.14.41a.88.88,0,0,0,0,.26A.24.24,0,0,1,123.44,113.6Z" transform="translate(0)" fill="#f9fcfa"/>
    <path d="M118.48,114.48h.4c-.64.62-.94.64-1.37.13C117.84,114.54,118.19,114.68,118.48,114.48Z" transform="translate(0)" fill="#f7fcfd"/>
    <path d="M126.74,109.62c.46-.22.21-.58.27-.89.52.14.27.49.24.73a.49.49,0,0,1-.56.4l-.09,0Z" transform="translate(0)" fill="#f5fdfd"/>
    <path d="M121,122.18l.4.47c-.21.29-.57,0-.86.13-.08,0-.13-.24,0-.31S121,122.4,121,122.18Z" transform="translate(0)" fill="#fafdf8"/>
    <path d="M123.44,113.6h.26c.17.22.53.33.57.63h-.07c-.5-.06-.78-.27-.78-.7Z" transform="translate(0)" fill="#89bfd1"/>
    <path d="M123.2,123.13a1.23,1.23,0,0,1-1.18.12A3.33,3.33,0,0,1,123.2,123.13Z" transform="translate(0)" fill="#f7fef9"/>
    <path d="M127.7,115.37c-.2-.13-.68.3-.69-.22h.6C127.81,115.15,127.84,115.25,127.7,115.37Z" transform="translate(0)" fill="#fbfef5"/>
    <path d="M123.34,123.25a1,1,0,0,1,.88-.08C124,123.41,123.76,123.31,123.34,123.25Z" transform="translate(0)" fill="#fafcfc"/>
    <path d="M125.06,119.67a.1.1,0,0,0,0-.1l.31-.21h.55C125.79,119.73,125.29,119.48,125.06,119.67Z" transform="translate(0)" fill="#5fadc8"/>
    <path d="M117.93,108.62c0,.35-.36.52-.53.78A.82.82,0,0,1,117.93,108.62Z" transform="translate(0)" fill="#b4cfdb"/>
    <path d="M121.78,120.78c.33,0,.69-.27,1,.09a1.26,1.26,0,0,1-1,.05h0A.8.8,0,0,1,121.78,120.78Z" transform="translate(0)" fill="#eff6f2"/>
    <path d="M123.73,122.67c.08,0,.2,0,.17.12s-.13.09-.22.08-.2,0-.17-.12S123.64,122.66,123.73,122.67Z" transform="translate(0)" fill="#fafcfc"/>
    <path d="M122.07,109.28a.56.56,0,0,1,.42.11c-.12,0-.15.21-.31.17S122.08,109.38,122.07,109.28Z" transform="translate(0)" fill="#f2fefd"/>
    <path d="M124.52,114.49v.22c-.49,0-.42-.19-.27-.43h0Z" transform="translate(0)" fill="#89bfd1"/>
    <path d="M117.54,118.67h-.85A.68.68,0,0,1,117.54,118.67Z" transform="translate(0)" fill="#1396b0"/>
    <path d="M120.41,115.13c.29.15.18.36.14.56C120.36,115.54,120.4,115.34,120.41,115.13Z" transform="translate(0)" fill="#82c1d2"/>
    <path d="M116.55,118.78v.61C116.31,119.18,116.36,119,116.55,118.78Z" transform="translate(0)" fill="#1396b0"/>
    <path d="M124.25,114.27c0,.16-.08.39.27.43a1.39,1.39,0,0,1-.54,1.55c-.21,0-.47.11-.31-.28a1,1,0,0,0-.15-1.1.31.31,0,0,1,0-.26c0-.12.34-.22.08-.36s-.28.07-.41.13c-.73.32-.42-.37-.74-.48a3,3,0,0,0,1-.29A1.3,1.3,0,0,0,124.25,114.27Z" transform="translate(0)" fill="#7ebed2"/>
    <path d="M125.78,118.23c.06.14.07.26-.19.23s-.24-.06-.2-.17.27,0,.4-.05Z" transform="translate(0)" fill="#fefefe"/>
    <path d="M121.1,114.44c.15.29.18.47,0,.7C120.91,114.91,120.93,114.73,121.1,114.44Z" transform="translate(0)" fill="#80bfc8"/>
    <path d="M103,112.43c0,1.17,0,1.17-1.44,1.17s-1.36,0-1.36-1.1c0-1.32,0-1.32,1.68-1.32h.55c.48,0,.66.16.62.53A5.52,5.52,0,0,0,103,112.43Z" transform="translate(0)" fill="#fefefe"/>
    <path d="M107,118.63c0-1.16,0-1.16,1.41-1.16s1.45.05,1.45,1.19v.55c0,.39-.29.6-.79.6h-.55C107,119.82,107,119.82,107,118.63Z" transform="translate(0)" fill="#fdfdfd"/>
    <path d="M118.76,112.49c0,.17-.19.24-.3.35s-.51.41-.63-.09l-.14.09s.13.51-.33.5-.23-.26-.25-.43.07-.46.48-.44.78,0,1.16,0Z" transform="translate(0)" fill="#92c8d6"/>
    <path d="M118.13,114.51c-.11-.37-.62-.41-.47-.77,0-.1.19-.17.26-.11A.7.7,0,0,1,118.13,114.51Z" transform="translate(0)" fill="#91c7d5"/>
    <path d="M118.76,112.49c.09-.16-.36-.24-.12-.4s.33,0,.45.12.2.13.11.22S118.91,112.43,118.76,112.49Z" transform="translate(0)" fill="#8acbda"/>
    <path d="M116.82,113.61c.2,0,.28.09.27.24s-.07.17-.15.14a.73.73,0,0,1-.3-.27C116.6,113.64,116.74,113.62,116.82,113.61Z" transform="translate(0)" fill="#8dc9db"/>
    <path d="M124.66,121.24a.33.33,0,0,1-.14-.32c-.15-.26.12-.34.29-.47s.3.13.13.28A.59.59,0,0,0,124.66,121.24Z" transform="translate(0)" fill="#56b0c7"/>
    <path d="M124.81,120.45l-.29.47a.52.52,0,0,1,0-.71s.06,0,.05.08h0S124.7,120.45,124.81,120.45Z" transform="translate(0)" fill="#5fadc8"/>
    <path d="M125.63,120a.51.51,0,0,1-.11.39c-.24-.1-.13-.27-.16-.39A.22.22,0,0,1,125.63,120Z" transform="translate(0)" fill="#5fadc8"/>
    <path d="M124.54,120.33v-.12a.36.36,0,0,1,.28-.4A1.11,1.11,0,0,1,124.54,120.33Z" transform="translate(0)" fill="#56b0c7"/>
    <path d="M125.63,120h-.27c0-.1,0-.24.16-.24S125.6,119.92,125.63,120Z" transform="translate(0)" fill="#56b0c7"/>
    <path d="M121.77,120.92a2.5,2.5,0,0,1,1-.05c.15.08.33.11.41.26-.08.18.21.58-.41.43a1.11,1.11,0,0,1-.26-.19c-.15-.13-.39-.14-.56-.25Z" transform="translate(0)" fill="#33aac0"/>
    <path d="M121.92,121.13c.24,0,.6-.14.69.22a.56.56,0,0,1-.55,0Z" transform="translate(0)" fill="#3ea1cb"/>
    <path d="M122.06,121.33h.55l.14.22C122.56,121.4,122.14,121.71,122.06,121.33Z" transform="translate(0)" fill="#2ea9b7"/>
    <path d="M123,122.06c.13,0,.13.08.14.14s0,.16-.11.17-.13-.07-.14-.14A.15.15,0,0,1,123,122.06Z" transform="translate(0)" fill="#2baac7"/>
    <path d="M126.74,109.62h-.41a1,1,0,0,1-.95-.28c-.22-.34.44-.45.42-.79,0-.06.39-.07.55,0s.49.26.34.42.07.43,0,.64Z" transform="translate(0)" fill="#c6e5ef"/>
  </g>
</svg>
