<svg id="Layer_1" data-name="Layer 1" xmlns="http://www.w3.org/2000/svg" width="195.68" height="365.15" viewBox="0 0 195.68 365.15">
  <title>reg-03</title>
  <path d="M81.7,347.7l33.12,5.41s20.37,8.77-.86,7.5l-53.63-3.22,1.26-10.89Z" transform="translate(0)" stroke="#000" stroke-miterlimit="10"/>
  <path d="M22.63,346.39l27.18,9.83s14.9,11.62-3.25,7.58L.7,353.58l4.73-11Z" transform="translate(0)" stroke="#000" stroke-miterlimit="10"/>
  <path d="M74.42,29.51a4.89,4.89,0,0,0,.65-.09C115.44,17.47,113.32,41,113.32,41c-3.85,8.65-7.33-1-14.24,12.26-.25.48-3.1,9.93-10.1,10.47-2.42.19-17.45,0-18,0-6.47-.61-9.51.82-13.76-15.67C55.07,39.55,62.67,31.32,74.42,29.51Z" transform="translate(0)" fill="#e7d0a5"/>
  <path d="M92.57,147.78c31.15,20.62,8.5,54.62,14.18,66.86C115.84,234.29,92,291.44,92,342.57c0,7.21-22.41,8.23-30.39,3.93-13.6-7.32,8.17-85.69,8.17-108.94,0-23-8.54-38.51-11.13-34.82-18.62,26.54-17,67.11-17,67.11l-7.2,76.65-29-3.93s2.94-66,4.43-67.32V230.93c-.87-6.53.26-26.58,0-35.68-.22-7.82.23-23.27,18.23-36.39C45.7,146,63.71,130.18,92.57,147.78Z" transform="translate(0)" fill="#46766a"/>
  <path d="M92,12" transform="translate(0)" fill="#513d1d"/>
  <path d="M145.27,55.31" transform="translate(0)" fill="#513d1d"/>
  <path d="M92,17.46" transform="translate(0)" fill="#513d1d"/>
  <g>
    <path d="M27.44,44.93C59,33.16,58.29,30,56.44,21.4a33.65,33.65,0,0,1-.28-15.92C76.55,2,89,.39,96.42.39c4.47,0,7.18.56,8.54,1.75,1.9,1.67,1.06,4.64,0,8.4a39.21,39.21,0,0,0-1.73,8.82c-.12,2.31.55,4,2,5.09a7.43,7.43,0,0,0,4.42,1.23,13.22,13.22,0,0,0,2.78-.3c6.82.5,16.07,1.23,21.5,1.76-23.15.27-37.56,3.31-73.37,10.89C51,40.05,40.24,42.31,27.44,44.93Z" transform="translate(0)"/>
    <path d="M96.41.72c4.25,0,6.91.53,8.15,1.61,1.74,1.54.93,4.43-.1,8.1a39.41,39.41,0,0,0-1.74,8.87c-.12,2.42.59,4.22,2.11,5.35A8,8,0,0,0,109.61,26a14.07,14.07,0,0,0,2.83-.3c4.41.32,10.1.77,15,1.18-19.73.72-34.63,3.89-67.07,10.76L32,43.63c12.29-4.73,18.8-7.93,22.26-10.91,4.37-3.73,3.67-6.94,2.72-11.38A33.42,33.42,0,0,1,56.6,5.79c20.16-3.47,32.47-5,39.81-5m0-.72c-7.47,0-20,1.59-40.7,5.15-5.5,24.36,18.5,22.29-33,41.09C90.37,32.5,105,27.46,137.21,27.46c8.5,0-24.89-2.47-24.89-2.47a12.33,12.33,0,0,1-2.72.31c-2.62,0-6.14-.92-5.89-5.95C104.28,7.93,113.18,0,96.41,0Z" transform="translate(0)" fill="#fff"/>
  </g>
  <ellipse cx="97.88" cy="33.35" rx="10.39" ry="7.49"/>
  <path d="M140.59,115.24l-19.52-6c31.49-44.21,42-51.57,48.2-62.93.27-.49,21.27-21.89,24.67-17.23,7.35,10-10.87,11.33-11.31,17.23C181.29,66,164.3,88.5,140.59,115.24Z" transform="translate(0)" fill="#e7d0a5"/>
  <path d="M93.18,62.72c15.43,1.8,24.47,7,32.88,10.88l9.81,4.48c5.51,5.89,4.83-.83,9.4,10.46l-13.81,28.55L114,107.72h0c0,6.85,11.53,48.44,10.39,51.28l2.18,20.42c-1.33,3.3-6.3,5.49-11.65,5.13L12.2,175.61c-.74,6.32,38-83.58,10.52-62h0C15.07,115.86.86,113,2.36,107.15L12,69.71C23,55.29,41.55,63.13,47,62.71H93.17" transform="translate(0)" fill="#d9e021"/>
  <path d="M2.36,107.15c9.38-.18,11,6.6,20.36,6.42-2.88,49.66,46,35.83,51.92,38.4,17.32,7.51-7.83,10-14.3,7.51-13.38-5-13.38,3.12-32.2-.64C12.47,155.71-3.84,131.92,2.36,107.15Z" transform="translate(0)" fill="#e7d0a5"/>
  <line x1="87.49" y1="51.93" x2="99.06" y2="53.27" fill="none" stroke="#fff" stroke-miterlimit="10" stroke-width="2"/>
  <g>
    <path d="M72.41,112.06H38.82c-.67,0-.81-.09-.81-.58V88.18c0-.48.13-.58.8-.58h67.38c.67,0,.81.09.81.58v23.3c0,.48-.13.58-.8.58Z" transform="translate(0)" fill="#fefefe"/>
    <path d="M60.33,103.33a1.44,1.44,0,0,1-.2-1v-6c0-1.44-.32-1.65-2.26-1.8a9.16,9.16,0,0,0-2.52.06c-.38.16-.18.43-.18.63v8.1a1.37,1.37,0,0,1-.07.76,15.51,15.51,0,0,1-4.31,0c-.06-2.69,0-5.39,0-8.07,0-.27.14-.56-.2-.79A1.89,1.89,0,0,0,49,94.59a7.23,7.23,0,0,0-3.09.19,1.07,1.07,0,0,0-.1.72v8.59a20.65,20.65,0,0,1-4,.09c-.66,0-.48-.43-.48-.72V95.63c0-1.24-.3-1.54-2-1.93-.67-.08-1.12-.53-1-1a.72.72,0,0,1,.11-.24c.13-.34.48-.34.84-.35,1.47,0,2.94-.12,4.4-.12,5.71,0,11.42-.12,17.11.25,1.3.09,2.71.1,3.51,1.09a7.55,7.55,0,0,1,.47,3c.07,1.82-.09,3.65.08,5.48a6,6,0,0,1,0,1.38c-.27.9-.27.89-1.57.91a13.15,13.15,0,0,0-1.74,0,1.09,1.09,0,0,1-1.14-.61c.18-1.73,0-3.46.08-5.19v4.76A.36.36,0,0,1,60.33,103.33Z" transform="translate(0)" fill="#850040"/>
    <path d="M77.2,97.37a5,5,0,0,1,.87-2.93A5.71,5.71,0,0,1,82.8,92a35.84,35.84,0,0,1,4.39,0c.71,0,1-.12,1-.66V88.56c0-.24-.14-.54.36-.63.33.14.7,0,1,.09s.78,0,1.09.21c2,.17,2,.17,2,1.63v11.07a.73.73,0,0,0,.05.25.15.15,0,0,1,0,.12c.09,0,0-.09,0-.13a.17.17,0,0,1,.13-.13c0,.73.74,1.35,1.75,1.39h.25c1.14.06,1,.6,1,1.15s-.62.58-1.22.61c-3.65.12-7.3.06-10.95,0-4-.05-6.37-1.67-6.49-5A16.12,16.12,0,0,0,77.2,97.37Z" transform="translate(0)" fill="#840040"/>
    <path d="M99.14,89.18c1.5.09,1.67.19,1.91,1.2.39,1.68.39,1.68,2.77,1.8.73,0,1.34.4,1.36.92a.73.73,0,0,1-.11.4c-.08.18-.25.18-.43.21-.41.07-.82.14-1.22.24-1.09.13-1.82.87-1.64,1.66a19.87,19.87,0,0,1-.07,2c-.46,0-.29-.26-.29-.41v1.87c0,.15.23.05.1.07s-.07,0-.07,0V98.06c0-.14,0-.3.3-.26.05,1.07.13,2.16.15,3.23-.1.65.56,1.24,1.47,1.31h0c.83.11,1.65.27,2.48.36.61.07.8.29.77.72s-.2.68-.82.72a48.18,48.18,0,0,1-5.83,0,2.72,2.72,0,0,1-2.64-1.51c.24-.64-.16-1.25-.15-1.88,0-2.21-.12-4.43.06-6.64.12-1.57,0-3.14.22-4.71C97.93,89,98.58,89.28,99.14,89.18Z" transform="translate(0)" fill="#850040"/>
    <path d="M69.33,94.86a3.26,3.26,0,0,0-2.21-1.11c-.92-.14-.66-.62-.69-1s.39-.53.88-.54c2.07-.09,4.15-.08,6.22,0,.25,0,.54,0,.55.28a.32.32,0,0,0-.12.32v10.72a.49.49,0,0,0,.12.4c0,.22-.21.27-.46.27H69.83c-.24,0-.45-.05-.46-.27a.71.71,0,0,0,.09-.55V95.45C69.46,95.16,69.56,95,69.33,94.86Z" transform="translate(0)" fill="#840040"/>
    <path d="M55.87,108.7c0-1.29.29-1.57,1.68-1.59,1.6,0,2,.27,2,1.44V109c.08.76-.71,1.42-1.76,1.48a2.48,2.48,0,0,1-1.24-.25C56,110,55.87,109.75,55.87,108.7Z" transform="translate(0)" fill="#908871"/>
    <path d="M51.52,111c0-.32.8-.81-.33-.92a5.37,5.37,0,0,1-1.69,0,.47.47,0,0,1-.51-.27,6,6,0,0,1,0-2.16.43.43,0,0,1,.44-.4h.11a5.31,5.31,0,0,1,1.76,0c1,.09,1,.09,1,1v2.31c.07.4-.27.79-.81.91a.56.56,0,0,1-.26-.14.18.18,0,0,1,0-.15A.45.45,0,0,0,51.52,111Z" transform="translate(0)" fill="#8e8770"/>
    <path d="M66.38,107.37a2.54,2.54,0,0,1,2.11-.09c.39.17.6,0,.88-.06,1.47-.34,2.15,0,2.15,1.13v1.51c0,.17,0,.35-.33.35s-.34-.16-.34-.34v-1.69c0-.56-.31-.68-1-.66s-1.1,0-1,.63a9.49,9.49,0,0,1,0,1.69c0,.16,0,.36-.31.35s-.29-.2-.3-.37a13.86,13.86,0,0,1,0-1.44c.08-.64-.23-.93-1.15-.83a3.25,3.25,0,0,1-.48,0C66.54,107.49,66.4,107.47,66.38,107.37Z" transform="translate(0)" fill="#262101"/>
    <path d="M90.13,108.13v1.73c0,.27,0,.45-.52.45s-.45-.19-.45-.43v-3.67c0-.25.07-.4.47-.4s.5.13.5.39Z" transform="translate(0)" fill="#8d856d"/>
    <path d="M106,110.21h-.76a5.64,5.64,0,0,1-1.81,0c-.36,0-.46-.19-.49-.36a3.83,3.83,0,0,1,.09-2.21,6.86,6.86,0,0,1,.14,1.82,6.5,6.5,0,0,0-.14-1.82c.23-.61.92-.54,1.54-.53a8.78,8.78,0,0,1,1,.12c.23-.33,0-.72.11-1s.07-.35.39-.16A12.11,12.11,0,0,1,106,110.21Z" transform="translate(0)" fill="#8b836b"/>
    <path d="M50.55,95.16c0-.08,0-.3.24-.1a1,1,0,0,1,.16.72c0,2.68-.1,5.36.07,8,0,.12-.11.15-.24.17-.3-.22-.15-.49-.15-.72V96.29C50.62,95.93,50.58,95.53,50.55,95.16Z" transform="translate(0)" fill="#800038"/>
    <path d="M61,110.21c-.51-.47-.18-1-.23-1.52s-.31-1.16.12-1.33a5.58,5.58,0,0,1,2.42-.24c.44,0,.83.15.83.55-.14.85.22,1.71-.21,2.54-.49,0-.37-.25-.38-.44v-1.69c0-.59-.58-.53-1.09-.51s-1-.09-1.09.53.28,1.44-.2,2.12c-.25-.79.06-1.61-.11-2.16A9.62,9.62,0,0,1,61,110.21Z" transform="translate(0)" fill="#8d856e"/>
    <path d="M79.72,107.86c-.09-.22-1.33-.3-.12-.68.32-.1-.28-.76.44-.72.55,0,.09.53.31.76s.35.06.53.09.66-.12.85.17a.5.5,0,0,1-.11.12c-.39.19-1.16-.19-1.27.24a4.83,4.83,0,0,0,0,1.88c0,.35.56.2.89.23.18,0,.43,0,.44.16s-.2.19-.35.2c-.64,0-1.4.2-1.62-.5A3.07,3.07,0,0,0,79.72,107.86Z" transform="translate(0)" fill="#262102"/>
    <path d="M77.4,110.07a2.65,2.65,0,0,1-2.18.16c-.69-.19-.5-.72-.52-1.11v-.56c0-1.32.63-1.67,2.42-1.35l.48.06a.19.19,0,0,1,.21,0h0c0,.28-.33.35-.65.4s-1.1-.14-1.34.25a1.71,1.71,0,0,0,0,1.51c.12.35.64.25,1,.35C76.93,110,77.38,109.76,77.4,110.07Z" transform="translate(0)" fill="#2f290c"/>
    <path d="M97.57,89.32c0,3.6-.33,7.21-.2,10.77a5.35,5.35,0,0,0,.16,1.61c.1.28.23.66-.22.92a.9.9,0,0,1-.15-.82,34.69,34.69,0,0,1-.06-4.33,36.73,36.73,0,0,1,.07-4.33h0a13.17,13.17,0,0,0,0-3.67c0-.13,0-.25.17-.3A.23.23,0,0,1,97.57,89.32Z" transform="translate(0)" fill="#82003c"/>
    <path d="M92.68,101.19c-.34-.23-.2-.53-.2-.8V89.65c0-1.13,0-1.13-1.53-1.32a.7.7,0,0,1-.43-.14.21.21,0,0,1,.23,0h0a3.06,3.06,0,0,1,1.94.37,1.39,1.39,0,0,1,.07.72v11.64A.33.33,0,0,1,92.68,101.19Z" transform="translate(0)" fill="#82003a"/>
    <path d="M83.73,109.22v1.55c0,.45-.58.8-1.2.77a1.53,1.53,0,0,1-.34-.05c-.13,0-.26,0-.26-.17s.12-.16.25-.16c1,0,1-.47,1-1v-2.5c0-.18-.07-.43.31-.44s.3.25.31.43v1.55Z" transform="translate(0)" fill="#837a60"/>
    <path d="M99.34,107.24c1.74-.37,2.32-.08,2.33,1.17v1.45c0,.18,0,.4-.35.41s-.37-.21-.37-.39a9.24,9.24,0,0,1,0-1.44c.09-.67-.23-1-1.19-.87a5.15,5.15,0,0,1-.59,0c-.08,0-.2.05-.22,0C98.86,107.28,99.26,107.37,99.34,107.24Z" transform="translate(0)" fill="#888068"/>
    <path d="M92.68,101q0-6.24,0-12.49a3.93,3.93,0,0,1,.16,1.88V101h-.06S92.73,101.1,92.68,101Z" transform="translate(0)" fill="#840040"/>
    <path d="M64.67,101.75V97.11a10.06,10.06,0,0,0-.52-3.67l.15-.17a2,2,0,0,1,.59,1.51c.06,2.64.1,5.28.14,7.93a.5.5,0,0,1-.13.47l-.1-.09A4.43,4.43,0,0,0,64.67,101.75Z" transform="translate(0)" fill="#81043d"/>
    <path d="M54.62,108.74v1.2c0,.19-.12.32-.42.3s-.31-.15-.31-.31v-2.4c0-.15.07-.28.32-.3a.35.35,0,0,1,.41.28v0C54.63,107.94,54.62,108.34,54.62,108.74Z" transform="translate(0)" fill="#9b9481"/>
    <path d="M42.14,107.67c-.48.63-.11,1.32-.23,2,0,.21.17.56-.3.56s-.35-.37-.36-.59v-2c0-.24,0-.51.52-.37C41.82,107.41,42.22,107.41,42.14,107.67Z" transform="translate(0)" fill="#857d64"/>
    <path d="M74.07,103.86c-.36-.22-.2-.53-.21-.79v-9.6a1.88,1.88,0,0,0-.09-.91c-.14-.28.15-.15.31-.14a8.3,8.3,0,0,1,.07,2v8.65C74.16,103.36,74.07,103.61,74.07,103.86Z" transform="translate(0)" fill="#7d0038"/>
    <path d="M44.27,107.77a.7.7,0,0,1,.75-.53.53.53,0,0,1,.25,0,5,5,0,0,0,1.3,0,.28.28,0,0,1,.24,0c.83.22.77.72.81,1.23,0,.25-.26.35-.6.31a7,7,0,0,0-2.15,0h0a.46.46,0,0,0-.18.17c-.17.21.23.62-.45.65A5.11,5.11,0,0,1,44.27,107.77Z" transform="translate(0)" fill="#8f866f"/>
    <path d="M99.34,107.24c.05.13-.43.12-.16.31-.39.13-.4.38-.39.65v1.66c0,.17,0,.35-.34.33s-.28-.17-.28-.31c0-.79-.06-1.59,0-2.38C98.23,106.94,99,107.41,99.34,107.24Z" transform="translate(0)" fill="#8d846d"/>
    <path d="M91.5,106c.42-.25.72-.23.73.21v3.76c0,.39-.25.5-.72.26a.66.66,0,0,0,.17-.32v-3.72A.62.62,0,0,0,91.5,106Z" transform="translate(0)" fill="#8d856e"/>
    <path d="M45.74,104c-.28-.3,0-.63,0-.94V95.41c0-.25-.13-.52.2-.72v9C45.89,103.81,45.93,103.93,45.74,104Z" transform="translate(0)" fill="#7c0432"/>
    <path d="M55.07,104.05V95.18c0-.22-.13-.48.28-.61-.17,1.54,0,3.09-.07,4.63v4.22C55.27,103.62,55.43,103.86,55.07,104.05Z" transform="translate(0)" fill="#7b002f"/>
    <path d="M66.38,107.37l.25.17c-.37.12-.36.35-.35.59v1.73c0,.16,0,.35-.32.34s-.32-.12-.32-.28v-2.47C65.68,107.06,66.07,107.18,66.38,107.37Z" transform="translate(0)" fill="#262000"/>
    <path d="M69.33,94.86c.32.14.23.37.23.56v7.93c0,.18.05.38-.2.52Z" transform="translate(0)" fill="#750027"/>
    <path d="M73.56,108.79V110c0,.12,0,.23-.25.25s-.38-.06-.38-.23v-2.52a.27.27,0,0,1,.27-.25h.1c.27,0,.28.16.28.3v1.26Z" transform="translate(0)" fill="#191201"/>
    <path d="M97.17,93.13v8.65a26.54,26.54,0,0,1-.1-5A19.26,19.26,0,0,1,97.17,93.13Z" transform="translate(0)" fill="#850040"/>
    <path d="M106,110.21V106a.29.29,0,0,1,.32-.05l.07.05v3.6C106.36,109.86,106.61,110.19,106,110.21Z" transform="translate(0)" fill="#82795f"/>
    <path d="M86.41,109.23l.21.23c.08.14.35.07.43.21a3.09,3.09,0,0,1-.59,1.54.41.41,0,0,1-.5.29l-.06,0c-.32-.1-.09-.3,0-.41a1.64,1.64,0,0,0-.12-2l.09-.06A.7.7,0,0,1,86.41,109.23Z" transform="translate(0)" fill="#918974"/>
    <path d="M87.07,109.67c-.2,0-.38,0-.43-.21a9.18,9.18,0,0,0,1-1.87c.12-.19.2-.46.59-.34s.1.33,0,.48A5,5,0,0,1,87.07,109.67Z" transform="translate(0)" fill="#938c76"/>
    <path d="M60.33,103.33V96h.22v6.81c0,.22.1.48-.17.67a.06.06,0,0,1-.06-.08h0Z" transform="translate(0)" fill="#800438"/>
    <path d="M96.18,110.12a2.79,2.79,0,0,1-2.74-.17,4.59,4.59,0,0,0,.17-.72c.05-.22.08-.48.55-.45.44,1,.44,1,1.85,1C96.17,109.86,96.33,109.94,96.18,110.12Z" transform="translate(0)" fill="#928a74"/>
    <path d="M44.9,109.8c.82.32,1.76,0,2.63.22a3.26,3.26,0,0,1-3.08-.06.33.33,0,0,1,.44-.17Z" transform="translate(0)" fill="#898069"/>
    <path d="M61.52,104.05c0-.16.1-.23.38-.21h1.57c.8.08,1.14-.19,1.21-.72a.1.1,0,0,1,.11,0h.07c.1,1,.1,1-1.16,1A8.79,8.79,0,0,1,61.52,104.05Z" transform="translate(0)" fill="#81013b"/>
    <path d="M77.13,107.57a.78.78,0,0,0,.66-.31,1.34,1.34,0,0,1,0-1,.27.27,0,0,1,.3.06h0c.09,1.25-.09,2.5.09,3.76-.26.36-.51.09-.76,0l-.39-.13c-.09-.22.21-.26.34-.38a1.85,1.85,0,0,0,0-1.67A.6.6,0,0,1,77.13,107.57Z" transform="translate(0)" fill="#352f12"/>
    <path d="M85.78,109.12c-.3-.51-.61-1-.9-1.54-.06-.11-.24-.27.06-.35a.46.46,0,0,1,.52.14h0a3,3,0,0,1,.53,1.11c-.24.16.1.4-.16.55Z" transform="translate(0)" fill="#918a73"/>
    <path d="M94.24,108.81c-.48,0-.41.28-.41.5a.54.54,0,0,1-.39.63c-.23-.56-.41-1.13.59-1.44a.39.39,0,0,1,.31,0,10.09,10.09,0,0,0,1.23,0c.23,0,.54,0,.34.32A2,2,0,0,1,94.24,108.81Z" transform="translate(0)" fill="#837a60"/>
    <path d="M101.7,97.8c-.47.48,0,1-.38,1.54V95.12c.38.83-.11,1.71.37,2.53Z" transform="translate(0)" fill="#82003c"/>
    <path d="M96.18,110.12l-.22-.34v-.09a1.22,1.22,0,0,1,.13-.35,5.73,5.73,0,0,0,.06-1.44.27.27,0,0,0-.2-.23l-.35-.16a.23.23,0,0,1-.11-.17.24.24,0,0,1,.14-.15,1.73,1.73,0,0,1,.73.19l.24.25a8.29,8.29,0,0,1,0,2.57A.39.39,0,0,1,96.18,110.12Z" transform="translate(0)" fill="#857c64"/>
    <path d="M63.88,110.21c.11-.85-.24-1.71.21-2.54a8.65,8.65,0,0,1,.09,2.31.23.23,0,0,1-.24.22Z" transform="translate(0)" fill="#7e755b"/>
    <path d="M91.5,106h.18a17,17,0,0,1,0,4.09l-.2.14C91.41,108.81,91.43,107.41,91.5,106Z" transform="translate(0)" fill="#7d755b"/>
    <path d="M42.14,107.67c-.11-.14-.41-.17-.39-.38.5.11.92-.17,1.4-.16.26,0,.56,0,.55.25s-.31.17-.52.19Z" transform="translate(0)" fill="#968f7a"/>
    <path d="M78.16,110.08a5.21,5.21,0,0,1-.16-2.2v-1.61a.13.13,0,0,1,.14,0h0Q78.16,108.17,78.16,110.08Z" transform="translate(0)" fill="#2d2708"/>
    <path d="M51.52,111l-.19.2c-.64.14-1.31,0-2,.11-.13,0,.08.1,0,0s0-.05.06-.05a9,9,0,0,1,1.89.05l.2.12a8.93,8.93,0,0,1-1.93.06c-.24,0-.59,0-.57-.25s.34-.17.55-.17A9.68,9.68,0,0,0,51.52,111Z" transform="translate(0)" fill="#918973"/>
    <path d="M97.19,89.46a7,7,0,0,1,0,3.67A25.21,25.21,0,0,1,97.19,89.46Z" transform="translate(0)" fill="#850040"/>
    <path d="M44.9,109.8l-.45.16a2.26,2.26,0,0,1-.17-2.16c.16.62-.22,1.28.22,1.88.25-.26,0-.58.18-.84h.22A2.1,2.1,0,0,0,44.9,109.8Z" transform="translate(0)" fill="#918973"/>
    <path d="M77.2,97.37a1.82,1.82,0,0,1,0,1.84A3,3,0,0,1,77.2,97.37Z" transform="translate(0)" fill="#7e0236"/>
    <path d="M61,110.21v-2.35h.2v2.35Z" transform="translate(0)" fill="#81795f"/>
    <path d="M96.59,110.22v-2.57A4.61,4.61,0,0,1,96.59,110.22Z" transform="translate(0)" fill="#98917c"/>
    <path d="M97.57,89.32l-.2-.16a3.08,3.08,0,0,1,1.77,0C98.66,89.46,98.07,89.26,97.57,89.32Z" transform="translate(0)" fill="#7a0030"/>
    <path d="M96,107.69l.23.13c.15.78.15.79-.91.78a4.48,4.48,0,0,1-1.07,0h-.15a1.93,1.93,0,0,1,1-.09C95.89,108.5,96.22,108.29,96,107.69Z" transform="translate(0)" fill="#98917c"/>
    <path d="M54.26,106.55c-.29,0-.36-.13-.36-.28s.09-.32.39-.31.33.1.34.23h0C54.61,106.42,54.51,106.55,54.26,106.55Z" transform="translate(0)" fill="#9f9885"/>
    <path d="M79.72,107.86a1.88,1.88,0,0,1,0,1.95A6.14,6.14,0,0,1,79.72,107.86Z" transform="translate(0)" fill="#160f00"/>
    <path d="M49,107.64v2.16A3.48,3.48,0,0,1,49,107.64Z" transform="translate(0)" fill="#938c76"/>
    <path d="M96.38,107.41l-.77-.14a2.57,2.57,0,0,1-1.81,0A3.24,3.24,0,0,1,96.38,107.41Z" transform="translate(0)" fill="#8f8771"/>
    <path d="M83.45,106c.18,0,.34.09.35.22h0c0,.17-.06.33-.37.33s-.34-.11-.34-.27S83.15,106,83.45,106Z" transform="translate(0)" fill="#9d9682"/>
    <path d="M93.8,107.24h1.81v.17c-.5.18-1.07-.05-1.57.14-.18,0-.41.08-.5-.06S93.66,107.28,93.8,107.24Z" transform="translate(0)" fill="#837b62"/>
    <path d="M106.39,106H106c-.59.34.06.89-.39,1.25v-1.05C105.61,105.86,106,105.74,106.39,106Z" transform="translate(0)" fill="#edece8"/>
    <path d="M73.56,106.25c0,.14,0,.28-.29.28s-.36-.14-.35-.32.09-.23.26-.25h.09C73.53,106,73.56,106.1,73.56,106.25Z" transform="translate(0)" fill="#0c0401"/>
    <path d="M90.77,88.18h-.24c-.33,0-.71.09-1-.14q-.1,0-.07-.09c0-.09,0,0,.07,0C90,87.95,90.47,87.86,90.77,88.18Z" transform="translate(0)" fill="#7d0534"/>
    <path d="M44.89,108.81a3.56,3.56,0,0,1,2.15,0Z" transform="translate(0)" fill="#877f66"/>
    <path d="M46.82,107.26h-.2a3.44,3.44,0,0,1-1.31,0h-.24A2.58,2.58,0,0,1,46.82,107.26Z" transform="translate(0)" fill="#918973"/>
    <path d="M85.85,109.07c0-.19-.12-.4.16-.55,0,.28.45.42.39.72Z" transform="translate(0)" fill="#837b63"/>
    <path d="M103.43,110.23h1.81A2.79,2.79,0,0,1,103.43,110.23Z" transform="translate(0)" fill="#97907b"/>
    <path d="M51.3,107.26H49.54A2.45,2.45,0,0,1,51.3,107.26Z" transform="translate(0)" fill="#938c76"/>
    <path d="M94.07,107.54c.48-.27,1-.07,1.57-.14v.14Z" transform="translate(0)" fill="#8f8771"/>
    <path d="M49.5,110.1h1.69A2.61,2.61,0,0,1,49.5,110.1Z" transform="translate(0)" fill="#908771"/>
    <path d="M77.79,106.27v1h-.2v-1a.14.14,0,0,1,.16,0h0Z" transform="translate(0)" fill="#2c2607"/>
    <path d="M77.79,106.27h-.18c-.06-.17,0-.3.27-.31s.33.14.28.31Z" transform="translate(0)" fill="#251e02"/>
    <path d="M89.54,87.95v.12a1.55,1.55,0,0,1-1-.13A2,2,0,0,1,89.54,87.95Z" transform="translate(0)" fill="#740024"/>
    <path d="M64.82,103.14h-.15V101.7C65.07,102.19,64.8,102.67,64.82,103.14Z" transform="translate(0)" fill="#77002a"/>
    <path d="M88.14,98.22v3c0,.56-.33.77-1,.78H85.07c-1.52,0-2.83-.76-3-1.85a7.06,7.06,0,0,1,0-4.19c.35-1.21,1-1.61,2.72-1.74a15.06,15.06,0,0,1,2,0c1.32.06,1.4.12,1.41,1.1S88.14,97.25,88.14,98.22Z" transform="translate(0)" fill="#fefefe"/>
    <path d="M86.07,104h5.45a1.32,1.32,0,0,1,.56.1h-6Z" transform="translate(0)" fill="#82003c"/>
    <path d="M81.63,96.92a.45.45,0,0,1,0-.56C81.82,96.56,81.63,96.76,81.63,96.92Z" transform="translate(0)" fill="#7f0034"/>
    <path d="M92.68,101h.17v.58c-.27-.14-.12-.31-.17-.45Z" transform="translate(0)" fill="#7e0037"/>
    <path d="M56.61,108.78v-.55c0-.45.14-.72.85-.72s1.37-.06,1.43.63a5.3,5.3,0,0,1,0,1.05,1.29,1.29,0,0,1-1.47.8,1.64,1.64,0,0,1-.53-.14C56.35,109.58,56.72,109.1,56.61,108.78Z" transform="translate(0)" fill="#fdfdfc"/>
    <path d="M57.07,107.35a2.4,2.4,0,0,1,1.29,0Z" transform="translate(0)" fill="#80765c"/>
    <path d="M49.56,107.68c.72-.25,1.62-.28,2,.16a1.33,1.33,0,0,1,0,1.67c-.38.45-1.3.31-2,.13A5.65,5.65,0,0,1,49.56,107.68Z" transform="translate(0)" fill="#f9f9f8"/>
    <path d="M49.56,107.68v2A2.45,2.45,0,0,1,49.56,107.68Z" transform="translate(0)" fill="#938c76"/>
    <path d="M51.35,111.35H49.44v-.13h1.91A.48.48,0,0,1,51.35,111.35Z" transform="translate(0)" fill="#80775d"/>
    <path d="M71.29,107.86v2h-.1v-2Z" transform="translate(0)" fill="#201900"/>
    <path d="M105.76,108.81v.28c0,.52-.58.95-1.3.95a1.71,1.71,0,0,1-.7-.14.37.37,0,0,1-.26-.35,11,11,0,0,1,0-1.55c0-.51.63-.45,1.11-.45s1,0,1.1.48v.78Z" transform="translate(0)" fill="#edece8"/>
    <path d="M103.07,107.66c.46.64.11,1.32,0,2Z" transform="translate(0)" fill="#847b60"/>
    <path d="M104.07,107.36a1,1,0,0,1,.74-.06C104.58,107.51,104.31,107.32,104.07,107.36Z" transform="translate(0)" fill="#857b63"/>
    <path d="M62.17,107.32a1.85,1.85,0,0,1,1,0A1.8,1.8,0,0,1,62.17,107.32Z" transform="translate(0)" fill="#847c62"/>
    <path d="M81.45,107.46a1.8,1.8,0,0,1-1,0A1.66,1.66,0,0,1,81.45,107.46Z" transform="translate(0)" fill="#241e03"/>
    <path d="M77.13,107.57l.37.13a2.89,2.89,0,0,1,.05,2.1c-.18.06-.42,0-.55.15h-.67c-.77.05-1.08-.2-1-.72a2.08,2.08,0,0,0,0-.35C75.34,107.34,75.33,107.57,77.13,107.57Z" transform="translate(0)" fill="#f6f6f5"/>
    <path d="M75.07,109.48V108h.09v1.51Z" transform="translate(0)" fill="#1a1401"/>
    <path d="M75.79,107.33a1.35,1.35,0,0,1,.86,0A1.35,1.35,0,0,1,75.79,107.33Z" transform="translate(0)" fill="#211a00"/>
    <path d="M75.86,110.1h.81A.88.88,0,0,1,75.86,110.1Z" transform="translate(0)" fill="#2b2405"/>
    <path d="M101.14,109.92v-2.06h.09v2.08Z" transform="translate(0)" fill="#827b62"/>
    <path d="M44.93,107.69a2.94,2.94,0,0,1,1.51-.14c.51,0,.59.28.6.6s-.3.35-.64.35H44.94a.47.47,0,0,1,0-.81Z" transform="translate(0)" fill="#f1f0ee"/>
    <path d="M45.31,107.27h1.31A1.59,1.59,0,0,1,45.31,107.27Z" transform="translate(0)" fill="#837a60"/>
    <path d="M44.68,108.86c-.06.28.16.59-.18.84C44.56,109.37,44.34,109.06,44.68,108.86Z" transform="translate(0)" fill="#857c62"/>
    <path d="M44.93,107.69a.87.87,0,0,0,0,.82h-.25a.64.64,0,0,1,0-.72Z" transform="translate(0)" fill="#918973"/>
    <path d="M44.69,107.86v.72a.38.38,0,0,1,0-.66h0Z" transform="translate(0)" fill="#847c63"/>
    <path d="M91.7,110.08V106c.29.15.22.37.2.58C91.79,107.73,92.13,108.91,91.7,110.08Z" transform="translate(0)" fill="#8f8770"/>
    <path d="M94.24,108.81H96l.08.05a.79.79,0,0,1-.15.88h0a1.6,1.6,0,0,1-.72.16C93.94,110,93.67,109.68,94.24,108.81Z" transform="translate(0)" fill="#fbfbfa"/>
    <path d="M77.56,109.79q0-1-.05-2.1A1.93,1.93,0,0,1,77.56,109.79Z" transform="translate(0)" fill="#2c2607"/>
    <path d="M94.23,108.55a8.51,8.51,0,0,1,1,0c.78.07,1.14-.14,1-.72a1.79,1.79,0,0,1,0,1.71c-.27-.2.06-.51-.24-.72h0C95.49,108.46,94.76,108.86,94.23,108.55Z" transform="translate(0)" fill="#928a74"/>
    <path d="M96,108.81c.38.19.15.48.24.72s-.06.22-.25.25A1.79,1.79,0,0,0,96,108.81Z" transform="translate(0)" fill="#98917c"/>
  </g>
</svg>
