<svg id="Layer_1" data-name="Layer 1" xmlns="http://www.w3.org/2000/svg" width="683.21" height="384.2" viewBox="0 0 683.21 384.2">
  <title>20161013_104329sjarllogo-md</title>
  <g>
    <path d="M342.53,385q-168.71,0-337.42.08c-3.2,0-4.22-.33-4.21-4Q1.09,192.9.91,4.69C.91,1.44,1.81.93,4.8.93Q342.47,1,680.15.89c3.72,0,3.93,1.14,3.93,4.25q-.13,188,0,375.91c0,3.53-.85,4-4.16,4Q511.24,384.93,342.53,385Z" transform="translate(-0.89 -0.89)" fill="#fefefe"/>
    <path d="M398,166c0,4.74,0,9.48,0,14.22,0,1.56.59,4-1.54,4.15-2.54.13-1.5-2.45-1.54-3.87-.13-4.65-.12-9.31,0-14,0-1.66-.84-3.95,1.81-4.52,2.44-.52,4.55,0,6,2.38A136.74,136.74,0,0,0,413.1,180c0-4.84,0-9.68,0-14.52,0-1.64-.24-3.81,2.11-3.75,2.09.05,1.6,2.16,1.62,3.55q.09,7.23,0,14.47c0,1.78.32,3.9-2.25,4.31-2.41.39-4.4.12-5.86-2.47-3-5.41-6.46-10.61-9.73-15.9Z" transform="translate(-0.89 -0.89)" fill="#a1a2a4"/>
    <path d="M361.9,208.24c0,5,0,10,0,15,0,1.46.23,3.42-1.85,3.43s-1.86-1.94-1.87-3.4c0-5,0-10,0-15,0-1.6-.4-3.65,1.88-4s4.56-.61,6.07,2c3.15,5.55,6.18,11.21,11,17.4,0-6.39,0-11.47,0-16.55,0-1.28-.26-3.08,1.61-3.06s1.62,1.82,1.62,3.09c0,5,0,10-.14,15,0,1.51.74,3.69-1.71,4-2.25.32-4.54.63-6.07-2.07-3.08-5.45-6.44-10.75-9.68-16.11Z" transform="translate(-0.89 -0.89)" fill="#727275"/>
    <path d="M380,172.91c-.07,12.56,1.36,11.27-11.07,11.25s-11.79,1.77-11.75-11.75c0-10.55,0-10.55,10.55-10.55h1C381.38,161.93,379.91,160.55,380,172.91Z" transform="translate(-0.89 -0.89)" fill="#a1a2a4"/>
    <path d="M227.87,185a3,3,0,0,1-2-3.07c0-5.65.07-11.31,0-17,0-2.47,1.2-3.11,3.4-3.07,4.32.08,8.65,0,13,0,2.22,0,5.36-.69,5.56,2.58s1.93,7.4-2,10c-.63.42-1.68.16-2,1.33,1.08,1.55,2.2,3.18,3.35,4.8.81,1.13,1.66,2.49.43,3.55-1.51,1.3-2.3-.44-3.11-1.36a13.46,13.46,0,0,1-2-2.84c-2.11-4.3-5.45-6-10.14-5.09-3-1.84-1.8-3.07.65-3.89,2.06-.69,4.28-.29,6.42-.52,1.45-.16,3.39-.14,3.51-2,.14-2.18-1.92-1.84-3.31-2-7.94-.76-8.38-.33-9.67,7.76a54.16,54.16,0,0,0-.35,6.43C229.42,182.27,229.89,184.08,227.87,185Z" transform="translate(-0.89 -0.89)" fill="#a1a2a4"/>
    <path d="M312.51,161.87c2.33,0,4.67-.05,7,0,1.24,0,3.19-.43,3.21,1.38,0,2.26-2.13,1.57-3.47,1.61-3.66.1-7.34.22-11,0-3.39-.22-4.17,1.23-4.22,4.37-.19,12.46.76,13.36,13.21,11.81,1.83-.23,2.81-.8,2.68-2.7-.09-1.41.44-3.1-1.78-3.52-1.51-.28-3.87.06-3.57-2.35.18-1.46,2.13-1.45,3.42-1.27,1.77.25,4.54-1.19,4.94,1.78a39.13,39.13,0,0,1-.12,9c-.17,1.8-1.86,2.19-3.44,2.2-4.83,0-9.66,0-14.49,0-2.7,0-4-1.3-4-4,0-4.5.14-9,0-13.49-.15-3.77,1.55-5.11,5.11-4.86C308.17,162,310.34,161.87,312.51,161.87Z" transform="translate(-0.89 -0.89)" fill="#a0a1a4"/>
    <path d="M394.84,215c0-10.92,0-11,10.89-10.89,3.71,0,8.34-1.18,10.24,3.16,2.24,5.11,1.81,10.7.12,16a4,4,0,0,1-2.42,2.33c-5.72,1.36-11.56.64-17.36.54-1.63,0-1.43-1.56-1.44-2.68C394.82,220.63,394.85,217.8,394.84,215Z" transform="translate(-0.89 -0.89)" fill="#707174"/>
    <path d="M511,195c1.73-.16,2.41,1.5,3.68,2.13,3.86,5.3,4,8.89.5,14l-.11.13c-1,.58-1.76,1.7-3.06,1.85l-1.06.85a2.59,2.59,0,0,1-1.24.78,2.43,2.43,0,0,1-2-.63c-1.34-2.4,0-4.66.88-6.62s.79-3.4-.55-4.62c-.16,1.1.39,2.54.07,4s0,3.58-2.58,3.41c-2-.28-2.41,2.32-4.24,2.36a2.86,2.86,0,0,1-2.27-1.74c-2.61-6.55-.85-11.91,4.43-16.32C506.07,193,508.53,194.16,511,195Z" transform="translate(-0.89 -0.89)" fill="#6db5cc"/>
    <path d="M196.93,214.28l.73,1.8c1.52,2.59,1,5.24.27,7.91a4.47,4.47,0,0,1-4.06,2.35c-5-.08-10,0-14.94-.05-1.22,0-3.1.38-2.95-1.62.14-1.77,1.93-1.47,3.2-1.48,3.82,0,7.64-.09,11.45,0,2.39.07,3.72-.49,3.64-3.29-.08-2.6-1.42-2.94-3.52-2.89-3.48.08-7,.08-10.46,0-1.93,0-4.22.27-4.4-2.7a16.49,16.49,0,0,1,0-7.61l.08-1.77a4.94,4.94,0,0,1,1.63-.78c6.32,0,12.66-.63,19,.33a1.32,1.32,0,0,1,.64,1.48c-3.53,2.12-7.41.62-11.11,1-1.8.19-3.63-.07-5.44.17a2.93,2.93,0,0,0-1.35.88,10,10,0,0,0,0,5c4.31,1.16,8.7.19,13,.56C193.88,213.67,195.6,212.83,196.93,214.28Z" transform="translate(-0.89 -0.89)" fill="#747477"/>
    <path d="M330,217c-1.42,2.61-2.81,5.24-4.27,7.83-.55,1-1.06,2.35-2.55,1.73s-1.23-1.82-.66-3c3-5.95,5.72-12,9-17.78,1.67-2.93,4.89-2.81,6.49-.05,3.42,5.88,6.22,12.11,9.28,18.2a1.76,1.76,0,0,1-.6,2.58,1.59,1.59,0,0,1-2.41-1c-1.39-5.21-5.34-5.06-9.46-4.84-1.79.09-3.91.3-3.75-2.59a2.37,2.37,0,0,1,1.56-1.08c5.65-1.27,5.65-1.27,2.11-7.26C333,212.23,332.66,215.51,330,217Z" transform="translate(-0.89 -0.89)" fill="#737376"/>
    <path d="M500,211c.24,1.05,1.13,1,1.93,1.15a2.56,2.56,0,0,1,1.66.57,9.55,9.55,0,0,0,1.58.85c1.61.2,3.06,1.49,4.8.64l1-.3,0,1.1c-.65,3.2-3.74.33-5,2l.06,2.94-.44.52a5.32,5.32,0,0,1-2.6.64,18.48,18.48,0,0,1-2,0,5.24,5.24,0,0,1-2.61-.64l-.43-.53c1-1.3,1.67-2.94,3.85-2.14.77.28,1.79.19,1.82-.93,0-.44-.67-1.14-1.17-1.29a2.93,2.93,0,0,1-2.5-2c-1.37-3-1.71,1.23-3,1.46-.73-2.22-2.11-4.11-2.83-6.44-.77-2.52-1.08-3.39,1.59-4.19,1.25-.37,1.31-1.76,1.11-3a2,2,0,0,0-1.67-1.61c-1.37-.31-1.59,1-2,1.77-1.45,3.16-3.54,3.41-6.83,2.69-3.58-.78-7.46,0-11-1.73-1.87-.94-3.37-2-2.53-4.44l.62-.31c1.71.16,2.79,1.53,4.24,2.18,4.41,1.92,8.56,1.83,12.32-1.49a11.55,11.55,0,0,0,2.72-7.8,10.89,10.89,0,0,1,.08-1.35,4.49,4.49,0,0,1,.64-1.94l.54-.43L497,189a1.46,1.46,0,0,1,0,2c-1.69,4.24,2.61,3.54,4.19,5.07C498.69,200.88,497,205.75,500,211Z" transform="translate(-0.89 -0.89)" fill="#fbfcfc"/>
    <path d="M479.15,139c2.95-.53,5.89-1.58,8.85,0,4.91,4.58,5.1,6.27,1.13,10-2.63,4.42-6.37,3-10,1.92C475.37,147.52,475.39,143.59,479.15,139Z" transform="translate(-0.89 -0.89)" fill="#b6dbe5"/>
    <path d="M466.84,184l-1.88,1c-3.4-.53-3-2.58-2-4.9.41-1.26,2.24-2.36.41-3.85-.61-.2-1.21-.36-1.81-.56-2.77-2-5.7.47-8.51-.3a1.28,1.28,0,0,1-.38-1.23,3.83,3.83,0,0,1,1.73-2.14,4.07,4.07,0,0,0-1.87,2.13c-.59,1-.6,1.8.87,1.93a3.91,3.91,0,0,1,1.12,3.6c-.28.74-1,1.16-1.4,1.76,0,.53.18.79.76.57.75-.56,1.33-1.62,2.49-.79a3.82,3.82,0,0,1,.55,2.68,5.65,5.65,0,0,1-1.58,3.25,1.08,1.08,0,0,1-1.33,0c-5.76-2.86-7.22-7.24-5-14.95,4-4.68,8.53-7.32,14.71-4.09a4.42,4.42,0,0,1,2.4,3.62c-.35.79-1.08.79-1.78.84.65.26,1.12-.09,1.58-.48a.61.61,0,0,1,1,0h0C469.51,176,469.19,180,466.84,184Z" transform="translate(-0.89 -0.89)" fill="#95c7d9"/>
    <path d="M471,241l-1-1.75c-4.19,4.08-7-4.15-11-1.26-.64-1.14-1.23-2.3-1.93-3.4-3.13-4.93-2.1-7.12,4.06-8.54-.23,2.7-3.56,5.19-.51,8.09,2.19,2.1,4.34,1.26,6.48-.09a2.74,2.74,0,0,0,1.36-3.35,7.44,7.44,0,0,1-.19-1.3A4.29,4.29,0,0,1,470,226c.35-2.14-2.14-1-2.89-2.22,4.63-.77,6.61.68,7.09,5.6.15,1.58.19,2.5,1.89,2.64,1,2.63-.63,5.52.8,8.1.77,1.42,2.42,2.21,2.8,3.91a2.34,2.34,0,0,1-.69,2c-2.47.15-3.88-1.62-5.49-3A14.76,14.76,0,0,1,471,241Z" transform="translate(-0.89 -0.89)" fill="#fafcfc"/>
    <path d="M273.63,184.19h-4c-6.74,0-6.47,0-6.82-6.65-.24-4.52,1.05-6.31,5.75-5.84,3.95.4,8,0,12,.12,1.18,0,3.15-.55,3.08,1.41-.06,1.64-1.89,1.53-3.21,1.55-3.65,0-7.31.09-11,0-2.25-.05-3.34.66-3.35,3.11s.91,3.23,3.24,3.16c3.48-.12,7-.11,10.46,0,1.69.06,4.61-.79,4.6,1.49,0,2.87-3.07,1.37-4.78,1.6A44.41,44.41,0,0,1,273.63,184.19Z" transform="translate(-0.89 -0.89)" fill="#a1a2a5"/>
    <path d="M232.71,223.91c-1.48.58-1.63,4.15-4,2.27-1.75-1.38.16-3,1-4.34,2.93-4.82,6.1-9.5,8.93-14.38,1.55-2.69,3.64-3.54,6.57-3.46,4.81.14,9.63.07,14.45.09,2,2.64.64,3.29-2,3.41-4.89.23-9.81-.62-14.66.47h0c-.8.94-.91,2.37-2.18,3-2.26,2.23-3.35,5.19-4.87,7.87C234.81,220.48,234.37,222.58,232.71,223.91Z" transform="translate(-0.89 -0.89)" fill="#767678"/>
    <path d="M463.94,169c-5.75-2.73-10.43-.34-14.89,3.12,1.5-3.47.16-7.88,3.11-10.72,1.4-1.35,4.21-1.41,2.85-4.44,2-.36,2.44,1.66,3.76,2.34,3.48,2.65,7.12,1,10.72.41l.57.36c.08,2-.84,2.75-2.91,3-2.41.31-4.07,1.65-.86,3.48,1.82,1,.56,2.27.71,3.41C465.7,170.57,464.92,169.47,463.94,169Z" transform="translate(-0.89 -0.89)" fill="#fcfcfc"/>
    <path d="M227.87,185c2.34-4.9,1-10.1,1-15.13,0-3.94,1.15-5.42,5.08-5a47.44,47.44,0,0,0,7.44,0c2.53-.12,3.58.86,3.51,3.47s-1.11,3.62-3.61,3.55-5,0-7.45,0-3.1.91-1.61,3c-3.21.58-1.88,3.17-2.25,5S231.24,184.41,227.87,185Z" transform="translate(-0.89 -0.89)" fill="#fafafb"/>
    <path d="M259.89,215.33c-2.84,3.07-6.51,1.17-9.78,1.53-2.21.25-4.13-.12-4.11,3.23,0,3.51,2.21,3,4.29,3,2.3,0,4.6.06,6.9,0,2.05-.06,3.15.68,2.79,2.89-5.06,1.16-10.19.35-15.29.52-2.91.1-2.43-2.49-2.09-4,.66-3-2.42-7.6,1.8-8.64,4.51-1.1,9.55-.63,14.34,0C259.38,213.9,259.72,214.66,259.89,215.33Z" transform="translate(-0.89 -0.89)" fill="#727275"/>
    <path d="M307.83,226.28c-8.84,0-8.84,0-8.84-8.86,0-3.49,0-7,0-10.48,0-1.27-.28-3.05,1.68-3s1.5,1.89,1.51,3.12c.06,4.16.18,8.33,0,12.48-.14,2.92,1,3.82,3.77,3.65s5.66,0,8.48,0c1.08,0,2.09.43,2.09,1.62,0,1.34-1.24,1.38-2.2,1.41C312.16,226.32,310,226.28,307.83,226.28Z" transform="translate(-0.89 -0.89)" fill="#717275"/>
    <path d="M273.87,215.22c0-2.83,0-5.66,0-8.49,0-1.17,0-2.66,1.5-2.73,1.93-.09,1.75,1.64,1.76,2.92,0,4,.18,8,0,12-.17,3.15.71,4.64,4.15,4.3a67.64,67.64,0,0,1,8,0A1.67,1.67,0,0,1,291,224.6c.17,1.38-.93,1.65-1.94,1.66-4.33.05-8.66,0-13,0-2.15,0-2.27-1.48-2.26-3.08C273.87,220.55,273.86,217.89,273.87,215.22Z" transform="translate(-0.89 -0.89)" fill="#77777a"/>
    <path d="M216.19,215.7c-.3,4,1.29,9.25-2.83,13.36-1,1-2,2.87-3.6,1.75-1.8-1.24-.38-2.76.64-3.74,3.7-3.55,2.28-8.08,2.49-12.28.14-2.82,0-5.66.07-8.49,0-1,.15-2.17,1.39-2.29,1.61-.15,1.81,1.15,1.83,2.35C216.22,209.18,216.19,212,216.19,215.7Z" transform="translate(-0.89 -0.89)" fill="#79797b"/>
    <path d="M488,177c2,3.3,7.16,4.72,6.08,9.93L494,187c-2,.4-2.31-1.57-3.46-2.38a15.15,15.15,0,0,0-3.26-2.93c-1.67-.71-3.35-1.29-5.17-.59-3.31.93-6.15,2.52-8,5.52a6.81,6.81,0,0,0-1.6,4.74c0,2.22,2.15,4.26.56,6.6l-.09.08c-3.3-1.68-3-4.72-2.93-7.69,0-2.46,0-4.92,0-7.37,2.5,1.66,3.21-.25,4-2h0c2.21-1.22,5.2-.92,6.44-4.07.51-1.3,2.35-.61,3.56.07S486.67,176.84,488,177Z" transform="translate(-0.89 -0.89)" fill="#f9fcfb"/>
    <path d="M479,246v-2c2.75-1.48,5.67-2.64,8.18-4.53,2.45-1,1.26-3.42,1.93-5.11s2.21-2.16,3.68-2.76a2.41,2.41,0,0,1,1.33.15,4,4,0,0,1,.82,1.05c.35,1.86,2.78,2.89,2.07,5.17a6.73,6.73,0,0,1-1.4-.28c-1.09-.47-2.24-2.11-3.31-.65s2,.95,1.66,2.49a5.27,5.27,0,0,0,0,1.43c-.06,1.4-1.15,2.12-2,3-.37,1,1.65,2.77-1,3a3.37,3.37,0,0,0-3-1l-3,1c-1.49-1.23-3.5.18-5-1Z" transform="translate(-0.89 -0.89)" fill="#fcfcfd"/>
    <path d="M342,173.13c0,3,0,5.95,0,8.92,0,1-.26,2.2-1.4,2.3-1.57.14-1.76-1.24-1.76-2.4q0-9.17,0-18.34c0-1,.26-2.18,1.53-2.09,1.1.08,1.58,1.1,1.59,2.19,0,3.14,0,6.28,0,9.41Z" transform="translate(-0.89 -0.89)" fill="#9fa1a3"/>
    <path d="M479.15,139c-2.65,4-3.12,7.93-.07,11.92-4.74-.58-7.35.7-5.72,6.17.34,1.15-.22,2.57-.36,3.86h0l-2.94-.91L470,160a1.59,1.59,0,0,1-.41-1.29c2.86-5.3-.12-9.44-2.7-13.67,2-.63,4.16,1.24,6.16-.34.2-.16.88.12,1.24.34,1.15.7-2.09,2.92.5,2.56,2.23-.31,1.06-3.05,1.1-4.7,0-1-.72-2.08-1.29-3.55C476.18,139.46,477.8,140,479.15,139Z" transform="translate(-0.89 -0.89)" fill="#fcfcfc"/>
    <path d="M274.05,161.83c2.8,0,5.61,0,8.41,0,1,0,2.14.19,2.08,1.51a1.66,1.66,0,0,1-1.75,1.45c-5.94.06-11.88.06-17.81,0-.86,0-1.69-.35-1.78-1.33-.11-1.34.92-1.64,1.94-1.66C268.11,161.81,271.08,161.84,274.05,161.83Z" transform="translate(-0.89 -0.89)" fill="#9d9fa2"/>
    <path d="M330,217l4.26-9.5c.68.42,1.23.57,1.43.92,5,8.69,5,8.69-4.62,9.72Z" transform="translate(-0.89 -0.89)" fill="#f2f2f3"/>
    <path d="M466.89,145c5.91,4.62,6.76,8.44,3.11,14a2.42,2.42,0,0,1-.81-1.88c0-1.15.44-2.24.46-3.4.13-3.51-2.41-4.53-5.06-5.44-2.86-.74-4.65.77-6.12,2.92-2.05,2.12-.54,4.11.25,6.12A2.61,2.61,0,0,1,458,160c-1.59-.42-1.77-2.23-3-3v0c-2.13-7.29-.26-13.4,11-12A3.42,3.42,0,0,0,466.89,145Z" transform="translate(-0.89 -0.89)" fill="#a5d1df"/>
    <path d="M259.89,215.33c-5.11-3-10.69-1.47-15.92-1-2.27.22-.7,4.08-1.1,6.25-.85,4.61,1.12,6.22,5.68,5.72,3.78-.41,7.62-.28,11.43-.39-.87,2.48-2.74,1-4.22,1.07a40.4,40.4,0,0,1-5.49,0c-2.66-.31-6.61,2-7.73-1.09-1.21-3.39-.39-7.52-.36-11.33a1.58,1.58,0,0,1,1.73-1.47c4.83,0,9.65,0,14.48.06C259.63,213.17,259.87,214.27,259.89,215.33Z" transform="translate(-0.89 -0.89)" fill="#f9f9f9"/>
    <path d="M493,232c-.21,1.85-2.13,1.13-3,2-2.09.5-2.52-1.17-3.23-2.48-.48-1.6-2.11-2.52-2.57-4.08-.7-2.38-.69-4.39,2.8-3.44h4c.45.53.67,1.32.2,1.7-3.08,2.5,0,1.93,1.13,2.37A4.71,4.71,0,0,1,493,232Z" transform="translate(-0.89 -0.89)" fill="#f9fefd"/>
    <path d="M466,145c-9,.21-11.12,2.56-11,12-2.41-1.29.75-5.39-3-6C453.11,145.75,460,142.8,466,145Z" transform="translate(-0.89 -0.89)" fill="#fcfcfc"/>
    <path d="M497,238c-.71-1.88-3.26-2.73-2.91-5.2,1.56-.33,2.48.84,3.6,1.52,2.05,1.32,4.16,2.08,6.5.67,1.52-.9,2.73-2.47,4.78-2.18a.91.91,0,0,1,.32.78q-.05.43-.16.43c.84,1.67,1,3.14-1.13,4a3.52,3.52,0,0,1-4,0Z" transform="translate(-0.89 -0.89)" fill="#f8fdfd"/>
    <path d="M489.13,149c3.31-3.76,1.25-6.92-1.13-10,2.67,0,3.35,3.38,6.14,3.44,1,0,.68,1.54.38,2.52C493.69,147.63,492.09,149.22,489.13,149Z" transform="translate(-0.89 -0.89)" fill="#fbfdfb"/>
    <path d="M450.9,215.79c1.8-1.57,3.45-.79,5.09.3,1.59,1.63,1.38,3.28,0,4.93h0a5.64,5.64,0,0,1-5-.06l0,0C450,219.24,450.31,217.52,450.9,215.79Z" transform="translate(-0.89 -0.89)" fill="#0195ae"/>
    <path d="M176.78,204.92l-.4,0-.4,0c.1-.31.14-.84.32-.9,7-2,14.21-1.36,21.22-.39,2.44.34,1.64,3.06-.5,4.36a1.6,1.6,0,0,1-.59-1,1.63,1.63,0,0,1,.53-1l0-1A87.49,87.49,0,0,0,176.78,204.92Z" transform="translate(-0.89 -0.89)" fill="#fbfbfb"/>
    <path d="M487,224c-2.79.22-2.86,1.63-1.61,3.64.75,1.22,2.7,1.49,2.61,3.36-1.1.69-2.19.16-3.28,0-.45-.09-.88-.21-1.32-.33-1.48-.52-3.22-.34-4.4-1.65-.65-.08-1.45.05-1.9-.29s.21-.95.49-.89c3.51.73,4.81-1.32,6-4.14C484.16,222.45,485.95,222.79,487,224Z" transform="translate(-0.89 -0.89)" fill="#fbfcfb"/>
    <path d="M476,240.94c-2-3-1.77-6,.07-8.91l1.88-1a1.17,1.17,0,0,1,1.19-.28c1.47,1.08,3.27,1.08,4.94,1.54a2,2,0,0,1,1.39,2.15,1.42,1.42,0,0,1-.87,1c-2.48.31-5.27-.53-7.14,2C477,238.57,477.16,240,476,240.94Z" transform="translate(-0.89 -0.89)" fill="#3aa9c0"/>
    <path d="M509.13,234a1.94,1.94,0,0,1-.07-.74c-.94-.72-.65-1.58-.3-2.45.77-1.27,1.31-2.57.31-4a38,38,0,0,1-2.84-4.21,3,3,0,0,1-.34-2.51l.16-.2L508,220c1.19.81,2.56,1.44,3,3C511.51,226.87,514.24,231.11,509.13,234Z" transform="translate(-0.89 -0.89)" fill="#f8fbfc"/>
    <path d="M506,154l-1,1c-1.79,1.06-3.34.17-4.91-.6-1.62-1.82-2.46-3.75-.94-6.06a3,3,0,0,1,1.09-.92c1.45-.3,2.79-.25,2.89,1.65.1,2.05,1.95,2.54,3,3.72A1,1,0,0,1,506,154Z" transform="translate(-0.89 -0.89)" fill="#c3e6ee"/>
    <path d="M464,180c-1.45,2-1,3.59,1,4.91l-2,2a1.8,1.8,0,0,1-2,.32c-1.5-1.91-.57-4.15-.83-6.23a6.92,6.92,0,0,1,1.46-3.39c.79-.67,1.59-1.34,2.68-.54A2.94,2.94,0,0,1,464,180Z" transform="translate(-0.89 -0.89)" fill="#95c9d7"/>
    <path d="M459.87,235.14c-4-3.65-1.61-6.4,1.26-9.09a9.52,9.52,0,0,1,5.79,1.11l.31.58a1.77,1.77,0,0,1-.87.92,6,6,0,0,1-2.6.24,2.53,2.53,0,0,0-2.89,2c-.5,1.24,0,2.61-.49,3.84Z" transform="translate(-0.89 -0.89)" fill="#0da0bc"/>
    <path d="M500,211c-3.45-5.39-3.16-9,1.19-14.92l.9-.92q.65-1,.91.16C499.49,200.06,497.93,205.18,500,211Z" transform="translate(-0.89 -0.89)" fill="#70b6cb"/>
    <path d="M485.7,154c1.23.2,3.16-.31,2.94,1.62-.23,2.09-2.29,1.27-3.62,1.36-1.08.07-2.7.23-2.67-1.33C482.39,153.35,484.46,154.28,485.7,154Z" transform="translate(-0.89 -0.89)" fill="#fdfdfb"/>
    <path d="M243,208c4.41-1.7,9-.36,13.49-.74,2-.17,4.25.07,3.15-3.14,2.77,2.91,1.22,3.86-1.85,3.9C252.81,208.05,247.88,208,243,208Z" transform="translate(-0.89 -0.89)" fill="#f9f9f9"/>
    <path d="M448.25,150.35a26,26,0,0,1,.41,12.23C446.64,158.66,446.45,155.25,448.25,150.35Z" transform="translate(-0.89 -0.89)" fill="#fbfefe"/>
    <path d="M492,228c-2.41,2.34-3.53-.58-5.56-.95,1.37-1.85,4.51-.06,4.56-3a2.06,2.06,0,0,1,2-1C494.44,225,493.79,226.63,492,228Z" transform="translate(-0.89 -0.89)" fill="#fbfcfb"/>
    <path d="M504,193c1.57-2.78,5.46-3.91,7-1.69s-1.13,1.26-2,1.69C507.33,194.15,505.67,194.38,504,193Z" transform="translate(-0.89 -0.89)" fill="#fbfcfc"/>
    <path d="M492,228l1-5,1-1c.62-.71,1-1.7,2-2l1.95-.06.17.21a2.18,2.18,0,0,1-.31,1.85,7.34,7.34,0,0,1-.78,1,7.5,7.5,0,0,0-2,3.09c-.11.4-.25.79-.37,1.18-.41,1.23,0,2.48-.11,3.72a1.58,1.58,0,0,1-.73,1H493C491.54,231,492.14,229.38,492,228Z" transform="translate(-0.89 -0.89)" fill="#f7fcfb"/>
    <path d="M515.19,211.08c2.9-4.77,2.39-9.42-.5-14A9,9,0,0,1,515.19,211.08Z" transform="translate(-0.89 -0.89)" fill="#f3f8fb"/>
    <path d="M197,207q0,.5,0,1l-17.71,0q-.12-.31-.22-.63C185,205.67,191,206.45,197,207Z" transform="translate(-0.89 -0.89)" fill="#f6f6f6"/>
    <path d="M196.93,214.28c-4.28-1-8.63-.23-12.93-.55-1.57-.11-3.33.73-4.69-.76,4.41,0,8.83,0,13.24,0C194.08,213,195.9,212.38,196.93,214.28Z" transform="translate(-0.89 -0.89)" fill="#f6f6f6"/>
    <path d="M511,223a6.27,6.27,0,0,1-3-3c3.79-.17,6.54.92,6.9,5.23C512.19,226.22,513.67,221.6,511,223Z" transform="translate(-0.89 -0.89)" fill="#fbfcfc"/>
    <path d="M498,153c-2.09-2.7-.89-4.81,1.23-6.72,2.49-2.24,4.7-1.38,6.78.68l-.47.46c-1.76,1-3.86-1.43-5.53.54h0C498.48,149.34,498.8,151.42,498,153Z" transform="translate(-0.89 -0.89)" fill="#d0e8ed"/>
    <path d="M473,203c-3.29,4.39,1.53,3.68,3.09,5.17-2.61-.57-6.74,1.3-6.09-4.17C470.86,203.24,471.71,202.46,473,203Z" transform="translate(-0.89 -0.89)" fill="#fbfcfc"/>
    <path d="M466.84,184c1.5-4,2-7.95.17-12,2.43.34,1.92,2.24,2,3.81.11,2.43-.41,4.95,1,7.2Z" transform="translate(-0.89 -0.89)" fill="#f9fbfc"/>
    <path d="M492,244a3,3,0,0,1,2-3c1.09.3,3.27-.63,3.09,1C496.75,245.09,493.87,243.66,492,244Z" transform="translate(-0.89 -0.89)" fill="#fcfef9"/>
    <path d="M474,242l5,4c-2.91,2.05-4.39-.15-6-2C472.45,242.89,473.11,242.39,474,242Z" transform="translate(-0.89 -0.89)" fill="#fcfcfd"/>
    <path d="M451.9,151.1l.62,5.2C449.16,154.61,449.08,153.67,451.9,151.1Z" transform="translate(-0.89 -0.89)" fill="#fcfcfc"/>
    <path d="M506,217c1.17-1.9,3.83-.1,5-2,1.3.73,3.62-.58,4,2Z" transform="translate(-0.89 -0.89)" fill="#fdfdfa"/>
    <path d="M461,186.94l2,0c-3,2.46-5.95,2.34-9,.13l1-.24A6.72,6.72,0,0,1,461,186.94Z" transform="translate(-0.89 -0.89)" fill="#f1f7f8"/>
    <path d="M497,191v-2c.86-1.09,1.68-.83,2.4.12a1.63,1.63,0,0,1,.09,2.26C498.58,192.31,497.72,191.89,497,191Z" transform="translate(-0.89 -0.89)" fill="#fdfefa"/>
    <path d="M466,142c1-2.38,3.39-2,5.84-3.18L470,142C468.67,143,467.33,142.68,466,142Z" transform="translate(-0.89 -0.89)" fill="#fafefd"/>
    <path d="M506,154l0-1c-.9-2-1.22-4,0-6l0,0C508.52,149.34,508.47,151.68,506,154Z" transform="translate(-0.89 -0.89)" fill="#d0e8ed"/>
    <path d="M503,195.32a1.32,1.32,0,0,0-.91-.16L503,194a9.34,9.34,0,0,1,6-.14l2,1.1Z" transform="translate(-0.89 -0.89)" fill="#d3e8ec"/>
    <path d="M498,153c.05-1.93-.34-4,2-5a8.9,8.9,0,0,0,0,6,.63.63,0,0,1-1.08,0Z" transform="translate(-0.89 -0.89)" fill="#cbe6ef"/>
    <path d="M512.34,189.77c-1-.1-1.7-.43-1.72-1.14a1.22,1.22,0,0,1,1.59-1.3,1.78,1.78,0,0,1,1.11,1.28C513.33,189,512.61,189.48,512.34,189.77Z" transform="translate(-0.89 -0.89)" fill="#fbfcfc"/>
    <path d="M498.92,154l1.08,0,5,1C502.67,156.7,500.62,156.5,498.92,154Z" transform="translate(-0.89 -0.89)" fill="#d0e8ed"/>
    <path d="M474,242l-1,2c-2-.09-2-1.55-2-3C472.1,241,473.28,240.83,474,242Z" transform="translate(-0.89 -0.89)" fill="#fdfef7"/>
    <path d="M197.93,224q-.14-4-.27-7.91C199.87,218.64,199.43,221.29,197.93,224Z" transform="translate(-0.89 -0.89)" fill="#fbfbfb"/>
    <path d="M488,177c-1.33,1.4-2.67,2.57-4,0C485.33,176.5,486.67,175.18,488,177Z" transform="translate(-0.89 -0.89)" fill="#fdfcfa"/>
    <path d="M500.47,246.17c-1.36,1.39-2.55.67-4.16.56C497.85,244.59,499,244.9,500.47,246.17Z" transform="translate(-0.89 -0.89)" fill="#fcfcfd"/>
    <path d="M466,142h4c-.62,4.09-2.82.21-4.13.81,0-.14-.15-.3-.13-.43S465.91,142.13,466,142Z" transform="translate(-0.89 -0.89)" fill="#fefdf9"/>
    <path d="M474,181a3.6,3.6,0,0,1-3.44-2.64c2.4-.53,3.2.67,3.44,2.64Z" transform="translate(-0.89 -0.89)" fill="#f9fcfb"/>
    <path d="M467,228a5.38,5.38,0,0,0,0-.88c.68-1.29,1.92-1.14,3.08-1.16l-1.18,4.12C467.4,230.15,467.08,229.18,467,228Z" transform="translate(-0.89 -0.89)" fill="#f7fbfa"/>
    <path d="M175.9,206.7q0,3.8,0,7.61A11.45,11.45,0,0,1,175.9,206.7Z" transform="translate(-0.89 -0.89)" fill="#78787b"/>
    <path d="M456,221a9.22,9.22,0,0,0,0-4.93C458.69,217.72,458.21,219.37,456,221Z" transform="translate(-0.89 -0.89)" fill="#1d9bb6"/>
    <path d="M461.2,141.25c-.23.84-.91.73-1.52.67s-1.35-.38-1.13-1.18c.08-.28.78-.54,1.21-.55A1.3,1.3,0,0,1,461.2,141.25Z" transform="translate(-0.89 -0.89)" fill="#fcfcfc"/>
    <path d="M496,220a3.45,3.45,0,0,1-2,2,25.11,25.11,0,0,0,.51-2.82c.06-.83.48-1.24,1.18-1.06C497,218.47,496.1,219.33,496,220Z" transform="translate(-0.89 -0.89)" fill="#fbfcfc"/>
    <path d="M512,213a3,3,0,0,1,3.06-1.85C514.64,212.77,514.32,214.55,512,213Z" transform="translate(-0.89 -0.89)" fill="#f3f8fb"/>
    <path d="M232.71,223.91a11,11,0,0,1,3.21-5.12C235.69,221,235.17,223.08,232.71,223.91Z" transform="translate(-0.89 -0.89)" fill="#f9f9f9"/>
    <path d="M479,231.11l-1-.12,1-1a6.09,6.09,0,0,1,5,0,.55.55,0,0,0,.63.15q1,.26.41,1.11c-1.43,1-3,.71-4.63.6A4.8,4.8,0,0,1,479,231.11Z" transform="translate(-0.89 -0.89)" fill="#4caec4"/>
    <path d="M504,238l4,0C506.67,238.71,505.34,241.51,504,238Z" transform="translate(-0.89 -0.89)" fill="#fcfcfd"/>
    <path d="M497.25,215.62c.19,1.15-.34,1.36-1,1.36s-1.44.09-1.43-.69c0-.4.76-.89,1.28-1.14S497.37,214.86,497.25,215.62Z" transform="translate(-0.89 -0.89)" fill="#fbfcfc"/>
    <path d="M450.9,215.79l.14,5.14C448.69,219.28,449.13,217.55,450.9,215.79Z" transform="translate(-0.89 -0.89)" fill="#1d9bb6"/>
    <path d="M509,193.87l-6,.14,1-1h5Q509,193.44,509,193.87Z" transform="translate(-0.89 -0.89)" fill="#fafcfc"/>
    <path d="M516,193c.23-.92-.49-2.58,1.22-2.41,1,.1.69,1.52.78,2.41A1.35,1.35,0,0,1,516,193Z" transform="translate(-0.89 -0.89)" fill="#fefef9"/>
    <path d="M459,237.89c.32,1.14,1.66,2.53.12,3.11s-1-1.08-.93-1.85C458.19,238.74,458.66,238.35,459,237.89Z" transform="translate(-0.89 -0.89)" fill="#fafcfc"/>
    <path d="M468.9,243.74c.22.43.57.81.58,1.21,0,.86-.66,1-1.27.81-.32-.1-.51-.61-.75-.93Z" transform="translate(-0.89 -0.89)" fill="#fdfefa"/>
    <path d="M488,246c1.66-1.64,2.6-1.13,3,1C489.9,247,488.72,247.18,488,246Z" transform="translate(-0.89 -0.89)" fill="#fbfef8"/>
    <path d="M240.79,210.92c.53-1.13.82-2.44,2.18-3C243,209.52,243,211,240.79,210.92Z" transform="translate(-0.89 -0.89)" fill="#f9f9f9"/>
    <path d="M463.94,169l3.06,1q0,1,0,2a8.45,8.45,0,0,0-1-.05l0,0Z" transform="translate(-0.89 -0.89)" fill="#f9fbfc"/>
    <path d="M516,193h2c-.11.91-.12,2.19-1.2,2.17C515.46,195.14,516.23,193.76,516,193Z" transform="translate(-0.89 -0.89)" fill="#fafcfc"/>
    <path d="M451.07,221l5,.06C454.35,222.94,452.7,222.94,451.07,221Z" transform="translate(-0.89 -0.89)" fill="#1d9bb6"/>
    <path d="M517.8,218.32c-.85.28-1.38.62-1.58.48a2.61,2.61,0,0,1-1.11-1.34c-.24-1,.68-.36.82-.3A13,13,0,0,1,517.8,218.32Z" transform="translate(-0.89 -0.89)" fill="#fbfcfc"/>
    <path d="M484,230h-5q0-.49,0-1C480.68,229.24,482.59,228.33,484,230Z" transform="translate(-0.89 -0.89)" fill="#f6fbf7"/>
    <path d="M482,206a5.21,5.21,0,0,1-1.45.53,1,1,0,0,1-.72-.58c-.3-.71.26-.9.75-.82S481.29,205.59,482,206Z" transform="translate(-0.89 -0.89)" fill="#fbfcfc"/>
    <path d="M473,203l-3,1C470.4,201.87,471.34,201.36,473,203Z" transform="translate(-0.89 -0.89)" fill="#f9fefc"/>
    <path d="M473,161c.67.36,1.63.75,1.12,1.61a2.19,2.19,0,0,1-2.06.12c-.6-.8.81-1,.94-1.72Z" transform="translate(-0.89 -0.89)" fill="#fcfcfc"/>
    <path d="M483.26,208.11c.69,0,1.18.2.93.78a1.61,1.61,0,0,1-1,.77.6.6,0,0,1-.75-.81C482.56,208.51,483,208.3,483.26,208.11Z" transform="translate(-0.89 -0.89)" fill="#f9fefb"/>
    <path d="M480,246c1.68.24,3.6-.67,5,1C483.31,246.76,481.4,247.67,480,246Z" transform="translate(-0.89 -0.89)" fill="#f8fefa"/>
    <path d="M473.37,175.5c1.51-.6,2.68-.82,3,.17s-.66.56-1.14.47A19.26,19.26,0,0,1,473.37,175.5Z" transform="translate(-0.89 -0.89)" fill="#f9fcfb"/>
    <path d="M361,172.6c.11-8.94-1.06-7.6,8.72-7.68,7.15-.06,7.18,0,7.13,8-.06,9.72.88,8-9.91,8.09C359.91,181,361.06,181.78,361,172.6Z" transform="translate(-0.89 -0.89)" fill="#fdfdfd"/>
    <path d="M404.86,223.19c-7.63-.1-6.71.87-6.67-6.54.05-10.25-1.34-9.36,5.86-9.43,9.22-.08,9.81.46,9.79,8.14C413.83,222.83,413.42,223.19,404.86,223.19Z" transform="translate(-0.89 -0.89)" fill="#fcfcfc"/>
    <path d="M505,209c2.2.9,1.88-.62,2-2,.31-2.76-1-5.81,1.25-8.55,1.49,1.79-.55,5.12,3,5.62.77.11.56,1.55-.15,2.06-2.76,2-2.63,5-3.12,7.87a2,2,0,0,1-2.05.22,5.59,5.59,0,0,1-1.57-3.24A2.28,2.28,0,0,1,505,209Z" transform="translate(-0.89 -0.89)" fill="#6ab5ca"/>
    <path d="M505,209q0,1,0,2c.22,1.68-.37,2.54-2.19,2.11l-.88-1C503.31,211.45,501.69,207.82,505,209Z" transform="translate(-0.89 -0.89)" fill="#69b5d0"/>
    <path d="M506,214l2,0,2,.17a5,5,0,0,1-6-.07A1.3,1.3,0,0,1,506,214Z" transform="translate(-0.89 -0.89)" fill="#e4f2f2"/>
    <path d="M514.55,202.85a3.26,3.26,0,0,1,0,3.39A2.81,2.81,0,0,1,514.55,202.85Z" transform="translate(-0.89 -0.89)" fill="#6bb5d1"/>
    <path d="M511.28,196.43c-1.4.87-2.39.49-3.71.28A3.36,3.36,0,0,1,511.28,196.43Z" transform="translate(-0.89 -0.89)" fill="#68b5d1"/>
    <path d="M176.78,204.92A40.07,40.07,0,0,1,197,205Z" transform="translate(-0.89 -0.89)" fill="#78787b"/>
    <path d="M197,207l-17.92.38c2-2.68,4.92-1.14,7.39-1.32,3.48-.26,7-.07,10.48-.07Z" transform="translate(-0.89 -0.89)" fill="#78787b"/>
    <path d="M487.94,181a5.49,5.49,0,0,1,3.16,2.74,43.12,43.12,0,0,0,2.8,5.22l.05,1c-2.17,1.67-1.64,4.6-3.06,6.62a2.92,2.92,0,0,1-2.9,1.57c-.74-.84-.33-1.75-.15-2.65a2.74,2.74,0,0,0,0,2.69c.83.37,1.76-.16,2.58.27l.49.44c-4.08,4.57-8.84,4.35-13.91,2,1-4.6,3-8.94,3.41-13.7,1-1.63,3-.86,4.3-1.66a1.07,1.07,0,0,0,.38-.8l-.84.48a2.39,2.39,0,0,1-1.16.15,5.69,5.69,0,0,1-1.57-.88c-1.11-.54-1.89.12-2.68.74a12.36,12.36,0,0,0-2,2.25,3.06,3.06,0,0,1-1,.79,3.3,3.3,0,0,1-2.4-.62c-.51-.43-.89-.89-.47-1.6,1.86-3.67,5.17-5.25,8.93-6.19C483.83,180.88,486,180.12,487.94,181Z" transform="translate(-0.89 -0.89)" fill="#80bdd3"/>
    <path d="M482,184l1,1c-.36,1-1.62,1-2,2a17.53,17.53,0,0,1-4,13.93L473,198c-.27-2.39-2.08-4.42-1.59-7a1.36,1.36,0,0,1,1.25-.29c.82.48.77,1.32.85,2.17.2-1.46-.76-2.71-.48-4.1a2.79,2.79,0,0,1,1-1.79l2,1a2,2,0,0,1,.45,1.25c.08,1.21-.69,2.51.42,3.55,1.72-2.27.86-4.1-.87-5.8a3.43,3.43,0,0,1,2-2C479.28,184.43,480.28,182.81,482,184Z" transform="translate(-0.89 -0.89)" fill="#80bed0"/>
    <path d="M490,196c1.93-1.6-.75-6.23,4-6a9.73,9.73,0,0,1-3,8.94l0,0C489.86,198.17,490.73,196.83,490,196Z" transform="translate(-0.89 -0.89)" fill="#7dbed1"/>
    <path d="M501,220h2a2.35,2.35,0,0,1,1.48,2.38c-.72,2.31.22,6.66-4.7,3.85-1.11-1.75-.59-3.42.25-5.07A13.14,13.14,0,0,1,501,220Z" transform="translate(-0.89 -0.89)" fill="#51afc3"/>
    <path d="M493.9,189a5.91,5.91,0,0,1-2.8-5.22L494,187Z" transform="translate(-0.89 -0.89)" fill="#88bfd2"/>
    <path d="M506,214l-2,.14-1.16-1A3.72,3.72,0,0,0,505,211C506.17,211.72,506,212.9,506,214Z" transform="translate(-0.89 -0.89)" fill="#73b5cd"/>
    <path d="M504,222l-1-1.95,2.89.08L507,222A2.11,2.11,0,0,1,504,222Z" transform="translate(-0.89 -0.89)" fill="#5bb0c8"/>
    <path d="M501,220q0,.48,0,1c-1.25,1-2.4,2.46-4.17.82l1.28-1.67Z" transform="translate(-0.89 -0.89)" fill="#61afc9"/>
    <path d="M461,186.94c-2,.84-4,.34-6-.09l1-2.85c3.47-1,.63-2,0-3l-2,3c-1.26-.73-1.13-2.86-3-3,.72-1.18,1.9-1,3-1a2.07,2.07,0,0,0,.53-.81c.48-1.52.36-3.53,2.25-4.07,2.2-.62,2.15,2.08,3.52,2.79.88.89-.05,2.18.69,3.1C461.8,183,461,185,461,186.94Z" transform="translate(-0.89 -0.89)" fill="#94c7db"/>
    <path d="M460,178c-2.64,1.29-1.7-1.45-2.32-2.38-2.32.76-1.35,3.93-3.68,4.38l-1-4q-.38-.33-.25-.67T453,175c3-.69,6-3.12,9,0a3.6,3.6,0,0,1-.58,2.15A2,2,0,0,1,460,178Z" transform="translate(-0.89 -0.89)" fill="#92c8d6"/>
    <path d="M456,181c1.48,0,3.15-.11,3.61,1.74a2.69,2.69,0,0,1-.74,2.2c-1.31,1.18-1.8-.9-2.87-.95Q456,182.5,456,181Z" transform="translate(-0.89 -0.89)" fill="#91c8d6"/>
    <path d="M452,174c.11-2.58,2.42-3.18,4.41-5.11A6.15,6.15,0,0,1,453,174C452.67,174.47,452.33,174.49,452,174Z" transform="translate(-0.89 -0.89)" fill="#8fc7db"/>
    <path d="M466.05,171.93c-1.71,1.71-1.71,1.71-4.78-1.14,2.07-1.08,3.07,1.77,4.79,1.16Z" transform="translate(-0.89 -0.89)" fill="#8ccad9"/>
    <path d="M461,177a2.06,2.06,0,0,1,1-2h2a1.36,1.36,0,0,1,0,2l-2,1C461.1,178.23,460.61,178.05,461,177Z" transform="translate(-0.89 -0.89)" fill="#91c7dd"/>
    <path d="M464,177v-2c2.68,1.67,1.54,3.33,0,5Q464,178.5,464,177Z" transform="translate(-0.89 -0.89)" fill="#95c6d4"/>
    <path d="M451,181c2.66-.66,2.36,1.63,3,3C452,184,451.72,182.28,451,181Z" transform="translate(-0.89 -0.89)" fill="#8cc9dc"/>
    <path d="M452,174h1q0,.5,0,1t0,1c-.82-.11-.88,2.17-2.05.71S451.64,174.91,452,174Z" transform="translate(-0.89 -0.89)" fill="#92c7df"/>
    <path d="M476,240.94q0-2.47,0-4.94c3-.42,6.1.24,9-1h0c.84-.72,1.6-1.66,2.92-1.09a5.11,5.11,0,0,1,.15,6.25c-2.7,2.06-5.05,4.92-9.08,3.87C478.13,242.87,476.15,242.8,476,240.94Z" transform="translate(-0.89 -0.89)" fill="#39a5bf"/>
    <path d="M467,228l1.87,2.07V230c1.44,2.07.33,3.51-1.19,4.85-2.54,1.64-5.08,3.15-7.76.25l.26-.29a3.12,3.12,0,0,1,1.85-.71,4.63,4.63,0,0,0,4.37-2.12c1.88-.71-.38-1.33-.05-2a2.33,2.33,0,0,1,.52-1.84Z" transform="translate(-0.89 -0.89)" fill="#0da0bc"/>
    <path d="M467.63,234.9l1.19-4.85C470.92,232.28,470.25,233.82,467.63,234.9Z" transform="translate(-0.89 -0.89)" fill="#f7fbfa"/>
    <path d="M458,160q0-1.5,0-3c1.74-1.19,2.15.65,3.08,1.32a6.19,6.19,0,0,0,5.36-.19c1.14-.52,2-1.8,3.56-1.13q0,1,0,2,0,.49,0,1C466,162.17,462,163.65,458,160Z" transform="translate(-0.89 -0.89)" fill="#a5cfe0"/>
    <path d="M487.94,181c-2-.24-4.42,1.54-6-1.13C484.19,179,486.11,179.77,487.94,181Z" transform="translate(-0.89 -0.89)" fill="#83bed3"/>
    <path d="M472,191l-.61,0a5.31,5.31,0,0,1,1.61-4.93l1,.92v2C473.42,189.74,473,190.6,472,191Z" transform="translate(-0.89 -0.89)" fill="#83bed3"/>
    <path d="M488.07,240.15c-.31-2.15.9-4.51-.92-6.44a2.52,2.52,0,0,1-2.46-2.66,1.68,1.68,0,0,0-.07-.92c1.27-.26,2.3.38,3.38.87a3,3,0,0,0,2,3c0,1.77.05,3.54-.07,5.29C489.85,240.48,489.25,241.08,488.07,240.15Z" transform="translate(-0.89 -0.89)" fill="#f7fcfb"/>
    <path d="M493.82,232l.19-1c2.71-.43,3.91.67,3.48,3.43l-.5.59-2.9-2.21A1,1,0,0,0,493.82,232Z" transform="translate(-0.89 -0.89)" fill="#5cb1c8"/>
    <path d="M460,159c-.9-.43-.18-2.49-2-2-2.33-2-3.62-4,0-6,1.1,1.58,2.68,1.89,4.47,1.66,2.9.15,6-.79,8.52,1.34l-1,3-3,2C464.67,158.78,462.33,159.57,460,159Z" transform="translate(-0.89 -0.89)" fill="#a0d0e0"/>
    <path d="M461,154c-1.75-.25-4.9.9-3-3,.72-4.16,3.62-4.49,7-4-.16.28-.49.74-.39.85,3.17,3.53,2.84,4.32-2.36,5.52A2.06,2.06,0,0,0,461,154Z" transform="translate(-0.89 -0.89)" fill="#a2cee1"/>
    <path d="M461,154c1.14-2.31,4.18-1.84,5.62-3.85-1-1.06-3.45.37-3.62-1.89,0-.37,1.3-.84,2-1.26,3.4,1.14,6.27,2.72,6,7Z" transform="translate(-0.89 -0.89)" fill="#a3cee1"/>
    <path d="M504,222h3l3,4.07a5.21,5.21,0,0,1,0,4.81,2.88,2.88,0,0,0-.91,2.41L504.88,236a5.32,5.32,0,0,1-5.18-.19c-1.41-3.31,1.09-6.51.3-9.81C504.38,227.71,502.12,222.78,504,222Z" transform="translate(-0.89 -0.89)" fill="#52afc6"/>
    <path d="M500,235c1.36,1.65,3.24.75,4.88,1-2.92,2-5.49,1.14-7.89-1l.12-.13A2.1,2.1,0,0,1,500,235Z" transform="translate(-0.89 -0.89)" fill="#5cb1c8"/>
    <path d="M485,235c-2.62,3.78-5.85,2-9,1C478.88,234.54,481.76,233.16,485,235Z" transform="translate(-0.89 -0.89)" fill="#31a9b9"/>
    <path d="M484.69,231l2.46,2.66A2.16,2.16,0,0,1,485,235a2.06,2.06,0,0,0-1-2c-.92-1.42-3.59.77-3.91-1.9Z" transform="translate(-0.89 -0.89)" fill="#2babc0"/>
    <path d="M480.1,231.1c.88,1.51,3.08.28,3.91,1.9-1.74-.43-4.27,1.2-5-1.89Z" transform="translate(-0.89 -0.89)" fill="#3ba1c9"/>
    <path d="M510,230.88v-4.81A3.29,3.29,0,0,1,510,230.88Z" transform="translate(-0.89 -0.89)" fill="#6fb7cc"/>
    <path d="M506,147c0,2,.83,4,0,6-2.6-.3-4.95-.68-4-4.4.21-.8-1.28-.47-2-.61C501.49,144.58,504,147.57,506,147Z" transform="translate(-0.89 -0.89)" fill="#cbe6ef"/>
    <path d="M461,177l1,1-1,3c-1.18-.72-1-1.9-1-3Z" transform="translate(-0.89 -0.89)" fill="#96c5da"/>
    <path d="M467,232c-.57,2.83-2.15,4-5,3-.72-1.3-2.35-2.15-2-4,0-2.82,1.09-4.11,4-3a5.22,5.22,0,0,1,1.13,1.53A8.11,8.11,0,0,0,467,232Z" transform="translate(-0.89 -0.89)" fill="#019cbe"/>
    <path d="M460,231c1.08,1.13,2.41,2.12,2,4l-1.87-.13C460.24,233.57,458.23,232.35,460,231Z" transform="translate(-0.89 -0.89)" fill="#029db0"/>
    <path d="M464,230q0-1,0-2l2.83.17L467,230A2.09,2.09,0,0,1,464,230Z" transform="translate(-0.89 -0.89)" fill="#0598bf"/>
    <path d="M500,235l-2.89-.11c.17-2.25-1.34-3.17-3.1-3.89-.95-1.3-1.58-2.63-.39-4.14a4.7,4.7,0,0,0,2.91-3.79,3.26,3.26,0,0,1,.36-1.21l-.05,0L501,221l-1,5C503.8,229,499.84,232,500,235Z" transform="translate(-0.89 -0.89)" fill="#55accb"/>
    <path d="M496.89,221.86,497,223c-.31,1.69.05,4-3,3A4.45,4.45,0,0,1,496.89,221.86Z" transform="translate(-0.89 -0.89)" fill="#5ab0c4"/>
    <path d="M494,226c2-.06,2.27-1.74,3-3,.77,3.06.22,3.68-3.38,3.86A2.46,2.46,0,0,1,494,226Z" transform="translate(-0.89 -0.89)" fill="#51afcd"/>
    <path d="M476,187c3.37-.26,3,2.11,3,4.24s-.13,4-3,3.76a8.16,8.16,0,0,1,0-6v-1Q476,187.5,476,187Z" transform="translate(-0.89 -0.89)" fill="#7dbed5"/>
    <path d="M485.14,198.32c-1.74-2-.86-4.25-1.28-7.3C487,193.71,485.81,196.07,485.14,198.32Z" transform="translate(-0.89 -0.89)" fill="#7cbfd2"/>
    <path d="M488,199c-1.91-2.36-.63-4.86-1-8.4,3.37,3.05,1,5.29,1,7.4q.52.33.35.67T488,199Z" transform="translate(-0.89 -0.89)" fill="#82bcd3"/>
    <path d="M481,187c-.22-1.57-.22-1.57,2-2h1a2.2,2.2,0,0,1,2,1C484.6,187.67,482.68,186.76,481,187Z" transform="translate(-0.89 -0.89)" fill="#7dbdd7"/>
    <path d="M486,186a2.07,2.07,0,0,1-2-1c.17-1.71,1.13-2.48,2.62-1.55C488.57,184.65,486.09,185.1,486,186Z" transform="translate(-0.89 -0.89)" fill="#7dbfce"/>
    <path d="M482,184l-4,1C479.12,183.82,479.91,181.3,482,184Z" transform="translate(-0.89 -0.89)" fill="#84bbd0"/>
    <path d="M488,199q0-.5,0-1a3.45,3.45,0,0,0,2-2c1.15.7,1,1.81.91,2.9Z" transform="translate(-0.89 -0.89)" fill="#7cbed1"/>
    <path d="M472,191a3.33,3.33,0,0,1,2-2v5.65Z" transform="translate(-0.89 -0.89)" fill="#7bc0d3"/>
    <path d="M476,189v6A4.52,4.52,0,0,1,476,189Z" transform="translate(-0.89 -0.89)" fill="#85bad0"/>
    <path d="M464,230h3c.09.67,1.1,1.34,0,2C465.54,232,464.08,232,464,230Z" transform="translate(-0.89 -0.89)" fill="#029db0"/>
    <path d="M460,159c2.33-.5,4.66-1.77,7,0A5.77,5.77,0,0,1,460,159Z" transform="translate(-0.89 -0.89)" fill="#9fcfe2"/>
  </g>
</svg>
