<svg id="Layer_1" data-name="Layer 1" xmlns="http://www.w3.org/2000/svg" width="155.13" height="155.17" viewBox="0 0 155.13 155.17">
  <title>enhe-md</title>
  <g>
    <path d="M155.07,78.1q0,37,.06,73.94c0,2.39-.4,3.12-3,3.11q-74.44-.15-148.88,0c-2.94,0-3.24-.81-3.23-3.42Q.15,77.54,0,3.35C0,.67.43,0,3.29,0Q77.48.15,151.67,0c3.21,0,3.49.92,3.48,3.68Q155,40.91,155.07,78.1Z" transform="translate(-0.02 0.02)" fill="#fefefe"/>
    <path d="M78,6.1A72,72,0,1,1,6.07,78.16q0-.12,0-.25A72.08,72.08,0,0,1,78,6.1Z" transform="translate(-0.02 0.02)" fill="#743030"/>
    <path d="M77.94,16.1A62,62,0,1,1,16.07,78.23,62,62,0,0,1,77.94,16.1Z" transform="translate(-0.02 0.02)" fill="#fefefe"/>
    <path d="M99.07,113.1c-.53,2.1-2.65,2.14-4,3.13-1.34-1.29-1.19-3-1.35-4.64,0-2-1.32-2.94-3-3.6a7,7,0,0,1-2.21-1.51A3.76,3.76,0,0,1,87.45,104c.39-2.14,1.87-3.67,3-5.42,1.37-1.28,1.25-3.36,2.52-4.69,3.87-.56,2.93,2.74,3.25,4.51.5,2.71,1.15,4.72,4.42,4.41,3,.26,4.74,1.43,3.56,4.78-.48,2-.59,4.33-3.69,3.74a4.22,4.22,0,0,0-1.64.39,1,1,0,0,0,.18,1.4Z" transform="translate(-0.02 0.02)" fill="#ed063e"/>
    <path d="M66.86,113.25,60.07,110c-.94-1.19-.73-2.75-1.34-4a4.09,4.09,0,0,1,2.1-3.31,5.51,5.51,0,0,1,1.33-.5,7.39,7.39,0,0,1,1.42-.14,7.69,7.69,0,0,1,4.62,1.61c1.32,2,3,1.09,4.62.54,2.15-.33,4.32-.73,6.21.83,1.23,2.4-2.52,2.61-2,4.68a21.82,21.82,0,0,1,.62,3c.16,2.54-3.66.81-3.54,3.3-1,.4-1.58,1.73-2.94,1.45-.91-1.26-1.06-2.86-1.92-4.13-.35-.44-.74-.75-1.34-.41A2.16,2.16,0,0,1,66.86,113.25Z" transform="translate(-0.02 0.02)" fill="#e6063d"/>
    <path d="M62.07,41.26h1c.39.26.68.69,1.21.7V41.9c.66,1,.16,2.38.88,3.41,1.47,2.11,3.94,3.42,4.75,6C70,53.83,74.25,53.9,73.25,57c-1.42,1.43-3.88,1.3-4.93,3.3a3.16,3.16,0,0,1-2,.39c-6-.7-6.58-5.14-6.68-9.87.59-1.76-1.28-3.11-.85-4.86C59.5,44.2,61.14,43,62.07,41.26Z" transform="translate(-0.02 0.02)" fill="#f00642"/>
    <path d="M107.13,92.1l-.1,2c-.41.61-.68,1.36-1.55,1.51-3.92-1.34-5.86-4.53-7.47-8-.33-2.21-.52-4.41.59-6.49a6.05,6.05,0,0,1,7.06-1.57,1.91,1.91,0,0,1,.92,1.29C107.07,84.55,105,88.43,107.13,92.1Z" transform="translate(-0.02 0.02)" fill="#f30643"/>
    <path d="M77.22,37.73a.76.76,0,0,1,.6.28c2.1-1.31,3.45.7,5.16,1.13,3.51,1.49,5.35-.73,7.08-3.18,2.28.06,4.87-.85,6.22,2a2.81,2.81,0,0,1-1,1.64,14.09,14.09,0,0,0-2.74,2.59c-1.31.22-1.15,1.9-2.29,2.3-2.13-.36-4.23-1.49-6.38-.15-.38.55-1-1.08-1.35.19a1.49,1.49,0,0,1-.56.92,2.73,2.73,0,0,1-1.16.21,4.94,4.94,0,0,1-2.25-1.11c-1-.89-2.23-1.51-3-2.66a4,4,0,0,1-.3-1.38A3.06,3.06,0,0,1,77.22,37.73Z" transform="translate(-0.02 0.02)" fill="#f60843"/>
    <path d="M60.07,50.1c.26.59.81,1.23.74,1.78-.57,4.31,1.76,6.7,5.31,8.36-.2,2.31-2.24,1.77-3.58,2.31a4,4,0,0,1-1.36-.06,7.36,7.36,0,0,1-1.85-.92A6.6,6.6,0,0,1,56.17,58c-.44-3.07-3.3-5-3.92-7.93-.18-.64.18-.91.73-1,1.69-1.18,3.44-.64,5.19-.19A4.13,4.13,0,0,1,60.07,50.1Z" transform="translate(-0.02 0.02)" fill="#ef0641"/>
    <path d="M52.23,50.1c2.3,2.25,5.08,4.21,4.84,8a2.41,2.41,0,0,1-2.56,1.61,9.83,9.83,0,0,1-1.87-.51,7,7,0,0,1-1.19-.5,2.25,2.25,0,0,1-1.1-1.51C49.34,54.4,50.9,52.28,52.23,50.1Z" transform="translate(-0.02 0.02)" fill="#ed053d"/>
    <path d="M106.07,81.1v-1a5.1,5.1,0,0,1-1.26-3c-.08-1.64-.07-3.27,0-4.91A37.78,37.78,0,0,1,106.2,65a2.61,2.61,0,0,1,1.06-1.22,111.76,111.76,0,0,1,0,25.64,2.43,2.43,0,0,1-.94-1.11c-.42-1.93,0-3.93-.43-5.87A1.23,1.23,0,0,1,106.07,81.1Z" transform="translate(-0.02 0.02)" fill="#ed002f"/>
    <path d="M89.07,106.1l2,1c1,1.39,2,2.85,4,3v6.13a3.14,3.14,0,0,1-3,.82,10.89,10.89,0,0,0-1.56-.9,2.83,2.83,0,0,1-1-1.52,7.43,7.43,0,0,0-.72-2.37,6.68,6.68,0,0,1-.4-1.24C87.9,109.27,87.17,107.49,89.07,106.1Z" transform="translate(-0.02 0.02)" fill="#eb053f"/>
    <path d="M103.91,46.1a12,12,0,0,1,1.24,6.78,5,5,0,0,1,.33,5.13,2.71,2.71,0,0,1-3.22.54c-2.11-1.93-1.27-4.67-1.92-7a7.46,7.46,0,0,1,.55-4C101.57,46.4,102.17,45.1,103.91,46.1Z" transform="translate(-0.02 0.02)" fill="#f90746"/>
    <path d="M49.2,93a2.64,2.64,0,0,1-1.14-2.56V61.29a6.61,6.61,0,0,1,.9-2.2c1.63,1.42,1.33,3.38,1.45,5.21V83.48a33.18,33.18,0,0,1,0,3.6C50.24,89.1,50.83,91.32,49.2,93Z" transform="translate(-0.02 0.02)" fill="#fae8ed"/>
    <path d="M106.18,100.4l-.21,1.7c-.27.22-.8.46-.84.37-1.39-2.94-4.12-.81-6-1.62-2.56-2-1.24-4.19-.38-6.37a13.7,13.7,0,0,1,7.83,2.12C106.51,97.88,106.74,99.18,106.18,100.4Z" transform="translate(-0.02 0.02)" fill="#f00542"/>
    <path d="M99.07,100.1a7.41,7.41,0,0,1,6.89,2,8.92,8.92,0,0,1-1.75,5.45c.22-4-2.65-3.46-5.14-3.44C98.07,102.77,97.87,101.43,99.07,100.1Z" transform="translate(-0.02 0.02)" fill="#ef0641"/>
    <path d="M112.35,88.59c-.51-4.91-.91-8.52-1.25-12.15-.08-.82.08-1.8,1.11-1.83.47,0,1.43.91,1.36,1.06C111.93,79.5,115.71,83.62,112.35,88.59Z" transform="translate(-0.02 0.02)" fill="#fdfefd"/>
    <path d="M46.59,63.7V87.1C45.57,79.37,46.71,71.61,46.59,63.7Z" transform="translate(-0.02 0.02)" fill="#fafefd"/>
    <path d="M56.07,106.1c-3-.86-3.42-3.45-3.92-6,1.29-1.55,2-3.86,4.77-3.37a2.32,2.32,0,0,1,.82,1c.45,1.72-.52,3.43,0,5.16a4,4,0,0,1-.13,1.94C57.29,105.53,56.63,105.74,56.07,106.1Z" transform="translate(-0.02 0.02)" fill="#e5053e"/>
    <path d="M83.07,40.1c-2.28.64-3.23-2.07-5.25-2.09C80,34.4,83.15,36.58,86,36.62,86.85,39.32,85.38,40.1,83.07,40.1Z" transform="translate(-0.02 0.02)" fill="#f40741"/>
    <path d="M76.07,41.1v1c-.75,1.72-2.08,1.35-3.42,1A6.81,6.81,0,0,0,69,42.55a6.89,6.89,0,0,1-1.25.1,3.56,3.56,0,0,1-2.67-1.55c1.79-2.48,4.63-2,7.09-2.48C73.23,39.83,75.23,39.55,76.07,41.1Z" transform="translate(-0.02 0.02)" fill="#f3073f"/>
    <path d="M83.07,40.1c1.43-.77,2.64-1.72,2.88-3.48L90.07,36C88.87,39.25,87.88,42.91,83.07,40.1Z" transform="translate(-0.02 0.02)" fill="#fb0643"/>
    <path d="M49.13,64.1l-.12-5c.31-.73.38-1.63,1.34-1.9l1.69,1a2.33,2.33,0,0,1,.84,1.69,5.19,5.19,0,0,1-.17,1.27c-.33,1-.56,2-.89,3a1.93,1.93,0,0,1-1.37,1.23C49.7,65.29,49.52,64.6,49.13,64.1Z" transform="translate(-0.02 0.02)" fill="#eb013a"/>
    <path d="M74.07,116c-2.14-3.73,3.25-1.59,3-3.85a1.63,1.63,0,0,1,2.3.09l.07.08a2.87,2.87,0,0,1-.21,3.35C77.58,116.78,75.8,116,74.07,116Z" transform="translate(-0.02 0.02)" fill="#e5073e"/>
    <path d="M60.07,50.1h-2c-1.18-1.52-3.53-2.58-2-5.15l2-2a2.41,2.41,0,0,1,1,3.13C59.26,47.47,61.26,48.39,60.07,50.1Z" transform="translate(-0.02 0.02)" fill="#eb0841"/>
    <path d="M95.07,39.1,96.3,38c2,.07,2.82,1.64,3.82,3a1.29,1.29,0,0,1,.28,1.24c-1.37,1.89-2.75.73-4.14,0A3.7,3.7,0,0,1,94.68,41,1.64,1.64,0,0,1,95.07,39.1Z" transform="translate(-0.02 0.02)" fill="#fc0541"/>
    <path d="M102.07,119.1c-2.32.38-4.56,1.73-7.16.61,1.92-2.43,4.74-2,7.16-2.61A1.46,1.46,0,0,1,102.07,119.1Z" transform="translate(-0.02 0.02)" fill="#fefdfc"/>
    <path d="M50.07,119.1c2.46-2,5.35-.56,8-1a1.35,1.35,0,0,1,.09,1.91l-.09.09h-7C50.78,119.73,50.14,119.7,50.07,119.1Z" transform="translate(-0.02 0.02)" fill="#fcfdfd"/>
    <path d="M58.07,120.1v-2h2c1.67-1.31,3.33-2.36,5,0C63.61,121.84,60.39,119.38,58.07,120.1Z" transform="translate(-0.02 0.02)" fill="#fcfdfb"/>
    <path d="M100.07,42.1V41c1.54,1.5,4.07,2.27,3.79,5.12a1.77,1.77,0,0,0-1.84,2,.91.91,0,0,1-1.18.21A4.66,4.66,0,0,1,99.54,46C99.47,44.64,99.07,43.28,100.07,42.1Z" transform="translate(-0.02 0.02)" fill="#f90745"/>
    <path d="M106.07,81.1v1c1.15,1.78-.14,3.91.84,5.71l.31,1.61-.1,2.67C103.18,88.78,105.13,84.9,106.07,81.1Z" transform="translate(-0.02 0.02)" fill="#f60643"/>
    <path d="M57.07,97.1c-2.28-.06-2.47,3.33-4.92,3-.88-.82-1.57-1.71-1-3A2.69,2.69,0,0,1,53,95.33a6,6,0,0,1,1.33-.21,4.8,4.8,0,0,1,2,.36C56.94,95.85,57.39,96.3,57.07,97.1Z" transform="translate(-0.02 0.02)" fill="#e5063c"/>
    <path d="M76.07,41.1c-1.65-.27-3.28-.57-3.88-2.48,1.5-1.29,3-2.34,5-.89Z" transform="translate(-0.02 0.02)" fill="#ee093c"/>
    <path d="M105.07,58.1l.08-5.22c3,1.79,1.64,4.72,1.91,7.22a1.42,1.42,0,1,1-2-2Z" transform="translate(-0.02 0.02)" fill="#fb0037"/>
    <path d="M56.41,37.58c1.79-1.85,3.35-1.76,4.86-1,.67.33.5,1.15,0,1.63C59.57,39.6,58.29,38.1,56.41,37.58Z" transform="translate(-0.02 0.02)" fill="#fbfefd"/>
    <path d="M59.07,46.1l-1-3.13c1-1.48,2.88-.69,4-1.71C62.29,43.63,61.07,45.1,59.07,46.1Z" transform="translate(-0.02 0.02)" fill="#f00841"/>
    <path d="M90.07,115.1l1,1c-2.55,1.27-5.4-.21-8,.88-.85.19-1.69.36-2.08-.75-.52-1.67.57-2.19,1.84-2.58a15.72,15.72,0,0,1,2.24.11C86.84,113.89,88.67,113.71,90.07,115.1Z" transform="translate(-0.02 0.02)" fill="#ef033a"/>
    <path d="M56.07,44.94l2,5.15-5.11-1C53.78,47.52,53.6,45.23,56.07,44.94Z" transform="translate(-0.02 0.02)" fill="#f10741"/>
    <path d="M65.07,41.1l3,1c.65,3.65-1.68,3.32-4,3-1.64-1.17-.14-2.16.18-3.22Z" transform="translate(-0.02 0.02)" fill="#f00841"/>
    <path d="M83.07,114.1A3.51,3.51,0,0,0,81,116.22l-1.79-.61-.15-3.51a3,3,0,0,1,3.94-.34A1.72,1.72,0,0,1,83.07,114.1Z" transform="translate(-0.02 0.02)" fill="#e3093d"/>
    <path d="M102.07,119.1v-2a3.44,3.44,0,0,1,2-2A1.36,1.36,0,0,1,106,115l.08.08v3A4.3,4.3,0,0,1,102.07,119.1Z" transform="translate(-0.02 0.02)" fill="#fefbfe"/>
    <path d="M70.07,112.1c.09,1.82,2.83,3.11,1.06,5.3a1.86,1.86,0,0,1-2,.57c-1.28-1.37-1-3-.81-4.65C68.6,112.52,69.07,111.9,70.07,112.1Z" transform="translate(-0.02 0.02)" fill="#e5073e"/>
    <path d="M49.2,93l-.13-5.95C51.87,87,52,89,52.23,91c-.21,1.32,0,2.9-2,3.08Z" transform="translate(-0.02 0.02)" fill="#e10032"/>
    <path d="M109.2,65.92v-8.3C112.45,60.58,108.62,63.36,109.2,65.92Z" transform="translate(-0.02 0.02)" fill="#fbfdfe"/>
    <path d="M50.23,94.1c1-.78.8-1.91.84-3,1-.55,1.63.08,2.23.76.31,1.43.89,2.88-.23,4.24l-1.91,1C50.38,96.23,49.61,95.36,50.23,94.1Z" transform="translate(-0.02 0.02)" fill="#ea053e"/>
    <path d="M59.07,106.1c3.44.51.57,2.62,1,3.9-1.67-.73-3.07-1.69-3.16-3.76l.41-.52A1.38,1.38,0,0,1,59.07,106.1Z" transform="translate(-0.02 0.02)" fill="#ed033c"/>
    <path d="M65.07,118.1c-1.67-1.1-3.33.33-5,0v-2a4.06,4.06,0,0,1,4-1C65.25,115.82,65.07,117,65.07,118.1Z" transform="translate(-0.02 0.02)" fill="#fafdfe"/>
    <path d="M105.07,60.1h2l.16,3.69L107,65.06C103.73,64.57,103.48,63.91,105.07,60.1Z" transform="translate(-0.02 0.02)" fill="#fb0643"/>
    <path d="M69.07,113.1V118c-3.88-.1-1.1-3.33-2.22-4.72l.3-.18a1.24,1.24,0,0,1,1.92,0Z" transform="translate(-0.02 0.02)" fill="#dd0028"/>
    <path d="M83.07,117c2.5-1.76,5.33-.44,8-.88l1,1A24.07,24.07,0,0,1,83.07,117Z" transform="translate(-0.02 0.02)" fill="#ce0025"/>
    <path d="M48.07,102.1c1.6.15,2.86.72,2.81,2.59,0,.32-.61.94-.82.9-1.28-.28-1.42-1.57-2-2.49a.6.6,0,0,1-.26-.67Q47.92,102.09,48.07,102.1Z" transform="translate(-0.02 0.02)" fill="#f9fefd"/>
    <path d="M50.07,119.1l1,1c-1.49-.25-3.19.6-4.67-.95C47.69,117.45,48.9,118.7,50.07,119.1Z" transform="translate(-0.02 0.02)" fill="#fefefc"/>
    <path d="M64.07,115.1l-4,1C60.94,113.92,62.07,112.57,64.07,115.1Z" transform="translate(-0.02 0.02)" fill="#fdfbfd"/>
    <path d="M110.07,92.1c-1.85-1.8-.58-3.9,0-5.91Z" transform="translate(-0.02 0.02)" fill="#fafefe"/>
    <path d="M102.07,119.1a6.73,6.73,0,0,1,4-1C105.36,120.93,103.83,120.48,102.07,119.1Z" transform="translate(-0.02 0.02)" fill="#fefdfc"/>
    <path d="M56.88,110c-.47.4-.76.84-1.09.88s-1.06-.17-1.17-.45c-.28-.73.26-1.16,1-1.14C55.94,109.29,56.3,109.66,56.88,110Z" transform="translate(-0.02 0.02)" fill="#fdfbfa"/>
    <path d="M110.07,92.1a2.25,2.25,0,0,1,.68,3.06.78.78,0,0,1-.8,0c-1.37-1.06-.18-2.07.12-3.1Z" transform="translate(-0.02 0.02)" fill="#f9fefd"/>
    <path d="M106.18,100.4l-.11-4.3q-.54-.34-.35-.67t.36-.33l1-1C107.15,96.26,107.25,98.41,106.18,100.4Z" transform="translate(-0.02 0.02)" fill="#f20d45"/>
    <path d="M76.3,120.1c-.28-.4-.75-.79-.69-1.05a1.27,1.27,0,0,1,.93-.74c.68-.05,1.24.36,1,1.1C77.46,119.69,76.83,119.81,76.3,120.1Z" transform="translate(-0.02 0.02)" fill="#fcfcfc"/>
    <path d="M84.63,119.5c-1.6.77-2.7.86-4.06,0C82,117.92,83.07,119.28,84.63,119.5Z" transform="translate(-0.02 0.02)" fill="#fcfdfe"/>
    <path d="M48.07,49.28c-.08.89-.07,2.52-.26,2.54-1.23.16-.55-.93-.66-1.49A3.41,3.41,0,0,1,47.42,49Z" transform="translate(-0.02 0.02)" fill="#f6fefe"/>
    <path d="M110.07,51.1c1.07-1,1.52-.06,1.63.71.16,1.11-.82,1.19-1.63,1.29a1.34,1.34,0,0,1-.11-1.89Z" transform="translate(-0.02 0.02)" fill="#f9fefe"/>
    <path d="M47.07,103.1c-.93.9-1.38.1-1.71-.58a1.75,1.75,0,0,1,.65-2.39l.06,0C46.8,101,47.67,101.79,47.07,103.1Z" transform="translate(-0.02 0.02)" fill="#fbfefd"/>
    <path d="M114.07,59.7c-.28.31-.53.83-.87.91a.63.63,0,0,1-.69-.91c.16-.38.66-.62,1-.92Z" transform="translate(-0.02 0.02)" fill="#fbfefe"/>
    <path d="M110.07,51.1v2c-1.07,1-1.52.06-1.63-.71C108.28,51.28,109.25,51.2,110.07,51.1Z" transform="translate(-0.02 0.02)" fill="#fdfcfd"/>
    <path d="M106.07,115.1h-2v-4.16Z" transform="translate(-0.02 0.02)" fill="#f8fefc"/>
    <path d="M47.07,103.1l-1-3a1.83,1.83,0,0,1,2,2v1Z" transform="translate(-0.02 0.02)" fill="#fefafe"/>
    <path d="M98.07,112.1c.14-2.31,1.46-1.07,2.45-.81a1,1,0,0,1-1,1h-.09A1,1,0,0,1,98.07,112.1Z" transform="translate(-0.02 0.02)" fill="#f3043e"/>
    <path d="M64.29,42l-1.21-.7a.87.87,0,0,1,1.21.7Z" transform="translate(-0.02 0.02)" fill="#f00841"/>
    <path d="M98.07,112.1l1.36.14a1.43,1.43,0,0,1-.32.87Z" transform="translate(-0.02 0.02)" fill="#ec0b41"/>
    <path d="M56.07,106.1l1-1a.59.59,0,0,1,.28.59q-.07.33-.17.33l-.27.22A1.3,1.3,0,0,1,56.07,106.1Z" transform="translate(-0.02 0.02)" fill="#e40845"/>
    <path d="M91.24,99.1,88,104c-.41.94-1,1.62-2.15,1.31-2.17-2-.8-5.73-3.55-7.49a6.19,6.19,0,0,1-.87-1.94,3.68,3.68,0,0,1,.26-2.1c1.36-1.78,1-3.88,1.07-5.91-.14-2.86.36-5.74-.36-8.56-.66-.65-1.48-.41-2.26-.39a5.81,5.81,0,0,1-1.29-.05,7.9,7.9,0,0,1-4-2.21,4,4,0,0,1-.61-1.16,5.75,5.75,0,0,1-.18-1.3,5.87,5.87,0,0,1,.16-1.28,7.28,7.28,0,0,1,1.18-2.24c.47-.69,1-1.37,1.47-2,.69-.83,1.19-1.81,1.92-2.62,1.35-1.14,2.94-1.13,4.56-1,2.32,1,4.19-.47,6.22-1.15a2.74,2.74,0,0,1,1.43,1.66,37.35,37.35,0,0,1,1.32,6.37c.08,6.95.17,13.9,0,20.84C92,94.84,92.07,97,91.24,99.1Z" transform="translate(-0.02 0.02)" fill="#fdfefc"/>
    <path d="M99.07,100.1v4c-2.44-.45-4.14-1-3.79-4.43.14-1.38,1-4.78-2.2-5.57-1-1.14-.53-2.34-.15-3.53a3.5,3.5,0,0,1,1.34-1.73c2-.55,2.49.79,2.83,2.3.08,1.1.33,2.09,1.52,2.52l.44.44Z" transform="translate(-0.02 0.02)" fill="#f00641"/>
    <path d="M86.07,104.94l2-1,1,2.16c-1.09,1.67.48,3.33,0,5-1.74,1.37-3.09.7-4.27-.82a2.9,2.9,0,0,1-.3-1.27c.38-.66.73-1.34.09-2.06a2.77,2.77,0,0,1,0-1.24C84.9,105.1,85.29,104.68,86.07,104.94Z" transform="translate(-0.02 0.02)" fill="#e6073e"/>
    <path d="M94.07,91.1l-1,3c0,1.87.31,3.89-1.84,5-1.85-1.48.8-3-.06-4.51.57-1.16.15-2.53.79-3.67A1.7,1.7,0,0,1,94.07,91.1Z" transform="translate(-0.02 0.02)" fill="#e70635"/>
    <path d="M95.07,110.1c-3.64,2.07-4.2,0-4-3C93.07,107.18,94.19,108.5,95.07,110.1Z" transform="translate(-0.02 0.02)" fill="#e9063d"/>
    <path d="M86.07,104.94l-1,1.07a5,5,0,0,1-2.2,1.79,4.63,4.63,0,0,1-2.9,0,1.78,1.78,0,0,1-1.22-1.67c-2.08-1.48-4.42-1-6.72-.88-1.33-.24-2.81.07-3.93-1-1.71-.11-3-1.72-4.9-1.21a13.75,13.75,0,0,0-1.42-.73,5.57,5.57,0,0,1-1.28-1.05,5.73,5.73,0,0,1-1-1.41A9.25,9.25,0,0,1,59,98.7c-.28-.83-.62-1.64-.89-2.47a8.77,8.77,0,0,1-.67-5.08c.56-7.32.23-14.64.17-22a8.55,8.55,0,0,1,1.68-5.85,3.76,3.76,0,0,1,1.13-1l.74-.17A7.7,7.7,0,0,1,62,62c3.69-.72,4.2,2.86,6.14,4.52a2.29,2.29,0,0,1,.36,1.28c-.39,1.36-1.68,2-2.45,3.06a11.45,11.45,0,0,0-1.29,2.22,36.22,36.22,0,0,0,0,12c.63-.67.93-1.52,1.52-2.17a22.44,22.44,0,0,0,1.89-2.39,10.29,10.29,0,0,1,2.44-2.75,5.7,5.7,0,0,1,1.08-.56c.37-.16.75-.29,1.12-.43a7,7,0,0,1,2.24-.67l4,2,.43.49v.66A6,6,0,0,1,79,80.5a5.86,5.86,0,0,1-.74,1.12,4.75,4.75,0,0,1-1.65,1.14,5.21,5.21,0,0,1-1.43.28,2.73,2.73,0,0,0-1.3.06,2.67,2.67,0,0,1,1.23.73A2.8,2.8,0,0,1,75,86.38c-.76,1.62-2.11,2.82-3,4.32-.72,1.11-1.62,2.08-2.37,3.14a1.63,1.63,0,0,0-.18,1,8.22,8.22,0,0,0,2.35.29,7.66,7.66,0,0,1,1.3.28c1,.34,2,.68,3.06,1a7.65,7.65,0,0,0,4.84.12,6.42,6.42,0,0,1,1.88.26C85.63,98.83,85.83,101.89,86.07,104.94Z" transform="translate(-0.02 0.02)" fill="#fcfdfc"/>
    <path d="M83.07,112.1h-6l-1-2c-.2-2.05,1.24-1.67,2.43-1.64,1.35,1.35,3.53.32,4.88,1.68A1.75,1.75,0,0,1,83.07,112.1Z" transform="translate(-0.02 0.02)" fill="#ea0540"/>
    <path d="M79.07,109.1c-1.1,0-2.28-.17-3,1-1.35-.25-2.49-.68-.77-2a27,27,0,0,1,3.42-1.94l1.35,1.11a.76.76,0,0,1,.3.93A1.75,1.75,0,0,1,79.07,109.1Z" transform="translate(-0.02 0.02)" fill="#e40b3d"/>
    <path d="M57.18,106a5.68,5.68,0,0,1-.11-.93v-2a2.06,2.06,0,0,1,4,0l-2,3Z" transform="translate(-0.02 0.02)" fill="#ec043d"/>
    <path d="M68.07,104.27c1.39,0,3-.75,3.93,1C70.35,106.26,68.3,108.84,68.07,104.27Z" transform="translate(-0.02 0.02)" fill="#f3013c"/>
    <path d="M69.07,113.1H67.16c0-1.21.3-2.33,1.62-2.57,1.1-.2,1.14.82,1.29,1.59Z" transform="translate(-0.02 0.02)" fill="#e5083e"/>
    <path d="M61.07,103.1l-1-1,.1-.41a1.55,1.55,0,0,1,.57-.61l.42-.06,1,1a.71.71,0,0,1,.22.75q-.13.36-.25.36Z" transform="translate(-0.02 0.02)" fill="#e30639"/>
    <path d="M62.07,103.1V102l1.1,1.11Z" transform="translate(-0.02 0.02)" fill="#ed0037"/>
    <path d="M68.07,67.1c-3.45,0-2.83-4.87-6.11-5.05.76-2,3.35.11,4.15-1.82l2-.3a2.8,2.8,0,0,1,2.72-1.36c4.25.34,8.51.1,12.76.18a11.17,11.17,0,0,1,3.16.37,3.14,3.14,0,0,1,1.81,1.37,3.56,3.56,0,0,1,.24,1.44c-.3,2.8-4,1.72-4.69,4.15-1.73.25-3.74-.71-5.08,1.19a2,2,0,0,1-2,.14C73,63.5,73,63.5,68.07,67.1Z" transform="translate(-0.02 0.02)" fill="#fefefe"/>
    <path d="M64.07,45.1c1.26-1.1,3.85-.42,4-3h0c1.67-1.49,3.33.74,5,0a2.65,2.65,0,0,0,3,0,3,3,0,0,1,3,2c-1,2.1-1.94,4.26-2.94,6.38a6.88,6.88,0,0,1-2.72,1.05c-1.5.38-3,.76-4.34-.44C68.07,48.57,64.3,48.29,64.07,45.1Z" transform="translate(-0.02 0.02)" fill="#f30643"/>
    <path d="M69.07,51.1a6.73,6.73,0,0,0,4-1c4,.68,5,3,3.64,6.61a2.36,2.36,0,0,1-3,.91l-.64-.52C72.64,54.5,67.6,55,69.07,51.1Z" transform="translate(-0.02 0.02)" fill="#f30841"/>
    <path d="M70.17,59.53c-.87-.73-1.31.74-2.1.41-.09-4,3-2.5,5-2.84h0a1.7,1.7,0,0,1,.16,2.14A6,6,0,0,1,70.17,59.53Z" transform="translate(-0.02 0.02)" fill="#f30841"/>
    <path d="M106.07,77.1v3c-2.42-.32-4.69.43-7,1-1.08.24-2.14.42-2.69-.92-.24-3-.27-6,1.54-8.62C102.24,70,104.5,71.56,106.07,77.1Z" transform="translate(-0.02 0.02)" fill="#f30640"/>
    <path d="M106.07,95.1v1c-2.37-.51-5.52,1.69-7-2-1.27-1.28-1.47-2.94-1.68-4.61a3.1,3.1,0,0,1,.41-1.37,1,1,0,0,1,1.27,0C101.37,90.46,103,93.49,106.07,95.1Z" transform="translate(-0.02 0.02)" fill="#f00641"/>
    <path d="M99.07,88.1h-1a1,1,0,0,1-1.4-.16h0a6.84,6.84,0,0,1-.16-6.25l.57-.58c.67-.08,1.33-1.11,2,0Z" transform="translate(-0.02 0.02)" fill="#f2063e"/>
    <path d="M105.07,60.1c.45,1.72-1.24,4.26,1.88,5,.77,2.49-1,4.65-.89,7.05-1.7,1.22-3,.19-3.67-1.11-1.73-3.59-5.16-5.51-7.61-8.36a16.47,16.47,0,0,0-4-4.28,6,6,0,0,1-.7-1.11c-1.27-2.14-1.52-5-4.37-6-1.92-1.63-4.06-3.14-3.61-6.16v-1a.61.61,0,0,1,1,0c2.67-3.74,5.33-1.26,8,0l.5.46c1.37,1.52-.49,4.76,2.8,5.24a10.84,10.84,0,0,1,3.38.68,2.75,2.75,0,0,1,1,1c.66,2.44.62,5.25,3.36,6.65h3Z" transform="translate(-0.02 0.02)" fill="#f50845"/>
    <path d="M76.07,50.1c.27-2.36-1.34-5.67,3-6l2,1a8.45,8.45,0,0,1,1.47,5.3C80.26,53,78.17,51.53,76.07,50.1Z" transform="translate(-0.02 0.02)" fill="#f30640"/>
    <path d="M82.07,50.1a8.23,8.23,0,0,1-1-5h1l4,6a1.4,1.4,0,0,1-1,.38,10.27,10.27,0,0,1-1.63-.42A2.64,2.64,0,0,1,82.07,50.1Z" transform="translate(-0.02 0.02)" fill="#f70643"/>
    <path d="M91.07,44.1c-.51-1.09-.76-2.05,1-2A1.79,1.79,0,0,1,94,41.64a2.67,2.67,0,0,1,1.33,1.57,1.48,1.48,0,0,1-.41,1.27,3.45,3.45,0,0,1-2,.53A2.83,2.83,0,0,1,91.07,44.1Z" transform="translate(-0.02 0.02)" fill="#fd0643"/>
    <path d="M94.07,42.1h-2a2.8,2.8,0,0,1,3-3v2C95.3,42,95.07,42.39,94.07,42.1Z" transform="translate(-0.02 0.02)" fill="#f30c45"/>
    <path d="M83.07,44.1h-1c-.43-.43-.87-.86-1.27-1.32,0,0,.35-.53.56-.55C82.67,42.1,83,43,83.07,44.1Z" transform="translate(-0.02 0.02)" fill="#fa0644"/>
    <path d="M54.07,59.1l3-1,3,3,.41.54-.23.63a5.06,5.06,0,0,1-1.44,1.42,4.55,4.55,0,0,1-2,.34,4.09,4.09,0,0,1-3-1.65A3.82,3.82,0,0,1,53.37,61,2.32,2.32,0,0,1,54.07,59.1Z" transform="translate(-0.02 0.02)" fill="#ee063f"/>
    <path d="M60.07,62.1v-1l1.08,1.09h0a.68.68,0,0,1-1.08-.09Z" transform="translate(-0.02 0.02)" fill="#fe0241"/>
    <path d="M54.07,59.1v2a.87.87,0,0,1-1.16.16A2.63,2.63,0,0,1,52.6,60c0-.66-.11-1.35.48-1.87Z" transform="translate(-0.02 0.02)" fill="#f7033e"/>
    <path d="M53.07,58.1v2q-.5.68-1,0V58.15Z" transform="translate(-0.02 0.02)" fill="#ef053e"/>
    <path d="M95.07,62.1c3.15,2.39,6.9,4.15,8.12,8.48.3,1,1.64,1.53,2.88,1.53v5c-2.25-2.33-3.15-6.81-8-5l-.47-.41c-.61-1.09-.87-2.36-1.74-3.32-1-1.79-2-3.58-1.27-5.77Z" transform="translate(-0.02 0.02)" fill="#f50741"/>
    <path d="M106.92,87.82c-1.67-1.7-.49-3.82-.84-5.71C107.79,83.8,106.87,85.88,106.92,87.82Z" transform="translate(-0.02 0.02)" fill="#e5002c"/>
    <path d="M90.07,115.1h-6a.85.85,0,0,1-.3-.81c.07-.29.14-.43.21-.43,1-.59,2.16-.15,3.24-.17.65.15-.17-1.1,0-.45s0,.43-.43.33c-1.16-.24-2.56-.08-1.32-1.91,1.23,0,2.49-.36,3.61.43C91.72,112.33,89.7,114.1,90.07,115.1Z" transform="translate(-0.02 0.02)" fill="#e70640"/>
    <path d="M89.07,112.1h-4c-.55.56-.24,1.55-1,2v1l-1-1v-4a1.82,1.82,0,0,1,1-1.36.88.88,0,0,1,1,.36c.76,1.82,2.29,2.09,4,2Z" transform="translate(-0.02 0.02)" fill="#e7073d"/>
    <path d="M102.07,58.1c-6.21.45-3.31-4.3-4-7a7,7,0,0,1,3,0C103,53.21,101.68,55.77,102.07,58.1Z" transform="translate(-0.02 0.02)" fill="#f80a43"/>
    <path d="M101.07,51.1a2.65,2.65,0,0,1-3,0h0c-.67-.55-1.51-1-1.49-2a1.62,1.62,0,0,1,1.27-1.37,4.91,4.91,0,0,1,3.22.41h1Z" transform="translate(-0.02 0.02)" fill="#fc0645"/>
    <path d="M58.41,92c-.82,1.82,1.34,3.21.71,5L59,97.6a2.55,2.55,0,0,1-.86.75,1,1,0,0,1-1-.23v-1l-1-1c-1-.79-1.19-2.05-1.86-3-.32-.39-.43-1-1.14-1l-2-1c.08-1.71-.17-3.24-2-4v-3a4.72,4.72,0,0,0,.9-1.59c.32-.8.61-1.62,1.68-1.68,1,.33,1.3,1.15,1.66,2,1.5,2.21,1.93,5,4,6.88A3,3,0,0,1,58.41,92Z" transform="translate(-0.02 0.02)" fill="#e4073e"/>
    <path d="M50.07,83.1l-1,1a140.07,140.07,0,0,1,.1-20l.94,1a4.15,4.15,0,0,1,1.24,2.46C51.37,72.77,52.21,78.1,50.07,83.1Z" transform="translate(-0.02 0.02)" fill="#da0023"/>
    <path d="M57.07,98.1h1.44a2.05,2.05,0,0,1,.81.31,1.57,1.57,0,0,1,.59.63,2.17,2.17,0,0,1,.2.91,2.27,2.27,0,0,1,.42,1.07,1.77,1.77,0,0,1-.46,1h0l-3,1C54.91,101.43,57.31,99.77,57.07,98.1Z" transform="translate(-0.02 0.02)" fill="#e1093e"/>
    <path d="M73.07,42.1c-1.67,1.79-3.33-.7-5,0C69.74,40.2,71.4,41.4,73.07,42.1Z" transform="translate(-0.02 0.02)" fill="#ee0943"/>
    <path d="M50.07,67.1v-2l1-1c1.29-.43,2,.28,2.66,1.26a11.7,11.7,0,0,1,.64,4.76,6.56,6.56,0,0,1-.85,3.71c-1.93,1.06-2.07-.53-2.35-1.69-.33-1.39.18-2.86-.28-4.24Z" transform="translate(-0.02 0.02)" fill="#eb063d"/>
    <path d="M53.07,65.1l-2-1c0-1.1-.17-2.28,1-3a1.51,1.51,0,0,0,1,0h1v1a1.93,1.93,0,0,1,.49,1.82A2,2,0,0,1,53.07,65.1Z" transform="translate(-0.02 0.02)" fill="#e7083e"/>
    <path d="M53.07,61.1c-.34.7-.68.67-1,0v-1h1Z" transform="translate(-0.02 0.02)" fill="#eb073e"/>
    <path d="M98.07,48.1l-1,1c-1.74.33-2.11-1-2.67-2.15a2.85,2.85,0,0,1,.67-2.85h0a7.36,7.36,0,0,1,2-3c.91.61,1.51,2.12,3,1,0,1.33,1,2.67,0,4C100.52,47.88,99.14,47.84,98.07,48.1Z" transform="translate(-0.02 0.02)" fill="#f90747"/>
    <path d="M97.07,41.1a3,3,0,0,1-2,3l-1-2,1-1Z" transform="translate(-0.02 0.02)" fill="#fd0547"/>
    <path d="M98.07,48.1l2-2a2.06,2.06,0,0,1,1,2C100.07,48.37,99.07,49.69,98.07,48.1Z" transform="translate(-0.02 0.02)" fill="#f70a46"/>
    <path d="M54.07,92.1c2.68.33,1.81,2.43,2,4h-2A3.6,3.6,0,0,1,54.07,92.1Z" transform="translate(-0.02 0.02)" fill="#e2073d"/>
    <path d="M54.07,92.1v4h-1c0-1.33-1-2.67,0-4C53.4,91.42,53.74,91.42,54.07,92.1Z" transform="translate(-0.02 0.02)" fill="#ec043f"/>
    <path d="M91.07,58.1a4.17,4.17,0,0,1,4,4h0c-1.62.93-.24,6.61-4.74,3L89.07,64c-.84-.41-.52-1.4-1-2a1.34,1.34,0,0,1,.11-.93c.36-.75,0-1.69.63-2.38S90.07,57.47,91.07,58.1Z" transform="translate(-0.02 0.02)" fill="#f50741"/>
    <path d="M90.33,65.1c3.32,1.76,2.63-2.84,4.74-3a9.44,9.44,0,0,0,2,6c.46,1.31-.57,1.54-1.38,1.93A18,18,0,0,0,92,71.44a.67.67,0,0,1-.8-.71C90.79,68.87,89.63,67.1,90.33,65.1Z" transform="translate(-0.02 0.02)" fill="#f30642"/>
    <path d="M65.39,70.1c0-1.79,2.09-1.12,2.68-2.23a2.54,2.54,0,0,1,1.79-.47,10.86,10.86,0,0,1,1.24.25c1.83.55,3.86-.07,5.62.92l.42.49c-.18.74.15,1.72-.94,2A15.93,15.93,0,0,1,68.65,73a4.23,4.23,0,0,1-2.76-1.45A3.49,3.49,0,0,1,65.39,70.1Z" transform="translate(-0.02 0.02)" fill="#ec063d"/>
    <path d="M91.2,70.72l.76.6a3.54,3.54,0,0,1,1.33,2.4c-.22,5.8,1.39,11.73-1.17,17.37l-.93,3.46Q91.19,82.64,91.2,70.72Z" transform="translate(-0.02 0.02)" fill="#fdf9fa"/>
    <path d="M88.07,62c1,.3.91,1.2,1,2-.74,2.94-2.53,3.4-5,2.11.17-1.32-2.53-4.8,2.13-2.79C86.58,63.47,87.47,62.47,88.07,62Z" transform="translate(-0.02 0.02)" fill="#fafefd"/>
    <path d="M68.07,72.1c2.74-.07,5.31-1.55,8.13-.95l-1.34,2a3.53,3.53,0,0,1-1.88,1,10.71,10.71,0,0,1-3.61-.08,3.75,3.75,0,0,1-1.3-.64A1,1,0,0,1,68.07,72.1Z" transform="translate(-0.02 0.02)" fill="#f40441"/>
    <path d="M83.07,77.42c1.69,3.35,0,7,.92,10.42a.71.71,0,0,1-1.24.17,6.6,6.6,0,0,1-1-3.77V82.66C81.87,80.83,81.54,78.9,83.07,77.42Z" transform="translate(-0.02 0.02)" fill="#ee0a3d"/>
    <path d="M77.07,67l1.93.27c.29,1.53-.63,1.82-1.85,1.82l-.46-.06c-2.06-1.07-4.32-.07-6.44-.6l-.18-.35C71.91,64.36,74.5,65.77,77.07,67Z" transform="translate(-0.02 0.02)" fill="#e03768"/>
    <path d="M82.87,96.76l-1.8.34a7,7,0,0,1-5,.09c-1-.53-2.36.14-3.07-1.11,1.32-1.49,3.12-1.29,4.84-1.35a5,5,0,0,1,4,1.38Z" transform="translate(-0.02 0.02)" fill="#eb0c43"/>
    <path d="M81.81,96.16l-3.74-.06a1.38,1.38,0,0,1-.34-1.25,3.47,3.47,0,0,1,2.34-2.45,2.73,2.73,0,0,1,2,.4,1.14,1.14,0,0,1,.31.84q0,.46-.12.46Z" transform="translate(-0.02 0.02)" fill="#e9053c"/>
    <path d="M83.07,77.42l-.15,5.46c-1.94.25-1.63-1.63-2.39-2.5a6.1,6.1,0,0,1-.63-1.11,1.12,1.12,0,0,1,.17-1.17C81.07,77.94,81.79,76.47,83.07,77.42Z" transform="translate(-0.02 0.02)" fill="#e30029"/>
    <path d="M82.27,94.1a1.14,1.14,0,0,1,0-.94A7.23,7.23,0,0,1,82,91.25c.12-1.07.09-2.21,1.25-2.81a6.14,6.14,0,0,0,.73-.6C83.49,90,85.63,92.77,82.27,94.1Z" transform="translate(-0.02 0.02)" fill="#fdf9fa"/>
    <path d="M88.43,76.44l-1.36-4.18C89.07,73.62,89.74,74.63,88.43,76.44Z" transform="translate(-0.02 0.02)" fill="#fafefe"/>
    <path d="M86.07,77.1c-.21,1.17,1.2,2.34.17,3.67-1.76-1-.94-2.47-1.17-3.67C85.4,76.63,85.74,76.66,86.07,77.1Z" transform="translate(-0.02 0.02)" fill="#fbfefe"/>
    <path d="M86.07,77.1h-1V73.41C86.59,74.5,85.86,75.91,86.07,77.1Z" transform="translate(-0.02 0.02)" fill="#f6fcfb"/>
    <path d="M75.07,76.1a3.44,3.44,0,0,1-2,2A1.91,1.91,0,0,1,72.46,77c0-.22,0-.43.07-.65l.28-.59a3.31,3.31,0,0,1,1-.82,1.28,1.28,0,0,1,1.26.17Z" transform="translate(-0.02 0.02)" fill="#fefefe"/>
    <path d="M73.07,73.1h1.77A2.26,2.26,0,0,1,75,74a1.35,1.35,0,0,1-1,.63,1.74,1.74,0,0,1-1.15-.44A.82.82,0,0,1,73.07,73.1Z" transform="translate(-0.02 0.02)" fill="#ce002a"/>
    <path d="M74.26,74.17A3.09,3.09,0,0,0,75,74v1.11a3,3,0,0,0-.86.13l-.44-.56Z" transform="translate(-0.02 0.02)" fill="#fdf9fa"/>
    <path d="M80.07,78.1a5.93,5.93,0,0,0-.19.72l-.32.48L79,79v-.93Z" transform="translate(-0.02 0.02)" fill="#fdf9fa"/>
    <path d="M92.07,91.1v-18c1.22-.44,1.92.22,2.5,1.16a4.46,4.46,0,0,1,.18,2.26c-.86,3.92-.06,7.92-.56,11.86a3.76,3.76,0,0,1-.14.73v2Z" transform="translate(-0.02 0.02)" fill="#eb093d"/>
    <path d="M97.07,88.1h1v1c-.83.89.55,3.26-2,3,0-1.45,0-2.91-2-3h0c-.83-1.15-.39-2.45-.42-3.69a2.48,2.48,0,0,1,1.51-1.58C97.79,84.36,95.68,87,97.07,88.1Z" transform="translate(-0.02 0.02)" fill="#ee0742"/>
    <path d="M96.07,92.1l2-3a8.23,8.23,0,0,1,1,5C97.4,94.44,95.62,95,96.07,92.1Z" transform="translate(-0.02 0.02)" fill="#f30542"/>
    <path d="M85.07,109.1h-1c-1.06.74-1.85.61-2.23-.73.39-.83,1.21-.74,1.91-.9a2.12,2.12,0,0,1,1.32.63Z" transform="translate(-0.02 0.02)" fill="#f0043c"/>
    <path d="M83,107.1c.27-1.16,1.28-.89,2.06-1v1a1.24,1.24,0,0,1-1,.48A1.21,1.21,0,0,1,83,107.1Z" transform="translate(-0.02 0.02)" fill="#d02"/>
    <path d="M84.07,107.1h1c.68.32.72.66,0,1h-1q-.5-.33-.33-.66T84.07,107.1Z" transform="translate(-0.02 0.02)" fill="#de0d3c"/>
    <path d="M77.07,67c-2.28.66-4.83-.42-7,1l-2-.14v-.82c.93-2,1.23-4.28,4.51-4.1C75.5,63.1,76.73,64.38,77.07,67Z" transform="translate(-0.02 0.02)" fill="#fafefe"/>
    <path d="M65.39,70.1l.73,1c.35,4,.51,8,1.06,12L65.07,87c-.76.16-1.38-.15-1.36-.89.12-4.66-.66-9.36.41-14Z" transform="translate(-0.02 0.02)" fill="#df0236"/>
    <path d="M67.19,83.15a12.5,12.5,0,0,1-1.06-12l2,1v1c.29,2.66.49,5.32.83,8C68.89,82.23,68.07,82.68,67.19,83.15Z" transform="translate(-0.02 0.02)" fill="#ed063e"/>
    <path d="M58.41,92l-1-1.82a8.72,8.72,0,0,1-.66-2.39c-.13-5.2-.09-10.41,0-15.62a8.32,8.32,0,0,1,.54-3.14,1.55,1.55,0,0,1,1.19-.91A91.32,91.32,0,0,1,58.41,92Z" transform="translate(-0.02 0.02)" fill="#fcf2f5"/>
    <path d="M71.24,90.1c.32-1.9,2.42-2.45,3.1-4.07a1.36,1.36,0,0,1,2.29.34,4.92,4.92,0,0,1,.46,2c-.2,1.76,0,3.62-1.19,5.15a3.08,3.08,0,0,1-2.7.16C71.67,93,71.43,91.56,71.24,90.1Z" transform="translate(-0.02 0.02)" fill="#ee033e"/>
    <path d="M68.9,81.1c-2-2.48-2.81-5.08-.83-8h1A10.06,10.06,0,0,1,71.39,77a1.52,1.52,0,0,1-.27,1.22Z" transform="translate(-0.02 0.02)" fill="#ef053c"/>
    <path d="M71.24,90.1l1.83,3a4,4,0,0,1-.2,1.86,3.81,3.81,0,0,1-.79,1c-1.3-.06-2.59-.11-3.89-.19-.11,0-.2-.18-.3-.28l.36-.34a.79.79,0,0,0,0-1C68.51,92.25,70.59,91.72,71.24,90.1Z" transform="translate(-0.02 0.02)" fill="#e9053c"/>
    <path d="M64.07,72.1C64.73,77,62.59,82.16,65,87c-.23,1.34-1.57,2.56-1.67.64C63.07,82.48,62,77.17,64.07,72.1Z" transform="translate(-0.02 0.02)" fill="#fcf2f5"/>
    <path d="M57.07,63.1h2l.57-.43.5.5-1.67,5a.61.61,0,0,1-.49-.1c-1.06.51-1.71-.11-2.31-.85a3,3,0,0,1-.19-2A5.24,5.24,0,0,1,57.07,63.1Z" transform="translate(-0.02 0.02)" fill="#f30540"/>
    <path d="M75.22,84.16a4.93,4.93,0,0,1-3.82-2h5.48l.46.32V83l-.23.51a2.88,2.88,0,0,1-.87.71A1.31,1.31,0,0,1,75.22,84.16Z" transform="translate(-0.02 0.02)" fill="#f4fefd"/>
    <path d="M79.88,78.82l1.2.29c.89,1.33.26,2.85.57,4.26a1.79,1.79,0,0,1-.78,1.11A2.41,2.41,0,0,1,78,83.15a11.83,11.83,0,0,0-.76-1.09l-.36.08L78,81.07a6.37,6.37,0,0,0,1.88-2.24Z" transform="translate(-0.02 0.02)" fill="#e60c40"/>
    <path d="M61.23,76.83c-1.55-1.24-1.27-2.47-.81-3.68A.87.87,0,0,1,61.2,73C62.23,74.1,62.35,75.27,61.23,76.83Z" transform="translate(-0.02 0.02)" fill="#fbfefe"/>
    <path d="M72.07,95.93V95.1c2-1.24,4-1.56,6,0v1h-5A2,2,0,0,1,72.07,95.93Z" transform="translate(-0.02 0.02)" fill="#e1002e"/>
    <path d="M76.07,97.23l5-.09a3.53,3.53,0,0,1-5,.1Z" transform="translate(-0.02 0.02)" fill="#fdf6f8"/>
    <path d="M84.07,107.1v1h-2a1.4,1.4,0,0,1-2,0l0,0v-.83l2.9-.2Z" transform="translate(-0.02 0.02)" fill="#e50837"/>
    <path d="M75.22,84.16A6.86,6.86,0,0,0,76,84l.41.29a1.38,1.38,0,0,1,.19,1,1.32,1.32,0,0,1-.55.79H74.35Z" transform="translate(-0.02 0.02)" fill="#db0022"/>
    <path d="M79.9,78.83c.21,1.45-.44,2.18-1.88,2.24a3.43,3.43,0,0,0,.12-.81,10.47,10.47,0,0,1,.93-1.16h0Z" transform="translate(-0.02 0.02)" fill="#e00025"/>
    <path d="M59.9,99.1h-.82a2.11,2.11,0,0,1-.47-.91,1.24,1.24,0,0,1,.4-.91l.11-.25C60.22,97.4,60.07,98.23,59.9,99.1Z" transform="translate(-0.02 0.02)" fill="#d50022"/>
    <path d="M60.07,101.1V100l1,1-.19.13a.57.57,0,0,1-.81,0Z" transform="translate(-0.02 0.02)" fill="#ea0034"/>
    <path d="M79.07,79.1l-.91,1.17Z" transform="translate(-0.02 0.02)" fill="#fbe9ef"/>
    <path d="M68.23,94.1a3.47,3.47,0,0,1,.32.68c0,.07-.2.21-.31.31Z" transform="translate(-0.02 0.02)" fill="#d00002"/>
    <path d="M72.94,76.86l.13,1.24L72,78a.81.81,0,0,1-.26-.68c0-.25.08-.37.14-.37A1.11,1.11,0,0,1,72.94,76.86Z" transform="translate(-0.02 0.02)" fill="#fbe9ef"/>
    <path d="M72.07,77.1a2.41,2.41,0,0,1-.15.94,6.57,6.57,0,0,0-.84.16V77.09l.52-.25Z" transform="translate(-0.02 0.02)" fill="#ea063a"/>
    <path d="M60.07,62.1h1.08l-1,1L60,62.94a.59.59,0,0,1-.17-.62Q60,62,60.09,62Z" transform="translate(-0.02 0.02)" fill="#e7002c"/>
    <path d="M80.07,108.1h2a2.06,2.06,0,0,0,2,1l-1,1c-1.21-.85-3.35,2.06-4-1Z" transform="translate(-0.02 0.02)" fill="#ec053f"/>
    <path d="M60.07,101.1a6.58,6.58,0,0,1,.89.06l-.89.94Z" transform="translate(-0.02 0.02)" fill="#eb0640"/>
    <path d="M91.07,58.1l-2,1c-.45.78-1.36.44-2,.82L84.2,60c-2.91-1-5.94-.1-8.88-.56-1.09-2.1,1-1.7,1.82-2.36,3-.08,5-1.43,5.28-4.65a3.22,3.22,0,0,1,1.65-2.36l1,1a27,27,0,0,1,6,6Z" transform="translate(-0.02 0.02)" fill="#f40640"/>
    <path d="M75.07,59c3,.49,6.25-.72,9.12,1.06-4.68-.21-9.41.79-14-.5l2.88-.43A1.48,1.48,0,0,1,75.07,59Z" transform="translate(-0.02 0.02)" fill="#fcedf0"/>
    <path d="M87.07,59.92l2-.82-.85,2Z" transform="translate(-0.02 0.02)" fill="#f5043f"/>
    <path d="M84.07,50.1c-1.48,3.06.68,8.88-6,8-.48-.67-1.5-.27-2-1,0-2.78.56-5.76-3-7h3c2-.77,4,1.64,6,0Z" transform="translate(-0.02 0.02)" fill="#f30642"/>
    <path d="M76.07,57.1a2,2,0,0,1,2,1c-1,.06-2.19-.16-2.93.89l-2,.13v-2Z" transform="translate(-0.02 0.02)" fill="#f10137"/>
    <path d="M98.07,72.1l-1,9h0a1,1,0,0,1-1.4-.19l0-.07c-1.4-2.41-.51-4.9-.25-7.37.59-1.07,1.36-1.78,2.7-1.37Z" transform="translate(-0.02 0.02)" fill="#f40545"/>
    <path d="M96.07,81.1h1v7c-1.62-.86-.38-3.14-2-4a2.21,2.21,0,0,1-.35-2.85A.92.92,0,0,1,96,81Z" transform="translate(-0.02 0.02)" fill="#f60443"/>
    <path d="M91.07,44.1h2c1,.93,1,2.29,1.58,3.42a3.09,3.09,0,0,1-.58,3.58C88.68,50.65,92.07,46.44,91.07,44.1Z" transform="translate(-0.02 0.02)" fill="#f70a43"/>
    <path d="M91.07,57.1c-2.29-1.71-5.09-2.91-6-6h1c1-.25,2.53-1.53,2.73.22C89.07,53.55,91,54.92,91.07,57.1Z" transform="translate(-0.02 0.02)" fill="#f30642"/>
    <path d="M94.07,51.1v-4a.6.6,0,0,1,1,0l2,2,1,2Z" transform="translate(-0.02 0.02)" fill="#f80644"/>
    <path d="M95.07,47.1h-1c-1.18-.72-1-1.9-1-3h2Z" transform="translate(-0.02 0.02)" fill="#f90842"/>
    <path d="M57.07,63.1a2.06,2.06,0,0,1-1,2,1.69,1.69,0,0,1-2,.27.8.8,0,0,1,0-1.27v-2Z" transform="translate(-0.02 0.02)" fill="#eb0540"/>
    <path d="M60.07,62.1V63a9.44,9.44,0,0,1-1,.09Z" transform="translate(-0.02 0.02)" fill="#fb0346"/>
    <path d="M98.07,72.1l-2,1-.49.41-.6-.23c-.56-1.41-1-2.81.09-4.18a2.06,2.06,0,0,0,2-1C98.53,69.15,97.93,70.72,98.07,72.1Z" transform="translate(-0.02 0.02)" fill="#f20743"/>
    <path d="M84.07,114.1a2.06,2.06,0,0,1,1-2c.6,1.25,2.08.67,3.38,1.77Z" transform="translate(-0.02 0.02)" fill="#ea0442"/>
    <path d="M51.07,67.1c2.48,1.81-.39,5.16,2,7a4.13,4.13,0,0,1,1.78,2.32,8,8,0,0,1,.4,2.27c-.22,2.07-.06,4.42-3.18,4.41a2.06,2.06,0,0,0-1-2A41.16,41.16,0,0,1,51.07,67.1Z" transform="translate(-0.02 0.02)" fill="#e7083e"/>
    <path d="M52.07,83.1c2.33-1,2-3.07,2-5A1.77,1.77,0,0,1,56.31,78c1.44,2.71.44,5.64.76,8.45a3.32,3.32,0,0,0,1,2.62c.24.6.06,1-.57,1.12-.83-.07-1.82.86-2.41-.64C54.16,87.37,53.07,85.25,52.07,83.1Z" transform="translate(-0.02 0.02)" fill="#e8063f"/>
    <path d="M51.07,67.1v14a2.06,2.06,0,0,1-1,2v-16Z" transform="translate(-0.02 0.02)" fill="#eb0540"/>
    <path d="M59.07,97.28a5.76,5.76,0,0,1,0,.82.64.64,0,0,1-.9.1l-.1-.1h0Z" transform="translate(-0.02 0.02)" fill="#f20035"/>
    <path d="M58.07,98.1h1v1Z" transform="translate(-0.02 0.02)" fill="#f60344"/>
    <path d="M54.07,64.1v1a10.57,10.57,0,0,1,1.79,3.83A3,3,0,0,1,55.37,71c-1.21.81-1.71-.16-2.3-.91v-5Z" transform="translate(-0.02 0.02)" fill="#ed043f"/>
    <path d="M53.07,70.1l2,1a2.41,2.41,0,0,1,.78,2,3.8,3.8,0,0,1-1.78,3,2.06,2.06,0,0,1-1-2Z" transform="translate(-0.02 0.02)" fill="#e8063f"/>
    <path d="M95.07,69.1c0,1.33,1,2.67,0,4a1.18,1.18,0,0,1-1,1l-2-1-.13-1.77C92.07,69.32,93.44,69,95.07,69.1Z" transform="translate(-0.02 0.02)" fill="#f60543"/>
    <path d="M70.25,68.45c2.15.12,4.44-1.2,6.44.6C74.54,68.85,72.3,69.74,70.25,68.45Z" transform="translate(-0.02 0.02)" fill="#e20029"/>
    <path d="M71.07,77.1c-1.81-.76-2.09-2.29-2-4h4v1a1.19,1.19,0,0,1,.45.95q-.06.55-.13,1.1a1.17,1.17,0,0,1-.51-.07c-.39.72-1.38.39-1.82,1Z" transform="translate(-0.02 0.02)" fill="#ee063c"/>
    <path d="M83.25,88.44l-.18,3.66c-2.81-.47-1.94-2.77-2.25-4.49a5.31,5.31,0,0,1,.82-3.11.74.74,0,0,1,1.27-.27Z" transform="translate(-0.02 0.02)" fill="#db0027"/>
    <path d="M82.88,84.21a3.31,3.31,0,0,0-.79-.1.62.62,0,0,1-1,0v-5c1.6.77.34,2.93,1.82,3.76C82.89,83.32,82.88,83.76,82.88,84.21Z" transform="translate(-0.02 0.02)" fill="#f50440"/>
    <path d="M82.07,87.1c.27,1.68-.64,3.58,1,5,.19.69-.23.94-.79,1.08l-2.21-.08a2.55,2.55,0,0,1-1.6-1.82c-.14-.94-.07-1.95-.81-2.72s-.9-1.74-1.58-2.46h0v-1a1.72,1.72,0,0,0,.56-1.24L77,83l-.06.08a7.88,7.88,0,0,0,1.09-1l2,2A2.88,2.88,0,0,0,82.07,87.1Z" transform="translate(-0.02 0.02)" fill="#ee0a3d"/>
    <path d="M79.07,91.1l1,2-2,2h-6a2.06,2.06,0,0,1,1-2h3a3.19,3.19,0,0,0,1.07-1.38,3.29,3.29,0,0,1,.84-.89A.94.94,0,0,1,79.07,91.1Z" transform="translate(-0.02 0.02)" fill="#e6073f"/>
    <path d="M71.07,77.1l1.82-1a5.23,5.23,0,0,1,0,.79,4,4,0,0,0-.83.25Z" transform="translate(-0.02 0.02)" fill="#e30021"/>
    <path d="M73.41,76.1a2.51,2.51,0,0,0-.18-.59q.1-.9.88-.43l.1.12Z" transform="translate(-0.02 0.02)" fill="#fdf9fa"/>
    <path d="M74.07,75.1a2.58,2.58,0,0,1-.88.43l-.12-1.43,1.18.08A7,7,0,0,1,74.07,75.1Z" transform="translate(-0.02 0.02)" fill="#da0028"/>
    <path d="M94.07,85.1v4a18,18,0,0,1,0-13C96,79.1,94.32,82.1,94.07,85.1Z" transform="translate(-0.02 0.02)" fill="#f60036"/>
    <path d="M94.07,85.1v-11l1-1h0a14,14,0,0,1,0,8v3Z" transform="translate(-0.02 0.02)" fill="#f00741"/>
    <path d="M58.07,89.1a2,2,0,0,1-2-1c1.18-4.41.38-8.79-.22-13.18.09-.56.17-1.11.24-1.67.22-1.11.36-2.31,2-2.15Z" transform="translate(-0.02 0.02)" fill="#e1063a"/>
    <path d="M58.07,71.1a2.1,2.1,0,0,0-1,2,1.33,1.33,0,0,1-1.88.12l-.12-.12v-4c.58-.54.19-1.57,1-2l1.91,1A3,3,0,0,1,58.07,71.1Z" transform="translate(-0.02 0.02)" fill="#eb063e"/>
    <path d="M78.07,92.1c-.52.62-.56,2.22-2,1-1.11-1.67.33-3.33,0-5C79.34,88.1,76.84,91,78.07,92.1Z" transform="translate(-0.02 0.02)" fill="#e9053c"/>
    <path d="M78.07,92.1c-1.62-.86-.38-3.14-2-4v-2a3.4,3.4,0,0,1,2,2,2.2,2.2,0,0,1,0,3Z" transform="translate(-0.02 0.02)" fill="#ed0344"/>
    <path d="M56.07,67.1a2.07,2.07,0,0,1-1,2,6.67,6.67,0,0,1-1-4h2Z" transform="translate(-0.02 0.02)" fill="#e4093d"/>
    <path d="M78.07,82.1,77,83.1l.29-1Z" transform="translate(-0.02 0.02)" fill="#cd0016"/>
    <path d="M77,83v1.1a.62.62,0,0,1-.87.12l0,0L76,84Z" transform="translate(-0.02 0.02)" fill="#d10020"/>
    <path d="M82.07,87.1c-2.88.47-2.26-1.37-2-3h2Z" transform="translate(-0.02 0.02)" fill="#f90241"/>
    <path d="M76.16,84.18q.44-.07.89-.1l-1,1A7.09,7.09,0,0,1,76.16,84.18Z" transform="translate(-0.02 0.02)" fill="#ea0024"/>
    <path d="M95.07,81.1v-8h1v8Z" transform="translate(-0.02 0.02)" fill="#ef0746"/>
    <path d="M55.07,73.1h2v1c-1.11,1.13.1,2.84-1,4h-2v-2Z" transform="translate(-0.02 0.02)" fill="#ef0340"/>
    <path d="M56.07,78.1c.16-1.37-.47-2.93,1-4-.49,4.65,1.1,9.44-1,14Z" transform="translate(-0.02 0.02)" fill="#e3002e"/>
    <path d="M78.07,91.1v-3c2.62.24,1.54,1.71,1,3Z" transform="translate(-0.02 0.02)" fill="#f30440"/>
  </g>
</svg>
