<svg id="Layer_1" data-name="Layer 1" xmlns="http://www.w3.org/2000/svg" width="155.28" height="155.26" viewBox="0 0 155.28 155.26">
  <title>cs_partiring_guldborgssundlisten-md</title>
  <g>
    <path d="M341.88,270c-24.17,0-48.33-.12-72.5.12-4,0-4.47-1.21-4.46-4.74q.18-72.75-.06-145.5c0-4.56,1.35-5,5.26-5q72.5.2,145-.05c4.56,0,5,1.35,5,5.26q-.2,72.5.05,145c0,4.56-1.35,5-5.26,5C390.55,269.91,366.21,270,341.88,270Z" transform="translate(-264.86 -114.86)" fill="#fefefe"/>
    <path d="M415,193.07A72.25,72.25,0,0,1,343.06,265c-39.69,0-72.27-32.66-72-72.31s32.72-71.81,72.18-71.67A72.25,72.25,0,0,1,415,193.07Z" transform="translate(-264.86 -114.86)" fill="#f5dd01"/>
    <path d="M405,193.19A62,62,0,1,1,343.32,131,61.9,61.9,0,0,1,405,193.19Z" transform="translate(-264.86 -114.86)" fill="#fefefe"/>
    <path d="M348.06,221c.93-1.81,1.67-3.77,3.79-4.59-.18-2.23,1-4.13,1.48-6.2s-.33-4.42.62-6.53l-2.09-2.61a8.29,8.29,0,0,0-.21-2.51c-.23-2.43-2.22-3.92-3.16-6-.39-1.33.27-2.53.46-3.79-.33-4.43-3.88-8.07-8.86-8.74-1.84-.25-3.66-.15-4.74-2a16.31,16.31,0,0,1-7.75,0c-3.11,3.37-8.13,3.07-11.5,6a4.51,4.51,0,0,1-5.11,0,32.34,32.34,0,0,1,13.73-18.09,9.68,9.68,0,0,0,3.26-2.67c3.38-2.14,7.23-2.62,11.08-3.11a13.18,13.18,0,0,0,6.87,0c2-.42,3.54.75,5.08,1.77a5.61,5.61,0,0,0,5,1.07c6.76,3.38,11.48,9,15.72,15,2.27,3.18,2.62,7.26,3.12,11.13-1,2.26.28,4.77-.79,7l.06-.1a5.06,5.06,0,0,0-.14,5c-.32,1.82-.55,3.67-2.05,5-.9,1.44-2,2.79-2.84,4.24-3.33,6.75-9.53,9.91-15.95,12.8C350.78,224,349,223.55,348.06,221Z" transform="translate(-264.86 -114.86)" fill="#48bbe4"/>
    <path d="M321.06,199c-.31-4,4-5.06,5.27-8.09,1.56-.64,3.24-.59,4.86-.91,1.66,0,3.4-.31,4.81,1,2.81-.67,4.87,4.42,8,1,2.14,1.41,3.86,3,3,6-3.74,1-7.55.18-11.31.51-1.57.14-3.3-.7-4.71.66,0,.16,0,.33,0,.49,0,2.77-.82,6,.34,8.19,1.4,2.63,5.07.57,7.63,1.3a4.31,4.31,0,0,1,1.14.8c-2.82,1.21-5.83.07-8.36.61,2.86.19,6.11-.63,9.28.44-1.71,5.29-6.6,6.58-10.86,6.68a8.53,8.53,0,0,1-8.22-6.85c-.68-1.48-.45-3.14-.9-4.66C321,203.79,321,201.42,321.06,199Z" transform="translate(-264.86 -114.86)" fill="#48bbe4"/>
    <path d="M347,197a10,10,0,0,1-3-5l1-.73c1.74-1.82,2.79-.41,3.89.82,1.65,2,3.76,3.78,4.07,6.64-1.65,1.79-2.62,0-3.8-.72l-.43,0-.43,0C347.53,198.12,347.34,197.47,347,197Z" transform="translate(-264.86 -114.86)" fill="#d9eff8"/>
    <path d="M347,197l1.3,1c-5.62,2.47-11.54.37-17.27,1.13,2.35-2.34,5.29-.69,7.92-1.16S344.5,199,347,197Z" transform="translate(-264.86 -114.86)" fill="#22b3e2"/>
    <path d="M311,184c1.71-1.09,3.4.32,5.11,0l-2.37,3c-1.19.72-2.37,2.19-3.57,0A3.17,3.17,0,0,1,311,184Z" transform="translate(-264.86 -114.86)" fill="#4cbce4"/>
    <path d="M321.06,199c1.74,2.14.62,4.66.92,7-.76.57-.18,1.81-1.15,2.28C319.79,205.19,319.37,202.09,321.06,199Z" transform="translate(-264.86 -114.86)" fill="#31b6e2"/>
    <path d="M348.06,221c1.57,1,3,2.34,5.07,2-2.24,1.93-4.93,1.94-7.72,2C345.42,223,347.54,222.53,348.06,221Z" transform="translate(-264.86 -114.86)" fill="#2db8e3"/>
    <path d="M336,191l-5,0c-.6-.77-1.9-.16-2.38-1.19C331.24,189.14,334,187.66,336,191Z" transform="translate(-264.86 -114.86)" fill="#2fb6e2"/>
    <path d="M348.88,192.13c-1.4.22-2.4-1.48-3.89-.82-.61-.43-1.94.17-1.82-1.29.36-.8.78-1.53,1.86-1.32a7.22,7.22,0,0,0,3.08.18.93.93,0,0,0,.84,0C351.19,190,349.05,191,348.88,192.13Z" transform="translate(-264.86 -114.86)" fill="#002337"/>
    <path d="M345,189.05l-1.79,1-1.34-3.95c1.59-.2,3-.46,3.28,1.68A.84.84,0,0,1,345,189.05Z" transform="translate(-264.86 -114.86)" fill="#003958"/>
    <path d="M341,211h-8.87l0-1h8C340.63,210.11,341.18,210.25,341,211Z" transform="translate(-264.86 -114.86)" fill="#2eb6e2"/>
    <path d="M356,163c-2.13,1.81-3.74,1.23-5-1.07A6.17,6.17,0,0,1,356,163Z" transform="translate(-264.86 -114.86)" fill="#1cb4e1"/>
    <path d="M349.15,198l3.8.72a2.15,2.15,0,0,1-1.09,2.33C350.69,200.32,349.17,199.84,349.15,198Z" transform="translate(-264.86 -114.86)" fill="#24b4e1"/>
    <path d="M354,211l-2.14,5.44c-1.34-2.46.41-4.48,1-6.68C353.47,209.92,353.58,210.6,354,211Z" transform="translate(-264.86 -114.86)" fill="#32b9e3"/>
    <path d="M345.93,160.15a6.41,6.41,0,0,1-6.87,0Z" transform="translate(-264.86 -114.86)" fill="#29b5e2"/>
    <path d="M327.6,178.08h7.75A6.87,6.87,0,0,1,327.6,178.08Z" transform="translate(-264.86 -114.86)" fill="#24b4e2"/>
    <path d="M310.17,187.07c1.19,1,2.38-.08,3.57,0a3,3,0,0,1-3.38,2.53C309.53,189.51,309.95,188,310.17,187.07Z" transform="translate(-264.86 -114.86)" fill="#1eb6e2"/>
    <path d="M374.06,196.1c.25-2.34-.87-4.84.79-7C374.88,191.45,376.07,194,374.06,196.1Z" transform="translate(-264.86 -114.86)" fill="#2bb5e2"/>
    <path d="M354,211l-1.18-1.23c.34-2-.78-4.32,1.13-6Q354,207.35,354,211Z" transform="translate(-264.86 -114.86)" fill="#08b2e1"/>
    <path d="M369.08,210.24c-.16-2.16,1.26-3.26,2.84-4.24C371.63,207.85,371.2,209.61,369.08,210.24Z" transform="translate(-264.86 -114.86)" fill="#39bde5"/>
    <path d="M328,163.24c-.19,2-1.35,2.78-3.26,2.67C325.14,164.2,326.46,163.59,328,163.24Z" transform="translate(-264.86 -114.86)" fill="#3fbfe6"/>
    <path d="M328.6,189.8c.9.19,1.85.27,2.38,1.19l-4.66,0C326.74,189.88,327.68,189.85,328.6,189.8Z" transform="translate(-264.86 -114.86)" fill="#27b8e4"/>
    <path d="M374,201c-1.49-1.71-1.5-3.37.14-5Z" transform="translate(-264.86 -114.86)" fill="#29b8e3"/>
    <path d="M320.84,208.3c.2-.85.25-1.78,1.15-2.28q0,2.4,0,4.81C320.8,210.33,320.92,209.27,320.84,208.3Z" transform="translate(-264.86 -114.86)" fill="#1db5e2"/>
    <path d="M345,189.05l.15-1.3q.4,0,.8.08c.5.12.8.59,1.29.72q.46.18.91.39v-.06C347.13,190.23,346.09,190.34,345,189.05Z" transform="translate(-264.86 -114.86)" fill="#0e4d62"/>
    <path d="M347,189l-1.1-1.16c.4-.79.78-.89,1.15,0A.8.8,0,0,1,347,189Z" transform="translate(-264.86 -114.86)" fill="#002942"/>
    <path d="M347,189l0-1.14,1.06,1.09Z" transform="translate(-264.86 -114.86)" fill="#00112d"/>
    <path d="M329.18,207.76v-5.64h.49v5.73Z" transform="translate(-264.86 -114.86)" fill="#23b4e1"/>
  </g>
</svg>
