<svg id="Layer_1" data-name="Layer 1" xmlns="http://www.w3.org/2000/svg" width="420.33" height="126.41" viewBox="0 0 420.33 126.41">
  <title>host-md</title>
  <g>
    <path d="M127.23.1q144.5,0,289-.1c3.42,0,4.11.67,4.1,4.1q-.23,59,0,118c0,3.43-.67,4.1-4.1,4.1q-144.5-.18-289-.1c-1.74-2-1.39-4.37-1.39-6.67V16.17C126.44,10.86,124.41,5.27,127.23.1Z" transform="translate(0 0)" fill="#fefefe"/>
    <path d="M42.23.1h42c1.5,1.63,1.39,3.67,1.4,5.66,0,10.31.07,20.62,0,30.93-.05,5.77-1,6.82-6.67,6.76C67,43.32,55,44.12,43.09,43a3.24,3.24,0,0,1-1.46-1.23c-.94-1.74-.69-3.66-.82-5.52-.13-2.36.12-4.71,0-7.07-.12-2,.14-4.09,0-6.14a41,41,0,0,0-.07-4.51q-.07-6.43,0-12.87C40.72,3.7,40.78,1.71,42.23.1Z" transform="translate(0 0)" fill="#fefefe"/>
    <path d="M84.23,126.1h-42c-1.8-2.07-1.54-4.61-1.55-7.05,0-5.1.2-10.2.13-15.3V97.54c0-2.07.05-3.94,0-5.91,0-1.13,0-2.27-.06-3.4A3.6,3.6,0,0,1,43.4,84c12.45-.72,24.9-.23,37.35-.27a5.36,5.36,0,0,1,3.72,1.17c1.87,13.29,1.64,26.6.5,39.93C85,125.35,84.52,125.7,84.23,126.1Z" transform="translate(0 0)" fill="#fefefe"/>
    <path d="M42.23.1l-.06,19c-4.1,4.77-8,9.8-14.2,12.08-2.63,0-5.16-1-7.84-.8-4.35.28-7.57,2.61-8.33,6.38-.81,4,.68,7.09,4.36,9a8.65,8.65,0,0,1,3.26,2.17,3.34,3.34,0,0,1-1,3.42c-1.86,1.57-4.57.22-6.39,1.88-.73,1.18-.56,2.53-.71,3.82a7.53,7.53,0,0,1-.29,1.4c-2.38,5.1-5.69,9.71-7.78,15-.5,1.25-1,3-3.06,2.64Q.19,39.75.12,3.4C.12.79.43,0,3.35,0,16.34.22,29.28.1,42.23.1Z" transform="translate(0 0)" fill="#003460"/>
    <path d="M84.23,126.1v-41a1.16,1.16,0,0,1,1.34.11,4.23,4.23,0,0,1,.64,1.34,20.65,20.65,0,0,1,.29,3.72V100.9a32.24,32.24,0,0,1-.36,5.74C94,93.13,105.63,85.2,120.65,82.22c2-.41,4.32-1,5.93,1.21.13,2.36.06,4.72,0,7.07-.92,2.22-3.12,2.28-5,2.75-16,4.11-26.28,14-30.19,30.2a5.43,5.43,0,0,1-1.16,2.65Z" transform="translate(0 0)" fill="#5b7c9f"/>
    <path d="M6.23,126.1c-5.13,1.13-6.65-.82-6.13-6,.57-5.61.13-11.32.13-17,1.51-2.69,1.33-5.73,1.67-8.63C2.78,87,6.6,80.93,10.8,75c2.57-.32,3.73,1.42,4.81,3.28a4.16,4.16,0,0,1-1.53,3.55c-2.08,1.32-2.46,3.35-2.47,5.62,0,3.32.1,6.64-.06,10-1.7,8.62-3.84,17.17-4.1,26A4.47,4.47,0,0,1,6.23,126.1Z" transform="translate(0 0)" fill="#0d3e69"/>
    <path d="M90.23,126.1c.25-12.62,11.19-27.22,24-31.85a49.67,49.67,0,0,1,11.94-3.15c1,1.43.37,3,.5,4.57-.71,1.8-2.37,2.23-4,2.6-13.75,3.22-21.91,12.18-26.08,25.26a6.43,6.43,0,0,1-1.36,2.57Z" transform="translate(0 0)" fill="#6382a4"/>
    <path d="M.23,76.1l10-18c3.25-2.21,6.74-1.45,10.21-.82,1.25.64,1.2,1.68.87,2.81a12.58,12.58,0,0,0,.25,9.86,3.8,3.8,0,0,1-1,3.37c-4.75,1-6.59-.48-6.19-5,.09-1,.48-1.91.54-2.9,0-.69-.07-1.37-.82-1.58s-1.22.29-1.59.85c-.93,1.4-1,3.11-1.57,4.64A167,167,0,0,0,3.82,85.72c-.57,1.61-1,3.7-3.55,3.32Z" transform="translate(0 0)" fill="#063964"/>
    <path d="M102.23.1h24a1.71,1.71,0,0,1-.08,2.37c-3.4,1.89-7.19.76-10.77,1.36A189.74,189.74,0,0,0,91.53,9c-2,.62-4.09,1.6-6.26.4-.88-1.28-.46-2.7-.43-4.07C88.34,2.36,92.66,1.71,97,1,98.75.7,100.62,1.1,102.23.1Z" transform="translate(0 0)" fill="#0c3d68"/>
    <path d="M6.23,126.1c-.69-10,2.19-19.56,4.1-29.22a5.11,5.11,0,0,1,5.89-.15c1.3,1.68.82,3.2-.38,4.67-5.32,4.39-6.1,11.85-1.87,18.14.8,2.31.9,4.54-.75,6.56Z" transform="translate(0 0)" fill="#184670"/>
    <path d="M.23,89.1c3.26-2.7,3.18-7,4.9-10.43C6.74,75.46,8,72.07,10,69.09c2.06,1.8,1.51,4.08,1.17,6.32C7.58,82.83,2.85,89.83,2.49,98.52c-.07,1.71-.12,3.74-2.26,4.57Z" transform="translate(0 0)" fill="#093b66"/>
    <path d="M100.23,126.1h-2c-1.62-3.18.35-5.89,1.49-8.46,4.15-9.39,11.57-15.2,21.26-18.23,1.77-.55,3.6-.79,5.28.37a2.57,2.57,0,0,1,.3,2.2c-.8,1.23-2.14,1.54-3.4,1.88-10.05,2.71-16.72,9.08-20.31,18.76A5.93,5.93,0,0,1,100.23,126.1Z" transform="translate(0 0)" fill="#6886a8"/>
    <path d="M85.37,5.1v4a5.58,5.58,0,0,1,1.11,3.55V39.23a11.22,11.22,0,0,1-.21,2.24,3.23,3.23,0,0,1-1.75,2.36,25.83,25.83,0,0,1-5.93.88c-.76,0-1.5-.16-2.25-.22-1.78-.13-3.55,0-5.33,0H48a18.54,18.54,0,0,1-4.07-.28c-1-.46-2.28-.68-1.6-2.28,13.09.13,26.17.19,39.26.44,3.29.06,2.78-2,2.77-3.91Q84.25,19.31,84.17.17h1A3.73,3.73,0,0,1,85.37,5.1Z" transform="translate(0 0)" fill="#2a557d"/>
    <path d="M42.18,91.1v6c-2,8.27-4.25,16.47-5.47,24.91a6.83,6.83,0,0,1-1.48,4.08h-2c-3-4.42-.09-8.87-.08-13.31.72-2.8,1.72-5.54,1.77-8.48a12.77,12.77,0,0,1,2-6.42A13.77,13.77,0,0,0,39.59,93C40.23,92.1,40.57,90.75,42.18,91.1Z" transform="translate(0 0)" fill="#2c577e"/>
    <path d="M100.23,126.1c2.64-9.76,8.26-17.14,17.39-21.71a27.36,27.36,0,0,1,8.54-2.3,1.8,1.8,0,0,1,.33,2.05,5.41,5.41,0,0,1-3.31,2c-9.39,2.64-15.27,8.9-18.56,17.86a6.34,6.34,0,0,1-1.4,2Z" transform="translate(0 0)" fill="#6a88a9"/>
    <path d="M107.23,126.1h-2a2.76,2.76,0,0,1-.76-2.28c1.25-8.74,12.81-18.25,21.85-18a4.67,4.67,0,0,1,.31,3c-.58,1.16-1.73,1.5-2.82,1.85a22.33,22.33,0,0,0-14.09,12.43A6.14,6.14,0,0,1,107.23,126.1Z" transform="translate(0 0)" fill="#6e8aab"/>
    <path d="M126.17,100.1c-10.51.24-22,8.62-25.77,18.9-.86,2.32-1.45,4.74-2.17,7.11h-2c.76-14.29,15.4-27.85,29.28-28.6a1.57,1.57,0,0,1,.88.44A1.74,1.74,0,0,1,126.17,100.1Z" transform="translate(0 0)" fill="#6685a6"/>
    <path d="M126.17,98.1c-13.28,1-25.39,11.34-28.91,24.73-.29,1.11-.68,2.18-1,3.28h-1c.86-12.65,12.33-25.32,26.15-28.87,1.59-.41,3.19-.76,4.79-1.13a1.28,1.28,0,0,1,0,2Z" transform="translate(0 0)" fill="#6583a5"/>
    <path d="M107.23,126.1c3.17-9.17,8.85-15.54,18.94-17,.81.84.51,1.85.43,2.82-.74,1.28-2.12,1.51-3.33,2-4.33,1.66-7.81,4.27-9.85,8.54a7.8,7.8,0,0,1-3.19,3.64Z" transform="translate(0 0)" fill="#718dae"/>
    <path d="M42.18,103.1l.05,23h-5C36.76,118,37.23,110.1,42.18,103.1Z" transform="translate(0 0)" fill="#315b82"/>
    <path d="M42.18,103.1c-3.17,7.34-3.53,15.28-4.95,23h-2c.81-10,2.17-19.92,6.94-29Z" transform="translate(0 0)" fill="#2e5880"/>
    <path d="M116.23,126.1h-3c-.54-6.61,5.81-12.5,13.12-12.19.59,1.21.3,2.5.32,3.76A92.37,92.37,0,0,0,116.23,126.1Z" transform="translate(0 0)" fill="#7590b1"/>
    <path d="M126.17,106.1c-11.52,2-20.27,10.31-20.94,20h-2c2.44-12.77,11-19.17,22.94-22a1.28,1.28,0,0,1,0,2Z" transform="translate(0 0)" fill="#6c89aa"/>
    <path d="M116.23,126.1c2.12-4.16,4.72-7.71,10-8,.83,3,1.5,6-2,8Z" transform="translate(0 0)" fill="#7993b3"/>
    <path d="M124.23,126.1c2.2-2.3,2.14-5.14,2-8v-4a1.44,1.44,0,0,1,0-2v-29a3.14,3.14,0,0,1-.43-3.64.94.94,0,0,1,1.27-.39l0,0,.17,47Z" transform="translate(0 0)" fill="#8199b8"/>
    <path d="M85.37,5.1l-.14-5h17A120.61,120.61,0,0,1,85.37,5.1Z" transform="translate(0 0)" fill="#073964"/>
    <path d="M126.17,112.1v2c-6.62,1.52-11.35,5.07-12.95,12h-3C113.23,118.85,117.55,113,126.17,112.1Z" transform="translate(0 0)" fill="#738eaf"/>
    <path d="M30.23,126.1h-5c-1.25-2.65-.55-5.06.94-7.37a4.44,4.44,0,0,1,5.1.17C32.6,121.55,33.1,124.1,30.23,126.1Z" transform="translate(0 0)" fill="#26527a"/>
    <path d="M30.23,126.1c1.37-2.24,1-4.69.88-7.11v-.57c.19-.77.48-1.5.69-2.27.49-1.45.08-3.26,1.74-4.22l.65.17c.34,4.71-1.67,9.26-1,14Z" transform="translate(0 0)" fill="#2b567e"/>
    <path d="M21.23,126.1h-4c-.78-2.62-.73-5.11,1-7.37a2.83,2.83,0,0,1,3.35.41A6,6,0,0,1,21.23,126.1Z" transform="translate(0 0)" fill="#1f4c75"/>
    <path d="M18.23,119.16c-.06,2.35.38,4.78-1,6.94h-2c-1.59-2.52-1.27-4.87.63-7.09A1.85,1.85,0,0,1,18.23,119.16Z" transform="translate(0 0)" fill="#1c4a73"/>
    <path d="M26.23,119.16c.32,2.41-.44,4.66-1,6.94h-2c-1.59-2.52-1.27-4.87.63-7.09A1.84,1.84,0,0,1,26.23,119.16Z" transform="translate(0 0)" fill="#235078"/>
    <path d="M126.14,2.1l.09-2h1l-.17,16a.87.87,0,0,1-1.16,0,3.74,3.74,0,0,1-.56-1.19,10.48,10.48,0,0,1-.21-2V6.84a20.85,20.85,0,0,1,0-2.11A4.43,4.43,0,0,1,126.14,2.1Z" transform="translate(0 0)" fill="#496e92"/>
    <path d="M16.23,119.16c-.61,2.27-1.3,4.53-1,6.94h-2v-6.94a2,2,0,0,1,2.82-.18Z" transform="translate(0 0)" fill="#1a4872"/>
    <path d="M24.23,119.16c-.61,2.27-1.3,4.53-1,6.94h-2v-6.94a2,2,0,0,1,2.82-.18Z" transform="translate(0 0)" fill="#214e77"/>
    <path d="M195.35,56.1c-5.84,1.8-9.62.53-11.47-5-.47-1.4-1.57-2.57-2.1-4-.87-2.22-2.58-2.29-4.49-2.12-2.69.25-1.75,2.35-1.88,3.83a22.75,22.75,0,0,0,0,4.49c.36,3.17-1.44,3.4-3.94,3.47-2.77.08-3.32-1.13-3.28-3.59.11-8.33.09-16.66,0-25,0-2.21.44-3.41,3-3.3,4.49.2,9,0,13.48.26,4.25.28,7.86,2,9,6.54,1.08,4.17.4,8.1-3.51,10.55-2.16,1.35-1.42,2.44-.52,4C191.55,49.36,193.33,52.54,195.35,56.1Z" transform="translate(0 0)" fill="#757779"/>
    <path d="M225.74,49.57c3.31,1.13,6.11.57,8.81.65s5.58.4,6.45,3.53c1,3.44.29,6.64-2.86,8.88-3.68,2.62-13,2.81-16.84.35-2-1.26-3.76-3.4-2.62-5.32,1.61-2.71.44-5.91,1.33-7.72,1.81-3.68.16-6.3-.28-9.45-.65-4.62,2.71-8.07,7.88-8.33,3.29-.17,6.53.2,9.27-2.35,1-1,3.1-1.44,4-.08s1.13,3.86-.18,5.11a4.3,4.3,0,0,0-1.49,3.78c.18,6.86-2.23,9.34-9,9.64C229,48.32,227.57,47.84,225.74,49.57Z" transform="translate(0 0)" fill="#757779"/>
    <path d="M168.23,84.2c0-4,.14-8,0-12-.13-2.72.62-3.85,3.57-3.83s4,.93,3.65,3.76a15.09,15.09,0,0,0,0,2c0,6.74,2.28,8.39,9,6.82a2.06,2.06,0,0,0,1.86-2.24q0-.09,0-.17c0-2,.15-4,0-6-.24-2.8.32-4.3,3.69-4.2,3,.09,4.08,1,4,4.05q-.26,12,0,24c.07,3.12-1,3.89-4,4-3.36.1-4-1.34-3.7-4.14.13-1.15-.13-2.35,0-3.49.71-4.47-.93-5.82-5.57-5.83s-6,1.34-5.34,5.63c.22,1.46-.1,3,.06,4.48.29,2.79-1.13,3.32-3.55,3.28-2.25,0-3.83-.16-3.68-3.13C168.39,92.86,168.23,88.52,168.23,84.2Z" transform="translate(0 0)" fill="#757779"/>
    <path d="M279.38,77a36.57,36.57,0,0,0,.2-4.46c-.25-2.87.61-4.19,3.83-4.18s3.77,1.52,3.72,4.29q-.19,11.94,0,23.88c0,2.73-.69,4.1-3.61,3.71a17.91,17.91,0,0,0-9,.54c-2.22.82-4.54-.35-6.31-2.09-4.61-4.51-4.22-17,.69-21.06C272.09,75.1,275.62,75.42,279.38,77Z" transform="translate(0 0)" fill="#757779"/>
    <path d="M364.23,77c0-1.86.13-3.36,0-4.83-.29-2.71.58-3.86,3.54-3.82,2.81,0,3.76.91,3.7,3.75-.16,7.81,0,15.62-.06,23.43,0,4.54-2.25,6.28-6.42,4.33-1.37-.64-1.71-.8-3-.12-4.94,2.56-9.81.54-11.45-4.74a19.67,19.67,0,0,1-.76-9.83C351.38,76.9,355.47,74.35,364.23,77Z" transform="translate(0 0)" fill="#757779"/>
    <path d="M398.38,88.1v-9c0-1.36,0-3.15,1.88-2.78,4.24.85,8.34-.24,12.5-.34,3-.07,4.89,2,5.44,4.92,1.07,5.6.6,11.28.64,16.93,0,3-2.2,2.34-3.92,2.36s-3.81.51-3.71-2.51c.13-4,0-8,0-12,0-1.95-.19-3.86-2.73-3.9-2.71,0-2.57,2.13-2.61,3.92-.08,3.83-.15,7.66,0,11.49.12,3-1.69,3-3.85,3s-3.89-.24-3.7-3.17S398.38,91.1,398.38,88.1Z" transform="translate(0 0)" fill="#76787a"/>
    <path d="M347.08,90.71v1.5c0,7.36,0,7.33-7.41,7.54a14.38,14.38,0,0,0-2.84.86c-4.88,1.24-8.53-.52-9.55-4.58-1.28-5.11,1-8.79,6.26-10,1-.22,2-.32,2.94-.55,1.17-.27,3.11.12,2.67-2s-2.17-1.6-3.62-1.18c-.44.13-.73.68-1.16.9-2.52,1.27-5.53.47-6.6-1.2-1.26-2,1.23-3.82,3.09-4.92,8-4.7,16.19,0,16.22,9.12C347.09,87.71,347.08,89.21,347.08,90.71Z" transform="translate(0 0)" fill="#757779"/>
    <path d="M206.85,57.18c-4.6,0-8.13-1.58-9.85-5.78-2.21-5.4-2.08-10.78,1.39-15.66,2.65-3.72,6.66-4.2,10.78-3.51,4.85.82,9.24,8.26,7.87,12.83-.45,1.5-1.51,1.61-2.68,1.62-2.66,0-5.33,0-8,.07-1.13,0-3.08-.66-2.83,1.58A3.13,3.13,0,0,0,206.68,51c.46,0,1.22-.06,1.39-.36,1.93-3.31,4.72-2.38,7.39-1.45,1.27.44.79,1.67.39,2.55a8.55,8.55,0,0,1-7.27,5.31C207.94,57.15,207.23,57.16,206.85,57.18Z" transform="translate(0 0)" fill="#757779"/>
    <path d="M280.08,44.28v-9c0-1.15,0-2.91,1.49-2.61,4.71,1,9.34-1,13.92-.23,3.44.58,4.57,3.69,4.68,6.86.16,4.83-.08,9.67.11,14.49.13,3.17-1.82,2.89-3.89,2.95-2.27.06-3.93-.26-3.82-3.17.14-3.66.13-7.33,0-11-.07-1.78.88-4.49-2.33-4.51s-2.79,2.68-2.83,4.77c-.06,3.5-.15,7,0,10.49.13,2.65-.92,3.47-3.48,3.45s-4.15-.4-3.92-3.52S280.08,47.28,280.08,44.28Z" transform="translate(0 0)" fill="#76787a"/>
    <path d="M255.23,44.51c0-8.31,3.56-12.42,10.75-12.46,7.37,0,11.12,4.26,11.1,12.71,0,8.26-3.61,12.35-10.85,12.4C258.71,57.21,255.23,53.19,255.23,44.51Z" transform="translate(0 0)" fill="#757779"/>
    <path d="M257.3,91.88c1.69.69,4.6-.27,4.83,2.34.21,2.42-1.73,4.22-3.84,5.42a10.87,10.87,0,0,1-16.07-7c-2.09-8.79,1.87-16.06,9.17-16.83,5.89-.63,9.57,1.85,11,7.62a54.92,54.92,0,0,1,.8,6.4c-3.54,1.56-7.66.49-11.62,2.39C253.92,93.86,255.48,91.1,257.3,91.88Z" transform="translate(0 0)" fill="#76787a"/>
    <path d="M196.93,87.81c.28-8.27,4.09-12.36,11.28-12.13,6.85.23,10.76,5,10.59,13-.17,8.34-4.22,12.57-11.73,12.26C200.05,100.66,196.65,96.25,196.93,87.81Z" transform="translate(0 0)" fill="#757779"/>
    <path d="M390.3,91.93c1.51.76,4.24-.16,4.45,2.15.18,1.93-1.42,3.63-3,4.89-5.49,4.26-14.23,1.86-16.52-4.7-1.85-5.28-1.61-10.51,2-15.08,2.65-3.35,6.36-3.89,10.36-3.21,5.73,1,7,5.36,7.86,10.13.87,3,.39,4.72-3.34,4.54-2.39-.11-4.8.61-7.85,1.47C386.84,93.4,388.46,90.57,390.3,91.93Z" transform="translate(0 0)" fill="#76787a"/>
    <path d="M299.23,101a11,11,0,0,1-7.06-2c-1.63-1.14-3.67-3-2.39-4.74a4.64,4.64,0,0,1,6.22-.79c.79.53,1.3,1.5,2.4,1.59,1.54.13,3.32.18,3.72-1.6s-1.4-1.9-2.63-2.28a39.39,39.39,0,0,1-6.14-1.93c-3.79-1.89-4.57-5.18-2.94-8.84s5.16-4.49,8.75-4.61,7,.66,9.15,3.94c.51.77,1.39,1.8.14,2.55a7.06,7.06,0,0,1-5.22,1c-1.06-.25-1.9-1.35-3-1.69a2.13,2.13,0,0,0-2.8,1.1l-.06.15c-.35,1.29,1.07,1.47,1.94,1.76,1.1.36,2.27.46,3.39.76,3.91,1,7.34,2.65,7.22,7.48-.1,4.08-3.43,7.22-8.23,8A23.18,23.18,0,0,1,299.23,101Z" transform="translate(0 0)" fill="#767779"/>
    <path d="M219.23,76.8c6-1.86,8.55.23,9,5.47a13.5,13.5,0,0,0,2.51,6.46,72.86,72.86,0,0,0,2.09-8.91c.54-4.8,4.06-4,6.69-3.42,3.6.73.77,3.3.42,4.68-1.36,5.31-3.33,10.46-4.79,15.74-.77,2.79-2.24,3.47-5,3.53s-4.14-1-4.89-3.65C223.39,90,221.23,83.42,219.23,76.8Z" transform="translate(0 0)" fill="#76787a"/>
    <path d="M321.09,101c-5.15,0-7.6-2.12-7.81-6.57-.13-2.66,0-5.34-.08-8-.09-1.76.85-3.76-2.2-4.68-1.54-.47-1.22-4.49-.28-4.72,2.67-.66,2-3.17,3.37-4.34,1.74-1.52,3.59-3.92,5.73-3.58s.86,3.15,1,4.86.89,2.31,2.5,2.34c2.37,0,1.8,1.89,1.9,3.29s-.24,2.66-2.11,2.55c-2.23-.13-2.44,1.42-2.23,3,.49,3.63-2.14,8.34,3.61,10.29.73.25,1.5,2.62,1.1,3.48C324.67,100.88,322.36,100.81,321.09,101Z" transform="translate(0 0)" fill="#76787a"/>
    <path d="M244.36,44.21c0-2.49.12-5,0-7.48-.16-2.72.3-4.34,3.67-4.36s4.3,1.18,4.16,4.4c-.23,5.48-.21,11,0,16.46.11,3.07-1.38,3.56-3.94,3.57s-4.1-.58-3.89-3.61S244.36,47.2,244.36,44.21Z" transform="translate(0 0)" fill="#787a7c"/>
    <path d="M248.23,31.1c-2,.05-3.9.36-4-2.82s1.51-3.4,4-3.41,4,.3,4,3.44C252.18,31.62,250.13,31.05,248.23,31.1Z" transform="translate(0 0)" fill="#7a7c7e"/>
    <path d="M390.3,91.93c-2-.2-2.37,2.05-3.88,2.66a2.94,2.94,0,0,1-3.54-.89,3.13,3.13,0,0,1-.73-2.22c.22-1.62,1.68-1.23,2.75-1.26a44,44,0,0,1,6.39,0c3.28.38,4.48-1,4.12-4.11C399,92.69,392.16,90.1,390.3,91.93Z" transform="translate(0 0)" fill="#efeff0"/>
    <path d="M257.3,91.88c-1,.83-2,1.7-3,2.48-1.3,1-2.56.49-3.64-.39a2.7,2.7,0,0,1-1.22-2.59c.45-2,2.15-1.07,3.3-1.14,3.47-.23,7-.28,10.43-.4C261.87,92.41,258.86,90.1,257.3,91.88Z" transform="translate(0 0)" fill="#f3f3f3"/>
    <path d="M126.33,16.1l.74-.05v29a.89.89,0,0,1-1.18-.07,4,4,0,0,1-.56-1.23,10.73,10.73,0,0,1-.22-2c0-.91,0-1.83-.06-2.74V20.14a11.22,11.22,0,0,1,.17-2.17A2.71,2.71,0,0,1,126.33,16.1Z" transform="translate(0 0)" fill="#5b7c9f"/>
    <path d="M126.31,45.1l.76-.07V68l-.64.26-.57-.4a4.26,4.26,0,0,1-.67-2c-.1-.91-.1-1.82-.12-2.73V48.64a9.17,9.17,0,0,1,.35-2.64A2.28,2.28,0,0,1,126.31,45.1Z" transform="translate(0 0)" fill="#718dae"/>
    <path d="M126.3,68.1h.76v11h-.78a2.66,2.66,0,0,1-.87-1.12,7.75,7.75,0,0,1-.35-2.13c0-1-.06-1.93-.07-2.9a17.6,17.6,0,0,1,0-2.23A3.43,3.43,0,0,1,126.3,68.1Z" transform="translate(0 0)" fill="#7994b3"/>
    <path d="M18.17,50.79l1.05-2.56a2,2,0,0,1,1.6-1.07c5.88-.19,9-3.65,10.63-8.9,3.28-3.39,5.5-8,10.72-9.16v7c-4.57,5.83-8.78,12-15.2,16.07C23.95,52.25,20.74,53.51,18.17,50.79Z" transform="translate(0 0)" fill="#0b3d67"/>
    <path d="M42.18,29.1l-9.89,9c-2-1.46-2.55-3.53-2.38-5.89,3-2.55,6.16-4.84,8.86-7.72.86-.92,1.86-1.94,3.41-1.39Z" transform="translate(0 0)" fill="#063964"/>
    <path d="M28.23,50.81c4.52-5,8.46-10.61,14-14.7v5a33.11,33.11,0,0,1-10.55,11C30.29,52.19,29,52.22,28.23,50.81Z" transform="translate(0 0)" fill="#0f406a"/>
    <path d="M42.17,23.1c-4.34,2.59-6.41,8.2-12.06,9-1.49.27-2.09-.53-2.25-1.87,5.84-2.35,8.87-8.3,14.31-11.16Z" transform="translate(0 0)" fill="#033661"/>
    <path d="M32.23,51.1a64.08,64.08,0,0,1,9.94-10,.78.78,0,0,1,.17.75c.16,1.05,1,1.23,1.82,1.36-2,5.94-7.09,9.17-11.43,13.07-.28.25-.87-.29-1.15-.73A3.9,3.9,0,0,1,32.23,51.1Z" transform="translate(0 0)" fill="#11416c"/>
    <path d="M78.23,44.1c1.86-1.19,3.93-1,6-1a1.13,1.13,0,0,1,.05,1.3c-5.34,3.62-11,6.82-16.08,10.82-10.14,7.9-17.57,18-24.32,28.72-.48.48-1.24.67-1.5,1.4-.91.85-.2,1.82-.21,2.74-.79.67-1,1.71-1.52,2.54a11.82,11.82,0,0,0-1.59,4.05,4.94,4.94,0,0,1-.56,1.19,19.27,19.27,0,0,0-3.41,10.68,5.15,5.15,0,0,1-.52,1.34c-.46,2-.87,4-3,5a9.94,9.94,0,0,1-7.08-.26c-1.76-1.9-.42-3.16,1-4.33a26.63,26.63,0,0,1,4.13-2.35c1.65-.87,1.38-2.72,2-4.1,4-9.83,7.83-19.71,14.13-28.42,8-11,17.24-20.57,28.82-27.78A8.58,8.58,0,0,1,78.23,44.1Z" transform="translate(0 0)" fill="#29547b"/>
    <path d="M42.38,85.36,43.23,84a4.73,4.73,0,0,1,2-1,17.76,17.76,0,0,1,3-.19H81.42a6.55,6.55,0,0,1,3.66.87,1,1,0,0,1,.15,1.39h-1Z" transform="translate(0 0)" fill="#54779a"/>
    <path d="M40.23,90.1a1.81,1.81,0,0,1,1.94-2v3l-1.94,2-.45-.49A3.06,3.06,0,0,1,40.23,90.1Z" transform="translate(0 0)" fill="#2b567e"/>
    <path d="M31.23,21.1c.74,3.41.08,5.3-4.12,4.93s-8.66,0-13-.12c-1.33,0-3.36.81-3.64-1.44-.25-2-.73-4.31,2-5.53a29.27,29.27,0,0,0,7.75-5c-2.37,0-4.73-.05-7.1,0-1.76,0-2.78-.35-2.81-2.45s.64-3,2.83-3c5,.09,10,0,15,0,1.21,0,3.06-.55,3.13,1.43.06,1.81,1.1,4-1.42,5.29s-5,2.63-7.49,4c-.11,2.4,1.7,1.15,2.66,1.32C27.08,20.94,29.23,20.1,31.23,21.1Z" transform="translate(0 0)" fill="#f9fafb"/>
    <path d="M27.86,30.27l2.25,1.87,2.17,6c-1.84,8.17-3.75,9.66-13.07,10.14-4.42-1-8.21-2.75-8.94-7.88-1-7.17,3.23-11.31,11.32-11.3C23.82,29.05,25.79,29.83,27.86,30.27Z" transform="translate(0 0)" fill="#fcfcfd"/>
    <path d="M10.34,56.89V52.3c6.33-1.47,12.74-.33,19.11-.65,1.31-.07,2.29.43,2.26,1.93s.57,3.39-1.44,4.32a4.7,4.7,0,0,1-2.4.51C22,57.83,16.12,58,10.34,56.89Z" transform="translate(0 0)" fill="#f4f6f8"/>
    <path d="M10.34,56.89c6.15.11,12.29.19,18.44.37,1.9.05,2.74-.6,2.61-2.57-.1-1.54.08-3.1-2.21-3-6.29.3-12.62-.64-18.88.6,2.19-2.78,5.32-.58,7.86-1.5h10l4,.29L32.27,56c.74,1.5,0,2.34-1.28,3-3.38.64-6.76,1.26-9.93-.77L10.23,58.1Z" transform="translate(0 0)" fill="#245177"/>
    <path d="M31.23,21.1c-3,0-6,0-8.93-.1-.61,0-1.93.37-1.16-1.1.18-.34.82-.44,1.24-.65C25,21.43,28.69,18.51,31.23,21.1Z" transform="translate(0 0)" fill="#708ca5"/>
    <path d="M126.17,78.1l.12,1q-.06,2-.11,4c-12.59.35-28.62,6.45-40.88,27v-9C91.76,89,102.63,82.74,115.18,79,118.63,77.89,122.33,75.87,126.17,78.1Z" transform="translate(0 0)" fill="#54779a"/>
    <path d="M126.3,68.1l-.13,3a6.5,6.5,0,0,1-3.94,2c-12.66,1.56-23.44,7.14-33,15.33-1.11.95-2.14,2.2-3.91,1.65q0-2,0-4c1.89-4.35,5.72-6.7,9.45-9.17,8.15-5.39,17.22-8.26,26.76-9.84,1.66-.27,3.31-.24,4.64,1.07Z" transform="translate(0 0)" fill="#4c7094"/>
    <path d="M126.17,73.1v3c-1.58,1.52-3.77,1.27-5.63,1.59A54.17,54.17,0,0,0,90.1,94.15c-1.28,1.33-2.27,3.47-4.79,2.91v-4C92.64,82.92,103,77.39,114.72,74.2,118.39,73.2,122.17,71.51,126.17,73.1Z" transform="translate(0 0)" fill="#507397"/>
    <path d="M85.3,97.1c6.82-6.27,13.29-13,22.15-16.59,6-2.42,12.14-4.37,18.71-4.38v2C109.91,79.7,96.65,86.69,86.8,99.86a8.07,8.07,0,0,1-1.51,1.24Q85.3,99.1,85.3,97.1Z" transform="translate(0 0)" fill="#527598"/>
    <path d="M126.17,73.1c-13.49,1-25.4,5.67-35.38,14.94C89,89.73,87.13,91.4,85.3,93V90c11.59-10.71,25-17.45,40.87-19Z" transform="translate(0 0)" fill="#4e7195"/>
    <path d="M126.16,68.1c-14.36.83-27.09,5.66-37.83,15.38-1,.89-2,1.71-3,2.56a7.5,7.5,0,0,0-.07-1,3.59,3.59,0,0,1,0-1c-.54-1.82.75-2.78,1.88-3.72,10.38-8.71,22.45-13.48,35.81-15.19a3.78,3.78,0,0,1,3.25.9Z" transform="translate(0 0)" fill="#496e92"/>
    <path d="M16.23,97.28l-5.9-.4c0-4,.29-7.94,0-11.88-.27-3.25,1.24-4,3.94-4,3.62.85,1.41,4.17,2.61,6.08.41-1.85.24-4,2.54-4.88a4.71,4.71,0,0,1,3.63.3c1.62,1.18,1.22,3.1,1.7,4.83.75-2.57-.64-5.88,2.91-7.17a5.53,5.53,0,0,1,2.39,0,3.82,3.82,0,0,1,1.51.77,4.54,4.54,0,0,1,.79,1.56c.08,5,1.34,10-.89,14.9-2.21,1.48-4.69,1.18-7.14,1.14C21.54,98.45,18.69,99.1,16.23,97.28Z" transform="translate(0 0)" fill="#f7f9fa"/>
    <path d="M11.23,75.42c-1.78-1.85-.49-4.26-1.17-6.32.16-1.82.22-3.71,1.32-5.23.89-1.23,1.88-3.29,3.72-2.09a3.91,3.91,0,0,1,1.24,4.74c-2.07,5.57-1.63,6.3,3.89,6.51,1.28-1.35,3.58-.79,4.66-2.29,1.21-1.68.73-2.42-1.35-1.57-2.35,1-3.81.53-3.78-2.36.06-5.58-.6-6.8,4.55-7a8.52,8.52,0,0,1,2.34.36,11.18,11.18,0,0,1,3.92,2.28,7.15,7.15,0,0,1,1.62,2.44,18.16,18.16,0,0,1,1,3.47,10.48,10.48,0,0,1-.67,5.06,9.89,9.89,0,0,1-2.88,4.34,11,11,0,0,1-4.78,2.39,25.25,25.25,0,0,1-4.72.25c-1.91-.11-3.85-.13-5-2.09Z" transform="translate(0 0)" fill="#f7f8fa"/>
    <path d="M15.23,78.32l5,1c1.27,1.68,0,2.68-1,3.76-2,1.89-.62,4.31-1,6.46-.15.83-.19,1.59-1.28,1.69-1.32.13-1.55-.62-1.72-1.73-.43-2.8,1.13-5.83-1-8.42Z" transform="translate(0 0)" fill="#14446e"/>
    <path d="M24.23,67.1c2-1.19,2.47.54,2.84,1.73a3,3,0,0,1-1.71,3.63,7.09,7.09,0,0,1-5.14.58l.84-2.67C22.41,69.55,23.95,68.93,24.23,67.1Z" transform="translate(0 0)" fill="#1e4c73"/>
    <path d="M27.06,61.16l-1.87-.31c-1.58-.84-3.58.55-5-1l1-1.67,10.06-.07C31.23,61.1,29.76,62,27.06,61.16Z" transform="translate(0 0)" fill="#12426c"/>
    <path d="M20.17,59.9c1.66.39,3.56-.44,5,1-5-1.14-5.95,1.5-5.39,5.64.15,1.09-.25,2.4,1.26,2.87,2.06.65,2.42-1.08,3.15-2.28.37,2.47-1.13,3.13-3.16,3.27C17.55,67.1,18.93,63.52,20.17,59.9Z" transform="translate(0 0)" fill="#245177"/>
    <path d="M126.14,2.1v3c-2.65,2.22-6,1.66-9,2a128.55,128.55,0,0,0-27,6c-1.5.52-3.14,1.27-4.71,0v-4c9.46-2.18,18.73-5.1,28.41-6.45C117.93,2.1,122,2.4,126.14,2.1Z" transform="translate(0 0)" fill="#0f406a"/>
    <path d="M31,107c-2.48,1.33-6.34.84-6.61,5.05.83.7,1.83.49,2.78.52,5.57.19,5.84.62,3.91,6.4h.07l-4.88.17h-13c-.64-.13-1.68-.08-1.85-.43-2.07-4.45-.81-9.18-.8-13.77,0-2.22,2.16-3.71,4.66-3.9,2.31-1.63,4.28-.49,6.23.77s3.37,0,5-.75,3-2.21,4.92-.95C31.83,102.47,32.23,104.8,31,107Z" transform="translate(0 0)" fill="#fcfcfd"/>
    <path d="M21.35,103a10.1,10.1,0,0,0-6.12-2,6.24,6.24,0,0,0,1-3.78h8C25.15,100.1,24.94,102.43,21.35,103Z" transform="translate(0 0)" fill="#184770"/>
    <path d="M21.35,103c2.28-1.26,2.13-3.73,2.86-5.77l7-.18c1.12-2.08.26-4.32.57-6.47,3.46-10.37,9.55-19.17,16.34-27.56A102.9,102.9,0,0,1,62.46,48.74a29.9,29.9,0,0,1,8.72-5.55h6c.39,1.36-.76,1.62-1.54,2.13-19.78,12.87-34,30.21-41.89,52.52a5.06,5.06,0,0,1-.81,1.25c-.72.84-1.77.57-2.67.81C27.34,101.1,25.49,105.32,21.35,103Z" transform="translate(0 0)" fill="#255179"/>
    <path d="M71.17,43.2c-3.51,3-7,6-10.53,9-11.53,9.62-20,21.52-26.46,35a27.13,27.13,0,0,1-1.85,2.9c-1.24-2.21-.29-4.61-.58-6.9,2-8.13,7.4-14.35,12.5-20.55C50.32,55.28,56.65,48,65.19,43.22Z" transform="translate(0 0)" fill="#214e77"/>
    <path d="M84.23,44.1v-1A2.39,2.39,0,0,0,85.32,41c3.09-4.51,8.26-5.43,12.88-6.61,7.59-1.94,15.17-4.24,23.1-4.58,1.63-.07,3.28-.55,4.86.26v4a4.85,4.85,0,0,1-3.75,2.15c-5.5-.09-10.72,1.87-16.15,2.21-4.33-.34-8.12,1.46-12,3a11.91,11.91,0,0,1-1.34.56C89.94,42.33,87.66,45.66,84.23,44.1Z" transform="translate(0 0)" fill="#2a547c"/>
    <path d="M32.23,99.1c8.49-23.86,23.55-42.42,44.95-55.9l1.05.9c-7.23,6-15.28,11-21.68,18C47.22,72.45,39.55,83.71,35.07,97c-.61,1.79-.58,4.07-2.76,5.06A2.26,2.26,0,0,1,32.23,99.1Z" transform="translate(0 0)" fill="#27537b"/>
    <path d="M31.11,81.2h-.46L30.23,81c-1.84-3.33,2.2-5.11,2.1-8,5.93-12.27,14.26-22.47,25.85-29.84h4c.5,1.39-.38,2.16-1.29,2.93C49.71,55.53,40.24,66.35,33.3,79.28A3.38,3.38,0,0,1,31.11,81.2Z" transform="translate(0 0)" fill="#1e4b75"/>
    <path d="M126.16,20.1v3c-2.92,2.34-6.43,1-9.64,1.52-9,1.59-17.9,3.5-26.4,6.95-1.54.62-3.09,1.29-4.79.49v-3c.83-1.87,2.64-2.44,4.3-3.13,9.59-3.92,19.68-5.77,29.88-7.08C121.76,18.55,124.23,18.33,126.16,20.1Z" transform="translate(0 0)" fill="#204d76"/>
    <path d="M126.33,16.1l-.17,2c-4.86,1.87-10.1,1.25-15.09,2.34C103.29,22.15,95.5,23.8,88.15,27c-.88.38-1.84.87-2.8.07v-3c3.84-4.17,9.33-4.66,14.29-6.14,7.26-2.16,14.8-3,22.32-3.86a4.87,4.87,0,0,1,4.16,1Z" transform="translate(0 0)" fill="#1c4a73"/>
    <path d="M58.23,43.21c-7.17,6.42-14,13.12-19.57,21-2,2.83-4.39,5.41-5.38,8.84a1.16,1.16,0,0,1-1.82,0l.81-5c.37-3.61,3.24-5.82,5.25-8.27,5-6.08,8.69-13.57,16.71-16.62Z" transform="translate(0 0)" fill="#1c4a73"/>
    <path d="M85.36,13.1c13.23-4.5,26.71-7.71,40.77-8v2c-4.91,3.8-11,1.6-16.4,3.23-2.19.66-4.55.87-6.72,1.74a12.69,12.69,0,0,1-4.7,1.33c-2.64-.08-5,1-7.48,1.69-1.79.53-3.65,1.58-5.47,0Z" transform="translate(0 0)" fill="#12426c"/>
    <path d="M98.23,12.1a6.72,6.72,0,0,0,4-1,112,112,0,0,1,23.9-3v3c-3.49,2.64-7.7,1.21-11.54,1.92a171.5,171.5,0,0,0-24,5.88c-1.67.57-3.41,1.49-5.18.19v-2C89.12,14,94,13.79,98.23,12.1Z" transform="translate(0 0)" fill="#14446e"/>
    <path d="M126.15,25.1v2c-3.85,2.25-8.22,1.9-12.41,2.56A113.39,113.39,0,0,0,91,36.22c-1.82.7-3.6,1.79-5.67.84v-3c6.44-4.43,14-5.93,21.35-7.73A62.43,62.43,0,0,1,120.9,24.1C122.69,24.1,124.6,23.7,126.15,25.1Z" transform="translate(0 0)" fill="#235078"/>
    <path d="M126.12,15.1c-14,1-27.7,3.64-40.77,9v-3c8.7-4.56,18.18-6.5,27.75-7.9,4.27-.62,8.67-2.51,13-.1Z" transform="translate(0 0)" fill="#184771"/>
    <path d="M126.15,25.1c-12.38,0-24.15,3-35.63,7.37-1.69.64-3.46,1.09-5.19,1.62q0-1,0-2c13.09-5.37,26.47-9.4,40.83-9Q126.15,24.1,126.15,25.1Z" transform="translate(0 0)" fill="#214e77"/>
    <path d="M126.12,13.1a113.3,113.3,0,0,0-34.55,6.35c-2,.69-4,1.73-6.22,1.64v-2c13.29-4.19,26.56-8.48,40.77-8Z" transform="translate(0 0)" fill="#17466f"/>
    <path d="M31.11,81.2A132.55,132.55,0,0,1,52.86,52c3-3,7.07-4.93,9.33-8.75h3c-2.1,3.56-5.86,5.34-8.76,8-9.7,9-17.38,19.56-24.13,30.86-.59-.05-.75-.71-1.23-.9Z" transform="translate(0 0)" fill="#204d76"/>
    <path d="M126.15,30.1a29.7,29.7,0,0,1-3.77,1c-12.83,1.58-25.44,3.94-37.07,10v-2c4-3.78,9.41-4.53,14.3-6.36,7.18-2.69,14.77-3.52,22.3-4.52,1.46-.19,3-.24,4.23.92Z" transform="translate(0 0)" fill="#27527b"/>
    <path d="M54.17,43.21c-9,6.78-14.53,16.69-22,24.89l-.84-3a57.92,57.92,0,0,1,18.8-21.85Z" transform="translate(0 0)" fill="#184771"/>
    <path d="M27.06,61.16a4.91,4.91,0,0,0,4.13-3A2.46,2.46,0,0,0,32.34,56L44.16,43.23h4c.43,1.67-1,2.35-1.86,3.22a105.42,105.42,0,0,0-13.05,15c-.7,1-1.41,2.42-3.15,1.71Z" transform="translate(0 0)" fill="#16456e"/>
    <path d="M126.15,29.1c-14.42,0-27.86,4-40.83,10v-2c13.06-5.57,26.53-9.47,40.83-10Z" transform="translate(0 0)" fill="#26517a"/>
    <path d="M85.35,27.1c13.14-5.11,26.63-8.62,40.81-9v2c-14.27-.06-27.75,3.54-40.82,8.95Q85.35,28.1,85.35,27.1Z" transform="translate(0 0)" fill="#1c4a73"/>
    <path d="M30.12,63.1,48.23,43.22h2A254.61,254.61,0,0,0,31.38,65.1Z" transform="translate(0 0)" fill="#16456f"/>
    <path d="M98.23,12.1c-4,2.53-8.74,2.91-12.87,5v-2C89.85,14.94,93.63,11.75,98.23,12.1Z" transform="translate(0 0)" fill="#13436d"/>
    <path d="M34.23,107.1a21.85,21.85,0,0,1,4-12,2.37,2.37,0,0,1,0,3,9.43,9.43,0,0,0-2,6C34.94,104.68,36.85,107.4,34.23,107.1Z" transform="translate(0 0)" fill="#29547c"/>
    <path d="M34.23,107.1l2-3a15.07,15.07,0,0,1-2,8h0A5.75,5.75,0,0,1,34.23,107.1Z" transform="translate(0 0)" fill="#2b567e"/>
    <path d="M38.23,98.1v-3h0c.9-.43,0-2.63,2-2h0A5.77,5.77,0,0,1,38.23,98.1Z" transform="translate(0 0)" fill="#2b567e"/>
    <path d="M31,119c2.79-7.15-3.73-5.32-6.68-6.93h7.88a6.23,6.23,0,0,1,.09,4.93C32.23,117.91,32.07,118.75,31,119Z" transform="translate(0 0)" fill="#375f84"/>
    <path d="M32.32,117l-.09-4.94c1.26-1.43.41-3.71,2-5v5C32.34,113.26,34.1,115.83,32.32,117Z" transform="translate(0 0)" fill="#29547c"/>
    <path d="M126.13,8.1l-23.9,3c3.55-2.41,7.83-2.25,11.74-2.74s8.1-.93,12.16-1.26Z" transform="translate(0 0)" fill="#13436d"/>
    <path d="M178.8,31c3.76.19,7.17-.33,7.33,3.69.18,4.28-3.27,4-6.28,4.31-3.24.29-4.62-.56-4.63-4.23S177.06,30.79,178.8,31Z" transform="translate(0 0)" fill="#f9fafa"/>
    <path d="M230.11,56.1c1.37.22,3.6-.47,3.53,1.61-.07,1.92-2.21,2.24-3.91,2.24s-3.93-.16-3.73-2.27S228.6,56.4,230.11,56.1Z" transform="translate(0 0)" fill="#ebebec"/>
    <path d="M232.16,40.75c-.29,1.76-1.27,2.62-3,2.44s-2-1.36-2-2.78A2.16,2.16,0,0,1,229.55,38C231.34,38,232.07,39.1,232.16,40.75Z" transform="translate(0 0)" fill="#f8f9f9"/>
    <path d="M279.68,88.53a23.48,23.48,0,0,1-.61,3.67c-.46,1.44-1.28,2.82-3.06,2.8s-2.52-1.22-3-2.81a13,13,0,0,1-.11-7.33c.5-1.69,1.2-3.34,3.15-3.29,2.19.05,2.94,1.84,3.23,3.77C279.47,86.31,279.54,87.31,279.68,88.53Z" transform="translate(0 0)" fill="#fafafa"/>
    <path d="M357,88.38c.39-2.58-.48-6.61,3.27-6.71,4-.11,3.62,3.93,3.77,6.86a9,9,0,0,1-.32,2.94c-.52,1.76-1.11,3.76-3.5,3.48-2.18-.26-2.82-2.06-3-4C357.12,90.1,357.1,89.31,357,88.38Z" transform="translate(0 0)" fill="#fafafa"/>
    <path d="M337.68,90.27c1.78,0,1.67,1.27,1.73,2.41.1,1.79-.82,2.84-2.54,2.86-1.41,0-2.6-.7-2.46-2.37C334.58,91.2,336.05,90.55,337.68,90.27Z" transform="translate(0 0)" fill="#eeefef"/>
    <path d="M206.23,42.1c-1.13-.41-2.88.49-2.64-1.47a2.66,2.66,0,0,1,2.8-2.52l.26,0a2.38,2.38,0,0,1,2.45,2.3q0,.11,0,.22C209,42.77,207.05,41.49,206.23,42.1Z" transform="translate(0 0)" fill="#f5f5f5"/>
    <path d="M269.45,44.4c-.27,2.83.59,6.41-3.22,6.48-4,.07-3.67-3.82-3.68-6.41s-.22-6.14,3.42-6.19C270.23,38.22,269,42.1,269.45,44.4Z" transform="translate(0 0)" fill="#fafafa"/>
    <path d="M252.61,81.94c1.47.12,2.61.84,2.58,2.36,0,2-1.78,1.52-3,1.5s-3,.2-2.57-1.87a2.53,2.53,0,0,1,3-2Z" transform="translate(0 0)" fill="#e8e8e8"/>
    <path d="M211.29,88.4c-.25,2.68.1,6.25-3.41,6.22-3.72,0-3.67-3.66-3.61-6.48.06-2.56-.33-6,3.42-6C211.88,82.1,210.92,85.84,211.29,88.4Z" transform="translate(0 0)" fill="#fbfbfb"/>
    <path d="M387.65,84.18c.14,1.54-1.12,1.58-2.24,1.55s-2.91.54-3.15-1.3c-.2-1.51,1-2.31,2.45-2.44a2.57,2.57,0,0,1,2.93,2.15Z" transform="translate(0 0)" fill="#f5f5f5"/>
    <path d="M54.23,84h-3c-1.6-2.9.68-4.78,2.05-6.62,15.79-21.18,36.45-34.54,62.79-38.5,3.3-.5,6.78-2.37,10.07.22v3c-2.86,2.16-6.39,1.48-9.57,2q-36.09,6-57.94,35.2A22.84,22.84,0,0,1,54.23,84Z" transform="translate(0 0)" fill="#315b82"/>
    <path d="M105.23,37.1l20.91-3v3c-6.46,2-13.26,2.09-19.8,3.82C83.91,46.85,66.41,59.63,52.85,78.21c-1.45,2-2.43,4.38-4.62,5.8h-3c-.78-3.11,1.76-4.82,3.11-6.93A94.8,94.8,0,0,1,79.25,47.47c4.36-2.66,9.36-4.1,13.95-6.37C97.14,39.51,101.23,38.32,105.23,37.1Z" transform="translate(0 0)" fill="#2d577e"/>
    <path d="M48.23,84C55.54,70.21,66.4,59.71,79.39,51.49c14.2-9,29.72-14.31,46.75-14.39v2c-19.73,1-37.5,7.32-53.1,19.63a101.38,101.38,0,0,0-19.81,20.8,9.48,9.48,0,0,0-2,4.46Z" transform="translate(0 0)" fill="#2e5880"/>
    <path d="M54.23,84c4.52-8.67,11.36-15.41,18.64-21.64C86.21,51,102,45,119.17,42.35a54.29,54.29,0,0,1,7-.22v2c-4,2.42-8.62,2.11-13,3C91.55,51.5,74.17,62.56,60.88,80a20.19,20.19,0,0,1-3.66,4Z" transform="translate(0 0)" fill="#335c83"/>
    <path d="M57.23,84c4.35-9.09,11.6-15.61,19.32-21.66,14.55-11.4,31.25-17.08,49.59-18.24l.17,1q-.06.48-.12,1a8,8,0,0,1-5.42,2.19C98.06,50.79,79.49,60.93,64.91,78.52c-1.67,2-3,4.44-5.66,5.48Z" transform="translate(0 0)" fill="#365e84"/>
    <path d="M68.23,84h-3c-.69-1.87.36-3.23,1.43-4.49Q88.1,54.24,121,50c1.82-.23,3.68-.31,5.18,1.11v3c-2.86,2.19-6.4,1.36-9.59,2C100.76,59.51,86.69,66,75.51,78,73.38,80.37,71.23,82.76,68.23,84Z" transform="translate(0 0)" fill="#3c6389"/>
    <path d="M59.23,84C73,63.58,92.45,51.91,116.37,47.27c3.22-.63,6.53-.8,9.79-1.18v3c-4.25,1.75-9,1-13.27,2.51-1.34.87-2.92.93-4.39,1.34a27.34,27.34,0,0,0-9,2.74C87.73,59.84,78.21,67.29,69.68,76.16c-2.5,2.6-4.42,5.74-7.45,7.83Z" transform="translate(0 0)" fill="#375f86"/>
    <path d="M108.23,52.1a6.72,6.72,0,0,0,4-1c4.63-.58,9.17-2.49,13.94-1a4.19,4.19,0,0,1,0,1c-19.32,1-36.42,7.52-50.44,21.1C72,75.85,67.55,79,65.25,84h-3c9.25-13.58,21.23-23.64,37-28.9A79.29,79.29,0,0,1,108.23,52.1Z" transform="translate(0 0)" fill="#396187"/>
    <path d="M126.16,66.1c-15.54,1.68-29.69,6.55-40.93,18l-4-.09c-.52-2.23,1.12-3.39,2.46-4.53a71,71,0,0,1,39.67-17.15,3.32,3.32,0,0,1,2.78.75Z" transform="translate(0 0)" fill="#476c91"/>
    <path d="M76.23,84h-3c-.81-3,1.39-4.63,3.15-6.28A79.27,79.27,0,0,1,122,56.1c1.53-.19,3-.2,4.2,1v2a7.64,7.64,0,0,1-4.93,2.15c-15.72,2-29.42,8.14-40.5,19.65A16.73,16.73,0,0,1,76.23,84Z" transform="translate(0 0)" fill="#41678d"/>
    <path d="M76.23,84c11.63-14,26.62-21.74,44.59-23.94,1.79-.22,3.55-.64,5.33-1v3c-4.89,1.38-10,1.56-14.93,2.9-12.47,3.38-22.67,10.4-32,19Z" transform="translate(0 0)" fill="#44698f"/>
    <path d="M126.17,57.1c-16,1.23-30.6,6.31-43.07,16.69-3.64,3-8,5.46-9.84,10.23h-2c-.87-1-.39-1.84.31-2.61C86.23,65.23,104,55.69,126.17,55.1Z" transform="translate(0 0)" fill="#3f668b"/>
    <path d="M126.17,55.1c-9.45,1.38-18.9,2.91-27.61,7.07C87.78,67.32,77.8,73.55,71.23,84h-3c13.28-16.62,30.62-26.27,51.48-29.78a43,43,0,0,1,6.44-.14Q126.17,54.6,126.17,55.1Z" transform="translate(0 0)" fill="#3f658b"/>
    <path d="M79.23,84c12.45-14.14,28.22-21.15,46.91-21.92v1c-14.8,1.69-28.41,6.33-40,16A22.76,22.76,0,0,0,81.26,84Z" transform="translate(0 0)" fill="#456a8f"/>
    <path d="M126.17,50.1c-4.72-.68-9.25,1.35-13.94,1,4.42-2.22,9.2-2,13.94-2Z" transform="translate(0 0)" fill="#396187"/>
    <path d="M93.23,41.1c-7.29,4.83-15.49,8-22.48,13.55A103.58,103.58,0,0,0,45.23,84h-2c4.72-10.43,11.93-19,20.42-26.46,6.17-5.4,12.5-10.86,20.58-13.47C87.47,43.82,89.79,40.78,93.23,41.1Z" transform="translate(0 0)" fill="#2a557d"/>
    <path d="M32.23,99.1q0,1.5.09,3c-.45,1.65.78,3.75-1.35,4.94.31-2.43,1.41-4.94-.71-7.13Z" transform="translate(0 0)" fill="#29547c"/>
    <path d="M40.23,93.1l-2,2a5.77,5.77,0,0,1,2-5Z" transform="translate(0 0)" fill="#29547c"/>
    <path d="M20.23,42.26c-2.64-.08-5.31-.6-5-3.91.29-3.64,3.43-3.35,6.06-3.41s4.93,1,4.81,3.66C25.94,41.89,23.09,42.38,20.23,42.26Z" transform="translate(0 0)" fill="#053863"/>
    <path d="M25.23,79.1l4-2.17c1.35,1.74.59,3-.95,4.07-3.06,1.58-1,4.4-1.56,6.58-.37,1.39.75,3.69-2,3.54C22.31,91,23.34,89,23.18,87.7c-.19-1.46-.15-3-.21-4.43A5.83,5.83,0,0,1,25.23,79.1Z" transform="translate(0 0)" fill="#1c4a73"/>
    <path d="M25.23,79.1a5.26,5.26,0,0,1-2.33,4.16L19.23,83l1-3.76Z" transform="translate(0 0)" fill="#16456f"/>
    <path d="M28.23,81A6.19,6.19,0,0,0,29.18,77l2.22-3.87h1.83l-3,7.93Z" transform="translate(0 0)" fill="#1d4b73"/>
    <path d="M31.07,81.19l1.23.9v8c-.58,2.31.9,4.94-1.13,7A97.39,97.39,0,0,0,31.07,81.19Z" transform="translate(0 0)" fill="#27537b"/>
    <path d="M15.49,112.1c-.28-2.14-1.29-4.79,2.74-3.86C18.63,110.45,20.06,113.4,15.49,112.1Z" transform="translate(0 0)" fill="#1c4a73"/>
    <path d="M15.49,112.1c3.06.24,2.76-1.91,2.74-3.86,2,1,1.46,2.91.73,4a2.05,2.05,0,0,1-3.47-.14Z" transform="translate(0 0)" fill="#1e4b74"/>
    <path d="M105.23,37.1a34.77,34.77,0,0,1-12,4A21.84,21.84,0,0,1,105.23,37.1Z" transform="translate(0 0)" fill="#2a557d"/>
    <path d="M108.23,52.1a20,20,0,0,1-9,3A12.87,12.87,0,0,1,108.23,52.1Z" transform="translate(0 0)" fill="#396187"/>
  </g>
</svg>
