<svg id="Layer_1" data-name="Layer 1" xmlns="http://www.w3.org/2000/svg" width="155.13" height="155.13" viewBox="0 0 155.13 155.13">
  <title>cs_partiring_kristendemokraterne-md</title>
  <g>
    <path d="M342.5,270c-24.83,0-49.67,0-74.5.07-2.5,0-3.07-.57-3.06-3.07q.13-74.5,0-149c0-2.5.56-3.07,3.06-3.06q74.5.13,149,0c2.5,0,3.07.56,3.06,3.06q-.13,74.5,0,149c0,2.5-.56,3.08-3.06,3.07C392.17,270,367.33,270,342.5,270Z" transform="translate(-264.94 -114.94)" fill="#fefefe"/>
    <path d="M415,193.66c-.07,39.41-32.66,71.41-72.65,71.34-39.4-.07-71.41-32.67-71.34-72.65.07-39.61,32.73-71.46,73.15-71.34C383.12,121.12,415.07,153.88,415,193.66Z" transform="translate(-264.94 -114.94)" fill="#ccc"/>
    <path d="M343,255a62.13,62.13,0,0,1-62-62.26c0-33.89,28-61.73,62-61.73a62.13,62.13,0,0,1,62,62.27C405,227.16,377,255,343,255Z" transform="translate(-264.94 -114.94)" fill="#fefefe"/>
    <path d="M371.14,215.18c-2.23,3.26-4.52,6.46-8,8.59-1.36,1.12-2.88,2-4.22,3.19-3.08,1.61-5.84,3.93-9.52,4.18A31.69,31.69,0,0,1,338,233.48h-5.86a17.07,17.07,0,0,1-7.31-1.38c-10.83-2.51-21.72-14.43-21.94-27-.63-6.6.85-12.92,2.75-19.15.37-1.21,1-2.47,2.71-2.39,1.19.28,1.44,1.28,1.72,2.24.14,2,1.1,3.06,3.25,2.72a9.09,9.09,0,0,1,2.66.86c2,.66,3.9,1.42,4.18,3.91.12,2.06.47,4.17-1.29,5.81-1.2.21-1.41-.38-1.1-1.38-.87,1.59,1,2.39,1.06,3.73.2,1.5.35,3-1.35,3.79-.91-.35-1.24-.9-.63-1.79-.86.69-.23,1.41,0,2a15.06,15.06,0,0,1,.84,1.75c.83,3.52-3.57,4.17-3.67,7.12,5.16,1.15,7.25-.12,8.51-5.18.4-1.63-.12-3.83,2.34-4.39a1.41,1.41,0,0,1,.53,1.29c.36-.24.06-.56,0-.77a3,3,0,0,1,1.29-3.46c4.46,1.74,4.75,6.64,7.41,9.74,1.32,1.76,2.91,1.18,4.5.5a10.89,10.89,0,0,1,2.54-1,12.56,12.56,0,0,1,2.8-.26c1.54-.06,2.92.64,4.38,1,.6.29-.11-1.09-.1-.42,0,.45-.08.34-.5.12s-.85-.34-1-.85c1.55-2.78,4.57-1.86,6.74-2.16,10.57-1.42,14.76-8.49,16.92-17.72.4-1.72.06-3.76,1.92-4.91.85,0,1.15.42.93,1.23a1.6,1.6,0,0,0-.05-1.57,6.63,6.63,0,0,1-.46-2.43,19.68,19.68,0,0,1,.1-3,7.81,7.81,0,0,1,2.51-4.64c1.21-.88,2.23-2.39,4.08-1.31,1.89,2.18,1.13,5.08,2.08,7.52.45,3,1.53,5.87.5,8.91l-.17,2.31c-1.49,1.44-1.1,3.52-1.8,5.23-1,5.11-3.54,9.53-6.18,13.91A30.47,30.47,0,0,1,371.14,215.18Z" transform="translate(-264.94 -114.94)" fill="#fe4100"/>
    <path d="M370,160.06c2.93.11,4,2.35,5.05,4.51a2.74,2.74,0,0,1-.24,1.31c-1.17,1.87-2.77,3.44-3.86,5.38-2.21.44-4.07-.61-6-1.42-.29-.14-.53-.34-.81-.5-.45-.26-.73-.92-1.42-.59.51.26.53.67.35,1.16-4,2.45-8.64,2.12-13,3a4.82,4.82,0,0,1-1.4-.2c-1.22-.89-2.39-2-4.08-1.1a6.94,6.94,0,0,0-2,1.43,3.69,3.69,0,0,1-1.13.67,5.7,5.7,0,0,1-2.68,0c-3.61-.22-7.14,0-10.42,1.78a15.42,15.42,0,0,1-2.56,1.36A13.67,13.67,0,0,1,319.1,178c-2.4-1.14-5.68,1.27-7.59-1.87a5,5,0,0,1,3.28-5c8.05-2.94,16.63-3,25-4.5,8.67-1.53,17.32-3.22,26.08-4.18A6.41,6.41,0,0,0,370,160.06Z" transform="translate(-264.94 -114.94)" fill="#fe773c"/>
    <path d="M370,160.06c1.26,3-1.07,3.41-2.9,3.7-13.78,2.15-27.57,4.16-41.36,6.26-3.6.55-7.18,1.29-10.77,1.95-1.18-2.16.53-2.83,1.88-3.69,9.88-3.16,20.24-3.73,30.36-5.58,6.53-1.19,13.17-1.83,19.61-3.54a2.75,2.75,0,0,1,2.3-.21Z" transform="translate(-264.94 -114.94)" fill="#fe6a2e"/>
    <path d="M317,169a3.2,3.2,0,0,0-2,2.95c-1.75.78-2.15,2.56-3,4a33.82,33.82,0,0,1-2.11,3.73,5.7,5.7,0,0,0-.43,3.21,1.69,1.69,0,0,1-.52,1.14c-5,2.69-3.52,8-4.83,12.16-.88,2.79-.83,5.88-1.2,8.83-2.23-10.33.86-19.71,6-28.34,7.71-13.06,18.58-22.22,34.14-24.64a1.65,1.65,0,0,1,.23,2c-1.07,1.07-2.58,1.08-3.86,1.65-1,.41-2.09.86-3.15,1.23a50.35,50.35,0,0,0-5,1.78,27.41,27.41,0,0,0-5.57,3.76c-1.54,1.48-3.49,2.48-4.86,4.16A17.58,17.58,0,0,1,317,169Z" transform="translate(-264.94 -114.94)" fill="#fe8a54"/>
    <path d="M343,153.91l0-1.81a24.81,24.81,0,0,1,16.05.85c-.5,1.51-1.75,1.94-3.14,2.17a11.08,11.08,0,0,1-3.2-.1C349.64,153.25,346,156,343,153.91Z" transform="translate(-264.94 -114.94)" fill="#fe7941"/>
    <path d="M379,174l-2.81,2c-3.05-1.15-2.23-3.87-2.51-6.15.47-1.59-.69-3.66,1.38-4.8a.28.28,0,0,0,0-.48l1,.54a12.29,12.29,0,0,0,2.42,4.16C378.61,170.85,380.09,172.27,379,174Z" transform="translate(-264.94 -114.94)" fill="#fd3d00"/>
    <path d="M379,174l-1.05-5.06q-.42-.34-.26-.65t.31-.3a25,25,0,0,1,4,13q-.51.72-1,0C379,179.05,380.77,176,379,174Z" transform="translate(-264.94 -114.94)" fill="#e03000"/>
    <path d="M338,233l11.41-1.91c-3.11,3.85-7.38,2.77-11.41,2.7q-.5-.27-.33-.53C337.79,233.13,337.9,233,338,233Z" transform="translate(-264.94 -114.94)" fill="#a82602"/>
    <path d="M381,181h1a14.68,14.68,0,0,1,0,9.55C382.48,187.28,380.38,184.29,381,181Z" transform="translate(-264.94 -114.94)" fill="#cb2a00"/>
    <path d="M369.12,159,368,160c-1.32.69-1.87-.6-2.74-1.06a25.15,25.15,0,0,0-3.91-2.37,1.34,1.34,0,0,1-.53-1.21c1.17-1.42,2.49-1,3.84-.34C366.25,156.21,368.31,156.87,369.12,159Z" transform="translate(-264.94 -114.94)" fill="#fe773c"/>
    <path d="M324.86,232.1c2.5-.61,4.72.95,7.14.91q.49.27.33.55c-.11.18-.22.27-.33.27C329.54,233.59,326.56,235.48,324.86,232.1Z" transform="translate(-264.94 -114.94)" fill="#b02a04"/>
    <path d="M364.65,155c-1.27.09-2.7-.4-3.65.93-1,.54-1.65,0-2.23-.78-.33-1.11.43-1.59,1.2-2.07A6,6,0,0,1,364.65,155Z" transform="translate(-264.94 -114.94)" fill="#fe7941"/>
    <path d="M380.07,198.09c.14-1.9-1-4.24,1.8-5.22C381.74,194.77,381.85,196.75,380.07,198.09Z" transform="translate(-264.94 -114.94)" fill="#a31c00"/>
    <path d="M358.94,226.95c.43-2.36,2.39-2.68,4.22-3.18C362.56,225.9,361,226.75,358.94,226.95Z" transform="translate(-264.94 -114.94)" fill="#8f1500"/>
    <path d="M371.14,215.18c.31-1.59,1-2.86,2.74-3.18C373.82,213.79,373.27,215.16,371.14,215.18Z" transform="translate(-264.94 -114.94)" fill="#911700"/>
    <path d="M332,233.83q0-.41,0-.82l6,0q0,.4,0,.79Z" transform="translate(-264.94 -114.94)" fill="#b72d04"/>
    <path d="M378,168a8.8,8.8,0,0,1-.06.94c-1.79-.7-2-2.19-1.94-3.83C377.33,165.62,377.72,166.77,378,168Z" transform="translate(-264.94 -114.94)" fill="#f02e00"/>
    <path d="M360,153.1,359,155a2.34,2.34,0,0,1-1.27.69c-1-.1-2-.2-1.77-1.66l3.08-1.06A1.16,1.16,0,0,1,360,153.1Z" transform="translate(-264.94 -114.94)" fill="#fe6123"/>
    <path d="M349.14,172.06l14.12-2.9c.51-.81,1.1-.68,1.74-.16l6,2c1.64.49,2.24,1.88,2.8,3.29,1,1.91-.93,3.86.1,5.77l0,2.75c-.85.76.13,2.24-1.12,2.85-1.2,4.67-1.87,9.5-4.06,13.89-3.75,7.55-10.59,9.7-18.22,10.45-1.31.13-2.64,0-3.79.83-.85,1-2,.51-3,.57-1.9-.78-1.91-2.43-1.9-4.09a5.3,5.3,0,0,1,.36-1.51c3.83-3.27,4.69-7.69,4.71-12.42.17-1.19.65-2.31.73-3.52,0-.71.08-1.43.14-2.14a28.68,28.68,0,0,1,.76-4.19,7.57,7.57,0,0,0-1.29-6A4.66,4.66,0,0,1,349.14,172.06Z" transform="translate(-264.94 -114.94)" fill="#fefdfc"/>
    <path d="M343,206.16q0,.37,0,.75c-1.75,1.22-.22,3.92-2.26,5l-1.8,1.2c-2,.36-4,1.09-5.89-.45l-6-10.78c-2.2-.13-1,2.32-2.2,2.92-.36,1.58-.78,3.15-1.06,4.75a8.35,8.35,0,0,1-10,6.66c-.61-.16-1.51-.23-1.3-1.06.41-1.67-.2-3.81,1.8-4.81,1.46-.73,3.24-1.07,2.56-3.37-.43-.65-.54-1.26.21-1.77a6.28,6.28,0,0,0,.78-4.23c-.42-.65-.54-1.26.22-1.75,1.13-1.89.82-4,1.16-6.09.62-1.44-.36-2.7-.45-4.06a11.49,11.49,0,0,0-1.56-5.24,7.15,7.15,0,0,1-.36-2.94,4.31,4.31,0,0,1,2.35-3.75l6.75-1.3c2.95-1,4,.44,4.12,3.11a6.56,6.56,0,0,1-.16,1.47,21.56,21.56,0,0,0-.66,2.79c0,.33-.43,1,.29.93.25,0,.45-.79.71-1.21a13.47,13.47,0,0,1,2.79-2.78,10.32,10.32,0,0,0,2.18-3.08c.7-1.06,1.43-2.09,2.19-3.11a1.68,1.68,0,0,1,1.71-.6l2.82-.5c5.14-1.45,5.27-1.33,4.85,4.4-.51,1.85-2.3,2.41-3.56,3.5a57.18,57.18,0,0,0-3.43,4.94c-1.87,2.21-4.12,4.11-5.61,6.65-.85,1.41-.19,2.52.72,3.58C337.68,199.33,338.7,204,343,206.16Z" transform="translate(-264.94 -114.94)" fill="#fefdfc"/>
    <path d="M318.1,184c2.18,1.11,2.47,2.9,1.83,5-1.31,2.19-3.45.43-5.08,1.07l-2-.73a2.81,2.81,0,0,1-2.52-1.8,3.55,3.55,0,0,1,.61-3.21A5.35,5.35,0,0,1,318.1,184Z" transform="translate(-264.94 -114.94)" fill="#fe9765"/>
    <path d="M373.89,180.09c-1.49-1.79-.63-4-1-6,.53-1.78-1.08-4.46,2.15-5.11.12,2.38-.57,4.9,1.19,7C375.32,177.3,373.8,178.24,373.89,180.09Z" transform="translate(-264.94 -114.94)" fill="#fe9662"/>
    <path d="M314.85,190.07c1.21-2.67,3.46-.37,5.08-1.07-.17,1.39.55,2.91-.65,4.13C319,190.39,316,191.55,314.85,190.07Z" transform="translate(-264.94 -114.94)" fill="#fea173"/>
    <path d="M324.89,204.81c.06-1.11.09-2.23.19-3.34.06-.68-.28-1.82,1-1.56,1,.19.87,1.2,1,2l-1.81,5.89Z" transform="translate(-264.94 -114.94)" fill="#fe2800"/>
    <path d="M340.77,211.91c1.23-1.45-1.13-4.52,2.26-5,.39,1.41-1.25,3.29,1,4.28q.48.25.33.52c-.1.18-.2.27-.3.27Z" transform="translate(-264.94 -114.94)" fill="#fe4300"/>
    <path d="M311,185v2.91c-1.16.75-1.45-.35-2-.94q0-1.43-.07-2.86a5,5,0,0,0,.1-.86,1.47,1.47,0,0,1,1.45-1.46C312,182.62,311.83,183.74,311,185Z" transform="translate(-264.94 -114.94)" fill="#fe9a66"/>
    <path d="M309,186.94l2,.94,1.83,1.45C310.21,190.7,309.33,189.26,309,186.94Z" transform="translate(-264.94 -114.94)" fill="#fe3100"/>
    <path d="M344,212l0-.79,2.74-.33,2.22.38,0,.74Z" transform="translate(-264.94 -114.94)" fill="#fe2000"/>
    <path d="M333.08,212.66l5.89.45C336.9,214.32,334.89,214.85,333.08,212.66Z" transform="translate(-264.94 -114.94)" fill="#fe2900"/>
    <path d="M317.12,205.21l-.21,1.77c-1.25-1.11-1-2.47-.67-3.92C317.48,203.44,316.74,204.55,317.12,205.21Z" transform="translate(-264.94 -114.94)" fill="#fe2200"/>
    <path d="M372.82,185.69c-.07-1.12-.32-2.32,1.12-2.85,0,1.08.08,2.17,0,3.25,0,.29.24,1.14-.58.76C373.08,186.72,373,186.09,372.82,185.69Z" transform="translate(-264.94 -114.94)" fill="#fe2100"/>
    <path d="M318.13,199.22,317.9,201c-1.24-1.12-1-2.47-.47-4.67Z" transform="translate(-264.94 -114.94)" fill="#fe2300"/>
    <path d="M319.26,177.15,317.91,181c-.67.81-.47,3.23-2.51,1.56-1.52-1.25-3.38-1.28-5.07-1.91a3,3,0,0,1-1.31-1.61,5.82,5.82,0,0,1,3-3.06C314.13,178.26,317.2,174.5,319.26,177.15Z" transform="translate(-264.94 -114.94)" fill="#fe834a"/>
    <path d="M329,180c0-2.08.65-4.69-3-4.16l2-1a2.15,2.15,0,0,1,1.89-.4c1.87,1.37,5-.42,6.24,2.57a4,4,0,0,1-2.17,3.6C332.33,180.17,330.5,181.4,329,180Z" transform="translate(-264.94 -114.94)" fill="#fe8651"/>
    <path d="M375,169c-1.91,1.2-.07,4-2.15,5.11L371,171c-.6-3.32,1.65-4.71,4.06-6C373.83,166.35,375.16,167.68,375,169Z" transform="translate(-264.94 -114.94)" fill="#fe844b"/>
    <path d="M330,175l-2-.13c3.41-2.91,7.18-3.16,11.21-1.51l-1,.69A9.55,9.55,0,0,1,330,175Z" transform="translate(-264.94 -114.94)" fill="#fe7e45"/>
    <path d="M345.91,177.83c1.07-3.53.62-5.85-3.92-5q0-.44,0-.89a9.48,9.48,0,0,1,4.63-.8A3.22,3.22,0,0,1,348,172l1.15.06c-.56,1.92-1.24,3.82-1,5.88a2,2,0,0,1-1.21,1.41,1.67,1.67,0,0,1-1.21-.31A1.24,1.24,0,0,1,345.91,177.83Z" transform="translate(-264.94 -114.94)" fill="#fe7c40"/>
    <path d="M348,172h-1c-.77-1-2.2,0-3-1C345.71,169.88,347.42,168.7,348,172Z" transform="translate(-264.94 -114.94)" fill="#fe7a41"/>
    <path d="M344,171c1.09,0,2.27-.18,3,1h-5A2.11,2.11,0,0,1,344,171Z" transform="translate(-264.94 -114.94)" fill="#fe7335"/>
    <path d="M365,169l-1.74.16-3-.6C362.43,167.86,363.8,167.58,365,169Z" transform="translate(-264.94 -114.94)" fill="#fe6721"/>
    <path d="M366,158l2,2c-5.62,2.52-11.79,2.53-17.69,3.65-11,2.11-22.19,3.62-33.29,5.38.41-1.61,2.27-1.78,3-3a7.11,7.11,0,0,1,3.09-1.1c5.6-1.22,11.31-1.83,16.94-2.89C348.68,160.36,357.35,159.3,366,158Z" transform="translate(-264.94 -114.94)" fill="#fe6629"/>
    <path d="M343,153.91c3.35,0,6.71-2,10,.06-2.27,3.94-6.18,2.58-9.55,3-1.56-.5-3.3-.59-4.47-2C340,153.55,341.64,154.27,343,153.91Z" transform="translate(-264.94 -114.94)" fill="#fe4b09"/>
    <path d="M323,166h-2.95c1-2.11,3.38-2.59,5-4a2.35,2.35,0,0,1,1.39-.44c3.16.38,6.43-2.06,9.52.36a1.06,1.06,0,0,1-.12,1.4C331.6,164.45,327.07,164.14,323,166Z" transform="translate(-264.94 -114.94)" fill="#fe6020"/>
    <path d="M326,162h-1A10.45,10.45,0,0,1,331,158a1.59,1.59,0,0,1,1.29,1.58C330.62,161.47,328.7,162.74,326,162Z" transform="translate(-264.94 -114.94)" fill="#fe500d"/>
    <path d="M339,155c1.38.16,3-.46,4,1a6.81,6.81,0,0,1-6.64,1.46.92.92,0,0,1-.35-1.33Z" transform="translate(-264.94 -114.94)" fill="#fe4603"/>
    <path d="M336,156.13q0,.44,0,.87c.27,2.13-1.53,1.95-2.72,2.45A1.56,1.56,0,0,1,332,159l-1-1A9,9,0,0,1,336,156.13Z" transform="translate(-264.94 -114.94)" fill="#fe4906"/>
    <path d="M309,179.06l1.06,1a1.49,1.49,0,0,1,0,2l-1,1.17C307.15,181.85,308.46,180.45,309,179.06Z" transform="translate(-264.94 -114.94)" fill="#fe6022"/>
    <path d="M333,159l3-2,7-1c3.41-.34,6.85-.51,10-2l3,0a2.1,2.1,0,0,0,2,1c.14,1.29-.78,1.82-1.75,2-6.32,1.38-12.7,2.36-19.11,3.22A4.43,4.43,0,0,1,333,159Z" transform="translate(-264.94 -114.94)" fill="#fe5110"/>
    <path d="M333,159a114.39,114.39,0,0,0,25-4l1,0,2,1,1,.07c2.09,2.16.52,2.58-1.36,2.94-5.48,1.06-11.07,1.5-16.52,2.7-2.46.62-5,.24-7.46.32l-.66,0c-3.33-1.21-6.67,2.35-10,0a11.28,11.28,0,0,0,6-3Z" transform="translate(-264.94 -114.94)" fill="#fe5a19"/>
    <path d="M343,161c5.83-1,11.65-2.08,17.5-2.94,1.53-.22,2.2-.47,1.5-2,1.74-.16,2.62,1.41,4,2-1.45,3.84-4.82,1.61-7.23,2.1-6.19,1.26-12.5,2-18.76,2.9a4,4,0,0,1-4,0q0-.5,0-1h0C338.19,160.66,340.82,162.37,343,161Z" transform="translate(-264.94 -114.94)" fill="#fe6123"/>
    <path d="M343,206.16c-3.56.21-5.12-2-6.3-4.93a40.36,40.36,0,0,0-2.83-5c-1.32-3.14.07-4.4,3.09-4.07,1.11.12,1.35.24.8-.86,1-1.52,2.46-1.39,4-1.23,2.07.87,4.93.07,6.09,2.86,1,3.35-.55,6.51-.69,9.77C347,205.63,343.57,204.05,343,206.16Z" transform="translate(-264.94 -114.94)" fill="#fe4102"/>
    <path d="M363.9,189c.55,4.78-.93,8.63-5.07,11.31-1.06.68-2,2.38-3.25,1.63s-.8-2.54-.45-3.94c1.14-1.84,1.85-3.76,1-5.93a8.62,8.62,0,0,1,1-5,4.64,4.64,0,0,1,4.59-1.64C363.42,186,363.19,187.78,363.9,189Z" transform="translate(-264.94 -114.94)" fill="#fe4305"/>
    <path d="M346,179.06l1-.09c3.63.1,1.79,3.44,3,5a6.68,6.68,0,0,0-.87,4.06,1.12,1.12,0,0,1-1.38.11c-2.19-3-6.26-.75-8.66-3.14l3.1-5A8.7,8.7,0,0,0,346,179.06Z" transform="translate(-264.94 -114.94)" fill="#fe9968"/>
    <path d="M362,186.07l-4.92,1c0-1.8-.34-3.64.78-5.27.79.36.25,1.34.82,1.8-.45-.77-.06-1.41.33-2a5,5,0,0,1,4.43-.3c.75.36,1.06,1.11,1.52,1.72l0,2C364,185.5,363.29,186.51,362,186.07Z" transform="translate(-264.94 -114.94)" fill="#fea072"/>
    <path d="M364,182h-5c-.75-.45-.33-1.43-.9-2,.45-5.23,3.5-2.58,5.89-1.94A3.8,3.8,0,0,1,364,182Z" transform="translate(-264.94 -114.94)" fill="#fe9969"/>
    <path d="M347.84,193c-1.64-1.56-4.19-.24-5.82-1.83a2.93,2.93,0,0,1,2.31-2.13,5,5,0,0,1,4.69,1C349.4,191.29,348.28,192,347.84,193Z" transform="translate(-264.94 -114.94)" fill="#fe3000"/>
    <path d="M349.95,184c-1.37-1.44-.92-4-3-5l1.17-1C351.86,179,349.73,181.85,349.95,184Z" transform="translate(-264.94 -114.94)" fill="#fe8e58"/>
    <path d="M356.13,192c.91,2.19,2.3,4.45-1,5.93C354.56,195.85,355.78,194,356.13,192Z" transform="translate(-264.94 -114.94)" fill="#fe2300"/>
    <path d="M349,190l-5-.14c.47-2.4,1.87-2.86,4-1.87l1.07.06Z" transform="translate(-264.94 -114.94)" fill="#feb48a"/>
    <path d="M362,186.07l2.92-1A7.09,7.09,0,0,0,363.9,189Z" transform="translate(-264.94 -114.94)" fill="#fe2000"/>
    <path d="M358.13,180l.9,2c-.12.73.24,1.6-.78,2.21l-.35-2.41Z" transform="translate(-264.94 -114.94)" fill="#fe9059"/>
    <path d="M364,182l0-3.9c1.95,1.31,1,3.18,1,4.89Z" transform="translate(-264.94 -114.94)" fill="#fe8e58"/>
    <path d="M348,188a6,6,0,0,0-4,1.87l-2,1.29c-1.46-.07-2.94-.19-4.22.74a4.83,4.83,0,0,1-4.68.19c1.41-2.83,4-4.69,5.93-7.08,2.08,0,4.17.08,6.25,0S348.09,186.08,348,188Z" transform="translate(-264.94 -114.94)" fill="#fea376"/>
    <path d="M310.06,182.06q0-1,0-2c2.23.28,5-1.1,6.29,2.06l1.53-1.07.19,3c-2.39.12-4.87-.36-7.09,1C311,183.91,311.2,182.76,310.06,182.06Z" transform="translate(-264.94 -114.94)" fill="#fe8a54"/>
    <path d="M330,175l8.15-.95a2.76,2.76,0,0,1-2,3c-1.35-.68-2.64-1.3-4.24-.55C330.5,177.13,330.17,176.07,330,175Z" transform="translate(-264.94 -114.94)" fill="#fe8048"/>
    <path d="M331.15,183.31c-.5,1.63-.81,3.39-3.09,4.49-.15-2.53-.59-4.73,1.14-6.7C330.79,181,331.64,181.56,331.15,183.31Z" transform="translate(-264.94 -114.94)" fill="#fe8d57"/>
    <path d="M333.11,192.07l4.68-.19,2.88.41c-2.79,1.46-7-.9-6.77,4C332.21,195.15,331.15,193.9,333.11,192.07Z" transform="translate(-264.94 -114.94)" fill="#fe2e00"/>
    <path d="M331.15,183.31a3.59,3.59,0,0,0-1.95-2.21L329,180c1.67,0,3.58-1.89,4.91.64Z" transform="translate(-264.94 -114.94)" fill="#fe8c57"/>
    <path d="M346,179.06c-.88,2-2.22,2.05-3.86,1,.83-1.46,2.67-1.19,3.78-2.19Z" transform="translate(-264.94 -114.94)" fill="#fe8d57"/>
    <path d="M336,163h4c-5.54,1.73-11.32,2.1-17,3C326.81,162.73,331.73,164.26,336,163Z" transform="translate(-264.94 -114.94)" fill="#fe6223"/>
    <path d="M343,161c-2.11,1.92-4.67.61-7,1C338,159.09,340.75,161.92,343,161Z" transform="translate(-264.94 -114.94)" fill="#fe6020"/>
  </g>
</svg>
