<svg id="Layer_1" data-name="Layer 1" xmlns="http://www.w3.org/2000/svg" width="683.21" height="384.2" viewBox="0 0 683.21 384.2">
  <title>midt_logo_logotype_2-md</title>
  <g>
    <path d="M342.57,385q-168.46,0-336.92.08c-3.49,0-4.76-.36-4.76-4.43Q1.1,192.94.9,5.23C.9,1.59,1.7.91,5.26.91q337.17.16,674.34,0c4,0,4.48,1.16,4.48,4.71q-.15,187.46,0,374.91c0,3.79-.9,4.58-4.61,4.58Q511,384.92,342.57,385Z" transform="translate(-0.89 -0.89)" fill="#fefefe"/>
    <path d="M221,154c-4.57,1.22-9.69-1.44-14,2-1,1.7-.5,3.57-.51,5.36-.13,20.27.15,40.55-.17,60.82-6.67,1.8-13.46.64-20.19.67-3.36,0-2.51-2.92-2.51-4.91q-.07-27.16,0-54.33c0-10.35-1.49-12.36-11.58-15.45-.78-.24-1.66-.18-2.13-1l.06-.64q.12-3.23,0-6.46-.07-.64-.21-1.27c3.61-2.8,8-1.76,11.9-1.85,31.1-.7,62.21-.91,93.3.58,6.29.3,12.63.72,18.69,2.7,2.86.94,5.64,2.08,6.47,5.46,1.15,2.17,1.5,4.64,2.56,6.85.52,2,.23,4,.32,6,.87,14.61.56,29.22.22,43.84a9.75,9.75,0,0,0,.47,2.92c.62,3.35.11,6.74.35,10.1l.07.83c.54,6.69.54,6.72-5.8,6.82-3.13,0-6.26,0-9.38-.09-2.87-.13-5.47-1-6.92-3.77-1.05-3.07-.44-6.24-.46-9.35-.08-13.27,0-26.54-.06-39.81,0-1.5.38-3.11-.5-4.49-.41-.6-.69.46-.13.12.27-.17.59.22.59.56q.12,20.4,0,40.81c0,3.43.66,6.92-.57,10.29-1.36-2.28-1-4.82-1-7.27,0-12.92,0-25.84,0-38.77,0-14,0-14-13-17.13,1.33-1,2.86-.39,3.39-.44-.51.15-2.06-.66-3.36.45-3.79.57-7.72-.37-11.44,1-1.94,1.13-.93,3-.93,4.46-.08,19.11,0,38.22-.07,57.33,0,1.81.37,3.66-.38,5.42-7.34,1-14.67,1.55-22-.34.85-4.76.33-9.57.36-14.35.09-15,0-29.92,0-44.87-.35,19.71.53,39.42-.47,59.12-1.42-1.58-.7-3.5-.71-5.25-.06-17.32,0-34.63,0-51.95,0-3.85-.39-7.55-4.3-9.68C225.18,153.5,223.07,153.88,221,154Z" transform="translate(-0.89 -0.89)" fill="#840040"/>
    <path d="M367,175c.06-10.72,2.52-20.7,9.58-29A21.86,21.86,0,0,1,390,138c8.39-.58,16.77-1.31,25.19-1.16,7.41-.44,7.29-.44,7.76-8,.42-6.64-.87-13.37,1-19.94a2.19,2.19,0,0,1,.53,1.63c0,5.2,0,10.41.14,15.61.25.65,1.14-.29.56,0-.23.14-.38,0-.42-.27-.53-5.25-.14-10.51-.22-15.77,1.08-2.95,3.6-1.07,5.4-1.6,1.79.13,3.61-.32,5.36.38a17.65,17.65,0,0,1,8.77,2.07c1.68,2.41,2,5.1,2,8-.07,19.55,0,39.1,0,58.65,0,7.17,0,14.34,0,21.5a7.55,7.55,0,0,0,.21,1.44,5.55,5.55,0,0,1,.19.86,2.66,2.66,0,0,1,0,.88c.37-.14-.08-.46.14-.64a.84.84,0,0,1,.61-.77c.18,6.37,3.93,9.07,9.82,9.87,1.77.24,4,0,5,2.27a11.82,11.82,0,0,0-.11,7c.1,2.9-1.91,3-4,3.08a588.11,588.11,0,0,1-62.18-.15c-18-1-28.61-15-28.71-34.9C367.05,183.67,367.08,179.33,367,175Z" transform="translate(-0.89 -0.89)" fill="#840040"/>
    <path d="M478.19,116.92c8.48.58,9.42,1.4,10.7,9.29,1.86,11.49,1.86,11.48,13.78,12,2.26.1,4.64-.14,6.43,1.73,0,2.72-.43,5.44.14,8.14-3.09,2.08-7,1.76-10.25,3.35-4.31,2.08-6.77,4.92-6.64,10,.32,12.81.24,25.64.52,38.45.15,7.21,1.35,8.73,8.3,10.3,4.11.93,7.95,3.06,12.4,2.68,2.35-.2,3.7,1.45,3.56,3.74s.62,5.61-3.07,5.82c-11.58.66-23.22,2.27-34.72-.57a12.46,12.46,0,0,1-9.65-9.76c1.42-4.68-.76-9.15-.77-13.79,0-25.41,1.36-50.8,1.11-76.21a8.55,8.55,0,0,1,.47-3.92C472.78,116.18,475.6,117.22,478.19,116.92Z" transform="translate(-0.89 -0.89)" fill="#850040"/>
    <path d="M351.09,221c0,1.57-1.09,1.9-2.34,1.9q-9.67,0-19.34,0c-1.23,0-2.3-.37-2.38-1.9a5.41,5.41,0,0,0,.92-2.32c0-19.25.17-38.5-.07-57.75-.66-1.21.22-2.86-1.08-3.9-1.63-5.39-6.4-6.89-10.92-8-4.85-1.14-3.81-4.38-3.92-7.58-.14-3.87,2.7-3.71,5.06-3.81a231.46,231.46,0,0,1,30.74.29c1.38.13,3.18-.24,3.32,2-.72.62-.63,1.45-.62,2.29.06,25.31,0,50.62,0,75.93C350.5,219.18,350.22,220.24,351.09,221Z" transform="translate(-0.89 -0.89)" fill="#840040"/>
    <path d="M500.9,266.05c-1.82.15-2.26-1.28-2.46-2.5-.88-5.39-.57-10.83-.13-16.23.2-2.45,2.68-2.59,4.49-3.08,3.1-.83,6.13.26,9.18.67,1.09-2.19.4-4.53.51-6.8.13-2.63,1.21-3.24,3.48-2l-.06-.07a148,148,0,0,1-.06,29.92H514a2.33,2.33,0,0,1,0-3c1.06-4,.08-8,.43-12-.26-.66-1,.38-.49,0,1,3.88.38,7.8.3,11.7a1,1,0,0,1-1.24.65c-2.33-2.74-1.21-6-1.4-9.11s-1-5.57-4.76-5.68c-4-.11-4.68,2.45-4.51,5.6.15,2.92-.8,6.06,1.6,8.55,1.58,1.43,3.35,1.09,5.14.56a7.07,7.07,0,0,1,1.48-.18c1,.07,2.36.29,2.4,1.32.07,2-2.3.57-3,1.74h0A20.06,20.06,0,0,1,500.9,266.05Z" transform="translate(-0.89 -0.89)" fill="#857c63"/>
    <path d="M471,118c0,13.15-.06,26.3,0,39.44.07,12.27-1.44,24.48-1.12,36.77a143.63,143.63,0,0,0,1.21,14.34c.21,1.64.49,3-1.44,3.58-1.16-1.83-.95-3.83-.77-5.84-.88-12-.32-24.12-.32-36.17,0-8.4-.62-16.83.35-25.22l0,.06a40.37,40.37,0,0,0,.08-15c-.13-4.38-1.14-8.82.89-13.05C471,116.49,471.19,117,471,118Z" transform="translate(-0.89 -0.89)" fill="#82003c"/>
    <path d="M379.84,249.27c-.65-1.53-6.56-2.48-.53-4.77.09,0,.09-.3.15-.45.65-1.64-1.32-4.77,1.64-4.86,3.26-.1,1.09,3.1,1.72,4.71,1,2.54,3.09,1,4.66,1.38.92.21,2.35-.21,2.46,1,.16,1.79-1.52,1.55-2.51,1.37-4.37-.8-5.06,1.55-4.64,5.07a25.37,25.37,0,0,1,0,3c0,7.56,0,7.56,7,8.83-3.21,3.82-7.81,3.1-9.94-1.55A29.81,29.81,0,0,0,379.84,249.27Z" transform="translate(-0.89 -0.89)" fill="#262102"/>
    <path d="M235,264.74c-2.21,1.6-4.77,1.25-7.21,1.13-3.46-.18-5.56-1.92-5.52-5.64,0-4.11.25-8.23.06-12.32-.11-2.38,1.67-2.79,3-3.21,3.72-1.15,7.48-1.26,10.9,1.13a2.71,2.71,0,0,1-1.37,1.82c-.29.14-.6.24-.91.35-2.06.75-5.08-.5-6.11,2.19a14.7,14.7,0,0,0-.13,9.21c1,3.4,4.51,1.74,6.79,2.67C235.82,262.74,237.15,263.43,235,264.74Z" transform="translate(-0.89 -0.89)" fill="#877f67"/>
    <path d="M214.14,266.06c-3.49,1.65-7.13.72-10.71.57a3.71,3.71,0,0,1-1.82-.77c-6.08-4.31-3.22-10.65-3.17-16.09,0-4.36,4-5.69,8-5.77,2,0,4-.38,5.76.92a1.41,1.41,0,0,1-1.35.57,40.27,40.27,0,0,0-5.59.23c-.64.33.39.8,0,.24-.15-.23,0-.36.3-.38a25.79,25.79,0,0,1,5.28.09,1.4,1.4,0,0,1,.37,1.31c-1.39,1.52-3.34,1.09-5.07,1.45-1.41.29-2.59.94-2.4,2.57.16,1.47,1.46,1.57,2.64,1.66a13.91,13.91,0,0,0,6.29-.91c2.47-.3,2,2.23,3.18,3.24-.67,1.26-1.81,1-2.9.9a25.88,25.88,0,0,0-11,.16c-.32,2.9-1,5.89,2.09,7.89,1.37,1.74,3.31.82,5,1.06S212.73,264.41,214.14,266.06Z" transform="translate(-0.89 -0.89)" fill="#8f866f"/>
    <path d="M300,247.95c1.43,5.21.33,10.53.61,15.79.06,1.2-.17,2.42-1.86,2.29s-1.67-1.33-1.67-2.53c0-3.32,0-6.64,0-10,0-6.41-.09-6.48-6.29-6.42l-3.48,0a4,4,0,0,0-2.05,1.08,1.92,1.92,0,0,1-1.16.11c-.53-.32-.71-1-1.15-1.35,0-.16-.1-.38,0-.48,3.24-4.17,15.07-3.17,17.1,1.44-1.17,2.35-.34,4.85-.53,7.27s.22,4.92-.14,7.37C299.92,257.73,298.82,252.78,300,247.95Z" transform="translate(-0.89 -0.89)" fill="#857d63"/>
    <path d="M262.9,266.2a4.68,4.68,0,0,1-4.46-4,35.34,35.34,0,0,1,.07-13.73c.82-3.6,4-4.57,7.37-4.52,2.41,0,5-.64,7.16,1-.64.66-1.47.52-2.26.5a43.33,43.33,0,0,0-6.5.28c-.63.38.43.78,0,.24-.19-.26-.11-.4.23-.43,2.1-.14,4.21-.06,6.31,0,.91.12,1.42.56,1.24,1.55a3.75,3.75,0,0,1-.78.59c-2.29,1.29-5.86-.48-7.25,2.25-1.6,3.14-.65,6.81-.54,10.26a11.33,11.33,0,0,0,.78,2.87,3.89,3.89,0,0,1,.17,1.55A2.18,2.18,0,0,1,262.9,266.2Z" transform="translate(-0.89 -0.89)" fill="#938c76"/>
    <path d="M480,244.9c8.87-2.64,11.87-.56,11.87,8.24,0,3.32,0,6.64,0,10,0,1.3.18,2.85-1.77,2.93s-1.87-1.48-1.89-2.79a90.24,90.24,0,0,1,0-10c.47-4.74-1.19-6.9-6.08-6.18a18.89,18.89,0,0,1-3,0c-.42.18-.95.37-1.11-.19C477.56,245.2,479.6,245.83,480,244.9Z" transform="translate(-0.89 -0.89)" fill="#888068"/>
    <path d="M451,255.12c2.54-2.31,5.66-1.19,8.54-1.4,1.81-.13,3.76.26,3.74-2.6,0-2.62-1-4.08-3.78-4a55.25,55.25,0,0,1-6-.05c-1.15-.09-2.87-.1-1.82-2.19a5.81,5.81,0,0,1,2.91-.32,12,12,0,0,0,6.5.06c1-.06,2-.35,2.81.4a2.63,2.63,0,0,1,2.16,2.72A78.41,78.41,0,0,1,466,266l-1-.07c-2.5-2.13-1.44-5.77-3.46-8.09-2.25-.85-4.58-.37-6.87-.44a22.62,22.62,0,0,1-2.92,0C450.68,256.92,450.14,256.25,451,255.12Z" transform="translate(-0.89 -0.89)" fill="#877d65"/>
    <path d="M446.14,112.62c1.59,4.35.75,8.87.79,13.3.18,25,.18,50,.24,74.93l-.31.28c-.34.3-.63.27-.86-.13h0c-1.11-7.71-.18-15.45-.48-23.18q0-29.94,0-59.88C445.55,116.17,444.94,114.28,446.14,112.62Z" transform="translate(-0.89 -0.89)" fill="#840040"/>
    <path d="M351.09,221c-1.84-1.59-1-3.73-1.05-5.62-.06-22.42,0-44.84-.08-67.26,0-2.58.18-5.1-.8-7.79-.8-2.21,1.25,0,1.92-.37.86,4.77.33,9.59.35,14.38.07,20.41,0,40.82,0,61.23C351.44,217.42,351.21,219.22,351.09,221Z" transform="translate(-0.89 -0.89)" fill="#7d0038"/>
    <path d="M433,251.06c0,4.33,0,8.66,0,13,0,1.78-.44,2.81-2.49,2.81s-2.47-1.09-2.46-2.84c0-8.83,0-17.66,0-26.48,0-2,.93-2.56,2.76-2.53s2.2,1,2.19,2.57C433,242.07,433,246.57,433,251.06Z" transform="translate(-0.89 -0.89)" fill="#8d856d"/>
    <path d="M446.14,112.62,446,178q-.48.68-1,0,0-30,0-60c0-2.34.88-5.17-2.64-6.16-1-.27-.07-.69.26-.78a7.53,7.53,0,0,1,1.49-.13Z" transform="translate(-0.89 -0.89)" fill="#7f0036"/>
    <path d="M303,206c-1.31-3.25.18-6.5.05-9.77-.52-12.74.9-25.54-1-38.24,1.11-1.76.17-3.75.6-5.59l.51-.51c1.68,2.73,1.1,5.84,1.15,8.74.31,17.4.39,34.8.53,52.2,0,1.15.16,2.34-.68,3.32l-.3-.51C302.85,212.49,304.31,209.13,303,206Z" transform="translate(-0.89 -0.89)" fill="#80023b"/>
    <path d="M189,247.86c-2.63.46-2.16,2.51-2.17,4.28,0,3.82,0,7.64,0,11.46,0,1.19-.1,2.45-1.76,2.42s-1.71-1.29-1.71-2.48c0-4.82.21-9.65-.09-14.44-.27-4.33,1.27-5,4.77-3.1C188.67,246.44,189.43,246.83,189,247.86Z" transform="translate(-0.89 -0.89)" fill="#888269"/>
    <path d="M480,244.9c.26.93-2.18.86-.82,2.2-2,.93-2.06,2.7-2,4.6.07,4,0,7.94,0,11.91,0,1.18,0,2.47-1.73,2.38-1.32-.07-1.44-1.16-1.45-2.17,0-5.63-.32-11.27.09-16.87C474.35,242.73,478.15,246.13,480,244.9Z" transform="translate(-0.89 -0.89)" fill="#8c836c"/>
    <path d="M254.09,222.29q0-31.43-.06-62.87c0-1.55-.65-3.44,1.44-4.35-.86,10.92-.23,21.87-.36,32.8-.11,9.95,0,19.9-.07,29.85C255,219.26,255.85,221.08,254.09,222.29Z" transform="translate(-0.89 -0.89)" fill="#7b002f"/>
    <path d="M355.75,265.09c-3-5.95-2.59-12.4-.39-18,1.71-4.39,6.77-3.71,10.91-2.18a2.33,2.33,0,0,1-1.13,1,6.87,6.87,0,0,1-1.45.35c-2.7.77-6.7-.85-7.22,3.94-.06,3.47.13,6.93,0,10.39.11-3.8,0-7.6.11-11.41.2-1,.63-1.56,1.72-1,2.15,5.09.93,10.42,1.16,15.66C358.63,265.33,357.46,266,355.75,265.09Z" transform="translate(-0.89 -0.89)" fill="#332c10"/>
    <path d="M206.35,222.16c-1.43-2.15-.25-4.46-.27-6.66-.14-18.12-.1-36.23,0-54.35,0-1.74-.67-3.7,1-5.16q.07,31.73.13,63.46C207.15,220.41,207.34,221.47,206.35,222.16Z" transform="translate(-0.89 -0.89)" fill="#7c0432"/>
    <path d="M328,220l-1,1-.23-64c1.38.59,1.14,1.84,1.21,3,.94,2.07.43,4.25.44,6.37q.07,24.37,0,48.74C328.46,216.75,328.9,218.44,328,220Z" transform="translate(-0.89 -0.89)" fill="#750027"/>
    <path d="M248.12,255.39c0-2.66,0-5.31,0-8,0-1.19,0-2.48,1.68-2.48,1.33,0,1.51,1.09,1.51,2.11q0,8.47,0,16.93c0,1.05-.31,2.06-1.63,2s-1.52-1.08-1.53-2.13C248.11,261,248.12,258.22,248.12,255.39Z" transform="translate(-0.89 -0.89)" fill="#898069"/>
    <path d="M348.42,255c0,2.81,0,5.62,0,8.42,0,1.07.33,2.48-1.42,2.6-1.59.11-1.86-1-1.85-2.25q0-8.42,0-16.85c0-1.08.27-2,1.52-2.12,1.68-.15,1.79,1,1.79,2.26C348.43,249.72,348.43,252.36,348.42,255Z" transform="translate(-0.89 -0.89)" fill="#191200"/>
    <path d="M443.09,235.82c1.44,9.56.38,19.18.55,28.76,0,2.51-1.64,2.85-3.6,1.4a5.37,5.37,0,0,0,.89-2.34c.3-8.69-.25-17.39.29-26.07A2.59,2.59,0,0,1,443.09,235.82Z" transform="translate(-0.89 -0.89)" fill="#8d856e"/>
    <path d="M468.94,144.91q0,30.69,0,61.39c-1.5-11.86-.65-23.78-.52-35.66C468.49,162.07,467.71,153.46,468.94,144.91Z" transform="translate(-0.89 -0.89)" fill="#850040"/>
    <path d="M325,246.12l2.56-1.27c3.47-.63,6.85-.89,9.51,2.11,1.85,5.63.42,11.43.84,17.13.08,1.11-.33,2-1.61,2-1.65,0-1.78-1.1-1.78-2.34,0-2.81,0-5.62,0-8.43,0-8.22,0-8.22-8.35-8.15C325.2,247.5,324.95,247,325,246.12Z" transform="translate(-0.89 -0.89)" fill="#211b01"/>
    <path d="M400.11,270c-1.37,5.5-5.05,6.91-9.42,3.62,6.44-2.26,6.44-2.26,6.44-9.71,0-5.33,0-10.65,0-16,0-2-.13-4.47,3-2A55,55,0,0,0,400.11,270Z" transform="translate(-0.89 -0.89)" fill="#898068"/>
    <path d="M280.88,217.24V165.08H282q0,27,0,54C280.65,219.08,280.88,218.09,280.88,217.24Z" transform="translate(-0.89 -0.89)" fill="#7f0036"/>
    <path d="M314,244.88c3.21-1.34,6.31-1.56,9.17.85a4.47,4.47,0,0,1,1.37,4c-.38,5.32.7,10.7-.58,16-2.6,1.13-2.67-.57-2.66-2.37,0-3.75,0-7.51,0-11.26,0-1.82.07-3.61-1.42-5-1.7-2.27-4.1-.33-6.07-1A1,1,0,0,1,314,244.88Z" transform="translate(-0.89 -0.89)" fill="#2c2705"/>
    <path d="M314,244.88l0,1.11c-.47.67-1.61.38-1.9,1.31l-.87.75c-1.31,5.63-.94,11.29-.22,16.95-2.8,1.17-3,1.18-3.07-1.09-.13-5.62-.26-11.25,0-16.86C308.18,242.19,312.25,246.52,314,244.88Z" transform="translate(-0.89 -0.89)" fill="#363118"/>
    <path d="M411.74,271.89c2.43-4.74.72-9.2-.95-13.66l.4-.49c1.16-.08,1.94.73,2.84,1.26,2.09,2.75,2-.58,2.95-1.05a2.43,2.43,0,0,1,.84,2.1,8.94,8.94,0,0,1-.74,2.23c.56,2.93-.52,5.43-2,7.83-.3-.19-.33-.64-.5-.76-.35-.25-.15.21-.21.33a20.44,20.44,0,0,1-1.33,2.56A1.33,1.33,0,0,1,411.74,271.89Z" transform="translate(-0.89 -0.89)" fill="#948d77"/>
    <path d="M238,245.09c.91-.23,1.89,0,1.87.95-.21,8.72,1.26,17.49-.77,26.15l-.63-.59c-1-2.71.16-5.82-1.47-8.43C236.81,257.11,235.38,251,238,245.09Z" transform="translate(-0.89 -0.89)" fill="#877f66"/>
    <path d="M270.92,245.09,273,245a4.09,4.09,0,0,1,3,3,45.22,45.22,0,0,1,0,14.75c-1,.75-1,2.77-2.91,2.4a2.73,2.73,0,0,1-.94-2,6.22,6.22,0,0,1,.14-1.51,34.61,34.61,0,0,0,0-12.28,3.36,3.36,0,0,1-.29-2.12l-1-1.24q-.43-.27-.3-.56T270.92,245.09Z" transform="translate(-0.89 -0.89)" fill="#8d856e"/>
    <path d="M238,245.09,238,264c1.22,2.48-.27,5.27.88,7.75l.2.4c-.89,1.06-1.42,2.55-3.13,2.63a2.73,2.73,0,0,1-1.33-1,1.7,1.7,0,0,1,.14-1.07,2.21,2.21,0,0,0,1.09-1.17c0-2.33,3.13-5-.84-6.88.29-.69.93-1.44-.31-1.88a36.49,36.49,0,0,0,.22-15.6l1.34-1.45Z" transform="translate(-0.89 -0.89)" fill="#8c846d"/>
    <path d="M400.11,270c-.29-.15-.79-.26-.83-.47-1.62-7.94-2.87-15.87.84-23.62Q400.12,258,400.11,270Z" transform="translate(-0.89 -0.89)" fill="#837a60"/>
    <path d="M369.92,237.76c.08-.66.36-1,1.08-.76,1.06,7.19.19,14.42.5,21.62.09,2.12-.39,4.28.37,6.36-1.34,2.56-2.61.61-3.9-.06-1.37.28-2.71.52-2.26-1.67.56-1,1.63-1.34,2.34-2.13a19.64,19.64,0,0,0-.15-11.66c-.56-.76-1.26-1.46-1.08-2.54a3.09,3.09,0,0,1,1.12-.94C371.15,243.86,368.47,240.31,369.92,237.76Z" transform="translate(-0.89 -0.89)" fill="#352f12"/>
    <path d="M451,255.12a1.92,1.92,0,0,0,.94,1.87c1.93,1.48.57,4.13,2.07,5.76a9,9,0,0,0,1,.68,7.55,7.55,0,0,0,5.59-.26c.86-.34,1.72-.75,2.64-.2a1.4,1.4,0,0,1-.27,1.9l-1.65,1.3a24.21,24.21,0,0,1-9.41-.12C448.28,262.81,448,259.42,451,255.12Z" transform="translate(-0.89 -0.89)" fill="#8a8269"/>
    <path d="M417,260l-.06-2.07c.09-4.29,2.62-7.77,3.85-11.69a1.74,1.74,0,0,1,2.31-1.31c1.39.44.95,1.57.56,2.45-1.56,3.57-3.19,7.1-4.79,10.64C418.13,258.55,418.95,260.57,417,260Z" transform="translate(-0.89 -0.89)" fill="#8c856d"/>
    <path d="M410.79,258.23c-1.53-3.62-3.1-7.24-4.58-10.88-.32-.79-1.2-1.89.27-2.44a2,2,0,0,1,2.79,1.25c1,2.59,2.59,5,2.72,7.85-1.17,1.09.45,2.8-.86,3.86Z" transform="translate(-0.89 -0.89)" fill="#918972"/>
    <path d="M366,264.05l2,.87c-4,2.86-8.1,3-12.21.17l3.52-1.22A5.09,5.09,0,0,1,366,264.05Z" transform="translate(-0.89 -0.89)" fill="#2d2708"/>
    <path d="M415.19,136.86c-1.08,1.39-2.63,1.16-4.08,1.13-7.05-.15-14.07.08-21,1.82-.45.11-1.42.55-1.07-.66.12-.43.61-.75.93-1.13h0c1.82-1.31,4.19.39,6-1.09l.32-.23.33.2a90.15,90.15,0,0,1,18.47,0Z" transform="translate(-0.89 -0.89)" fill="#7f0239"/>
    <path d="M515.84,266q0-15,.06-29.92c1.55,1,1.07,2.65,1.08,4.07q.06,10.91,0,21.82C517,263.34,517.46,265,515.84,266Z" transform="translate(-0.89 -0.89)" fill="#ecebe7"/>
    <path d="M441,265l-1,1c-.5-9.66-.46-19.32,0-29a.92.92,0,0,1,1.4.68C441.27,246.78,442,255.89,441,265Z" transform="translate(-0.89 -0.89)" fill="#7d755b"/>
    <path d="M371.87,265c-1.85-4.78-.57-9.74-.82-14.61-.23-4.44,0-8.91,0-13.37,1.15.15,1,1,1,1.84Q372,251.91,371.87,265Z" transform="translate(-0.89 -0.89)" fill="#2d2708"/>
    <path d="M235,274l1,.84c-3.25,1-6.57.4-9.86.43-1.2,0-3,.12-2.91-1.77.11-1.52,1.72-1.16,2.82-1.23,3.28-.21,6.62.49,9.85-.62l-.94,1.44c-3.28,1-6.74,0-10,.76-.64.28.41.7,0,.15-.13-.19,0-.33.36-.33C228.52,273.62,231.77,273,235,274Z" transform="translate(-0.89 -0.89)" fill="#918973"/>
    <path d="M214.14,266.06c-2.65,0-5.31,0-8-.12-1.05-.06-3,.32-2.09-2,3.28,0,6.57-.14,9.83.12C215.78,264.2,216.49,265.13,214.14,266.06Z" transform="translate(-0.89 -0.89)" fill="#898069"/>
    <path d="M367,175a17.29,17.29,0,0,1,0,13A28.92,28.92,0,0,1,367,175Z" transform="translate(-0.89 -0.89)" fill="#7e0236"/>
    <path d="M323.92,265.7c-.65-6.64.75-13.36-.79-20l1.92.39,1.16,1c-2.16,1.31-1.45,3.45-1.61,5.36C324.24,256.91,325.42,261.37,323.92,265.7Z" transform="translate(-0.89 -0.89)" fill="#4e4a3a"/>
    <path d="M272.92,262.77l.14,2.37c-3.09,3.16-6.67,1.68-10.15,1.06L264,265c1.91-1.94,4.68-.74,6.82-1.86A3.29,3.29,0,0,1,272.92,262.77Z" transform="translate(-0.89 -0.89)" fill="#877f66"/>
    <path d="M215.85,255c-2.1.08-1.56-2.21-2.69-3-1.62-1.3-1.92-3.17-2.16-5.06q0-.47,0-.94-.49-.23-.37-.53c.08-.21.18-.32.27-.32l1.27-.21c1.7-.21,1.93,1.44,2.83,2.24,1.33,2.13-.42,4.75,1.07,6.86Z" transform="translate(-0.89 -0.89)" fill="#8c846c"/>
    <path d="M285,248a2,2,0,0,1,2.37-.85c-2.35,2.71-.79,6-1.26,8.95-.51,3.25,1.21,6.74-1.09,9.79A34.94,34.94,0,0,1,285,248Z" transform="translate(-0.89 -0.89)" fill="#928a75"/>
    <path d="M283,247l1,1a70.1,70.1,0,0,1,0,18c-2.4-1.87-1.1-4.48-1.2-6.72C282.64,255.17,282.89,251.08,283,247Z" transform="translate(-0.89 -0.89)" fill="#928a75"/>
    <path d="M415.12,136.91H396.66C402.81,135.64,409,136.26,415.12,136.91Z" transform="translate(-0.89 -0.89)" fill="#840040"/>
    <path d="M466,266q.06-9.11.12-18.22C467,253.81,467.62,259.89,466,266Z" transform="translate(-0.89 -0.89)" fill="#918a74"/>
    <path d="M284,266q0-9,0-18h1q0,8.94,0,17.88Z" transform="translate(-0.89 -0.89)" fill="#81795f"/>
    <path d="M509.24,148.09c-2.39-2.67-1.6-5.4-.14-8.14C510.21,142.64,511,145.35,509.24,148.09Z" transform="translate(-0.89 -0.89)" fill="#7d0135"/>
    <path d="M311,265c-1.47-5.67-1.92-11.33.22-16.95Z" transform="translate(-0.89 -0.89)" fill="#262000"/>
    <path d="M189,247.86,188,246l1.87-1.11c2-.5,4-.81,5.88.22C194.91,249.51,190.83,245.94,189,247.86Z" transform="translate(-0.89 -0.89)" fill="#847b62"/>
    <path d="M469,130a22.48,22.48,0,0,1-.08,15A93.87,93.87,0,0,1,469,130Z" transform="translate(-0.89 -0.89)" fill="#850040"/>
    <path d="M251.69,237.9c-.09,1.15-.52,2.16-2,2.12-1.28,0-1.62-.91-1.65-2,0-1.35.44-2.27,2-2.21C251.22,235.85,251.68,236.63,251.69,237.9Z" transform="translate(-0.89 -0.89)" fill="#9f9885"/>
    <path d="M276,262.74,276,248A23.08,23.08,0,0,1,276,262.74Z" transform="translate(-0.89 -0.89)" fill="#9a937f"/>
    <path d="M379.84,249.27c2.06,4.58,1.68,9.17.05,13.76A60.12,60.12,0,0,1,379.84,249.27Z" transform="translate(-0.89 -0.89)" fill="#160f00"/>
    <path d="M312.08,247.3A1.82,1.82,0,0,1,314,246c4.37-1.57,5.06-1.44,5.87,1.09Z" transform="translate(-0.89 -0.89)" fill="#241e00"/>
    <path d="M471,118l-1.13-1.05c2.77-1.91,5.54-.79,8.32,0C475.94,118.25,473.45,118,471,118Z" transform="translate(-0.89 -0.89)" fill="#7d0034"/>
    <path d="M516,236.1c-2.37-.54-3.16.45-3.19,2.81,0,2,.87,4.2-.8,6,0-2.49-.18-5,0-7.47C512.28,234.33,513.88,234.3,516,236.1Z" transform="translate(-0.89 -0.89)" fill="#ecebe7"/>
    <path d="M369.92,237.76c-.58,3.08,1.83,6.8-2,9.18-.76-.95-3,.56-2.92-1.76l1.26-.32c1.75.38,2.72.15,2.66-2.11C368.9,241.11,367.88,239.07,369.92,237.76Z" transform="translate(-0.89 -0.89)" fill="#2d2607"/>
    <path d="M455,245l-3.3-.17c4.09-1.38,8.17-1.63,12.23.14l-3,0A8.82,8.82,0,0,1,455,245Z" transform="translate(-0.89 -0.89)" fill="#928c76"/>
    <path d="M463,264.86l-.09-2.14c-1.68-2.23-1.52-4.45,0-6.68,2,3,.89,6.67,2.11,9.84Z" transform="translate(-0.89 -0.89)" fill="#938d77"/>
    <path d="M400.29,238c-.08,1.07-.32,2-1.71,1.83-1-.14-1.31-.86-1.34-1.76,0-1.09.26-2.05,1.52-2.11S400.27,236.95,400.29,238Z" transform="translate(-0.89 -0.89)" fill="#7b7155"/>
    <path d="M337.12,247c-2.92-1.82-6.2-2-9.51-2.11C331.21,243.6,334.72,242.77,337.12,247Z" transform="translate(-0.89 -0.89)" fill="#322d12"/>
    <path d="M202,256.05c3.63-1.78,7.28-1.53,11-.16Z" transform="translate(-0.89 -0.89)" fill="#877f66"/>
    <path d="M221,154c2.24-1.15,4.51-2.51,6,1C225,154.67,222.86,155.19,221,154Z" transform="translate(-0.89 -0.89)" fill="#810439"/>
    <path d="M345.33,236c1.54,1,3.49,1.09,3,3.22-.24,1-1.2,1.07-2,.82C344.21,239.35,345,237.79,345.33,236Z" transform="translate(-0.89 -0.89)" fill="#44402d"/>
    <path d="M512.68,262.91l1.32.1h0q0,1.47,0,2.94l-4,.09,2.09-1.73-2.29-.44C510.26,262,511.35,262.12,512.68,262.91Z" transform="translate(-0.89 -0.89)" fill="#958e78"/>
    <path d="M302,152c-1.44-1.88-1.47-4.18-1.88-6.36,2.4,1.42,2.27,4,3,6.26l-.26.24C302.5,152.47,302.22,152.44,302,152Z" transform="translate(-0.89 -0.89)" fill="#82013b"/>
    <path d="M451.92,266l9.41.12A11.42,11.42,0,0,1,451.92,266Z" transform="translate(-0.89 -0.89)" fill="#98917d"/>
    <path d="M500.9,266.05l9.14,0A10.29,10.29,0,0,1,500.9,266.05Z" transform="translate(-0.89 -0.89)" fill="#958e78"/>
    <path d="M411.74,271.89,413,272a2.54,2.54,0,0,1,.94,1c0,1.64-1,2.58-2.41,1.91C409.81,274.08,411.19,272.88,411.74,271.89Z" transform="translate(-0.89 -0.89)" fill="#877e65"/>
    <path d="M169.9,147.12c-1.84-2.76-1.1-5.57-.14-8.38q.19.24.37.49a18,18,0,0,1,0,7.47Z" transform="translate(-0.89 -0.89)" fill="#840040"/>
    <path d="M411.13,257.86c0-1.35-.58-2.83.86-3.86l2,5Z" transform="translate(-0.89 -0.89)" fill="#837b63"/>
    <path d="M216.06,254c-2-2-.67-4.58-1.07-6.86C217.13,249.17,216,251.69,216.06,254Z" transform="translate(-0.89 -0.89)" fill="#8e866f"/>
    <path d="M424.11,110l-.16-1.08c1.76-2.14,4-1.13,6-.85q.5.32.33.64c-.11.21-.22.32-.33.32-1.68.25-3.6-.66-5,1C424.68,110.47,424.39,110.44,424.11,110Z" transform="translate(-0.89 -0.89)" fill="#78052c"/>
    <path d="M413.94,273l-.94-1,1.6-5.4.46,3.51Z" transform="translate(-0.89 -0.89)" fill="#807a60"/>
    <path d="M461.87,220a6.13,6.13,0,0,1,.11-7A15.55,15.55,0,0,1,461.87,220Z" transform="translate(-0.89 -0.89)" fill="#7c0135"/>
    <path d="M441,237H440c.07-2.86,1.47-2.25,3.06-1.19L442,237Q441.47,237.87,441,237Z" transform="translate(-0.89 -0.89)" fill="#817a60"/>
    <path d="M195.75,245.11l-5.88-.22C191.87,244,193.87,243,195.75,245.11Z" transform="translate(-0.89 -0.89)" fill="#a7a18f"/>
    <path d="M396,136.92c-1.71,1.93-4,.75-6,1.09A9.38,9.38,0,0,1,396,136.92Z" transform="translate(-0.89 -0.89)" fill="#840040"/>
    <path d="M417,260l1.87-2c.39,1.85.1,3.39-1.83,4.24Z" transform="translate(-0.89 -0.89)" fill="#857c62"/>
    <path d="M430,109q0-.48,0-1c1.82-.06,3.67-.22,5.31.86Z" transform="translate(-0.89 -0.89)" fill="#861740"/>
    <path d="M186,158.14v39.27c0,5.82.25,11.65-.08,17.45-.25,4.43.53,7.25,6,6.22-6.2,1.8-6.91,1.31-6.92-4.5q0-29.13,0-58.26Z" transform="translate(-0.89 -0.89)" fill="#800039"/>
    <path d="M232.05,221.86V160H233c0,3.94,0,7.88,0,11.82q.17,24.46.37,48.91c0,.86-.56,1.08-1.25,1.19Z" transform="translate(-0.89 -0.89)" fill="#7f0038"/>
    <path d="M303,206c1.87,3.08.66,6.42.81,9.64C302,212.56,303.45,209.2,303,206Z" transform="translate(-0.89 -0.89)" fill="#77002a"/>
    <path d="M170.17,146.7q0-3.74,0-7.47A7.34,7.34,0,0,1,170.17,146.7Z" transform="translate(-0.89 -0.89)" fill="#78002b"/>
    <path d="M302,152a3.4,3.4,0,0,1,.85.14c-.07,2,.91,4.12-.85,5.86Q302,155,302,152Z" transform="translate(-0.89 -0.89)" fill="#7e0034"/>
    <path d="M266.91,154.08c1.47-1.61,3.21-1.16,5-.31l-5,.3Z" transform="translate(-0.89 -0.89)" fill="#7d0035"/>
    <path d="M422.82,181.11c0,7.16-.15,14.33.06,21.49.11,3.7-1.56,5.26-4.95,5.32a97.55,97.55,0,0,1-11.49-.14c-8.37-.85-12.62-4.52-14.53-12.76a67.06,67.06,0,0,1,0-30.7c1.93-8.21,4.77-10.59,13.3-11.52a46.16,46.16,0,0,1,9-.14c8.59.72,8.6.64,8.6,9.45Q422.83,171.61,422.82,181.11Z" transform="translate(-0.89 -0.89)" fill="#fefefe"/>
    <path d="M445,178h1q0,11.5,0,23c-2.12-4.39-.6-9.05-1-13.58C444.81,184.3,445,181.14,445,178Z" transform="translate(-0.89 -0.89)" fill="#82003a"/>
    <path d="M424.11,110q.44,0,.88,0,0,8.4,0,16.8h-.88Z" transform="translate(-0.89 -0.89)" fill="#800039"/>
    <path d="M408.31,209.28h10.61v.5H408.15Z" transform="translate(-0.89 -0.89)" fill="#83003c"/>
    <path d="M389.31,166.74c.79,2.66.85,3.91,0,6.08Z" transform="translate(-0.89 -0.89)" fill="#7f0034"/>
    <path d="M390.05,192.77c-1.57-2.08-.79-3.43-1.11-5.53C390.5,189.31,389.73,190.66,390.05,192.77Z" transform="translate(-0.89 -0.89)" fill="#7e0037"/>
    <path d="M446,201a3.54,3.54,0,0,1,.86.13c0,1.26,0,2.53,0,4.28C445.49,203.75,446.23,202.3,446,201Z" transform="translate(-0.89 -0.89)" fill="#7e0037"/>
    <path d="M328,220q0-30,0-60c1.24,1,1,2.38,1,3.67q.2,27.59.37,55.19C329.37,219.72,328.69,219.88,328,220Z" transform="translate(-0.89 -0.89)" fill="#860042"/>
    <path d="M512.68,262.91l-2.86,1-.42,0-.4.12a5.9,5.9,0,0,1-5,.07c-2.18,0-2.77-1.39-2.76-3.26,0-3.31,0-6.62,0-9.92,0-3.85,2.63-4,5.49-3.84s6-.18,6.05,4C512.86,255,512.73,258.94,512.68,262.91Z" transform="translate(-0.89 -0.89)" fill="#ecebe7"/>
    <path d="M514,263V250.29c.49,4.25,2.14,8.53,0,12.71Z" transform="translate(-0.89 -0.89)" fill="#82795f"/>
    <path d="M499.24,262V251.21A21.21,21.21,0,0,1,499.24,262Z" transform="translate(-0.89 -0.89)" fill="#847b61"/>
    <path d="M514.74,238.06V246h-.49v-7.91Z" transform="translate(-0.89 -0.89)" fill="#82795f"/>
    <path d="M504,264l5-.07C507.36,265.51,505.69,265.45,504,264Z" transform="translate(-0.89 -0.89)" fill="#958e78"/>
    <path d="M234.94,247.26c3,3.55,2.83,12.56-.22,15.6a29,29,0,0,0-3.44,0c-4.3.53-6.15-1.3-5.6-5.6a11.45,11.45,0,0,0,0-1.48C225.68,246.64,225.68,246.64,234.94,247.26Z" transform="translate(-0.89 -0.89)" fill="#f0efec"/>
    <path d="M223.82,251.22v7.57h-.49v-7.58Z" transform="translate(-0.89 -0.89)" fill="#867e65"/>
    <path d="M228.16,245.7a4,4,0,0,1,3.78-.41C230.76,246.8,229.38,245.46,228.16,245.7Z" transform="translate(-0.89 -0.89)" fill="#847c63"/>
    <path d="M211,246.93c2.16,1.07,1.94,3.16,2.16,5.06-1.85,1.58-9.44,2.5-10.78,1.27-1-.91-.7-2.11-.56-3.22a3,3,0,0,1,2.8-2.94C206.74,246.92,208.88,247,211,246.93Z" transform="translate(-0.89 -0.89)" fill="#f1f0ee"/>
    <path d="M210.9,245.14a4.28,4.28,0,0,1,.09.85h-5.79l-.05-.85Z" transform="translate(-0.89 -0.89)" fill="#82795f"/>
    <path d="M200.68,261.84a6.59,6.59,0,0,1-.4-4.81C201.54,258.27,200.82,259.58,200.68,261.84Z" transform="translate(-0.89 -0.89)" fill="#857c62"/>
    <path d="M200.4,249.87a2.85,2.85,0,0,1,.16,3.28A2.88,2.88,0,0,1,200.4,249.87Z" transform="translate(-0.89 -0.89)" fill="#847c63"/>
    <path d="M300,247.95v15.75c-.56-5.25-2.15-10.53,0-15.73Z" transform="translate(-0.89 -0.89)" fill="#7e755b"/>
    <path d="M272.92,262.77l-1,.86c-2.54,1.65-5.22.84-7.88.46-1.94-2.24-3.32-14.1-1.51-15.83,2.73-2.59,6.22-1.2,9.44-1.06l.89.86c1.3,4.61.66,9.26.37,13.91A1.17,1.17,0,0,0,272.92,262.77Z" transform="translate(-0.89 -0.89)" fill="#fcfcfb"/>
    <path d="M270.92,245.09a2.94,2.94,0,0,1,0,.86H264.2l0-.86Z" transform="translate(-0.89 -0.89)" fill="#7f765c"/>
    <path d="M264,264.08l7.88-.45c-2.21,2.8-5.27.77-7.86,1.36Q264,264.54,264,264.08Z" transform="translate(-0.89 -0.89)" fill="#9a937f"/>
    <path d="M489.77,249.09v14.72h-.46V249.1Z" transform="translate(-0.89 -0.89)" fill="#827b62"/>
    <path d="M462.91,256q0,3.34,0,6.68L461,264.09c-2.34.52-4.67.82-7-.16l0,0c-2.41-2.65-2.45-5.3,0-7.93Z" transform="translate(-0.89 -0.89)" fill="#fbfbfa"/>
    <path d="M454.07,256c-2,2.64-2,5.28,0,7.93-3.8-1.39-1.4-4.66-2.1-7A2.11,2.11,0,0,1,454.07,256Z" transform="translate(-0.89 -0.89)" fill="#938c76"/>
    <path d="M455,245H461A4.59,4.59,0,0,1,455,245Z" transform="translate(-0.89 -0.89)" fill="#837b62"/>
    <path d="M431,239c2.14,3.54.72,7.42.94,11.12.26,4.46.06,8.94,0,13.42,0,1-.2,2.12-1.48,2.17a1.44,1.44,0,0,1-1.42-1.68c.44-9-1.25-18.08.93-27,1.05,8.92.18,17.83.48,24.49C431.2,255.55,429.72,247.2,431,239Z" transform="translate(-0.89 -0.89)" fill="#8d846d"/>
    <path d="M431,239v24.78h-1q0-13.39,0-26.79C432,236.83,430.55,238.39,431,239Z" transform="translate(-0.89 -0.89)" fill="#8e8670"/>
    <path d="M185.24,264V250.22h.43v13.74Z" transform="translate(-0.89 -0.89)" fill="#857d64"/>
    <path d="M366,264.05l-6.74-.19c-3.35-5-1.18-10.56-1.46-15.87.85-2.64,3.12-1.72,4.93-2,1.37.17,2.84,0,3.94,1.16l1.86.92c1.78,4.92,1.15,9.88.27,14.85C367.89,263.35,366.63,262.89,366,264.05Z" transform="translate(-0.89 -0.89)" fill="#f5f5f4"/>
    <path d="M356.74,249v12.74H356V249C356.28,248.5,356.52,248.53,356.74,249Z" transform="translate(-0.89 -0.89)" fill="#1a1401"/>
    <path d="M356.74,249q-.36,0-.72,0c1.06-4.53,4.62-3.93,7.92-3.87.57,1.06-.38,1.31-.94,1.77-1.64.82-3.77-.74-5.2,1.09Z" transform="translate(-0.89 -0.89)" fill="#211a00"/>
    <path d="M363,246.91l.94-1.77,1.07,0,2.92,1.76-1.27.24Z" transform="translate(-0.89 -0.89)" fill="#241e02"/>
    <path d="M441,237h1c0,7.77,0,15.54,0,23.32,0,1.59.55,3.35-1,4.66Q441,251,441,237Z" transform="translate(-0.89 -0.89)" fill="#8f8770"/>
    <path d="M336.26,264V249.25h.41V264Z" transform="translate(-0.89 -0.89)" fill="#201900"/>
    <path d="M322.79,250.14v13.73h-.49V250.34Z" transform="translate(-0.89 -0.89)" fill="#272201"/>
    <path d="M238.9,271.78c-1.83-2.41-.46-5.18-.88-7.75C239.93,266.43,238.65,269.19,238.9,271.78Z" transform="translate(-0.89 -0.89)" fill="#837a60"/>
    <path d="M273.18,262c0-4.64.47-9.29-.36-13.91C275,252.64,274.43,257.29,273.18,262Z" transform="translate(-0.89 -0.89)" fill="#9a937f"/>
    <path d="M235,274h-9.74l0-.92h9.74A4.89,4.89,0,0,1,235,274Z" transform="translate(-0.89 -0.89)" fill="#7f765c"/>
    <path d="M368.81,262.95l-.27-14.84C371,253,370.55,258,368.81,262.95Z" transform="translate(-0.89 -0.89)" fill="#2c2607"/>
    <path d="M454,263.93l7,.16C458.63,265.46,456.31,265.69,454,263.93Z" transform="translate(-0.89 -0.89)" fill="#98917d"/>
  </g>
</svg>
