<svg id="Layer_1" data-name="Layer 1" xmlns="http://www.w3.org/2000/svg" width="155.13" height="155.13" viewBox="0 0 155.13 155.13">
  <title>cs_partiring_slesvigskparti-md</title>
  <g>
    <path d="M420,192.5c0,24.83,0,49.67.07,74.5,0,2.5-.57,3.07-3.07,3.06q-74.5-.13-149,0c-2.5,0-3.07-.56-3.06-3.06q.13-74.5,0-149c0-2.5.56-3.07,3.06-3.06q74.5.13,149,0c2.5,0,3.08.56,3.07,3.06C420,142.83,420,167.67,420,192.5Z" transform="translate(-264.94 -114.94)" fill="#fefefe"/>
    <path d="M343,265a72,72,0,1,1,72-71.46C414.94,232.8,382.48,265,343,265Z" transform="translate(-264.94 -114.94)" fill="#cdcdcd"/>
    <path d="M343.32,131c34.07,0,61.73,28.1,61.68,62.58-.06,33.76-28.15,61.45-62.3,61.42S280.94,226.93,281,192.46C281.06,158.69,309.17,131,343.32,131Z" transform="translate(-264.94 -114.94)" fill="#fefefe"/>
    <path d="M299.83,198.19c-1.74-7.83.11-15.12,3.31-22.22a.86.86,0,0,1,1.28.29c1.19,3.36-1.4,6.21-1.29,9.42a11.53,11.53,0,0,1-.3,1.43,15.68,15.68,0,0,0-.55,5.72c0,.51,0,1,0,1.51a6.22,6.22,0,0,1-1,3.71A1.21,1.21,0,0,1,299.83,198.19Z" transform="translate(-264.94 -114.94)" fill="#ddbe7f"/>
    <path d="M357,234.18a35.83,35.83,0,0,1-23.9,1c1.6-2,3.87-1.42,5.94-1.54,4.08-.23,8.2.42,12.25-.47a9.2,9.2,0,0,1,3.51-.27A2.94,2.94,0,0,1,357,234.18Z" transform="translate(-264.94 -114.94)" fill="#d5ad00"/>
    <path d="M309.13,168a13.71,13.71,0,0,1,7.78-8.16,3.06,3.06,0,0,1,2.39,1.23,2.54,2.54,0,0,1,0,1.39c-1.58,3.16-4.64,4.58-7.42,6.35A2.78,2.78,0,0,1,309.13,168Z" transform="translate(-264.94 -114.94)" fill="#0073ae"/>
    <path d="M352,151.75c1,.33,2.33-.25,3.08,1,.31.69,1.21.89,1.4,1.68a2,2,0,0,1-.82,2c-2.82,1.08-5.07-.54-7.45-1.55-3.31-1.34-7.16.58-10.3-1.74a1.29,1.29,0,0,1,.36-1.55c3.39-1.74,6.89-.19,10.34-.34A4.36,4.36,0,0,1,352,151.75Z" transform="translate(-264.94 -114.94)" fill="#0062a7"/>
    <path d="M352.26,234.16c-6.27,2.44-12.76.53-19.13,1L331,233.85a1.9,1.9,0,0,1,1.15-2.33,7.46,7.46,0,0,1,3.51.15,30.4,30.4,0,0,1,3.48.54,16.57,16.57,0,0,0,7.67.17,6.61,6.61,0,0,1,1.47,0C349.71,232.76,351.32,232.71,352.26,234.16Z" transform="translate(-264.94 -114.94)" fill="#031e50"/>
    <path d="M386.14,193.06c1.09,6-.74,11.47-3.16,16.83a.82.82,0,0,1-1.3,0,4.4,4.4,0,0,1-.51-3.64c.43-1.62,1.12-3.17,1.43-4.83a31.67,31.67,0,0,1,.59-3.56c.6-1.61.4-3.48,1.56-4.91A1.12,1.12,0,0,1,386.14,193.06Z" transform="translate(-264.94 -114.94)" fill="#907c00"/>
    <path d="M379.24,171.89l1.06.85A13.7,13.7,0,0,0,383,177l0,1.9a8,8,0,0,1-.81.89,3.79,3.79,0,0,1-1.07.59l-.62.07a2.53,2.53,0,0,1-1.16-.48,9.59,9.59,0,0,1-2.09-3.25c-.44-1.5-1.26-3-.47-4.59a1.63,1.63,0,0,1,2.47-.24Z" transform="translate(-264.94 -114.94)" fill="#001875"/>
    <path d="M319,227.86c-2.4-.82-4.74-1.72-5.06-4.75-.41-.85.09-1.28.74-1.66,1.85-.54,3.13.42,4.3,1.64a4.46,4.46,0,0,1,.68,1.16,5.56,5.56,0,0,1,.25,1.3,4.67,4.67,0,0,1-.15,1.29A3,3,0,0,1,319,227.86Z" transform="translate(-264.94 -114.94)" fill="#003d90"/>
    <path d="M333,151c4.7-.86,9.37-3.31,14.14-.26-3.23,2-7.18-.68-10.37,1.62a3.71,3.71,0,0,1-2.43.37C333.52,152.49,332.85,152.09,333,151Z" transform="translate(-264.94 -114.94)" fill="#d3b868"/>
    <path d="M364.21,230.1c-.4,1.11-1.43.87-2.26,1.05-1,1.32-2.25,1.95-3.9,1.19a2,2,0,0,1-.61-1.33c.47-2.69,2.68-3.33,4.8-4.08a3.39,3.39,0,0,1,2.81.14C366,228.43,365,229.24,364.21,230.1Z" transform="translate(-264.94 -114.94)" fill="#000557"/>
    <path d="M364.21,230.1,365,227l.41-.51a27.49,27.49,0,0,0,4.38-2.75,2.73,2.73,0,0,1,1.32-.15,2.85,2.85,0,0,1,1.64,1.12C370.4,227.23,368.13,230,364.21,230.1Z" transform="translate(-264.94 -114.94)" fill="#be9300"/>
    <path d="M328,232.86l-3.81-.92c-1.18-.85-2.77-1.13-3.56-2.53a3.75,3.75,0,0,1,.07-1.31,2.28,2.28,0,0,1,1.07-.79c2.26-.39,4,.83,5.78,1.89a3.09,3.09,0,0,1,1.16,1.75A2,2,0,0,1,328,232.86Z" transform="translate(-264.94 -114.94)" fill="#004090"/>
    <path d="M333,151l.95.94c.46,1.42-.69,1.63-1.54,2.09-1.9.49-3.74,1.21-5.65,1.7A2.84,2.84,0,0,1,324,155C326.2,151.83,329.67,151.57,333,151Z" transform="translate(-264.94 -114.94)" fill="#dbbe79"/>
    <path d="M372,162.87c1.76,1.93,4.94,2.65,5.07,6l-.37.46a13,13,0,0,1-2.26.91,3.49,3.49,0,0,1-2.52-2,7,7,0,0,1-.91-2.7A2.89,2.89,0,0,1,372,162.87Z" transform="translate(-264.94 -114.94)" fill="#001b80"/>
    <path d="M324,155l2.88-.26a1.91,1.91,0,0,1,1.26,2.49c-1.87,2-4,3.45-6.89,2.29a1.8,1.8,0,0,1-.77-1.28c.1-1.62,1.25-2.07,2.58-2.32Z" transform="translate(-264.94 -114.94)" fill="#0071ac"/>
    <path d="M303.64,209.83l-.9-3a2.31,2.31,0,0,1-1.08-2.81c.36-1.09.75-2.15,2.14-2.27a2.7,2.7,0,0,1,1.06.85,8.39,8.39,0,0,1,1.12,2.54,11.42,11.42,0,0,1,.59,4.23,1.88,1.88,0,0,1-.93,1.09A1.73,1.73,0,0,1,303.64,209.83Z" transform="translate(-264.94 -114.94)" fill="#00539b"/>
    <path d="M372,162.87,372,166.1c-1.75.49-2.8-.85-4.09-1.55a3.56,3.56,0,0,1-1.12-1.58c0-.22,0-.43-.06-.65a2.47,2.47,0,0,1,.7-1.08c.5-.43,1.08-.72,1.61-1.11C370.4,160.61,372.21,160.64,372,162.87Z" transform="translate(-264.94 -114.94)" fill="#002488"/>
    <path d="M359.14,153.76l2.95,2.12a4.41,4.41,0,0,1,.63,1.11,3.5,3.5,0,0,1,0,1.28,2.27,2.27,0,0,1-.75,1,2.55,2.55,0,0,1-1.28.05c-1.55-.7-3.31-1.1-4-3a3.54,3.54,0,0,1,.82-1.74,4,4,0,0,1,1-.77Z" transform="translate(-264.94 -114.94)" fill="#003895"/>
    <path d="M335.94,151.92c3.58-1.87,7.5-.51,11.2-1.14a2,2,0,0,0,.75,0c.95-.3,1.24.15,1.16,1l-11.05.38A1.56,1.56,0,0,1,335.94,151.92Z" transform="translate(-264.94 -114.94)" fill="#79948a"/>
    <path d="M302.16,204c-.52,1.1.3,1.93.58,2.87-3.11-2.16-2.48-5.58-2.91-8.64l1-.21a3.32,3.32,0,0,1,1.87,2.28A8.19,8.19,0,0,1,302.16,204Z" transform="translate(-264.94 -114.94)" fill="#e8c06c"/>
    <path d="M364.33,156.94c1.49-.15,2.25.75,2.81,1.95a6.2,6.2,0,0,1,.45,1.2,1.93,1.93,0,0,1-.45,1.78L367,162c-2.11.65-3.32-.48-4.27-2.15a4.49,4.49,0,0,1,.58-2.43A1.2,1.2,0,0,1,364.33,156.94Z" transform="translate(-264.94 -114.94)" fill="#002b92"/>
    <path d="M383.25,180.69c3.37,1,2.46,3.86,2.7,6.22a1.59,1.59,0,0,1-2,.34c-1.34-1.57-1.29-3.71-2.2-5.45C381.88,180.95,382.32,180.47,383.25,180.69Z" transform="translate(-264.94 -114.94)" fill="#c39e00"/>
    <path d="M303.64,209.83l2.42.3a3.28,3.28,0,0,1,1.49,2.78,2.28,2.28,0,0,1-.55,1.18.76.76,0,0,1-1.11-.14C303.75,213.34,302.8,212.07,303.64,209.83Z" transform="translate(-264.94 -114.94)" fill="#debf54"/>
    <path d="M382,210l1-.11a5.28,5.28,0,0,1-1.94,4.2,2.82,2.82,0,0,1-1.73-1,3.16,3.16,0,0,1-.84-2.57,1.93,1.93,0,0,1,.86-1.08A2.3,2.3,0,0,1,382,210Z" transform="translate(-264.94 -114.94)" fill="#756e1e"/>
    <path d="M328,232.86l.08-1.92a3.07,3.07,0,0,1,1.26-.74c1.25,0,2.58-.17,2.73,1.64l-1,2C329.67,234.5,328.91,233.39,328,232.86Z" transform="translate(-264.94 -114.94)" fill="#00176a"/>
    <path d="M309.13,168l3,0c.14,2.57-1.51,3.63-3.62,4.3-.82-.09-1.15-.66-1.33-1.37Z" transform="translate(-264.94 -114.94)" fill="#0072ad"/>
    <path d="M372.79,224.69l-1.93-.54a6.54,6.54,0,0,1,2.4-4.57,1.86,1.86,0,0,1,2.09.62,2.85,2.85,0,0,1-.43,2.26Z" transform="translate(-264.94 -114.94)" fill="#424728"/>
    <path d="M308.9,218.65c-.23-.57-1.17-.8-.79-1.66s.94-1.58,2-1.56a2.57,2.57,0,0,1,1.27.54,4.06,4.06,0,0,1,1.08,3.28,1.79,1.79,0,0,1-1.58,1.26C309.76,220.41,309.4,219.46,308.9,218.65Z" transform="translate(-264.94 -114.94)" fill="#004095"/>
    <path d="M320.93,157.79l.17,1.46c.49,1.88-.16,2.5-2,1.79a2.27,2.27,0,0,1-2.19-1.2l2.34-2.06A1.28,1.28,0,0,1,320.93,157.79Z" transform="translate(-264.94 -114.94)" fill="#0073ad"/>
    <path d="M358,232.06l3.93-.91c-.54,2.8-3,2.51-4.92,3l-2-.17a.85.85,0,0,1-.34-.75c0-.28.08-.43.15-.43A3.6,3.6,0,0,1,358,232.06Z" transform="translate(-264.94 -114.94)" fill="#ba9200"/>
    <path d="M305.67,172.85,307,172l.61.36c1.83,1.89.83,3.41-.65,4.86a2.08,2.08,0,0,1-2.31-1.25C304.13,174.67,305,173.81,305.67,172.85Z" transform="translate(-264.94 -114.94)" fill="#2581a8"/>
    <path d="M374.93,222.46l.18-2.39a3.05,3.05,0,0,1,1.93-3.29,1.45,1.45,0,0,1,1.26.31,3.47,3.47,0,0,1-.14,1.34A8,8,0,0,1,374.93,222.46Z" transform="translate(-264.94 -114.94)" fill="#b18700"/>
    <path d="M310.86,220.05l1.17-1.13c1.61-1.06,2.47-.09,3.21,1.19a1.34,1.34,0,0,1-.31,1.19,4,4,0,0,0-1.94,1.56l-1,.05C311.5,222,310.45,221.3,310.86,220.05Z" transform="translate(-264.94 -114.94)" fill="#003e91"/>
    <path d="M383,177c-2.59-.35-2.91-2.14-2.72-4.26C382.82,173.13,382.85,175.11,383,177Z" transform="translate(-264.94 -114.94)" fill="#bba100"/>
    <path d="M384.15,187l1.8-.07.23,1.3a8.56,8.56,0,0,1,0,4.83l0,0-1-.08c-1.43-1-1.47-2.54-1.82-4A2.16,2.16,0,0,1,384.15,187Z" transform="translate(-264.94 -114.94)" fill="#9f8500"/>
    <path d="M378.16,218.43l-.21-1.55a1.58,1.58,0,0,1-.46-1.66,3.77,3.77,0,0,1,1-1.5,2.49,2.49,0,0,1,1.65-.67l.88,1A8.66,8.66,0,0,1,378.16,218.43Z" transform="translate(-264.94 -114.94)" fill="#ac9000"/>
    <path d="M320.93,157.79h-1.67c.53-2.13,1.53-3.3,3.81-1.88C323,157.3,321.24,156.71,320.93,157.79Z" transform="translate(-264.94 -114.94)" fill="#e1c380"/>
    <path d="M349.06,151.81l-1.16-1c1.69-1.07,3.23-1.48,4.1,1Z" transform="translate(-264.94 -114.94)" fill="#c8b467"/>
    <path d="M320.87,229.09c.93,1.14,2.74,1.26,3.28,2.85-1.74-.24-3.58-.34-3.73-2.75Z" transform="translate(-264.94 -114.94)" fill="#dfb93c"/>
    <path d="M310.86,220.05l1.1,2.85c-1.72-.91-3-2.11-3.06-4.25Z" transform="translate(-264.94 -114.94)" fill="#d6b332"/>
    <path d="M305.67,172.85l-.85,3c-.21.41-.48.47-.81.13l-.87,0C303.6,174.62,303.81,173.07,305.67,172.85Z" transform="translate(-264.94 -114.94)" fill="#e7c37e"/>
    <path d="M386.19,193q0-2.42,0-4.83A6.35,6.35,0,0,1,386.19,193Z" transform="translate(-264.94 -114.94)" fill="#c39e00"/>
    <path d="M355.88,152.79c1.16-1.32,2.13-1,3,.33a3.74,3.74,0,0,1-1.1,1.19,1.3,1.3,0,0,1-1-.14C356.41,153.73,355.94,153.39,355.88,152.79Z" transform="translate(-264.94 -114.94)" fill="#e3c046"/>
    <path d="M383.25,180.69,382,182a.78.78,0,0,1,.26.75q-.1.39-.21.39a1.5,1.5,0,0,1-1.27-.06,2.42,2.42,0,0,1-.52-1.88,3.13,3.13,0,0,1,.65-1.16l.23-.19a1.57,1.57,0,0,1,1-.32,1.78,1.78,0,0,1,.88.61A.55.55,0,0,1,383.25,180.69Z" transform="translate(-264.94 -114.94)" fill="#001b6d"/>
    <path d="M313,222.85a1.78,1.78,0,0,1,1.8-1.88q.47.23.43.6t-.17.4l-1.13,1.15A2.83,2.83,0,0,1,313,222.85Z" transform="translate(-264.94 -114.94)" fill="#003d90"/>
    <path d="M310.1,216l-2,1a.71.71,0,0,1-.17-.66,1.46,1.46,0,0,1-.14-1.15,1.85,1.85,0,0,1,1-.65,2,2,0,0,1,1.14.34,1,1,0,0,1,.27.71Q310.18,216,310.1,216Z" transform="translate(-264.94 -114.94)" fill="#004392"/>
    <path d="M319,227.86q0-.43,0-.86a10.17,10.17,0,0,0,.79-1.1l.66-.14c1,.48,1.31,1.16.65,2.15L321,228a.75.75,0,0,1-1.15.11A3.1,3.1,0,0,1,319,227.86Z" transform="translate(-264.94 -114.94)" fill="#003e8f"/>
    <path d="M378.93,169.29c1,.46,1.62,1,.3,1.82a1.48,1.48,0,0,1-1.13.24,1.29,1.29,0,0,1-.5-1l.23-.56A3.78,3.78,0,0,1,378.93,169.29Z" transform="translate(-264.94 -114.94)" fill="#dfae00"/>
    <path d="M362,157l.07-1.08c.85.13,1.79.07,2.24,1.06a3.6,3.6,0,0,1-.35.39,2.1,2.1,0,0,1-1.07.28A1.68,1.68,0,0,1,362,157Z" transform="translate(-264.94 -114.94)" fill="#1f5b75"/>
    <path d="M369,160.13c0,.76-.17,1.44-1,1.75-.59-.45-.47-1.06-.4-1.67l.46-.4Z" transform="translate(-264.94 -114.94)" fill="#00248b"/>
    <path d="M355.88,152.79l1.26,1.1a.83.83,0,0,1-1.12.26l-.94-1.44A1.35,1.35,0,0,0,355.88,152.79Z" transform="translate(-264.94 -114.94)" fill="#2a6b8a"/>
    <path d="M367,159.9l.1-1,.92.93-.1.45A.62.62,0,0,1,367,159.9Z" transform="translate(-264.94 -114.94)" fill="#2a5961"/>
    <path d="M377.12,168.83a3,3,0,0,1,.88.23,1.29,1.29,0,0,1,.37,1l-.26.09-.25-.09a.79.79,0,0,1-1.06.09,1.2,1.2,0,0,1-.1-1.14Z" transform="translate(-264.94 -114.94)" fill="#1e4659"/>
    <path d="M378.37,170l-.37-1,.93.24A1.36,1.36,0,0,1,378.37,170Z" transform="translate(-264.94 -114.94)" fill="#e4b200"/>
    <path d="M358,153.75l.87-.63a.84.84,0,0,1,.28.63l-.23.36-.65.3Z" transform="translate(-264.94 -114.94)" fill="#e2ba00"/>
    <path d="M308,215q0,.65,0,1.3L306.75,215l.32-.42.53,0Z" transform="translate(-264.94 -114.94)" fill="#567b76"/>
    <path d="M307.16,171l.86.92q-.47.76-1.06.08l.06.06Z" transform="translate(-264.94 -114.94)" fill="#2581a8"/>
    <path d="M378.22,170.66l1,.45a1.66,1.66,0,0,0,0,.78l-1.15.07A.79.79,0,0,1,378.22,170.66Z" transform="translate(-264.94 -114.94)" fill="#234454"/>
    <path d="M383.06,180.16l-1-.2q-.39-.32-.25-.63t.28-.3a5.42,5.42,0,0,0,.9-.12Z" transform="translate(-264.94 -114.94)" fill="#314c47"/>
    <path d="M305.89,214a1.82,1.82,0,0,1,.79.08l.61.26-.1.65-.44.09Z" transform="translate(-264.94 -114.94)" fill="#a69f60"/>
    <path d="M319.86,228.1,321,228l-.14,1.1-.45.1Z" transform="translate(-264.94 -114.94)" fill="#4b7270"/>
    <path d="M304,176l.81-.13,2,1.15a1.62,1.62,0,0,1,.68,1.13c-.29,2-1.78,3.64-2,5.69a4.78,4.78,0,0,1-2.27,2.47A1.16,1.16,0,0,1,302,186C301.29,182.39,304,179.47,304,176Z" transform="translate(-264.94 -114.94)" fill="#0071aa"/>
    <path d="M302,186h.86a2.17,2.17,0,0,1,1.59,2.26,60.52,60.52,0,0,0,0,9.92c-.05,1.29.15,2.62-.57,3.82l-1.75,2-.33-3.7c-.82-2,.24-4.25-.72-6.25v-1c1-2-.12-4.23.75-6.23A.71.71,0,0,1,302,186Z" transform="translate(-264.94 -114.94)" fill="#005da1"/>
    <path d="M301.86,186.76c.07,2.12.82,4.31-.75,6.23C300.88,190.85,300.68,188.72,301.86,186.76Z" transform="translate(-264.94 -114.94)" fill="#27749d"/>
    <path d="M301.12,194c1.55,1.93.82,4.13.72,6.25l-1-2.28Z" transform="translate(-264.94 -114.94)" fill="#27749d"/>
    <path d="M355.2,233.11a7.77,7.77,0,0,0-.17.9l-2.76.14c-1.4-.41-3.09.32-4.25-1.05.55-1,1.64-1.24,2.51-1.79a5.14,5.14,0,0,1,2.37-.86,2.41,2.41,0,0,1,1.65.88A3.23,3.23,0,0,1,355.2,233.11Z" transform="translate(-264.94 -114.94)" fill="#000c5b"/>
    <path d="M307.16,178l-.33-1c.19-1.68,2-3.32.13-5.06l1.06-.08a8.34,8.34,0,0,0,4.09-3.85c1.39-3,5-3.54,6.76-6.08,1.19-.63,2.33-.85,3.31.36-.18,3-2.83,4.32-4.56,6.2-3.05,3.3-4.93,7.48-8.2,10.59A1.57,1.57,0,0,1,307.16,178Z" transform="translate(-264.94 -114.94)" fill="#fce393"/>
    <path d="M322,163c-.76-1.19-2-1-3.12-1q.12-.46.23-.92c1.25.05,2.11-.33,2-1.79,2.8.62,4.44-2,6.87-2.44a1.21,1.21,0,0,1,1.29.24c.61,1.28.08,2.28-.78,3.2a47.4,47.4,0,0,1-5.24,3A1.56,1.56,0,0,1,322,163Z" transform="translate(-264.94 -114.94)" fill="#fce68d"/>
    <path d="M348.93,153.83c2.27,1,4.49,2.08,7.05,2l.44.57c.46,1.76-.24,3.33-.77,4.93-1.06,1.86-1.23,4.31-3.53,5.36a6.54,6.54,0,0,1-4.87-1.13c-1.45-2,.07-3.47,1.09-4.86,1.22-1.66,1.8-3.17.31-4.91a2.6,2.6,0,0,1-.1-1.35Z" transform="translate(-264.94 -114.94)" fill="#fce55c"/>
    <path d="M338,152.87c3.62.49,7.42-1,10.92,1l.12.39c-3,1.92-6.35,1-9.58,1.12a5.2,5.2,0,0,1-3.33-1C335.68,152.42,336.67,152.42,338,152.87Z" transform="translate(-264.94 -114.94)" fill="#35819f"/>
    <path d="M338,152.87,336,154a2.64,2.64,0,0,1-2.82.8c-.76-.31-1.36-.73-1.15-1.7L334,152l2-.06,2.06.27Q338,152.53,338,152.87Z" transform="translate(-264.94 -114.94)" fill="#0068a6"/>
    <path d="M356,154.16l1.12-.26a4,4,0,0,0,.86-.14l0,.34q.4.28.28.58t-.25.3L356.92,156q-.4.65-.95.11v-.34Q356,155,356,154.16Z" transform="translate(-264.94 -114.94)" fill="#004987"/>
    <path d="M332,231.84c-.77-1.16-2.07-.65-3.1-1a2.52,2.52,0,0,1-.33-2.83c5.1-1.88,8.3-6.31,12.5-9.39.72-.17,1.48,0,2.09-.16-1.68-.37-3.57,1.14-5.31-.34a1.54,1.54,0,0,1,.09-1.41,4.93,4.93,0,0,1,2.84-1c1.73-.1,3.48,0,5.2-.18,2.32-.57,4.29-2.24,6.81-2.16a2.58,2.58,0,0,1,1.25.61c.92,1.74-.21,2.64-1.37,3.69-5.07,4.56-9.4,10-15.42,13.46-.15,1.5-1.43,1.23-2.35,1.52C333.88,232.78,333.26,231.26,332,231.84Z" transform="translate(-264.94 -114.94)" fill="#f2c501"/>
    <path d="M335,232.67l2-1.69c1.11-1.14,2.49-1.09,3.91-.92,2.88,1,6,.2,8.88,1a2.85,2.85,0,0,1,1.3,1l-3,1.07-1.06,0a19.58,19.58,0,0,1-7.92,0Z" transform="translate(-264.94 -114.94)" fill="#a69307"/>
    <path d="M339,233.15H347A8.28,8.28,0,0,1,339,233.15Z" transform="translate(-264.94 -114.94)" fill="#002e53"/>
    <path d="M384,189c1.67,1,.63,2.71,1.16,4-.61,1.63.58,3.67-1.15,5.05a4.17,4.17,0,0,1-1.88-2.51c-.47-2.15-.72-4.28.44-6.32A1,1,0,0,1,384,189Z" transform="translate(-264.94 -114.94)" fill="#001b5d"/>
    <path d="M383.85,201.94c-1,1.19-.2,3.14-1.75,4.09a1,1,0,0,1-1.38,0,4.4,4.4,0,0,1-.63-3.71,2.62,2.62,0,0,1,1.39-1.73A1.93,1.93,0,0,1,383.85,201.94Z" transform="translate(-264.94 -114.94)" fill="#0a2249"/>
    <path d="M380.72,205.89l1.38.14-.13,4-2.87-.1C377.91,207.86,378.65,206.6,380.72,205.89Z" transform="translate(-264.94 -114.94)" fill="#000658"/>
    <path d="M383.85,201.94l-2-1a2.33,2.33,0,0,1-.46-2c.32-1.15.61-2.32,1.79-2.94l.84,2Z" transform="translate(-264.94 -114.94)" fill="#000d5e"/>
    <path d="M378.15,176.94l2,3c-1.35,13.29-12,20.7-19.18,30.3a1.84,1.84,0,0,1-3,.27,2.88,2.88,0,0,1-.6-1.3,5.52,5.52,0,0,1,2.09-4.3c2.16-.59,1.29-2.73,2-4.05a8,8,0,0,1,1.17-1.69c5.47-7,12.3-13.1,14.19-22.35A1.14,1.14,0,0,1,378.15,176.94Z" transform="translate(-264.94 -114.94)" fill="#eec200"/>
    <path d="M358.13,210c.58.22,1.23.71,1.77.06,5.18-6.34,10.42-12.64,15.44-19.11a10.88,10.88,0,0,0,2.69-7.28c-.09-1.62-.3-3.46,2.11-3.72a6,6,0,0,1,.8.12,1.4,1.4,0,0,1-.09,1c-.76,1.47-.39,3.11-.67,4.65a25.52,25.52,0,0,1-2.35,7.42c-5.91,7.68-12.3,15-18.63,22.3a2.51,2.51,0,0,1-2.21.87,3.05,3.05,0,0,1-1.77-3.1A3.47,3.47,0,0,1,358.13,210Z" transform="translate(-264.94 -114.94)" fill="#e9bd00"/>
    <path d="M363,200l-1,1c-1.55-1.47-1.28-3.35-1.17-5.19.69-4.23,4-6.67,6.64-9.54,3-3.25,6.35-6.39,5.35-11.51-.61-1.67-.61-3.14,1.29-4a3.07,3.07,0,0,1,2,.36l.53.41.32.59,1.22,4.81L377,177c-.83,6.9-5.47,11.63-9.68,16.51A33,33,0,0,0,363,200Z" transform="translate(-264.94 -114.94)" fill="#f6c800"/>
    <path d="M378.22,170.66l-.13,1.3-1.15.17h-.07a2.13,2.13,0,0,1-.44-1.08,1.68,1.68,0,0,1,.56-1,6.23,6.23,0,0,0,.88-.05A1,1,0,0,1,378.22,170.66Z" transform="translate(-264.94 -114.94)" fill="#00167c"/>
    <path d="M382.08,179a7.59,7.59,0,0,0,0,.94,3.08,3.08,0,0,1-.9-.09Z" transform="translate(-264.94 -114.94)" fill="#001273"/>
    <path d="M321.1,227.9c.11-.93,0-1.75-1.09-2a1.73,1.73,0,0,1-.93-1q-.11-.42-.19-.84a35.69,35.69,0,0,1,11.37-10.65c1.84-.11,2.72,1,3.31,2.55.23,3.36-1.48,6.1-2.92,8.92-2.91.36-2,3.55-3.63,4.88C324.92,229.57,323.45,227.34,321.1,227.9Z" transform="translate(-264.94 -114.94)" fill="#fcdd46"/>
    <path d="M330,213.91a60.43,60.43,0,0,1-11.14,10.15c-1.37-.52-2-2.42-3.83-2.09l-.27-1,.35.06c2.07-3.73,4.28-7.4,8.15-9.52,1.87-1-1.19-1.77.08-2.55a1.62,1.62,0,0,1,1.59-1.22,3.17,3.17,0,0,1,1.86,2.1c0,2,.37,3.69,3.06,2.83a.91.91,0,0,1,.31.8Q330.14,213.91,330,213.91Z" transform="translate(-264.94 -114.94)" fill="#fee43b"/>
    <path d="M319.09,224.89l.93,1a.37.37,0,0,1-.07.49A1.34,1.34,0,0,1,319,226Z" transform="translate(-264.94 -114.94)" fill="#4b7270"/>
    <path d="M319,226l.93.42L319,227Z" transform="translate(-264.94 -114.94)" fill="#003e91"/>
    <path d="M363,227.87c-2,.45-3.94,1-5,3-1.05.66-1.91.14-2.76-.45-1.55-4.43,2.13-4.1,4.51-4.95C361.11,225.86,362.86,225.74,363,227.87Z" transform="translate(-264.94 -114.94)" fill="#d9b000"/>
    <path d="M363,227.87,360,226c-.55-1.51.47-2.05,1.57-2.55a3.36,3.36,0,0,1,1.37.07,4.85,4.85,0,0,1,2.41,2.35,1.09,1.09,0,0,1-.4,1.17l.1,0Z" transform="translate(-264.94 -114.94)" fill="#d3ab00"/>
    <path d="M356.11,230.06l1.85.83.06,1.17c-.57,1.35-1.78,1-2.83,1L354,231.89A3.07,3.07,0,0,1,356.11,230.06Z" transform="translate(-264.94 -114.94)" fill="#000659"/>
    <path d="M364.95,227q.07-.49.18-1a4.77,4.77,0,0,1,3-3.54,2.9,2.9,0,0,1,1.38.06c.62.4,1.11.85.62,1.67C369.27,226.8,367.27,227.2,364.95,227Z" transform="translate(-264.94 -114.94)" fill="#000553"/>
    <path d="M370.11,224.23,368.94,223c-.41-2.14,1-2.88,2.65-3.46a2,2,0,0,1,1.28.46c.14,1.78-.28,3.3-2,4.18A5.4,5.4,0,0,0,370.11,224.23Z" transform="translate(-264.94 -114.94)" fill="#000653"/>
    <path d="M327,229.76c-1.73-3.23-1.06-5,2.89-4.74,1.19,1.35.24,2.18-.74,3l-.24,2.84-.44.12-.45,0Z" transform="translate(-264.94 -114.94)" fill="#fbd64f"/>
    <path d="M332,153.06l1.31,1.1c-.15,1.58-1.58,1.7-2.6,2.3a3.23,3.23,0,0,1-1.77.41l-.49.07-.48-.13-1.09-2.09A11,11,0,0,1,332,153.06Z" transform="translate(-264.94 -114.94)" fill="#006dac"/>
    <path d="M368.08,163.84c1.84-.18,2.47,1.71,3.88,2.26l.86,1.89c-.32.51-.87.71-1.31,1.06,0,5.42-2.92,9.32-6.39,13a42.47,42.47,0,0,0-6.48,8.16,2.69,2.69,0,0,1-.76,1.13,2.51,2.51,0,0,1-2,.07,4.49,4.49,0,0,1-2.26-2.58,3.6,3.6,0,0,1,.17-1.39c3.27-3.74,6.5-7.52,9.84-11.2,2.62-2.9,5-5.87,3.61-10.21A2,2,0,0,1,368.08,163.84Z" transform="translate(-264.94 -114.94)" fill="#fed400"/>
    <path d="M371,168h1.82c.52.89,1,1.77,2.19,1.93l.29.32v.43l-.3.31c-1.07.76-2.79,1.3-1,3-.35,8.28-7,12.48-11.67,17.94-.79.92-2.09.81-3.25.67-.74-.24-1.27-.64-1.15-1.53l.12-.22a48,48,0,0,1,7.51-9.57C369.43,177.54,371.56,173.41,371,168Z" transform="translate(-264.94 -114.94)" fill="#fdce00"/>
    <path d="M377,170.06q0,.47,0,.94l-.55.43-.62-.31q-.39-.57-.84-1.11l0-.07c-.06-1.41.52-1.7,1.69-1Z" transform="translate(-264.94 -114.94)" fill="#00187f"/>
    <path d="M307,212.53l-.91-2.4.15-1.17c7.86-6.21,12.85-15.15,20.45-21.62a4.46,4.46,0,0,1,2.15-.23,4.13,4.13,0,0,1,1.36.56,5.28,5.28,0,0,1,1.47,2.53,3.67,3.67,0,0,1-.23,2.15c-4.82,7.19-11.76,12.49-17.18,19.14a7.54,7.54,0,0,1-4.85,2.3,4,4,0,0,1-1.46-.19A2,2,0,0,1,307,212.53Z" transform="translate(-264.94 -114.94)" fill="#fde55b"/>
    <path d="M303.91,202a3.33,3.33,0,0,1,0-2.94c-.68-1.06-.32-2.24-.41-3.36.89-2.41,3.07,1.23,4-.87,6.62-6.45,12-13.93,18-20.88,1.07-1.24,1.85-2.73,3.39-3.52a3.33,3.33,0,0,1,2.75.06c2.14,3-1.54,4.26-1.92,6.51a12.65,12.65,0,0,1-1.26,1.53,14,14,0,0,0-2.18,3.22c-4.64,6-9.7,11.69-14.41,17.64a8.51,8.51,0,0,1-7.71,3.56Z" transform="translate(-264.94 -114.94)" fill="#fde673"/>
    <path d="M304.26,203c8.8-3.42,12.18-12.3,18.39-18.32,1.18-1.14,2.24-2.42,3.35-3.63a3.76,3.76,0,0,1,1,3.55c-4.09,7.52-10.58,13.15-15.82,19.77-1.48,1.86-3.92,1.4-6.06.66C304.91,204.27,303.87,203.92,304.26,203Z" transform="translate(-264.94 -114.94)" fill="#fee76a"/>
    <path d="M305.13,205c5.43-.41,8.08-4.45,11-8.23,3.15-4,6.54-7.84,9.83-11.75a.91.91,0,0,1,1.35.15A2.29,2.29,0,0,1,327,188c-4.48,5.31-9,10.6-13.43,15.95-2,2.4-4.72,3.63-7.36,5A4.23,4.23,0,0,1,305.13,205Z" transform="translate(-264.94 -114.94)" fill="#fee666"/>
    <path d="M368.08,163.84c2.2,6-.44,10.46-4.65,14.41-3.29,3.09-5.41,7.32-9.4,9.74l-.57-.4c-1.36-1.71-.41-3,.73-4.33,2.88-3.37,5.26-7.15,8.54-10.19,1.33-1.23,2.55-2.6,2.45-4.62-.08-.41-.15-.82-.25-1.22-.3-1.66-1.79-2.12-3-2.89a8.14,8.14,0,0,1-2.84-3.8c-.53-1.83.31-2.39,2-1.59a1,1,0,0,0,.87-.25.81.81,0,0,1,1,.31c.55,2,2.67,2,4,3Z" transform="translate(-264.94 -114.94)" fill="#fed700"/>
    <path d="M367,159.9a2.22,2.22,0,0,1,.92.37l0,1.62-.43,0-.43-.06Q367.1,160.88,367,159.9Z" transform="translate(-264.94 -114.94)" fill="#00268d"/>
    <path d="M361.14,158.95c-1.12.13-2,.39-.95,1.71.92,1.13,1.87,2.23,2.81,3.34a9.16,9.16,0,0,1,3,3v1c-1.54,4.36-5.12,7.16-8,10.49-1.36,1.58-2.85,1.35-4.23-.1-.86-1.63-.06-2.86,1.07-3.89a5.76,5.76,0,0,0,1.66-4.44c3.83-3.81-.05-6.25-1.62-9.1l1.09-4.79a1.28,1.28,0,0,1,.95-.11Z" transform="translate(-264.94 -114.94)" fill="#fddd01"/>
    <path d="M363,159l-1-.31q0-.38.08-.76a3.61,3.61,0,0,1,.87-.8l1,.19Z" transform="translate(-264.94 -114.94)" fill="#00348c"/>
    <path d="M358,155q0-.44,0-.88a1.4,1.4,0,0,1,.94,0Z" transform="translate(-264.94 -114.94)" fill="#006472"/>
    <path d="M362.95,157.14l-.87.8a5.36,5.36,0,0,1-.06-1A2.88,2.88,0,0,1,362.95,157.14Z" transform="translate(-264.94 -114.94)" fill="#003194"/>
    <path d="M384,189h-.86a3.51,3.51,0,0,1-1.83-2.15,3.42,3.42,0,0,1,.5-3.45L382,182c3.33.53,1.49,3.28,2.13,5Z" transform="translate(-264.94 -114.94)" fill="#001169"/>
    <path d="M307,212.53l1,.59a.76.76,0,0,1,.31.68c0,.26-.08.39-.15.39a.7.7,0,0,1-1-.24l-.45.09Z" transform="translate(-264.94 -114.94)" fill="#004395"/>
    <path d="M380.72,205.89c-.77,1.24-1.82,2.37-1.62,4l-.13,1.25c-.36.39-.47,1-.94,1.3a6.45,6.45,0,0,1-1,.54,3.32,3.32,0,0,1-1.72.38l-.56-.28a2.94,2.94,0,0,1-.52-1.17c-.18-2.17,1.46-3.72,1.94-5.67,1.26-1.72,1-5.09,4.63-4.26Z" transform="translate(-264.94 -114.94)" fill="#d1aa00"/>
    <path d="M377.94,212l1-.81,1.2,1.9-1,1.11-.52-.12a2.8,2.8,0,0,1-.82-.68l-.24-.48A.89.89,0,0,1,377.94,212Z" transform="translate(-264.94 -114.94)" fill="#000a53"/>
    <path d="M372.87,220H372c-.44-2.12,1.06-2.86,2.56-3.62a3.93,3.93,0,0,1,1.4-.07l.66.25.49.51-2,3Z" transform="translate(-264.94 -114.94)" fill="#000554"/>
    <path d="M324,209c.94,4.49-4.05,5.38-5.3,8.63-.53,1.38-2.32,2.27-3.53,3.39a3.29,3.29,0,0,0-3.12-2.11L310.88,216c1.16-1.27,2.79-.32,4.11-.88l1.21-.42C319.53,213.82,320.41,209.58,324,209Z" transform="translate(-264.94 -114.94)" fill="#fedf46"/>
    <path d="M315,216c-1.35,1.81-2.75-.42-4.12,0l-.78-.08-.36-1,.32-.64C312.51,212.49,314,213.54,315,216Z" transform="translate(-264.94 -114.94)" fill="#fede4d"/>
    <path d="M378.16,215.05l-.22,1.82-.89.17-.18-.14a5.59,5.59,0,0,0-.93-.63l-.26-.5a1.58,1.58,0,0,1,.45-1,2.14,2.14,0,0,1,1.09-.31A1.44,1.44,0,0,1,378.16,215.05Z" transform="translate(-264.94 -114.94)" fill="#000555"/>
    <path d="M378.16,215.05l-1.06,0a1.26,1.26,0,0,1-.67-.95,2.14,2.14,0,0,1,.47-1.11.81.81,0,0,1,1.08,0l.16.16a10,10,0,0,0,.74.74l.26.27Z" transform="translate(-264.94 -114.94)" fill="#000c55"/>
    <path d="M381.81,183.38l.28,3.52a1.33,1.33,0,0,1,.17,1.27,10.64,10.64,0,0,1-.86,1.88c-1,1.69-1.35,3.64-2.19,5.37-.65,1.34-1,3.33-3.38,2.32-.7-1.85.78-3.17,1.18-4.75l2-8c1.82.44,1.1-1.63,2-2.07A3,3,0,0,0,381.81,183.38Z" transform="translate(-264.94 -114.94)" fill="#e3b800"/>
    <path d="M381,182.94c-.32,1,.54,2.3-.55,3.09-.16.12-1-.66-1.48-1a6,6,0,0,1,1.84-4Z" transform="translate(-264.94 -114.94)" fill="#e8bc00"/>
    <path d="M308,214q0-.44,0-.87a1.09,1.09,0,0,1,.92-.08,1.26,1.26,0,0,1,.64,1,1.52,1.52,0,0,1-.59,1l-1,0h0q-.41-.35-.27-.7T308,214Z" transform="translate(-264.94 -114.94)" fill="#004995"/>
    <path d="M309,215l.07-1c.9-.23,1.26.15,1.18,1l-.24.1-.23-.12-.39,0Z" transform="translate(-264.94 -114.94)" fill="#608172"/>
    <path d="M308,214q0,.52,0,1a6.36,6.36,0,0,1-.79-.08l-.06-1A5.14,5.14,0,0,0,308,214Z" transform="translate(-264.94 -114.94)" fill="#004e8c"/>
    <path d="M323,163c1.06-2,2.94-2.65,5-3,1.46,2.42-.39,4-1.53,5.68-2.75,4.07-6.51,7.38-8.91,11.72-2.26,2.13-4.1,4.67-6.35,6.8-1.51,1.43-3.12,3-5.6,2.32-1.07-.64-1.44-1.45-.62-2.55-1.5-2.8,1.37-4,2.17-6l1.84,1C315.23,175,318.54,168.51,323,163Z" transform="translate(-264.94 -114.94)" fill="#fee78c"/>
    <path d="M305,184a2.14,2.14,0,0,0,1,2,3.78,3.78,0,0,1,.93,3.49,2.48,2.48,0,0,1-1.25,1.7c-1.71-.06-1.47-1.46-1.73-2.52l-.1-.67-1-2Z" transform="translate(-264.94 -114.94)" fill="#f9e084"/>
    <path d="M304.07,195l-.14,4a14.05,14.05,0,0,1-.07-11.06l.44,0c0,1.89.77,3.69.61,5.6A2.88,2.88,0,0,1,304.07,195Z" transform="translate(-264.94 -114.94)" fill="#98aa8f"/>
    <path d="M376,198c3.45-2,2-6.73,5-9a2.91,2.91,0,0,1,.79,2.78c-3.63,14.73-13.87,24.81-24.58,34.47a22.15,22.15,0,0,0-4.21,4.6L351.06,232l-1.25-.31c-2.5-.57-5.06,0-7.57-.35a1.12,1.12,0,0,1-.53-1.26c.95-1.32,2.57-1.27,3.85-1.91,2.19-.81,3.7-2.86,6.07-3.36,4.78-2.11,7.53-6.35,10.68-10.18,4.42-5.38,9.45-10.27,13.12-16.26Z" transform="translate(-264.94 -114.94)" fill="#e2b700"/>
    <path d="M353,230.85c0-1.36.13-2.6,1.39-3.5,9.18-6.53,15.18-15.95,22.08-24.53,2.5-3.11,2.8-7.3,4.52-10.82a3.72,3.72,0,0,1,1.47,2.57c-.11,1.49.4,3-.4,4.47l-.22,1.92-1,1c-2.67.6-2.56,3.32-3.81,5-3.32,4.81-6,10.09-10.66,13.89A25.48,25.48,0,0,1,362,224a3.45,3.45,0,0,0-2,2c-1.22,1.43-4.89.5-3.88,4.06a2.85,2.85,0,0,1-2.08,1.84Z" transform="translate(-264.94 -114.94)" fill="#dab100"/>
    <path d="M323,163c-3,6.81-6.21,13.4-14,16,3.29-6.18,7.28-11.79,13-16Z" transform="translate(-264.94 -114.94)" fill="#fee98f"/>
    <path d="M317,177c1.27-5,5.85-7.71,8.43-11.82,1-1.67,2.36-3.12,2.57-5.17l1-3.13,1-.89c2.9-1.32,2.23,1.3,2.81,2.54.34,2-.89,3.39-2,4.91-3.08,4.38-7.24,7.79-10.48,12C319.54,176.49,318.6,177.55,317,177Z" transform="translate(-264.94 -114.94)" fill="#fee786"/>
    <path d="M339,154.08a28,28,0,0,1,10,.14q0,.39-.06.77c-2.48,3.58-4.66,7.37-7.2,10.92a6.31,6.31,0,0,1-1.42,1.52c-.75.54-1.54,1-2.34,1.5-1.06.58-2.13,1-3.27.2-1.59-3.08.82-5,2.23-7.06s3.11-4,1.73-6.74A1.26,1.26,0,0,1,339,154.08Z" transform="translate(-264.94 -114.94)" fill="#f9e472"/>
    <path d="M341,166c2.19-4,3.47-8.67,8-11,3,1.35,3.21,3.1,1,5.52a36.71,36.71,0,0,0-3,4.48c-1,1.24-2.56,1.32-4,1.66A2.33,2.33,0,0,1,341,166Z" transform="translate(-264.94 -114.94)" fill="#fee664"/>
    <path d="M354.88,160.95c2.69,0,2.55,4.1,5.47,3.77,0,2.5-2.25,3.52-3.35,5.29-2.43,1.33-3.91-.11-5.28-1.83A2,2,0,0,1,352,166Z" transform="translate(-264.94 -114.94)" fill="#fee001"/>
    <path d="M352,166l.05,1.83-.4.56c-1.37.75-2.65.22-3.93-.26-.42-.14-.83-.31-1.24-.48-1.16-.56-2.65-.49-3.43-1.79,1.11-1.28,2.62-.72,4-.86Z" transform="translate(-264.94 -114.94)" fill="#feee56"/>
    <path d="M339,154.08q0,.46,0,.92a1.51,1.51,0,0,1-.74.59c-1.23.38-3,0-3,2.1-1,.5-2.09,1-3.25.32-.87-.48-.24-2.48-2-2,.68-1.42,2.73-.32,3.37-1.82L336,154Z" transform="translate(-264.94 -114.94)" fill="#f9e282"/>
    <path d="M360.15,205l-2.34,4c-1.12,1.59-2.8,2.58-4.2,3.86a1.74,1.74,0,0,1-.62,1l-6,3a5.54,5.54,0,0,0-5.94.11l-3,.22c-.86.17-1.21-.31-1.34-1.07.77-3.77,4.36-5.45,6.19-8.44.59-.9,1.05-1.88,1.72-2.73a5,5,0,0,1,1-.81A15.6,15.6,0,0,0,348.8,202c3.48-2.89,5.9-7.15,10.73-8.28a2.53,2.53,0,0,1,1.44,2.41C361.36,199.16,362.36,202.23,360.15,205Z" transform="translate(-264.94 -114.94)" fill="#013160"/>
    <path d="M342,230q0,.5,0,1a.72.72,0,0,1-1.13.05L337,231l-2.49-1.41c9.61-1.65,13.3-10.11,19.56-15.4l.16-.66a1.54,1.54,0,0,1,1.76-.65l1,3.13a29.85,29.85,0,0,1-10.7,12.34C345.15,229.62,343.32,229.15,342,230Z" transform="translate(-264.94 -114.94)" fill="#ebbf00"/>
    <path d="M336.93,216l1.07,1.09q0,.43,0,.85c.78,1,2.21.07,3,1-3,4.24-5.81,8.74-11.83,9l.74-3,3.11-8.83a2,2,0,0,1,1.15-.92A2.58,2.58,0,0,1,336.93,216Z" transform="translate(-264.94 -114.94)" fill="#fccf00"/>
    <path d="M341,216.91c1.93-2.68,3.92-2.7,5.94-.11Z" transform="translate(-264.94 -114.94)" fill="#00215d"/>
    <path d="M341,219c-1.1,0-2.3.17-3-1h7.28C343.78,219.62,342.28,218.72,341,219Z" transform="translate(-264.94 -114.94)" fill="#fed800"/>
    <path d="M353,213.83q0-.4,0-.8c.84-.37,1,0,.95.79l.1.35Z" transform="translate(-264.94 -114.94)" fill="#0f314f"/>
    <path d="M340.88,231,342,231c2.59.35,5.33-.77,7.81.73C346.82,231.72,343.72,233,340.88,231Z" transform="translate(-264.94 -114.94)" fill="#efbd00"/>
    <path d="M382.06,199,382,194c-.8-1.94-.47-3.92-.21-5.9l.33-1.17,1,2.08q0,3.51,0,7C382.82,197,383.09,198.28,382.06,199Z" transform="translate(-264.94 -114.94)" fill="#7b7914"/>
    <path d="M363,200c-.95-4.49,3-6.39,5.16-9,3.56-4.33,6.87-8.71,8.84-14-.21,4.94-1.43,9.34-5.3,12.93C368.46,192.93,366.63,197.26,363,200Z" transform="translate(-264.94 -114.94)" fill="#f2c500"/>
    <path d="M360.15,205a20.4,20.4,0,0,0,0-9c.42-.69.77-1.54,1.85-1q0,3,0,6C361.15,202.23,363.82,205.08,360.15,205Z" transform="translate(-264.94 -114.94)" fill="#fdcf00"/>
    <path d="M353.95,213.83,353,213a6.76,6.76,0,0,1,4.81-4l.32,1L356,212.87Z" transform="translate(-264.94 -114.94)" fill="#000e59"/>
    <path d="M346,228c4.62-3.12,6.53-8.74,11-12l20-23-1,5c-7.75,9.55-14.92,19.59-24,28-2.58-.16-3.42,3.16-6,3q-.46-.33-.3-.67T346,228Z" transform="translate(-264.94 -114.94)" fill="#e8bc00"/>
    <path d="M362,195l-1.85,1-1.13-2a1.36,1.36,0,0,1-.15-1.9c7.14-2.84,10.58-9.09,14-15.3A21.22,21.22,0,0,0,374,174c1.52,5.33-1.59,8.84-4.81,12.32C366.63,189.08,363.38,191.27,362,195Z" transform="translate(-264.94 -114.94)" fill="#f9cb00"/>
    <path d="M376,172l-1-1,.22-.22a.73.73,0,0,1,.79.2h0a.61.61,0,0,1,.24.68Q376.14,172,376,172Z" transform="translate(-264.94 -114.94)" fill="#f9cb00"/>
    <path d="M376,172v-1l1,0-.13,1.14A3.42,3.42,0,0,1,376,172Z" transform="translate(-264.94 -114.94)" fill="#1e4659"/>
    <path d="M334,215.79l-1,.39c-1.27-.4-1.34-2.38-3-2.27l-.39-.94c-.83-.8-1.43-1.66-.82-2.87,2-1.76,4.05-1.59,6.22-.43C336.6,212,335.74,214,334,215.79Z" transform="translate(-264.94 -114.94)" fill="#0a6494"/>
    <path d="M324,209c-2.56,2.44-4,6.14-8,7-1.84-2.46.14-4,1.43-5.64,3.41-4.31,7.35-8.18,10.56-12.66a17.22,17.22,0,0,0,3-5.7l0-1.84c.71-.53,1.27-.13,1.85.27a4.78,4.78,0,0,1,2.06,3.43c.18,2.59-2.67,4.51-1.6,7.3a1.76,1.76,0,0,1-.32,1.17,11.74,11.74,0,0,1-1.41,1.14c-.45.39-.9.79-1.32,1.21s-.84.91-1.28,1.35c-1.14.94-2,2.41-3.83,2Z" transform="translate(-264.94 -114.94)" fill="#fce44a"/>
    <path d="M325.15,208l3.81-3.17c2,2.17.07,3.95-.58,5.86-1.32,1.19-1.77,0-2.34-.87Z" transform="translate(-264.94 -114.94)" fill="#00529c"/>
    <path d="M326,209.87l2,1q.9-.72.84.43l.81,1.62C326.91,213.72,325.34,213.12,326,209.87Z" transform="translate(-264.94 -114.94)" fill="#fef22d"/>
    <path d="M362,224l15-17c0,2.22-2.61,3.57-2,6-2.23,3.71-5.31,6.7-8.25,9.81-1.17.65-2.18,1.81-3.75,1.19Z" transform="translate(-264.94 -114.94)" fill="#d9b000"/>
    <path d="M363,224l3-2c.59.6,1.7.15,2.15,1.06l-3,3A3.46,3.46,0,0,1,363,224Z" transform="translate(-264.94 -114.94)" fill="#d2aa00"/>
    <path d="M368.15,223.06A2.3,2.3,0,0,1,366,222c3.31-2.69,5-7,9-9h0a1.35,1.35,0,0,1,.47,1.84.91.91,0,0,0-.3.9c.06.3.13.45.22.45a.68.68,0,0,1-.53.71L372,220l-3,3Z" transform="translate(-264.94 -114.94)" fill="#d0a900"/>
    <path d="M371,168c1.53,5.06.52,9.08-3.79,12.66-3.49,2.89-5,7.81-9.16,10.21-.84-1.26-.82-2,.51-3.28,2.76-2.56,5.14-5.54,7.64-8.37,2.81-3.18,4.44-6.79,4-11.15,0-.07.23-.23.36-.24A1.26,1.26,0,0,1,371,168Z" transform="translate(-264.94 -114.94)" fill="#fed100"/>
    <path d="M354,188a2.94,2.94,0,0,1,.09.67,2.58,2.58,0,0,1-.84,3.48c-2.64,2-4.29,4.89-6.65,7.13-2.65.09-3.71-1.94-4.93-3.74a3,3,0,0,1-.23-2.09,2,2,0,0,1,.91-1c3.7-.43,5.21-3.83,7.79-5.79A4.29,4.29,0,0,1,354,188Z" transform="translate(-264.94 -114.94)" fill="#003e75"/>
    <path d="M346.17,199c1.12-4.62,6.18-6.21,7.95-10.33l1.92,2.22c1.49,2.88-1.09,4.07-2.46,5.67a17.13,17.13,0,0,1-4.34,3.91,3.45,3.45,0,0,1-2.22.2C346.33,200.32,345.68,200,346.17,199Z" transform="translate(-264.94 -114.94)" fill="#00376d"/>
    <path d="M349,200c1.74-3.51,6.24-4.89,7-9.12l1.88.2.95,1,.15,1.9L349,203A2.11,2.11,0,0,1,349,200Z" transform="translate(-264.94 -114.94)" fill="#003568"/>
    <path d="M376,171l-.79-.2A4.19,4.19,0,0,0,375,170,1,1,0,0,1,376,171Z" transform="translate(-264.94 -114.94)" fill="#1e4659"/>
    <path d="M331,192c1.94,2.71-.51,4.41-1.74,6-3.49,4.57-7.29,8.92-11.08,13.25-1.24,1.41-2.45,2.69-2.18,4.74h-1c-1.52-.71-2.74-2.84-4.79-1L309,214a1.81,1.81,0,0,1-.12-.94c6.33-1.57,8.43-7.92,13-11.56C325.26,198.75,328,195.19,331,192Z" transform="translate(-264.94 -114.94)" fill="#fee24f"/>
    <path d="M332.16,191c-.19-.54-.45-1-1.15-.84-1-.29-1.09-1.07-1.14-1.9-.62-1.93,1.1-1.48,1.94-1.92,2.28-1.14,3.75-3.18,5.47-4.93,1.13-1.15,2.14-2.73,4.12-1.39a6.88,6.88,0,0,1,1.29,4.26C340.39,190.22,337.36,192.15,332.16,191Z" transform="translate(-264.94 -114.94)" fill="#0072a4"/>
    <path d="M332,188c-.75-.17-1.58-1-2.12.3q-.44-.12-.87-.27a3.2,3.2,0,0,1-.9-2.11,3.36,3.36,0,0,1,.73-2.24c1.15-.76,2.3-1.62,3.64-.33A4.15,4.15,0,0,1,332,188Z" transform="translate(-264.94 -114.94)" fill="#2584b3"/>
    <path d="M328.76,186.13,329,188h-2v-3c-.53-.93.07-1.13.8-1.24C328.76,184.29,328.35,185.38,328.76,186.13Z" transform="translate(-264.94 -114.94)" fill="#feef5b"/>
    <path d="M329,171a205.9,205.9,0,0,1-21,25c-1.49.25-1.47-.75-1.45-1.75.87-1.64,1.8-3.25,2.57-5,6.47-9.27,14.36-17.37,21.74-25.87,1.63-1.88,1.33-4.93,4.05-5.89,3.06-.15,4.32,1.22,2.52,3.86C335,164.92,333.1,168.94,329,171Z" transform="translate(-264.94 -114.94)" fill="#fde97d"/>
    <path d="M329,171c2.44-3.2,4.84-6.43,7.34-9.59,1.61-2,1.37-3.17-1.34-3.41q-.51-.33-.34-.67T335,157c-.15-3.62,2.61-1.45,4-2,4.38,2,1.17,4.37.07,6.24-1.46,2.49-4.1,4.31-4.07,7.61a2.09,2.09,0,0,1-.6,1.49,4.15,4.15,0,0,1-1.31,1,.86.86,0,0,1-1-.3Z" transform="translate(-264.94 -114.94)" fill="#fee67b"/>
    <path d="M334,169.89l1-1c1.22.51,1.94-.55,2.87-.93,1.89-.42,2.45.67,2.23,2.21-.41,2.89-8.06,8.92-11.27,9a2,2,0,0,1,.09-2.19c-.55-2.84,3-3.49,3.2-5.9l.76-.08A3.54,3.54,0,0,0,334,169.89Z" transform="translate(-264.94 -114.94)" fill="#4997c1"/>
    <path d="M307,194a2.06,2.06,0,0,0,1,2c-2.42,4.18-2.73-.19-3.93-1q0-.52,0-1c.69-.61.2-1.85,1.22-2.28C306.57,191.93,307.48,192.44,307,194Z" transform="translate(-264.94 -114.94)" fill="#fee47b"/>
    <path d="M327.75,184l-.76,1h-1q0-2,0-4a3,3,0,0,1,2-3C329.21,180.05,329.84,182.08,327.75,184Z" transform="translate(-264.94 -114.94)" fill="#feeb67"/>
    <path d="M327.75,184l.2-6,1-1.06.16,2.08a3.64,3.64,0,0,1-.1,5l-.21,2.13Z" transform="translate(-264.94 -114.94)" fill="#a0b896"/>
    <path d="M354,188c-1.47.36-2.7-.41-4-.83-2.4.27-3.8-1.31-5.24-2.82a3.12,3.12,0,0,1-.26-1.34c.49-2.21,1.08-4.38,2.89-6a3.23,3.23,0,0,1,1.18-.46,9.67,9.67,0,0,1,2.9.67,3.62,3.62,0,0,0,1.55.29,1,1,0,0,1,.88.42c4.3,2.06,5.22-2.21,7-4.14s3-4.19,5.11-5.82c1.49,2.73-.65,4.22-2.2,5.62-3.69,3.32-6,7.75-9.5,11.2C353.12,186,354.23,186.95,354,188Z" transform="translate(-264.94 -114.94)" fill="#fcdb01"/>
    <path d="M366,167a6.26,6.26,0,0,1-3-3A2.81,2.81,0,0,1,366,167Z" transform="translate(-264.94 -114.94)" fill="#fcdb01"/>
    <path d="M351.87,178c-1-.26-2.41.6-2.91-1.05a3.53,3.53,0,0,1-1-2.68,7,7,0,0,1,1.86-4.55c.64-.64,1.53-1,2.17-1.6l.06-.33c1.66.73,3,2.23,5,2.19,1.58,2.07,1.66,3.86-1,5a3,3,0,0,0-2.07,3l-.77.08A1,1,0,0,1,351.87,178Z" transform="translate(-264.94 -114.94)" fill="#0c5985"/>
    <path d="M375,214v-1h1l.63-.44.57.51a4.2,4.2,0,0,0-.23.88,1.36,1.36,0,0,1-1,.56A1.18,1.18,0,0,1,375,214Z" transform="translate(-264.94 -114.94)" fill="#dab100"/>
    <path d="M378,213a2.93,2.93,0,0,1-.77.09l-.28,0-.27-.09a1.22,1.22,0,0,1,.42-1q.43,0,.85-.05Z" transform="translate(-264.94 -114.94)" fill="#8e7f16"/>
    <path d="M377.09,212l-.42,1a6.18,6.18,0,0,0-.66,0Z" transform="translate(-264.94 -114.94)" fill="#e6b300"/>
    <path d="M378.89,213.89l-.74-.74Z" transform="translate(-264.94 -114.94)" fill="#000456"/>
    <path d="M374.85,216.9A5.14,5.14,0,0,0,375,216a.46.46,0,0,1,.79-.13.61.61,0,0,1,.55.17.9.9,0,0,1-.42.92Z" transform="translate(-264.94 -114.94)" fill="#384130"/>
    <path d="M375.88,216.95l.42-.92.58.88Z" transform="translate(-264.94 -114.94)" fill="#000456"/>
    <path d="M375.76,215.85a1.63,1.63,0,0,0-.79.13,4.76,4.76,0,0,1-.33-.73s.25-.17.39-.25l.62-.44.61.44A2.27,2.27,0,0,0,375.76,215.85Z" transform="translate(-264.94 -114.94)" fill="#e5b300"/>
    <path d="M376.21,214.07A4.07,4.07,0,0,0,377,214l.12,1.08-.42,0-.42-.06-.27.15-.3-.08A.83.83,0,0,1,376.21,214.07Z" transform="translate(-264.94 -114.94)" fill="#384130"/>
    <path d="M381.75,188.07,382,194a2,2,0,0,1-1-2q0-1.5,0-3Z" transform="translate(-264.94 -114.94)" fill="#f0bc00"/>
    <path d="M335,157q0,.5,0,1c-3.21,8.37-10.67,13.52-15.74,20.5-2.86,3.94-6.22,7.62-9.26,11.5-1.33.86-2.67,1.21-4,0q0-2,0-4c5.25-1.07,6.5-7,11-9,4.82-5.37,9.68-10.72,14.41-16.17.55-.64.41-1.87.59-2.83Z" transform="translate(-264.94 -114.94)" fill="#fee983"/>
    <path d="M306,190h4c-1.1,1.26-.43,3.85-3,4a3.44,3.44,0,0,0-2-2,.6.6,0,0,1-.25-.67q.12-.33.25-.33Z" transform="translate(-264.94 -114.94)" fill="#fee77e"/>
    <path d="M305,191v1a2.07,2.07,0,0,1-.95,2l.25-5.93C305.17,188.88,305,190,305,191Z" transform="translate(-264.94 -114.94)" fill="#fee87d"/>
    <path d="M352,226c8-9.32,14.7-19.78,24-28,.46,2.54-1.44,4-2.79,5.55-5.76,6.8-11.09,14-17.49,20.24C354.66,224.82,353.7,226,352,226Z" transform="translate(-264.94 -114.94)" fill="#e3b800"/>
    <path d="M346,228v1c-1.05,1.46-2.62.86-4,1Z" transform="translate(-264.94 -114.94)" fill="#e9bd00"/>
    <path d="M329,184q.05-2.49.1-5c4.44-1.55,6.64-5.69,9.88-8.62,1.39-1.25-.08-1.93-1.09-2.49l2.11-1c1.44-.77,3-.29,4.5-.38,2.42,1.25,2.37,3.24.9,4.91-3.91,4.45-8,8.74-13.38,11.53Z" transform="translate(-264.94 -114.94)" fill="#348ab7"/>
    <path d="M345,167.16l-5-.23,1-1,2-.12c1.35.28,2.91-.23,4,1A1.45,1.45,0,0,1,345,167.16Z" transform="translate(-264.94 -114.94)" fill="#c4c886"/>
    <path d="M345,167.16l2-.29,1,.28c.11,1.83,3.3.48,2.91,2.82a6.42,6.42,0,0,0-1.95,4c-1.46.73-3.28.73-4.4,2.15a12.81,12.81,0,0,0-1.7,1.72c-.6.8-1,1.81-2,2.19L332,188q0-2.48,0-5c3.13-4.27,7.79-6.93,11.34-10.76C344.75,170.71,346,169.38,345,167.16Z" transform="translate(-264.94 -114.94)" fill="#2584b3"/>
    <path d="M350.93,170c-.61-1.31-3.09-.69-2.91-2.82l3.94,1A1.65,1.65,0,0,1,350.93,170Z" transform="translate(-264.94 -114.94)" fill="#0477b5"/>
    <path d="M346.17,199c-.19.64.16.91.7,1,1.93,2.1.08,3.43-1,4.92l-.74.08a5.27,5.27,0,0,1-5.83,2,3.91,3.91,0,0,1-1.42-.7c-1.78-3.21.5-5.91,1.14-8.81A7,7,0,0,1,340.6,195a1.21,1.21,0,0,1,1.35,0Z" transform="translate(-264.94 -114.94)" fill="#f9da02"/>
    <path d="M338,205.88a1.29,1.29,0,0,0,1,.15c1.51.88,3.47.31,4.87,1.52-1.34,3.61-4.92,5.4-6.9,8.49l-2.89-.25,1-5.79a5.28,5.28,0,0,1,.46-3,3.33,3.33,0,0,1,1.32-1.32A1.21,1.21,0,0,1,338,205.88Z" transform="translate(-264.94 -114.94)" fill="#00356a"/>
    <path d="M345.87,205c0-1.7,1.76-3.06,1-4.92l2.12,0q0,1.5,0,3C348.26,204.13,347,204.47,345.87,205Z" transform="translate(-264.94 -114.94)" fill="#002e6e"/>
    <path d="M343.82,207.55c-1.82.14-3.31-.82-4.87-1.52,2.1-.06,4.24.07,6.18-1Z" transform="translate(-264.94 -114.94)" fill="#e9cb07"/>
    <path d="M336,207c-.07,1.09.18,2.28-1,3-2.08.35-4.53-1-6.19,1.34a1.23,1.23,0,0,1-.84-.43l1-6,.9-.93a3.61,3.61,0,0,1,1.21-.47,3.91,3.91,0,0,1,1.93-.29,3.59,3.59,0,0,1,1.2.51A6.33,6.33,0,0,1,336,207Z" transform="translate(-264.94 -114.94)" fill="#0a6494"/>
    <path d="M338,205.88a2.58,2.58,0,0,1-.92.19c-1.91.17-2.22-1.74-3.36-2.58l-.62-.18-.39-.52.22-.6c-3.93-3.38,1.31-5.5,1.15-8.36a2,2,0,0,1,1.24-.35,4.28,4.28,0,0,1,1.72,1c1,.88,2.31,1.34,3,2.56Z" transform="translate(-264.94 -114.94)" fill="#fee342"/>
    <path d="M335,193.76l-.48.13-.49-.06c.37-1.63-1.92-1.44-1.91-2.82,5-.08,8.06-2.85,9.93-7.24a2.79,2.79,0,0,1,1-.76,1.63,1.63,0,0,1,1.79.18,3.45,3.45,0,0,0,.24.88c2,4-.52,6.5-3.09,9l-.09-.06C339.78,194.4,337.39,193.89,335,193.76Z" transform="translate(-264.94 -114.94)" fill="#016a9f"/>
    <path d="M333,204h-2a1,1,0,0,1-.3-.83q.06-.45.16-.45c.22-.55.58-.77,1.16-.49a2.16,2.16,0,0,1,1,.79h0q.51.33.34.65C333.21,203.89,333.09,204,333,204Z" transform="translate(-264.94 -114.94)" fill="#004aa5"/>
    <path d="M330.85,202.72,331,204l-1.14-.06Z" transform="translate(-264.94 -114.94)" fill="#0f6691"/>
    <path d="M333,203l-1-.79a1.21,1.21,0,0,1,.91,0Z" transform="translate(-264.94 -114.94)" fill="#0f6691"/>
    <path d="M376.21,214.07l-.52,1A2.34,2.34,0,0,0,375,215q0-.5,0-1Z" transform="translate(-264.94 -114.94)" fill="#e6b400"/>
    <path d="M342,193c.66-3.11,3.7-5.4,3.09-9l4.88,3.09C348.3,190.4,346.88,194,342,193Z" transform="translate(-264.94 -114.94)" fill="#01417b"/>
    <path d="M335,193.76a10.5,10.5,0,0,1,6.89-.8q0,1,0,2l-1,.25a4.32,4.32,0,0,1-4.9-.33Z" transform="translate(-264.94 -114.94)" fill="#06659a"/>
    <path d="M343,183.75l-.43.08-.43-.06a6.49,6.49,0,0,1-1.23-3.73,4.07,4.07,0,0,1,1.42-2.91c1-.14,1.34.59,1.65,1.34A5.54,5.54,0,0,1,343,183.75Z" transform="translate(-264.94 -114.94)" fill="#fef839"/>
    <path d="M334,169.89,332.89,171Z" transform="translate(-264.94 -114.94)" fill="#4f9dc8"/>
    <path d="M343,183.75l0-5.65a3.42,3.42,0,0,1,4.52-1.72l.6.48-3.21,6.32Z" transform="translate(-264.94 -114.94)" fill="#fee655"/>
    <path d="M344,176c.76-2.9,2.57-3.18,5-2q0,1.51,0,3l-.42-.14h-.45v0C346.85,176,345.2,177.07,344,176Z" transform="translate(-264.94 -114.94)" fill="#1678a8"/>
    <path d="M351.87,178h1.25Q352.5,179.59,351.87,178Z" transform="translate(-264.94 -114.94)" fill="#00438e"/>
    <path d="M344,176c1.39.15,2.94-.42,4.08.87-1.78.14-3.57.2-5.13,1.26l-.69-1Z" transform="translate(-264.94 -114.94)" fill="#e2d858"/>
    <path d="M336.05,194.86l4.9.33A1.81,1.81,0,0,1,340,197C338.42,196.8,336.95,196.36,336.05,194.86Z" transform="translate(-264.94 -114.94)" fill="#fef330"/>
    <path d="M334,203.26l3,2.8-1,1a3,3,0,0,1-2-3q-.44-.26-.29-.51C333.82,203.34,333.92,203.26,334,203.26Z" transform="translate(-264.94 -114.94)" fill="#00529e"/>
    <path d="M334,203.26q0,.37,0,.75h-1q0-.48,0-1Z" transform="translate(-264.94 -114.94)" fill="#0f6691"/>
  </g>
</svg>
