<svg id="Layer_1" data-name="Layer 1" xmlns="http://www.w3.org/2000/svg" width="155.13" height="155.12" viewBox="0 0 155.13 155.12">
  <title>vens-md</title>
  <g>
    <path d="M.07,77.06q0-37-.07-74C0,.56.57,0,3.07,0q74.5.13,149,0c2.5,0,3.07.56,3.06,3.06q-.13,74.5,0,149c0,2.5-.56,3.07-3.06,3.06q-74.5-.13-149,0c-2.5,0-3.08-.56-3.07-3.06Q.11,114.56.07,77.06Z" transform="translate(0 0)" fill="#fefefe"/>
    <path d="M150.07,78.18a72,72,0,1,1-144-.49c.1-39.46,32.43-71.63,72-71.63a72,72,0,0,1,72,72Z" transform="translate(0 0)" fill="#0000e0"/>
    <path d="M140.07,78.18a62,62,0,1,1-124-.49h0c.14-34,28.13-61.72,62.24-61.63A62.15,62.15,0,0,1,140.07,78.18Z" transform="translate(0 0)" fill="#fefefe"/>
    <path d="M78.75,100.74c5.32-14.23,10.32-27.68,15.32-41.11,3.7-10,3.67-10,14.39-10,10.25,0,10.19,0,6.47,9.4-8.25,20.87-16.52,41.74-24.55,62.7-1.29,3.36-2.87,4.77-6.46,4.37-5.22-.58-11.66,2.08-15.41-1.1-3.45-2.93-4.21-9.08-6-13.85-8-21-15.87-42-24-62.91-1.31-3.38-1.24-5.7,1.82-8,2.62-2,4.77-4.64,7.14-7,5.24-5.15,5.28-5.12,7.67,1.63q10.49,29.65,21,59.28C76.84,96.06,77.66,98,78.75,100.74Z" transform="translate(0 0)" fill="#0092d7"/>
  </g>
</svg>
